<?xml version="1.0" encoding="utf-8" standalone="no"?>
<!DOCTYPE svg PUBLIC "-//W3C//DTD SVG 1.1//EN"
  "http://www.w3.org/Graphics/SVG/1.1/DTD/svg11.dtd">
<svg xmlns:xlink="http://www.w3.org/1999/xlink" width="351.770642pt" height="208.8pt" viewBox="0 0 351.770642 208.8" xmlns="http://www.w3.org/2000/svg" version="1.1">
 <metadata>
  <rdf:RDF xmlns:dc="http://purl.org/dc/elements/1.1/" xmlns:cc="http://creativecommons.org/ns#" xmlns:rdf="http://www.w3.org/1999/02/22-rdf-syntax-ns#">
   <cc:Work>
    <dc:type rdf:resource="http://purl.org/dc/dcmitype/StillImage"/>
    <dc:date>2024-04-11T09:33:01.571637</dc:date>
    <dc:format>image/svg+xml</dc:format>
    <dc:creator>
     <cc:Agent>
      <dc:title>Matplotlib v3.8.3, https://matplotlib.org/</dc:title>
     </cc:Agent>
    </dc:creator>
   </cc:Work>
  </rdf:RDF>
 </metadata>
 <defs>
  <style type="text/css">*{stroke-linejoin: round; stroke-linecap: butt}</style>
 </defs>
 <g id="figure_1">
  <g id="patch_1">
   <path d="M 0 208.8 
L 351.770642 208.8 
L 351.770642 0 
L 0 0 
L 0 208.8 
z
" style="fill: none"/>
  </g>
  <g id="axes_1">
   <g id="patch_2">
    <path d="M 40.034375 184.921875 
L 341.680256 184.921875 
L 341.680256 22.318125 
L 40.034375 22.318125 
L 40.034375 184.921875 
z
" style="fill: none; opacity: 0"/>
   </g>
   <g id="PolyCollection_1">
    <path d="M 59.485191 103.62 
L 60.1655 101.135339 
L 61.082636 98.209172 
L 61.999771 95.687879 
L 62.916907 93.552891 
L 63.834042 91.785641 
L 64.751178 90.36756 
L 65.668313 89.280079 
L 66.585449 88.504631 
L 67.502585 88.022647 
L 68.41972 87.815559 
L 69.336856 87.864798 
L 70.253991 88.151796 
L 71.171127 88.657985 
L 72.088262 89.364797 
L 73.005398 90.253663 
L 73.922533 91.306015 
L 74.839669 92.503285 
L 75.756804 93.826905 
L 76.67394 95.258305 
L 77.591076 96.778918 
L 78.508211 98.370176 
L 79.425347 100.01351 
L 80.342482 101.690352 
L 81.259618 103.382134 
L 81.388845 103.62 
L 81.259618 103.62 
L 80.342482 103.62 
L 79.425347 103.62 
L 78.508211 103.62 
L 77.591076 103.62 
L 76.67394 103.62 
L 75.756804 103.62 
L 74.839669 103.62 
L 73.922533 103.62 
L 73.005398 103.62 
L 72.088262 103.62 
L 71.171127 103.62 
L 70.253991 103.62 
L 69.336856 103.62 
L 68.41972 103.62 
L 67.502585 103.62 
L 66.585449 103.62 
L 65.668313 103.62 
L 64.751178 103.62 
L 63.834042 103.62 
L 62.916907 103.62 
L 61.999771 103.62 
L 61.082636 103.62 
L 60.1655 103.62 
z
" clip-path="url(#pda1c05e068)" style="fill: #6ec5bc; fill-opacity: 0.1; stroke: #6ec5bc; stroke-opacity: 0.1"/>
    <path d="M 108.001477 103.62 
L 108.773684 102.815201 
L 109.69082 101.978036 
L 110.607955 101.280281 
L 111.525091 100.74267 
L 112.442226 100.385937 
L 113.359362 100.226141 
L 114.276497 100.256165 
L 115.193633 100.461723 
L 116.110768 100.828525 
L 117.027904 101.342281 
L 117.94504 101.988701 
L 118.862175 102.753497 
L 119.7768 103.62 
L 118.862175 103.62 
L 117.94504 103.62 
L 117.027904 103.62 
L 116.110768 103.62 
L 115.193633 103.62 
L 114.276497 103.62 
L 113.359362 103.62 
L 112.442226 103.62 
L 111.525091 103.62 
L 110.607955 103.62 
L 109.69082 103.62 
L 108.773684 103.62 
z
" clip-path="url(#pda1c05e068)" style="fill: #6ec5bc; fill-opacity: 0.1; stroke: #6ec5bc; stroke-opacity: 0.1"/>
   </g>
   <g id="PolyCollection_2">
    <path d="M 53.745551 134.514712 
L 53.745551 134.514712 
L 54.662687 128.234516 
L 55.579822 122.489172 
L 56.496958 117.260111 
L 57.414094 112.528766 
L 58.331229 108.276568 
L 59.248365 104.484948 
L 59.485191 103.62 
L 59.248365 103.62 
L 58.331229 103.62 
L 57.414094 103.62 
L 56.496958 103.62 
L 55.579822 103.62 
L 54.662687 103.62 
L 53.745551 103.62 
z
" clip-path="url(#pda1c05e068)" style="fill: #ed6b4d; fill-opacity: 0.1; stroke: #ed6b4d; stroke-opacity: 0.1"/>
    <path d="M 81.388845 103.62 
L 82.176753 105.070287 
L 83.093889 106.736243 
L 84.011024 108.361434 
L 84.92816 109.927291 
L 85.845295 111.415246 
L 86.762431 112.806732 
L 87.679567 114.083178 
L 88.596702 115.226019 
L 89.513838 116.216684 
L 90.430973 117.036606 
L 91.348109 117.667216 
L 92.265244 118.089946 
L 93.18238 118.286381 
L 94.099515 118.251416 
L 95.016651 118.003396 
L 95.933786 117.563056 
L 96.850922 116.951127 
L 97.768058 116.188344 
L 98.685193 115.29544 
L 99.602329 114.293148 
L 100.519464 113.202201 
L 101.4366 112.043333 
L 102.353735 110.837276 
L 103.270871 109.604765 
L 104.188006 108.366531 
L 105.105142 107.143309 
L 106.022277 105.955832 
L 106.939413 104.824833 
L 107.856549 103.771045 
L 108.001477 103.62 
L 107.856549 103.62 
L 106.939413 103.62 
L 106.022277 103.62 
L 105.105142 103.62 
L 104.188006 103.62 
L 103.270871 103.62 
L 102.353735 103.62 
L 101.4366 103.62 
L 100.519464 103.62 
L 99.602329 103.62 
L 98.685193 103.62 
L 97.768058 103.62 
L 96.850922 103.62 
L 95.933786 103.62 
L 95.016651 103.62 
L 94.099515 103.62 
L 93.18238 103.62 
L 92.265244 103.62 
L 91.348109 103.62 
L 90.430973 103.62 
L 89.513838 103.62 
L 88.596702 103.62 
L 87.679567 103.62 
L 86.762431 103.62 
L 85.845295 103.62 
L 84.92816 103.62 
L 84.011024 103.62 
L 83.093889 103.62 
L 82.176753 103.62 
z
" clip-path="url(#pda1c05e068)" style="fill: #ed6b4d; fill-opacity: 0.1; stroke: #ed6b4d; stroke-opacity: 0.1"/>
    <path d="M 119.7768 103.62 
L 119.779311 103.622378 
L 120.696446 104.581056 
L 121.613582 105.61524 
L 122.530717 106.710641 
L 123.447853 107.852969 
L 124.364988 109.027936 
L 125.282124 110.22125 
L 126.199259 111.418624 
L 127.116395 112.605767 
L 128.033531 113.76839 
L 128.950666 114.892204 
L 129.867802 115.962918 
L 130.784937 116.966243 
L 131.702073 117.887891 
L 132.619208 118.714275 
L 133.536344 119.443655 
L 134.453479 120.084116 
L 135.370615 120.644041 
L 136.28775 121.131813 
L 137.204886 121.555814 
L 138.122022 121.924428 
L 139.039157 122.246036 
L 139.956293 122.529022 
L 140.873428 122.781768 
L 141.790564 123.012658 
L 142.707699 123.230074 
L 143.624835 123.442399 
L 144.54197 123.658016 
L 145.459106 123.885307 
L 146.376241 124.132655 
L 147.293377 124.408443 
L 148.210513 124.721054 
L 149.127648 125.07887 
L 150.044784 125.490275 
L 150.961919 125.963651 
L 151.879055 126.507352 
L 152.79619 127.124593 
L 153.713326 127.807571 
L 154.630461 128.547058 
L 155.547597 129.333829 
L 156.464732 130.158657 
L 157.381868 131.012316 
L 158.299004 131.885578 
L 159.216139 132.769218 
L 160.133275 133.654009 
L 161.05041 134.530723 
L 161.967546 135.390136 
L 162.884681 136.223019 
L 163.801817 137.020147 
L 164.718952 137.772293 
L 165.636088 138.47023 
L 166.553223 139.104732 
L 167.470359 139.666572 
L 168.387494 140.146524 
L 169.30463 140.535361 
L 170.221766 140.823856 
L 171.138901 141.002784 
L 172.056037 141.064776 
L 172.973172 141.013945 
L 173.890308 140.858775 
L 174.807443 140.607758 
L 175.724579 140.26939 
L 176.641714 139.852162 
L 177.55885 139.364569 
L 178.475985 138.815104 
L 179.393121 138.21226 
L 180.310257 137.564531 
L 181.227392 136.88041 
L 182.144528 136.16839 
L 183.061663 135.436965 
L 183.978799 134.694629 
L 184.895934 133.949874 
L 185.81307 133.211195 
L 186.730205 132.487084 
L 187.647341 131.786035 
L 188.564476 131.116541 
L 189.481612 130.487096 
L 190.398748 129.906194 
L 191.315883 129.382177 
L 192.233019 128.919938 
L 193.150154 128.52092 
L 194.06729 128.186414 
L 194.984425 127.917712 
L 195.901561 127.716107 
L 196.818696 127.58289 
L 197.735832 127.519353 
L 198.652967 127.526789 
L 199.570103 127.606489 
L 200.487239 127.759746 
L 201.404374 127.987851 
L 202.32151 128.292096 
L 203.238645 128.673773 
L 204.155781 129.134175 
L 205.072916 129.674593 
L 205.990052 130.29632 
L 206.907187 131.000647 
L 207.824323 131.788867 
L 208.741458 132.66227 
L 209.658594 133.622151 
L 210.57573 134.669792 
L 211.492865 135.803037 
L 212.410001 137.010689 
L 213.327136 138.280089 
L 214.244272 139.598576 
L 215.161407 140.95349 
L 216.078543 142.332172 
L 216.995678 143.721962 
L 217.912814 145.1102 
L 218.829949 146.484226 
L 219.747085 147.831379 
L 220.664221 149.139001 
L 221.581356 150.394431 
L 222.498492 151.585009 
L 223.415627 152.698076 
L 224.332763 153.72097 
L 225.249898 154.641034 
L 226.167034 155.445605 
L 227.084169 156.122026 
L 228.001305 156.657635 
L 228.91844 157.039773 
L 229.835576 157.25578 
L 230.752712 157.295094 
L 231.669847 157.163392 
L 232.586983 156.873924 
L 233.504118 156.439984 
L 234.421254 155.874866 
L 235.338389 155.191864 
L 236.255525 154.40427 
L 237.17266 153.525379 
L 238.089796 152.568483 
L 239.006931 151.546877 
L 239.924067 150.473855 
L 240.841203 149.362708 
L 241.758338 148.226732 
L 242.675474 147.07922 
L 243.592609 145.933465 
L 244.509745 144.802761 
L 245.42688 143.700402 
L 246.344016 142.63968 
L 247.261151 141.63389 
L 248.178287 140.696325 
L 249.095422 139.840278 
L 250.012558 139.078785 
L 250.929694 138.416316 
L 251.846829 137.847022 
L 252.763965 137.36444 
L 253.6811 136.962107 
L 254.598236 136.63356 
L 255.515371 136.372336 
L 256.432507 136.171971 
L 257.349642 136.026002 
L 258.266778 135.927967 
L 259.183913 135.8714 
L 260.101049 135.849841 
L 261.018185 135.856825 
L 261.93532 135.885889 
L 262.852456 135.93057 
L 263.769591 135.984405 
L 264.686727 136.04093 
L 265.603862 136.093683 
L 266.520998 136.1362 
L 267.438133 136.162018 
L 268.355269 136.164673 
L 269.272404 136.137704 
L 270.18954 136.076491 
L 271.106676 135.982378 
L 272.023811 135.857907 
L 272.940947 135.705624 
L 273.858082 135.528073 
L 274.775218 135.327797 
L 275.692353 135.107342 
L 276.609489 134.86925 
L 277.526624 134.616068 
L 278.44376 134.350337 
L 279.360895 134.074604 
L 280.278031 133.791412 
L 281.195167 133.503305 
L 282.112302 133.212828 
L 283.029438 132.922524 
L 283.946573 132.634938 
L 284.863709 132.352615 
L 285.780844 132.078098 
L 286.69798 131.813931 
L 287.615115 131.562659 
L 288.532251 131.326827 
L 289.449386 131.108779 
L 290.366522 130.908923 
L 291.283657 130.726562 
L 292.200793 130.560985 
L 293.117929 130.411485 
L 294.035064 130.277352 
L 294.9522 130.157877 
L 295.869335 130.05235 
L 296.786471 129.960064 
L 297.703606 129.880307 
L 298.620742 129.812372 
L 299.537877 129.755549 
L 300.455013 129.70913 
L 301.372148 129.672404 
L 302.289284 129.644663 
L 303.20642 129.625197 
L 304.123555 129.613298 
L 305.040691 129.608256 
L 305.957826 129.609363 
L 306.874962 129.615908 
L 307.792097 129.627184 
L 308.709233 129.64248 
L 309.626368 129.661088 
L 310.543504 129.682298 
L 311.460639 129.705401 
L 312.377775 129.729689 
L 313.294911 129.754452 
L 314.212046 129.778981 
L 315.129182 129.802566 
L 316.046317 129.824499 
L 316.963453 129.84407 
L 317.880588 129.860571 
L 318.797724 129.873292 
L 319.714859 129.881524 
L 320.631995 129.884558 
L 321.54913 129.881685 
L 322.466266 129.872195 
L 323.383402 129.85538 
L 324.300537 129.83053 
L 325.217673 129.796936 
L 326.134808 129.753889 
L 327.051944 129.70068 
L 327.969079 129.6366 
L 327.969079 129.6366 
L 327.969079 103.62 
L 327.051944 103.62 
L 326.134808 103.62 
L 325.217673 103.62 
L 324.300537 103.62 
L 323.383402 103.62 
L 322.466266 103.62 
L 321.54913 103.62 
L 320.631995 103.62 
L 319.714859 103.62 
L 318.797724 103.62 
L 317.880588 103.62 
L 316.963453 103.62 
L 316.046317 103.62 
L 315.129182 103.62 
L 314.212046 103.62 
L 313.294911 103.62 
L 312.377775 103.62 
L 311.460639 103.62 
L 310.543504 103.62 
L 309.626368 103.62 
L 308.709233 103.62 
L 307.792097 103.62 
L 306.874962 103.62 
L 305.957826 103.62 
L 305.040691 103.62 
L 304.123555 103.62 
L 303.20642 103.62 
L 302.289284 103.62 
L 301.372148 103.62 
L 300.455013 103.62 
L 299.537877 103.62 
L 298.620742 103.62 
L 297.703606 103.62 
L 296.786471 103.62 
L 295.869335 103.62 
L 294.9522 103.62 
L 294.035064 103.62 
L 293.117929 103.62 
L 292.200793 103.62 
L 291.283657 103.62 
L 290.366522 103.62 
L 289.449386 103.62 
L 288.532251 103.62 
L 287.615115 103.62 
L 286.69798 103.62 
L 285.780844 103.62 
L 284.863709 103.62 
L 283.946573 103.62 
L 283.029438 103.62 
L 282.112302 103.62 
L 281.195167 103.62 
L 280.278031 103.62 
L 279.360895 103.62 
L 278.44376 103.62 
L 277.526624 103.62 
L 276.609489 103.62 
L 275.692353 103.62 
L 274.775218 103.62 
L 273.858082 103.62 
L 272.940947 103.62 
L 272.023811 103.62 
L 271.106676 103.62 
L 270.18954 103.62 
L 269.272404 103.62 
L 268.355269 103.62 
L 267.438133 103.62 
L 266.520998 103.62 
L 265.603862 103.62 
L 264.686727 103.62 
L 263.769591 103.62 
L 262.852456 103.62 
L 261.93532 103.62 
L 261.018185 103.62 
L 260.101049 103.62 
L 259.183913 103.62 
L 258.266778 103.62 
L 257.349642 103.62 
L 256.432507 103.62 
L 255.515371 103.62 
L 254.598236 103.62 
L 253.6811 103.62 
L 252.763965 103.62 
L 251.846829 103.62 
L 250.929694 103.62 
L 250.012558 103.62 
L 249.095422 103.62 
L 248.178287 103.62 
L 247.261151 103.62 
L 246.344016 103.62 
L 245.42688 103.62 
L 244.509745 103.62 
L 243.592609 103.62 
L 242.675474 103.62 
L 241.758338 103.62 
L 240.841203 103.62 
L 239.924067 103.62 
L 239.006931 103.62 
L 238.089796 103.62 
L 237.17266 103.62 
L 236.255525 103.62 
L 235.338389 103.62 
L 234.421254 103.62 
L 233.504118 103.62 
L 232.586983 103.62 
L 231.669847 103.62 
L 230.752712 103.62 
L 229.835576 103.62 
L 228.91844 103.62 
L 228.001305 103.62 
L 227.084169 103.62 
L 226.167034 103.62 
L 225.249898 103.62 
L 224.332763 103.62 
L 223.415627 103.62 
L 222.498492 103.62 
L 221.581356 103.62 
L 220.664221 103.62 
L 219.747085 103.62 
L 218.829949 103.62 
L 217.912814 103.62 
L 216.995678 103.62 
L 216.078543 103.62 
L 215.161407 103.62 
L 214.244272 103.62 
L 213.327136 103.62 
L 212.410001 103.62 
L 211.492865 103.62 
L 210.57573 103.62 
L 209.658594 103.62 
L 208.741458 103.62 
L 207.824323 103.62 
L 206.907187 103.62 
L 205.990052 103.62 
L 205.072916 103.62 
L 204.155781 103.62 
L 203.238645 103.62 
L 202.32151 103.62 
L 201.404374 103.62 
L 200.487239 103.62 
L 199.570103 103.62 
L 198.652967 103.62 
L 197.735832 103.62 
L 196.818696 103.62 
L 195.901561 103.62 
L 194.984425 103.62 
L 194.06729 103.62 
L 193.150154 103.62 
L 192.233019 103.62 
L 191.315883 103.62 
L 190.398748 103.62 
L 189.481612 103.62 
L 188.564476 103.62 
L 187.647341 103.62 
L 186.730205 103.62 
L 185.81307 103.62 
L 184.895934 103.62 
L 183.978799 103.62 
L 183.061663 103.62 
L 182.144528 103.62 
L 181.227392 103.62 
L 180.310257 103.62 
L 179.393121 103.62 
L 178.475985 103.62 
L 177.55885 103.62 
L 176.641714 103.62 
L 175.724579 103.62 
L 174.807443 103.62 
L 173.890308 103.62 
L 172.973172 103.62 
L 172.056037 103.62 
L 171.138901 103.62 
L 170.221766 103.62 
L 169.30463 103.62 
L 168.387494 103.62 
L 167.470359 103.62 
L 166.553223 103.62 
L 165.636088 103.62 
L 164.718952 103.62 
L 163.801817 103.62 
L 162.884681 103.62 
L 161.967546 103.62 
L 161.05041 103.62 
L 160.133275 103.62 
L 159.216139 103.62 
L 158.299004 103.62 
L 157.381868 103.62 
L 156.464732 103.62 
L 155.547597 103.62 
L 154.630461 103.62 
L 153.713326 103.62 
L 152.79619 103.62 
L 151.879055 103.62 
L 150.961919 103.62 
L 150.044784 103.62 
L 149.127648 103.62 
L 148.210513 103.62 
L 147.293377 103.62 
L 146.376241 103.62 
L 145.459106 103.62 
L 144.54197 103.62 
L 143.624835 103.62 
L 142.707699 103.62 
L 141.790564 103.62 
L 140.873428 103.62 
L 139.956293 103.62 
L 139.039157 103.62 
L 138.122022 103.62 
L 137.204886 103.62 
L 136.28775 103.62 
L 135.370615 103.62 
L 134.453479 103.62 
L 133.536344 103.62 
L 132.619208 103.62 
L 131.702073 103.62 
L 130.784937 103.62 
L 129.867802 103.62 
L 128.950666 103.62 
L 128.033531 103.62 
L 127.116395 103.62 
L 126.199259 103.62 
L 125.282124 103.62 
L 124.364988 103.62 
L 123.447853 103.62 
L 122.530717 103.62 
L 121.613582 103.62 
L 120.696446 103.62 
L 119.779311 103.62 
z
" clip-path="url(#pda1c05e068)" style="fill: #ed6b4d; fill-opacity: 0.1; stroke: #ed6b4d; stroke-opacity: 0.1"/>
   </g>
   <g id="line2d_1">
    <defs>
     <path id="m25b7e1027f" d="M 0 3 
C 0.795609 3 1.55874 2.683901 2.12132 2.12132 
C 2.683901 1.55874 3 0.795609 3 0 
C 3 -0.795609 2.683901 -1.55874 2.12132 -2.12132 
C 1.55874 -2.683901 0.795609 -3 0 -3 
C -0.795609 -3 -1.55874 -2.683901 -2.12132 -2.12132 
C -2.683901 -1.55874 -3 -0.795609 -3 0 
C -3 0.795609 -2.683901 1.55874 -2.12132 2.12132 
C -1.55874 2.683901 -0.795609 3 0 3 
z
" style="stroke: #0035a0"/>
    </defs>
    <g clip-path="url(#pda1c05e068)">
     <use xlink:href="#m25b7e1027f" x="53.745551" y="134.514712" style="fill: #0035a0; stroke: #0035a0"/>
     <use xlink:href="#m25b7e1027f" x="73.332946" y="90.6117" style="fill: #0035a0; stroke: #0035a0"/>
     <use xlink:href="#m25b7e1027f" x="92.920341" y="118.254337" style="fill: #0035a0; stroke: #0035a0"/>
     <use xlink:href="#m25b7e1027f" x="112.507736" y="100.367925" style="fill: #0035a0; stroke: #0035a0"/>
     <use xlink:href="#m25b7e1027f" x="132.095131" y="118.254337" style="fill: #0035a0; stroke: #0035a0"/>
     <use xlink:href="#m25b7e1027f" x="151.682526" y="126.384525" style="fill: #0035a0; stroke: #0035a0"/>
     <use xlink:href="#m25b7e1027f" x="171.26992" y="141.018862" style="fill: #0035a0; stroke: #0035a0"/>
     <use xlink:href="#m25b7e1027f" x="190.857315" y="129.6366" style="fill: #0035a0; stroke: #0035a0"/>
     <use xlink:href="#m25b7e1027f" x="210.44471" y="134.514712" style="fill: #0035a0; stroke: #0035a0"/>
     <use xlink:href="#m25b7e1027f" x="230.032105" y="157.279237" style="fill: #0035a0; stroke: #0035a0"/>
     <use xlink:href="#m25b7e1027f" x="249.6195" y="139.392825" style="fill: #0035a0; stroke: #0035a0"/>
     <use xlink:href="#m25b7e1027f" x="269.206895" y="136.14075" style="fill: #0035a0; stroke: #0035a0"/>
     <use xlink:href="#m25b7e1027f" x="288.79429" y="131.262637" style="fill: #0035a0; stroke: #0035a0"/>
     <use xlink:href="#m25b7e1027f" x="308.381684" y="129.6366" style="fill: #0035a0; stroke: #0035a0"/>
     <use xlink:href="#m25b7e1027f" x="327.969079" y="129.6366" style="fill: #0035a0; stroke: #0035a0"/>
    </g>
   </g>
   <g id="line2d_2">
    <path d="M 40.034375 103.62 
L 341.680256 103.62 
" clip-path="url(#pda1c05e068)" style="fill: none; stroke: #808080; stroke-width: 0.8; stroke-linecap: square"/>
   </g>
   <g id="matplotlib.axis_1">
    <g id="xtick_1">
     <g id="line2d_3">
      <defs>
       <path id="md961ee1cff" d="M 0 0 
L 0 3.5 
" style="stroke: #000000; stroke-width: 0.8"/>
      </defs>
      <g>
       <use xlink:href="#md961ee1cff" x="53.745551" y="184.921875" style="stroke: #000000; stroke-width: 0.8"/>
      </g>
     </g>
     <g id="text_1">
      <!-- 26 Mar -->
      <g transform="translate(36.360395 199.520312) scale(0.1 -0.1)">
       <defs>
        <path id="DejaVuSans-32" d="M 1228 531 
L 3431 531 
L 3431 0 
L 469 0 
L 469 531 
Q 828 903 1448 1529 
Q 2069 2156 2228 2338 
Q 2531 2678 2651 2914 
Q 2772 3150 2772 3378 
Q 2772 3750 2511 3984 
Q 2250 4219 1831 4219 
Q 1534 4219 1204 4116 
Q 875 4013 500 3803 
L 500 4441 
Q 881 4594 1212 4672 
Q 1544 4750 1819 4750 
Q 2544 4750 2975 4387 
Q 3406 4025 3406 3419 
Q 3406 3131 3298 2873 
Q 3191 2616 2906 2266 
Q 2828 2175 2409 1742 
Q 1991 1309 1228 531 
z
" transform="scale(0.015625)"/>
        <path id="DejaVuSans-36" d="M 2113 2584 
Q 1688 2584 1439 2293 
Q 1191 2003 1191 1497 
Q 1191 994 1439 701 
Q 1688 409 2113 409 
Q 2538 409 2786 701 
Q 3034 994 3034 1497 
Q 3034 2003 2786 2293 
Q 2538 2584 2113 2584 
z
M 3366 4563 
L 3366 3988 
Q 3128 4100 2886 4159 
Q 2644 4219 2406 4219 
Q 1781 4219 1451 3797 
Q 1122 3375 1075 2522 
Q 1259 2794 1537 2939 
Q 1816 3084 2150 3084 
Q 2853 3084 3261 2657 
Q 3669 2231 3669 1497 
Q 3669 778 3244 343 
Q 2819 -91 2113 -91 
Q 1303 -91 875 529 
Q 447 1150 447 2328 
Q 447 3434 972 4092 
Q 1497 4750 2381 4750 
Q 2619 4750 2861 4703 
Q 3103 4656 3366 4563 
z
" transform="scale(0.015625)"/>
        <path id="DejaVuSans-20" transform="scale(0.015625)"/>
        <path id="DejaVuSans-4d" d="M 628 4666 
L 1569 4666 
L 2759 1491 
L 3956 4666 
L 4897 4666 
L 4897 0 
L 4281 0 
L 4281 4097 
L 3078 897 
L 2444 897 
L 1241 4097 
L 1241 0 
L 628 0 
L 628 4666 
z
" transform="scale(0.015625)"/>
        <path id="DejaVuSans-61" d="M 2194 1759 
Q 1497 1759 1228 1600 
Q 959 1441 959 1056 
Q 959 750 1161 570 
Q 1363 391 1709 391 
Q 2188 391 2477 730 
Q 2766 1069 2766 1631 
L 2766 1759 
L 2194 1759 
z
M 3341 1997 
L 3341 0 
L 2766 0 
L 2766 531 
Q 2569 213 2275 61 
Q 1981 -91 1556 -91 
Q 1019 -91 701 211 
Q 384 513 384 1019 
Q 384 1609 779 1909 
Q 1175 2209 1959 2209 
L 2766 2209 
L 2766 2266 
Q 2766 2663 2505 2880 
Q 2244 3097 1772 3097 
Q 1472 3097 1187 3025 
Q 903 2953 641 2809 
L 641 3341 
Q 956 3463 1253 3523 
Q 1550 3584 1831 3584 
Q 2591 3584 2966 3190 
Q 3341 2797 3341 1997 
z
" transform="scale(0.015625)"/>
        <path id="DejaVuSans-72" d="M 2631 2963 
Q 2534 3019 2420 3045 
Q 2306 3072 2169 3072 
Q 1681 3072 1420 2755 
Q 1159 2438 1159 1844 
L 1159 0 
L 581 0 
L 581 3500 
L 1159 3500 
L 1159 2956 
Q 1341 3275 1631 3429 
Q 1922 3584 2338 3584 
Q 2397 3584 2469 3576 
Q 2541 3569 2628 3553 
L 2631 2963 
z
" transform="scale(0.015625)"/>
       </defs>
       <use xlink:href="#DejaVuSans-32"/>
       <use xlink:href="#DejaVuSans-36" x="63.623047"/>
       <use xlink:href="#DejaVuSans-20" x="127.246094"/>
       <use xlink:href="#DejaVuSans-4d" x="159.033203"/>
       <use xlink:href="#DejaVuSans-61" x="245.3125"/>
       <use xlink:href="#DejaVuSans-72" x="306.591797"/>
      </g>
     </g>
    </g>
    <g id="xtick_2">
     <g id="line2d_4">
      <g>
       <use xlink:href="#md961ee1cff" x="92.920341" y="184.921875" style="stroke: #000000; stroke-width: 0.8"/>
      </g>
     </g>
     <g id="text_2">
      <!-- 28 Mar -->
      <g transform="translate(75.535185 199.520312) scale(0.1 -0.1)">
       <defs>
        <path id="DejaVuSans-38" d="M 2034 2216 
Q 1584 2216 1326 1975 
Q 1069 1734 1069 1313 
Q 1069 891 1326 650 
Q 1584 409 2034 409 
Q 2484 409 2743 651 
Q 3003 894 3003 1313 
Q 3003 1734 2745 1975 
Q 2488 2216 2034 2216 
z
M 1403 2484 
Q 997 2584 770 2862 
Q 544 3141 544 3541 
Q 544 4100 942 4425 
Q 1341 4750 2034 4750 
Q 2731 4750 3128 4425 
Q 3525 4100 3525 3541 
Q 3525 3141 3298 2862 
Q 3072 2584 2669 2484 
Q 3125 2378 3379 2068 
Q 3634 1759 3634 1313 
Q 3634 634 3220 271 
Q 2806 -91 2034 -91 
Q 1263 -91 848 271 
Q 434 634 434 1313 
Q 434 1759 690 2068 
Q 947 2378 1403 2484 
z
M 1172 3481 
Q 1172 3119 1398 2916 
Q 1625 2713 2034 2713 
Q 2441 2713 2670 2916 
Q 2900 3119 2900 3481 
Q 2900 3844 2670 4047 
Q 2441 4250 2034 4250 
Q 1625 4250 1398 4047 
Q 1172 3844 1172 3481 
z
" transform="scale(0.015625)"/>
       </defs>
       <use xlink:href="#DejaVuSans-32"/>
       <use xlink:href="#DejaVuSans-38" x="63.623047"/>
       <use xlink:href="#DejaVuSans-20" x="127.246094"/>
       <use xlink:href="#DejaVuSans-4d" x="159.033203"/>
       <use xlink:href="#DejaVuSans-61" x="245.3125"/>
       <use xlink:href="#DejaVuSans-72" x="306.591797"/>
      </g>
     </g>
    </g>
    <g id="xtick_3">
     <g id="line2d_5">
      <g>
       <use xlink:href="#md961ee1cff" x="132.095131" y="184.921875" style="stroke: #000000; stroke-width: 0.8"/>
      </g>
     </g>
     <g id="text_3">
      <!-- 30 Mar -->
      <g transform="translate(114.709975 199.520312) scale(0.1 -0.1)">
       <defs>
        <path id="DejaVuSans-33" d="M 2597 2516 
Q 3050 2419 3304 2112 
Q 3559 1806 3559 1356 
Q 3559 666 3084 287 
Q 2609 -91 1734 -91 
Q 1441 -91 1130 -33 
Q 819 25 488 141 
L 488 750 
Q 750 597 1062 519 
Q 1375 441 1716 441 
Q 2309 441 2620 675 
Q 2931 909 2931 1356 
Q 2931 1769 2642 2001 
Q 2353 2234 1838 2234 
L 1294 2234 
L 1294 2753 
L 1863 2753 
Q 2328 2753 2575 2939 
Q 2822 3125 2822 3475 
Q 2822 3834 2567 4026 
Q 2313 4219 1838 4219 
Q 1578 4219 1281 4162 
Q 984 4106 628 3988 
L 628 4550 
Q 988 4650 1302 4700 
Q 1616 4750 1894 4750 
Q 2613 4750 3031 4423 
Q 3450 4097 3450 3541 
Q 3450 3153 3228 2886 
Q 3006 2619 2597 2516 
z
" transform="scale(0.015625)"/>
        <path id="DejaVuSans-30" d="M 2034 4250 
Q 1547 4250 1301 3770 
Q 1056 3291 1056 2328 
Q 1056 1369 1301 889 
Q 1547 409 2034 409 
Q 2525 409 2770 889 
Q 3016 1369 3016 2328 
Q 3016 3291 2770 3770 
Q 2525 4250 2034 4250 
z
M 2034 4750 
Q 2819 4750 3233 4129 
Q 3647 3509 3647 2328 
Q 3647 1150 3233 529 
Q 2819 -91 2034 -91 
Q 1250 -91 836 529 
Q 422 1150 422 2328 
Q 422 3509 836 4129 
Q 1250 4750 2034 4750 
z
" transform="scale(0.015625)"/>
       </defs>
       <use xlink:href="#DejaVuSans-33"/>
       <use xlink:href="#DejaVuSans-30" x="63.623047"/>
       <use xlink:href="#DejaVuSans-20" x="127.246094"/>
       <use xlink:href="#DejaVuSans-4d" x="159.033203"/>
       <use xlink:href="#DejaVuSans-61" x="245.3125"/>
       <use xlink:href="#DejaVuSans-72" x="306.591797"/>
      </g>
     </g>
    </g>
    <g id="xtick_4">
     <g id="line2d_6">
      <g>
       <use xlink:href="#md961ee1cff" x="171.26992" y="184.921875" style="stroke: #000000; stroke-width: 0.8"/>
      </g>
     </g>
     <g id="text_4">
      <!-- 01 Apr -->
      <g transform="translate(154.668358 199.520312) scale(0.1 -0.1)">
       <defs>
        <path id="DejaVuSans-31" d="M 794 531 
L 1825 531 
L 1825 4091 
L 703 3866 
L 703 4441 
L 1819 4666 
L 2450 4666 
L 2450 531 
L 3481 531 
L 3481 0 
L 794 0 
L 794 531 
z
" transform="scale(0.015625)"/>
        <path id="DejaVuSans-41" d="M 2188 4044 
L 1331 1722 
L 3047 1722 
L 2188 4044 
z
M 1831 4666 
L 2547 4666 
L 4325 0 
L 3669 0 
L 3244 1197 
L 1141 1197 
L 716 0 
L 50 0 
L 1831 4666 
z
" transform="scale(0.015625)"/>
        <path id="DejaVuSans-70" d="M 1159 525 
L 1159 -1331 
L 581 -1331 
L 581 3500 
L 1159 3500 
L 1159 2969 
Q 1341 3281 1617 3432 
Q 1894 3584 2278 3584 
Q 2916 3584 3314 3078 
Q 3713 2572 3713 1747 
Q 3713 922 3314 415 
Q 2916 -91 2278 -91 
Q 1894 -91 1617 61 
Q 1341 213 1159 525 
z
M 3116 1747 
Q 3116 2381 2855 2742 
Q 2594 3103 2138 3103 
Q 1681 3103 1420 2742 
Q 1159 2381 1159 1747 
Q 1159 1113 1420 752 
Q 1681 391 2138 391 
Q 2594 391 2855 752 
Q 3116 1113 3116 1747 
z
" transform="scale(0.015625)"/>
       </defs>
       <use xlink:href="#DejaVuSans-30"/>
       <use xlink:href="#DejaVuSans-31" x="63.623047"/>
       <use xlink:href="#DejaVuSans-20" x="127.246094"/>
       <use xlink:href="#DejaVuSans-41" x="159.033203"/>
       <use xlink:href="#DejaVuSans-70" x="227.441406"/>
       <use xlink:href="#DejaVuSans-72" x="290.917969"/>
      </g>
     </g>
    </g>
    <g id="xtick_5">
     <g id="line2d_7">
      <g>
       <use xlink:href="#md961ee1cff" x="210.44471" y="184.921875" style="stroke: #000000; stroke-width: 0.8"/>
      </g>
     </g>
     <g id="text_5">
      <!-- 03 Apr -->
      <g transform="translate(193.843148 199.520312) scale(0.1 -0.1)">
       <use xlink:href="#DejaVuSans-30"/>
       <use xlink:href="#DejaVuSans-33" x="63.623047"/>
       <use xlink:href="#DejaVuSans-20" x="127.246094"/>
       <use xlink:href="#DejaVuSans-41" x="159.033203"/>
       <use xlink:href="#DejaVuSans-70" x="227.441406"/>
       <use xlink:href="#DejaVuSans-72" x="290.917969"/>
      </g>
     </g>
    </g>
    <g id="xtick_6">
     <g id="line2d_8">
      <g>
       <use xlink:href="#md961ee1cff" x="249.6195" y="184.921875" style="stroke: #000000; stroke-width: 0.8"/>
      </g>
     </g>
     <g id="text_6">
      <!-- 05 Apr -->
      <g transform="translate(233.017937 199.520312) scale(0.1 -0.1)">
       <defs>
        <path id="DejaVuSans-35" d="M 691 4666 
L 3169 4666 
L 3169 4134 
L 1269 4134 
L 1269 2991 
Q 1406 3038 1543 3061 
Q 1681 3084 1819 3084 
Q 2600 3084 3056 2656 
Q 3513 2228 3513 1497 
Q 3513 744 3044 326 
Q 2575 -91 1722 -91 
Q 1428 -91 1123 -41 
Q 819 9 494 109 
L 494 744 
Q 775 591 1075 516 
Q 1375 441 1709 441 
Q 2250 441 2565 725 
Q 2881 1009 2881 1497 
Q 2881 1984 2565 2268 
Q 2250 2553 1709 2553 
Q 1456 2553 1204 2497 
Q 953 2441 691 2322 
L 691 4666 
z
" transform="scale(0.015625)"/>
       </defs>
       <use xlink:href="#DejaVuSans-30"/>
       <use xlink:href="#DejaVuSans-35" x="63.623047"/>
       <use xlink:href="#DejaVuSans-20" x="127.246094"/>
       <use xlink:href="#DejaVuSans-41" x="159.033203"/>
       <use xlink:href="#DejaVuSans-70" x="227.441406"/>
       <use xlink:href="#DejaVuSans-72" x="290.917969"/>
      </g>
     </g>
    </g>
    <g id="xtick_7">
     <g id="line2d_9">
      <g>
       <use xlink:href="#md961ee1cff" x="288.79429" y="184.921875" style="stroke: #000000; stroke-width: 0.8"/>
      </g>
     </g>
     <g id="text_7">
      <!-- 07 Apr -->
      <g transform="translate(272.192727 199.520312) scale(0.1 -0.1)">
       <defs>
        <path id="DejaVuSans-37" d="M 525 4666 
L 3525 4666 
L 3525 4397 
L 1831 0 
L 1172 0 
L 2766 4134 
L 525 4134 
L 525 4666 
z
" transform="scale(0.015625)"/>
       </defs>
       <use xlink:href="#DejaVuSans-30"/>
       <use xlink:href="#DejaVuSans-37" x="63.623047"/>
       <use xlink:href="#DejaVuSans-20" x="127.246094"/>
       <use xlink:href="#DejaVuSans-41" x="159.033203"/>
       <use xlink:href="#DejaVuSans-70" x="227.441406"/>
       <use xlink:href="#DejaVuSans-72" x="290.917969"/>
      </g>
     </g>
    </g>
    <g id="xtick_8">
     <g id="line2d_10">
      <g>
       <use xlink:href="#md961ee1cff" x="327.969079" y="184.921875" style="stroke: #000000; stroke-width: 0.8"/>
      </g>
     </g>
     <g id="text_8">
      <!-- 09 Apr -->
      <g transform="translate(311.367517 199.520312) scale(0.1 -0.1)">
       <defs>
        <path id="DejaVuSans-39" d="M 703 97 
L 703 672 
Q 941 559 1184 500 
Q 1428 441 1663 441 
Q 2288 441 2617 861 
Q 2947 1281 2994 2138 
Q 2813 1869 2534 1725 
Q 2256 1581 1919 1581 
Q 1219 1581 811 2004 
Q 403 2428 403 3163 
Q 403 3881 828 4315 
Q 1253 4750 1959 4750 
Q 2769 4750 3195 4129 
Q 3622 3509 3622 2328 
Q 3622 1225 3098 567 
Q 2575 -91 1691 -91 
Q 1453 -91 1209 -44 
Q 966 3 703 97 
z
M 1959 2075 
Q 2384 2075 2632 2365 
Q 2881 2656 2881 3163 
Q 2881 3666 2632 3958 
Q 2384 4250 1959 4250 
Q 1534 4250 1286 3958 
Q 1038 3666 1038 3163 
Q 1038 2656 1286 2365 
Q 1534 2075 1959 2075 
z
" transform="scale(0.015625)"/>
       </defs>
       <use xlink:href="#DejaVuSans-30"/>
       <use xlink:href="#DejaVuSans-39" x="63.623047"/>
       <use xlink:href="#DejaVuSans-20" x="127.246094"/>
       <use xlink:href="#DejaVuSans-41" x="159.033203"/>
       <use xlink:href="#DejaVuSans-70" x="227.441406"/>
       <use xlink:href="#DejaVuSans-72" x="290.917969"/>
      </g>
     </g>
    </g>
   </g>
   <g id="matplotlib.axis_2">
    <g id="ytick_1">
     <g id="text_9">
      <!-- -50% -->
      <g transform="translate(7.2 188.721094) scale(0.1 -0.1)">
       <defs>
        <path id="DejaVuSans-2d" d="M 313 2009 
L 1997 2009 
L 1997 1497 
L 313 1497 
L 313 2009 
z
" transform="scale(0.015625)"/>
        <path id="DejaVuSans-25" d="M 4653 2053 
Q 4381 2053 4226 1822 
Q 4072 1591 4072 1178 
Q 4072 772 4226 539 
Q 4381 306 4653 306 
Q 4919 306 5073 539 
Q 5228 772 5228 1178 
Q 5228 1588 5073 1820 
Q 4919 2053 4653 2053 
z
M 4653 2450 
Q 5147 2450 5437 2106 
Q 5728 1763 5728 1178 
Q 5728 594 5436 251 
Q 5144 -91 4653 -91 
Q 4153 -91 3862 251 
Q 3572 594 3572 1178 
Q 3572 1766 3864 2108 
Q 4156 2450 4653 2450 
z
M 1428 4353 
Q 1159 4353 1004 4120 
Q 850 3888 850 3481 
Q 850 3069 1003 2837 
Q 1156 2606 1428 2606 
Q 1700 2606 1854 2837 
Q 2009 3069 2009 3481 
Q 2009 3884 1853 4118 
Q 1697 4353 1428 4353 
z
M 4250 4750 
L 4750 4750 
L 1831 -91 
L 1331 -91 
L 4250 4750 
z
M 1428 4750 
Q 1922 4750 2215 4408 
Q 2509 4066 2509 3481 
Q 2509 2891 2217 2550 
Q 1925 2209 1428 2209 
Q 931 2209 642 2551 
Q 353 2894 353 3481 
Q 353 4063 643 4406 
Q 934 4750 1428 4750 
z
" transform="scale(0.015625)"/>
       </defs>
       <use xlink:href="#DejaVuSans-2d"/>
       <use xlink:href="#DejaVuSans-35" x="36.083984"/>
       <use xlink:href="#DejaVuSans-30" x="99.707031"/>
       <use xlink:href="#DejaVuSans-25" x="163.330078"/>
      </g>
     </g>
    </g>
    <g id="ytick_2">
     <g id="text_10">
      <!-- -25% -->
      <g transform="translate(7.2 148.070156) scale(0.1 -0.1)">
       <use xlink:href="#DejaVuSans-2d"/>
       <use xlink:href="#DejaVuSans-32" x="36.083984"/>
       <use xlink:href="#DejaVuSans-35" x="99.707031"/>
       <use xlink:href="#DejaVuSans-25" x="163.330078"/>
      </g>
     </g>
    </g>
    <g id="ytick_3">
     <g id="text_11">
      <!-- 0% -->
      <g transform="translate(17.170313 107.419219) scale(0.1 -0.1)">
       <use xlink:href="#DejaVuSans-30"/>
       <use xlink:href="#DejaVuSans-25" x="63.623047"/>
      </g>
     </g>
    </g>
    <g id="ytick_4">
     <g id="text_12">
      <!-- 25% -->
      <g transform="translate(10.807813 66.768281) scale(0.1 -0.1)">
       <use xlink:href="#DejaVuSans-32"/>
       <use xlink:href="#DejaVuSans-35" x="63.623047"/>
       <use xlink:href="#DejaVuSans-25" x="127.246094"/>
      </g>
     </g>
    </g>
    <g id="ytick_5">
     <g id="text_13">
      <!-- 50% -->
      <g transform="translate(10.807813 26.117344) scale(0.1 -0.1)">
       <use xlink:href="#DejaVuSans-35"/>
       <use xlink:href="#DejaVuSans-30" x="63.623047"/>
       <use xlink:href="#DejaVuSans-25" x="127.246094"/>
      </g>
     </g>
    </g>
   </g>
   <g id="line2d_11">
    <path d="M 53.745551 134.514712 
L 55.579822 122.489172 
L 57.414094 112.528766 
L 59.248365 104.484948 
L 60.1655 101.135339 
L 61.082636 98.209172 
L 61.999771 95.687879 
L 62.916907 93.552891 
L 63.834042 91.785641 
L 64.751178 90.36756 
L 65.668313 89.280079 
L 66.585449 88.504631 
L 67.502585 88.022647 
L 68.41972 87.815559 
L 69.336856 87.864798 
L 70.253991 88.151796 
L 71.171127 88.657985 
L 72.088262 89.364797 
L 73.005398 90.253663 
L 74.839669 92.503285 
L 76.67394 95.258305 
L 79.425347 100.01351 
L 84.92816 109.927291 
L 86.762431 112.806732 
L 88.596702 115.226019 
L 89.513838 116.216684 
L 90.430973 117.036606 
L 91.348109 117.667216 
L 92.265244 118.089946 
L 93.18238 118.286381 
L 94.099515 118.251416 
L 95.016651 118.003396 
L 95.933786 117.563056 
L 96.850922 116.951127 
L 98.685193 115.29544 
L 100.519464 113.202201 
L 103.270871 109.604765 
L 106.939413 104.824833 
L 108.773684 102.815201 
L 110.607955 101.280281 
L 111.525091 100.74267 
L 112.442226 100.385937 
L 113.359362 100.226141 
L 114.276497 100.256165 
L 115.193633 100.461723 
L 116.110768 100.828525 
L 117.027904 101.342281 
L 118.862175 102.753497 
L 120.696446 104.581056 
L 122.530717 106.710641 
L 126.199259 111.418624 
L 128.950666 114.892204 
L 130.784937 116.966243 
L 132.619208 118.714275 
L 134.453479 120.084116 
L 136.28775 121.131813 
L 138.122022 121.924428 
L 140.873428 122.781768 
L 148.210513 124.721054 
L 150.044784 125.490275 
L 151.879055 126.507352 
L 153.713326 127.807571 
L 156.464732 130.158657 
L 164.718952 137.772293 
L 166.553223 139.104732 
L 168.387494 140.146524 
L 170.221766 140.823856 
L 171.138901 141.002784 
L 172.056037 141.064776 
L 173.890308 140.858775 
L 175.724579 140.26939 
L 177.55885 139.364569 
L 179.393121 138.21226 
L 182.144528 136.16839 
L 188.564476 131.116541 
L 190.398748 129.906194 
L 192.233019 128.919938 
L 194.06729 128.186414 
L 195.901561 127.716107 
L 197.735832 127.519353 
L 199.570103 127.606489 
L 201.404374 127.987851 
L 203.238645 128.673773 
L 205.072916 129.674593 
L 206.907187 131.000647 
L 208.741458 132.66227 
L 210.57573 134.669792 
L 212.410001 137.010689 
L 215.161407 140.95349 
L 220.664221 149.139001 
L 222.498492 151.585009 
L 224.332763 153.72097 
L 226.167034 155.445605 
L 227.084169 156.122026 
L 228.001305 156.657635 
L 228.91844 157.039773 
L 229.835576 157.25578 
L 230.752712 157.295094 
L 231.669847 157.163392 
L 232.586983 156.873924 
L 233.504118 156.439984 
L 235.338389 155.191864 
L 237.17266 153.525379 
L 239.006931 151.546877 
L 241.758338 148.226732 
L 246.344016 142.63968 
L 248.178287 140.696325 
L 250.012558 139.078785 
L 251.846829 137.847022 
L 253.6811 136.962107 
L 255.515371 136.372336 
L 257.349642 136.026002 
L 259.183913 135.8714 
L 261.93532 135.885889 
L 269.272404 136.137704 
L 272.023811 135.857907 
L 274.775218 135.327797 
L 278.44376 134.350337 
L 289.449386 131.108779 
L 293.117929 130.411485 
L 296.786471 129.960064 
L 301.372148 129.672404 
L 306.874962 129.615908 
L 326.134808 129.753889 
L 327.969079 129.6366 
L 327.969079 129.6366 
" clip-path="url(#pda1c05e068)" style="fill: none; stroke: #0035a0; stroke-width: 3; stroke-linecap: round"/>
   </g>
   <g id="text_14">
    <!-- Andapa - population change trends -->
    <g transform="translate(85.063253 16.318125) scale(0.12 -0.12)">
     <defs>
      <path id="DejaVuSans-6e" d="M 3513 2113 
L 3513 0 
L 2938 0 
L 2938 2094 
Q 2938 2591 2744 2837 
Q 2550 3084 2163 3084 
Q 1697 3084 1428 2787 
Q 1159 2491 1159 1978 
L 1159 0 
L 581 0 
L 581 3500 
L 1159 3500 
L 1159 2956 
Q 1366 3272 1645 3428 
Q 1925 3584 2291 3584 
Q 2894 3584 3203 3211 
Q 3513 2838 3513 2113 
z
" transform="scale(0.015625)"/>
      <path id="DejaVuSans-64" d="M 2906 2969 
L 2906 4863 
L 3481 4863 
L 3481 0 
L 2906 0 
L 2906 525 
Q 2725 213 2448 61 
Q 2172 -91 1784 -91 
Q 1150 -91 751 415 
Q 353 922 353 1747 
Q 353 2572 751 3078 
Q 1150 3584 1784 3584 
Q 2172 3584 2448 3432 
Q 2725 3281 2906 2969 
z
M 947 1747 
Q 947 1113 1208 752 
Q 1469 391 1925 391 
Q 2381 391 2643 752 
Q 2906 1113 2906 1747 
Q 2906 2381 2643 2742 
Q 2381 3103 1925 3103 
Q 1469 3103 1208 2742 
Q 947 2381 947 1747 
z
" transform="scale(0.015625)"/>
      <path id="DejaVuSans-6f" d="M 1959 3097 
Q 1497 3097 1228 2736 
Q 959 2375 959 1747 
Q 959 1119 1226 758 
Q 1494 397 1959 397 
Q 2419 397 2687 759 
Q 2956 1122 2956 1747 
Q 2956 2369 2687 2733 
Q 2419 3097 1959 3097 
z
M 1959 3584 
Q 2709 3584 3137 3096 
Q 3566 2609 3566 1747 
Q 3566 888 3137 398 
Q 2709 -91 1959 -91 
Q 1206 -91 779 398 
Q 353 888 353 1747 
Q 353 2609 779 3096 
Q 1206 3584 1959 3584 
z
" transform="scale(0.015625)"/>
      <path id="DejaVuSans-75" d="M 544 1381 
L 544 3500 
L 1119 3500 
L 1119 1403 
Q 1119 906 1312 657 
Q 1506 409 1894 409 
Q 2359 409 2629 706 
Q 2900 1003 2900 1516 
L 2900 3500 
L 3475 3500 
L 3475 0 
L 2900 0 
L 2900 538 
Q 2691 219 2414 64 
Q 2138 -91 1772 -91 
Q 1169 -91 856 284 
Q 544 659 544 1381 
z
M 1991 3584 
L 1991 3584 
z
" transform="scale(0.015625)"/>
      <path id="DejaVuSans-6c" d="M 603 4863 
L 1178 4863 
L 1178 0 
L 603 0 
L 603 4863 
z
" transform="scale(0.015625)"/>
      <path id="DejaVuSans-74" d="M 1172 4494 
L 1172 3500 
L 2356 3500 
L 2356 3053 
L 1172 3053 
L 1172 1153 
Q 1172 725 1289 603 
Q 1406 481 1766 481 
L 2356 481 
L 2356 0 
L 1766 0 
Q 1100 0 847 248 
Q 594 497 594 1153 
L 594 3053 
L 172 3053 
L 172 3500 
L 594 3500 
L 594 4494 
L 1172 4494 
z
" transform="scale(0.015625)"/>
      <path id="DejaVuSans-69" d="M 603 3500 
L 1178 3500 
L 1178 0 
L 603 0 
L 603 3500 
z
M 603 4863 
L 1178 4863 
L 1178 4134 
L 603 4134 
L 603 4863 
z
" transform="scale(0.015625)"/>
      <path id="DejaVuSans-63" d="M 3122 3366 
L 3122 2828 
Q 2878 2963 2633 3030 
Q 2388 3097 2138 3097 
Q 1578 3097 1268 2742 
Q 959 2388 959 1747 
Q 959 1106 1268 751 
Q 1578 397 2138 397 
Q 2388 397 2633 464 
Q 2878 531 3122 666 
L 3122 134 
Q 2881 22 2623 -34 
Q 2366 -91 2075 -91 
Q 1284 -91 818 406 
Q 353 903 353 1747 
Q 353 2603 823 3093 
Q 1294 3584 2113 3584 
Q 2378 3584 2631 3529 
Q 2884 3475 3122 3366 
z
" transform="scale(0.015625)"/>
      <path id="DejaVuSans-68" d="M 3513 2113 
L 3513 0 
L 2938 0 
L 2938 2094 
Q 2938 2591 2744 2837 
Q 2550 3084 2163 3084 
Q 1697 3084 1428 2787 
Q 1159 2491 1159 1978 
L 1159 0 
L 581 0 
L 581 4863 
L 1159 4863 
L 1159 2956 
Q 1366 3272 1645 3428 
Q 1925 3584 2291 3584 
Q 2894 3584 3203 3211 
Q 3513 2838 3513 2113 
z
" transform="scale(0.015625)"/>
      <path id="DejaVuSans-67" d="M 2906 1791 
Q 2906 2416 2648 2759 
Q 2391 3103 1925 3103 
Q 1463 3103 1205 2759 
Q 947 2416 947 1791 
Q 947 1169 1205 825 
Q 1463 481 1925 481 
Q 2391 481 2648 825 
Q 2906 1169 2906 1791 
z
M 3481 434 
Q 3481 -459 3084 -895 
Q 2688 -1331 1869 -1331 
Q 1566 -1331 1297 -1286 
Q 1028 -1241 775 -1147 
L 775 -588 
Q 1028 -725 1275 -790 
Q 1522 -856 1778 -856 
Q 2344 -856 2625 -561 
Q 2906 -266 2906 331 
L 2906 616 
Q 2728 306 2450 153 
Q 2172 0 1784 0 
Q 1141 0 747 490 
Q 353 981 353 1791 
Q 353 2603 747 3093 
Q 1141 3584 1784 3584 
Q 2172 3584 2450 3431 
Q 2728 3278 2906 2969 
L 2906 3500 
L 3481 3500 
L 3481 434 
z
" transform="scale(0.015625)"/>
      <path id="DejaVuSans-65" d="M 3597 1894 
L 3597 1613 
L 953 1613 
Q 991 1019 1311 708 
Q 1631 397 2203 397 
Q 2534 397 2845 478 
Q 3156 559 3463 722 
L 3463 178 
Q 3153 47 2828 -22 
Q 2503 -91 2169 -91 
Q 1331 -91 842 396 
Q 353 884 353 1716 
Q 353 2575 817 3079 
Q 1281 3584 2069 3584 
Q 2775 3584 3186 3129 
Q 3597 2675 3597 1894 
z
M 3022 2063 
Q 3016 2534 2758 2815 
Q 2500 3097 2075 3097 
Q 1594 3097 1305 2825 
Q 1016 2553 972 2059 
L 3022 2063 
z
" transform="scale(0.015625)"/>
      <path id="DejaVuSans-73" d="M 2834 3397 
L 2834 2853 
Q 2591 2978 2328 3040 
Q 2066 3103 1784 3103 
Q 1356 3103 1142 2972 
Q 928 2841 928 2578 
Q 928 2378 1081 2264 
Q 1234 2150 1697 2047 
L 1894 2003 
Q 2506 1872 2764 1633 
Q 3022 1394 3022 966 
Q 3022 478 2636 193 
Q 2250 -91 1575 -91 
Q 1294 -91 989 -36 
Q 684 19 347 128 
L 347 722 
Q 666 556 975 473 
Q 1284 391 1588 391 
Q 1994 391 2212 530 
Q 2431 669 2431 922 
Q 2431 1156 2273 1281 
Q 2116 1406 1581 1522 
L 1381 1569 
Q 847 1681 609 1914 
Q 372 2147 372 2553 
Q 372 3047 722 3315 
Q 1072 3584 1716 3584 
Q 2034 3584 2315 3537 
Q 2597 3491 2834 3397 
z
" transform="scale(0.015625)"/>
     </defs>
     <use xlink:href="#DejaVuSans-41"/>
     <use xlink:href="#DejaVuSans-6e" x="68.408203"/>
     <use xlink:href="#DejaVuSans-64" x="131.787109"/>
     <use xlink:href="#DejaVuSans-61" x="195.263672"/>
     <use xlink:href="#DejaVuSans-70" x="256.542969"/>
     <use xlink:href="#DejaVuSans-61" x="320.019531"/>
     <use xlink:href="#DejaVuSans-20" x="381.298828"/>
     <use xlink:href="#DejaVuSans-2d" x="413.085938"/>
     <use xlink:href="#DejaVuSans-20" x="449.169922"/>
     <use xlink:href="#DejaVuSans-70" x="480.957031"/>
     <use xlink:href="#DejaVuSans-6f" x="544.433594"/>
     <use xlink:href="#DejaVuSans-70" x="605.615234"/>
     <use xlink:href="#DejaVuSans-75" x="669.091797"/>
     <use xlink:href="#DejaVuSans-6c" x="732.470703"/>
     <use xlink:href="#DejaVuSans-61" x="760.253906"/>
     <use xlink:href="#DejaVuSans-74" x="821.533203"/>
     <use xlink:href="#DejaVuSans-69" x="860.742188"/>
     <use xlink:href="#DejaVuSans-6f" x="888.525391"/>
     <use xlink:href="#DejaVuSans-6e" x="949.707031"/>
     <use xlink:href="#DejaVuSans-20" x="1013.085938"/>
     <use xlink:href="#DejaVuSans-63" x="1044.873047"/>
     <use xlink:href="#DejaVuSans-68" x="1099.853516"/>
     <use xlink:href="#DejaVuSans-61" x="1163.232422"/>
     <use xlink:href="#DejaVuSans-6e" x="1224.511719"/>
     <use xlink:href="#DejaVuSans-67" x="1287.890625"/>
     <use xlink:href="#DejaVuSans-65" x="1351.367188"/>
     <use xlink:href="#DejaVuSans-20" x="1412.890625"/>
     <use xlink:href="#DejaVuSans-74" x="1444.677734"/>
     <use xlink:href="#DejaVuSans-72" x="1483.886719"/>
     <use xlink:href="#DejaVuSans-65" x="1522.75"/>
     <use xlink:href="#DejaVuSans-6e" x="1584.273438"/>
     <use xlink:href="#DejaVuSans-64" x="1647.652344"/>
     <use xlink:href="#DejaVuSans-73" x="1711.128906"/>
    </g>
   </g>
  </g>
 </g>
 <defs>
  <clipPath id="pda1c05e068">
   <rect x="40.034375" y="22.318125" width="301.645881" height="162.60375"/>
  </clipPath>
 </defs>
</svg>
