<?xml version="1.0" encoding="utf-8" standalone="no"?>
<!DOCTYPE svg PUBLIC "-//W3C//DTD SVG 1.1//EN"
  "http://www.w3.org/Graphics/SVG/1.1/DTD/svg11.dtd">
<svg xmlns:xlink="http://www.w3.org/1999/xlink" width="351.770642pt" height="208.8pt" viewBox="0 0 351.770642 208.8" xmlns="http://www.w3.org/2000/svg" version="1.1">
 <metadata>
  <rdf:RDF xmlns:dc="http://purl.org/dc/elements/1.1/" xmlns:cc="http://creativecommons.org/ns#" xmlns:rdf="http://www.w3.org/1999/02/22-rdf-syntax-ns#">
   <cc:Work>
    <dc:type rdf:resource="http://purl.org/dc/dcmitype/StillImage"/>
    <dc:date>2024-04-09T15:41:37.678670</dc:date>
    <dc:format>image/svg+xml</dc:format>
    <dc:creator>
     <cc:Agent>
      <dc:title>Matplotlib v3.8.3, https://matplotlib.org/</dc:title>
     </cc:Agent>
    </dc:creator>
   </cc:Work>
  </rdf:RDF>
 </metadata>
 <defs>
  <style type="text/css">*{stroke-linejoin: round; stroke-linecap: butt}</style>
 </defs>
 <g id="figure_1">
  <g id="patch_1">
   <path d="M 0 208.8 
L 351.770642 208.8 
L 351.770642 0 
L 0 0 
L 0 208.8 
z
" style="fill: none"/>
  </g>
  <g id="axes_1">
   <g id="patch_2">
    <path d="M 40.034375 184.921875 
L 341.680256 184.921875 
L 341.680256 22.318125 
L 40.034375 22.318125 
L 40.034375 184.921875 
z
" style="fill: none; opacity: 0"/>
   </g>
   <g id="PolyCollection_1"/>
   <g id="PolyCollection_2">
    <defs>
     <path id="m143d648b76" d="M 53.745551 -80.789438 
L 53.745551 -80.789438 
L 54.662687 -75.766317 
L 55.579822 -71.108705 
L 56.496958 -66.805882 
L 57.414094 -62.847129 
L 58.331229 -59.221724 
L 59.248365 -55.918949 
L 60.1655 -52.928084 
L 61.082636 -50.23841 
L 61.999771 -47.839206 
L 62.916907 -45.719752 
L 63.834042 -43.86933 
L 64.751178 -42.27722 
L 65.668313 -40.932701 
L 66.585449 -39.825054 
L 67.502585 -38.943559 
L 68.41972 -38.277497 
L 69.336856 -37.816147 
L 70.253991 -37.548791 
L 71.171127 -37.464709 
L 72.088262 -37.55318 
L 73.005398 -37.803485 
L 73.922533 -38.204905 
L 74.839669 -38.746719 
L 75.756804 -39.418208 
L 76.67394 -40.208652 
L 77.591076 -41.107332 
L 78.508211 -42.103528 
L 79.425347 -43.186519 
L 80.342482 -44.345587 
L 81.259618 -45.570012 
L 82.176753 -46.849074 
L 83.093889 -48.172053 
L 84.011024 -49.528229 
L 84.92816 -50.906884 
L 85.845295 -52.297296 
L 86.762431 -53.688747 
L 87.679567 -55.070516 
L 88.596702 -56.431885 
L 89.513838 -57.762133 
L 90.430973 -59.05054 
L 91.348109 -60.286388 
L 92.265244 -61.458955 
L 93.18238 -62.557523 
L 94.099515 -63.571372 
L 95.016651 -64.489782 
L 95.933786 -65.302033 
L 96.850922 -65.997406 
L 97.768058 -66.56518 
L 98.685193 -66.994637 
L 99.602329 -67.275075 
L 100.519464 -67.402031 
L 101.4366 -67.386334 
L 102.353735 -67.241114 
L 103.270871 -66.979501 
L 104.188006 -66.614624 
L 105.105142 -66.159613 
L 106.022277 -65.627597 
L 106.939413 -65.031706 
L 107.856549 -64.38507 
L 108.773684 -63.700819 
L 109.69082 -62.992082 
L 110.607955 -62.271988 
L 111.525091 -61.553668 
L 112.442226 -60.85025 
L 113.359362 -60.174865 
L 114.276497 -59.540643 
L 115.193633 -58.960712 
L 116.110768 -58.448203 
L 117.027904 -58.016245 
L 117.94504 -57.677967 
L 118.862175 -57.4465 
L 119.779311 -57.334973 
L 120.696446 -57.356516 
L 121.613582 -57.524258 
L 122.530717 -57.851265 
L 123.447853 -58.342901 
L 124.364988 -58.989568 
L 125.282124 -59.779951 
L 126.199259 -60.702734 
L 127.116395 -61.746601 
L 128.033531 -62.900237 
L 128.950666 -64.152325 
L 129.867802 -65.49155 
L 130.784937 -66.906596 
L 131.702073 -68.386148 
L 132.619208 -69.918889 
L 133.536344 -71.493504 
L 134.453479 -73.098677 
L 135.370615 -74.723092 
L 136.28775 -76.355434 
L 137.204886 -77.984387 
L 138.122022 -79.598634 
L 139.039157 -81.186861 
L 139.956293 -82.737752 
L 140.873428 -84.23999 
L 141.790564 -85.68226 
L 142.707699 -87.053247 
L 143.624835 -88.341634 
L 144.54197 -89.536105 
L 145.459106 -90.625435 
L 146.376241 -91.603785 
L 147.293377 -92.473662 
L 148.210513 -93.238293 
L 149.127648 -93.900907 
L 150.044784 -94.46473 
L 150.961919 -94.932989 
L 151.879055 -95.308911 
L 152.79619 -95.595723 
L 153.713326 -95.796652 
L 154.630461 -95.914926 
L 155.547597 -95.95377 
L 156.464732 -95.916414 
L 157.381868 -95.806082 
L 158.299004 -95.626003 
L 159.216139 -95.379404 
L 160.133275 -95.069511 
L 161.05041 -94.699552 
L 161.967546 -94.272753 
L 162.884681 -93.792343 
L 163.801817 -93.261547 
L 164.718952 -92.683593 
L 165.636088 -92.061707 
L 166.553223 -91.399118 
L 167.470359 -90.699052 
L 168.387494 -89.964773 
L 169.30463 -89.200849 
L 170.221766 -88.41347 
L 171.138901 -87.608926 
L 172.056037 -86.79351 
L 172.973172 -85.973513 
L 173.890308 -85.155224 
L 174.807443 -84.344936 
L 175.724579 -83.548939 
L 176.641714 -82.773525 
L 177.55885 -82.024985 
L 178.475985 -81.309609 
L 179.393121 -80.63369 
L 180.310257 -80.003517 
L 181.227392 -79.425383 
L 182.144528 -78.905577 
L 183.061663 -78.450392 
L 183.978799 -78.066119 
L 184.895934 -77.759047 
L 185.81307 -77.53547 
L 186.730205 -77.401677 
L 187.647341 -77.36396 
L 188.564476 -77.42861 
L 189.481612 -77.601918 
L 190.398748 -77.890175 
L 191.315883 -78.299332 
L 192.233019 -78.827538 
L 193.150154 -79.465135 
L 194.06729 -80.202127 
L 194.984425 -81.028516 
L 195.901561 -81.934307 
L 196.818696 -82.909503 
L 197.735832 -83.944108 
L 198.652967 -85.028125 
L 199.570103 -86.151557 
L 200.487239 -87.304408 
L 201.404374 -88.476682 
L 202.32151 -89.658381 
L 203.238645 -90.839511 
L 204.155781 -92.010073 
L 205.072916 -93.160072 
L 205.990052 -94.279511 
L 206.907187 -95.358394 
L 207.824323 -96.386723 
L 208.741458 -97.354504 
L 209.658594 -98.251738 
L 210.57573 -99.06843 
L 211.492865 -99.794583 
L 212.410001 -100.4202 
L 213.327136 -100.935286 
L 214.244272 -101.33042 
L 215.161407 -101.605395 
L 216.078543 -101.76742 
L 216.995678 -101.823911 
L 217.912814 -101.782283 
L 218.829949 -101.649953 
L 219.747085 -101.434338 
L 220.664221 -101.142853 
L 221.581356 -100.782916 
L 222.498492 -100.361942 
L 223.415627 -99.887348 
L 224.332763 -99.366551 
L 225.249898 -98.806966 
L 226.167034 -98.216011 
L 227.084169 -97.6011 
L 228.001305 -96.969652 
L 228.91844 -96.329082 
L 229.835576 -95.686806 
L 230.752712 -95.050242 
L 231.669847 -94.426804 
L 232.586983 -93.82391 
L 233.504118 -93.248977 
L 234.421254 -92.70942 
L 235.338389 -92.212655 
L 236.255525 -91.7661 
L 237.17266 -91.376637 
L 238.089796 -91.044955 
L 239.006931 -90.767742 
L 239.924067 -90.541624 
L 240.841203 -90.363224 
L 241.758338 -90.229166 
L 242.675474 -90.136072 
L 243.592609 -90.080568 
L 244.509745 -90.059276 
L 245.42688 -90.06882 
L 246.344016 -90.105825 
L 247.261151 -90.166913 
L 248.178287 -90.248708 
L 249.095422 -90.347834 
L 250.012558 -90.460915 
L 250.929694 -90.584575 
L 251.846829 -90.715436 
L 252.763965 -90.850124 
L 253.6811 -90.98526 
L 254.598236 -91.11747 
L 255.515371 -91.243377 
L 256.432507 -91.359604 
L 257.349642 -91.462775 
L 258.266778 -91.549515 
L 259.183913 -91.616446 
L 260.101049 -91.660525 
L 261.018185 -91.681606 
L 261.93532 -91.681037 
L 262.852456 -91.660175 
L 263.769591 -91.62038 
L 264.686727 -91.56301 
L 265.603862 -91.489424 
L 266.520998 -91.400981 
L 267.438133 -91.299039 
L 268.355269 -91.184958 
L 269.272404 -91.060095 
L 270.18954 -90.925811 
L 271.106676 -90.783463 
L 272.023811 -90.63441 
L 272.940947 -90.480011 
L 273.858082 -90.321624 
L 274.775218 -90.16061 
L 275.692353 -89.998325 
L 276.609489 -89.83613 
L 277.526624 -89.675382 
L 278.44376 -89.517441 
L 279.360895 -89.363665 
L 280.278031 -89.215413 
L 281.195167 -89.074044 
L 282.112302 -88.940916 
L 283.029438 -88.817262 
L 283.946573 -88.70347 
L 284.863709 -88.599584 
L 285.780844 -88.505649 
L 286.69798 -88.421707 
L 287.615115 -88.347803 
L 288.532251 -88.28398 
L 289.449386 -88.230281 
L 290.366522 -88.186751 
L 291.283657 -88.153432 
L 292.200793 -88.130369 
L 293.117929 -88.117605 
L 294.035064 -88.115183 
L 294.9522 -88.123148 
L 295.869335 -88.141542 
L 296.786471 -88.170409 
L 297.703606 -88.209794 
L 298.620742 -88.259739 
L 299.537877 -88.320288 
L 300.455013 -88.391484 
L 301.372148 -88.473372 
L 302.289284 -88.565995 
L 303.20642 -88.669397 
L 304.123555 -88.78362 
L 305.040691 -88.908709 
L 305.957826 -89.044707 
L 306.874962 -89.191659 
L 307.792097 -89.349606 
L 308.709233 -89.518594 
L 309.626368 -89.698665 
L 310.543504 -89.889864 
L 311.460639 -90.092233 
L 312.377775 -90.305816 
L 313.294911 -90.530658 
L 314.212046 -90.766801 
L 315.129182 -91.01429 
L 316.046317 -91.273167 
L 316.963453 -91.543476 
L 317.880588 -91.825262 
L 318.797724 -92.118567 
L 319.714859 -92.423435 
L 320.631995 -92.73991 
L 321.54913 -93.068035 
L 322.466266 -93.407854 
L 323.383402 -93.75941 
L 324.300537 -94.122748 
L 325.217673 -94.49791 
L 326.134808 -94.884941 
L 327.051944 -95.283883 
L 327.969079 -95.694781 
L 327.969079 -95.694781 
L 327.969079 -105.18 
L 327.051944 -105.18 
L 326.134808 -105.18 
L 325.217673 -105.18 
L 324.300537 -105.18 
L 323.383402 -105.18 
L 322.466266 -105.18 
L 321.54913 -105.18 
L 320.631995 -105.18 
L 319.714859 -105.18 
L 318.797724 -105.18 
L 317.880588 -105.18 
L 316.963453 -105.18 
L 316.046317 -105.18 
L 315.129182 -105.18 
L 314.212046 -105.18 
L 313.294911 -105.18 
L 312.377775 -105.18 
L 311.460639 -105.18 
L 310.543504 -105.18 
L 309.626368 -105.18 
L 308.709233 -105.18 
L 307.792097 -105.18 
L 306.874962 -105.18 
L 305.957826 -105.18 
L 305.040691 -105.18 
L 304.123555 -105.18 
L 303.20642 -105.18 
L 302.289284 -105.18 
L 301.372148 -105.18 
L 300.455013 -105.18 
L 299.537877 -105.18 
L 298.620742 -105.18 
L 297.703606 -105.18 
L 296.786471 -105.18 
L 295.869335 -105.18 
L 294.9522 -105.18 
L 294.035064 -105.18 
L 293.117929 -105.18 
L 292.200793 -105.18 
L 291.283657 -105.18 
L 290.366522 -105.18 
L 289.449386 -105.18 
L 288.532251 -105.18 
L 287.615115 -105.18 
L 286.69798 -105.18 
L 285.780844 -105.18 
L 284.863709 -105.18 
L 283.946573 -105.18 
L 283.029438 -105.18 
L 282.112302 -105.18 
L 281.195167 -105.18 
L 280.278031 -105.18 
L 279.360895 -105.18 
L 278.44376 -105.18 
L 277.526624 -105.18 
L 276.609489 -105.18 
L 275.692353 -105.18 
L 274.775218 -105.18 
L 273.858082 -105.18 
L 272.940947 -105.18 
L 272.023811 -105.18 
L 271.106676 -105.18 
L 270.18954 -105.18 
L 269.272404 -105.18 
L 268.355269 -105.18 
L 267.438133 -105.18 
L 266.520998 -105.18 
L 265.603862 -105.18 
L 264.686727 -105.18 
L 263.769591 -105.18 
L 262.852456 -105.18 
L 261.93532 -105.18 
L 261.018185 -105.18 
L 260.101049 -105.18 
L 259.183913 -105.18 
L 258.266778 -105.18 
L 257.349642 -105.18 
L 256.432507 -105.18 
L 255.515371 -105.18 
L 254.598236 -105.18 
L 253.6811 -105.18 
L 252.763965 -105.18 
L 251.846829 -105.18 
L 250.929694 -105.18 
L 250.012558 -105.18 
L 249.095422 -105.18 
L 248.178287 -105.18 
L 247.261151 -105.18 
L 246.344016 -105.18 
L 245.42688 -105.18 
L 244.509745 -105.18 
L 243.592609 -105.18 
L 242.675474 -105.18 
L 241.758338 -105.18 
L 240.841203 -105.18 
L 239.924067 -105.18 
L 239.006931 -105.18 
L 238.089796 -105.18 
L 237.17266 -105.18 
L 236.255525 -105.18 
L 235.338389 -105.18 
L 234.421254 -105.18 
L 233.504118 -105.18 
L 232.586983 -105.18 
L 231.669847 -105.18 
L 230.752712 -105.18 
L 229.835576 -105.18 
L 228.91844 -105.18 
L 228.001305 -105.18 
L 227.084169 -105.18 
L 226.167034 -105.18 
L 225.249898 -105.18 
L 224.332763 -105.18 
L 223.415627 -105.18 
L 222.498492 -105.18 
L 221.581356 -105.18 
L 220.664221 -105.18 
L 219.747085 -105.18 
L 218.829949 -105.18 
L 217.912814 -105.18 
L 216.995678 -105.18 
L 216.078543 -105.18 
L 215.161407 -105.18 
L 214.244272 -105.18 
L 213.327136 -105.18 
L 212.410001 -105.18 
L 211.492865 -105.18 
L 210.57573 -105.18 
L 209.658594 -105.18 
L 208.741458 -105.18 
L 207.824323 -105.18 
L 206.907187 -105.18 
L 205.990052 -105.18 
L 205.072916 -105.18 
L 204.155781 -105.18 
L 203.238645 -105.18 
L 202.32151 -105.18 
L 201.404374 -105.18 
L 200.487239 -105.18 
L 199.570103 -105.18 
L 198.652967 -105.18 
L 197.735832 -105.18 
L 196.818696 -105.18 
L 195.901561 -105.18 
L 194.984425 -105.18 
L 194.06729 -105.18 
L 193.150154 -105.18 
L 192.233019 -105.18 
L 191.315883 -105.18 
L 190.398748 -105.18 
L 189.481612 -105.18 
L 188.564476 -105.18 
L 187.647341 -105.18 
L 186.730205 -105.18 
L 185.81307 -105.18 
L 184.895934 -105.18 
L 183.978799 -105.18 
L 183.061663 -105.18 
L 182.144528 -105.18 
L 181.227392 -105.18 
L 180.310257 -105.18 
L 179.393121 -105.18 
L 178.475985 -105.18 
L 177.55885 -105.18 
L 176.641714 -105.18 
L 175.724579 -105.18 
L 174.807443 -105.18 
L 173.890308 -105.18 
L 172.973172 -105.18 
L 172.056037 -105.18 
L 171.138901 -105.18 
L 170.221766 -105.18 
L 169.30463 -105.18 
L 168.387494 -105.18 
L 167.470359 -105.18 
L 166.553223 -105.18 
L 165.636088 -105.18 
L 164.718952 -105.18 
L 163.801817 -105.18 
L 162.884681 -105.18 
L 161.967546 -105.18 
L 161.05041 -105.18 
L 160.133275 -105.18 
L 159.216139 -105.18 
L 158.299004 -105.18 
L 157.381868 -105.18 
L 156.464732 -105.18 
L 155.547597 -105.18 
L 154.630461 -105.18 
L 153.713326 -105.18 
L 152.79619 -105.18 
L 151.879055 -105.18 
L 150.961919 -105.18 
L 150.044784 -105.18 
L 149.127648 -105.18 
L 148.210513 -105.18 
L 147.293377 -105.18 
L 146.376241 -105.18 
L 145.459106 -105.18 
L 144.54197 -105.18 
L 143.624835 -105.18 
L 142.707699 -105.18 
L 141.790564 -105.18 
L 140.873428 -105.18 
L 139.956293 -105.18 
L 139.039157 -105.18 
L 138.122022 -105.18 
L 137.204886 -105.18 
L 136.28775 -105.18 
L 135.370615 -105.18 
L 134.453479 -105.18 
L 133.536344 -105.18 
L 132.619208 -105.18 
L 131.702073 -105.18 
L 130.784937 -105.18 
L 129.867802 -105.18 
L 128.950666 -105.18 
L 128.033531 -105.18 
L 127.116395 -105.18 
L 126.199259 -105.18 
L 125.282124 -105.18 
L 124.364988 -105.18 
L 123.447853 -105.18 
L 122.530717 -105.18 
L 121.613582 -105.18 
L 120.696446 -105.18 
L 119.779311 -105.18 
L 118.862175 -105.18 
L 117.94504 -105.18 
L 117.027904 -105.18 
L 116.110768 -105.18 
L 115.193633 -105.18 
L 114.276497 -105.18 
L 113.359362 -105.18 
L 112.442226 -105.18 
L 111.525091 -105.18 
L 110.607955 -105.18 
L 109.69082 -105.18 
L 108.773684 -105.18 
L 107.856549 -105.18 
L 106.939413 -105.18 
L 106.022277 -105.18 
L 105.105142 -105.18 
L 104.188006 -105.18 
L 103.270871 -105.18 
L 102.353735 -105.18 
L 101.4366 -105.18 
L 100.519464 -105.18 
L 99.602329 -105.18 
L 98.685193 -105.18 
L 97.768058 -105.18 
L 96.850922 -105.18 
L 95.933786 -105.18 
L 95.016651 -105.18 
L 94.099515 -105.18 
L 93.18238 -105.18 
L 92.265244 -105.18 
L 91.348109 -105.18 
L 90.430973 -105.18 
L 89.513838 -105.18 
L 88.596702 -105.18 
L 87.679567 -105.18 
L 86.762431 -105.18 
L 85.845295 -105.18 
L 84.92816 -105.18 
L 84.011024 -105.18 
L 83.093889 -105.18 
L 82.176753 -105.18 
L 81.259618 -105.18 
L 80.342482 -105.18 
L 79.425347 -105.18 
L 78.508211 -105.18 
L 77.591076 -105.18 
L 76.67394 -105.18 
L 75.756804 -105.18 
L 74.839669 -105.18 
L 73.922533 -105.18 
L 73.005398 -105.18 
L 72.088262 -105.18 
L 71.171127 -105.18 
L 70.253991 -105.18 
L 69.336856 -105.18 
L 68.41972 -105.18 
L 67.502585 -105.18 
L 66.585449 -105.18 
L 65.668313 -105.18 
L 64.751178 -105.18 
L 63.834042 -105.18 
L 62.916907 -105.18 
L 61.999771 -105.18 
L 61.082636 -105.18 
L 60.1655 -105.18 
L 59.248365 -105.18 
L 58.331229 -105.18 
L 57.414094 -105.18 
L 56.496958 -105.18 
L 55.579822 -105.18 
L 54.662687 -105.18 
L 53.745551 -105.18 
z
" style="stroke: #ed6b4d; stroke-opacity: 0.1"/>
    </defs>
    <g clip-path="url(#p504f753ec1)">
     <use xlink:href="#m143d648b76" x="0" y="208.8" style="fill: #ed6b4d; fill-opacity: 0.1; stroke: #ed6b4d; stroke-opacity: 0.1"/>
    </g>
   </g>
   <g id="line2d_1">
    <defs>
     <path id="md362185f9a" d="M 0 3 
C 0.795609 3 1.55874 2.683901 2.12132 2.12132 
C 2.683901 1.55874 3 0.795609 3 0 
C 3 -0.795609 2.683901 -1.55874 2.12132 -2.12132 
C 1.55874 -2.683901 0.795609 -3 0 -3 
C -0.795609 -3 -1.55874 -2.683901 -2.12132 -2.12132 
C -2.683901 -1.55874 -3 -0.795609 -3 0 
C -3 0.795609 -2.683901 1.55874 -2.12132 2.12132 
C -1.55874 2.683901 -0.795609 3 0 3 
z
" style="stroke: #0035a0"/>
    </defs>
    <g clip-path="url(#p504f753ec1)">
     <use xlink:href="#md362185f9a" x="53.745551" y="128.010562" style="fill: #0035a0; stroke: #0035a0"/>
     <use xlink:href="#md362185f9a" x="76.597512" y="168.6615" style="fill: #0035a0; stroke: #0035a0"/>
     <use xlink:href="#md362185f9a" x="99.449473" y="141.560875" style="fill: #0035a0; stroke: #0035a0"/>
     <use xlink:href="#md362185f9a" x="122.301433" y="151.046094" style="fill: #0035a0; stroke: #0035a0"/>
     <use xlink:href="#md362185f9a" x="145.153394" y="118.525344" style="fill: #0035a0; stroke: #0035a0"/>
     <use xlink:href="#md362185f9a" x="168.005355" y="118.525344" style="fill: #0035a0; stroke: #0035a0"/>
     <use xlink:href="#md362185f9a" x="190.857315" y="130.720625" style="fill: #0035a0; stroke: #0035a0"/>
     <use xlink:href="#md362185f9a" x="213.709276" y="107.685094" style="fill: #0035a0; stroke: #0035a0"/>
     <use xlink:href="#md362185f9a" x="236.561237" y="117.170312" style="fill: #0035a0; stroke: #0035a0"/>
     <use xlink:href="#md362185f9a" x="259.413197" y="117.170312" style="fill: #0035a0; stroke: #0035a0"/>
     <use xlink:href="#md362185f9a" x="282.265158" y="119.880375" style="fill: #0035a0; stroke: #0035a0"/>
     <use xlink:href="#md362185f9a" x="305.117119" y="119.880375" style="fill: #0035a0; stroke: #0035a0"/>
     <use xlink:href="#md362185f9a" x="327.969079" y="113.105219" style="fill: #0035a0; stroke: #0035a0"/>
    </g>
   </g>
   <g id="line2d_2">
    <path d="M 40.034375 103.62 
L 341.680256 103.62 
" clip-path="url(#p504f753ec1)" style="fill: none; stroke: #808080; stroke-width: 0.8; stroke-linecap: square"/>
   </g>
   <g id="matplotlib.axis_1">
    <g id="xtick_1">
     <g id="line2d_3">
      <defs>
       <path id="m7fde23684d" d="M 0 0 
L 0 3.5 
" style="stroke: #000000; stroke-width: 0.8"/>
      </defs>
      <g>
       <use xlink:href="#m7fde23684d" x="53.745551" y="184.921875" style="stroke: #000000; stroke-width: 0.8"/>
      </g>
     </g>
     <g id="text_1">
      <!-- 26 Mar -->
      <g transform="translate(36.360395 199.520312) scale(0.1 -0.1)">
       <defs>
        <path id="DejaVuSans-32" d="M 1228 531 
L 3431 531 
L 3431 0 
L 469 0 
L 469 531 
Q 828 903 1448 1529 
Q 2069 2156 2228 2338 
Q 2531 2678 2651 2914 
Q 2772 3150 2772 3378 
Q 2772 3750 2511 3984 
Q 2250 4219 1831 4219 
Q 1534 4219 1204 4116 
Q 875 4013 500 3803 
L 500 4441 
Q 881 4594 1212 4672 
Q 1544 4750 1819 4750 
Q 2544 4750 2975 4387 
Q 3406 4025 3406 3419 
Q 3406 3131 3298 2873 
Q 3191 2616 2906 2266 
Q 2828 2175 2409 1742 
Q 1991 1309 1228 531 
z
" transform="scale(0.015625)"/>
        <path id="DejaVuSans-36" d="M 2113 2584 
Q 1688 2584 1439 2293 
Q 1191 2003 1191 1497 
Q 1191 994 1439 701 
Q 1688 409 2113 409 
Q 2538 409 2786 701 
Q 3034 994 3034 1497 
Q 3034 2003 2786 2293 
Q 2538 2584 2113 2584 
z
M 3366 4563 
L 3366 3988 
Q 3128 4100 2886 4159 
Q 2644 4219 2406 4219 
Q 1781 4219 1451 3797 
Q 1122 3375 1075 2522 
Q 1259 2794 1537 2939 
Q 1816 3084 2150 3084 
Q 2853 3084 3261 2657 
Q 3669 2231 3669 1497 
Q 3669 778 3244 343 
Q 2819 -91 2113 -91 
Q 1303 -91 875 529 
Q 447 1150 447 2328 
Q 447 3434 972 4092 
Q 1497 4750 2381 4750 
Q 2619 4750 2861 4703 
Q 3103 4656 3366 4563 
z
" transform="scale(0.015625)"/>
        <path id="DejaVuSans-20" transform="scale(0.015625)"/>
        <path id="DejaVuSans-4d" d="M 628 4666 
L 1569 4666 
L 2759 1491 
L 3956 4666 
L 4897 4666 
L 4897 0 
L 4281 0 
L 4281 4097 
L 3078 897 
L 2444 897 
L 1241 4097 
L 1241 0 
L 628 0 
L 628 4666 
z
" transform="scale(0.015625)"/>
        <path id="DejaVuSans-61" d="M 2194 1759 
Q 1497 1759 1228 1600 
Q 959 1441 959 1056 
Q 959 750 1161 570 
Q 1363 391 1709 391 
Q 2188 391 2477 730 
Q 2766 1069 2766 1631 
L 2766 1759 
L 2194 1759 
z
M 3341 1997 
L 3341 0 
L 2766 0 
L 2766 531 
Q 2569 213 2275 61 
Q 1981 -91 1556 -91 
Q 1019 -91 701 211 
Q 384 513 384 1019 
Q 384 1609 779 1909 
Q 1175 2209 1959 2209 
L 2766 2209 
L 2766 2266 
Q 2766 2663 2505 2880 
Q 2244 3097 1772 3097 
Q 1472 3097 1187 3025 
Q 903 2953 641 2809 
L 641 3341 
Q 956 3463 1253 3523 
Q 1550 3584 1831 3584 
Q 2591 3584 2966 3190 
Q 3341 2797 3341 1997 
z
" transform="scale(0.015625)"/>
        <path id="DejaVuSans-72" d="M 2631 2963 
Q 2534 3019 2420 3045 
Q 2306 3072 2169 3072 
Q 1681 3072 1420 2755 
Q 1159 2438 1159 1844 
L 1159 0 
L 581 0 
L 581 3500 
L 1159 3500 
L 1159 2956 
Q 1341 3275 1631 3429 
Q 1922 3584 2338 3584 
Q 2397 3584 2469 3576 
Q 2541 3569 2628 3553 
L 2631 2963 
z
" transform="scale(0.015625)"/>
       </defs>
       <use xlink:href="#DejaVuSans-32"/>
       <use xlink:href="#DejaVuSans-36" x="63.623047"/>
       <use xlink:href="#DejaVuSans-20" x="127.246094"/>
       <use xlink:href="#DejaVuSans-4d" x="159.033203"/>
       <use xlink:href="#DejaVuSans-61" x="245.3125"/>
       <use xlink:href="#DejaVuSans-72" x="306.591797"/>
      </g>
     </g>
    </g>
    <g id="xtick_2">
     <g id="line2d_4">
      <g>
       <use xlink:href="#m7fde23684d" x="99.449473" y="184.921875" style="stroke: #000000; stroke-width: 0.8"/>
      </g>
     </g>
     <g id="text_2">
      <!-- 28 Mar -->
      <g transform="translate(82.064316 199.520312) scale(0.1 -0.1)">
       <defs>
        <path id="DejaVuSans-38" d="M 2034 2216 
Q 1584 2216 1326 1975 
Q 1069 1734 1069 1313 
Q 1069 891 1326 650 
Q 1584 409 2034 409 
Q 2484 409 2743 651 
Q 3003 894 3003 1313 
Q 3003 1734 2745 1975 
Q 2488 2216 2034 2216 
z
M 1403 2484 
Q 997 2584 770 2862 
Q 544 3141 544 3541 
Q 544 4100 942 4425 
Q 1341 4750 2034 4750 
Q 2731 4750 3128 4425 
Q 3525 4100 3525 3541 
Q 3525 3141 3298 2862 
Q 3072 2584 2669 2484 
Q 3125 2378 3379 2068 
Q 3634 1759 3634 1313 
Q 3634 634 3220 271 
Q 2806 -91 2034 -91 
Q 1263 -91 848 271 
Q 434 634 434 1313 
Q 434 1759 690 2068 
Q 947 2378 1403 2484 
z
M 1172 3481 
Q 1172 3119 1398 2916 
Q 1625 2713 2034 2713 
Q 2441 2713 2670 2916 
Q 2900 3119 2900 3481 
Q 2900 3844 2670 4047 
Q 2441 4250 2034 4250 
Q 1625 4250 1398 4047 
Q 1172 3844 1172 3481 
z
" transform="scale(0.015625)"/>
       </defs>
       <use xlink:href="#DejaVuSans-32"/>
       <use xlink:href="#DejaVuSans-38" x="63.623047"/>
       <use xlink:href="#DejaVuSans-20" x="127.246094"/>
       <use xlink:href="#DejaVuSans-4d" x="159.033203"/>
       <use xlink:href="#DejaVuSans-61" x="245.3125"/>
       <use xlink:href="#DejaVuSans-72" x="306.591797"/>
      </g>
     </g>
    </g>
    <g id="xtick_3">
     <g id="line2d_5">
      <g>
       <use xlink:href="#m7fde23684d" x="145.153394" y="184.921875" style="stroke: #000000; stroke-width: 0.8"/>
      </g>
     </g>
     <g id="text_3">
      <!-- 30 Mar -->
      <g transform="translate(127.768238 199.520312) scale(0.1 -0.1)">
       <defs>
        <path id="DejaVuSans-33" d="M 2597 2516 
Q 3050 2419 3304 2112 
Q 3559 1806 3559 1356 
Q 3559 666 3084 287 
Q 2609 -91 1734 -91 
Q 1441 -91 1130 -33 
Q 819 25 488 141 
L 488 750 
Q 750 597 1062 519 
Q 1375 441 1716 441 
Q 2309 441 2620 675 
Q 2931 909 2931 1356 
Q 2931 1769 2642 2001 
Q 2353 2234 1838 2234 
L 1294 2234 
L 1294 2753 
L 1863 2753 
Q 2328 2753 2575 2939 
Q 2822 3125 2822 3475 
Q 2822 3834 2567 4026 
Q 2313 4219 1838 4219 
Q 1578 4219 1281 4162 
Q 984 4106 628 3988 
L 628 4550 
Q 988 4650 1302 4700 
Q 1616 4750 1894 4750 
Q 2613 4750 3031 4423 
Q 3450 4097 3450 3541 
Q 3450 3153 3228 2886 
Q 3006 2619 2597 2516 
z
" transform="scale(0.015625)"/>
        <path id="DejaVuSans-30" d="M 2034 4250 
Q 1547 4250 1301 3770 
Q 1056 3291 1056 2328 
Q 1056 1369 1301 889 
Q 1547 409 2034 409 
Q 2525 409 2770 889 
Q 3016 1369 3016 2328 
Q 3016 3291 2770 3770 
Q 2525 4250 2034 4250 
z
M 2034 4750 
Q 2819 4750 3233 4129 
Q 3647 3509 3647 2328 
Q 3647 1150 3233 529 
Q 2819 -91 2034 -91 
Q 1250 -91 836 529 
Q 422 1150 422 2328 
Q 422 3509 836 4129 
Q 1250 4750 2034 4750 
z
" transform="scale(0.015625)"/>
       </defs>
       <use xlink:href="#DejaVuSans-33"/>
       <use xlink:href="#DejaVuSans-30" x="63.623047"/>
       <use xlink:href="#DejaVuSans-20" x="127.246094"/>
       <use xlink:href="#DejaVuSans-4d" x="159.033203"/>
       <use xlink:href="#DejaVuSans-61" x="245.3125"/>
       <use xlink:href="#DejaVuSans-72" x="306.591797"/>
      </g>
     </g>
    </g>
    <g id="xtick_4">
     <g id="line2d_6">
      <g>
       <use xlink:href="#m7fde23684d" x="190.857315" y="184.921875" style="stroke: #000000; stroke-width: 0.8"/>
      </g>
     </g>
     <g id="text_4">
      <!-- 01 Apr -->
      <g transform="translate(174.255753 199.520312) scale(0.1 -0.1)">
       <defs>
        <path id="DejaVuSans-31" d="M 794 531 
L 1825 531 
L 1825 4091 
L 703 3866 
L 703 4441 
L 1819 4666 
L 2450 4666 
L 2450 531 
L 3481 531 
L 3481 0 
L 794 0 
L 794 531 
z
" transform="scale(0.015625)"/>
        <path id="DejaVuSans-41" d="M 2188 4044 
L 1331 1722 
L 3047 1722 
L 2188 4044 
z
M 1831 4666 
L 2547 4666 
L 4325 0 
L 3669 0 
L 3244 1197 
L 1141 1197 
L 716 0 
L 50 0 
L 1831 4666 
z
" transform="scale(0.015625)"/>
        <path id="DejaVuSans-70" d="M 1159 525 
L 1159 -1331 
L 581 -1331 
L 581 3500 
L 1159 3500 
L 1159 2969 
Q 1341 3281 1617 3432 
Q 1894 3584 2278 3584 
Q 2916 3584 3314 3078 
Q 3713 2572 3713 1747 
Q 3713 922 3314 415 
Q 2916 -91 2278 -91 
Q 1894 -91 1617 61 
Q 1341 213 1159 525 
z
M 3116 1747 
Q 3116 2381 2855 2742 
Q 2594 3103 2138 3103 
Q 1681 3103 1420 2742 
Q 1159 2381 1159 1747 
Q 1159 1113 1420 752 
Q 1681 391 2138 391 
Q 2594 391 2855 752 
Q 3116 1113 3116 1747 
z
" transform="scale(0.015625)"/>
       </defs>
       <use xlink:href="#DejaVuSans-30"/>
       <use xlink:href="#DejaVuSans-31" x="63.623047"/>
       <use xlink:href="#DejaVuSans-20" x="127.246094"/>
       <use xlink:href="#DejaVuSans-41" x="159.033203"/>
       <use xlink:href="#DejaVuSans-70" x="227.441406"/>
       <use xlink:href="#DejaVuSans-72" x="290.917969"/>
      </g>
     </g>
    </g>
    <g id="xtick_5">
     <g id="line2d_7">
      <g>
       <use xlink:href="#m7fde23684d" x="236.561237" y="184.921875" style="stroke: #000000; stroke-width: 0.8"/>
      </g>
     </g>
     <g id="text_5">
      <!-- 03 Apr -->
      <g transform="translate(219.959674 199.520312) scale(0.1 -0.1)">
       <use xlink:href="#DejaVuSans-30"/>
       <use xlink:href="#DejaVuSans-33" x="63.623047"/>
       <use xlink:href="#DejaVuSans-20" x="127.246094"/>
       <use xlink:href="#DejaVuSans-41" x="159.033203"/>
       <use xlink:href="#DejaVuSans-70" x="227.441406"/>
       <use xlink:href="#DejaVuSans-72" x="290.917969"/>
      </g>
     </g>
    </g>
    <g id="xtick_6">
     <g id="line2d_8">
      <g>
       <use xlink:href="#m7fde23684d" x="282.265158" y="184.921875" style="stroke: #000000; stroke-width: 0.8"/>
      </g>
     </g>
     <g id="text_6">
      <!-- 05 Apr -->
      <g transform="translate(265.663595 199.520312) scale(0.1 -0.1)">
       <defs>
        <path id="DejaVuSans-35" d="M 691 4666 
L 3169 4666 
L 3169 4134 
L 1269 4134 
L 1269 2991 
Q 1406 3038 1543 3061 
Q 1681 3084 1819 3084 
Q 2600 3084 3056 2656 
Q 3513 2228 3513 1497 
Q 3513 744 3044 326 
Q 2575 -91 1722 -91 
Q 1428 -91 1123 -41 
Q 819 9 494 109 
L 494 744 
Q 775 591 1075 516 
Q 1375 441 1709 441 
Q 2250 441 2565 725 
Q 2881 1009 2881 1497 
Q 2881 1984 2565 2268 
Q 2250 2553 1709 2553 
Q 1456 2553 1204 2497 
Q 953 2441 691 2322 
L 691 4666 
z
" transform="scale(0.015625)"/>
       </defs>
       <use xlink:href="#DejaVuSans-30"/>
       <use xlink:href="#DejaVuSans-35" x="63.623047"/>
       <use xlink:href="#DejaVuSans-20" x="127.246094"/>
       <use xlink:href="#DejaVuSans-41" x="159.033203"/>
       <use xlink:href="#DejaVuSans-70" x="227.441406"/>
       <use xlink:href="#DejaVuSans-72" x="290.917969"/>
      </g>
     </g>
    </g>
    <g id="xtick_7">
     <g id="line2d_9">
      <g>
       <use xlink:href="#m7fde23684d" x="327.969079" y="184.921875" style="stroke: #000000; stroke-width: 0.8"/>
      </g>
     </g>
     <g id="text_7">
      <!-- 07 Apr -->
      <g transform="translate(311.367517 199.520312) scale(0.1 -0.1)">
       <defs>
        <path id="DejaVuSans-37" d="M 525 4666 
L 3525 4666 
L 3525 4397 
L 1831 0 
L 1172 0 
L 2766 4134 
L 525 4134 
L 525 4666 
z
" transform="scale(0.015625)"/>
       </defs>
       <use xlink:href="#DejaVuSans-30"/>
       <use xlink:href="#DejaVuSans-37" x="63.623047"/>
       <use xlink:href="#DejaVuSans-20" x="127.246094"/>
       <use xlink:href="#DejaVuSans-41" x="159.033203"/>
       <use xlink:href="#DejaVuSans-70" x="227.441406"/>
       <use xlink:href="#DejaVuSans-72" x="290.917969"/>
      </g>
     </g>
    </g>
   </g>
   <g id="matplotlib.axis_2">
    <g id="ytick_1">
     <g id="text_8">
      <!-- -50% -->
      <g transform="translate(7.2 175.170781) scale(0.1 -0.1)">
       <defs>
        <path id="DejaVuSans-2d" d="M 313 2009 
L 1997 2009 
L 1997 1497 
L 313 1497 
L 313 2009 
z
" transform="scale(0.015625)"/>
        <path id="DejaVuSans-25" d="M 4653 2053 
Q 4381 2053 4226 1822 
Q 4072 1591 4072 1178 
Q 4072 772 4226 539 
Q 4381 306 4653 306 
Q 4919 306 5073 539 
Q 5228 772 5228 1178 
Q 5228 1588 5073 1820 
Q 4919 2053 4653 2053 
z
M 4653 2450 
Q 5147 2450 5437 2106 
Q 5728 1763 5728 1178 
Q 5728 594 5436 251 
Q 5144 -91 4653 -91 
Q 4153 -91 3862 251 
Q 3572 594 3572 1178 
Q 3572 1766 3864 2108 
Q 4156 2450 4653 2450 
z
M 1428 4353 
Q 1159 4353 1004 4120 
Q 850 3888 850 3481 
Q 850 3069 1003 2837 
Q 1156 2606 1428 2606 
Q 1700 2606 1854 2837 
Q 2009 3069 2009 3481 
Q 2009 3884 1853 4118 
Q 1697 4353 1428 4353 
z
M 4250 4750 
L 4750 4750 
L 1831 -91 
L 1331 -91 
L 4250 4750 
z
M 1428 4750 
Q 1922 4750 2215 4408 
Q 2509 4066 2509 3481 
Q 2509 2891 2217 2550 
Q 1925 2209 1428 2209 
Q 931 2209 642 2551 
Q 353 2894 353 3481 
Q 353 4063 643 4406 
Q 934 4750 1428 4750 
z
" transform="scale(0.015625)"/>
       </defs>
       <use xlink:href="#DejaVuSans-2d"/>
       <use xlink:href="#DejaVuSans-35" x="36.083984"/>
       <use xlink:href="#DejaVuSans-30" x="99.707031"/>
       <use xlink:href="#DejaVuSans-25" x="163.330078"/>
      </g>
     </g>
    </g>
    <g id="ytick_2">
     <g id="text_9">
      <!-- -25% -->
      <g transform="translate(7.2 141.295) scale(0.1 -0.1)">
       <use xlink:href="#DejaVuSans-2d"/>
       <use xlink:href="#DejaVuSans-32" x="36.083984"/>
       <use xlink:href="#DejaVuSans-35" x="99.707031"/>
       <use xlink:href="#DejaVuSans-25" x="163.330078"/>
      </g>
     </g>
    </g>
    <g id="ytick_3">
     <g id="text_10">
      <!-- 0% -->
      <g transform="translate(17.170313 107.419219) scale(0.1 -0.1)">
       <use xlink:href="#DejaVuSans-30"/>
       <use xlink:href="#DejaVuSans-25" x="63.623047"/>
      </g>
     </g>
    </g>
    <g id="ytick_4">
     <g id="text_11">
      <!-- 25% -->
      <g transform="translate(10.807813 73.543437) scale(0.1 -0.1)">
       <use xlink:href="#DejaVuSans-32"/>
       <use xlink:href="#DejaVuSans-35" x="63.623047"/>
       <use xlink:href="#DejaVuSans-25" x="127.246094"/>
      </g>
     </g>
    </g>
    <g id="ytick_5">
     <g id="text_12">
      <!-- 50% -->
      <g transform="translate(10.807813 39.667656) scale(0.1 -0.1)">
       <use xlink:href="#DejaVuSans-35"/>
       <use xlink:href="#DejaVuSans-30" x="63.623047"/>
       <use xlink:href="#DejaVuSans-25" x="127.246094"/>
      </g>
     </g>
    </g>
   </g>
   <g id="line2d_10">
    <path d="M 53.745551 128.010562 
L 55.579822 137.691295 
L 57.414094 145.952871 
L 59.248365 152.881051 
L 61.082636 158.56159 
L 62.916907 163.080248 
L 63.834042 164.93067 
L 64.751178 166.52278 
L 65.668313 167.867299 
L 66.585449 168.974946 
L 67.502585 169.856441 
L 68.41972 170.522503 
L 69.336856 170.983853 
L 70.253991 171.251209 
L 71.171127 171.335291 
L 72.088262 171.24682 
L 73.005398 170.996515 
L 73.922533 170.595095 
L 74.839669 170.053281 
L 76.67394 168.591348 
L 78.508211 166.696472 
L 80.342482 164.454413 
L 83.093889 160.627947 
L 91.348109 148.513612 
L 93.18238 146.242477 
L 95.016651 144.310218 
L 96.850922 142.802594 
L 97.768058 142.23482 
L 98.685193 141.805363 
L 99.602329 141.524925 
L 100.519464 141.397969 
L 101.4366 141.413666 
L 102.353735 141.558886 
L 104.188006 142.185376 
L 106.022277 143.172403 
L 107.856549 144.41493 
L 115.193633 149.839288 
L 117.027904 150.783755 
L 118.862175 151.3535 
L 119.779311 151.465027 
L 120.696446 151.443484 
L 121.613582 151.275742 
L 122.530717 150.948735 
L 123.447853 150.457099 
L 124.364988 149.810432 
L 126.199259 148.097266 
L 128.033531 145.899763 
L 129.867802 143.30845 
L 132.619208 138.881111 
L 137.204886 130.815613 
L 140.873428 124.56001 
L 142.707699 121.746753 
L 144.54197 119.263895 
L 146.376241 117.196215 
L 148.210513 115.561707 
L 150.044784 114.33527 
L 151.879055 113.491089 
L 153.713326 113.003348 
L 155.547597 112.84623 
L 157.381868 112.993918 
L 159.216139 113.420596 
L 161.05041 114.100448 
L 162.884681 115.007657 
L 164.718952 116.116407 
L 167.470359 118.100948 
L 170.221766 120.38653 
L 178.475985 127.490391 
L 180.310257 128.796483 
L 182.144528 129.894423 
L 183.978799 130.733881 
L 185.81307 131.26453 
L 187.647341 131.43604 
L 189.481612 131.198082 
L 190.398748 130.909825 
L 192.233019 129.972462 
L 194.06729 128.597873 
L 195.901561 126.865693 
L 197.735832 124.855892 
L 200.487239 121.495592 
L 206.907187 113.441606 
L 208.741458 111.445496 
L 210.57573 109.73157 
L 212.410001 108.3798 
L 214.244272 107.46958 
L 216.078543 107.03258 
L 217.912814 107.017717 
L 219.747085 107.365662 
L 221.581356 108.017084 
L 223.415627 108.912652 
L 226.167034 110.583989 
L 234.421254 116.09058 
L 236.255525 117.0339 
L 238.089796 117.755045 
L 239.924067 118.258376 
L 241.758338 118.570834 
L 244.509745 118.740724 
L 247.261151 118.633087 
L 250.929694 118.215425 
L 258.266778 117.250485 
L 261.018185 117.118394 
L 263.769591 117.17962 
L 267.438133 117.500961 
L 272.023811 118.16559 
L 283.946573 120.09653 
L 288.532251 120.51602 
L 293.117929 120.682395 
L 297.703606 120.590206 
L 302.289284 120.234005 
L 306.874962 119.608341 
L 311.460639 118.707767 
L 316.046317 117.526833 
L 320.631995 116.06009 
L 325.217673 114.30209 
L 327.969079 113.105219 
L 327.969079 113.105219 
" clip-path="url(#p504f753ec1)" style="fill: none; stroke: #0035a0; stroke-width: 3; stroke-linecap: round"/>
   </g>
   <g id="text_13">
    <!-- Sambava - population change trends -->
    <g transform="translate(79.897628 16.318125) scale(0.12 -0.12)">
     <defs>
      <path id="DejaVuSans-53" d="M 3425 4513 
L 3425 3897 
Q 3066 4069 2747 4153 
Q 2428 4238 2131 4238 
Q 1616 4238 1336 4038 
Q 1056 3838 1056 3469 
Q 1056 3159 1242 3001 
Q 1428 2844 1947 2747 
L 2328 2669 
Q 3034 2534 3370 2195 
Q 3706 1856 3706 1288 
Q 3706 609 3251 259 
Q 2797 -91 1919 -91 
Q 1588 -91 1214 -16 
Q 841 59 441 206 
L 441 856 
Q 825 641 1194 531 
Q 1563 422 1919 422 
Q 2459 422 2753 634 
Q 3047 847 3047 1241 
Q 3047 1584 2836 1778 
Q 2625 1972 2144 2069 
L 1759 2144 
Q 1053 2284 737 2584 
Q 422 2884 422 3419 
Q 422 4038 858 4394 
Q 1294 4750 2059 4750 
Q 2388 4750 2728 4690 
Q 3069 4631 3425 4513 
z
" transform="scale(0.015625)"/>
      <path id="DejaVuSans-6d" d="M 3328 2828 
Q 3544 3216 3844 3400 
Q 4144 3584 4550 3584 
Q 5097 3584 5394 3201 
Q 5691 2819 5691 2113 
L 5691 0 
L 5113 0 
L 5113 2094 
Q 5113 2597 4934 2840 
Q 4756 3084 4391 3084 
Q 3944 3084 3684 2787 
Q 3425 2491 3425 1978 
L 3425 0 
L 2847 0 
L 2847 2094 
Q 2847 2600 2669 2842 
Q 2491 3084 2119 3084 
Q 1678 3084 1418 2786 
Q 1159 2488 1159 1978 
L 1159 0 
L 581 0 
L 581 3500 
L 1159 3500 
L 1159 2956 
Q 1356 3278 1631 3431 
Q 1906 3584 2284 3584 
Q 2666 3584 2933 3390 
Q 3200 3197 3328 2828 
z
" transform="scale(0.015625)"/>
      <path id="DejaVuSans-62" d="M 3116 1747 
Q 3116 2381 2855 2742 
Q 2594 3103 2138 3103 
Q 1681 3103 1420 2742 
Q 1159 2381 1159 1747 
Q 1159 1113 1420 752 
Q 1681 391 2138 391 
Q 2594 391 2855 752 
Q 3116 1113 3116 1747 
z
M 1159 2969 
Q 1341 3281 1617 3432 
Q 1894 3584 2278 3584 
Q 2916 3584 3314 3078 
Q 3713 2572 3713 1747 
Q 3713 922 3314 415 
Q 2916 -91 2278 -91 
Q 1894 -91 1617 61 
Q 1341 213 1159 525 
L 1159 0 
L 581 0 
L 581 4863 
L 1159 4863 
L 1159 2969 
z
" transform="scale(0.015625)"/>
      <path id="DejaVuSans-76" d="M 191 3500 
L 800 3500 
L 1894 563 
L 2988 3500 
L 3597 3500 
L 2284 0 
L 1503 0 
L 191 3500 
z
" transform="scale(0.015625)"/>
      <path id="DejaVuSans-6f" d="M 1959 3097 
Q 1497 3097 1228 2736 
Q 959 2375 959 1747 
Q 959 1119 1226 758 
Q 1494 397 1959 397 
Q 2419 397 2687 759 
Q 2956 1122 2956 1747 
Q 2956 2369 2687 2733 
Q 2419 3097 1959 3097 
z
M 1959 3584 
Q 2709 3584 3137 3096 
Q 3566 2609 3566 1747 
Q 3566 888 3137 398 
Q 2709 -91 1959 -91 
Q 1206 -91 779 398 
Q 353 888 353 1747 
Q 353 2609 779 3096 
Q 1206 3584 1959 3584 
z
" transform="scale(0.015625)"/>
      <path id="DejaVuSans-75" d="M 544 1381 
L 544 3500 
L 1119 3500 
L 1119 1403 
Q 1119 906 1312 657 
Q 1506 409 1894 409 
Q 2359 409 2629 706 
Q 2900 1003 2900 1516 
L 2900 3500 
L 3475 3500 
L 3475 0 
L 2900 0 
L 2900 538 
Q 2691 219 2414 64 
Q 2138 -91 1772 -91 
Q 1169 -91 856 284 
Q 544 659 544 1381 
z
M 1991 3584 
L 1991 3584 
z
" transform="scale(0.015625)"/>
      <path id="DejaVuSans-6c" d="M 603 4863 
L 1178 4863 
L 1178 0 
L 603 0 
L 603 4863 
z
" transform="scale(0.015625)"/>
      <path id="DejaVuSans-74" d="M 1172 4494 
L 1172 3500 
L 2356 3500 
L 2356 3053 
L 1172 3053 
L 1172 1153 
Q 1172 725 1289 603 
Q 1406 481 1766 481 
L 2356 481 
L 2356 0 
L 1766 0 
Q 1100 0 847 248 
Q 594 497 594 1153 
L 594 3053 
L 172 3053 
L 172 3500 
L 594 3500 
L 594 4494 
L 1172 4494 
z
" transform="scale(0.015625)"/>
      <path id="DejaVuSans-69" d="M 603 3500 
L 1178 3500 
L 1178 0 
L 603 0 
L 603 3500 
z
M 603 4863 
L 1178 4863 
L 1178 4134 
L 603 4134 
L 603 4863 
z
" transform="scale(0.015625)"/>
      <path id="DejaVuSans-6e" d="M 3513 2113 
L 3513 0 
L 2938 0 
L 2938 2094 
Q 2938 2591 2744 2837 
Q 2550 3084 2163 3084 
Q 1697 3084 1428 2787 
Q 1159 2491 1159 1978 
L 1159 0 
L 581 0 
L 581 3500 
L 1159 3500 
L 1159 2956 
Q 1366 3272 1645 3428 
Q 1925 3584 2291 3584 
Q 2894 3584 3203 3211 
Q 3513 2838 3513 2113 
z
" transform="scale(0.015625)"/>
      <path id="DejaVuSans-63" d="M 3122 3366 
L 3122 2828 
Q 2878 2963 2633 3030 
Q 2388 3097 2138 3097 
Q 1578 3097 1268 2742 
Q 959 2388 959 1747 
Q 959 1106 1268 751 
Q 1578 397 2138 397 
Q 2388 397 2633 464 
Q 2878 531 3122 666 
L 3122 134 
Q 2881 22 2623 -34 
Q 2366 -91 2075 -91 
Q 1284 -91 818 406 
Q 353 903 353 1747 
Q 353 2603 823 3093 
Q 1294 3584 2113 3584 
Q 2378 3584 2631 3529 
Q 2884 3475 3122 3366 
z
" transform="scale(0.015625)"/>
      <path id="DejaVuSans-68" d="M 3513 2113 
L 3513 0 
L 2938 0 
L 2938 2094 
Q 2938 2591 2744 2837 
Q 2550 3084 2163 3084 
Q 1697 3084 1428 2787 
Q 1159 2491 1159 1978 
L 1159 0 
L 581 0 
L 581 4863 
L 1159 4863 
L 1159 2956 
Q 1366 3272 1645 3428 
Q 1925 3584 2291 3584 
Q 2894 3584 3203 3211 
Q 3513 2838 3513 2113 
z
" transform="scale(0.015625)"/>
      <path id="DejaVuSans-67" d="M 2906 1791 
Q 2906 2416 2648 2759 
Q 2391 3103 1925 3103 
Q 1463 3103 1205 2759 
Q 947 2416 947 1791 
Q 947 1169 1205 825 
Q 1463 481 1925 481 
Q 2391 481 2648 825 
Q 2906 1169 2906 1791 
z
M 3481 434 
Q 3481 -459 3084 -895 
Q 2688 -1331 1869 -1331 
Q 1566 -1331 1297 -1286 
Q 1028 -1241 775 -1147 
L 775 -588 
Q 1028 -725 1275 -790 
Q 1522 -856 1778 -856 
Q 2344 -856 2625 -561 
Q 2906 -266 2906 331 
L 2906 616 
Q 2728 306 2450 153 
Q 2172 0 1784 0 
Q 1141 0 747 490 
Q 353 981 353 1791 
Q 353 2603 747 3093 
Q 1141 3584 1784 3584 
Q 2172 3584 2450 3431 
Q 2728 3278 2906 2969 
L 2906 3500 
L 3481 3500 
L 3481 434 
z
" transform="scale(0.015625)"/>
      <path id="DejaVuSans-65" d="M 3597 1894 
L 3597 1613 
L 953 1613 
Q 991 1019 1311 708 
Q 1631 397 2203 397 
Q 2534 397 2845 478 
Q 3156 559 3463 722 
L 3463 178 
Q 3153 47 2828 -22 
Q 2503 -91 2169 -91 
Q 1331 -91 842 396 
Q 353 884 353 1716 
Q 353 2575 817 3079 
Q 1281 3584 2069 3584 
Q 2775 3584 3186 3129 
Q 3597 2675 3597 1894 
z
M 3022 2063 
Q 3016 2534 2758 2815 
Q 2500 3097 2075 3097 
Q 1594 3097 1305 2825 
Q 1016 2553 972 2059 
L 3022 2063 
z
" transform="scale(0.015625)"/>
      <path id="DejaVuSans-64" d="M 2906 2969 
L 2906 4863 
L 3481 4863 
L 3481 0 
L 2906 0 
L 2906 525 
Q 2725 213 2448 61 
Q 2172 -91 1784 -91 
Q 1150 -91 751 415 
Q 353 922 353 1747 
Q 353 2572 751 3078 
Q 1150 3584 1784 3584 
Q 2172 3584 2448 3432 
Q 2725 3281 2906 2969 
z
M 947 1747 
Q 947 1113 1208 752 
Q 1469 391 1925 391 
Q 2381 391 2643 752 
Q 2906 1113 2906 1747 
Q 2906 2381 2643 2742 
Q 2381 3103 1925 3103 
Q 1469 3103 1208 2742 
Q 947 2381 947 1747 
z
" transform="scale(0.015625)"/>
      <path id="DejaVuSans-73" d="M 2834 3397 
L 2834 2853 
Q 2591 2978 2328 3040 
Q 2066 3103 1784 3103 
Q 1356 3103 1142 2972 
Q 928 2841 928 2578 
Q 928 2378 1081 2264 
Q 1234 2150 1697 2047 
L 1894 2003 
Q 2506 1872 2764 1633 
Q 3022 1394 3022 966 
Q 3022 478 2636 193 
Q 2250 -91 1575 -91 
Q 1294 -91 989 -36 
Q 684 19 347 128 
L 347 722 
Q 666 556 975 473 
Q 1284 391 1588 391 
Q 1994 391 2212 530 
Q 2431 669 2431 922 
Q 2431 1156 2273 1281 
Q 2116 1406 1581 1522 
L 1381 1569 
Q 847 1681 609 1914 
Q 372 2147 372 2553 
Q 372 3047 722 3315 
Q 1072 3584 1716 3584 
Q 2034 3584 2315 3537 
Q 2597 3491 2834 3397 
z
" transform="scale(0.015625)"/>
     </defs>
     <use xlink:href="#DejaVuSans-53"/>
     <use xlink:href="#DejaVuSans-61" x="63.476562"/>
     <use xlink:href="#DejaVuSans-6d" x="124.755859"/>
     <use xlink:href="#DejaVuSans-62" x="222.167969"/>
     <use xlink:href="#DejaVuSans-61" x="285.644531"/>
     <use xlink:href="#DejaVuSans-76" x="346.923828"/>
     <use xlink:href="#DejaVuSans-61" x="406.103516"/>
     <use xlink:href="#DejaVuSans-20" x="467.382812"/>
     <use xlink:href="#DejaVuSans-2d" x="499.169922"/>
     <use xlink:href="#DejaVuSans-20" x="535.253906"/>
     <use xlink:href="#DejaVuSans-70" x="567.041016"/>
     <use xlink:href="#DejaVuSans-6f" x="630.517578"/>
     <use xlink:href="#DejaVuSans-70" x="691.699219"/>
     <use xlink:href="#DejaVuSans-75" x="755.175781"/>
     <use xlink:href="#DejaVuSans-6c" x="818.554688"/>
     <use xlink:href="#DejaVuSans-61" x="846.337891"/>
     <use xlink:href="#DejaVuSans-74" x="907.617188"/>
     <use xlink:href="#DejaVuSans-69" x="946.826172"/>
     <use xlink:href="#DejaVuSans-6f" x="974.609375"/>
     <use xlink:href="#DejaVuSans-6e" x="1035.791016"/>
     <use xlink:href="#DejaVuSans-20" x="1099.169922"/>
     <use xlink:href="#DejaVuSans-63" x="1130.957031"/>
     <use xlink:href="#DejaVuSans-68" x="1185.9375"/>
     <use xlink:href="#DejaVuSans-61" x="1249.316406"/>
     <use xlink:href="#DejaVuSans-6e" x="1310.595703"/>
     <use xlink:href="#DejaVuSans-67" x="1373.974609"/>
     <use xlink:href="#DejaVuSans-65" x="1437.451172"/>
     <use xlink:href="#DejaVuSans-20" x="1498.974609"/>
     <use xlink:href="#DejaVuSans-74" x="1530.761719"/>
     <use xlink:href="#DejaVuSans-72" x="1569.970703"/>
     <use xlink:href="#DejaVuSans-65" x="1608.833984"/>
     <use xlink:href="#DejaVuSans-6e" x="1670.357422"/>
     <use xlink:href="#DejaVuSans-64" x="1733.736328"/>
     <use xlink:href="#DejaVuSans-73" x="1797.212891"/>
    </g>
   </g>
  </g>
 </g>
 <defs>
  <clipPath id="p504f753ec1">
   <rect x="40.034375" y="22.318125" width="301.645881" height="162.60375"/>
  </clipPath>
 </defs>
</svg>
