<?xml version="1.0" encoding="utf-8" standalone="no"?>
<!DOCTYPE svg PUBLIC "-//W3C//DTD SVG 1.1//EN"
  "http://www.w3.org/Graphics/SVG/1.1/DTD/svg11.dtd">
<svg xmlns:xlink="http://www.w3.org/1999/xlink" width="351.770642pt" height="208.8pt" viewBox="0 0 351.770642 208.8" xmlns="http://www.w3.org/2000/svg" version="1.1">
 <metadata>
  <rdf:RDF xmlns:dc="http://purl.org/dc/elements/1.1/" xmlns:cc="http://creativecommons.org/ns#" xmlns:rdf="http://www.w3.org/1999/02/22-rdf-syntax-ns#">
   <cc:Work>
    <dc:type rdf:resource="http://purl.org/dc/dcmitype/StillImage"/>
    <dc:date>2024-04-11T09:32:58.873639</dc:date>
    <dc:format>image/svg+xml</dc:format>
    <dc:creator>
     <cc:Agent>
      <dc:title>Matplotlib v3.8.3, https://matplotlib.org/</dc:title>
     </cc:Agent>
    </dc:creator>
   </cc:Work>
  </rdf:RDF>
 </metadata>
 <defs>
  <style type="text/css">*{stroke-linejoin: round; stroke-linecap: butt}</style>
 </defs>
 <g id="figure_1">
  <g id="patch_1">
   <path d="M 0 208.8 
L 351.770642 208.8 
L 351.770642 0 
L 0 0 
L 0 208.8 
z
" style="fill: none"/>
  </g>
  <g id="axes_1">
   <g id="patch_2">
    <path d="M 40.034375 184.921875 
L 341.680256 184.921875 
L 341.680256 22.318125 
L 40.034375 22.318125 
L 40.034375 184.921875 
z
" style="fill: none; opacity: 0"/>
   </g>
   <g id="PolyCollection_1"/>
   <g id="PolyCollection_2">
    <defs>
     <path id="m1b66ea5db4" d="M 53.745551 -80.789438 
L 53.745551 -80.789438 
L 54.662687 -74.964955 
L 55.579822 -69.635538 
L 56.496958 -64.784165 
L 57.414094 -60.393813 
L 58.331229 -56.44746 
L 59.248365 -52.928082 
L 60.1655 -49.818658 
L 61.082636 -47.102165 
L 61.999771 -44.76158 
L 62.916907 -42.779881 
L 63.834042 -41.140046 
L 64.751178 -39.825051 
L 65.668313 -38.817875 
L 66.585449 -38.101495 
L 67.502585 -37.658889 
L 68.41972 -37.473033 
L 69.336856 -37.526906 
L 70.253991 -37.803484 
L 71.171127 -38.285746 
L 72.088262 -38.956669 
L 73.005398 -39.799231 
L 73.922533 -40.796408 
L 74.839669 -41.931178 
L 75.756804 -43.18652 
L 76.67394 -44.54541 
L 77.591076 -45.990826 
L 78.508211 -47.505745 
L 79.425347 -49.073145 
L 80.342482 -50.676004 
L 81.259618 -52.297298 
L 82.176753 -53.920006 
L 83.093889 -55.527105 
L 84.011024 -57.101572 
L 84.92816 -58.626384 
L 85.845295 -60.084521 
L 86.762431 -61.458958 
L 87.679567 -62.732673 
L 88.596702 -63.888644 
L 89.513838 -64.909849 
L 90.430973 -65.779264 
L 91.348109 -66.479868 
L 92.265244 -66.994638 
L 93.18238 -67.306698 
L 94.099515 -67.412 
L 95.016651 -67.329092 
L 95.933786 -67.078825 
L 96.850922 -66.682047 
L 97.768058 -66.159609 
L 98.685193 -65.532358 
L 99.602329 -64.821146 
L 100.519464 -64.04682 
L 101.4366 -63.230231 
L 102.353735 -62.392228 
L 103.270871 -61.55366 
L 104.188006 -60.735377 
L 105.105142 -59.958228 
L 106.022277 -59.243063 
L 106.939413 -58.61073 
L 107.856549 -58.08208 
L 108.773684 -57.677961 
L 109.69082 -57.419224 
L 110.607955 -57.326717 
L 111.525091 -57.421289 
L 112.442226 -57.723792 
L 113.359362 -58.249892 
L 114.276497 -58.989573 
L 115.193633 -59.924867 
L 116.110768 -61.037805 
L 117.027904 -62.310418 
L 117.94504 -63.724737 
L 118.862175 -65.262793 
L 119.779311 -66.906617 
L 120.696446 -68.63824 
L 121.613582 -70.439692 
L 122.530717 -72.293005 
L 123.447853 -74.180209 
L 124.364988 -76.083335 
L 125.282124 -77.984415 
L 126.199259 -79.865479 
L 127.116395 -81.708558 
L 128.033531 -83.495683 
L 128.950666 -85.208885 
L 129.867802 -86.830195 
L 130.784937 -88.341643 
L 131.702073 -89.725262 
L 132.619208 -90.963799 
L 133.536344 -92.052067 
L 134.453479 -92.994887 
L 135.370615 -93.797385 
L 136.28775 -94.464685 
L 137.204886 -95.001912 
L 138.122022 -95.414191 
L 139.039157 -95.706646 
L 139.956293 -95.884402 
L 140.873428 -95.952583 
L 141.790564 -95.916315 
L 142.707699 -95.780723 
L 143.624835 -95.55093 
L 144.54197 -95.232062 
L 145.459106 -94.829243 
L 146.376241 -94.347598 
L 147.293377 -93.792252 
L 148.210513 -93.16833 
L 149.127648 -92.480956 
L 150.044784 -91.735254 
L 150.961919 -90.936351 
L 151.879055 -90.089378 
L 152.79619 -89.200887 
L 153.713326 -88.280475 
L 154.630461 -87.338131 
L 155.547597 -86.383843 
L 156.464732 -85.4276 
L 157.381868 -84.479392 
L 158.299004 -83.549207 
L 159.216139 -82.647035 
L 160.133275 -81.782864 
L 161.05041 -80.966683 
L 161.967546 -80.208482 
L 162.884681 -79.518249 
L 163.801817 -78.905973 
L 164.718952 -78.381643 
L 165.636088 -77.955249 
L 166.553223 -77.636779 
L 167.470359 -77.436222 
L 168.387494 -77.363568 
L 169.30463 -77.428804 
L 170.221766 -77.641921 
L 171.138901 -78.012907 
L 172.056037 -78.549037 
L 172.973172 -79.240837 
L 173.890308 -80.072449 
L 174.807443 -81.028002 
L 175.724579 -82.091627 
L 176.641714 -83.247454 
L 177.55885 -84.479612 
L 178.475985 -85.772232 
L 179.393121 -87.109442 
L 180.310257 -88.475374 
L 181.227392 -89.854156 
L 182.144528 -91.22992 
L 183.061663 -92.586793 
L 183.978799 -93.908907 
L 184.895934 -95.180391 
L 185.81307 -96.385376 
L 186.730205 -97.50799 
L 187.647341 -98.532364 
L 188.564476 -99.442628 
L 189.481612 -100.222911 
L 190.398748 -100.857343 
L 191.315883 -101.330631 
L 192.233019 -101.640719 
L 193.150154 -101.798795 
L 194.06729 -101.816621 
L 194.984425 -101.705959 
L 195.901561 -101.478571 
L 196.818696 -101.146221 
L 197.735832 -100.720669 
L 198.652967 -100.213679 
L 199.570103 -99.637013 
L 200.487239 -99.002432 
L 201.404374 -98.3217 
L 202.32151 -97.606579 
L 203.238645 -96.868831 
L 204.155781 -96.120218 
L 205.072916 -95.372502 
L 205.990052 -94.637447 
L 206.907187 -93.926814 
L 207.824323 -93.252365 
L 208.741458 -92.625863 
L 209.658594 -92.05907 
L 210.57573 -91.563741 
L 211.492865 -91.147415 
L 212.410001 -90.806577 
L 213.327136 -90.535921 
L 214.244272 -90.33014 
L 215.161407 -90.183926 
L 216.078543 -90.091973 
L 216.995678 -90.048973 
L 217.912814 -90.049621 
L 218.829949 -90.088608 
L 219.747085 -90.160629 
L 220.664221 -90.260375 
L 221.581356 -90.382541 
L 222.498492 -90.521819 
L 223.415627 -90.672902 
L 224.332763 -90.830484 
L 225.249898 -90.989257 
L 226.167034 -91.143915 
L 227.084169 -91.28915 
L 228.001305 -91.419656 
L 228.91844 -91.530126 
L 229.835576 -91.615253 
L 230.752712 -91.670317 
L 231.669847 -91.69514 
L 232.586983 -91.691666 
L 233.504118 -91.661849 
L 234.421254 -91.607642 
L 235.338389 -91.530999 
L 236.255525 -91.433875 
L 237.17266 -91.318224 
L 238.089796 -91.185999 
L 239.006931 -91.039156 
L 239.924067 -90.879647 
L 240.841203 -90.709428 
L 241.758338 -90.530451 
L 242.675474 -90.344673 
L 243.592609 -90.154045 
L 244.509745 -89.960523 
L 245.42688 -89.766061 
L 246.344016 -89.572612 
L 247.261151 -89.382132 
L 248.178287 -89.196573 
L 249.095422 -89.01789 
L 250.012558 -88.848023 
L 250.929694 -88.688422 
L 251.846829 -88.539953 
L 252.763965 -88.403443 
L 253.6811 -88.279722 
L 254.598236 -88.169618 
L 255.515371 -88.07396 
L 256.432507 -87.993578 
L 257.349642 -87.9293 
L 258.266778 -87.881954 
L 259.183913 -87.852371 
L 260.101049 -87.841378 
L 261.018185 -87.849804 
L 261.93532 -87.878479 
L 262.852456 -87.928231 
L 263.769591 -87.99989 
L 264.686727 -88.094283 
L 265.603862 -88.21224 
L 266.520998 -88.35459 
L 267.438133 -88.522161 
L 268.355269 -88.715783 
L 269.272404 -88.936284 
L 270.18954 -89.183757 
L 271.106676 -89.455915 
L 272.023811 -89.749993 
L 272.940947 -90.063225 
L 273.858082 -90.392845 
L 274.775218 -90.736088 
L 275.692353 -91.090187 
L 276.609489 -91.452377 
L 277.526624 -91.819891 
L 278.44376 -92.189965 
L 279.360895 -92.559833 
L 280.278031 -92.926728 
L 281.195167 -93.287884 
L 282.112302 -93.640537 
L 283.029438 -93.98192 
L 283.946573 -94.309267 
L 284.863709 -94.619812 
L 285.780844 -94.91079 
L 286.69798 -95.179435 
L 287.615115 -95.422982 
L 288.532251 -95.638663 
L 289.449386 -95.823946 
L 290.366522 -95.978576 
L 291.283657 -96.103592 
L 292.200793 -96.200047 
L 293.117929 -96.268997 
L 294.035064 -96.311494 
L 294.9522 -96.328593 
L 295.869335 -96.321347 
L 296.786471 -96.290811 
L 297.703606 -96.238038 
L 298.620742 -96.164082 
L 299.537877 -96.069997 
L 300.455013 -95.956838 
L 301.372148 -95.825657 
L 302.289284 -95.67751 
L 303.20642 -95.513449 
L 304.123555 -95.334529 
L 305.040691 -95.141804 
L 305.957826 -94.936327 
L 306.874962 -94.719153 
L 307.792097 -94.491335 
L 308.709233 -94.253927 
L 309.626368 -94.007984 
L 310.543504 -93.754558 
L 311.460639 -93.494705 
L 312.377775 -93.229478 
L 313.294911 -92.95993 
L 314.212046 -92.687116 
L 315.129182 -92.41209 
L 316.046317 -92.135906 
L 316.963453 -91.859617 
L 317.880588 -91.584278 
L 318.797724 -91.310942 
L 319.714859 -91.040663 
L 320.631995 -90.774495 
L 321.54913 -90.513492 
L 322.466266 -90.258709 
L 323.383402 -90.011198 
L 324.300537 -89.772014 
L 325.217673 -89.542211 
L 326.134808 -89.322842 
L 327.051944 -89.114963 
L 327.969079 -88.919625 
L 327.969079 -88.919625 
L 327.969079 -105.18 
L 327.051944 -105.18 
L 326.134808 -105.18 
L 325.217673 -105.18 
L 324.300537 -105.18 
L 323.383402 -105.18 
L 322.466266 -105.18 
L 321.54913 -105.18 
L 320.631995 -105.18 
L 319.714859 -105.18 
L 318.797724 -105.18 
L 317.880588 -105.18 
L 316.963453 -105.18 
L 316.046317 -105.18 
L 315.129182 -105.18 
L 314.212046 -105.18 
L 313.294911 -105.18 
L 312.377775 -105.18 
L 311.460639 -105.18 
L 310.543504 -105.18 
L 309.626368 -105.18 
L 308.709233 -105.18 
L 307.792097 -105.18 
L 306.874962 -105.18 
L 305.957826 -105.18 
L 305.040691 -105.18 
L 304.123555 -105.18 
L 303.20642 -105.18 
L 302.289284 -105.18 
L 301.372148 -105.18 
L 300.455013 -105.18 
L 299.537877 -105.18 
L 298.620742 -105.18 
L 297.703606 -105.18 
L 296.786471 -105.18 
L 295.869335 -105.18 
L 294.9522 -105.18 
L 294.035064 -105.18 
L 293.117929 -105.18 
L 292.200793 -105.18 
L 291.283657 -105.18 
L 290.366522 -105.18 
L 289.449386 -105.18 
L 288.532251 -105.18 
L 287.615115 -105.18 
L 286.69798 -105.18 
L 285.780844 -105.18 
L 284.863709 -105.18 
L 283.946573 -105.18 
L 283.029438 -105.18 
L 282.112302 -105.18 
L 281.195167 -105.18 
L 280.278031 -105.18 
L 279.360895 -105.18 
L 278.44376 -105.18 
L 277.526624 -105.18 
L 276.609489 -105.18 
L 275.692353 -105.18 
L 274.775218 -105.18 
L 273.858082 -105.18 
L 272.940947 -105.18 
L 272.023811 -105.18 
L 271.106676 -105.18 
L 270.18954 -105.18 
L 269.272404 -105.18 
L 268.355269 -105.18 
L 267.438133 -105.18 
L 266.520998 -105.18 
L 265.603862 -105.18 
L 264.686727 -105.18 
L 263.769591 -105.18 
L 262.852456 -105.18 
L 261.93532 -105.18 
L 261.018185 -105.18 
L 260.101049 -105.18 
L 259.183913 -105.18 
L 258.266778 -105.18 
L 257.349642 -105.18 
L 256.432507 -105.18 
L 255.515371 -105.18 
L 254.598236 -105.18 
L 253.6811 -105.18 
L 252.763965 -105.18 
L 251.846829 -105.18 
L 250.929694 -105.18 
L 250.012558 -105.18 
L 249.095422 -105.18 
L 248.178287 -105.18 
L 247.261151 -105.18 
L 246.344016 -105.18 
L 245.42688 -105.18 
L 244.509745 -105.18 
L 243.592609 -105.18 
L 242.675474 -105.18 
L 241.758338 -105.18 
L 240.841203 -105.18 
L 239.924067 -105.18 
L 239.006931 -105.18 
L 238.089796 -105.18 
L 237.17266 -105.18 
L 236.255525 -105.18 
L 235.338389 -105.18 
L 234.421254 -105.18 
L 233.504118 -105.18 
L 232.586983 -105.18 
L 231.669847 -105.18 
L 230.752712 -105.18 
L 229.835576 -105.18 
L 228.91844 -105.18 
L 228.001305 -105.18 
L 227.084169 -105.18 
L 226.167034 -105.18 
L 225.249898 -105.18 
L 224.332763 -105.18 
L 223.415627 -105.18 
L 222.498492 -105.18 
L 221.581356 -105.18 
L 220.664221 -105.18 
L 219.747085 -105.18 
L 218.829949 -105.18 
L 217.912814 -105.18 
L 216.995678 -105.18 
L 216.078543 -105.18 
L 215.161407 -105.18 
L 214.244272 -105.18 
L 213.327136 -105.18 
L 212.410001 -105.18 
L 211.492865 -105.18 
L 210.57573 -105.18 
L 209.658594 -105.18 
L 208.741458 -105.18 
L 207.824323 -105.18 
L 206.907187 -105.18 
L 205.990052 -105.18 
L 205.072916 -105.18 
L 204.155781 -105.18 
L 203.238645 -105.18 
L 202.32151 -105.18 
L 201.404374 -105.18 
L 200.487239 -105.18 
L 199.570103 -105.18 
L 198.652967 -105.18 
L 197.735832 -105.18 
L 196.818696 -105.18 
L 195.901561 -105.18 
L 194.984425 -105.18 
L 194.06729 -105.18 
L 193.150154 -105.18 
L 192.233019 -105.18 
L 191.315883 -105.18 
L 190.398748 -105.18 
L 189.481612 -105.18 
L 188.564476 -105.18 
L 187.647341 -105.18 
L 186.730205 -105.18 
L 185.81307 -105.18 
L 184.895934 -105.18 
L 183.978799 -105.18 
L 183.061663 -105.18 
L 182.144528 -105.18 
L 181.227392 -105.18 
L 180.310257 -105.18 
L 179.393121 -105.18 
L 178.475985 -105.18 
L 177.55885 -105.18 
L 176.641714 -105.18 
L 175.724579 -105.18 
L 174.807443 -105.18 
L 173.890308 -105.18 
L 172.973172 -105.18 
L 172.056037 -105.18 
L 171.138901 -105.18 
L 170.221766 -105.18 
L 169.30463 -105.18 
L 168.387494 -105.18 
L 167.470359 -105.18 
L 166.553223 -105.18 
L 165.636088 -105.18 
L 164.718952 -105.18 
L 163.801817 -105.18 
L 162.884681 -105.18 
L 161.967546 -105.18 
L 161.05041 -105.18 
L 160.133275 -105.18 
L 159.216139 -105.18 
L 158.299004 -105.18 
L 157.381868 -105.18 
L 156.464732 -105.18 
L 155.547597 -105.18 
L 154.630461 -105.18 
L 153.713326 -105.18 
L 152.79619 -105.18 
L 151.879055 -105.18 
L 150.961919 -105.18 
L 150.044784 -105.18 
L 149.127648 -105.18 
L 148.210513 -105.18 
L 147.293377 -105.18 
L 146.376241 -105.18 
L 145.459106 -105.18 
L 144.54197 -105.18 
L 143.624835 -105.18 
L 142.707699 -105.18 
L 141.790564 -105.18 
L 140.873428 -105.18 
L 139.956293 -105.18 
L 139.039157 -105.18 
L 138.122022 -105.18 
L 137.204886 -105.18 
L 136.28775 -105.18 
L 135.370615 -105.18 
L 134.453479 -105.18 
L 133.536344 -105.18 
L 132.619208 -105.18 
L 131.702073 -105.18 
L 130.784937 -105.18 
L 129.867802 -105.18 
L 128.950666 -105.18 
L 128.033531 -105.18 
L 127.116395 -105.18 
L 126.199259 -105.18 
L 125.282124 -105.18 
L 124.364988 -105.18 
L 123.447853 -105.18 
L 122.530717 -105.18 
L 121.613582 -105.18 
L 120.696446 -105.18 
L 119.779311 -105.18 
L 118.862175 -105.18 
L 117.94504 -105.18 
L 117.027904 -105.18 
L 116.110768 -105.18 
L 115.193633 -105.18 
L 114.276497 -105.18 
L 113.359362 -105.18 
L 112.442226 -105.18 
L 111.525091 -105.18 
L 110.607955 -105.18 
L 109.69082 -105.18 
L 108.773684 -105.18 
L 107.856549 -105.18 
L 106.939413 -105.18 
L 106.022277 -105.18 
L 105.105142 -105.18 
L 104.188006 -105.18 
L 103.270871 -105.18 
L 102.353735 -105.18 
L 101.4366 -105.18 
L 100.519464 -105.18 
L 99.602329 -105.18 
L 98.685193 -105.18 
L 97.768058 -105.18 
L 96.850922 -105.18 
L 95.933786 -105.18 
L 95.016651 -105.18 
L 94.099515 -105.18 
L 93.18238 -105.18 
L 92.265244 -105.18 
L 91.348109 -105.18 
L 90.430973 -105.18 
L 89.513838 -105.18 
L 88.596702 -105.18 
L 87.679567 -105.18 
L 86.762431 -105.18 
L 85.845295 -105.18 
L 84.92816 -105.18 
L 84.011024 -105.18 
L 83.093889 -105.18 
L 82.176753 -105.18 
L 81.259618 -105.18 
L 80.342482 -105.18 
L 79.425347 -105.18 
L 78.508211 -105.18 
L 77.591076 -105.18 
L 76.67394 -105.18 
L 75.756804 -105.18 
L 74.839669 -105.18 
L 73.922533 -105.18 
L 73.005398 -105.18 
L 72.088262 -105.18 
L 71.171127 -105.18 
L 70.253991 -105.18 
L 69.336856 -105.18 
L 68.41972 -105.18 
L 67.502585 -105.18 
L 66.585449 -105.18 
L 65.668313 -105.18 
L 64.751178 -105.18 
L 63.834042 -105.18 
L 62.916907 -105.18 
L 61.999771 -105.18 
L 61.082636 -105.18 
L 60.1655 -105.18 
L 59.248365 -105.18 
L 58.331229 -105.18 
L 57.414094 -105.18 
L 56.496958 -105.18 
L 55.579822 -105.18 
L 54.662687 -105.18 
L 53.745551 -105.18 
z
" style="stroke: #ed6b4d; stroke-opacity: 0.1"/>
    </defs>
    <g clip-path="url(#pbd8ec85964)">
     <use xlink:href="#m1b66ea5db4" x="0" y="208.8" style="fill: #ed6b4d; fill-opacity: 0.1; stroke: #ed6b4d; stroke-opacity: 0.1"/>
    </g>
   </g>
   <g id="line2d_1">
    <defs>
     <path id="mf83cff280e" d="M 0 3 
C 0.795609 3 1.55874 2.683901 2.12132 2.12132 
C 2.683901 1.55874 3 0.795609 3 0 
C 3 -0.795609 2.683901 -1.55874 2.12132 -2.12132 
C 1.55874 -2.683901 0.795609 -3 0 -3 
C -0.795609 -3 -1.55874 -2.683901 -2.12132 -2.12132 
C -2.683901 -1.55874 -3 -0.795609 -3 0 
C -3 0.795609 -2.683901 1.55874 -2.12132 2.12132 
C -1.55874 2.683901 -0.795609 3 0 3 
z
" style="stroke: #0035a0"/>
    </defs>
    <g clip-path="url(#pbd8ec85964)">
     <use xlink:href="#mf83cff280e" x="53.745551" y="128.010562" style="fill: #0035a0; stroke: #0035a0"/>
     <use xlink:href="#mf83cff280e" x="73.332946" y="168.6615" style="fill: #0035a0; stroke: #0035a0"/>
     <use xlink:href="#mf83cff280e" x="92.920341" y="141.560875" style="fill: #0035a0; stroke: #0035a0"/>
     <use xlink:href="#mf83cff280e" x="112.507736" y="151.046094" style="fill: #0035a0; stroke: #0035a0"/>
     <use xlink:href="#mf83cff280e" x="132.095131" y="118.525344" style="fill: #0035a0; stroke: #0035a0"/>
     <use xlink:href="#mf83cff280e" x="151.682526" y="118.525344" style="fill: #0035a0; stroke: #0035a0"/>
     <use xlink:href="#mf83cff280e" x="171.26992" y="130.720625" style="fill: #0035a0; stroke: #0035a0"/>
     <use xlink:href="#mf83cff280e" x="190.857315" y="107.685094" style="fill: #0035a0; stroke: #0035a0"/>
     <use xlink:href="#mf83cff280e" x="210.44471" y="117.170312" style="fill: #0035a0; stroke: #0035a0"/>
     <use xlink:href="#mf83cff280e" x="230.032105" y="117.170312" style="fill: #0035a0; stroke: #0035a0"/>
     <use xlink:href="#mf83cff280e" x="249.6195" y="119.880375" style="fill: #0035a0; stroke: #0035a0"/>
     <use xlink:href="#mf83cff280e" x="269.206895" y="119.880375" style="fill: #0035a0; stroke: #0035a0"/>
     <use xlink:href="#mf83cff280e" x="288.79429" y="113.105219" style="fill: #0035a0; stroke: #0035a0"/>
     <use xlink:href="#mf83cff280e" x="308.381684" y="114.46025" style="fill: #0035a0; stroke: #0035a0"/>
     <use xlink:href="#mf83cff280e" x="327.969079" y="119.880375" style="fill: #0035a0; stroke: #0035a0"/>
    </g>
   </g>
   <g id="line2d_2">
    <path d="M 40.034375 103.62 
L 341.680256 103.62 
" clip-path="url(#pbd8ec85964)" style="fill: none; stroke: #808080; stroke-width: 0.8; stroke-linecap: square"/>
   </g>
   <g id="matplotlib.axis_1">
    <g id="xtick_1">
     <g id="line2d_3">
      <defs>
       <path id="m69e563b92b" d="M 0 0 
L 0 3.5 
" style="stroke: #000000; stroke-width: 0.8"/>
      </defs>
      <g>
       <use xlink:href="#m69e563b92b" x="53.745551" y="184.921875" style="stroke: #000000; stroke-width: 0.8"/>
      </g>
     </g>
     <g id="text_1">
      <!-- 26 Mar -->
      <g transform="translate(36.360395 199.520312) scale(0.1 -0.1)">
       <defs>
        <path id="DejaVuSans-32" d="M 1228 531 
L 3431 531 
L 3431 0 
L 469 0 
L 469 531 
Q 828 903 1448 1529 
Q 2069 2156 2228 2338 
Q 2531 2678 2651 2914 
Q 2772 3150 2772 3378 
Q 2772 3750 2511 3984 
Q 2250 4219 1831 4219 
Q 1534 4219 1204 4116 
Q 875 4013 500 3803 
L 500 4441 
Q 881 4594 1212 4672 
Q 1544 4750 1819 4750 
Q 2544 4750 2975 4387 
Q 3406 4025 3406 3419 
Q 3406 3131 3298 2873 
Q 3191 2616 2906 2266 
Q 2828 2175 2409 1742 
Q 1991 1309 1228 531 
z
" transform="scale(0.015625)"/>
        <path id="DejaVuSans-36" d="M 2113 2584 
Q 1688 2584 1439 2293 
Q 1191 2003 1191 1497 
Q 1191 994 1439 701 
Q 1688 409 2113 409 
Q 2538 409 2786 701 
Q 3034 994 3034 1497 
Q 3034 2003 2786 2293 
Q 2538 2584 2113 2584 
z
M 3366 4563 
L 3366 3988 
Q 3128 4100 2886 4159 
Q 2644 4219 2406 4219 
Q 1781 4219 1451 3797 
Q 1122 3375 1075 2522 
Q 1259 2794 1537 2939 
Q 1816 3084 2150 3084 
Q 2853 3084 3261 2657 
Q 3669 2231 3669 1497 
Q 3669 778 3244 343 
Q 2819 -91 2113 -91 
Q 1303 -91 875 529 
Q 447 1150 447 2328 
Q 447 3434 972 4092 
Q 1497 4750 2381 4750 
Q 2619 4750 2861 4703 
Q 3103 4656 3366 4563 
z
" transform="scale(0.015625)"/>
        <path id="DejaVuSans-20" transform="scale(0.015625)"/>
        <path id="DejaVuSans-4d" d="M 628 4666 
L 1569 4666 
L 2759 1491 
L 3956 4666 
L 4897 4666 
L 4897 0 
L 4281 0 
L 4281 4097 
L 3078 897 
L 2444 897 
L 1241 4097 
L 1241 0 
L 628 0 
L 628 4666 
z
" transform="scale(0.015625)"/>
        <path id="DejaVuSans-61" d="M 2194 1759 
Q 1497 1759 1228 1600 
Q 959 1441 959 1056 
Q 959 750 1161 570 
Q 1363 391 1709 391 
Q 2188 391 2477 730 
Q 2766 1069 2766 1631 
L 2766 1759 
L 2194 1759 
z
M 3341 1997 
L 3341 0 
L 2766 0 
L 2766 531 
Q 2569 213 2275 61 
Q 1981 -91 1556 -91 
Q 1019 -91 701 211 
Q 384 513 384 1019 
Q 384 1609 779 1909 
Q 1175 2209 1959 2209 
L 2766 2209 
L 2766 2266 
Q 2766 2663 2505 2880 
Q 2244 3097 1772 3097 
Q 1472 3097 1187 3025 
Q 903 2953 641 2809 
L 641 3341 
Q 956 3463 1253 3523 
Q 1550 3584 1831 3584 
Q 2591 3584 2966 3190 
Q 3341 2797 3341 1997 
z
" transform="scale(0.015625)"/>
        <path id="DejaVuSans-72" d="M 2631 2963 
Q 2534 3019 2420 3045 
Q 2306 3072 2169 3072 
Q 1681 3072 1420 2755 
Q 1159 2438 1159 1844 
L 1159 0 
L 581 0 
L 581 3500 
L 1159 3500 
L 1159 2956 
Q 1341 3275 1631 3429 
Q 1922 3584 2338 3584 
Q 2397 3584 2469 3576 
Q 2541 3569 2628 3553 
L 2631 2963 
z
" transform="scale(0.015625)"/>
       </defs>
       <use xlink:href="#DejaVuSans-32"/>
       <use xlink:href="#DejaVuSans-36" x="63.623047"/>
       <use xlink:href="#DejaVuSans-20" x="127.246094"/>
       <use xlink:href="#DejaVuSans-4d" x="159.033203"/>
       <use xlink:href="#DejaVuSans-61" x="245.3125"/>
       <use xlink:href="#DejaVuSans-72" x="306.591797"/>
      </g>
     </g>
    </g>
    <g id="xtick_2">
     <g id="line2d_4">
      <g>
       <use xlink:href="#m69e563b92b" x="92.920341" y="184.921875" style="stroke: #000000; stroke-width: 0.8"/>
      </g>
     </g>
     <g id="text_2">
      <!-- 28 Mar -->
      <g transform="translate(75.535185 199.520312) scale(0.1 -0.1)">
       <defs>
        <path id="DejaVuSans-38" d="M 2034 2216 
Q 1584 2216 1326 1975 
Q 1069 1734 1069 1313 
Q 1069 891 1326 650 
Q 1584 409 2034 409 
Q 2484 409 2743 651 
Q 3003 894 3003 1313 
Q 3003 1734 2745 1975 
Q 2488 2216 2034 2216 
z
M 1403 2484 
Q 997 2584 770 2862 
Q 544 3141 544 3541 
Q 544 4100 942 4425 
Q 1341 4750 2034 4750 
Q 2731 4750 3128 4425 
Q 3525 4100 3525 3541 
Q 3525 3141 3298 2862 
Q 3072 2584 2669 2484 
Q 3125 2378 3379 2068 
Q 3634 1759 3634 1313 
Q 3634 634 3220 271 
Q 2806 -91 2034 -91 
Q 1263 -91 848 271 
Q 434 634 434 1313 
Q 434 1759 690 2068 
Q 947 2378 1403 2484 
z
M 1172 3481 
Q 1172 3119 1398 2916 
Q 1625 2713 2034 2713 
Q 2441 2713 2670 2916 
Q 2900 3119 2900 3481 
Q 2900 3844 2670 4047 
Q 2441 4250 2034 4250 
Q 1625 4250 1398 4047 
Q 1172 3844 1172 3481 
z
" transform="scale(0.015625)"/>
       </defs>
       <use xlink:href="#DejaVuSans-32"/>
       <use xlink:href="#DejaVuSans-38" x="63.623047"/>
       <use xlink:href="#DejaVuSans-20" x="127.246094"/>
       <use xlink:href="#DejaVuSans-4d" x="159.033203"/>
       <use xlink:href="#DejaVuSans-61" x="245.3125"/>
       <use xlink:href="#DejaVuSans-72" x="306.591797"/>
      </g>
     </g>
    </g>
    <g id="xtick_3">
     <g id="line2d_5">
      <g>
       <use xlink:href="#m69e563b92b" x="132.095131" y="184.921875" style="stroke: #000000; stroke-width: 0.8"/>
      </g>
     </g>
     <g id="text_3">
      <!-- 30 Mar -->
      <g transform="translate(114.709975 199.520312) scale(0.1 -0.1)">
       <defs>
        <path id="DejaVuSans-33" d="M 2597 2516 
Q 3050 2419 3304 2112 
Q 3559 1806 3559 1356 
Q 3559 666 3084 287 
Q 2609 -91 1734 -91 
Q 1441 -91 1130 -33 
Q 819 25 488 141 
L 488 750 
Q 750 597 1062 519 
Q 1375 441 1716 441 
Q 2309 441 2620 675 
Q 2931 909 2931 1356 
Q 2931 1769 2642 2001 
Q 2353 2234 1838 2234 
L 1294 2234 
L 1294 2753 
L 1863 2753 
Q 2328 2753 2575 2939 
Q 2822 3125 2822 3475 
Q 2822 3834 2567 4026 
Q 2313 4219 1838 4219 
Q 1578 4219 1281 4162 
Q 984 4106 628 3988 
L 628 4550 
Q 988 4650 1302 4700 
Q 1616 4750 1894 4750 
Q 2613 4750 3031 4423 
Q 3450 4097 3450 3541 
Q 3450 3153 3228 2886 
Q 3006 2619 2597 2516 
z
" transform="scale(0.015625)"/>
        <path id="DejaVuSans-30" d="M 2034 4250 
Q 1547 4250 1301 3770 
Q 1056 3291 1056 2328 
Q 1056 1369 1301 889 
Q 1547 409 2034 409 
Q 2525 409 2770 889 
Q 3016 1369 3016 2328 
Q 3016 3291 2770 3770 
Q 2525 4250 2034 4250 
z
M 2034 4750 
Q 2819 4750 3233 4129 
Q 3647 3509 3647 2328 
Q 3647 1150 3233 529 
Q 2819 -91 2034 -91 
Q 1250 -91 836 529 
Q 422 1150 422 2328 
Q 422 3509 836 4129 
Q 1250 4750 2034 4750 
z
" transform="scale(0.015625)"/>
       </defs>
       <use xlink:href="#DejaVuSans-33"/>
       <use xlink:href="#DejaVuSans-30" x="63.623047"/>
       <use xlink:href="#DejaVuSans-20" x="127.246094"/>
       <use xlink:href="#DejaVuSans-4d" x="159.033203"/>
       <use xlink:href="#DejaVuSans-61" x="245.3125"/>
       <use xlink:href="#DejaVuSans-72" x="306.591797"/>
      </g>
     </g>
    </g>
    <g id="xtick_4">
     <g id="line2d_6">
      <g>
       <use xlink:href="#m69e563b92b" x="171.26992" y="184.921875" style="stroke: #000000; stroke-width: 0.8"/>
      </g>
     </g>
     <g id="text_4">
      <!-- 01 Apr -->
      <g transform="translate(154.668358 199.520312) scale(0.1 -0.1)">
       <defs>
        <path id="DejaVuSans-31" d="M 794 531 
L 1825 531 
L 1825 4091 
L 703 3866 
L 703 4441 
L 1819 4666 
L 2450 4666 
L 2450 531 
L 3481 531 
L 3481 0 
L 794 0 
L 794 531 
z
" transform="scale(0.015625)"/>
        <path id="DejaVuSans-41" d="M 2188 4044 
L 1331 1722 
L 3047 1722 
L 2188 4044 
z
M 1831 4666 
L 2547 4666 
L 4325 0 
L 3669 0 
L 3244 1197 
L 1141 1197 
L 716 0 
L 50 0 
L 1831 4666 
z
" transform="scale(0.015625)"/>
        <path id="DejaVuSans-70" d="M 1159 525 
L 1159 -1331 
L 581 -1331 
L 581 3500 
L 1159 3500 
L 1159 2969 
Q 1341 3281 1617 3432 
Q 1894 3584 2278 3584 
Q 2916 3584 3314 3078 
Q 3713 2572 3713 1747 
Q 3713 922 3314 415 
Q 2916 -91 2278 -91 
Q 1894 -91 1617 61 
Q 1341 213 1159 525 
z
M 3116 1747 
Q 3116 2381 2855 2742 
Q 2594 3103 2138 3103 
Q 1681 3103 1420 2742 
Q 1159 2381 1159 1747 
Q 1159 1113 1420 752 
Q 1681 391 2138 391 
Q 2594 391 2855 752 
Q 3116 1113 3116 1747 
z
" transform="scale(0.015625)"/>
       </defs>
       <use xlink:href="#DejaVuSans-30"/>
       <use xlink:href="#DejaVuSans-31" x="63.623047"/>
       <use xlink:href="#DejaVuSans-20" x="127.246094"/>
       <use xlink:href="#DejaVuSans-41" x="159.033203"/>
       <use xlink:href="#DejaVuSans-70" x="227.441406"/>
       <use xlink:href="#DejaVuSans-72" x="290.917969"/>
      </g>
     </g>
    </g>
    <g id="xtick_5">
     <g id="line2d_7">
      <g>
       <use xlink:href="#m69e563b92b" x="210.44471" y="184.921875" style="stroke: #000000; stroke-width: 0.8"/>
      </g>
     </g>
     <g id="text_5">
      <!-- 03 Apr -->
      <g transform="translate(193.843148 199.520312) scale(0.1 -0.1)">
       <use xlink:href="#DejaVuSans-30"/>
       <use xlink:href="#DejaVuSans-33" x="63.623047"/>
       <use xlink:href="#DejaVuSans-20" x="127.246094"/>
       <use xlink:href="#DejaVuSans-41" x="159.033203"/>
       <use xlink:href="#DejaVuSans-70" x="227.441406"/>
       <use xlink:href="#DejaVuSans-72" x="290.917969"/>
      </g>
     </g>
    </g>
    <g id="xtick_6">
     <g id="line2d_8">
      <g>
       <use xlink:href="#m69e563b92b" x="249.6195" y="184.921875" style="stroke: #000000; stroke-width: 0.8"/>
      </g>
     </g>
     <g id="text_6">
      <!-- 05 Apr -->
      <g transform="translate(233.017937 199.520312) scale(0.1 -0.1)">
       <defs>
        <path id="DejaVuSans-35" d="M 691 4666 
L 3169 4666 
L 3169 4134 
L 1269 4134 
L 1269 2991 
Q 1406 3038 1543 3061 
Q 1681 3084 1819 3084 
Q 2600 3084 3056 2656 
Q 3513 2228 3513 1497 
Q 3513 744 3044 326 
Q 2575 -91 1722 -91 
Q 1428 -91 1123 -41 
Q 819 9 494 109 
L 494 744 
Q 775 591 1075 516 
Q 1375 441 1709 441 
Q 2250 441 2565 725 
Q 2881 1009 2881 1497 
Q 2881 1984 2565 2268 
Q 2250 2553 1709 2553 
Q 1456 2553 1204 2497 
Q 953 2441 691 2322 
L 691 4666 
z
" transform="scale(0.015625)"/>
       </defs>
       <use xlink:href="#DejaVuSans-30"/>
       <use xlink:href="#DejaVuSans-35" x="63.623047"/>
       <use xlink:href="#DejaVuSans-20" x="127.246094"/>
       <use xlink:href="#DejaVuSans-41" x="159.033203"/>
       <use xlink:href="#DejaVuSans-70" x="227.441406"/>
       <use xlink:href="#DejaVuSans-72" x="290.917969"/>
      </g>
     </g>
    </g>
    <g id="xtick_7">
     <g id="line2d_9">
      <g>
       <use xlink:href="#m69e563b92b" x="288.79429" y="184.921875" style="stroke: #000000; stroke-width: 0.8"/>
      </g>
     </g>
     <g id="text_7">
      <!-- 07 Apr -->
      <g transform="translate(272.192727 199.520312) scale(0.1 -0.1)">
       <defs>
        <path id="DejaVuSans-37" d="M 525 4666 
L 3525 4666 
L 3525 4397 
L 1831 0 
L 1172 0 
L 2766 4134 
L 525 4134 
L 525 4666 
z
" transform="scale(0.015625)"/>
       </defs>
       <use xlink:href="#DejaVuSans-30"/>
       <use xlink:href="#DejaVuSans-37" x="63.623047"/>
       <use xlink:href="#DejaVuSans-20" x="127.246094"/>
       <use xlink:href="#DejaVuSans-41" x="159.033203"/>
       <use xlink:href="#DejaVuSans-70" x="227.441406"/>
       <use xlink:href="#DejaVuSans-72" x="290.917969"/>
      </g>
     </g>
    </g>
    <g id="xtick_8">
     <g id="line2d_10">
      <g>
       <use xlink:href="#m69e563b92b" x="327.969079" y="184.921875" style="stroke: #000000; stroke-width: 0.8"/>
      </g>
     </g>
     <g id="text_8">
      <!-- 09 Apr -->
      <g transform="translate(311.367517 199.520312) scale(0.1 -0.1)">
       <defs>
        <path id="DejaVuSans-39" d="M 703 97 
L 703 672 
Q 941 559 1184 500 
Q 1428 441 1663 441 
Q 2288 441 2617 861 
Q 2947 1281 2994 2138 
Q 2813 1869 2534 1725 
Q 2256 1581 1919 1581 
Q 1219 1581 811 2004 
Q 403 2428 403 3163 
Q 403 3881 828 4315 
Q 1253 4750 1959 4750 
Q 2769 4750 3195 4129 
Q 3622 3509 3622 2328 
Q 3622 1225 3098 567 
Q 2575 -91 1691 -91 
Q 1453 -91 1209 -44 
Q 966 3 703 97 
z
M 1959 2075 
Q 2384 2075 2632 2365 
Q 2881 2656 2881 3163 
Q 2881 3666 2632 3958 
Q 2384 4250 1959 4250 
Q 1534 4250 1286 3958 
Q 1038 3666 1038 3163 
Q 1038 2656 1286 2365 
Q 1534 2075 1959 2075 
z
" transform="scale(0.015625)"/>
       </defs>
       <use xlink:href="#DejaVuSans-30"/>
       <use xlink:href="#DejaVuSans-39" x="63.623047"/>
       <use xlink:href="#DejaVuSans-20" x="127.246094"/>
       <use xlink:href="#DejaVuSans-41" x="159.033203"/>
       <use xlink:href="#DejaVuSans-70" x="227.441406"/>
       <use xlink:href="#DejaVuSans-72" x="290.917969"/>
      </g>
     </g>
    </g>
   </g>
   <g id="matplotlib.axis_2">
    <g id="ytick_1">
     <g id="text_9">
      <!-- -50% -->
      <g transform="translate(7.2 175.170781) scale(0.1 -0.1)">
       <defs>
        <path id="DejaVuSans-2d" d="M 313 2009 
L 1997 2009 
L 1997 1497 
L 313 1497 
L 313 2009 
z
" transform="scale(0.015625)"/>
        <path id="DejaVuSans-25" d="M 4653 2053 
Q 4381 2053 4226 1822 
Q 4072 1591 4072 1178 
Q 4072 772 4226 539 
Q 4381 306 4653 306 
Q 4919 306 5073 539 
Q 5228 772 5228 1178 
Q 5228 1588 5073 1820 
Q 4919 2053 4653 2053 
z
M 4653 2450 
Q 5147 2450 5437 2106 
Q 5728 1763 5728 1178 
Q 5728 594 5436 251 
Q 5144 -91 4653 -91 
Q 4153 -91 3862 251 
Q 3572 594 3572 1178 
Q 3572 1766 3864 2108 
Q 4156 2450 4653 2450 
z
M 1428 4353 
Q 1159 4353 1004 4120 
Q 850 3888 850 3481 
Q 850 3069 1003 2837 
Q 1156 2606 1428 2606 
Q 1700 2606 1854 2837 
Q 2009 3069 2009 3481 
Q 2009 3884 1853 4118 
Q 1697 4353 1428 4353 
z
M 4250 4750 
L 4750 4750 
L 1831 -91 
L 1331 -91 
L 4250 4750 
z
M 1428 4750 
Q 1922 4750 2215 4408 
Q 2509 4066 2509 3481 
Q 2509 2891 2217 2550 
Q 1925 2209 1428 2209 
Q 931 2209 642 2551 
Q 353 2894 353 3481 
Q 353 4063 643 4406 
Q 934 4750 1428 4750 
z
" transform="scale(0.015625)"/>
       </defs>
       <use xlink:href="#DejaVuSans-2d"/>
       <use xlink:href="#DejaVuSans-35" x="36.083984"/>
       <use xlink:href="#DejaVuSans-30" x="99.707031"/>
       <use xlink:href="#DejaVuSans-25" x="163.330078"/>
      </g>
     </g>
    </g>
    <g id="ytick_2">
     <g id="text_10">
      <!-- -25% -->
      <g transform="translate(7.2 141.295) scale(0.1 -0.1)">
       <use xlink:href="#DejaVuSans-2d"/>
       <use xlink:href="#DejaVuSans-32" x="36.083984"/>
       <use xlink:href="#DejaVuSans-35" x="99.707031"/>
       <use xlink:href="#DejaVuSans-25" x="163.330078"/>
      </g>
     </g>
    </g>
    <g id="ytick_3">
     <g id="text_11">
      <!-- 0% -->
      <g transform="translate(17.170313 107.419219) scale(0.1 -0.1)">
       <use xlink:href="#DejaVuSans-30"/>
       <use xlink:href="#DejaVuSans-25" x="63.623047"/>
      </g>
     </g>
    </g>
    <g id="ytick_4">
     <g id="text_12">
      <!-- 25% -->
      <g transform="translate(10.807813 73.543437) scale(0.1 -0.1)">
       <use xlink:href="#DejaVuSans-32"/>
       <use xlink:href="#DejaVuSans-35" x="63.623047"/>
       <use xlink:href="#DejaVuSans-25" x="127.246094"/>
      </g>
     </g>
    </g>
    <g id="ytick_5">
     <g id="text_13">
      <!-- 50% -->
      <g transform="translate(10.807813 39.667656) scale(0.1 -0.1)">
       <use xlink:href="#DejaVuSans-35"/>
       <use xlink:href="#DejaVuSans-30" x="63.623047"/>
       <use xlink:href="#DejaVuSans-25" x="127.246094"/>
      </g>
     </g>
    </g>
   </g>
   <g id="line2d_11">
    <path d="M 53.745551 128.010562 
L 55.579822 139.164462 
L 57.414094 148.406187 
L 59.248365 155.871918 
L 60.1655 158.981342 
L 61.082636 161.697835 
L 61.999771 164.03842 
L 62.916907 166.020119 
L 63.834042 167.659954 
L 64.751178 168.974949 
L 65.668313 169.982125 
L 66.585449 170.698505 
L 67.502585 171.141111 
L 68.41972 171.326967 
L 69.336856 171.273094 
L 70.253991 170.996516 
L 71.171127 170.514254 
L 72.088262 169.843331 
L 73.005398 169.000769 
L 74.839669 166.868822 
L 76.67394 164.25459 
L 79.425347 159.726855 
L 85.845295 148.715479 
L 87.679567 146.067327 
L 89.513838 143.890151 
L 90.430973 143.020736 
L 91.348109 142.320132 
L 92.265244 141.805362 
L 93.18238 141.493302 
L 94.099515 141.388 
L 95.016651 141.470908 
L 95.933786 141.721175 
L 96.850922 142.117953 
L 98.685193 143.267642 
L 100.519464 144.75318 
L 106.022277 149.556937 
L 107.856549 150.71792 
L 108.773684 151.122039 
L 109.69082 151.380776 
L 110.607955 151.473283 
L 111.525091 151.378711 
L 112.442226 151.076208 
L 113.359362 150.550108 
L 114.276497 149.810427 
L 115.193633 148.875133 
L 117.027904 146.489582 
L 118.862175 143.537207 
L 120.696446 140.16176 
L 124.364988 132.716665 
L 128.033531 125.304317 
L 129.867802 121.969805 
L 131.702073 119.074738 
L 133.536344 116.747933 
L 135.370615 115.002615 
L 137.204886 113.798088 
L 139.039157 113.093354 
L 140.873428 112.847417 
L 142.707699 113.019277 
L 144.54197 113.567938 
L 146.376241 114.452402 
L 148.210513 115.63167 
L 150.044784 117.064746 
L 152.79619 119.599113 
L 161.05041 127.833317 
L 162.884681 129.281751 
L 164.718952 130.418357 
L 166.553223 131.163221 
L 167.470359 131.363778 
L 168.387494 131.436432 
L 169.30463 131.371196 
L 170.221766 131.158079 
L 171.138901 130.787093 
L 172.056037 130.250963 
L 172.973172 129.559163 
L 174.807443 127.771998 
L 176.641714 125.552546 
L 179.393121 121.690558 
L 184.895934 113.619609 
L 186.730205 111.29201 
L 188.564476 109.357372 
L 190.398748 107.942657 
L 191.315883 107.469369 
L 192.233019 107.159281 
L 193.150154 107.001205 
L 194.06729 106.983379 
L 194.984425 107.094041 
L 196.818696 107.653779 
L 198.652967 108.586321 
L 200.487239 109.797568 
L 203.238645 111.931169 
L 207.824323 115.547635 
L 209.658594 116.74093 
L 211.492865 117.652585 
L 213.327136 118.264079 
L 215.161407 118.616074 
L 216.995678 118.751027 
L 219.747085 118.639371 
L 222.498492 118.278181 
L 228.91844 117.269874 
L 231.669847 117.10486 
L 234.421254 117.192358 
L 237.17266 117.481776 
L 240.841203 118.090572 
L 253.6811 120.520278 
L 257.349642 120.8707 
L 261.018185 120.950196 
L 263.769591 120.80011 
L 266.520998 120.44541 
L 269.272404 119.863716 
L 272.023811 119.050007 
L 275.692353 117.709813 
L 284.863709 114.180188 
L 287.615115 113.377018 
L 290.366522 112.821424 
L 293.117929 112.531003 
L 295.869335 112.478653 
L 298.620742 112.635918 
L 302.289284 113.12249 
L 305.957826 113.863673 
L 310.543504 115.045442 
L 319.714859 117.759337 
L 325.217673 119.257789 
L 327.969079 119.880375 
L 327.969079 119.880375 
" clip-path="url(#pbd8ec85964)" style="fill: none; stroke: #0035a0; stroke-width: 3; stroke-linecap: round"/>
   </g>
   <g id="text_14">
    <!-- Sambava - population change trends -->
    <g transform="translate(79.897628 16.318125) scale(0.12 -0.12)">
     <defs>
      <path id="DejaVuSans-53" d="M 3425 4513 
L 3425 3897 
Q 3066 4069 2747 4153 
Q 2428 4238 2131 4238 
Q 1616 4238 1336 4038 
Q 1056 3838 1056 3469 
Q 1056 3159 1242 3001 
Q 1428 2844 1947 2747 
L 2328 2669 
Q 3034 2534 3370 2195 
Q 3706 1856 3706 1288 
Q 3706 609 3251 259 
Q 2797 -91 1919 -91 
Q 1588 -91 1214 -16 
Q 841 59 441 206 
L 441 856 
Q 825 641 1194 531 
Q 1563 422 1919 422 
Q 2459 422 2753 634 
Q 3047 847 3047 1241 
Q 3047 1584 2836 1778 
Q 2625 1972 2144 2069 
L 1759 2144 
Q 1053 2284 737 2584 
Q 422 2884 422 3419 
Q 422 4038 858 4394 
Q 1294 4750 2059 4750 
Q 2388 4750 2728 4690 
Q 3069 4631 3425 4513 
z
" transform="scale(0.015625)"/>
      <path id="DejaVuSans-6d" d="M 3328 2828 
Q 3544 3216 3844 3400 
Q 4144 3584 4550 3584 
Q 5097 3584 5394 3201 
Q 5691 2819 5691 2113 
L 5691 0 
L 5113 0 
L 5113 2094 
Q 5113 2597 4934 2840 
Q 4756 3084 4391 3084 
Q 3944 3084 3684 2787 
Q 3425 2491 3425 1978 
L 3425 0 
L 2847 0 
L 2847 2094 
Q 2847 2600 2669 2842 
Q 2491 3084 2119 3084 
Q 1678 3084 1418 2786 
Q 1159 2488 1159 1978 
L 1159 0 
L 581 0 
L 581 3500 
L 1159 3500 
L 1159 2956 
Q 1356 3278 1631 3431 
Q 1906 3584 2284 3584 
Q 2666 3584 2933 3390 
Q 3200 3197 3328 2828 
z
" transform="scale(0.015625)"/>
      <path id="DejaVuSans-62" d="M 3116 1747 
Q 3116 2381 2855 2742 
Q 2594 3103 2138 3103 
Q 1681 3103 1420 2742 
Q 1159 2381 1159 1747 
Q 1159 1113 1420 752 
Q 1681 391 2138 391 
Q 2594 391 2855 752 
Q 3116 1113 3116 1747 
z
M 1159 2969 
Q 1341 3281 1617 3432 
Q 1894 3584 2278 3584 
Q 2916 3584 3314 3078 
Q 3713 2572 3713 1747 
Q 3713 922 3314 415 
Q 2916 -91 2278 -91 
Q 1894 -91 1617 61 
Q 1341 213 1159 525 
L 1159 0 
L 581 0 
L 581 4863 
L 1159 4863 
L 1159 2969 
z
" transform="scale(0.015625)"/>
      <path id="DejaVuSans-76" d="M 191 3500 
L 800 3500 
L 1894 563 
L 2988 3500 
L 3597 3500 
L 2284 0 
L 1503 0 
L 191 3500 
z
" transform="scale(0.015625)"/>
      <path id="DejaVuSans-6f" d="M 1959 3097 
Q 1497 3097 1228 2736 
Q 959 2375 959 1747 
Q 959 1119 1226 758 
Q 1494 397 1959 397 
Q 2419 397 2687 759 
Q 2956 1122 2956 1747 
Q 2956 2369 2687 2733 
Q 2419 3097 1959 3097 
z
M 1959 3584 
Q 2709 3584 3137 3096 
Q 3566 2609 3566 1747 
Q 3566 888 3137 398 
Q 2709 -91 1959 -91 
Q 1206 -91 779 398 
Q 353 888 353 1747 
Q 353 2609 779 3096 
Q 1206 3584 1959 3584 
z
" transform="scale(0.015625)"/>
      <path id="DejaVuSans-75" d="M 544 1381 
L 544 3500 
L 1119 3500 
L 1119 1403 
Q 1119 906 1312 657 
Q 1506 409 1894 409 
Q 2359 409 2629 706 
Q 2900 1003 2900 1516 
L 2900 3500 
L 3475 3500 
L 3475 0 
L 2900 0 
L 2900 538 
Q 2691 219 2414 64 
Q 2138 -91 1772 -91 
Q 1169 -91 856 284 
Q 544 659 544 1381 
z
M 1991 3584 
L 1991 3584 
z
" transform="scale(0.015625)"/>
      <path id="DejaVuSans-6c" d="M 603 4863 
L 1178 4863 
L 1178 0 
L 603 0 
L 603 4863 
z
" transform="scale(0.015625)"/>
      <path id="DejaVuSans-74" d="M 1172 4494 
L 1172 3500 
L 2356 3500 
L 2356 3053 
L 1172 3053 
L 1172 1153 
Q 1172 725 1289 603 
Q 1406 481 1766 481 
L 2356 481 
L 2356 0 
L 1766 0 
Q 1100 0 847 248 
Q 594 497 594 1153 
L 594 3053 
L 172 3053 
L 172 3500 
L 594 3500 
L 594 4494 
L 1172 4494 
z
" transform="scale(0.015625)"/>
      <path id="DejaVuSans-69" d="M 603 3500 
L 1178 3500 
L 1178 0 
L 603 0 
L 603 3500 
z
M 603 4863 
L 1178 4863 
L 1178 4134 
L 603 4134 
L 603 4863 
z
" transform="scale(0.015625)"/>
      <path id="DejaVuSans-6e" d="M 3513 2113 
L 3513 0 
L 2938 0 
L 2938 2094 
Q 2938 2591 2744 2837 
Q 2550 3084 2163 3084 
Q 1697 3084 1428 2787 
Q 1159 2491 1159 1978 
L 1159 0 
L 581 0 
L 581 3500 
L 1159 3500 
L 1159 2956 
Q 1366 3272 1645 3428 
Q 1925 3584 2291 3584 
Q 2894 3584 3203 3211 
Q 3513 2838 3513 2113 
z
" transform="scale(0.015625)"/>
      <path id="DejaVuSans-63" d="M 3122 3366 
L 3122 2828 
Q 2878 2963 2633 3030 
Q 2388 3097 2138 3097 
Q 1578 3097 1268 2742 
Q 959 2388 959 1747 
Q 959 1106 1268 751 
Q 1578 397 2138 397 
Q 2388 397 2633 464 
Q 2878 531 3122 666 
L 3122 134 
Q 2881 22 2623 -34 
Q 2366 -91 2075 -91 
Q 1284 -91 818 406 
Q 353 903 353 1747 
Q 353 2603 823 3093 
Q 1294 3584 2113 3584 
Q 2378 3584 2631 3529 
Q 2884 3475 3122 3366 
z
" transform="scale(0.015625)"/>
      <path id="DejaVuSans-68" d="M 3513 2113 
L 3513 0 
L 2938 0 
L 2938 2094 
Q 2938 2591 2744 2837 
Q 2550 3084 2163 3084 
Q 1697 3084 1428 2787 
Q 1159 2491 1159 1978 
L 1159 0 
L 581 0 
L 581 4863 
L 1159 4863 
L 1159 2956 
Q 1366 3272 1645 3428 
Q 1925 3584 2291 3584 
Q 2894 3584 3203 3211 
Q 3513 2838 3513 2113 
z
" transform="scale(0.015625)"/>
      <path id="DejaVuSans-67" d="M 2906 1791 
Q 2906 2416 2648 2759 
Q 2391 3103 1925 3103 
Q 1463 3103 1205 2759 
Q 947 2416 947 1791 
Q 947 1169 1205 825 
Q 1463 481 1925 481 
Q 2391 481 2648 825 
Q 2906 1169 2906 1791 
z
M 3481 434 
Q 3481 -459 3084 -895 
Q 2688 -1331 1869 -1331 
Q 1566 -1331 1297 -1286 
Q 1028 -1241 775 -1147 
L 775 -588 
Q 1028 -725 1275 -790 
Q 1522 -856 1778 -856 
Q 2344 -856 2625 -561 
Q 2906 -266 2906 331 
L 2906 616 
Q 2728 306 2450 153 
Q 2172 0 1784 0 
Q 1141 0 747 490 
Q 353 981 353 1791 
Q 353 2603 747 3093 
Q 1141 3584 1784 3584 
Q 2172 3584 2450 3431 
Q 2728 3278 2906 2969 
L 2906 3500 
L 3481 3500 
L 3481 434 
z
" transform="scale(0.015625)"/>
      <path id="DejaVuSans-65" d="M 3597 1894 
L 3597 1613 
L 953 1613 
Q 991 1019 1311 708 
Q 1631 397 2203 397 
Q 2534 397 2845 478 
Q 3156 559 3463 722 
L 3463 178 
Q 3153 47 2828 -22 
Q 2503 -91 2169 -91 
Q 1331 -91 842 396 
Q 353 884 353 1716 
Q 353 2575 817 3079 
Q 1281 3584 2069 3584 
Q 2775 3584 3186 3129 
Q 3597 2675 3597 1894 
z
M 3022 2063 
Q 3016 2534 2758 2815 
Q 2500 3097 2075 3097 
Q 1594 3097 1305 2825 
Q 1016 2553 972 2059 
L 3022 2063 
z
" transform="scale(0.015625)"/>
      <path id="DejaVuSans-64" d="M 2906 2969 
L 2906 4863 
L 3481 4863 
L 3481 0 
L 2906 0 
L 2906 525 
Q 2725 213 2448 61 
Q 2172 -91 1784 -91 
Q 1150 -91 751 415 
Q 353 922 353 1747 
Q 353 2572 751 3078 
Q 1150 3584 1784 3584 
Q 2172 3584 2448 3432 
Q 2725 3281 2906 2969 
z
M 947 1747 
Q 947 1113 1208 752 
Q 1469 391 1925 391 
Q 2381 391 2643 752 
Q 2906 1113 2906 1747 
Q 2906 2381 2643 2742 
Q 2381 3103 1925 3103 
Q 1469 3103 1208 2742 
Q 947 2381 947 1747 
z
" transform="scale(0.015625)"/>
      <path id="DejaVuSans-73" d="M 2834 3397 
L 2834 2853 
Q 2591 2978 2328 3040 
Q 2066 3103 1784 3103 
Q 1356 3103 1142 2972 
Q 928 2841 928 2578 
Q 928 2378 1081 2264 
Q 1234 2150 1697 2047 
L 1894 2003 
Q 2506 1872 2764 1633 
Q 3022 1394 3022 966 
Q 3022 478 2636 193 
Q 2250 -91 1575 -91 
Q 1294 -91 989 -36 
Q 684 19 347 128 
L 347 722 
Q 666 556 975 473 
Q 1284 391 1588 391 
Q 1994 391 2212 530 
Q 2431 669 2431 922 
Q 2431 1156 2273 1281 
Q 2116 1406 1581 1522 
L 1381 1569 
Q 847 1681 609 1914 
Q 372 2147 372 2553 
Q 372 3047 722 3315 
Q 1072 3584 1716 3584 
Q 2034 3584 2315 3537 
Q 2597 3491 2834 3397 
z
" transform="scale(0.015625)"/>
     </defs>
     <use xlink:href="#DejaVuSans-53"/>
     <use xlink:href="#DejaVuSans-61" x="63.476562"/>
     <use xlink:href="#DejaVuSans-6d" x="124.755859"/>
     <use xlink:href="#DejaVuSans-62" x="222.167969"/>
     <use xlink:href="#DejaVuSans-61" x="285.644531"/>
     <use xlink:href="#DejaVuSans-76" x="346.923828"/>
     <use xlink:href="#DejaVuSans-61" x="406.103516"/>
     <use xlink:href="#DejaVuSans-20" x="467.382812"/>
     <use xlink:href="#DejaVuSans-2d" x="499.169922"/>
     <use xlink:href="#DejaVuSans-20" x="535.253906"/>
     <use xlink:href="#DejaVuSans-70" x="567.041016"/>
     <use xlink:href="#DejaVuSans-6f" x="630.517578"/>
     <use xlink:href="#DejaVuSans-70" x="691.699219"/>
     <use xlink:href="#DejaVuSans-75" x="755.175781"/>
     <use xlink:href="#DejaVuSans-6c" x="818.554688"/>
     <use xlink:href="#DejaVuSans-61" x="846.337891"/>
     <use xlink:href="#DejaVuSans-74" x="907.617188"/>
     <use xlink:href="#DejaVuSans-69" x="946.826172"/>
     <use xlink:href="#DejaVuSans-6f" x="974.609375"/>
     <use xlink:href="#DejaVuSans-6e" x="1035.791016"/>
     <use xlink:href="#DejaVuSans-20" x="1099.169922"/>
     <use xlink:href="#DejaVuSans-63" x="1130.957031"/>
     <use xlink:href="#DejaVuSans-68" x="1185.9375"/>
     <use xlink:href="#DejaVuSans-61" x="1249.316406"/>
     <use xlink:href="#DejaVuSans-6e" x="1310.595703"/>
     <use xlink:href="#DejaVuSans-67" x="1373.974609"/>
     <use xlink:href="#DejaVuSans-65" x="1437.451172"/>
     <use xlink:href="#DejaVuSans-20" x="1498.974609"/>
     <use xlink:href="#DejaVuSans-74" x="1530.761719"/>
     <use xlink:href="#DejaVuSans-72" x="1569.970703"/>
     <use xlink:href="#DejaVuSans-65" x="1608.833984"/>
     <use xlink:href="#DejaVuSans-6e" x="1670.357422"/>
     <use xlink:href="#DejaVuSans-64" x="1733.736328"/>
     <use xlink:href="#DejaVuSans-73" x="1797.212891"/>
    </g>
   </g>
  </g>
 </g>
 <defs>
  <clipPath id="pbd8ec85964">
   <rect x="40.034375" y="22.318125" width="301.645881" height="162.60375"/>
  </clipPath>
 </defs>
</svg>
