<?xml version="1.0" encoding="utf-8" standalone="no"?>
<!DOCTYPE svg PUBLIC "-//W3C//DTD SVG 1.1//EN"
  "http://www.w3.org/Graphics/SVG/1.1/DTD/svg11.dtd">
<svg xmlns:xlink="http://www.w3.org/1999/xlink" width="352.8pt" height="208.8pt" viewBox="0 0 352.8 208.8" xmlns="http://www.w3.org/2000/svg" version="1.1">
 <metadata>
  <rdf:RDF xmlns:dc="http://purl.org/dc/elements/1.1/" xmlns:cc="http://creativecommons.org/ns#" xmlns:rdf="http://www.w3.org/1999/02/22-rdf-syntax-ns#">
   <cc:Work>
    <dc:type rdf:resource="http://purl.org/dc/dcmitype/StillImage"/>
    <dc:date>2024-04-05T16:47:13.122397</dc:date>
    <dc:format>image/svg+xml</dc:format>
    <dc:creator>
     <cc:Agent>
      <dc:title>Matplotlib v3.8.3, https://matplotlib.org/</dc:title>
     </cc:Agent>
    </dc:creator>
   </cc:Work>
  </rdf:RDF>
 </metadata>
 <defs>
  <style type="text/css">*{stroke-linejoin: round; stroke-linecap: butt}</style>
 </defs>
 <g id="figure_1">
  <g id="patch_1">
   <path d="M 0 208.8 
L 352.8 208.8 
L 352.8 0 
L 0 0 
L 0 208.8 
z
" style="fill: none"/>
  </g>
  <g id="axes_1">
   <g id="patch_2">
    <path d="M 40.034375 184.921875 
L 345.6 184.921875 
L 345.6 22.318125 
L 40.034375 22.318125 
L 40.034375 184.921875 
z
" style="fill: none; opacity: 0"/>
   </g>
   <g id="PolyCollection_1"/>
   <g id="PolyCollection_2">
    <defs>
     <path id="ma1fc5af3b6" d="M 53.923722 -80.789438 
L 53.923722 -80.789438 
L 54.852775 -76.987321 
L 55.781828 -73.392318 
L 56.710881 -69.999907 
L 57.639935 -66.805565 
L 58.568988 -63.80477 
L 59.498041 -60.992999 
L 60.427095 -58.365728 
L 61.356148 -55.918437 
L 62.285201 -53.646601 
L 63.214254 -51.545699 
L 64.143308 -49.611207 
L 65.072361 -47.838603 
L 66.001414 -46.223365 
L 66.930468 -44.760969 
L 67.859521 -43.446894 
L 68.788574 -42.276616 
L 69.717627 -41.245612 
L 70.646681 -40.349361 
L 71.575734 -39.58334 
L 72.504787 -38.943025 
L 73.433841 -38.423895 
L 74.362894 -38.021426 
L 75.291947 -37.731097 
L 76.221 -37.548383 
L 77.150054 -37.468764 
L 78.079107 -37.487715 
L 79.00816 -37.600715 
L 79.937214 -37.803241 
L 80.866267 -38.09077 
L 81.79532 -38.458779 
L 82.724373 -38.902747 
L 83.653427 -39.418149 
L 84.58248 -40.000465 
L 85.511533 -40.64517 
L 86.440587 -41.347743 
L 87.36964 -42.10366 
L 88.298693 -42.908399 
L 89.227746 -43.757438 
L 90.1568 -44.646254 
L 91.085853 -45.570324 
L 92.014906 -46.525125 
L 92.94396 -47.506135 
L 93.873013 -48.508832 
L 94.802066 -49.528692 
L 95.731119 -50.561193 
L 96.660173 -51.601812 
L 97.589226 -52.646027 
L 98.518279 -53.689315 
L 99.447332 -54.727154 
L 100.376386 -55.75502 
L 101.305439 -56.768392 
L 102.234492 -57.762746 
L 103.163546 -58.73356 
L 104.092599 -59.676311 
L 105.021652 -60.586476 
L 105.950705 -61.459534 
L 106.879759 -62.290961 
L 107.808812 -63.076235 
L 108.737865 -63.810833 
L 109.666919 -64.490232 
L 110.595972 -65.10991 
L 111.525025 -65.665344 
L 112.454078 -66.152011 
L 113.383132 -66.56539 
L 114.312185 -66.900956 
L 115.241238 -67.154189 
L 116.170292 -67.320851 
L 117.099345 -67.401872 
L 118.028398 -67.402644 
L 118.957451 -67.328708 
L 119.886505 -67.185604 
L 120.815558 -66.978872 
L 121.744611 -66.714052 
L 122.673665 -66.396686 
L 123.602718 -66.032313 
L 124.531771 -65.626474 
L 125.460824 -65.18471 
L 126.389878 -64.71256 
L 127.318931 -64.215564 
L 128.247984 -63.699264 
L 129.177038 -63.1692 
L 130.106091 -62.630912 
L 131.035144 -62.08994 
L 131.964197 -61.551825 
L 132.893251 -61.022107 
L 133.822304 -60.506326 
L 134.751357 -60.010023 
L 135.680411 -59.538739 
L 136.609464 -59.098013 
L 137.538517 -58.693386 
L 138.46757 -58.330399 
L 139.396624 -58.014591 
L 140.325677 -57.751504 
L 141.25473 -57.546676 
L 142.183784 -57.40565 
L 143.112837 -57.333965 
L 144.04189 -57.337161 
L 144.970943 -57.420779 
L 145.899997 -57.59036 
L 146.82905 -57.851379 
L 147.758103 -58.205492 
L 148.687157 -58.64843 
L 149.61621 -59.175414 
L 150.545263 -59.781664 
L 151.474316 -60.462403 
L 152.40337 -61.212851 
L 153.332423 -62.028229 
L 154.261476 -62.903759 
L 155.19053 -63.834662 
L 156.119583 -64.81616 
L 157.048636 -65.843473 
L 157.977689 -66.911822 
L 158.906743 -68.016429 
L 159.835796 -69.152516 
L 160.764849 -70.315302 
L 161.693902 -71.50001 
L 162.622956 -72.701861 
L 163.552009 -73.916075 
L 164.481062 -75.137875 
L 165.410116 -76.362481 
L 166.339169 -77.585114 
L 167.268222 -78.800996 
L 168.197275 -80.005348 
L 169.126329 -81.193392 
L 170.055382 -82.360347 
L 170.984435 -83.501436 
L 171.913489 -84.61188 
L 172.842542 -85.6869 
L 173.771595 -86.721717 
L 174.700648 -87.711552 
L 175.629702 -88.651627 
L 176.558755 -89.537163 
L 177.487808 -90.363382 
L 178.416862 -91.126909 
L 179.345915 -91.828404 
L 180.274968 -92.469247 
L 181.204021 -93.050816 
L 182.133075 -93.574493 
L 183.062128 -94.041657 
L 183.991181 -94.453688 
L 184.920235 -94.811967 
L 185.849288 -95.117872 
L 186.778341 -95.372783 
L 187.707394 -95.578082 
L 188.636448 -95.735147 
L 189.565501 -95.845359 
L 190.494554 -95.910097 
L 191.423608 -95.930742 
L 192.352661 -95.908673 
L 193.281714 -95.845271 
L 194.210767 -95.741914 
L 195.139821 -95.599984 
L 196.068874 -95.42086 
L 196.997927 -95.205921 
L 197.926981 -94.956549 
L 198.856034 -94.674122 
L 199.785087 -94.360022 
L 200.71414 -94.015626 
L 201.643194 -93.642317 
L 202.572247 -93.241473 
L 203.5013 -92.814474 
L 204.430354 -92.362701 
L 205.359407 -91.887533 
L 206.28846 -91.39035 
L 207.217513 -90.872532 
L 208.146567 -90.33546 
L 209.07562 -89.780653 
L 210.004673 -89.210423 
L 210.933727 -88.627353 
L 211.86278 -88.03403 
L 212.791833 -87.433038 
L 213.720886 -86.826961 
L 214.64994 -86.218386 
L 215.578993 -85.609896 
L 216.508046 -85.004077 
L 217.4371 -84.403514 
L 218.366153 -83.810792 
L 219.295206 -83.228496 
L 220.224259 -82.65921 
L 221.153313 -82.10552 
L 222.082366 -81.570011 
L 223.011419 -81.055268 
L 223.940473 -80.563875 
L 224.869526 -80.098418 
L 225.798579 -79.661482 
L 226.727632 -79.255651 
L 227.656686 -78.883511 
L 228.585739 -78.547646 
L 229.514792 -78.250642 
L 230.443845 -77.995083 
L 231.372899 -77.783555 
L 232.301952 -77.618642 
L 233.231005 -77.50293 
L 234.160059 -77.439003 
L 235.089112 -77.429446 
L 236.018165 -77.476845 
L 236.947218 -77.583784 
L 237.876272 -77.752849 
L 238.805325 -77.986623 
L 239.734378 -78.28737 
L 240.663432 -78.653594 
L 241.592485 -79.081375 
L 242.521538 -79.566755 
L 243.450591 -80.105774 
L 244.379645 -80.694472 
L 245.308698 -81.32889 
L 246.237751 -82.005069 
L 247.166805 -82.719049 
L 248.095858 -83.466871 
L 249.024911 -84.244575 
L 249.953964 -85.048201 
L 250.883018 -85.873791 
L 251.812071 -86.717385 
L 252.741124 -87.575023 
L 253.670178 -88.442746 
L 254.599231 -89.316595 
L 255.528284 -90.19261 
L 256.457337 -91.066831 
L 257.386391 -91.935299 
L 258.315444 -92.794055 
L 259.244497 -93.63914 
L 260.173551 -94.466593 
L 261.102604 -95.272456 
L 262.031657 -96.052768 
L 262.96071 -96.803571 
L 263.889764 -97.520905 
L 264.818817 -98.20081 
L 265.74787 -98.839327 
L 266.676924 -99.432498 
L 267.605977 -99.976361 
L 268.53503 -100.466958 
L 269.464083 -100.900329 
L 270.393137 -101.272605 
L 271.32219 -101.582634 
L 272.251243 -101.832407 
L 273.180297 -102.024092 
L 274.10935 -102.159854 
L 275.038403 -102.241861 
L 275.967456 -102.272279 
L 276.89651 -102.253275 
L 277.825563 -102.187014 
L 278.754616 -102.075665 
L 279.68367 -101.921392 
L 280.612723 -101.726364 
L 281.541776 -101.492746 
L 282.470829 -101.222705 
L 283.399883 -100.918408 
L 284.328936 -100.582021 
L 285.257989 -100.215711 
L 286.187043 -99.821644 
L 287.116096 -99.401987 
L 288.045149 -98.958907 
L 288.974202 -98.49457 
L 289.903256 -98.011143 
L 290.832309 -97.510792 
L 291.761362 -96.995684 
L 292.690415 -96.467986 
L 293.619469 -95.929863 
L 294.548522 -95.383484 
L 295.477575 -94.831013 
L 296.406629 -94.274619 
L 297.335682 -93.716467 
L 298.264735 -93.158723 
L 299.193788 -92.603556 
L 300.122842 -92.053131 
L 301.051895 -91.509614 
L 301.980948 -90.975173 
L 302.910002 -90.451974 
L 303.839055 -89.942183 
L 304.768108 -89.447967 
L 305.697161 -88.971493 
L 306.626215 -88.514928 
L 307.555268 -88.080437 
L 308.484321 -87.670188 
L 309.413375 -87.286346 
L 310.342428 -86.93108 
L 311.271481 -86.606554 
L 312.200534 -86.314937 
L 313.129588 -86.058393 
L 314.058641 -85.839091 
L 314.987694 -85.659196 
L 315.916748 -85.520876 
L 316.845801 -85.426296 
L 317.774854 -85.377623 
L 318.703907 -85.377024 
L 319.632961 -85.426666 
L 320.562014 -85.528715 
L 321.491067 -85.685337 
L 322.420121 -85.8987 
L 323.349174 -86.170969 
L 324.278227 -86.504312 
L 325.20728 -86.900895 
L 326.136334 -87.362884 
L 327.065387 -87.892447 
L 327.99444 -88.491749 
L 328.923494 -89.162958 
L 329.852547 -89.908239 
L 330.7816 -90.72976 
L 331.710653 -91.629688 
L 331.710653 -91.629688 
L 331.710653 -105.18 
L 330.7816 -105.18 
L 329.852547 -105.18 
L 328.923494 -105.18 
L 327.99444 -105.18 
L 327.065387 -105.18 
L 326.136334 -105.18 
L 325.20728 -105.18 
L 324.278227 -105.18 
L 323.349174 -105.18 
L 322.420121 -105.18 
L 321.491067 -105.18 
L 320.562014 -105.18 
L 319.632961 -105.18 
L 318.703907 -105.18 
L 317.774854 -105.18 
L 316.845801 -105.18 
L 315.916748 -105.18 
L 314.987694 -105.18 
L 314.058641 -105.18 
L 313.129588 -105.18 
L 312.200534 -105.18 
L 311.271481 -105.18 
L 310.342428 -105.18 
L 309.413375 -105.18 
L 308.484321 -105.18 
L 307.555268 -105.18 
L 306.626215 -105.18 
L 305.697161 -105.18 
L 304.768108 -105.18 
L 303.839055 -105.18 
L 302.910002 -105.18 
L 301.980948 -105.18 
L 301.051895 -105.18 
L 300.122842 -105.18 
L 299.193788 -105.18 
L 298.264735 -105.18 
L 297.335682 -105.18 
L 296.406629 -105.18 
L 295.477575 -105.18 
L 294.548522 -105.18 
L 293.619469 -105.18 
L 292.690415 -105.18 
L 291.761362 -105.18 
L 290.832309 -105.18 
L 289.903256 -105.18 
L 288.974202 -105.18 
L 288.045149 -105.18 
L 287.116096 -105.18 
L 286.187043 -105.18 
L 285.257989 -105.18 
L 284.328936 -105.18 
L 283.399883 -105.18 
L 282.470829 -105.18 
L 281.541776 -105.18 
L 280.612723 -105.18 
L 279.68367 -105.18 
L 278.754616 -105.18 
L 277.825563 -105.18 
L 276.89651 -105.18 
L 275.967456 -105.18 
L 275.038403 -105.18 
L 274.10935 -105.18 
L 273.180297 -105.18 
L 272.251243 -105.18 
L 271.32219 -105.18 
L 270.393137 -105.18 
L 269.464083 -105.18 
L 268.53503 -105.18 
L 267.605977 -105.18 
L 266.676924 -105.18 
L 265.74787 -105.18 
L 264.818817 -105.18 
L 263.889764 -105.18 
L 262.96071 -105.18 
L 262.031657 -105.18 
L 261.102604 -105.18 
L 260.173551 -105.18 
L 259.244497 -105.18 
L 258.315444 -105.18 
L 257.386391 -105.18 
L 256.457337 -105.18 
L 255.528284 -105.18 
L 254.599231 -105.18 
L 253.670178 -105.18 
L 252.741124 -105.18 
L 251.812071 -105.18 
L 250.883018 -105.18 
L 249.953964 -105.18 
L 249.024911 -105.18 
L 248.095858 -105.18 
L 247.166805 -105.18 
L 246.237751 -105.18 
L 245.308698 -105.18 
L 244.379645 -105.18 
L 243.450591 -105.18 
L 242.521538 -105.18 
L 241.592485 -105.18 
L 240.663432 -105.18 
L 239.734378 -105.18 
L 238.805325 -105.18 
L 237.876272 -105.18 
L 236.947218 -105.18 
L 236.018165 -105.18 
L 235.089112 -105.18 
L 234.160059 -105.18 
L 233.231005 -105.18 
L 232.301952 -105.18 
L 231.372899 -105.18 
L 230.443845 -105.18 
L 229.514792 -105.18 
L 228.585739 -105.18 
L 227.656686 -105.18 
L 226.727632 -105.18 
L 225.798579 -105.18 
L 224.869526 -105.18 
L 223.940473 -105.18 
L 223.011419 -105.18 
L 222.082366 -105.18 
L 221.153313 -105.18 
L 220.224259 -105.18 
L 219.295206 -105.18 
L 218.366153 -105.18 
L 217.4371 -105.18 
L 216.508046 -105.18 
L 215.578993 -105.18 
L 214.64994 -105.18 
L 213.720886 -105.18 
L 212.791833 -105.18 
L 211.86278 -105.18 
L 210.933727 -105.18 
L 210.004673 -105.18 
L 209.07562 -105.18 
L 208.146567 -105.18 
L 207.217513 -105.18 
L 206.28846 -105.18 
L 205.359407 -105.18 
L 204.430354 -105.18 
L 203.5013 -105.18 
L 202.572247 -105.18 
L 201.643194 -105.18 
L 200.71414 -105.18 
L 199.785087 -105.18 
L 198.856034 -105.18 
L 197.926981 -105.18 
L 196.997927 -105.18 
L 196.068874 -105.18 
L 195.139821 -105.18 
L 194.210767 -105.18 
L 193.281714 -105.18 
L 192.352661 -105.18 
L 191.423608 -105.18 
L 190.494554 -105.18 
L 189.565501 -105.18 
L 188.636448 -105.18 
L 187.707394 -105.18 
L 186.778341 -105.18 
L 185.849288 -105.18 
L 184.920235 -105.18 
L 183.991181 -105.18 
L 183.062128 -105.18 
L 182.133075 -105.18 
L 181.204021 -105.18 
L 180.274968 -105.18 
L 179.345915 -105.18 
L 178.416862 -105.18 
L 177.487808 -105.18 
L 176.558755 -105.18 
L 175.629702 -105.18 
L 174.700648 -105.18 
L 173.771595 -105.18 
L 172.842542 -105.18 
L 171.913489 -105.18 
L 170.984435 -105.18 
L 170.055382 -105.18 
L 169.126329 -105.18 
L 168.197275 -105.18 
L 167.268222 -105.18 
L 166.339169 -105.18 
L 165.410116 -105.18 
L 164.481062 -105.18 
L 163.552009 -105.18 
L 162.622956 -105.18 
L 161.693902 -105.18 
L 160.764849 -105.18 
L 159.835796 -105.18 
L 158.906743 -105.18 
L 157.977689 -105.18 
L 157.048636 -105.18 
L 156.119583 -105.18 
L 155.19053 -105.18 
L 154.261476 -105.18 
L 153.332423 -105.18 
L 152.40337 -105.18 
L 151.474316 -105.18 
L 150.545263 -105.18 
L 149.61621 -105.18 
L 148.687157 -105.18 
L 147.758103 -105.18 
L 146.82905 -105.18 
L 145.899997 -105.18 
L 144.970943 -105.18 
L 144.04189 -105.18 
L 143.112837 -105.18 
L 142.183784 -105.18 
L 141.25473 -105.18 
L 140.325677 -105.18 
L 139.396624 -105.18 
L 138.46757 -105.18 
L 137.538517 -105.18 
L 136.609464 -105.18 
L 135.680411 -105.18 
L 134.751357 -105.18 
L 133.822304 -105.18 
L 132.893251 -105.18 
L 131.964197 -105.18 
L 131.035144 -105.18 
L 130.106091 -105.18 
L 129.177038 -105.18 
L 128.247984 -105.18 
L 127.318931 -105.18 
L 126.389878 -105.18 
L 125.460824 -105.18 
L 124.531771 -105.18 
L 123.602718 -105.18 
L 122.673665 -105.18 
L 121.744611 -105.18 
L 120.815558 -105.18 
L 119.886505 -105.18 
L 118.957451 -105.18 
L 118.028398 -105.18 
L 117.099345 -105.18 
L 116.170292 -105.18 
L 115.241238 -105.18 
L 114.312185 -105.18 
L 113.383132 -105.18 
L 112.454078 -105.18 
L 111.525025 -105.18 
L 110.595972 -105.18 
L 109.666919 -105.18 
L 108.737865 -105.18 
L 107.808812 -105.18 
L 106.879759 -105.18 
L 105.950705 -105.18 
L 105.021652 -105.18 
L 104.092599 -105.18 
L 103.163546 -105.18 
L 102.234492 -105.18 
L 101.305439 -105.18 
L 100.376386 -105.18 
L 99.447332 -105.18 
L 98.518279 -105.18 
L 97.589226 -105.18 
L 96.660173 -105.18 
L 95.731119 -105.18 
L 94.802066 -105.18 
L 93.873013 -105.18 
L 92.94396 -105.18 
L 92.014906 -105.18 
L 91.085853 -105.18 
L 90.1568 -105.18 
L 89.227746 -105.18 
L 88.298693 -105.18 
L 87.36964 -105.18 
L 86.440587 -105.18 
L 85.511533 -105.18 
L 84.58248 -105.18 
L 83.653427 -105.18 
L 82.724373 -105.18 
L 81.79532 -105.18 
L 80.866267 -105.18 
L 79.937214 -105.18 
L 79.00816 -105.18 
L 78.079107 -105.18 
L 77.150054 -105.18 
L 76.221 -105.18 
L 75.291947 -105.18 
L 74.362894 -105.18 
L 73.433841 -105.18 
L 72.504787 -105.18 
L 71.575734 -105.18 
L 70.646681 -105.18 
L 69.717627 -105.18 
L 68.788574 -105.18 
L 67.859521 -105.18 
L 66.930468 -105.18 
L 66.001414 -105.18 
L 65.072361 -105.18 
L 64.143308 -105.18 
L 63.214254 -105.18 
L 62.285201 -105.18 
L 61.356148 -105.18 
L 60.427095 -105.18 
L 59.498041 -105.18 
L 58.568988 -105.18 
L 57.639935 -105.18 
L 56.710881 -105.18 
L 55.781828 -105.18 
L 54.852775 -105.18 
L 53.923722 -105.18 
z
" style="stroke: #ed6b4d; stroke-opacity: 0.1"/>
    </defs>
    <g clip-path="url(#paf058cf07a)">
     <use xlink:href="#ma1fc5af3b6" x="0" y="208.8" style="fill: #ed6b4d; fill-opacity: 0.1; stroke: #ed6b4d; stroke-opacity: 0.1"/>
    </g>
   </g>
   <g id="line2d_1">
    <defs>
     <path id="m5d65ec045b" d="M 0 3 
C 0.795609 3 1.55874 2.683901 2.12132 2.12132 
C 2.683901 1.55874 3 0.795609 3 0 
C 3 -0.795609 2.683901 -1.55874 2.12132 -2.12132 
C 1.55874 -2.683901 0.795609 -3 0 -3 
C -0.795609 -3 -1.55874 -2.683901 -2.12132 -2.12132 
C -2.683901 -1.55874 -3 -0.795609 -3 0 
C -3 0.795609 -2.683901 1.55874 -2.12132 2.12132 
C -1.55874 2.683901 -0.795609 3 0 3 
z
" style="stroke: #0035a0"/>
    </defs>
    <g clip-path="url(#paf058cf07a)">
     <use xlink:href="#m5d65ec045b" x="53.923722" y="128.010562" style="fill: #0035a0; stroke: #0035a0"/>
     <use xlink:href="#m5d65ec045b" x="84.788936" y="168.6615" style="fill: #0035a0; stroke: #0035a0"/>
     <use xlink:href="#m5d65ec045b" x="115.654151" y="141.560875" style="fill: #0035a0; stroke: #0035a0"/>
     <use xlink:href="#m5d65ec045b" x="146.519366" y="151.046094" style="fill: #0035a0; stroke: #0035a0"/>
     <use xlink:href="#m5d65ec045b" x="177.38458" y="118.525344" style="fill: #0035a0; stroke: #0035a0"/>
     <use xlink:href="#m5d65ec045b" x="208.249795" y="118.525344" style="fill: #0035a0; stroke: #0035a0"/>
     <use xlink:href="#m5d65ec045b" x="239.115009" y="130.720625" style="fill: #0035a0; stroke: #0035a0"/>
     <use xlink:href="#m5d65ec045b" x="269.980224" y="107.685094" style="fill: #0035a0; stroke: #0035a0"/>
     <use xlink:href="#m5d65ec045b" x="300.845439" y="117.170312" style="fill: #0035a0; stroke: #0035a0"/>
     <use xlink:href="#m5d65ec045b" x="331.710653" y="117.170312" style="fill: #0035a0; stroke: #0035a0"/>
    </g>
   </g>
   <g id="line2d_2">
    <path d="M 40.034375 103.62 
L 345.6 103.62 
" clip-path="url(#paf058cf07a)" style="fill: none; stroke: #808080; stroke-width: 0.8; stroke-linecap: square"/>
   </g>
   <g id="matplotlib.axis_1">
    <g id="xtick_1">
     <g id="line2d_3">
      <defs>
       <path id="medc1772aab" d="M 0 0 
L 0 3.5 
" style="stroke: #000000; stroke-width: 0.8"/>
      </defs>
      <g>
       <use xlink:href="#medc1772aab" x="53.923722" y="184.921875" style="stroke: #000000; stroke-width: 0.8"/>
      </g>
     </g>
     <g id="text_1">
      <!-- 26 Mar -->
      <g transform="translate(36.538565 199.520312) scale(0.1 -0.1)">
       <defs>
        <path id="DejaVuSans-32" d="M 1228 531 
L 3431 531 
L 3431 0 
L 469 0 
L 469 531 
Q 828 903 1448 1529 
Q 2069 2156 2228 2338 
Q 2531 2678 2651 2914 
Q 2772 3150 2772 3378 
Q 2772 3750 2511 3984 
Q 2250 4219 1831 4219 
Q 1534 4219 1204 4116 
Q 875 4013 500 3803 
L 500 4441 
Q 881 4594 1212 4672 
Q 1544 4750 1819 4750 
Q 2544 4750 2975 4387 
Q 3406 4025 3406 3419 
Q 3406 3131 3298 2873 
Q 3191 2616 2906 2266 
Q 2828 2175 2409 1742 
Q 1991 1309 1228 531 
z
" transform="scale(0.015625)"/>
        <path id="DejaVuSans-36" d="M 2113 2584 
Q 1688 2584 1439 2293 
Q 1191 2003 1191 1497 
Q 1191 994 1439 701 
Q 1688 409 2113 409 
Q 2538 409 2786 701 
Q 3034 994 3034 1497 
Q 3034 2003 2786 2293 
Q 2538 2584 2113 2584 
z
M 3366 4563 
L 3366 3988 
Q 3128 4100 2886 4159 
Q 2644 4219 2406 4219 
Q 1781 4219 1451 3797 
Q 1122 3375 1075 2522 
Q 1259 2794 1537 2939 
Q 1816 3084 2150 3084 
Q 2853 3084 3261 2657 
Q 3669 2231 3669 1497 
Q 3669 778 3244 343 
Q 2819 -91 2113 -91 
Q 1303 -91 875 529 
Q 447 1150 447 2328 
Q 447 3434 972 4092 
Q 1497 4750 2381 4750 
Q 2619 4750 2861 4703 
Q 3103 4656 3366 4563 
z
" transform="scale(0.015625)"/>
        <path id="DejaVuSans-20" transform="scale(0.015625)"/>
        <path id="DejaVuSans-4d" d="M 628 4666 
L 1569 4666 
L 2759 1491 
L 3956 4666 
L 4897 4666 
L 4897 0 
L 4281 0 
L 4281 4097 
L 3078 897 
L 2444 897 
L 1241 4097 
L 1241 0 
L 628 0 
L 628 4666 
z
" transform="scale(0.015625)"/>
        <path id="DejaVuSans-61" d="M 2194 1759 
Q 1497 1759 1228 1600 
Q 959 1441 959 1056 
Q 959 750 1161 570 
Q 1363 391 1709 391 
Q 2188 391 2477 730 
Q 2766 1069 2766 1631 
L 2766 1759 
L 2194 1759 
z
M 3341 1997 
L 3341 0 
L 2766 0 
L 2766 531 
Q 2569 213 2275 61 
Q 1981 -91 1556 -91 
Q 1019 -91 701 211 
Q 384 513 384 1019 
Q 384 1609 779 1909 
Q 1175 2209 1959 2209 
L 2766 2209 
L 2766 2266 
Q 2766 2663 2505 2880 
Q 2244 3097 1772 3097 
Q 1472 3097 1187 3025 
Q 903 2953 641 2809 
L 641 3341 
Q 956 3463 1253 3523 
Q 1550 3584 1831 3584 
Q 2591 3584 2966 3190 
Q 3341 2797 3341 1997 
z
" transform="scale(0.015625)"/>
        <path id="DejaVuSans-72" d="M 2631 2963 
Q 2534 3019 2420 3045 
Q 2306 3072 2169 3072 
Q 1681 3072 1420 2755 
Q 1159 2438 1159 1844 
L 1159 0 
L 581 0 
L 581 3500 
L 1159 3500 
L 1159 2956 
Q 1341 3275 1631 3429 
Q 1922 3584 2338 3584 
Q 2397 3584 2469 3576 
Q 2541 3569 2628 3553 
L 2631 2963 
z
" transform="scale(0.015625)"/>
       </defs>
       <use xlink:href="#DejaVuSans-32"/>
       <use xlink:href="#DejaVuSans-36" x="63.623047"/>
       <use xlink:href="#DejaVuSans-20" x="127.246094"/>
       <use xlink:href="#DejaVuSans-4d" x="159.033203"/>
       <use xlink:href="#DejaVuSans-61" x="245.3125"/>
       <use xlink:href="#DejaVuSans-72" x="306.591797"/>
      </g>
     </g>
    </g>
    <g id="xtick_2">
     <g id="line2d_4">
      <g>
       <use xlink:href="#medc1772aab" x="115.654151" y="184.921875" style="stroke: #000000; stroke-width: 0.8"/>
      </g>
     </g>
     <g id="text_2">
      <!-- 28 Mar -->
      <g transform="translate(98.268995 199.520312) scale(0.1 -0.1)">
       <defs>
        <path id="DejaVuSans-38" d="M 2034 2216 
Q 1584 2216 1326 1975 
Q 1069 1734 1069 1313 
Q 1069 891 1326 650 
Q 1584 409 2034 409 
Q 2484 409 2743 651 
Q 3003 894 3003 1313 
Q 3003 1734 2745 1975 
Q 2488 2216 2034 2216 
z
M 1403 2484 
Q 997 2584 770 2862 
Q 544 3141 544 3541 
Q 544 4100 942 4425 
Q 1341 4750 2034 4750 
Q 2731 4750 3128 4425 
Q 3525 4100 3525 3541 
Q 3525 3141 3298 2862 
Q 3072 2584 2669 2484 
Q 3125 2378 3379 2068 
Q 3634 1759 3634 1313 
Q 3634 634 3220 271 
Q 2806 -91 2034 -91 
Q 1263 -91 848 271 
Q 434 634 434 1313 
Q 434 1759 690 2068 
Q 947 2378 1403 2484 
z
M 1172 3481 
Q 1172 3119 1398 2916 
Q 1625 2713 2034 2713 
Q 2441 2713 2670 2916 
Q 2900 3119 2900 3481 
Q 2900 3844 2670 4047 
Q 2441 4250 2034 4250 
Q 1625 4250 1398 4047 
Q 1172 3844 1172 3481 
z
" transform="scale(0.015625)"/>
       </defs>
       <use xlink:href="#DejaVuSans-32"/>
       <use xlink:href="#DejaVuSans-38" x="63.623047"/>
       <use xlink:href="#DejaVuSans-20" x="127.246094"/>
       <use xlink:href="#DejaVuSans-4d" x="159.033203"/>
       <use xlink:href="#DejaVuSans-61" x="245.3125"/>
       <use xlink:href="#DejaVuSans-72" x="306.591797"/>
      </g>
     </g>
    </g>
    <g id="xtick_3">
     <g id="line2d_5">
      <g>
       <use xlink:href="#medc1772aab" x="177.38458" y="184.921875" style="stroke: #000000; stroke-width: 0.8"/>
      </g>
     </g>
     <g id="text_3">
      <!-- 30 Mar -->
      <g transform="translate(159.999424 199.520312) scale(0.1 -0.1)">
       <defs>
        <path id="DejaVuSans-33" d="M 2597 2516 
Q 3050 2419 3304 2112 
Q 3559 1806 3559 1356 
Q 3559 666 3084 287 
Q 2609 -91 1734 -91 
Q 1441 -91 1130 -33 
Q 819 25 488 141 
L 488 750 
Q 750 597 1062 519 
Q 1375 441 1716 441 
Q 2309 441 2620 675 
Q 2931 909 2931 1356 
Q 2931 1769 2642 2001 
Q 2353 2234 1838 2234 
L 1294 2234 
L 1294 2753 
L 1863 2753 
Q 2328 2753 2575 2939 
Q 2822 3125 2822 3475 
Q 2822 3834 2567 4026 
Q 2313 4219 1838 4219 
Q 1578 4219 1281 4162 
Q 984 4106 628 3988 
L 628 4550 
Q 988 4650 1302 4700 
Q 1616 4750 1894 4750 
Q 2613 4750 3031 4423 
Q 3450 4097 3450 3541 
Q 3450 3153 3228 2886 
Q 3006 2619 2597 2516 
z
" transform="scale(0.015625)"/>
        <path id="DejaVuSans-30" d="M 2034 4250 
Q 1547 4250 1301 3770 
Q 1056 3291 1056 2328 
Q 1056 1369 1301 889 
Q 1547 409 2034 409 
Q 2525 409 2770 889 
Q 3016 1369 3016 2328 
Q 3016 3291 2770 3770 
Q 2525 4250 2034 4250 
z
M 2034 4750 
Q 2819 4750 3233 4129 
Q 3647 3509 3647 2328 
Q 3647 1150 3233 529 
Q 2819 -91 2034 -91 
Q 1250 -91 836 529 
Q 422 1150 422 2328 
Q 422 3509 836 4129 
Q 1250 4750 2034 4750 
z
" transform="scale(0.015625)"/>
       </defs>
       <use xlink:href="#DejaVuSans-33"/>
       <use xlink:href="#DejaVuSans-30" x="63.623047"/>
       <use xlink:href="#DejaVuSans-20" x="127.246094"/>
       <use xlink:href="#DejaVuSans-4d" x="159.033203"/>
       <use xlink:href="#DejaVuSans-61" x="245.3125"/>
       <use xlink:href="#DejaVuSans-72" x="306.591797"/>
      </g>
     </g>
    </g>
    <g id="xtick_4">
     <g id="line2d_6">
      <g>
       <use xlink:href="#medc1772aab" x="239.115009" y="184.921875" style="stroke: #000000; stroke-width: 0.8"/>
      </g>
     </g>
     <g id="text_4">
      <!-- 01 Apr -->
      <g transform="translate(222.513447 199.520312) scale(0.1 -0.1)">
       <defs>
        <path id="DejaVuSans-31" d="M 794 531 
L 1825 531 
L 1825 4091 
L 703 3866 
L 703 4441 
L 1819 4666 
L 2450 4666 
L 2450 531 
L 3481 531 
L 3481 0 
L 794 0 
L 794 531 
z
" transform="scale(0.015625)"/>
        <path id="DejaVuSans-41" d="M 2188 4044 
L 1331 1722 
L 3047 1722 
L 2188 4044 
z
M 1831 4666 
L 2547 4666 
L 4325 0 
L 3669 0 
L 3244 1197 
L 1141 1197 
L 716 0 
L 50 0 
L 1831 4666 
z
" transform="scale(0.015625)"/>
        <path id="DejaVuSans-70" d="M 1159 525 
L 1159 -1331 
L 581 -1331 
L 581 3500 
L 1159 3500 
L 1159 2969 
Q 1341 3281 1617 3432 
Q 1894 3584 2278 3584 
Q 2916 3584 3314 3078 
Q 3713 2572 3713 1747 
Q 3713 922 3314 415 
Q 2916 -91 2278 -91 
Q 1894 -91 1617 61 
Q 1341 213 1159 525 
z
M 3116 1747 
Q 3116 2381 2855 2742 
Q 2594 3103 2138 3103 
Q 1681 3103 1420 2742 
Q 1159 2381 1159 1747 
Q 1159 1113 1420 752 
Q 1681 391 2138 391 
Q 2594 391 2855 752 
Q 3116 1113 3116 1747 
z
" transform="scale(0.015625)"/>
       </defs>
       <use xlink:href="#DejaVuSans-30"/>
       <use xlink:href="#DejaVuSans-31" x="63.623047"/>
       <use xlink:href="#DejaVuSans-20" x="127.246094"/>
       <use xlink:href="#DejaVuSans-41" x="159.033203"/>
       <use xlink:href="#DejaVuSans-70" x="227.441406"/>
       <use xlink:href="#DejaVuSans-72" x="290.917969"/>
      </g>
     </g>
    </g>
    <g id="xtick_5">
     <g id="line2d_7">
      <g>
       <use xlink:href="#medc1772aab" x="300.845439" y="184.921875" style="stroke: #000000; stroke-width: 0.8"/>
      </g>
     </g>
     <g id="text_5">
      <!-- 03 Apr -->
      <g transform="translate(284.243876 199.520312) scale(0.1 -0.1)">
       <use xlink:href="#DejaVuSans-30"/>
       <use xlink:href="#DejaVuSans-33" x="63.623047"/>
       <use xlink:href="#DejaVuSans-20" x="127.246094"/>
       <use xlink:href="#DejaVuSans-41" x="159.033203"/>
       <use xlink:href="#DejaVuSans-70" x="227.441406"/>
       <use xlink:href="#DejaVuSans-72" x="290.917969"/>
      </g>
     </g>
    </g>
   </g>
   <g id="matplotlib.axis_2">
    <g id="ytick_1">
     <g id="text_6">
      <!-- -50% -->
      <g transform="translate(7.2 175.170781) scale(0.1 -0.1)">
       <defs>
        <path id="DejaVuSans-2d" d="M 313 2009 
L 1997 2009 
L 1997 1497 
L 313 1497 
L 313 2009 
z
" transform="scale(0.015625)"/>
        <path id="DejaVuSans-35" d="M 691 4666 
L 3169 4666 
L 3169 4134 
L 1269 4134 
L 1269 2991 
Q 1406 3038 1543 3061 
Q 1681 3084 1819 3084 
Q 2600 3084 3056 2656 
Q 3513 2228 3513 1497 
Q 3513 744 3044 326 
Q 2575 -91 1722 -91 
Q 1428 -91 1123 -41 
Q 819 9 494 109 
L 494 744 
Q 775 591 1075 516 
Q 1375 441 1709 441 
Q 2250 441 2565 725 
Q 2881 1009 2881 1497 
Q 2881 1984 2565 2268 
Q 2250 2553 1709 2553 
Q 1456 2553 1204 2497 
Q 953 2441 691 2322 
L 691 4666 
z
" transform="scale(0.015625)"/>
        <path id="DejaVuSans-25" d="M 4653 2053 
Q 4381 2053 4226 1822 
Q 4072 1591 4072 1178 
Q 4072 772 4226 539 
Q 4381 306 4653 306 
Q 4919 306 5073 539 
Q 5228 772 5228 1178 
Q 5228 1588 5073 1820 
Q 4919 2053 4653 2053 
z
M 4653 2450 
Q 5147 2450 5437 2106 
Q 5728 1763 5728 1178 
Q 5728 594 5436 251 
Q 5144 -91 4653 -91 
Q 4153 -91 3862 251 
Q 3572 594 3572 1178 
Q 3572 1766 3864 2108 
Q 4156 2450 4653 2450 
z
M 1428 4353 
Q 1159 4353 1004 4120 
Q 850 3888 850 3481 
Q 850 3069 1003 2837 
Q 1156 2606 1428 2606 
Q 1700 2606 1854 2837 
Q 2009 3069 2009 3481 
Q 2009 3884 1853 4118 
Q 1697 4353 1428 4353 
z
M 4250 4750 
L 4750 4750 
L 1831 -91 
L 1331 -91 
L 4250 4750 
z
M 1428 4750 
Q 1922 4750 2215 4408 
Q 2509 4066 2509 3481 
Q 2509 2891 2217 2550 
Q 1925 2209 1428 2209 
Q 931 2209 642 2551 
Q 353 2894 353 3481 
Q 353 4063 643 4406 
Q 934 4750 1428 4750 
z
" transform="scale(0.015625)"/>
       </defs>
       <use xlink:href="#DejaVuSans-2d"/>
       <use xlink:href="#DejaVuSans-35" x="36.083984"/>
       <use xlink:href="#DejaVuSans-30" x="99.707031"/>
       <use xlink:href="#DejaVuSans-25" x="163.330078"/>
      </g>
     </g>
    </g>
    <g id="ytick_2">
     <g id="text_7">
      <!-- -25% -->
      <g transform="translate(7.2 141.295) scale(0.1 -0.1)">
       <use xlink:href="#DejaVuSans-2d"/>
       <use xlink:href="#DejaVuSans-32" x="36.083984"/>
       <use xlink:href="#DejaVuSans-35" x="99.707031"/>
       <use xlink:href="#DejaVuSans-25" x="163.330078"/>
      </g>
     </g>
    </g>
    <g id="ytick_3">
     <g id="text_8">
      <!-- 0% -->
      <g transform="translate(17.170313 107.419219) scale(0.1 -0.1)">
       <use xlink:href="#DejaVuSans-30"/>
       <use xlink:href="#DejaVuSans-25" x="63.623047"/>
      </g>
     </g>
    </g>
    <g id="ytick_4">
     <g id="text_9">
      <!-- 25% -->
      <g transform="translate(10.807813 73.543437) scale(0.1 -0.1)">
       <use xlink:href="#DejaVuSans-32"/>
       <use xlink:href="#DejaVuSans-35" x="63.623047"/>
       <use xlink:href="#DejaVuSans-25" x="127.246094"/>
      </g>
     </g>
    </g>
    <g id="ytick_5">
     <g id="text_10">
      <!-- 50% -->
      <g transform="translate(10.807813 39.667656) scale(0.1 -0.1)">
       <use xlink:href="#DejaVuSans-35"/>
       <use xlink:href="#DejaVuSans-30" x="63.623047"/>
       <use xlink:href="#DejaVuSans-25" x="127.246094"/>
      </g>
     </g>
    </g>
   </g>
   <g id="line2d_8">
    <path d="M 53.923722 128.010562 
L 55.781828 135.407682 
L 57.639935 141.994435 
L 59.498041 147.807001 
L 61.356148 152.881563 
L 63.214254 157.254301 
L 65.072361 160.961397 
L 66.930468 164.039031 
L 68.788574 166.523384 
L 70.646681 168.450639 
L 72.504787 169.856975 
L 74.362894 170.778574 
L 76.221 171.251617 
L 78.079107 171.312285 
L 79.937214 170.996759 
L 81.79532 170.341221 
L 83.653427 169.381851 
L 85.511533 168.15483 
L 87.36964 166.69634 
L 90.1568 164.153746 
L 92.94396 161.293865 
L 97.589226 156.153973 
L 102.234492 151.037254 
L 105.021652 148.213524 
L 107.808812 145.723765 
L 109.666919 144.309768 
L 111.525025 143.134656 
L 113.383132 142.23461 
L 115.241238 141.645811 
L 117.099345 141.398128 
L 118.957451 141.471292 
L 120.815558 141.821128 
L 122.673665 142.403314 
L 125.460824 143.61529 
L 128.247984 145.100736 
L 135.680411 149.261261 
L 138.46757 150.469601 
L 140.325677 151.048496 
L 142.183784 151.39435 
L 144.04189 151.462839 
L 145.899997 151.20964 
L 147.758103 150.594508 
L 149.61621 149.624586 
L 151.474316 148.337597 
L 153.332423 146.771771 
L 155.19053 144.965338 
L 157.977689 141.888178 
L 161.693902 137.29999 
L 171.913489 124.18812 
L 174.700648 121.088448 
L 176.558755 119.262837 
L 178.416862 117.673091 
L 180.274968 116.330753 
L 182.133075 115.225507 
L 183.991181 114.346312 
L 185.849288 113.682128 
L 187.707394 113.221918 
L 189.565501 112.954641 
L 191.423608 112.869258 
L 193.281714 112.954729 
L 195.139821 113.200016 
L 197.926981 113.843451 
L 200.71414 114.784374 
L 203.5013 115.985526 
L 206.28846 117.40965 
L 210.004673 119.589577 
L 216.508046 123.795923 
L 221.153313 126.69448 
L 223.940473 128.236125 
L 226.727632 129.544349 
L 229.514792 130.549358 
L 231.372899 131.016445 
L 233.231005 131.29707 
L 235.089112 131.370554 
L 236.947218 131.216216 
L 238.805325 130.813377 
L 240.663432 130.146406 
L 242.521538 129.233245 
L 244.379645 128.105528 
L 247.166805 126.080951 
L 249.953964 123.751799 
L 254.599231 119.483405 
L 260.173551 114.333407 
L 262.96071 111.996429 
L 265.74787 109.960673 
L 267.605977 108.823639 
L 269.464083 107.899671 
L 271.32219 107.217366 
L 273.180297 106.775908 
L 275.038403 106.558139 
L 276.89651 106.546725 
L 278.754616 106.724335 
L 280.612723 107.073636 
L 283.399883 107.881592 
L 286.187043 108.978356 
L 288.974202 110.30543 
L 292.690415 112.332014 
L 306.626215 120.285072 
L 309.413375 121.513654 
L 312.200534 122.485063 
L 314.987694 123.140804 
L 316.845801 123.373704 
L 318.703907 123.422976 
L 320.562014 123.271285 
L 322.420121 122.9013 
L 324.278227 122.295688 
L 326.136334 121.437116 
L 327.99444 120.308251 
L 329.852547 118.891761 
L 331.710653 117.170312 
L 331.710653 117.170312 
" clip-path="url(#paf058cf07a)" style="fill: none; stroke: #0035a0; stroke-width: 3; stroke-linecap: round"/>
   </g>
   <g id="text_11">
    <!-- Sambava - population change trends -->
    <g transform="translate(81.8575 16.318125) scale(0.12 -0.12)">
     <defs>
      <path id="DejaVuSans-53" d="M 3425 4513 
L 3425 3897 
Q 3066 4069 2747 4153 
Q 2428 4238 2131 4238 
Q 1616 4238 1336 4038 
Q 1056 3838 1056 3469 
Q 1056 3159 1242 3001 
Q 1428 2844 1947 2747 
L 2328 2669 
Q 3034 2534 3370 2195 
Q 3706 1856 3706 1288 
Q 3706 609 3251 259 
Q 2797 -91 1919 -91 
Q 1588 -91 1214 -16 
Q 841 59 441 206 
L 441 856 
Q 825 641 1194 531 
Q 1563 422 1919 422 
Q 2459 422 2753 634 
Q 3047 847 3047 1241 
Q 3047 1584 2836 1778 
Q 2625 1972 2144 2069 
L 1759 2144 
Q 1053 2284 737 2584 
Q 422 2884 422 3419 
Q 422 4038 858 4394 
Q 1294 4750 2059 4750 
Q 2388 4750 2728 4690 
Q 3069 4631 3425 4513 
z
" transform="scale(0.015625)"/>
      <path id="DejaVuSans-6d" d="M 3328 2828 
Q 3544 3216 3844 3400 
Q 4144 3584 4550 3584 
Q 5097 3584 5394 3201 
Q 5691 2819 5691 2113 
L 5691 0 
L 5113 0 
L 5113 2094 
Q 5113 2597 4934 2840 
Q 4756 3084 4391 3084 
Q 3944 3084 3684 2787 
Q 3425 2491 3425 1978 
L 3425 0 
L 2847 0 
L 2847 2094 
Q 2847 2600 2669 2842 
Q 2491 3084 2119 3084 
Q 1678 3084 1418 2786 
Q 1159 2488 1159 1978 
L 1159 0 
L 581 0 
L 581 3500 
L 1159 3500 
L 1159 2956 
Q 1356 3278 1631 3431 
Q 1906 3584 2284 3584 
Q 2666 3584 2933 3390 
Q 3200 3197 3328 2828 
z
" transform="scale(0.015625)"/>
      <path id="DejaVuSans-62" d="M 3116 1747 
Q 3116 2381 2855 2742 
Q 2594 3103 2138 3103 
Q 1681 3103 1420 2742 
Q 1159 2381 1159 1747 
Q 1159 1113 1420 752 
Q 1681 391 2138 391 
Q 2594 391 2855 752 
Q 3116 1113 3116 1747 
z
M 1159 2969 
Q 1341 3281 1617 3432 
Q 1894 3584 2278 3584 
Q 2916 3584 3314 3078 
Q 3713 2572 3713 1747 
Q 3713 922 3314 415 
Q 2916 -91 2278 -91 
Q 1894 -91 1617 61 
Q 1341 213 1159 525 
L 1159 0 
L 581 0 
L 581 4863 
L 1159 4863 
L 1159 2969 
z
" transform="scale(0.015625)"/>
      <path id="DejaVuSans-76" d="M 191 3500 
L 800 3500 
L 1894 563 
L 2988 3500 
L 3597 3500 
L 2284 0 
L 1503 0 
L 191 3500 
z
" transform="scale(0.015625)"/>
      <path id="DejaVuSans-6f" d="M 1959 3097 
Q 1497 3097 1228 2736 
Q 959 2375 959 1747 
Q 959 1119 1226 758 
Q 1494 397 1959 397 
Q 2419 397 2687 759 
Q 2956 1122 2956 1747 
Q 2956 2369 2687 2733 
Q 2419 3097 1959 3097 
z
M 1959 3584 
Q 2709 3584 3137 3096 
Q 3566 2609 3566 1747 
Q 3566 888 3137 398 
Q 2709 -91 1959 -91 
Q 1206 -91 779 398 
Q 353 888 353 1747 
Q 353 2609 779 3096 
Q 1206 3584 1959 3584 
z
" transform="scale(0.015625)"/>
      <path id="DejaVuSans-75" d="M 544 1381 
L 544 3500 
L 1119 3500 
L 1119 1403 
Q 1119 906 1312 657 
Q 1506 409 1894 409 
Q 2359 409 2629 706 
Q 2900 1003 2900 1516 
L 2900 3500 
L 3475 3500 
L 3475 0 
L 2900 0 
L 2900 538 
Q 2691 219 2414 64 
Q 2138 -91 1772 -91 
Q 1169 -91 856 284 
Q 544 659 544 1381 
z
M 1991 3584 
L 1991 3584 
z
" transform="scale(0.015625)"/>
      <path id="DejaVuSans-6c" d="M 603 4863 
L 1178 4863 
L 1178 0 
L 603 0 
L 603 4863 
z
" transform="scale(0.015625)"/>
      <path id="DejaVuSans-74" d="M 1172 4494 
L 1172 3500 
L 2356 3500 
L 2356 3053 
L 1172 3053 
L 1172 1153 
Q 1172 725 1289 603 
Q 1406 481 1766 481 
L 2356 481 
L 2356 0 
L 1766 0 
Q 1100 0 847 248 
Q 594 497 594 1153 
L 594 3053 
L 172 3053 
L 172 3500 
L 594 3500 
L 594 4494 
L 1172 4494 
z
" transform="scale(0.015625)"/>
      <path id="DejaVuSans-69" d="M 603 3500 
L 1178 3500 
L 1178 0 
L 603 0 
L 603 3500 
z
M 603 4863 
L 1178 4863 
L 1178 4134 
L 603 4134 
L 603 4863 
z
" transform="scale(0.015625)"/>
      <path id="DejaVuSans-6e" d="M 3513 2113 
L 3513 0 
L 2938 0 
L 2938 2094 
Q 2938 2591 2744 2837 
Q 2550 3084 2163 3084 
Q 1697 3084 1428 2787 
Q 1159 2491 1159 1978 
L 1159 0 
L 581 0 
L 581 3500 
L 1159 3500 
L 1159 2956 
Q 1366 3272 1645 3428 
Q 1925 3584 2291 3584 
Q 2894 3584 3203 3211 
Q 3513 2838 3513 2113 
z
" transform="scale(0.015625)"/>
      <path id="DejaVuSans-63" d="M 3122 3366 
L 3122 2828 
Q 2878 2963 2633 3030 
Q 2388 3097 2138 3097 
Q 1578 3097 1268 2742 
Q 959 2388 959 1747 
Q 959 1106 1268 751 
Q 1578 397 2138 397 
Q 2388 397 2633 464 
Q 2878 531 3122 666 
L 3122 134 
Q 2881 22 2623 -34 
Q 2366 -91 2075 -91 
Q 1284 -91 818 406 
Q 353 903 353 1747 
Q 353 2603 823 3093 
Q 1294 3584 2113 3584 
Q 2378 3584 2631 3529 
Q 2884 3475 3122 3366 
z
" transform="scale(0.015625)"/>
      <path id="DejaVuSans-68" d="M 3513 2113 
L 3513 0 
L 2938 0 
L 2938 2094 
Q 2938 2591 2744 2837 
Q 2550 3084 2163 3084 
Q 1697 3084 1428 2787 
Q 1159 2491 1159 1978 
L 1159 0 
L 581 0 
L 581 4863 
L 1159 4863 
L 1159 2956 
Q 1366 3272 1645 3428 
Q 1925 3584 2291 3584 
Q 2894 3584 3203 3211 
Q 3513 2838 3513 2113 
z
" transform="scale(0.015625)"/>
      <path id="DejaVuSans-67" d="M 2906 1791 
Q 2906 2416 2648 2759 
Q 2391 3103 1925 3103 
Q 1463 3103 1205 2759 
Q 947 2416 947 1791 
Q 947 1169 1205 825 
Q 1463 481 1925 481 
Q 2391 481 2648 825 
Q 2906 1169 2906 1791 
z
M 3481 434 
Q 3481 -459 3084 -895 
Q 2688 -1331 1869 -1331 
Q 1566 -1331 1297 -1286 
Q 1028 -1241 775 -1147 
L 775 -588 
Q 1028 -725 1275 -790 
Q 1522 -856 1778 -856 
Q 2344 -856 2625 -561 
Q 2906 -266 2906 331 
L 2906 616 
Q 2728 306 2450 153 
Q 2172 0 1784 0 
Q 1141 0 747 490 
Q 353 981 353 1791 
Q 353 2603 747 3093 
Q 1141 3584 1784 3584 
Q 2172 3584 2450 3431 
Q 2728 3278 2906 2969 
L 2906 3500 
L 3481 3500 
L 3481 434 
z
" transform="scale(0.015625)"/>
      <path id="DejaVuSans-65" d="M 3597 1894 
L 3597 1613 
L 953 1613 
Q 991 1019 1311 708 
Q 1631 397 2203 397 
Q 2534 397 2845 478 
Q 3156 559 3463 722 
L 3463 178 
Q 3153 47 2828 -22 
Q 2503 -91 2169 -91 
Q 1331 -91 842 396 
Q 353 884 353 1716 
Q 353 2575 817 3079 
Q 1281 3584 2069 3584 
Q 2775 3584 3186 3129 
Q 3597 2675 3597 1894 
z
M 3022 2063 
Q 3016 2534 2758 2815 
Q 2500 3097 2075 3097 
Q 1594 3097 1305 2825 
Q 1016 2553 972 2059 
L 3022 2063 
z
" transform="scale(0.015625)"/>
      <path id="DejaVuSans-64" d="M 2906 2969 
L 2906 4863 
L 3481 4863 
L 3481 0 
L 2906 0 
L 2906 525 
Q 2725 213 2448 61 
Q 2172 -91 1784 -91 
Q 1150 -91 751 415 
Q 353 922 353 1747 
Q 353 2572 751 3078 
Q 1150 3584 1784 3584 
Q 2172 3584 2448 3432 
Q 2725 3281 2906 2969 
z
M 947 1747 
Q 947 1113 1208 752 
Q 1469 391 1925 391 
Q 2381 391 2643 752 
Q 2906 1113 2906 1747 
Q 2906 2381 2643 2742 
Q 2381 3103 1925 3103 
Q 1469 3103 1208 2742 
Q 947 2381 947 1747 
z
" transform="scale(0.015625)"/>
      <path id="DejaVuSans-73" d="M 2834 3397 
L 2834 2853 
Q 2591 2978 2328 3040 
Q 2066 3103 1784 3103 
Q 1356 3103 1142 2972 
Q 928 2841 928 2578 
Q 928 2378 1081 2264 
Q 1234 2150 1697 2047 
L 1894 2003 
Q 2506 1872 2764 1633 
Q 3022 1394 3022 966 
Q 3022 478 2636 193 
Q 2250 -91 1575 -91 
Q 1294 -91 989 -36 
Q 684 19 347 128 
L 347 722 
Q 666 556 975 473 
Q 1284 391 1588 391 
Q 1994 391 2212 530 
Q 2431 669 2431 922 
Q 2431 1156 2273 1281 
Q 2116 1406 1581 1522 
L 1381 1569 
Q 847 1681 609 1914 
Q 372 2147 372 2553 
Q 372 3047 722 3315 
Q 1072 3584 1716 3584 
Q 2034 3584 2315 3537 
Q 2597 3491 2834 3397 
z
" transform="scale(0.015625)"/>
     </defs>
     <use xlink:href="#DejaVuSans-53"/>
     <use xlink:href="#DejaVuSans-61" x="63.476562"/>
     <use xlink:href="#DejaVuSans-6d" x="124.755859"/>
     <use xlink:href="#DejaVuSans-62" x="222.167969"/>
     <use xlink:href="#DejaVuSans-61" x="285.644531"/>
     <use xlink:href="#DejaVuSans-76" x="346.923828"/>
     <use xlink:href="#DejaVuSans-61" x="406.103516"/>
     <use xlink:href="#DejaVuSans-20" x="467.382812"/>
     <use xlink:href="#DejaVuSans-2d" x="499.169922"/>
     <use xlink:href="#DejaVuSans-20" x="535.253906"/>
     <use xlink:href="#DejaVuSans-70" x="567.041016"/>
     <use xlink:href="#DejaVuSans-6f" x="630.517578"/>
     <use xlink:href="#DejaVuSans-70" x="691.699219"/>
     <use xlink:href="#DejaVuSans-75" x="755.175781"/>
     <use xlink:href="#DejaVuSans-6c" x="818.554688"/>
     <use xlink:href="#DejaVuSans-61" x="846.337891"/>
     <use xlink:href="#DejaVuSans-74" x="907.617188"/>
     <use xlink:href="#DejaVuSans-69" x="946.826172"/>
     <use xlink:href="#DejaVuSans-6f" x="974.609375"/>
     <use xlink:href="#DejaVuSans-6e" x="1035.791016"/>
     <use xlink:href="#DejaVuSans-20" x="1099.169922"/>
     <use xlink:href="#DejaVuSans-63" x="1130.957031"/>
     <use xlink:href="#DejaVuSans-68" x="1185.9375"/>
     <use xlink:href="#DejaVuSans-61" x="1249.316406"/>
     <use xlink:href="#DejaVuSans-6e" x="1310.595703"/>
     <use xlink:href="#DejaVuSans-67" x="1373.974609"/>
     <use xlink:href="#DejaVuSans-65" x="1437.451172"/>
     <use xlink:href="#DejaVuSans-20" x="1498.974609"/>
     <use xlink:href="#DejaVuSans-74" x="1530.761719"/>
     <use xlink:href="#DejaVuSans-72" x="1569.970703"/>
     <use xlink:href="#DejaVuSans-65" x="1608.833984"/>
     <use xlink:href="#DejaVuSans-6e" x="1670.357422"/>
     <use xlink:href="#DejaVuSans-64" x="1733.736328"/>
     <use xlink:href="#DejaVuSans-73" x="1797.212891"/>
    </g>
   </g>
  </g>
 </g>
 <defs>
  <clipPath id="paf058cf07a">
   <rect x="40.034375" y="22.318125" width="305.565625" height="162.60375"/>
  </clipPath>
 </defs>
</svg>
