<?xml version="1.0" encoding="utf-8" standalone="no"?>
<!DOCTYPE svg PUBLIC "-//W3C//DTD SVG 1.1//EN"
  "http://www.w3.org/Graphics/SVG/1.1/DTD/svg11.dtd">
<svg xmlns:xlink="http://www.w3.org/1999/xlink" width="352.8pt" height="208.8pt" viewBox="0 0 352.8 208.8" xmlns="http://www.w3.org/2000/svg" version="1.1">
 <metadata>
  <rdf:RDF xmlns:dc="http://purl.org/dc/elements/1.1/" xmlns:cc="http://creativecommons.org/ns#" xmlns:rdf="http://www.w3.org/1999/02/22-rdf-syntax-ns#">
   <cc:Work>
    <dc:type rdf:resource="http://purl.org/dc/dcmitype/StillImage"/>
    <dc:date>2024-04-08T09:07:09.679671</dc:date>
    <dc:format>image/svg+xml</dc:format>
    <dc:creator>
     <cc:Agent>
      <dc:title>Matplotlib v3.8.3, https://matplotlib.org/</dc:title>
     </cc:Agent>
    </dc:creator>
   </cc:Work>
  </rdf:RDF>
 </metadata>
 <defs>
  <style type="text/css">*{stroke-linejoin: round; stroke-linecap: butt}</style>
 </defs>
 <g id="figure_1">
  <g id="patch_1">
   <path d="M 0 208.8 
L 352.8 208.8 
L 352.8 0 
L 0 0 
L 0 208.8 
z
" style="fill: none"/>
  </g>
  <g id="axes_1">
   <g id="patch_2">
    <path d="M 40.034375 184.921875 
L 345.6 184.921875 
L 345.6 22.318125 
L 40.034375 22.318125 
L 40.034375 184.921875 
z
" style="fill: none; opacity: 0"/>
   </g>
   <g id="PolyCollection_1"/>
   <g id="PolyCollection_2">
    <defs>
     <path id="m218d28f11d" d="M 53.923722 -80.789438 
L 53.923722 -80.789438 
L 54.852775 -76.170801 
L 55.781828 -71.860045 
L 56.710881 -67.84891 
L 57.639935 -64.129142 
L 58.568988 -60.692482 
L 59.498041 -57.530674 
L 60.427095 -54.63546 
L 61.356148 -51.998585 
L 62.285201 -49.611791 
L 63.214254 -47.46682 
L 64.143308 -45.555417 
L 65.072361 -43.869325 
L 66.001414 -42.400286 
L 66.930468 -41.140043 
L 67.859521 -40.08034 
L 68.788574 -39.212919 
L 69.717627 -38.529525 
L 70.646681 -38.021899 
L 71.575734 -37.681785 
L 72.504787 -37.500926 
L 73.433841 -37.471065 
L 74.362894 -37.583946 
L 75.291947 -37.831311 
L 76.221 -38.204903 
L 77.150054 -38.696466 
L 78.079107 -39.297742 
L 79.00816 -40.000475 
L 79.937214 -40.796408 
L 80.866267 -41.677284 
L 81.79532 -42.634845 
L 82.724373 -43.660836 
L 83.653427 -44.746999 
L 84.58248 -45.885077 
L 85.511533 -47.066813 
L 86.440587 -48.283951 
L 87.36964 -49.528233 
L 88.298693 -50.791403 
L 89.227746 -52.065204 
L 90.1568 -53.341378 
L 91.085853 -54.611669 
L 92.014906 -55.86782 
L 92.94396 -57.101574 
L 93.873013 -58.304675 
L 94.802066 -59.468864 
L 95.731119 -60.585886 
L 96.660173 -61.647483 
L 97.589226 -62.645399 
L 98.518279 -63.571377 
L 99.447332 -64.417159 
L 100.376386 -65.174488 
L 101.305439 -65.835109 
L 102.234492 -66.390764 
L 103.163546 -66.833195 
L 104.092599 -67.154147 
L 105.021652 -67.346151 
L 105.950705 -67.411999 
L 106.879759 -67.361656 
L 107.808812 -67.205236 
L 108.737865 -66.952852 
L 109.666919 -66.614617 
L 110.595972 -66.200644 
L 111.525025 -65.721047 
L 112.454078 -65.185938 
L 113.383132 -64.605431 
L 114.312185 -63.98964 
L 115.241238 -63.348676 
L 116.170292 -62.692654 
L 117.099345 -62.031687 
L 118.028398 -61.375887 
L 118.957451 -60.735368 
L 119.886505 -60.120243 
L 120.815558 -59.540626 
L 121.744611 -59.006629 
L 122.673665 -58.528366 
L 123.602718 -58.11595 
L 124.531771 -57.779493 
L 125.460824 -57.52911 
L 126.389878 -57.374914 
L 127.318931 -57.327017 
L 128.247984 -57.395532 
L 129.177038 -57.590574 
L 130.106091 -57.92196 
L 131.035144 -58.391031 
L 131.964197 -58.989578 
L 132.893251 -59.708888 
L 133.822304 -60.540242 
L 134.751357 -61.474926 
L 135.680411 -62.504223 
L 136.609464 -63.619416 
L 137.538517 -64.811791 
L 138.46757 -66.072631 
L 139.396624 -67.393219 
L 140.325677 -68.764839 
L 141.25473 -70.178777 
L 142.183784 -71.626314 
L 143.112837 -73.098736 
L 144.04189 -74.587326 
L 144.970943 -76.083368 
L 145.899997 -77.578147 
L 146.82905 -79.062945 
L 147.758103 -80.529047 
L 148.687157 -81.967736 
L 149.61621 -83.370297 
L 150.545263 -84.728014 
L 151.474316 -86.03217 
L 152.40337 -87.27405 
L 153.332423 -88.444937 
L 154.261476 -89.536114 
L 155.19053 -90.538905 
L 156.119583 -91.448328 
L 157.048636 -92.266151 
L 157.977689 -92.99486 
L 158.906743 -93.636941 
L 159.835796 -94.194879 
L 160.764849 -94.671161 
L 161.693902 -95.068274 
L 162.622956 -95.388701 
L 163.552009 -95.634931 
L 164.481062 -95.809448 
L 165.410116 -95.914738 
L 166.339169 -95.953288 
L 167.268222 -95.927583 
L 168.197275 -95.84011 
L 169.126329 -95.693354 
L 170.055382 -95.489801 
L 170.984435 -95.231938 
L 171.913489 -94.92225 
L 172.842542 -94.563222 
L 173.771595 -94.157342 
L 174.700648 -93.707095 
L 175.629702 -93.214967 
L 176.558755 -92.683444 
L 177.487808 -92.115011 
L 178.416862 -91.512156 
L 179.345915 -90.877363 
L 180.274968 -90.213119 
L 181.204021 -89.52242 
L 182.133075 -88.809814 
L 183.062128 -88.080147 
L 183.991181 -87.338262 
L 184.920235 -86.589006 
L 185.849288 -85.837222 
L 186.778341 -85.087754 
L 187.707394 -84.345448 
L 188.636448 -83.615149 
L 189.565501 -82.9017 
L 190.494554 -82.209947 
L 191.423608 -81.544734 
L 192.352661 -80.910906 
L 193.281714 -80.313307 
L 194.210767 -79.756783 
L 195.139821 -79.246177 
L 196.068874 -78.786335 
L 196.997927 -78.3821 
L 197.926981 -78.038319 
L 198.856034 -77.759835 
L 199.785087 -77.551492 
L 200.71414 -77.418137 
L 201.643194 -77.364612 
L 202.572247 -77.395764 
L 203.5013 -77.516436 
L 204.430354 -77.731473 
L 205.359407 -78.04572 
L 206.28846 -78.462451 
L 207.217513 -78.97668 
L 208.146567 -79.580712 
L 209.07562 -80.266851 
L 210.004673 -81.027401 
L 210.933727 -81.854668 
L 211.86278 -82.740954 
L 212.791833 -83.678566 
L 213.720886 -84.659805 
L 214.64994 -85.676978 
L 215.578993 -86.722388 
L 216.508046 -87.78834 
L 217.4371 -88.867137 
L 218.366153 -89.951084 
L 219.295206 -91.032486 
L 220.224259 -92.103647 
L 221.153313 -93.15687 
L 222.082366 -94.18446 
L 223.011419 -95.178722 
L 223.940473 -96.131959 
L 224.869526 -97.036477 
L 225.798579 -97.884579 
L 226.727632 -98.668569 
L 227.656686 -99.380752 
L 228.585739 -100.013432 
L 229.514792 -100.558913 
L 230.443845 -101.0095 
L 231.372899 -101.358355 
L 232.301952 -101.606711 
L 233.231005 -101.760217 
L 234.160059 -101.824572 
L 235.089112 -101.805474 
L 236.018165 -101.708617 
L 236.947218 -101.539701 
L 237.876272 -101.304423 
L 238.805325 -101.008478 
L 239.734378 -100.657565 
L 240.663432 -100.25738 
L 241.592485 -99.813621 
L 242.521538 -99.331984 
L 243.450591 -98.818168 
L 244.379645 -98.277869 
L 245.308698 -97.716783 
L 246.237751 -97.140609 
L 247.166805 -96.555044 
L 248.095858 -95.965783 
L 249.024911 -95.378526 
L 249.953964 -94.798968 
L 250.883018 -94.232807 
L 251.812071 -93.68574 
L 252.741124 -93.163465 
L 253.670178 -92.671677 
L 254.599231 -92.216075 
L 255.528284 -91.802355 
L 256.457337 -91.435993 
L 257.386391 -91.118283 
L 258.315444 -90.846812 
L 259.244497 -90.619036 
L 260.173551 -90.432413 
L 261.102604 -90.284398 
L 262.031657 -90.17245 
L 262.96071 -90.094023 
L 263.889764 -90.046576 
L 264.818817 -90.027565 
L 265.74787 -90.034446 
L 266.676924 -90.064677 
L 267.605977 -90.115714 
L 268.53503 -90.185014 
L 269.464083 -90.270034 
L 270.393137 -90.368229 
L 271.32219 -90.477058 
L 272.251243 -90.593977 
L 273.180297 -90.716443 
L 274.10935 -90.841911 
L 275.038403 -90.96784 
L 275.967456 -91.091685 
L 276.89651 -91.210905 
L 277.825563 -91.322954 
L 278.754616 -91.42529 
L 279.68367 -91.51537 
L 280.612723 -91.590651 
L 281.541776 -91.648616 
L 282.470829 -91.688067 
L 283.399883 -91.709693 
L 284.328936 -91.714325 
L 285.257989 -91.702796 
L 286.187043 -91.675938 
L 287.116096 -91.634585 
L 288.045149 -91.579568 
L 288.974202 -91.511721 
L 289.903256 -91.431875 
L 290.832309 -91.340863 
L 291.761362 -91.239517 
L 292.690415 -91.128671 
L 293.619469 -91.009157 
L 294.548522 -90.881806 
L 295.477575 -90.747453 
L 296.406629 -90.606928 
L 297.335682 -90.461066 
L 298.264735 -90.310697 
L 299.193788 -90.156655 
L 300.122842 -89.999773 
L 301.051895 -89.840882 
L 301.980948 -89.680815 
L 302.910002 -89.520405 
L 303.839055 -89.360484 
L 304.768108 -89.201886 
L 305.697161 -89.045441 
L 306.626215 -88.891983 
L 307.555268 -88.742345 
L 308.484321 -88.597358 
L 309.413375 -88.457856 
L 310.342428 -88.32467 
L 311.271481 -88.198634 
L 312.200534 -88.08058 
L 313.129588 -87.97134 
L 314.058641 -87.871747 
L 314.987694 -87.782633 
L 315.916748 -87.704832 
L 316.845801 -87.639174 
L 317.774854 -87.586494 
L 318.703907 -87.547623 
L 319.632961 -87.523394 
L 320.562014 -87.514639 
L 321.491067 -87.522192 
L 322.420121 -87.546883 
L 323.349174 -87.589547 
L 324.278227 -87.651016 
L 325.20728 -87.732121 
L 326.136334 -87.833696 
L 327.065387 -87.956573 
L 327.99444 -88.101584 
L 328.923494 -88.269562 
L 329.852547 -88.46134 
L 330.7816 -88.67775 
L 331.710653 -88.919625 
L 331.710653 -88.919625 
L 331.710653 -105.18 
L 330.7816 -105.18 
L 329.852547 -105.18 
L 328.923494 -105.18 
L 327.99444 -105.18 
L 327.065387 -105.18 
L 326.136334 -105.18 
L 325.20728 -105.18 
L 324.278227 -105.18 
L 323.349174 -105.18 
L 322.420121 -105.18 
L 321.491067 -105.18 
L 320.562014 -105.18 
L 319.632961 -105.18 
L 318.703907 -105.18 
L 317.774854 -105.18 
L 316.845801 -105.18 
L 315.916748 -105.18 
L 314.987694 -105.18 
L 314.058641 -105.18 
L 313.129588 -105.18 
L 312.200534 -105.18 
L 311.271481 -105.18 
L 310.342428 -105.18 
L 309.413375 -105.18 
L 308.484321 -105.18 
L 307.555268 -105.18 
L 306.626215 -105.18 
L 305.697161 -105.18 
L 304.768108 -105.18 
L 303.839055 -105.18 
L 302.910002 -105.18 
L 301.980948 -105.18 
L 301.051895 -105.18 
L 300.122842 -105.18 
L 299.193788 -105.18 
L 298.264735 -105.18 
L 297.335682 -105.18 
L 296.406629 -105.18 
L 295.477575 -105.18 
L 294.548522 -105.18 
L 293.619469 -105.18 
L 292.690415 -105.18 
L 291.761362 -105.18 
L 290.832309 -105.18 
L 289.903256 -105.18 
L 288.974202 -105.18 
L 288.045149 -105.18 
L 287.116096 -105.18 
L 286.187043 -105.18 
L 285.257989 -105.18 
L 284.328936 -105.18 
L 283.399883 -105.18 
L 282.470829 -105.18 
L 281.541776 -105.18 
L 280.612723 -105.18 
L 279.68367 -105.18 
L 278.754616 -105.18 
L 277.825563 -105.18 
L 276.89651 -105.18 
L 275.967456 -105.18 
L 275.038403 -105.18 
L 274.10935 -105.18 
L 273.180297 -105.18 
L 272.251243 -105.18 
L 271.32219 -105.18 
L 270.393137 -105.18 
L 269.464083 -105.18 
L 268.53503 -105.18 
L 267.605977 -105.18 
L 266.676924 -105.18 
L 265.74787 -105.18 
L 264.818817 -105.18 
L 263.889764 -105.18 
L 262.96071 -105.18 
L 262.031657 -105.18 
L 261.102604 -105.18 
L 260.173551 -105.18 
L 259.244497 -105.18 
L 258.315444 -105.18 
L 257.386391 -105.18 
L 256.457337 -105.18 
L 255.528284 -105.18 
L 254.599231 -105.18 
L 253.670178 -105.18 
L 252.741124 -105.18 
L 251.812071 -105.18 
L 250.883018 -105.18 
L 249.953964 -105.18 
L 249.024911 -105.18 
L 248.095858 -105.18 
L 247.166805 -105.18 
L 246.237751 -105.18 
L 245.308698 -105.18 
L 244.379645 -105.18 
L 243.450591 -105.18 
L 242.521538 -105.18 
L 241.592485 -105.18 
L 240.663432 -105.18 
L 239.734378 -105.18 
L 238.805325 -105.18 
L 237.876272 -105.18 
L 236.947218 -105.18 
L 236.018165 -105.18 
L 235.089112 -105.18 
L 234.160059 -105.18 
L 233.231005 -105.18 
L 232.301952 -105.18 
L 231.372899 -105.18 
L 230.443845 -105.18 
L 229.514792 -105.18 
L 228.585739 -105.18 
L 227.656686 -105.18 
L 226.727632 -105.18 
L 225.798579 -105.18 
L 224.869526 -105.18 
L 223.940473 -105.18 
L 223.011419 -105.18 
L 222.082366 -105.18 
L 221.153313 -105.18 
L 220.224259 -105.18 
L 219.295206 -105.18 
L 218.366153 -105.18 
L 217.4371 -105.18 
L 216.508046 -105.18 
L 215.578993 -105.18 
L 214.64994 -105.18 
L 213.720886 -105.18 
L 212.791833 -105.18 
L 211.86278 -105.18 
L 210.933727 -105.18 
L 210.004673 -105.18 
L 209.07562 -105.18 
L 208.146567 -105.18 
L 207.217513 -105.18 
L 206.28846 -105.18 
L 205.359407 -105.18 
L 204.430354 -105.18 
L 203.5013 -105.18 
L 202.572247 -105.18 
L 201.643194 -105.18 
L 200.71414 -105.18 
L 199.785087 -105.18 
L 198.856034 -105.18 
L 197.926981 -105.18 
L 196.997927 -105.18 
L 196.068874 -105.18 
L 195.139821 -105.18 
L 194.210767 -105.18 
L 193.281714 -105.18 
L 192.352661 -105.18 
L 191.423608 -105.18 
L 190.494554 -105.18 
L 189.565501 -105.18 
L 188.636448 -105.18 
L 187.707394 -105.18 
L 186.778341 -105.18 
L 185.849288 -105.18 
L 184.920235 -105.18 
L 183.991181 -105.18 
L 183.062128 -105.18 
L 182.133075 -105.18 
L 181.204021 -105.18 
L 180.274968 -105.18 
L 179.345915 -105.18 
L 178.416862 -105.18 
L 177.487808 -105.18 
L 176.558755 -105.18 
L 175.629702 -105.18 
L 174.700648 -105.18 
L 173.771595 -105.18 
L 172.842542 -105.18 
L 171.913489 -105.18 
L 170.984435 -105.18 
L 170.055382 -105.18 
L 169.126329 -105.18 
L 168.197275 -105.18 
L 167.268222 -105.18 
L 166.339169 -105.18 
L 165.410116 -105.18 
L 164.481062 -105.18 
L 163.552009 -105.18 
L 162.622956 -105.18 
L 161.693902 -105.18 
L 160.764849 -105.18 
L 159.835796 -105.18 
L 158.906743 -105.18 
L 157.977689 -105.18 
L 157.048636 -105.18 
L 156.119583 -105.18 
L 155.19053 -105.18 
L 154.261476 -105.18 
L 153.332423 -105.18 
L 152.40337 -105.18 
L 151.474316 -105.18 
L 150.545263 -105.18 
L 149.61621 -105.18 
L 148.687157 -105.18 
L 147.758103 -105.18 
L 146.82905 -105.18 
L 145.899997 -105.18 
L 144.970943 -105.18 
L 144.04189 -105.18 
L 143.112837 -105.18 
L 142.183784 -105.18 
L 141.25473 -105.18 
L 140.325677 -105.18 
L 139.396624 -105.18 
L 138.46757 -105.18 
L 137.538517 -105.18 
L 136.609464 -105.18 
L 135.680411 -105.18 
L 134.751357 -105.18 
L 133.822304 -105.18 
L 132.893251 -105.18 
L 131.964197 -105.18 
L 131.035144 -105.18 
L 130.106091 -105.18 
L 129.177038 -105.18 
L 128.247984 -105.18 
L 127.318931 -105.18 
L 126.389878 -105.18 
L 125.460824 -105.18 
L 124.531771 -105.18 
L 123.602718 -105.18 
L 122.673665 -105.18 
L 121.744611 -105.18 
L 120.815558 -105.18 
L 119.886505 -105.18 
L 118.957451 -105.18 
L 118.028398 -105.18 
L 117.099345 -105.18 
L 116.170292 -105.18 
L 115.241238 -105.18 
L 114.312185 -105.18 
L 113.383132 -105.18 
L 112.454078 -105.18 
L 111.525025 -105.18 
L 110.595972 -105.18 
L 109.666919 -105.18 
L 108.737865 -105.18 
L 107.808812 -105.18 
L 106.879759 -105.18 
L 105.950705 -105.18 
L 105.021652 -105.18 
L 104.092599 -105.18 
L 103.163546 -105.18 
L 102.234492 -105.18 
L 101.305439 -105.18 
L 100.376386 -105.18 
L 99.447332 -105.18 
L 98.518279 -105.18 
L 97.589226 -105.18 
L 96.660173 -105.18 
L 95.731119 -105.18 
L 94.802066 -105.18 
L 93.873013 -105.18 
L 92.94396 -105.18 
L 92.014906 -105.18 
L 91.085853 -105.18 
L 90.1568 -105.18 
L 89.227746 -105.18 
L 88.298693 -105.18 
L 87.36964 -105.18 
L 86.440587 -105.18 
L 85.511533 -105.18 
L 84.58248 -105.18 
L 83.653427 -105.18 
L 82.724373 -105.18 
L 81.79532 -105.18 
L 80.866267 -105.18 
L 79.937214 -105.18 
L 79.00816 -105.18 
L 78.079107 -105.18 
L 77.150054 -105.18 
L 76.221 -105.18 
L 75.291947 -105.18 
L 74.362894 -105.18 
L 73.433841 -105.18 
L 72.504787 -105.18 
L 71.575734 -105.18 
L 70.646681 -105.18 
L 69.717627 -105.18 
L 68.788574 -105.18 
L 67.859521 -105.18 
L 66.930468 -105.18 
L 66.001414 -105.18 
L 65.072361 -105.18 
L 64.143308 -105.18 
L 63.214254 -105.18 
L 62.285201 -105.18 
L 61.356148 -105.18 
L 60.427095 -105.18 
L 59.498041 -105.18 
L 58.568988 -105.18 
L 57.639935 -105.18 
L 56.710881 -105.18 
L 55.781828 -105.18 
L 54.852775 -105.18 
L 53.923722 -105.18 
z
" style="stroke: #ed6b4d; stroke-opacity: 0.1"/>
    </defs>
    <g clip-path="url(#pb7e32db873)">
     <use xlink:href="#m218d28f11d" x="0" y="208.8" style="fill: #ed6b4d; fill-opacity: 0.1; stroke: #ed6b4d; stroke-opacity: 0.1"/>
    </g>
   </g>
   <g id="line2d_1">
    <defs>
     <path id="mf7cd872116" d="M 0 3 
C 0.795609 3 1.55874 2.683901 2.12132 2.12132 
C 2.683901 1.55874 3 0.795609 3 0 
C 3 -0.795609 2.683901 -1.55874 2.12132 -2.12132 
C 1.55874 -2.683901 0.795609 -3 0 -3 
C -0.795609 -3 -1.55874 -2.683901 -2.12132 -2.12132 
C -2.683901 -1.55874 -3 -0.795609 -3 0 
C -3 0.795609 -2.683901 1.55874 -2.12132 2.12132 
C -1.55874 2.683901 -0.795609 3 0 3 
z
" style="stroke: #0035a0"/>
    </defs>
    <g clip-path="url(#pb7e32db873)">
     <use xlink:href="#mf7cd872116" x="53.923722" y="128.010562" style="fill: #0035a0; stroke: #0035a0"/>
     <use xlink:href="#mf7cd872116" x="79.177079" y="168.6615" style="fill: #0035a0; stroke: #0035a0"/>
     <use xlink:href="#mf7cd872116" x="104.430436" y="141.560875" style="fill: #0035a0; stroke: #0035a0"/>
     <use xlink:href="#mf7cd872116" x="129.683794" y="151.046094" style="fill: #0035a0; stroke: #0035a0"/>
     <use xlink:href="#mf7cd872116" x="154.937151" y="118.525344" style="fill: #0035a0; stroke: #0035a0"/>
     <use xlink:href="#mf7cd872116" x="180.190509" y="118.525344" style="fill: #0035a0; stroke: #0035a0"/>
     <use xlink:href="#mf7cd872116" x="205.443866" y="130.720625" style="fill: #0035a0; stroke: #0035a0"/>
     <use xlink:href="#mf7cd872116" x="230.697224" y="107.685094" style="fill: #0035a0; stroke: #0035a0"/>
     <use xlink:href="#mf7cd872116" x="255.950581" y="117.170312" style="fill: #0035a0; stroke: #0035a0"/>
     <use xlink:href="#mf7cd872116" x="281.203939" y="117.170312" style="fill: #0035a0; stroke: #0035a0"/>
     <use xlink:href="#mf7cd872116" x="306.457296" y="119.880375" style="fill: #0035a0; stroke: #0035a0"/>
     <use xlink:href="#mf7cd872116" x="331.710653" y="119.880375" style="fill: #0035a0; stroke: #0035a0"/>
    </g>
   </g>
   <g id="line2d_2">
    <path d="M 40.034375 103.62 
L 345.6 103.62 
" clip-path="url(#pb7e32db873)" style="fill: none; stroke: #808080; stroke-width: 0.8; stroke-linecap: square"/>
   </g>
   <g id="matplotlib.axis_1">
    <g id="xtick_1">
     <g id="line2d_3">
      <defs>
       <path id="m98e8e57e23" d="M 0 0 
L 0 3.5 
" style="stroke: #000000; stroke-width: 0.8"/>
      </defs>
      <g>
       <use xlink:href="#m98e8e57e23" x="53.923722" y="184.921875" style="stroke: #000000; stroke-width: 0.8"/>
      </g>
     </g>
     <g id="text_1">
      <!-- 26 Mar -->
      <g transform="translate(36.538565 199.520312) scale(0.1 -0.1)">
       <defs>
        <path id="DejaVuSans-32" d="M 1228 531 
L 3431 531 
L 3431 0 
L 469 0 
L 469 531 
Q 828 903 1448 1529 
Q 2069 2156 2228 2338 
Q 2531 2678 2651 2914 
Q 2772 3150 2772 3378 
Q 2772 3750 2511 3984 
Q 2250 4219 1831 4219 
Q 1534 4219 1204 4116 
Q 875 4013 500 3803 
L 500 4441 
Q 881 4594 1212 4672 
Q 1544 4750 1819 4750 
Q 2544 4750 2975 4387 
Q 3406 4025 3406 3419 
Q 3406 3131 3298 2873 
Q 3191 2616 2906 2266 
Q 2828 2175 2409 1742 
Q 1991 1309 1228 531 
z
" transform="scale(0.015625)"/>
        <path id="DejaVuSans-36" d="M 2113 2584 
Q 1688 2584 1439 2293 
Q 1191 2003 1191 1497 
Q 1191 994 1439 701 
Q 1688 409 2113 409 
Q 2538 409 2786 701 
Q 3034 994 3034 1497 
Q 3034 2003 2786 2293 
Q 2538 2584 2113 2584 
z
M 3366 4563 
L 3366 3988 
Q 3128 4100 2886 4159 
Q 2644 4219 2406 4219 
Q 1781 4219 1451 3797 
Q 1122 3375 1075 2522 
Q 1259 2794 1537 2939 
Q 1816 3084 2150 3084 
Q 2853 3084 3261 2657 
Q 3669 2231 3669 1497 
Q 3669 778 3244 343 
Q 2819 -91 2113 -91 
Q 1303 -91 875 529 
Q 447 1150 447 2328 
Q 447 3434 972 4092 
Q 1497 4750 2381 4750 
Q 2619 4750 2861 4703 
Q 3103 4656 3366 4563 
z
" transform="scale(0.015625)"/>
        <path id="DejaVuSans-20" transform="scale(0.015625)"/>
        <path id="DejaVuSans-4d" d="M 628 4666 
L 1569 4666 
L 2759 1491 
L 3956 4666 
L 4897 4666 
L 4897 0 
L 4281 0 
L 4281 4097 
L 3078 897 
L 2444 897 
L 1241 4097 
L 1241 0 
L 628 0 
L 628 4666 
z
" transform="scale(0.015625)"/>
        <path id="DejaVuSans-61" d="M 2194 1759 
Q 1497 1759 1228 1600 
Q 959 1441 959 1056 
Q 959 750 1161 570 
Q 1363 391 1709 391 
Q 2188 391 2477 730 
Q 2766 1069 2766 1631 
L 2766 1759 
L 2194 1759 
z
M 3341 1997 
L 3341 0 
L 2766 0 
L 2766 531 
Q 2569 213 2275 61 
Q 1981 -91 1556 -91 
Q 1019 -91 701 211 
Q 384 513 384 1019 
Q 384 1609 779 1909 
Q 1175 2209 1959 2209 
L 2766 2209 
L 2766 2266 
Q 2766 2663 2505 2880 
Q 2244 3097 1772 3097 
Q 1472 3097 1187 3025 
Q 903 2953 641 2809 
L 641 3341 
Q 956 3463 1253 3523 
Q 1550 3584 1831 3584 
Q 2591 3584 2966 3190 
Q 3341 2797 3341 1997 
z
" transform="scale(0.015625)"/>
        <path id="DejaVuSans-72" d="M 2631 2963 
Q 2534 3019 2420 3045 
Q 2306 3072 2169 3072 
Q 1681 3072 1420 2755 
Q 1159 2438 1159 1844 
L 1159 0 
L 581 0 
L 581 3500 
L 1159 3500 
L 1159 2956 
Q 1341 3275 1631 3429 
Q 1922 3584 2338 3584 
Q 2397 3584 2469 3576 
Q 2541 3569 2628 3553 
L 2631 2963 
z
" transform="scale(0.015625)"/>
       </defs>
       <use xlink:href="#DejaVuSans-32"/>
       <use xlink:href="#DejaVuSans-36" x="63.623047"/>
       <use xlink:href="#DejaVuSans-20" x="127.246094"/>
       <use xlink:href="#DejaVuSans-4d" x="159.033203"/>
       <use xlink:href="#DejaVuSans-61" x="245.3125"/>
       <use xlink:href="#DejaVuSans-72" x="306.591797"/>
      </g>
     </g>
    </g>
    <g id="xtick_2">
     <g id="line2d_4">
      <g>
       <use xlink:href="#m98e8e57e23" x="104.430436" y="184.921875" style="stroke: #000000; stroke-width: 0.8"/>
      </g>
     </g>
     <g id="text_2">
      <!-- 28 Mar -->
      <g transform="translate(87.04528 199.520312) scale(0.1 -0.1)">
       <defs>
        <path id="DejaVuSans-38" d="M 2034 2216 
Q 1584 2216 1326 1975 
Q 1069 1734 1069 1313 
Q 1069 891 1326 650 
Q 1584 409 2034 409 
Q 2484 409 2743 651 
Q 3003 894 3003 1313 
Q 3003 1734 2745 1975 
Q 2488 2216 2034 2216 
z
M 1403 2484 
Q 997 2584 770 2862 
Q 544 3141 544 3541 
Q 544 4100 942 4425 
Q 1341 4750 2034 4750 
Q 2731 4750 3128 4425 
Q 3525 4100 3525 3541 
Q 3525 3141 3298 2862 
Q 3072 2584 2669 2484 
Q 3125 2378 3379 2068 
Q 3634 1759 3634 1313 
Q 3634 634 3220 271 
Q 2806 -91 2034 -91 
Q 1263 -91 848 271 
Q 434 634 434 1313 
Q 434 1759 690 2068 
Q 947 2378 1403 2484 
z
M 1172 3481 
Q 1172 3119 1398 2916 
Q 1625 2713 2034 2713 
Q 2441 2713 2670 2916 
Q 2900 3119 2900 3481 
Q 2900 3844 2670 4047 
Q 2441 4250 2034 4250 
Q 1625 4250 1398 4047 
Q 1172 3844 1172 3481 
z
" transform="scale(0.015625)"/>
       </defs>
       <use xlink:href="#DejaVuSans-32"/>
       <use xlink:href="#DejaVuSans-38" x="63.623047"/>
       <use xlink:href="#DejaVuSans-20" x="127.246094"/>
       <use xlink:href="#DejaVuSans-4d" x="159.033203"/>
       <use xlink:href="#DejaVuSans-61" x="245.3125"/>
       <use xlink:href="#DejaVuSans-72" x="306.591797"/>
      </g>
     </g>
    </g>
    <g id="xtick_3">
     <g id="line2d_5">
      <g>
       <use xlink:href="#m98e8e57e23" x="154.937151" y="184.921875" style="stroke: #000000; stroke-width: 0.8"/>
      </g>
     </g>
     <g id="text_3">
      <!-- 30 Mar -->
      <g transform="translate(137.551995 199.520312) scale(0.1 -0.1)">
       <defs>
        <path id="DejaVuSans-33" d="M 2597 2516 
Q 3050 2419 3304 2112 
Q 3559 1806 3559 1356 
Q 3559 666 3084 287 
Q 2609 -91 1734 -91 
Q 1441 -91 1130 -33 
Q 819 25 488 141 
L 488 750 
Q 750 597 1062 519 
Q 1375 441 1716 441 
Q 2309 441 2620 675 
Q 2931 909 2931 1356 
Q 2931 1769 2642 2001 
Q 2353 2234 1838 2234 
L 1294 2234 
L 1294 2753 
L 1863 2753 
Q 2328 2753 2575 2939 
Q 2822 3125 2822 3475 
Q 2822 3834 2567 4026 
Q 2313 4219 1838 4219 
Q 1578 4219 1281 4162 
Q 984 4106 628 3988 
L 628 4550 
Q 988 4650 1302 4700 
Q 1616 4750 1894 4750 
Q 2613 4750 3031 4423 
Q 3450 4097 3450 3541 
Q 3450 3153 3228 2886 
Q 3006 2619 2597 2516 
z
" transform="scale(0.015625)"/>
        <path id="DejaVuSans-30" d="M 2034 4250 
Q 1547 4250 1301 3770 
Q 1056 3291 1056 2328 
Q 1056 1369 1301 889 
Q 1547 409 2034 409 
Q 2525 409 2770 889 
Q 3016 1369 3016 2328 
Q 3016 3291 2770 3770 
Q 2525 4250 2034 4250 
z
M 2034 4750 
Q 2819 4750 3233 4129 
Q 3647 3509 3647 2328 
Q 3647 1150 3233 529 
Q 2819 -91 2034 -91 
Q 1250 -91 836 529 
Q 422 1150 422 2328 
Q 422 3509 836 4129 
Q 1250 4750 2034 4750 
z
" transform="scale(0.015625)"/>
       </defs>
       <use xlink:href="#DejaVuSans-33"/>
       <use xlink:href="#DejaVuSans-30" x="63.623047"/>
       <use xlink:href="#DejaVuSans-20" x="127.246094"/>
       <use xlink:href="#DejaVuSans-4d" x="159.033203"/>
       <use xlink:href="#DejaVuSans-61" x="245.3125"/>
       <use xlink:href="#DejaVuSans-72" x="306.591797"/>
      </g>
     </g>
    </g>
    <g id="xtick_4">
     <g id="line2d_6">
      <g>
       <use xlink:href="#m98e8e57e23" x="205.443866" y="184.921875" style="stroke: #000000; stroke-width: 0.8"/>
      </g>
     </g>
     <g id="text_4">
      <!-- 01 Apr -->
      <g transform="translate(188.842304 199.520312) scale(0.1 -0.1)">
       <defs>
        <path id="DejaVuSans-31" d="M 794 531 
L 1825 531 
L 1825 4091 
L 703 3866 
L 703 4441 
L 1819 4666 
L 2450 4666 
L 2450 531 
L 3481 531 
L 3481 0 
L 794 0 
L 794 531 
z
" transform="scale(0.015625)"/>
        <path id="DejaVuSans-41" d="M 2188 4044 
L 1331 1722 
L 3047 1722 
L 2188 4044 
z
M 1831 4666 
L 2547 4666 
L 4325 0 
L 3669 0 
L 3244 1197 
L 1141 1197 
L 716 0 
L 50 0 
L 1831 4666 
z
" transform="scale(0.015625)"/>
        <path id="DejaVuSans-70" d="M 1159 525 
L 1159 -1331 
L 581 -1331 
L 581 3500 
L 1159 3500 
L 1159 2969 
Q 1341 3281 1617 3432 
Q 1894 3584 2278 3584 
Q 2916 3584 3314 3078 
Q 3713 2572 3713 1747 
Q 3713 922 3314 415 
Q 2916 -91 2278 -91 
Q 1894 -91 1617 61 
Q 1341 213 1159 525 
z
M 3116 1747 
Q 3116 2381 2855 2742 
Q 2594 3103 2138 3103 
Q 1681 3103 1420 2742 
Q 1159 2381 1159 1747 
Q 1159 1113 1420 752 
Q 1681 391 2138 391 
Q 2594 391 2855 752 
Q 3116 1113 3116 1747 
z
" transform="scale(0.015625)"/>
       </defs>
       <use xlink:href="#DejaVuSans-30"/>
       <use xlink:href="#DejaVuSans-31" x="63.623047"/>
       <use xlink:href="#DejaVuSans-20" x="127.246094"/>
       <use xlink:href="#DejaVuSans-41" x="159.033203"/>
       <use xlink:href="#DejaVuSans-70" x="227.441406"/>
       <use xlink:href="#DejaVuSans-72" x="290.917969"/>
      </g>
     </g>
    </g>
    <g id="xtick_5">
     <g id="line2d_7">
      <g>
       <use xlink:href="#m98e8e57e23" x="255.950581" y="184.921875" style="stroke: #000000; stroke-width: 0.8"/>
      </g>
     </g>
     <g id="text_5">
      <!-- 03 Apr -->
      <g transform="translate(239.349019 199.520312) scale(0.1 -0.1)">
       <use xlink:href="#DejaVuSans-30"/>
       <use xlink:href="#DejaVuSans-33" x="63.623047"/>
       <use xlink:href="#DejaVuSans-20" x="127.246094"/>
       <use xlink:href="#DejaVuSans-41" x="159.033203"/>
       <use xlink:href="#DejaVuSans-70" x="227.441406"/>
       <use xlink:href="#DejaVuSans-72" x="290.917969"/>
      </g>
     </g>
    </g>
    <g id="xtick_6">
     <g id="line2d_8">
      <g>
       <use xlink:href="#m98e8e57e23" x="306.457296" y="184.921875" style="stroke: #000000; stroke-width: 0.8"/>
      </g>
     </g>
     <g id="text_6">
      <!-- 05 Apr -->
      <g transform="translate(289.855733 199.520312) scale(0.1 -0.1)">
       <defs>
        <path id="DejaVuSans-35" d="M 691 4666 
L 3169 4666 
L 3169 4134 
L 1269 4134 
L 1269 2991 
Q 1406 3038 1543 3061 
Q 1681 3084 1819 3084 
Q 2600 3084 3056 2656 
Q 3513 2228 3513 1497 
Q 3513 744 3044 326 
Q 2575 -91 1722 -91 
Q 1428 -91 1123 -41 
Q 819 9 494 109 
L 494 744 
Q 775 591 1075 516 
Q 1375 441 1709 441 
Q 2250 441 2565 725 
Q 2881 1009 2881 1497 
Q 2881 1984 2565 2268 
Q 2250 2553 1709 2553 
Q 1456 2553 1204 2497 
Q 953 2441 691 2322 
L 691 4666 
z
" transform="scale(0.015625)"/>
       </defs>
       <use xlink:href="#DejaVuSans-30"/>
       <use xlink:href="#DejaVuSans-35" x="63.623047"/>
       <use xlink:href="#DejaVuSans-20" x="127.246094"/>
       <use xlink:href="#DejaVuSans-41" x="159.033203"/>
       <use xlink:href="#DejaVuSans-70" x="227.441406"/>
       <use xlink:href="#DejaVuSans-72" x="290.917969"/>
      </g>
     </g>
    </g>
   </g>
   <g id="matplotlib.axis_2">
    <g id="ytick_1">
     <g id="text_7">
      <!-- -50% -->
      <g transform="translate(7.2 175.170781) scale(0.1 -0.1)">
       <defs>
        <path id="DejaVuSans-2d" d="M 313 2009 
L 1997 2009 
L 1997 1497 
L 313 1497 
L 313 2009 
z
" transform="scale(0.015625)"/>
        <path id="DejaVuSans-25" d="M 4653 2053 
Q 4381 2053 4226 1822 
Q 4072 1591 4072 1178 
Q 4072 772 4226 539 
Q 4381 306 4653 306 
Q 4919 306 5073 539 
Q 5228 772 5228 1178 
Q 5228 1588 5073 1820 
Q 4919 2053 4653 2053 
z
M 4653 2450 
Q 5147 2450 5437 2106 
Q 5728 1763 5728 1178 
Q 5728 594 5436 251 
Q 5144 -91 4653 -91 
Q 4153 -91 3862 251 
Q 3572 594 3572 1178 
Q 3572 1766 3864 2108 
Q 4156 2450 4653 2450 
z
M 1428 4353 
Q 1159 4353 1004 4120 
Q 850 3888 850 3481 
Q 850 3069 1003 2837 
Q 1156 2606 1428 2606 
Q 1700 2606 1854 2837 
Q 2009 3069 2009 3481 
Q 2009 3884 1853 4118 
Q 1697 4353 1428 4353 
z
M 4250 4750 
L 4750 4750 
L 1831 -91 
L 1331 -91 
L 4250 4750 
z
M 1428 4750 
Q 1922 4750 2215 4408 
Q 2509 4066 2509 3481 
Q 2509 2891 2217 2550 
Q 1925 2209 1428 2209 
Q 931 2209 642 2551 
Q 353 2894 353 3481 
Q 353 4063 643 4406 
Q 934 4750 1428 4750 
z
" transform="scale(0.015625)"/>
       </defs>
       <use xlink:href="#DejaVuSans-2d"/>
       <use xlink:href="#DejaVuSans-35" x="36.083984"/>
       <use xlink:href="#DejaVuSans-30" x="99.707031"/>
       <use xlink:href="#DejaVuSans-25" x="163.330078"/>
      </g>
     </g>
    </g>
    <g id="ytick_2">
     <g id="text_8">
      <!-- -25% -->
      <g transform="translate(7.2 141.295) scale(0.1 -0.1)">
       <use xlink:href="#DejaVuSans-2d"/>
       <use xlink:href="#DejaVuSans-32" x="36.083984"/>
       <use xlink:href="#DejaVuSans-35" x="99.707031"/>
       <use xlink:href="#DejaVuSans-25" x="163.330078"/>
      </g>
     </g>
    </g>
    <g id="ytick_3">
     <g id="text_9">
      <!-- 0% -->
      <g transform="translate(17.170313 107.419219) scale(0.1 -0.1)">
       <use xlink:href="#DejaVuSans-30"/>
       <use xlink:href="#DejaVuSans-25" x="63.623047"/>
      </g>
     </g>
    </g>
    <g id="ytick_4">
     <g id="text_10">
      <!-- 25% -->
      <g transform="translate(10.807813 73.543437) scale(0.1 -0.1)">
       <use xlink:href="#DejaVuSans-32"/>
       <use xlink:href="#DejaVuSans-35" x="63.623047"/>
       <use xlink:href="#DejaVuSans-25" x="127.246094"/>
      </g>
     </g>
    </g>
    <g id="ytick_5">
     <g id="text_11">
      <!-- 50% -->
      <g transform="translate(10.807813 39.667656) scale(0.1 -0.1)">
       <use xlink:href="#DejaVuSans-35"/>
       <use xlink:href="#DejaVuSans-30" x="63.623047"/>
       <use xlink:href="#DejaVuSans-25" x="127.246094"/>
      </g>
     </g>
    </g>
   </g>
   <g id="line2d_9">
    <path d="M 53.923722 128.010562 
L 55.781828 136.939955 
L 57.639935 144.670858 
L 59.498041 151.269326 
L 61.356148 156.801415 
L 63.214254 161.33318 
L 65.072361 164.930675 
L 66.001414 166.399714 
L 66.930468 167.659957 
L 67.859521 168.71966 
L 68.788574 169.587081 
L 69.717627 170.270475 
L 70.646681 170.778101 
L 71.575734 171.118215 
L 72.504787 171.299074 
L 73.433841 171.328935 
L 74.362894 171.216054 
L 75.291947 170.968689 
L 77.150054 170.103534 
L 79.00816 168.799525 
L 80.866267 167.122716 
L 82.724373 165.139164 
L 85.511533 161.733187 
L 89.227746 156.734796 
L 93.873013 150.495325 
L 96.660173 147.152517 
L 98.518279 145.228623 
L 100.376386 143.625512 
L 102.234492 142.409236 
L 104.092599 141.645853 
L 105.021652 141.453849 
L 105.950705 141.388001 
L 107.808812 141.594764 
L 109.666919 142.185383 
L 111.525025 143.078953 
L 114.312185 144.81036 
L 120.815558 149.259374 
L 122.673665 150.271634 
L 124.531771 151.020507 
L 126.389878 151.425086 
L 127.318931 151.472983 
L 128.247984 151.404468 
L 129.177038 151.209426 
L 130.106091 150.87804 
L 131.035144 150.408969 
L 132.893251 149.091112 
L 134.751357 147.325074 
L 136.609464 145.180584 
L 138.46757 142.727369 
L 141.25473 138.621223 
L 146.82905 129.737055 
L 150.545263 124.071986 
L 152.40337 121.52595 
L 154.261476 119.263886 
L 156.119583 117.351672 
L 157.977689 115.80514 
L 159.835796 114.605121 
L 161.693902 113.731726 
L 163.552009 113.165069 
L 165.410116 112.885262 
L 167.268222 112.872417 
L 169.126329 113.106646 
L 170.984435 113.568062 
L 172.842542 114.236778 
L 174.700648 115.092905 
L 177.487808 116.684989 
L 180.274968 118.586881 
L 183.991181 121.461738 
L 190.494554 126.590053 
L 193.281714 128.486693 
L 195.139821 129.553823 
L 196.997927 130.4179 
L 198.856034 131.040165 
L 200.71414 131.381863 
L 202.572247 131.404236 
L 204.430354 131.068527 
L 206.28846 130.337549 
L 208.146567 129.219288 
L 210.004673 127.772599 
L 211.86278 126.059046 
L 214.64994 123.123022 
L 224.869526 111.763523 
L 226.727632 110.131431 
L 228.585739 108.786568 
L 230.443845 107.7905 
L 232.301952 107.193289 
L 234.160059 106.975428 
L 236.018165 107.091383 
L 237.876272 107.495577 
L 239.734378 108.142435 
L 241.592485 108.986379 
L 244.379645 110.522131 
L 254.599231 116.583925 
L 256.457337 117.364007 
L 258.315444 117.953188 
L 260.173551 118.367587 
L 262.96071 118.705977 
L 265.74787 118.765554 
L 268.53503 118.614986 
L 273.180297 118.083557 
L 279.68367 117.28463 
L 283.399883 117.090307 
L 287.116096 117.165415 
L 290.832309 117.459137 
L 295.477575 118.052547 
L 302.910002 119.279595 
L 310.342428 120.47533 
L 314.987694 121.017367 
L 318.703907 121.252377 
L 322.420121 121.253117 
L 325.20728 121.067879 
L 327.99444 120.698416 
L 330.7816 120.12225 
L 331.710653 119.880375 
L 331.710653 119.880375 
" clip-path="url(#pb7e32db873)" style="fill: none; stroke: #0035a0; stroke-width: 3; stroke-linecap: round"/>
   </g>
   <g id="text_12">
    <!-- Sambava - population change trends -->
    <g transform="translate(81.8575 16.318125) scale(0.12 -0.12)">
     <defs>
      <path id="DejaVuSans-53" d="M 3425 4513 
L 3425 3897 
Q 3066 4069 2747 4153 
Q 2428 4238 2131 4238 
Q 1616 4238 1336 4038 
Q 1056 3838 1056 3469 
Q 1056 3159 1242 3001 
Q 1428 2844 1947 2747 
L 2328 2669 
Q 3034 2534 3370 2195 
Q 3706 1856 3706 1288 
Q 3706 609 3251 259 
Q 2797 -91 1919 -91 
Q 1588 -91 1214 -16 
Q 841 59 441 206 
L 441 856 
Q 825 641 1194 531 
Q 1563 422 1919 422 
Q 2459 422 2753 634 
Q 3047 847 3047 1241 
Q 3047 1584 2836 1778 
Q 2625 1972 2144 2069 
L 1759 2144 
Q 1053 2284 737 2584 
Q 422 2884 422 3419 
Q 422 4038 858 4394 
Q 1294 4750 2059 4750 
Q 2388 4750 2728 4690 
Q 3069 4631 3425 4513 
z
" transform="scale(0.015625)"/>
      <path id="DejaVuSans-6d" d="M 3328 2828 
Q 3544 3216 3844 3400 
Q 4144 3584 4550 3584 
Q 5097 3584 5394 3201 
Q 5691 2819 5691 2113 
L 5691 0 
L 5113 0 
L 5113 2094 
Q 5113 2597 4934 2840 
Q 4756 3084 4391 3084 
Q 3944 3084 3684 2787 
Q 3425 2491 3425 1978 
L 3425 0 
L 2847 0 
L 2847 2094 
Q 2847 2600 2669 2842 
Q 2491 3084 2119 3084 
Q 1678 3084 1418 2786 
Q 1159 2488 1159 1978 
L 1159 0 
L 581 0 
L 581 3500 
L 1159 3500 
L 1159 2956 
Q 1356 3278 1631 3431 
Q 1906 3584 2284 3584 
Q 2666 3584 2933 3390 
Q 3200 3197 3328 2828 
z
" transform="scale(0.015625)"/>
      <path id="DejaVuSans-62" d="M 3116 1747 
Q 3116 2381 2855 2742 
Q 2594 3103 2138 3103 
Q 1681 3103 1420 2742 
Q 1159 2381 1159 1747 
Q 1159 1113 1420 752 
Q 1681 391 2138 391 
Q 2594 391 2855 752 
Q 3116 1113 3116 1747 
z
M 1159 2969 
Q 1341 3281 1617 3432 
Q 1894 3584 2278 3584 
Q 2916 3584 3314 3078 
Q 3713 2572 3713 1747 
Q 3713 922 3314 415 
Q 2916 -91 2278 -91 
Q 1894 -91 1617 61 
Q 1341 213 1159 525 
L 1159 0 
L 581 0 
L 581 4863 
L 1159 4863 
L 1159 2969 
z
" transform="scale(0.015625)"/>
      <path id="DejaVuSans-76" d="M 191 3500 
L 800 3500 
L 1894 563 
L 2988 3500 
L 3597 3500 
L 2284 0 
L 1503 0 
L 191 3500 
z
" transform="scale(0.015625)"/>
      <path id="DejaVuSans-6f" d="M 1959 3097 
Q 1497 3097 1228 2736 
Q 959 2375 959 1747 
Q 959 1119 1226 758 
Q 1494 397 1959 397 
Q 2419 397 2687 759 
Q 2956 1122 2956 1747 
Q 2956 2369 2687 2733 
Q 2419 3097 1959 3097 
z
M 1959 3584 
Q 2709 3584 3137 3096 
Q 3566 2609 3566 1747 
Q 3566 888 3137 398 
Q 2709 -91 1959 -91 
Q 1206 -91 779 398 
Q 353 888 353 1747 
Q 353 2609 779 3096 
Q 1206 3584 1959 3584 
z
" transform="scale(0.015625)"/>
      <path id="DejaVuSans-75" d="M 544 1381 
L 544 3500 
L 1119 3500 
L 1119 1403 
Q 1119 906 1312 657 
Q 1506 409 1894 409 
Q 2359 409 2629 706 
Q 2900 1003 2900 1516 
L 2900 3500 
L 3475 3500 
L 3475 0 
L 2900 0 
L 2900 538 
Q 2691 219 2414 64 
Q 2138 -91 1772 -91 
Q 1169 -91 856 284 
Q 544 659 544 1381 
z
M 1991 3584 
L 1991 3584 
z
" transform="scale(0.015625)"/>
      <path id="DejaVuSans-6c" d="M 603 4863 
L 1178 4863 
L 1178 0 
L 603 0 
L 603 4863 
z
" transform="scale(0.015625)"/>
      <path id="DejaVuSans-74" d="M 1172 4494 
L 1172 3500 
L 2356 3500 
L 2356 3053 
L 1172 3053 
L 1172 1153 
Q 1172 725 1289 603 
Q 1406 481 1766 481 
L 2356 481 
L 2356 0 
L 1766 0 
Q 1100 0 847 248 
Q 594 497 594 1153 
L 594 3053 
L 172 3053 
L 172 3500 
L 594 3500 
L 594 4494 
L 1172 4494 
z
" transform="scale(0.015625)"/>
      <path id="DejaVuSans-69" d="M 603 3500 
L 1178 3500 
L 1178 0 
L 603 0 
L 603 3500 
z
M 603 4863 
L 1178 4863 
L 1178 4134 
L 603 4134 
L 603 4863 
z
" transform="scale(0.015625)"/>
      <path id="DejaVuSans-6e" d="M 3513 2113 
L 3513 0 
L 2938 0 
L 2938 2094 
Q 2938 2591 2744 2837 
Q 2550 3084 2163 3084 
Q 1697 3084 1428 2787 
Q 1159 2491 1159 1978 
L 1159 0 
L 581 0 
L 581 3500 
L 1159 3500 
L 1159 2956 
Q 1366 3272 1645 3428 
Q 1925 3584 2291 3584 
Q 2894 3584 3203 3211 
Q 3513 2838 3513 2113 
z
" transform="scale(0.015625)"/>
      <path id="DejaVuSans-63" d="M 3122 3366 
L 3122 2828 
Q 2878 2963 2633 3030 
Q 2388 3097 2138 3097 
Q 1578 3097 1268 2742 
Q 959 2388 959 1747 
Q 959 1106 1268 751 
Q 1578 397 2138 397 
Q 2388 397 2633 464 
Q 2878 531 3122 666 
L 3122 134 
Q 2881 22 2623 -34 
Q 2366 -91 2075 -91 
Q 1284 -91 818 406 
Q 353 903 353 1747 
Q 353 2603 823 3093 
Q 1294 3584 2113 3584 
Q 2378 3584 2631 3529 
Q 2884 3475 3122 3366 
z
" transform="scale(0.015625)"/>
      <path id="DejaVuSans-68" d="M 3513 2113 
L 3513 0 
L 2938 0 
L 2938 2094 
Q 2938 2591 2744 2837 
Q 2550 3084 2163 3084 
Q 1697 3084 1428 2787 
Q 1159 2491 1159 1978 
L 1159 0 
L 581 0 
L 581 4863 
L 1159 4863 
L 1159 2956 
Q 1366 3272 1645 3428 
Q 1925 3584 2291 3584 
Q 2894 3584 3203 3211 
Q 3513 2838 3513 2113 
z
" transform="scale(0.015625)"/>
      <path id="DejaVuSans-67" d="M 2906 1791 
Q 2906 2416 2648 2759 
Q 2391 3103 1925 3103 
Q 1463 3103 1205 2759 
Q 947 2416 947 1791 
Q 947 1169 1205 825 
Q 1463 481 1925 481 
Q 2391 481 2648 825 
Q 2906 1169 2906 1791 
z
M 3481 434 
Q 3481 -459 3084 -895 
Q 2688 -1331 1869 -1331 
Q 1566 -1331 1297 -1286 
Q 1028 -1241 775 -1147 
L 775 -588 
Q 1028 -725 1275 -790 
Q 1522 -856 1778 -856 
Q 2344 -856 2625 -561 
Q 2906 -266 2906 331 
L 2906 616 
Q 2728 306 2450 153 
Q 2172 0 1784 0 
Q 1141 0 747 490 
Q 353 981 353 1791 
Q 353 2603 747 3093 
Q 1141 3584 1784 3584 
Q 2172 3584 2450 3431 
Q 2728 3278 2906 2969 
L 2906 3500 
L 3481 3500 
L 3481 434 
z
" transform="scale(0.015625)"/>
      <path id="DejaVuSans-65" d="M 3597 1894 
L 3597 1613 
L 953 1613 
Q 991 1019 1311 708 
Q 1631 397 2203 397 
Q 2534 397 2845 478 
Q 3156 559 3463 722 
L 3463 178 
Q 3153 47 2828 -22 
Q 2503 -91 2169 -91 
Q 1331 -91 842 396 
Q 353 884 353 1716 
Q 353 2575 817 3079 
Q 1281 3584 2069 3584 
Q 2775 3584 3186 3129 
Q 3597 2675 3597 1894 
z
M 3022 2063 
Q 3016 2534 2758 2815 
Q 2500 3097 2075 3097 
Q 1594 3097 1305 2825 
Q 1016 2553 972 2059 
L 3022 2063 
z
" transform="scale(0.015625)"/>
      <path id="DejaVuSans-64" d="M 2906 2969 
L 2906 4863 
L 3481 4863 
L 3481 0 
L 2906 0 
L 2906 525 
Q 2725 213 2448 61 
Q 2172 -91 1784 -91 
Q 1150 -91 751 415 
Q 353 922 353 1747 
Q 353 2572 751 3078 
Q 1150 3584 1784 3584 
Q 2172 3584 2448 3432 
Q 2725 3281 2906 2969 
z
M 947 1747 
Q 947 1113 1208 752 
Q 1469 391 1925 391 
Q 2381 391 2643 752 
Q 2906 1113 2906 1747 
Q 2906 2381 2643 2742 
Q 2381 3103 1925 3103 
Q 1469 3103 1208 2742 
Q 947 2381 947 1747 
z
" transform="scale(0.015625)"/>
      <path id="DejaVuSans-73" d="M 2834 3397 
L 2834 2853 
Q 2591 2978 2328 3040 
Q 2066 3103 1784 3103 
Q 1356 3103 1142 2972 
Q 928 2841 928 2578 
Q 928 2378 1081 2264 
Q 1234 2150 1697 2047 
L 1894 2003 
Q 2506 1872 2764 1633 
Q 3022 1394 3022 966 
Q 3022 478 2636 193 
Q 2250 -91 1575 -91 
Q 1294 -91 989 -36 
Q 684 19 347 128 
L 347 722 
Q 666 556 975 473 
Q 1284 391 1588 391 
Q 1994 391 2212 530 
Q 2431 669 2431 922 
Q 2431 1156 2273 1281 
Q 2116 1406 1581 1522 
L 1381 1569 
Q 847 1681 609 1914 
Q 372 2147 372 2553 
Q 372 3047 722 3315 
Q 1072 3584 1716 3584 
Q 2034 3584 2315 3537 
Q 2597 3491 2834 3397 
z
" transform="scale(0.015625)"/>
     </defs>
     <use xlink:href="#DejaVuSans-53"/>
     <use xlink:href="#DejaVuSans-61" x="63.476562"/>
     <use xlink:href="#DejaVuSans-6d" x="124.755859"/>
     <use xlink:href="#DejaVuSans-62" x="222.167969"/>
     <use xlink:href="#DejaVuSans-61" x="285.644531"/>
     <use xlink:href="#DejaVuSans-76" x="346.923828"/>
     <use xlink:href="#DejaVuSans-61" x="406.103516"/>
     <use xlink:href="#DejaVuSans-20" x="467.382812"/>
     <use xlink:href="#DejaVuSans-2d" x="499.169922"/>
     <use xlink:href="#DejaVuSans-20" x="535.253906"/>
     <use xlink:href="#DejaVuSans-70" x="567.041016"/>
     <use xlink:href="#DejaVuSans-6f" x="630.517578"/>
     <use xlink:href="#DejaVuSans-70" x="691.699219"/>
     <use xlink:href="#DejaVuSans-75" x="755.175781"/>
     <use xlink:href="#DejaVuSans-6c" x="818.554688"/>
     <use xlink:href="#DejaVuSans-61" x="846.337891"/>
     <use xlink:href="#DejaVuSans-74" x="907.617188"/>
     <use xlink:href="#DejaVuSans-69" x="946.826172"/>
     <use xlink:href="#DejaVuSans-6f" x="974.609375"/>
     <use xlink:href="#DejaVuSans-6e" x="1035.791016"/>
     <use xlink:href="#DejaVuSans-20" x="1099.169922"/>
     <use xlink:href="#DejaVuSans-63" x="1130.957031"/>
     <use xlink:href="#DejaVuSans-68" x="1185.9375"/>
     <use xlink:href="#DejaVuSans-61" x="1249.316406"/>
     <use xlink:href="#DejaVuSans-6e" x="1310.595703"/>
     <use xlink:href="#DejaVuSans-67" x="1373.974609"/>
     <use xlink:href="#DejaVuSans-65" x="1437.451172"/>
     <use xlink:href="#DejaVuSans-20" x="1498.974609"/>
     <use xlink:href="#DejaVuSans-74" x="1530.761719"/>
     <use xlink:href="#DejaVuSans-72" x="1569.970703"/>
     <use xlink:href="#DejaVuSans-65" x="1608.833984"/>
     <use xlink:href="#DejaVuSans-6e" x="1670.357422"/>
     <use xlink:href="#DejaVuSans-64" x="1733.736328"/>
     <use xlink:href="#DejaVuSans-73" x="1797.212891"/>
    </g>
   </g>
  </g>
 </g>
 <defs>
  <clipPath id="pb7e32db873">
   <rect x="40.034375" y="22.318125" width="305.565625" height="162.60375"/>
  </clipPath>
 </defs>
</svg>
