<?xml version="1.0" encoding="utf-8" standalone="no"?>
<!DOCTYPE svg PUBLIC "-//W3C//DTD SVG 1.1//EN"
  "http://www.w3.org/Graphics/SVG/1.1/DTD/svg11.dtd">
<svg xmlns:xlink="http://www.w3.org/1999/xlink" width="352.8pt" height="208.8pt" viewBox="0 0 352.8 208.8" xmlns="http://www.w3.org/2000/svg" version="1.1">
 <metadata>
  <rdf:RDF xmlns:dc="http://purl.org/dc/elements/1.1/" xmlns:cc="http://creativecommons.org/ns#" xmlns:rdf="http://www.w3.org/1999/02/22-rdf-syntax-ns#">
   <cc:Work>
    <dc:type rdf:resource="http://purl.org/dc/dcmitype/StillImage"/>
    <dc:date>2024-04-08T09:07:12.078680</dc:date>
    <dc:format>image/svg+xml</dc:format>
    <dc:creator>
     <cc:Agent>
      <dc:title>Matplotlib v3.8.3, https://matplotlib.org/</dc:title>
     </cc:Agent>
    </dc:creator>
   </cc:Work>
  </rdf:RDF>
 </metadata>
 <defs>
  <style type="text/css">*{stroke-linejoin: round; stroke-linecap: butt}</style>
 </defs>
 <g id="figure_1">
  <g id="patch_1">
   <path d="M 0 208.8 
L 352.8 208.8 
L 352.8 0 
L 0 0 
L 0 208.8 
z
" style="fill: none"/>
  </g>
  <g id="axes_1">
   <g id="patch_2">
    <path d="M 40.034375 184.921875 
L 345.6 184.921875 
L 345.6 22.318125 
L 40.034375 22.318125 
L 40.034375 184.921875 
z
" style="fill: none; opacity: 0"/>
   </g>
   <g id="PolyCollection_1">
    <defs>
     <path id="m3f6f97b8d9" d="M 218.916212 -105.18 
L 219.295206 -105.753419 
L 220.224259 -107.092861 
L 221.153313 -108.360885 
L 222.082366 -109.552293 
L 223.011419 -110.661885 
L 223.940473 -111.684461 
L 224.869526 -112.614822 
L 225.798579 -113.447768 
L 226.727632 -114.1781 
L 227.656686 -114.800618 
L 228.585739 -115.310123 
L 229.514792 -115.701415 
L 230.443845 -115.969294 
L 231.372899 -116.109364 
L 232.301952 -116.124762 
L 233.231005 -116.022757 
L 234.160059 -115.810657 
L 235.089112 -115.495774 
L 236.018165 -115.085416 
L 236.947218 -114.586893 
L 237.876272 -114.007515 
L 238.805325 -113.354593 
L 239.734378 -112.635435 
L 240.663432 -111.857352 
L 241.592485 -111.027654 
L 242.521538 -110.15365 
L 243.450591 -109.24265 
L 244.379645 -108.301964 
L 245.308698 -107.338902 
L 246.237751 -106.360773 
L 247.166805 -105.374888 
L 247.350375 -105.18 
L 247.166805 -105.18 
L 246.237751 -105.18 
L 245.308698 -105.18 
L 244.379645 -105.18 
L 243.450591 -105.18 
L 242.521538 -105.18 
L 241.592485 -105.18 
L 240.663432 -105.18 
L 239.734378 -105.18 
L 238.805325 -105.18 
L 237.876272 -105.18 
L 236.947218 -105.18 
L 236.018165 -105.18 
L 235.089112 -105.18 
L 234.160059 -105.18 
L 233.231005 -105.18 
L 232.301952 -105.18 
L 231.372899 -105.18 
L 230.443845 -105.18 
L 229.514792 -105.18 
L 228.585739 -105.18 
L 227.656686 -105.18 
L 226.727632 -105.18 
L 225.798579 -105.18 
L 224.869526 -105.18 
L 223.940473 -105.18 
L 223.011419 -105.18 
L 222.082366 -105.18 
L 221.153313 -105.18 
L 220.224259 -105.18 
L 219.295206 -105.18 
z
" style="stroke: #6ec5bc; stroke-opacity: 0.1"/>
    </defs>
    <g clip-path="url(#pe6c95bc93e)">
     <use xlink:href="#m3f6f97b8d9" x="0" y="208.8" style="fill: #6ec5bc; fill-opacity: 0.1; stroke: #6ec5bc; stroke-opacity: 0.1"/>
    </g>
   </g>
   <g id="PolyCollection_2">
    <path d="M 53.923722 119.880375 
L 53.923722 119.880375 
L 54.852775 119.588957 
L 55.781828 119.390131 
L 56.710881 119.281145 
L 57.639935 119.259247 
L 58.568988 119.321685 
L 59.498041 119.465706 
L 60.427095 119.688558 
L 61.356148 119.987488 
L 62.285201 120.359745 
L 63.214254 120.802576 
L 64.143308 121.313229 
L 65.072361 121.888951 
L 66.001414 122.52699 
L 66.930468 123.224593 
L 67.859521 123.97901 
L 68.788574 124.787486 
L 69.717627 125.64727 
L 70.646681 126.555609 
L 71.575734 127.509752 
L 72.504787 128.506945 
L 73.433841 129.544437 
L 74.362894 130.619474 
L 75.291947 131.729306 
L 76.221 132.87118 
L 77.150054 134.042342 
L 78.079107 135.240041 
L 79.00816 136.461525 
L 79.937214 137.704042 
L 80.866267 138.964838 
L 81.79532 140.241162 
L 82.724373 141.530261 
L 83.653427 142.829383 
L 84.58248 144.135775 
L 85.511533 145.446686 
L 86.440587 146.759363 
L 87.36964 148.071054 
L 88.298693 149.379006 
L 89.227746 150.680468 
L 90.1568 151.972685 
L 91.085853 153.252908 
L 92.014906 154.518382 
L 92.94396 155.766357 
L 93.873013 156.994078 
L 94.802066 158.198795 
L 95.731119 159.377755 
L 96.660173 160.528205 
L 97.589226 161.647393 
L 98.518279 162.732568 
L 99.447332 163.780976 
L 100.376386 164.789865 
L 101.305439 165.756483 
L 102.234492 166.678077 
L 103.163546 167.551896 
L 104.092599 168.375187 
L 105.021652 169.145197 
L 105.950705 169.859175 
L 106.879759 170.514368 
L 107.808812 171.108023 
L 108.737865 171.637389 
L 109.666919 172.099713 
L 110.595972 172.492243 
L 111.525025 172.812226 
L 112.454078 173.05691 
L 113.383132 173.223543 
L 114.312185 173.309372 
L 115.241238 173.311645 
L 116.170292 173.227611 
L 117.099345 173.054515 
L 118.028398 172.789607 
L 118.957451 172.430134 
L 119.886505 171.973343 
L 120.815558 171.416483 
L 121.744611 170.7568 
L 122.673665 169.991543 
L 123.602718 169.11796 
L 124.531771 168.133297 
L 125.460824 167.034803 
L 126.389878 165.819725 
L 127.318931 164.485311 
L 128.247984 163.028809 
L 129.177038 161.447466 
L 130.106091 159.738793 
L 131.035144 157.907843 
L 131.964197 155.968169 
L 132.893251 153.933772 
L 133.822304 151.818657 
L 134.751357 149.636827 
L 135.680411 147.402286 
L 136.609464 145.129037 
L 137.538517 142.831083 
L 138.46757 140.522429 
L 139.396624 138.217078 
L 140.325677 135.929033 
L 141.25473 133.672299 
L 142.183784 131.460877 
L 143.112837 129.308773 
L 144.04189 127.229988 
L 144.970943 125.238528 
L 145.899997 123.348396 
L 146.82905 121.573595 
L 147.758103 119.928128 
L 148.687157 118.425999 
L 149.61621 117.081213 
L 150.545263 115.907771 
L 151.474316 114.919678 
L 152.40337 114.130938 
L 153.332423 113.555553 
L 154.261476 113.207528 
L 155.19053 113.100764 
L 156.119583 113.239254 
L 157.048636 113.608905 
L 157.977689 114.193698 
L 158.906743 114.977616 
L 159.835796 115.944639 
L 160.764849 117.078751 
L 161.693902 118.363933 
L 162.622956 119.784167 
L 163.552009 121.323435 
L 164.481062 122.965719 
L 165.410116 124.695 
L 166.339169 126.49526 
L 167.268222 128.350482 
L 168.197275 130.244647 
L 169.126329 132.161737 
L 170.055382 134.085734 
L 170.984435 136.00062 
L 171.913489 137.890377 
L 172.842542 139.738987 
L 173.771595 141.530431 
L 174.700648 143.248691 
L 175.629702 144.87775 
L 176.558755 146.401589 
L 177.487808 147.80419 
L 178.416862 149.069535 
L 179.345915 150.181606 
L 180.274968 151.124387 
L 181.204021 151.886692 
L 182.133075 152.472068 
L 183.062128 152.886863 
L 183.991181 153.137425 
L 184.920235 153.230102 
L 185.849288 153.171242 
L 186.778341 152.967194 
L 187.707394 152.624304 
L 188.636448 152.148922 
L 189.565501 151.547396 
L 190.494554 150.826073 
L 191.423608 149.991301 
L 192.352661 149.04943 
L 193.281714 148.006805 
L 194.210767 146.869776 
L 195.139821 145.644692 
L 196.068874 144.337898 
L 196.997927 142.955745 
L 197.926981 141.50458 
L 198.856034 139.99075 
L 199.785087 138.420605 
L 200.71414 136.800491 
L 201.643194 135.136758 
L 202.572247 133.435752 
L 203.5013 131.703823 
L 204.430354 129.947319 
L 205.359407 128.172586 
L 206.28846 126.38583 
L 207.217513 124.592499 
L 208.146567 122.797791 
L 209.07562 121.006906 
L 210.004673 119.225045 
L 210.933727 117.457405 
L 211.86278 115.709188 
L 212.791833 113.985592 
L 213.720886 112.291817 
L 214.64994 110.633063 
L 215.578993 109.014528 
L 216.508046 107.441413 
L 217.4371 105.918917 
L 218.366153 104.45224 
L 218.916212 103.62 
L 218.366153 103.62 
L 217.4371 103.62 
L 216.508046 103.62 
L 215.578993 103.62 
L 214.64994 103.62 
L 213.720886 103.62 
L 212.791833 103.62 
L 211.86278 103.62 
L 210.933727 103.62 
L 210.004673 103.62 
L 209.07562 103.62 
L 208.146567 103.62 
L 207.217513 103.62 
L 206.28846 103.62 
L 205.359407 103.62 
L 204.430354 103.62 
L 203.5013 103.62 
L 202.572247 103.62 
L 201.643194 103.62 
L 200.71414 103.62 
L 199.785087 103.62 
L 198.856034 103.62 
L 197.926981 103.62 
L 196.997927 103.62 
L 196.068874 103.62 
L 195.139821 103.62 
L 194.210767 103.62 
L 193.281714 103.62 
L 192.352661 103.62 
L 191.423608 103.62 
L 190.494554 103.62 
L 189.565501 103.62 
L 188.636448 103.62 
L 187.707394 103.62 
L 186.778341 103.62 
L 185.849288 103.62 
L 184.920235 103.62 
L 183.991181 103.62 
L 183.062128 103.62 
L 182.133075 103.62 
L 181.204021 103.62 
L 180.274968 103.62 
L 179.345915 103.62 
L 178.416862 103.62 
L 177.487808 103.62 
L 176.558755 103.62 
L 175.629702 103.62 
L 174.700648 103.62 
L 173.771595 103.62 
L 172.842542 103.62 
L 171.913489 103.62 
L 170.984435 103.62 
L 170.055382 103.62 
L 169.126329 103.62 
L 168.197275 103.62 
L 167.268222 103.62 
L 166.339169 103.62 
L 165.410116 103.62 
L 164.481062 103.62 
L 163.552009 103.62 
L 162.622956 103.62 
L 161.693902 103.62 
L 160.764849 103.62 
L 159.835796 103.62 
L 158.906743 103.62 
L 157.977689 103.62 
L 157.048636 103.62 
L 156.119583 103.62 
L 155.19053 103.62 
L 154.261476 103.62 
L 153.332423 103.62 
L 152.40337 103.62 
L 151.474316 103.62 
L 150.545263 103.62 
L 149.61621 103.62 
L 148.687157 103.62 
L 147.758103 103.62 
L 146.82905 103.62 
L 145.899997 103.62 
L 144.970943 103.62 
L 144.04189 103.62 
L 143.112837 103.62 
L 142.183784 103.62 
L 141.25473 103.62 
L 140.325677 103.62 
L 139.396624 103.62 
L 138.46757 103.62 
L 137.538517 103.62 
L 136.609464 103.62 
L 135.680411 103.62 
L 134.751357 103.62 
L 133.822304 103.62 
L 132.893251 103.62 
L 131.964197 103.62 
L 131.035144 103.62 
L 130.106091 103.62 
L 129.177038 103.62 
L 128.247984 103.62 
L 127.318931 103.62 
L 126.389878 103.62 
L 125.460824 103.62 
L 124.531771 103.62 
L 123.602718 103.62 
L 122.673665 103.62 
L 121.744611 103.62 
L 120.815558 103.62 
L 119.886505 103.62 
L 118.957451 103.62 
L 118.028398 103.62 
L 117.099345 103.62 
L 116.170292 103.62 
L 115.241238 103.62 
L 114.312185 103.62 
L 113.383132 103.62 
L 112.454078 103.62 
L 111.525025 103.62 
L 110.595972 103.62 
L 109.666919 103.62 
L 108.737865 103.62 
L 107.808812 103.62 
L 106.879759 103.62 
L 105.950705 103.62 
L 105.021652 103.62 
L 104.092599 103.62 
L 103.163546 103.62 
L 102.234492 103.62 
L 101.305439 103.62 
L 100.376386 103.62 
L 99.447332 103.62 
L 98.518279 103.62 
L 97.589226 103.62 
L 96.660173 103.62 
L 95.731119 103.62 
L 94.802066 103.62 
L 93.873013 103.62 
L 92.94396 103.62 
L 92.014906 103.62 
L 91.085853 103.62 
L 90.1568 103.62 
L 89.227746 103.62 
L 88.298693 103.62 
L 87.36964 103.62 
L 86.440587 103.62 
L 85.511533 103.62 
L 84.58248 103.62 
L 83.653427 103.62 
L 82.724373 103.62 
L 81.79532 103.62 
L 80.866267 103.62 
L 79.937214 103.62 
L 79.00816 103.62 
L 78.079107 103.62 
L 77.150054 103.62 
L 76.221 103.62 
L 75.291947 103.62 
L 74.362894 103.62 
L 73.433841 103.62 
L 72.504787 103.62 
L 71.575734 103.62 
L 70.646681 103.62 
L 69.717627 103.62 
L 68.788574 103.62 
L 67.859521 103.62 
L 66.930468 103.62 
L 66.001414 103.62 
L 65.072361 103.62 
L 64.143308 103.62 
L 63.214254 103.62 
L 62.285201 103.62 
L 61.356148 103.62 
L 60.427095 103.62 
L 59.498041 103.62 
L 58.568988 103.62 
L 57.639935 103.62 
L 56.710881 103.62 
L 55.781828 103.62 
L 54.852775 103.62 
L 53.923722 103.62 
z
" clip-path="url(#pe6c95bc93e)" style="fill: #ed6b4d; fill-opacity: 0.1; stroke: #ed6b4d; stroke-opacity: 0.1"/>
    <path d="M 247.350375 103.62 
L 248.095858 104.411444 
L 249.024911 105.390913 
L 249.953964 106.356209 
L 250.883018 107.300023 
L 251.812071 108.215044 
L 252.741124 109.093963 
L 253.670178 109.929469 
L 254.599231 110.714254 
L 255.528284 111.441006 
L 256.457337 112.102729 
L 257.386391 112.698261 
L 258.315444 113.231624 
L 259.244497 113.707023 
L 260.173551 114.12866 
L 261.102604 114.50074 
L 262.031657 114.827466 
L 262.96071 115.113041 
L 263.889764 115.361668 
L 264.818817 115.577551 
L 265.74787 115.764894 
L 266.676924 115.927899 
L 267.605977 116.070771 
L 268.53503 116.197712 
L 269.464083 116.312927 
L 270.393137 116.420618 
L 271.32219 116.524989 
L 272.251243 116.630244 
L 273.180297 116.740585 
L 274.10935 116.860217 
L 275.038403 116.993342 
L 275.967456 117.144164 
L 276.89651 117.316887 
L 277.825563 117.515714 
L 278.754616 117.744848 
L 279.68367 118.008494 
L 280.612723 118.310853 
L 281.541776 118.656069 
L 282.470829 119.045302 
L 283.399883 119.475448 
L 284.328936 119.943075 
L 285.257989 120.444753 
L 286.187043 120.977049 
L 287.116096 121.536532 
L 288.045149 122.119771 
L 288.974202 122.723334 
L 289.903256 123.343789 
L 290.832309 123.977704 
L 291.761362 124.621649 
L 292.690415 125.272192 
L 293.619469 125.925901 
L 294.548522 126.579344 
L 295.477575 127.229091 
L 296.406629 127.871708 
L 297.335682 128.503766 
L 298.264735 129.121832 
L 299.193788 129.722476 
L 300.122842 130.302264 
L 301.051895 130.857766 
L 301.980948 131.38555 
L 302.910002 131.882185 
L 303.839055 132.344239 
L 304.768108 132.76828 
L 305.697161 133.150877 
L 306.626215 133.488599 
L 307.555268 133.778013 
L 308.484321 134.015689 
L 309.413375 134.198195 
L 310.342428 134.322099 
L 311.271481 134.383969 
L 312.200534 134.380375 
L 313.129588 134.307884 
L 314.058641 134.163065 
L 314.987694 133.942486 
L 315.916748 133.642717 
L 316.845801 133.260325 
L 317.774854 132.791878 
L 318.703907 132.233946 
L 319.632961 131.583096 
L 320.562014 130.835898 
L 321.491067 129.988919 
L 322.420121 129.038728 
L 323.349174 127.981894 
L 324.278227 126.814984 
L 325.20728 125.534568 
L 326.136334 124.137214 
L 327.065387 122.619489 
L 327.99444 120.977964 
L 328.923494 119.209206 
L 329.852547 117.309783 
L 330.7816 115.276265 
L 331.710653 113.105219 
L 331.710653 113.105219 
L 331.710653 103.62 
L 330.7816 103.62 
L 329.852547 103.62 
L 328.923494 103.62 
L 327.99444 103.62 
L 327.065387 103.62 
L 326.136334 103.62 
L 325.20728 103.62 
L 324.278227 103.62 
L 323.349174 103.62 
L 322.420121 103.62 
L 321.491067 103.62 
L 320.562014 103.62 
L 319.632961 103.62 
L 318.703907 103.62 
L 317.774854 103.62 
L 316.845801 103.62 
L 315.916748 103.62 
L 314.987694 103.62 
L 314.058641 103.62 
L 313.129588 103.62 
L 312.200534 103.62 
L 311.271481 103.62 
L 310.342428 103.62 
L 309.413375 103.62 
L 308.484321 103.62 
L 307.555268 103.62 
L 306.626215 103.62 
L 305.697161 103.62 
L 304.768108 103.62 
L 303.839055 103.62 
L 302.910002 103.62 
L 301.980948 103.62 
L 301.051895 103.62 
L 300.122842 103.62 
L 299.193788 103.62 
L 298.264735 103.62 
L 297.335682 103.62 
L 296.406629 103.62 
L 295.477575 103.62 
L 294.548522 103.62 
L 293.619469 103.62 
L 292.690415 103.62 
L 291.761362 103.62 
L 290.832309 103.62 
L 289.903256 103.62 
L 288.974202 103.62 
L 288.045149 103.62 
L 287.116096 103.62 
L 286.187043 103.62 
L 285.257989 103.62 
L 284.328936 103.62 
L 283.399883 103.62 
L 282.470829 103.62 
L 281.541776 103.62 
L 280.612723 103.62 
L 279.68367 103.62 
L 278.754616 103.62 
L 277.825563 103.62 
L 276.89651 103.62 
L 275.967456 103.62 
L 275.038403 103.62 
L 274.10935 103.62 
L 273.180297 103.62 
L 272.251243 103.62 
L 271.32219 103.62 
L 270.393137 103.62 
L 269.464083 103.62 
L 268.53503 103.62 
L 267.605977 103.62 
L 266.676924 103.62 
L 265.74787 103.62 
L 264.818817 103.62 
L 263.889764 103.62 
L 262.96071 103.62 
L 262.031657 103.62 
L 261.102604 103.62 
L 260.173551 103.62 
L 259.244497 103.62 
L 258.315444 103.62 
L 257.386391 103.62 
L 256.457337 103.62 
L 255.528284 103.62 
L 254.599231 103.62 
L 253.670178 103.62 
L 252.741124 103.62 
L 251.812071 103.62 
L 250.883018 103.62 
L 249.953964 103.62 
L 249.024911 103.62 
L 248.095858 103.62 
z
" clip-path="url(#pe6c95bc93e)" style="fill: #ed6b4d; fill-opacity: 0.1; stroke: #ed6b4d; stroke-opacity: 0.1"/>
   </g>
   <g id="line2d_1">
    <defs>
     <path id="mddc550e83f" d="M 0 3 
C 0.795609 3 1.55874 2.683901 2.12132 2.12132 
C 2.683901 1.55874 3 0.795609 3 0 
C 3 -0.795609 2.683901 -1.55874 2.12132 -2.12132 
C 1.55874 -2.683901 0.795609 -3 0 -3 
C -0.795609 -3 -1.55874 -2.683901 -2.12132 -2.12132 
C -2.683901 -1.55874 -3 -0.795609 -3 0 
C -3 0.795609 -2.683901 1.55874 -2.12132 2.12132 
C -1.55874 2.683901 -0.795609 3 0 3 
z
" style="stroke: #0035a0"/>
    </defs>
    <g clip-path="url(#pe6c95bc93e)">
     <use xlink:href="#mddc550e83f" x="53.923722" y="119.880375" style="fill: #0035a0; stroke: #0035a0"/>
     <use xlink:href="#mddc550e83f" x="104.430436" y="168.6615" style="fill: #0035a0; stroke: #0035a0"/>
     <use xlink:href="#mddc550e83f" x="129.683794" y="160.531312" style="fill: #0035a0; stroke: #0035a0"/>
     <use xlink:href="#mddc550e83f" x="154.937151" y="113.105219" style="fill: #0035a0; stroke: #0035a0"/>
     <use xlink:href="#mddc550e83f" x="180.190509" y="151.046094" style="fill: #0035a0; stroke: #0035a0"/>
     <use xlink:href="#mddc550e83f" x="205.443866" y="128.010562" style="fill: #0035a0; stroke: #0035a0"/>
     <use xlink:href="#mddc550e83f" x="230.697224" y="92.77975" style="fill: #0035a0; stroke: #0035a0"/>
     <use xlink:href="#mddc550e83f" x="255.950581" y="111.750187" style="fill: #0035a0; stroke: #0035a0"/>
     <use xlink:href="#mddc550e83f" x="281.203939" y="118.525344" style="fill: #0035a0; stroke: #0035a0"/>
     <use xlink:href="#mddc550e83f" x="306.457296" y="133.430687" style="fill: #0035a0; stroke: #0035a0"/>
     <use xlink:href="#mddc550e83f" x="331.710653" y="113.105219" style="fill: #0035a0; stroke: #0035a0"/>
    </g>
   </g>
   <g id="line2d_2">
    <path d="M 40.034375 103.62 
L 345.6 103.62 
" clip-path="url(#pe6c95bc93e)" style="fill: none; stroke: #808080; stroke-width: 0.8; stroke-linecap: square"/>
   </g>
   <g id="matplotlib.axis_1">
    <g id="xtick_1">
     <g id="line2d_3">
      <defs>
       <path id="mcf8b939259" d="M 0 0 
L 0 3.5 
" style="stroke: #000000; stroke-width: 0.8"/>
      </defs>
      <g>
       <use xlink:href="#mcf8b939259" x="53.923722" y="184.921875" style="stroke: #000000; stroke-width: 0.8"/>
      </g>
     </g>
     <g id="text_1">
      <!-- 26 Mar -->
      <g transform="translate(36.538565 199.520312) scale(0.1 -0.1)">
       <defs>
        <path id="DejaVuSans-32" d="M 1228 531 
L 3431 531 
L 3431 0 
L 469 0 
L 469 531 
Q 828 903 1448 1529 
Q 2069 2156 2228 2338 
Q 2531 2678 2651 2914 
Q 2772 3150 2772 3378 
Q 2772 3750 2511 3984 
Q 2250 4219 1831 4219 
Q 1534 4219 1204 4116 
Q 875 4013 500 3803 
L 500 4441 
Q 881 4594 1212 4672 
Q 1544 4750 1819 4750 
Q 2544 4750 2975 4387 
Q 3406 4025 3406 3419 
Q 3406 3131 3298 2873 
Q 3191 2616 2906 2266 
Q 2828 2175 2409 1742 
Q 1991 1309 1228 531 
z
" transform="scale(0.015625)"/>
        <path id="DejaVuSans-36" d="M 2113 2584 
Q 1688 2584 1439 2293 
Q 1191 2003 1191 1497 
Q 1191 994 1439 701 
Q 1688 409 2113 409 
Q 2538 409 2786 701 
Q 3034 994 3034 1497 
Q 3034 2003 2786 2293 
Q 2538 2584 2113 2584 
z
M 3366 4563 
L 3366 3988 
Q 3128 4100 2886 4159 
Q 2644 4219 2406 4219 
Q 1781 4219 1451 3797 
Q 1122 3375 1075 2522 
Q 1259 2794 1537 2939 
Q 1816 3084 2150 3084 
Q 2853 3084 3261 2657 
Q 3669 2231 3669 1497 
Q 3669 778 3244 343 
Q 2819 -91 2113 -91 
Q 1303 -91 875 529 
Q 447 1150 447 2328 
Q 447 3434 972 4092 
Q 1497 4750 2381 4750 
Q 2619 4750 2861 4703 
Q 3103 4656 3366 4563 
z
" transform="scale(0.015625)"/>
        <path id="DejaVuSans-20" transform="scale(0.015625)"/>
        <path id="DejaVuSans-4d" d="M 628 4666 
L 1569 4666 
L 2759 1491 
L 3956 4666 
L 4897 4666 
L 4897 0 
L 4281 0 
L 4281 4097 
L 3078 897 
L 2444 897 
L 1241 4097 
L 1241 0 
L 628 0 
L 628 4666 
z
" transform="scale(0.015625)"/>
        <path id="DejaVuSans-61" d="M 2194 1759 
Q 1497 1759 1228 1600 
Q 959 1441 959 1056 
Q 959 750 1161 570 
Q 1363 391 1709 391 
Q 2188 391 2477 730 
Q 2766 1069 2766 1631 
L 2766 1759 
L 2194 1759 
z
M 3341 1997 
L 3341 0 
L 2766 0 
L 2766 531 
Q 2569 213 2275 61 
Q 1981 -91 1556 -91 
Q 1019 -91 701 211 
Q 384 513 384 1019 
Q 384 1609 779 1909 
Q 1175 2209 1959 2209 
L 2766 2209 
L 2766 2266 
Q 2766 2663 2505 2880 
Q 2244 3097 1772 3097 
Q 1472 3097 1187 3025 
Q 903 2953 641 2809 
L 641 3341 
Q 956 3463 1253 3523 
Q 1550 3584 1831 3584 
Q 2591 3584 2966 3190 
Q 3341 2797 3341 1997 
z
" transform="scale(0.015625)"/>
        <path id="DejaVuSans-72" d="M 2631 2963 
Q 2534 3019 2420 3045 
Q 2306 3072 2169 3072 
Q 1681 3072 1420 2755 
Q 1159 2438 1159 1844 
L 1159 0 
L 581 0 
L 581 3500 
L 1159 3500 
L 1159 2956 
Q 1341 3275 1631 3429 
Q 1922 3584 2338 3584 
Q 2397 3584 2469 3576 
Q 2541 3569 2628 3553 
L 2631 2963 
z
" transform="scale(0.015625)"/>
       </defs>
       <use xlink:href="#DejaVuSans-32"/>
       <use xlink:href="#DejaVuSans-36" x="63.623047"/>
       <use xlink:href="#DejaVuSans-20" x="127.246094"/>
       <use xlink:href="#DejaVuSans-4d" x="159.033203"/>
       <use xlink:href="#DejaVuSans-61" x="245.3125"/>
       <use xlink:href="#DejaVuSans-72" x="306.591797"/>
      </g>
     </g>
    </g>
    <g id="xtick_2">
     <g id="line2d_4">
      <g>
       <use xlink:href="#mcf8b939259" x="104.430436" y="184.921875" style="stroke: #000000; stroke-width: 0.8"/>
      </g>
     </g>
     <g id="text_2">
      <!-- 28 Mar -->
      <g transform="translate(87.04528 199.520312) scale(0.1 -0.1)">
       <defs>
        <path id="DejaVuSans-38" d="M 2034 2216 
Q 1584 2216 1326 1975 
Q 1069 1734 1069 1313 
Q 1069 891 1326 650 
Q 1584 409 2034 409 
Q 2484 409 2743 651 
Q 3003 894 3003 1313 
Q 3003 1734 2745 1975 
Q 2488 2216 2034 2216 
z
M 1403 2484 
Q 997 2584 770 2862 
Q 544 3141 544 3541 
Q 544 4100 942 4425 
Q 1341 4750 2034 4750 
Q 2731 4750 3128 4425 
Q 3525 4100 3525 3541 
Q 3525 3141 3298 2862 
Q 3072 2584 2669 2484 
Q 3125 2378 3379 2068 
Q 3634 1759 3634 1313 
Q 3634 634 3220 271 
Q 2806 -91 2034 -91 
Q 1263 -91 848 271 
Q 434 634 434 1313 
Q 434 1759 690 2068 
Q 947 2378 1403 2484 
z
M 1172 3481 
Q 1172 3119 1398 2916 
Q 1625 2713 2034 2713 
Q 2441 2713 2670 2916 
Q 2900 3119 2900 3481 
Q 2900 3844 2670 4047 
Q 2441 4250 2034 4250 
Q 1625 4250 1398 4047 
Q 1172 3844 1172 3481 
z
" transform="scale(0.015625)"/>
       </defs>
       <use xlink:href="#DejaVuSans-32"/>
       <use xlink:href="#DejaVuSans-38" x="63.623047"/>
       <use xlink:href="#DejaVuSans-20" x="127.246094"/>
       <use xlink:href="#DejaVuSans-4d" x="159.033203"/>
       <use xlink:href="#DejaVuSans-61" x="245.3125"/>
       <use xlink:href="#DejaVuSans-72" x="306.591797"/>
      </g>
     </g>
    </g>
    <g id="xtick_3">
     <g id="line2d_5">
      <g>
       <use xlink:href="#mcf8b939259" x="154.937151" y="184.921875" style="stroke: #000000; stroke-width: 0.8"/>
      </g>
     </g>
     <g id="text_3">
      <!-- 30 Mar -->
      <g transform="translate(137.551995 199.520312) scale(0.1 -0.1)">
       <defs>
        <path id="DejaVuSans-33" d="M 2597 2516 
Q 3050 2419 3304 2112 
Q 3559 1806 3559 1356 
Q 3559 666 3084 287 
Q 2609 -91 1734 -91 
Q 1441 -91 1130 -33 
Q 819 25 488 141 
L 488 750 
Q 750 597 1062 519 
Q 1375 441 1716 441 
Q 2309 441 2620 675 
Q 2931 909 2931 1356 
Q 2931 1769 2642 2001 
Q 2353 2234 1838 2234 
L 1294 2234 
L 1294 2753 
L 1863 2753 
Q 2328 2753 2575 2939 
Q 2822 3125 2822 3475 
Q 2822 3834 2567 4026 
Q 2313 4219 1838 4219 
Q 1578 4219 1281 4162 
Q 984 4106 628 3988 
L 628 4550 
Q 988 4650 1302 4700 
Q 1616 4750 1894 4750 
Q 2613 4750 3031 4423 
Q 3450 4097 3450 3541 
Q 3450 3153 3228 2886 
Q 3006 2619 2597 2516 
z
" transform="scale(0.015625)"/>
        <path id="DejaVuSans-30" d="M 2034 4250 
Q 1547 4250 1301 3770 
Q 1056 3291 1056 2328 
Q 1056 1369 1301 889 
Q 1547 409 2034 409 
Q 2525 409 2770 889 
Q 3016 1369 3016 2328 
Q 3016 3291 2770 3770 
Q 2525 4250 2034 4250 
z
M 2034 4750 
Q 2819 4750 3233 4129 
Q 3647 3509 3647 2328 
Q 3647 1150 3233 529 
Q 2819 -91 2034 -91 
Q 1250 -91 836 529 
Q 422 1150 422 2328 
Q 422 3509 836 4129 
Q 1250 4750 2034 4750 
z
" transform="scale(0.015625)"/>
       </defs>
       <use xlink:href="#DejaVuSans-33"/>
       <use xlink:href="#DejaVuSans-30" x="63.623047"/>
       <use xlink:href="#DejaVuSans-20" x="127.246094"/>
       <use xlink:href="#DejaVuSans-4d" x="159.033203"/>
       <use xlink:href="#DejaVuSans-61" x="245.3125"/>
       <use xlink:href="#DejaVuSans-72" x="306.591797"/>
      </g>
     </g>
    </g>
    <g id="xtick_4">
     <g id="line2d_6">
      <g>
       <use xlink:href="#mcf8b939259" x="205.443866" y="184.921875" style="stroke: #000000; stroke-width: 0.8"/>
      </g>
     </g>
     <g id="text_4">
      <!-- 01 Apr -->
      <g transform="translate(188.842304 199.520312) scale(0.1 -0.1)">
       <defs>
        <path id="DejaVuSans-31" d="M 794 531 
L 1825 531 
L 1825 4091 
L 703 3866 
L 703 4441 
L 1819 4666 
L 2450 4666 
L 2450 531 
L 3481 531 
L 3481 0 
L 794 0 
L 794 531 
z
" transform="scale(0.015625)"/>
        <path id="DejaVuSans-41" d="M 2188 4044 
L 1331 1722 
L 3047 1722 
L 2188 4044 
z
M 1831 4666 
L 2547 4666 
L 4325 0 
L 3669 0 
L 3244 1197 
L 1141 1197 
L 716 0 
L 50 0 
L 1831 4666 
z
" transform="scale(0.015625)"/>
        <path id="DejaVuSans-70" d="M 1159 525 
L 1159 -1331 
L 581 -1331 
L 581 3500 
L 1159 3500 
L 1159 2969 
Q 1341 3281 1617 3432 
Q 1894 3584 2278 3584 
Q 2916 3584 3314 3078 
Q 3713 2572 3713 1747 
Q 3713 922 3314 415 
Q 2916 -91 2278 -91 
Q 1894 -91 1617 61 
Q 1341 213 1159 525 
z
M 3116 1747 
Q 3116 2381 2855 2742 
Q 2594 3103 2138 3103 
Q 1681 3103 1420 2742 
Q 1159 2381 1159 1747 
Q 1159 1113 1420 752 
Q 1681 391 2138 391 
Q 2594 391 2855 752 
Q 3116 1113 3116 1747 
z
" transform="scale(0.015625)"/>
       </defs>
       <use xlink:href="#DejaVuSans-30"/>
       <use xlink:href="#DejaVuSans-31" x="63.623047"/>
       <use xlink:href="#DejaVuSans-20" x="127.246094"/>
       <use xlink:href="#DejaVuSans-41" x="159.033203"/>
       <use xlink:href="#DejaVuSans-70" x="227.441406"/>
       <use xlink:href="#DejaVuSans-72" x="290.917969"/>
      </g>
     </g>
    </g>
    <g id="xtick_5">
     <g id="line2d_7">
      <g>
       <use xlink:href="#mcf8b939259" x="255.950581" y="184.921875" style="stroke: #000000; stroke-width: 0.8"/>
      </g>
     </g>
     <g id="text_5">
      <!-- 03 Apr -->
      <g transform="translate(239.349019 199.520312) scale(0.1 -0.1)">
       <use xlink:href="#DejaVuSans-30"/>
       <use xlink:href="#DejaVuSans-33" x="63.623047"/>
       <use xlink:href="#DejaVuSans-20" x="127.246094"/>
       <use xlink:href="#DejaVuSans-41" x="159.033203"/>
       <use xlink:href="#DejaVuSans-70" x="227.441406"/>
       <use xlink:href="#DejaVuSans-72" x="290.917969"/>
      </g>
     </g>
    </g>
    <g id="xtick_6">
     <g id="line2d_8">
      <g>
       <use xlink:href="#mcf8b939259" x="306.457296" y="184.921875" style="stroke: #000000; stroke-width: 0.8"/>
      </g>
     </g>
     <g id="text_6">
      <!-- 05 Apr -->
      <g transform="translate(289.855733 199.520312) scale(0.1 -0.1)">
       <defs>
        <path id="DejaVuSans-35" d="M 691 4666 
L 3169 4666 
L 3169 4134 
L 1269 4134 
L 1269 2991 
Q 1406 3038 1543 3061 
Q 1681 3084 1819 3084 
Q 2600 3084 3056 2656 
Q 3513 2228 3513 1497 
Q 3513 744 3044 326 
Q 2575 -91 1722 -91 
Q 1428 -91 1123 -41 
Q 819 9 494 109 
L 494 744 
Q 775 591 1075 516 
Q 1375 441 1709 441 
Q 2250 441 2565 725 
Q 2881 1009 2881 1497 
Q 2881 1984 2565 2268 
Q 2250 2553 1709 2553 
Q 1456 2553 1204 2497 
Q 953 2441 691 2322 
L 691 4666 
z
" transform="scale(0.015625)"/>
       </defs>
       <use xlink:href="#DejaVuSans-30"/>
       <use xlink:href="#DejaVuSans-35" x="63.623047"/>
       <use xlink:href="#DejaVuSans-20" x="127.246094"/>
       <use xlink:href="#DejaVuSans-41" x="159.033203"/>
       <use xlink:href="#DejaVuSans-70" x="227.441406"/>
       <use xlink:href="#DejaVuSans-72" x="290.917969"/>
      </g>
     </g>
    </g>
   </g>
   <g id="matplotlib.axis_2">
    <g id="ytick_1">
     <g id="text_7">
      <!-- -50% -->
      <g transform="translate(7.2 175.170781) scale(0.1 -0.1)">
       <defs>
        <path id="DejaVuSans-2d" d="M 313 2009 
L 1997 2009 
L 1997 1497 
L 313 1497 
L 313 2009 
z
" transform="scale(0.015625)"/>
        <path id="DejaVuSans-25" d="M 4653 2053 
Q 4381 2053 4226 1822 
Q 4072 1591 4072 1178 
Q 4072 772 4226 539 
Q 4381 306 4653 306 
Q 4919 306 5073 539 
Q 5228 772 5228 1178 
Q 5228 1588 5073 1820 
Q 4919 2053 4653 2053 
z
M 4653 2450 
Q 5147 2450 5437 2106 
Q 5728 1763 5728 1178 
Q 5728 594 5436 251 
Q 5144 -91 4653 -91 
Q 4153 -91 3862 251 
Q 3572 594 3572 1178 
Q 3572 1766 3864 2108 
Q 4156 2450 4653 2450 
z
M 1428 4353 
Q 1159 4353 1004 4120 
Q 850 3888 850 3481 
Q 850 3069 1003 2837 
Q 1156 2606 1428 2606 
Q 1700 2606 1854 2837 
Q 2009 3069 2009 3481 
Q 2009 3884 1853 4118 
Q 1697 4353 1428 4353 
z
M 4250 4750 
L 4750 4750 
L 1831 -91 
L 1331 -91 
L 4250 4750 
z
M 1428 4750 
Q 1922 4750 2215 4408 
Q 2509 4066 2509 3481 
Q 2509 2891 2217 2550 
Q 1925 2209 1428 2209 
Q 931 2209 642 2551 
Q 353 2894 353 3481 
Q 353 4063 643 4406 
Q 934 4750 1428 4750 
z
" transform="scale(0.015625)"/>
       </defs>
       <use xlink:href="#DejaVuSans-2d"/>
       <use xlink:href="#DejaVuSans-35" x="36.083984"/>
       <use xlink:href="#DejaVuSans-30" x="99.707031"/>
       <use xlink:href="#DejaVuSans-25" x="163.330078"/>
      </g>
     </g>
    </g>
    <g id="ytick_2">
     <g id="text_8">
      <!-- -25% -->
      <g transform="translate(7.2 141.295) scale(0.1 -0.1)">
       <use xlink:href="#DejaVuSans-2d"/>
       <use xlink:href="#DejaVuSans-32" x="36.083984"/>
       <use xlink:href="#DejaVuSans-35" x="99.707031"/>
       <use xlink:href="#DejaVuSans-25" x="163.330078"/>
      </g>
     </g>
    </g>
    <g id="ytick_3">
     <g id="text_9">
      <!-- 0% -->
      <g transform="translate(17.170313 107.419219) scale(0.1 -0.1)">
       <use xlink:href="#DejaVuSans-30"/>
       <use xlink:href="#DejaVuSans-25" x="63.623047"/>
      </g>
     </g>
    </g>
    <g id="ytick_4">
     <g id="text_10">
      <!-- 25% -->
      <g transform="translate(10.807813 73.543437) scale(0.1 -0.1)">
       <use xlink:href="#DejaVuSans-32"/>
       <use xlink:href="#DejaVuSans-35" x="63.623047"/>
       <use xlink:href="#DejaVuSans-25" x="127.246094"/>
      </g>
     </g>
    </g>
    <g id="ytick_5">
     <g id="text_11">
      <!-- 50% -->
      <g transform="translate(10.807813 39.667656) scale(0.1 -0.1)">
       <use xlink:href="#DejaVuSans-35"/>
       <use xlink:href="#DejaVuSans-30" x="63.623047"/>
       <use xlink:href="#DejaVuSans-25" x="127.246094"/>
      </g>
     </g>
    </g>
   </g>
   <g id="line2d_9">
    <path d="M 53.923722 119.880375 
L 55.781828 119.390131 
L 57.639935 119.259247 
L 59.498041 119.465706 
L 61.356148 119.987488 
L 63.214254 120.802576 
L 65.072361 121.888951 
L 66.930468 123.224593 
L 68.788574 124.787486 
L 71.575734 127.509752 
L 74.362894 130.619474 
L 77.150054 134.042342 
L 80.866267 138.964838 
L 87.36964 148.071054 
L 92.94396 155.766357 
L 96.660173 160.528205 
L 99.447332 163.780976 
L 102.234492 166.678077 
L 104.092599 168.375187 
L 105.950705 169.859175 
L 107.808812 171.108023 
L 109.666919 172.099713 
L 111.525025 172.812226 
L 113.383132 173.223543 
L 115.241238 173.311645 
L 117.099345 173.054515 
L 118.957451 172.430134 
L 120.815558 171.416483 
L 122.673665 169.991543 
L 124.531771 168.133297 
L 126.389878 165.819725 
L 128.247984 163.028809 
L 130.106091 159.738793 
L 131.964197 155.968169 
L 134.751357 149.636827 
L 139.396624 138.217078 
L 143.112837 129.308773 
L 144.970943 125.238528 
L 146.82905 121.573595 
L 148.687157 118.425999 
L 150.545263 115.907771 
L 151.474316 114.919678 
L 152.40337 114.130938 
L 153.332423 113.555553 
L 154.261476 113.207528 
L 155.19053 113.100764 
L 156.119583 113.239254 
L 157.048636 113.608905 
L 157.977689 114.193698 
L 158.906743 114.977616 
L 159.835796 115.944639 
L 161.693902 118.363933 
L 163.552009 121.323435 
L 165.410116 124.695 
L 168.197275 130.244647 
L 173.771595 141.530431 
L 175.629702 144.87775 
L 177.487808 147.80419 
L 179.345915 150.181606 
L 180.274968 151.124387 
L 181.204021 151.886692 
L 182.133075 152.472068 
L 183.062128 152.886863 
L 183.991181 153.137425 
L 184.920235 153.230102 
L 185.849288 153.171242 
L 186.778341 152.967194 
L 187.707394 152.624304 
L 188.636448 152.148922 
L 190.494554 150.826073 
L 192.352661 149.04943 
L 194.210767 146.869776 
L 196.068874 144.337898 
L 197.926981 141.50458 
L 200.71414 136.800491 
L 204.430354 129.947319 
L 214.64994 110.633063 
L 217.4371 105.918917 
L 220.224259 101.707139 
L 222.082366 99.247707 
L 223.940473 97.115539 
L 225.798579 95.352232 
L 227.656686 93.999382 
L 229.514792 93.098585 
L 230.443845 92.830706 
L 231.372899 92.690636 
L 232.301952 92.675238 
L 234.160059 92.989343 
L 236.018165 93.714584 
L 237.876272 94.792485 
L 239.734378 96.164565 
L 241.592485 97.772346 
L 244.379645 100.498036 
L 252.741124 109.093963 
L 254.599231 110.714254 
L 256.457337 112.102729 
L 258.315444 113.231624 
L 260.173551 114.12866 
L 262.031657 114.827466 
L 264.818817 115.577551 
L 267.605977 116.070771 
L 277.825563 117.515714 
L 280.612723 118.310853 
L 282.470829 119.045302 
L 285.257989 120.444753 
L 288.045149 122.119771 
L 291.761362 124.621649 
L 299.193788 129.722476 
L 301.980948 131.38555 
L 304.768108 132.76828 
L 306.626215 133.488599 
L 308.484321 134.015689 
L 310.342428 134.322099 
L 312.200534 134.380375 
L 314.058641 134.163065 
L 315.916748 133.642717 
L 317.774854 132.791878 
L 319.632961 131.583096 
L 321.491067 129.988919 
L 323.349174 127.981894 
L 325.20728 125.534568 
L 327.065387 122.619489 
L 328.923494 119.209206 
L 330.7816 115.276265 
L 331.710653 113.105219 
L 331.710653 113.105219 
" clip-path="url(#pe6c95bc93e)" style="fill: none; stroke: #0035a0; stroke-width: 3; stroke-linecap: round"/>
   </g>
   <g id="text_12">
    <!-- Vohemar - population change trends -->
    <g transform="translate(83.109062 16.318125) scale(0.12 -0.12)">
     <defs>
      <path id="DejaVuSans-56" d="M 1831 0 
L 50 4666 
L 709 4666 
L 2188 738 
L 3669 4666 
L 4325 4666 
L 2547 0 
L 1831 0 
z
" transform="scale(0.015625)"/>
      <path id="DejaVuSans-6f" d="M 1959 3097 
Q 1497 3097 1228 2736 
Q 959 2375 959 1747 
Q 959 1119 1226 758 
Q 1494 397 1959 397 
Q 2419 397 2687 759 
Q 2956 1122 2956 1747 
Q 2956 2369 2687 2733 
Q 2419 3097 1959 3097 
z
M 1959 3584 
Q 2709 3584 3137 3096 
Q 3566 2609 3566 1747 
Q 3566 888 3137 398 
Q 2709 -91 1959 -91 
Q 1206 -91 779 398 
Q 353 888 353 1747 
Q 353 2609 779 3096 
Q 1206 3584 1959 3584 
z
" transform="scale(0.015625)"/>
      <path id="DejaVuSans-68" d="M 3513 2113 
L 3513 0 
L 2938 0 
L 2938 2094 
Q 2938 2591 2744 2837 
Q 2550 3084 2163 3084 
Q 1697 3084 1428 2787 
Q 1159 2491 1159 1978 
L 1159 0 
L 581 0 
L 581 4863 
L 1159 4863 
L 1159 2956 
Q 1366 3272 1645 3428 
Q 1925 3584 2291 3584 
Q 2894 3584 3203 3211 
Q 3513 2838 3513 2113 
z
" transform="scale(0.015625)"/>
      <path id="DejaVuSans-65" d="M 3597 1894 
L 3597 1613 
L 953 1613 
Q 991 1019 1311 708 
Q 1631 397 2203 397 
Q 2534 397 2845 478 
Q 3156 559 3463 722 
L 3463 178 
Q 3153 47 2828 -22 
Q 2503 -91 2169 -91 
Q 1331 -91 842 396 
Q 353 884 353 1716 
Q 353 2575 817 3079 
Q 1281 3584 2069 3584 
Q 2775 3584 3186 3129 
Q 3597 2675 3597 1894 
z
M 3022 2063 
Q 3016 2534 2758 2815 
Q 2500 3097 2075 3097 
Q 1594 3097 1305 2825 
Q 1016 2553 972 2059 
L 3022 2063 
z
" transform="scale(0.015625)"/>
      <path id="DejaVuSans-6d" d="M 3328 2828 
Q 3544 3216 3844 3400 
Q 4144 3584 4550 3584 
Q 5097 3584 5394 3201 
Q 5691 2819 5691 2113 
L 5691 0 
L 5113 0 
L 5113 2094 
Q 5113 2597 4934 2840 
Q 4756 3084 4391 3084 
Q 3944 3084 3684 2787 
Q 3425 2491 3425 1978 
L 3425 0 
L 2847 0 
L 2847 2094 
Q 2847 2600 2669 2842 
Q 2491 3084 2119 3084 
Q 1678 3084 1418 2786 
Q 1159 2488 1159 1978 
L 1159 0 
L 581 0 
L 581 3500 
L 1159 3500 
L 1159 2956 
Q 1356 3278 1631 3431 
Q 1906 3584 2284 3584 
Q 2666 3584 2933 3390 
Q 3200 3197 3328 2828 
z
" transform="scale(0.015625)"/>
      <path id="DejaVuSans-75" d="M 544 1381 
L 544 3500 
L 1119 3500 
L 1119 1403 
Q 1119 906 1312 657 
Q 1506 409 1894 409 
Q 2359 409 2629 706 
Q 2900 1003 2900 1516 
L 2900 3500 
L 3475 3500 
L 3475 0 
L 2900 0 
L 2900 538 
Q 2691 219 2414 64 
Q 2138 -91 1772 -91 
Q 1169 -91 856 284 
Q 544 659 544 1381 
z
M 1991 3584 
L 1991 3584 
z
" transform="scale(0.015625)"/>
      <path id="DejaVuSans-6c" d="M 603 4863 
L 1178 4863 
L 1178 0 
L 603 0 
L 603 4863 
z
" transform="scale(0.015625)"/>
      <path id="DejaVuSans-74" d="M 1172 4494 
L 1172 3500 
L 2356 3500 
L 2356 3053 
L 1172 3053 
L 1172 1153 
Q 1172 725 1289 603 
Q 1406 481 1766 481 
L 2356 481 
L 2356 0 
L 1766 0 
Q 1100 0 847 248 
Q 594 497 594 1153 
L 594 3053 
L 172 3053 
L 172 3500 
L 594 3500 
L 594 4494 
L 1172 4494 
z
" transform="scale(0.015625)"/>
      <path id="DejaVuSans-69" d="M 603 3500 
L 1178 3500 
L 1178 0 
L 603 0 
L 603 3500 
z
M 603 4863 
L 1178 4863 
L 1178 4134 
L 603 4134 
L 603 4863 
z
" transform="scale(0.015625)"/>
      <path id="DejaVuSans-6e" d="M 3513 2113 
L 3513 0 
L 2938 0 
L 2938 2094 
Q 2938 2591 2744 2837 
Q 2550 3084 2163 3084 
Q 1697 3084 1428 2787 
Q 1159 2491 1159 1978 
L 1159 0 
L 581 0 
L 581 3500 
L 1159 3500 
L 1159 2956 
Q 1366 3272 1645 3428 
Q 1925 3584 2291 3584 
Q 2894 3584 3203 3211 
Q 3513 2838 3513 2113 
z
" transform="scale(0.015625)"/>
      <path id="DejaVuSans-63" d="M 3122 3366 
L 3122 2828 
Q 2878 2963 2633 3030 
Q 2388 3097 2138 3097 
Q 1578 3097 1268 2742 
Q 959 2388 959 1747 
Q 959 1106 1268 751 
Q 1578 397 2138 397 
Q 2388 397 2633 464 
Q 2878 531 3122 666 
L 3122 134 
Q 2881 22 2623 -34 
Q 2366 -91 2075 -91 
Q 1284 -91 818 406 
Q 353 903 353 1747 
Q 353 2603 823 3093 
Q 1294 3584 2113 3584 
Q 2378 3584 2631 3529 
Q 2884 3475 3122 3366 
z
" transform="scale(0.015625)"/>
      <path id="DejaVuSans-67" d="M 2906 1791 
Q 2906 2416 2648 2759 
Q 2391 3103 1925 3103 
Q 1463 3103 1205 2759 
Q 947 2416 947 1791 
Q 947 1169 1205 825 
Q 1463 481 1925 481 
Q 2391 481 2648 825 
Q 2906 1169 2906 1791 
z
M 3481 434 
Q 3481 -459 3084 -895 
Q 2688 -1331 1869 -1331 
Q 1566 -1331 1297 -1286 
Q 1028 -1241 775 -1147 
L 775 -588 
Q 1028 -725 1275 -790 
Q 1522 -856 1778 -856 
Q 2344 -856 2625 -561 
Q 2906 -266 2906 331 
L 2906 616 
Q 2728 306 2450 153 
Q 2172 0 1784 0 
Q 1141 0 747 490 
Q 353 981 353 1791 
Q 353 2603 747 3093 
Q 1141 3584 1784 3584 
Q 2172 3584 2450 3431 
Q 2728 3278 2906 2969 
L 2906 3500 
L 3481 3500 
L 3481 434 
z
" transform="scale(0.015625)"/>
      <path id="DejaVuSans-64" d="M 2906 2969 
L 2906 4863 
L 3481 4863 
L 3481 0 
L 2906 0 
L 2906 525 
Q 2725 213 2448 61 
Q 2172 -91 1784 -91 
Q 1150 -91 751 415 
Q 353 922 353 1747 
Q 353 2572 751 3078 
Q 1150 3584 1784 3584 
Q 2172 3584 2448 3432 
Q 2725 3281 2906 2969 
z
M 947 1747 
Q 947 1113 1208 752 
Q 1469 391 1925 391 
Q 2381 391 2643 752 
Q 2906 1113 2906 1747 
Q 2906 2381 2643 2742 
Q 2381 3103 1925 3103 
Q 1469 3103 1208 2742 
Q 947 2381 947 1747 
z
" transform="scale(0.015625)"/>
      <path id="DejaVuSans-73" d="M 2834 3397 
L 2834 2853 
Q 2591 2978 2328 3040 
Q 2066 3103 1784 3103 
Q 1356 3103 1142 2972 
Q 928 2841 928 2578 
Q 928 2378 1081 2264 
Q 1234 2150 1697 2047 
L 1894 2003 
Q 2506 1872 2764 1633 
Q 3022 1394 3022 966 
Q 3022 478 2636 193 
Q 2250 -91 1575 -91 
Q 1294 -91 989 -36 
Q 684 19 347 128 
L 347 722 
Q 666 556 975 473 
Q 1284 391 1588 391 
Q 1994 391 2212 530 
Q 2431 669 2431 922 
Q 2431 1156 2273 1281 
Q 2116 1406 1581 1522 
L 1381 1569 
Q 847 1681 609 1914 
Q 372 2147 372 2553 
Q 372 3047 722 3315 
Q 1072 3584 1716 3584 
Q 2034 3584 2315 3537 
Q 2597 3491 2834 3397 
z
" transform="scale(0.015625)"/>
     </defs>
     <use xlink:href="#DejaVuSans-56"/>
     <use xlink:href="#DejaVuSans-6f" x="60.658203"/>
     <use xlink:href="#DejaVuSans-68" x="121.839844"/>
     <use xlink:href="#DejaVuSans-65" x="185.21875"/>
     <use xlink:href="#DejaVuSans-6d" x="246.742188"/>
     <use xlink:href="#DejaVuSans-61" x="344.154297"/>
     <use xlink:href="#DejaVuSans-72" x="405.433594"/>
     <use xlink:href="#DejaVuSans-20" x="446.546875"/>
     <use xlink:href="#DejaVuSans-2d" x="478.333984"/>
     <use xlink:href="#DejaVuSans-20" x="514.417969"/>
     <use xlink:href="#DejaVuSans-70" x="546.205078"/>
     <use xlink:href="#DejaVuSans-6f" x="609.681641"/>
     <use xlink:href="#DejaVuSans-70" x="670.863281"/>
     <use xlink:href="#DejaVuSans-75" x="734.339844"/>
     <use xlink:href="#DejaVuSans-6c" x="797.71875"/>
     <use xlink:href="#DejaVuSans-61" x="825.501953"/>
     <use xlink:href="#DejaVuSans-74" x="886.78125"/>
     <use xlink:href="#DejaVuSans-69" x="925.990234"/>
     <use xlink:href="#DejaVuSans-6f" x="953.773438"/>
     <use xlink:href="#DejaVuSans-6e" x="1014.955078"/>
     <use xlink:href="#DejaVuSans-20" x="1078.333984"/>
     <use xlink:href="#DejaVuSans-63" x="1110.121094"/>
     <use xlink:href="#DejaVuSans-68" x="1165.101562"/>
     <use xlink:href="#DejaVuSans-61" x="1228.480469"/>
     <use xlink:href="#DejaVuSans-6e" x="1289.759766"/>
     <use xlink:href="#DejaVuSans-67" x="1353.138672"/>
     <use xlink:href="#DejaVuSans-65" x="1416.615234"/>
     <use xlink:href="#DejaVuSans-20" x="1478.138672"/>
     <use xlink:href="#DejaVuSans-74" x="1509.925781"/>
     <use xlink:href="#DejaVuSans-72" x="1549.134766"/>
     <use xlink:href="#DejaVuSans-65" x="1587.998047"/>
     <use xlink:href="#DejaVuSans-6e" x="1649.521484"/>
     <use xlink:href="#DejaVuSans-64" x="1712.900391"/>
     <use xlink:href="#DejaVuSans-73" x="1776.376953"/>
    </g>
   </g>
  </g>
 </g>
 <defs>
  <clipPath id="pe6c95bc93e">
   <rect x="40.034375" y="22.318125" width="305.565625" height="162.60375"/>
  </clipPath>
 </defs>
</svg>
