<?xml version="1.0" encoding="utf-8" standalone="no"?>
<!DOCTYPE svg PUBLIC "-//W3C//DTD SVG 1.1//EN"
  "http://www.w3.org/Graphics/SVG/1.1/DTD/svg11.dtd">
<svg xmlns:xlink="http://www.w3.org/1999/xlink" width="351.770642pt" height="208.8pt" viewBox="0 0 351.770642 208.8" xmlns="http://www.w3.org/2000/svg" version="1.1">
 <metadata>
  <rdf:RDF xmlns:dc="http://purl.org/dc/elements/1.1/" xmlns:cc="http://creativecommons.org/ns#" xmlns:rdf="http://www.w3.org/1999/02/22-rdf-syntax-ns#">
   <cc:Work>
    <dc:type rdf:resource="http://purl.org/dc/dcmitype/StillImage"/>
    <dc:date>2024-04-11T09:33:01.083205</dc:date>
    <dc:format>image/svg+xml</dc:format>
    <dc:creator>
     <cc:Agent>
      <dc:title>Matplotlib v3.8.3, https://matplotlib.org/</dc:title>
     </cc:Agent>
    </dc:creator>
   </cc:Work>
  </rdf:RDF>
 </metadata>
 <defs>
  <style type="text/css">*{stroke-linejoin: round; stroke-linecap: butt}</style>
 </defs>
 <g id="figure_1">
  <g id="patch_1">
   <path d="M 0 208.8 
L 351.770642 208.8 
L 351.770642 0 
L 0 0 
L 0 208.8 
z
" style="fill: none"/>
  </g>
  <g id="axes_1">
   <g id="patch_2">
    <path d="M 40.034375 184.921875 
L 341.680256 184.921875 
L 341.680256 22.318125 
L 40.034375 22.318125 
L 40.034375 184.921875 
z
" style="fill: none; opacity: 0"/>
   </g>
   <g id="PolyCollection_1">
    <defs>
     <path id="m3e0c760262" d="M 181.700688 -105.18 
L 182.144528 -106.044728 
L 183.061663 -107.721931 
L 183.978799 -109.278657 
L 184.895934 -110.704071 
L 185.81307 -111.987338 
L 186.730205 -113.117624 
L 187.647341 -114.084094 
L 188.564476 -114.875911 
L 189.481612 -115.482242 
L 190.398748 -115.892252 
L 191.315883 -116.095653 
L 192.233019 -116.094781 
L 193.150154 -115.904586 
L 194.06729 -115.54057 
L 194.984425 -115.018236 
L 195.901561 -114.353083 
L 196.818696 -113.560615 
L 197.735832 -112.656331 
L 198.652967 -111.655733 
L 199.570103 -110.574324 
L 200.487239 -109.427603 
L 201.404374 -108.231073 
L 202.32151 -107.000234 
L 203.238645 -105.750589 
L 203.656305 -105.18 
L 203.238645 -105.18 
L 202.32151 -105.18 
L 201.404374 -105.18 
L 200.487239 -105.18 
L 199.570103 -105.18 
L 198.652967 -105.18 
L 197.735832 -105.18 
L 196.818696 -105.18 
L 195.901561 -105.18 
L 194.984425 -105.18 
L 194.06729 -105.18 
L 193.150154 -105.18 
L 192.233019 -105.18 
L 191.315883 -105.18 
L 190.398748 -105.18 
L 189.481612 -105.18 
L 188.564476 -105.18 
L 187.647341 -105.18 
L 186.730205 -105.18 
L 185.81307 -105.18 
L 184.895934 -105.18 
L 183.978799 -105.18 
L 183.061663 -105.18 
L 182.144528 -105.18 
z
" style="stroke: #6ec5bc; stroke-opacity: 0.1"/>
    </defs>
    <g clip-path="url(#pf43e0a42dd)">
     <use xlink:href="#m3e0c760262" x="0" y="208.8" style="fill: #6ec5bc; fill-opacity: 0.1; stroke: #6ec5bc; stroke-opacity: 0.1"/>
    </g>
   </g>
   <g id="PolyCollection_2">
    <path d="M 53.745551 119.880375 
L 53.745551 119.880375 
L 54.662687 119.525799 
L 55.579822 119.319981 
L 56.496958 119.257247 
L 57.414094 119.331923 
L 58.331229 119.538336 
L 59.248365 119.870811 
L 60.1655 120.323675 
L 61.082636 120.891254 
L 61.999771 121.567874 
L 62.916907 122.34786 
L 63.834042 123.22554 
L 64.751178 124.195238 
L 65.668313 125.251282 
L 66.585449 126.387998 
L 67.502585 127.59971 
L 68.41972 128.880747 
L 69.336856 130.225433 
L 70.253991 131.628094 
L 71.171127 133.083058 
L 72.088262 134.58465 
L 73.005398 136.127195 
L 73.922533 137.705021 
L 74.839669 139.312454 
L 75.756804 140.943818 
L 76.67394 142.593441 
L 77.591076 144.255649 
L 78.508211 145.924768 
L 79.425347 147.595123 
L 80.342482 149.261041 
L 81.259618 150.916849 
L 82.176753 152.556871 
L 83.093889 154.175435 
L 84.011024 155.766866 
L 84.92816 157.32549 
L 85.845295 158.845634 
L 86.762431 160.321624 
L 87.679567 161.747785 
L 88.596702 163.118444 
L 89.513838 164.427928 
L 90.430973 165.670561 
L 91.348109 166.84067 
L 92.265244 167.932582 
L 93.18238 168.940622 
L 94.099515 169.859117 
L 95.016651 170.682392 
L 95.933786 171.404774 
L 96.850922 172.020589 
L 97.768058 172.524163 
L 98.685193 172.909821 
L 99.602329 173.171891 
L 100.519464 173.304698 
L 101.4366 173.302569 
L 102.353735 173.159828 
L 103.270871 172.870804 
L 104.188006 172.429821 
L 105.105142 171.831206 
L 106.022277 171.069284 
L 106.939413 170.138383 
L 107.856549 169.032827 
L 108.773684 167.746944 
L 109.69082 166.275059 
L 110.607955 164.611499 
L 111.525091 162.750588 
L 112.442226 160.686655 
L 113.359362 158.418633 
L 114.276497 155.968317 
L 115.193633 153.364572 
L 116.110768 150.636264 
L 117.027904 147.812263 
L 117.94504 144.921436 
L 118.862175 141.99265 
L 119.779311 139.054772 
L 120.696446 136.136672 
L 121.613582 133.267216 
L 122.530717 130.475271 
L 123.447853 127.789707 
L 124.364988 125.239389 
L 125.282124 122.853187 
L 126.199259 120.659967 
L 127.116395 118.688597 
L 128.033531 116.967945 
L 128.950666 115.526878 
L 129.867802 114.394265 
L 130.784937 113.598972 
L 131.702073 113.169868 
L 132.619208 113.133896 
L 133.536344 113.485674 
L 134.453479 114.192999 
L 135.370615 115.222858 
L 136.28775 116.542234 
L 137.204886 118.118113 
L 138.122022 119.917481 
L 139.039157 121.907323 
L 139.956293 124.054623 
L 140.873428 126.326367 
L 141.790564 128.689541 
L 142.707699 131.111129 
L 143.624835 133.558116 
L 144.54197 135.997489 
L 145.459106 138.396231 
L 146.376241 140.721329 
L 147.293377 142.939767 
L 148.210513 145.018531 
L 149.127648 146.924605 
L 150.044784 148.624976 
L 150.961919 150.086628 
L 151.879055 151.276622 
L 152.79619 152.175465 
L 153.713326 152.792488 
L 154.630461 153.140747 
L 155.547597 153.233299 
L 156.464732 153.0832 
L 157.381868 152.703507 
L 158.299004 152.107275 
L 159.216139 151.30756 
L 160.133275 150.31742 
L 161.05041 149.149909 
L 161.967546 147.818085 
L 162.884681 146.335004 
L 163.801817 144.713721 
L 164.718952 142.967294 
L 165.636088 141.108777 
L 166.553223 139.151229 
L 167.470359 137.107704 
L 168.387494 134.991259 
L 169.30463 132.81495 
L 170.221766 130.591834 
L 171.138901 128.334966 
L 172.056037 126.05717 
L 172.973172 123.769831 
L 173.890308 121.483783 
L 174.807443 119.209863 
L 175.724579 116.958904 
L 176.641714 114.741743 
L 177.55885 112.569214 
L 178.475985 110.452152 
L 179.393121 108.401391 
L 180.310257 106.427768 
L 181.227392 104.542117 
L 181.700688 103.62 
L 181.227392 103.62 
L 180.310257 103.62 
L 179.393121 103.62 
L 178.475985 103.62 
L 177.55885 103.62 
L 176.641714 103.62 
L 175.724579 103.62 
L 174.807443 103.62 
L 173.890308 103.62 
L 172.973172 103.62 
L 172.056037 103.62 
L 171.138901 103.62 
L 170.221766 103.62 
L 169.30463 103.62 
L 168.387494 103.62 
L 167.470359 103.62 
L 166.553223 103.62 
L 165.636088 103.62 
L 164.718952 103.62 
L 163.801817 103.62 
L 162.884681 103.62 
L 161.967546 103.62 
L 161.05041 103.62 
L 160.133275 103.62 
L 159.216139 103.62 
L 158.299004 103.62 
L 157.381868 103.62 
L 156.464732 103.62 
L 155.547597 103.62 
L 154.630461 103.62 
L 153.713326 103.62 
L 152.79619 103.62 
L 151.879055 103.62 
L 150.961919 103.62 
L 150.044784 103.62 
L 149.127648 103.62 
L 148.210513 103.62 
L 147.293377 103.62 
L 146.376241 103.62 
L 145.459106 103.62 
L 144.54197 103.62 
L 143.624835 103.62 
L 142.707699 103.62 
L 141.790564 103.62 
L 140.873428 103.62 
L 139.956293 103.62 
L 139.039157 103.62 
L 138.122022 103.62 
L 137.204886 103.62 
L 136.28775 103.62 
L 135.370615 103.62 
L 134.453479 103.62 
L 133.536344 103.62 
L 132.619208 103.62 
L 131.702073 103.62 
L 130.784937 103.62 
L 129.867802 103.62 
L 128.950666 103.62 
L 128.033531 103.62 
L 127.116395 103.62 
L 126.199259 103.62 
L 125.282124 103.62 
L 124.364988 103.62 
L 123.447853 103.62 
L 122.530717 103.62 
L 121.613582 103.62 
L 120.696446 103.62 
L 119.779311 103.62 
L 118.862175 103.62 
L 117.94504 103.62 
L 117.027904 103.62 
L 116.110768 103.62 
L 115.193633 103.62 
L 114.276497 103.62 
L 113.359362 103.62 
L 112.442226 103.62 
L 111.525091 103.62 
L 110.607955 103.62 
L 109.69082 103.62 
L 108.773684 103.62 
L 107.856549 103.62 
L 106.939413 103.62 
L 106.022277 103.62 
L 105.105142 103.62 
L 104.188006 103.62 
L 103.270871 103.62 
L 102.353735 103.62 
L 101.4366 103.62 
L 100.519464 103.62 
L 99.602329 103.62 
L 98.685193 103.62 
L 97.768058 103.62 
L 96.850922 103.62 
L 95.933786 103.62 
L 95.016651 103.62 
L 94.099515 103.62 
L 93.18238 103.62 
L 92.265244 103.62 
L 91.348109 103.62 
L 90.430973 103.62 
L 89.513838 103.62 
L 88.596702 103.62 
L 87.679567 103.62 
L 86.762431 103.62 
L 85.845295 103.62 
L 84.92816 103.62 
L 84.011024 103.62 
L 83.093889 103.62 
L 82.176753 103.62 
L 81.259618 103.62 
L 80.342482 103.62 
L 79.425347 103.62 
L 78.508211 103.62 
L 77.591076 103.62 
L 76.67394 103.62 
L 75.756804 103.62 
L 74.839669 103.62 
L 73.922533 103.62 
L 73.005398 103.62 
L 72.088262 103.62 
L 71.171127 103.62 
L 70.253991 103.62 
L 69.336856 103.62 
L 68.41972 103.62 
L 67.502585 103.62 
L 66.585449 103.62 
L 65.668313 103.62 
L 64.751178 103.62 
L 63.834042 103.62 
L 62.916907 103.62 
L 61.999771 103.62 
L 61.082636 103.62 
L 60.1655 103.62 
L 59.248365 103.62 
L 58.331229 103.62 
L 57.414094 103.62 
L 56.496958 103.62 
L 55.579822 103.62 
L 54.662687 103.62 
L 53.745551 103.62 
z
" clip-path="url(#pf43e0a42dd)" style="fill: #ed6b4d; fill-opacity: 0.1; stroke: #ed6b4d; stroke-opacity: 0.1"/>
    <path d="M 203.656305 103.62 
L 204.155781 104.302361 
L 205.072916 105.543116 
L 205.990052 106.756173 
L 206.907187 107.926032 
L 207.824323 109.03719 
L 208.741458 110.074147 
L 209.658594 111.021402 
L 210.57573 111.863464 
L 211.492865 112.591209 
L 212.410001 113.212207 
L 213.327136 113.736733 
L 214.244272 114.175063 
L 215.161407 114.537474 
L 216.078543 114.834241 
L 216.995678 115.075639 
L 217.912814 115.271945 
L 218.829949 115.433434 
L 219.747085 115.570383 
L 220.664221 115.693067 
L 221.581356 115.811762 
L 222.498492 115.936743 
L 223.415627 116.078287 
L 224.332763 116.246669 
L 225.249898 116.452166 
L 226.167034 116.705052 
L 227.084169 117.015604 
L 228.001305 117.394098 
L 228.91844 117.85081 
L 229.835576 118.396014 
L 230.752712 119.0381 
L 231.669847 119.770838 
L 232.586983 120.581185 
L 233.504118 121.456057 
L 234.421254 122.382371 
L 235.338389 123.347044 
L 236.255525 124.336993 
L 237.17266 125.339135 
L 238.089796 126.340387 
L 239.006931 127.327665 
L 239.924067 128.287886 
L 240.841203 129.207968 
L 241.758338 130.074827 
L 242.675474 130.87538 
L 243.592609 131.596545 
L 244.509745 132.225236 
L 245.42688 132.748373 
L 246.344016 133.152872 
L 247.261151 133.425648 
L 248.178287 133.553621 
L 249.095422 133.523705 
L 250.012558 133.323192 
L 250.929694 132.951695 
L 251.846829 132.423679 
L 252.763965 131.754494 
L 253.6811 130.959491 
L 254.598236 130.054019 
L 255.515371 129.053428 
L 256.432507 127.973068 
L 257.349642 126.828289 
L 258.266778 125.634441 
L 259.183913 124.406873 
L 260.101049 123.160936 
L 261.018185 121.911979 
L 261.93532 120.675352 
L 262.852456 119.466405 
L 263.769591 118.300489 
L 264.686727 117.192952 
L 265.603862 116.159145 
L 266.520998 115.214418 
L 267.438133 114.374121 
L 268.355269 113.653603 
L 269.272404 113.068212 
L 270.18954 112.628123 
L 271.106676 112.326782 
L 272.023811 112.154264 
L 272.940947 112.100644 
L 273.858082 112.155995 
L 274.775218 112.310393 
L 275.692353 112.553912 
L 276.609489 112.876627 
L 277.526624 113.268611 
L 278.44376 113.71994 
L 279.360895 114.220689 
L 280.278031 114.760931 
L 281.195167 115.330741 
L 282.112302 115.920194 
L 283.029438 116.519364 
L 283.946573 117.118326 
L 284.863709 117.707154 
L 285.780844 118.275923 
L 286.69798 118.814708 
L 287.615115 119.313582 
L 288.532251 119.762621 
L 289.449386 120.152612 
L 290.366522 120.48135 
L 291.283657 120.750609 
L 292.200793 120.962205 
L 293.117929 121.117958 
L 294.035064 121.219685 
L 294.9522 121.269206 
L 295.869335 121.268337 
L 296.786471 121.218897 
L 297.703606 121.122704 
L 298.620742 120.981576 
L 299.537877 120.797333 
L 300.455013 120.571791 
L 301.372148 120.306768 
L 302.289284 120.004084 
L 303.20642 119.665557 
L 304.123555 119.293003 
L 305.040691 118.888243 
L 305.957826 118.453093 
L 306.874962 117.989372 
L 307.792097 117.498898 
L 308.709233 116.98349 
L 309.626368 116.444965 
L 310.543504 115.885142 
L 311.460639 115.305839 
L 312.377775 114.708874 
L 313.294911 114.096065 
L 314.212046 113.46923 
L 315.129182 112.830188 
L 316.046317 112.180757 
L 316.963453 111.522754 
L 317.880588 110.857999 
L 318.797724 110.188309 
L 319.714859 109.515503 
L 320.631995 108.841398 
L 321.54913 108.167813 
L 322.466266 107.496566 
L 323.383402 106.829475 
L 324.300537 106.168359 
L 325.217673 105.515035 
L 326.134808 104.871322 
L 327.051944 104.239037 
L 327.969079 103.62 
L 327.051944 103.62 
L 326.134808 103.62 
L 325.217673 103.62 
L 324.300537 103.62 
L 323.383402 103.62 
L 322.466266 103.62 
L 321.54913 103.62 
L 320.631995 103.62 
L 319.714859 103.62 
L 318.797724 103.62 
L 317.880588 103.62 
L 316.963453 103.62 
L 316.046317 103.62 
L 315.129182 103.62 
L 314.212046 103.62 
L 313.294911 103.62 
L 312.377775 103.62 
L 311.460639 103.62 
L 310.543504 103.62 
L 309.626368 103.62 
L 308.709233 103.62 
L 307.792097 103.62 
L 306.874962 103.62 
L 305.957826 103.62 
L 305.040691 103.62 
L 304.123555 103.62 
L 303.20642 103.62 
L 302.289284 103.62 
L 301.372148 103.62 
L 300.455013 103.62 
L 299.537877 103.62 
L 298.620742 103.62 
L 297.703606 103.62 
L 296.786471 103.62 
L 295.869335 103.62 
L 294.9522 103.62 
L 294.035064 103.62 
L 293.117929 103.62 
L 292.200793 103.62 
L 291.283657 103.62 
L 290.366522 103.62 
L 289.449386 103.62 
L 288.532251 103.62 
L 287.615115 103.62 
L 286.69798 103.62 
L 285.780844 103.62 
L 284.863709 103.62 
L 283.946573 103.62 
L 283.029438 103.62 
L 282.112302 103.62 
L 281.195167 103.62 
L 280.278031 103.62 
L 279.360895 103.62 
L 278.44376 103.62 
L 277.526624 103.62 
L 276.609489 103.62 
L 275.692353 103.62 
L 274.775218 103.62 
L 273.858082 103.62 
L 272.940947 103.62 
L 272.023811 103.62 
L 271.106676 103.62 
L 270.18954 103.62 
L 269.272404 103.62 
L 268.355269 103.62 
L 267.438133 103.62 
L 266.520998 103.62 
L 265.603862 103.62 
L 264.686727 103.62 
L 263.769591 103.62 
L 262.852456 103.62 
L 261.93532 103.62 
L 261.018185 103.62 
L 260.101049 103.62 
L 259.183913 103.62 
L 258.266778 103.62 
L 257.349642 103.62 
L 256.432507 103.62 
L 255.515371 103.62 
L 254.598236 103.62 
L 253.6811 103.62 
L 252.763965 103.62 
L 251.846829 103.62 
L 250.929694 103.62 
L 250.012558 103.62 
L 249.095422 103.62 
L 248.178287 103.62 
L 247.261151 103.62 
L 246.344016 103.62 
L 245.42688 103.62 
L 244.509745 103.62 
L 243.592609 103.62 
L 242.675474 103.62 
L 241.758338 103.62 
L 240.841203 103.62 
L 239.924067 103.62 
L 239.006931 103.62 
L 238.089796 103.62 
L 237.17266 103.62 
L 236.255525 103.62 
L 235.338389 103.62 
L 234.421254 103.62 
L 233.504118 103.62 
L 232.586983 103.62 
L 231.669847 103.62 
L 230.752712 103.62 
L 229.835576 103.62 
L 228.91844 103.62 
L 228.001305 103.62 
L 227.084169 103.62 
L 226.167034 103.62 
L 225.249898 103.62 
L 224.332763 103.62 
L 223.415627 103.62 
L 222.498492 103.62 
L 221.581356 103.62 
L 220.664221 103.62 
L 219.747085 103.62 
L 218.829949 103.62 
L 217.912814 103.62 
L 216.995678 103.62 
L 216.078543 103.62 
L 215.161407 103.62 
L 214.244272 103.62 
L 213.327136 103.62 
L 212.410001 103.62 
L 211.492865 103.62 
L 210.57573 103.62 
L 209.658594 103.62 
L 208.741458 103.62 
L 207.824323 103.62 
L 206.907187 103.62 
L 205.990052 103.62 
L 205.072916 103.62 
L 204.155781 103.62 
z
" clip-path="url(#pf43e0a42dd)" style="fill: #ed6b4d; fill-opacity: 0.1; stroke: #ed6b4d; stroke-opacity: 0.1"/>
   </g>
   <g id="line2d_1">
    <defs>
     <path id="m71bed803c6" d="M 0 3 
C 0.795609 3 1.55874 2.683901 2.12132 2.12132 
C 2.683901 1.55874 3 0.795609 3 0 
C 3 -0.795609 2.683901 -1.55874 2.12132 -2.12132 
C 1.55874 -2.683901 0.795609 -3 0 -3 
C -0.795609 -3 -1.55874 -2.683901 -2.12132 -2.12132 
C -2.683901 -1.55874 -3 -0.795609 -3 0 
C -3 0.795609 -2.683901 1.55874 -2.12132 2.12132 
C -1.55874 2.683901 -0.795609 3 0 3 
z
" style="stroke: #0035a0"/>
    </defs>
    <g clip-path="url(#pf43e0a42dd)">
     <use xlink:href="#m71bed803c6" x="53.745551" y="119.880375" style="fill: #0035a0; stroke: #0035a0"/>
     <use xlink:href="#m71bed803c6" x="92.920341" y="168.6615" style="fill: #0035a0; stroke: #0035a0"/>
     <use xlink:href="#m71bed803c6" x="112.507736" y="160.531312" style="fill: #0035a0; stroke: #0035a0"/>
     <use xlink:href="#m71bed803c6" x="132.095131" y="113.105219" style="fill: #0035a0; stroke: #0035a0"/>
     <use xlink:href="#m71bed803c6" x="151.682526" y="151.046094" style="fill: #0035a0; stroke: #0035a0"/>
     <use xlink:href="#m71bed803c6" x="171.26992" y="128.010562" style="fill: #0035a0; stroke: #0035a0"/>
     <use xlink:href="#m71bed803c6" x="190.857315" y="92.77975" style="fill: #0035a0; stroke: #0035a0"/>
     <use xlink:href="#m71bed803c6" x="210.44471" y="111.750187" style="fill: #0035a0; stroke: #0035a0"/>
     <use xlink:href="#m71bed803c6" x="230.032105" y="118.525344" style="fill: #0035a0; stroke: #0035a0"/>
     <use xlink:href="#m71bed803c6" x="249.6195" y="133.430687" style="fill: #0035a0; stroke: #0035a0"/>
     <use xlink:href="#m71bed803c6" x="269.206895" y="113.105219" style="fill: #0035a0; stroke: #0035a0"/>
     <use xlink:href="#m71bed803c6" x="288.79429" y="119.880375" style="fill: #0035a0; stroke: #0035a0"/>
     <use xlink:href="#m71bed803c6" x="308.381684" y="117.170312" style="fill: #0035a0; stroke: #0035a0"/>
     <use xlink:href="#m71bed803c6" x="327.969079" y="103.62" style="fill: #0035a0; stroke: #0035a0"/>
    </g>
   </g>
   <g id="line2d_2">
    <path d="M 40.034375 103.62 
L 341.680256 103.62 
" clip-path="url(#pf43e0a42dd)" style="fill: none; stroke: #808080; stroke-width: 0.8; stroke-linecap: square"/>
   </g>
   <g id="matplotlib.axis_1">
    <g id="xtick_1">
     <g id="line2d_3">
      <defs>
       <path id="m8a80677983" d="M 0 0 
L 0 3.5 
" style="stroke: #000000; stroke-width: 0.8"/>
      </defs>
      <g>
       <use xlink:href="#m8a80677983" x="53.745551" y="184.921875" style="stroke: #000000; stroke-width: 0.8"/>
      </g>
     </g>
     <g id="text_1">
      <!-- 26 Mar -->
      <g transform="translate(36.360395 199.520312) scale(0.1 -0.1)">
       <defs>
        <path id="DejaVuSans-32" d="M 1228 531 
L 3431 531 
L 3431 0 
L 469 0 
L 469 531 
Q 828 903 1448 1529 
Q 2069 2156 2228 2338 
Q 2531 2678 2651 2914 
Q 2772 3150 2772 3378 
Q 2772 3750 2511 3984 
Q 2250 4219 1831 4219 
Q 1534 4219 1204 4116 
Q 875 4013 500 3803 
L 500 4441 
Q 881 4594 1212 4672 
Q 1544 4750 1819 4750 
Q 2544 4750 2975 4387 
Q 3406 4025 3406 3419 
Q 3406 3131 3298 2873 
Q 3191 2616 2906 2266 
Q 2828 2175 2409 1742 
Q 1991 1309 1228 531 
z
" transform="scale(0.015625)"/>
        <path id="DejaVuSans-36" d="M 2113 2584 
Q 1688 2584 1439 2293 
Q 1191 2003 1191 1497 
Q 1191 994 1439 701 
Q 1688 409 2113 409 
Q 2538 409 2786 701 
Q 3034 994 3034 1497 
Q 3034 2003 2786 2293 
Q 2538 2584 2113 2584 
z
M 3366 4563 
L 3366 3988 
Q 3128 4100 2886 4159 
Q 2644 4219 2406 4219 
Q 1781 4219 1451 3797 
Q 1122 3375 1075 2522 
Q 1259 2794 1537 2939 
Q 1816 3084 2150 3084 
Q 2853 3084 3261 2657 
Q 3669 2231 3669 1497 
Q 3669 778 3244 343 
Q 2819 -91 2113 -91 
Q 1303 -91 875 529 
Q 447 1150 447 2328 
Q 447 3434 972 4092 
Q 1497 4750 2381 4750 
Q 2619 4750 2861 4703 
Q 3103 4656 3366 4563 
z
" transform="scale(0.015625)"/>
        <path id="DejaVuSans-20" transform="scale(0.015625)"/>
        <path id="DejaVuSans-4d" d="M 628 4666 
L 1569 4666 
L 2759 1491 
L 3956 4666 
L 4897 4666 
L 4897 0 
L 4281 0 
L 4281 4097 
L 3078 897 
L 2444 897 
L 1241 4097 
L 1241 0 
L 628 0 
L 628 4666 
z
" transform="scale(0.015625)"/>
        <path id="DejaVuSans-61" d="M 2194 1759 
Q 1497 1759 1228 1600 
Q 959 1441 959 1056 
Q 959 750 1161 570 
Q 1363 391 1709 391 
Q 2188 391 2477 730 
Q 2766 1069 2766 1631 
L 2766 1759 
L 2194 1759 
z
M 3341 1997 
L 3341 0 
L 2766 0 
L 2766 531 
Q 2569 213 2275 61 
Q 1981 -91 1556 -91 
Q 1019 -91 701 211 
Q 384 513 384 1019 
Q 384 1609 779 1909 
Q 1175 2209 1959 2209 
L 2766 2209 
L 2766 2266 
Q 2766 2663 2505 2880 
Q 2244 3097 1772 3097 
Q 1472 3097 1187 3025 
Q 903 2953 641 2809 
L 641 3341 
Q 956 3463 1253 3523 
Q 1550 3584 1831 3584 
Q 2591 3584 2966 3190 
Q 3341 2797 3341 1997 
z
" transform="scale(0.015625)"/>
        <path id="DejaVuSans-72" d="M 2631 2963 
Q 2534 3019 2420 3045 
Q 2306 3072 2169 3072 
Q 1681 3072 1420 2755 
Q 1159 2438 1159 1844 
L 1159 0 
L 581 0 
L 581 3500 
L 1159 3500 
L 1159 2956 
Q 1341 3275 1631 3429 
Q 1922 3584 2338 3584 
Q 2397 3584 2469 3576 
Q 2541 3569 2628 3553 
L 2631 2963 
z
" transform="scale(0.015625)"/>
       </defs>
       <use xlink:href="#DejaVuSans-32"/>
       <use xlink:href="#DejaVuSans-36" x="63.623047"/>
       <use xlink:href="#DejaVuSans-20" x="127.246094"/>
       <use xlink:href="#DejaVuSans-4d" x="159.033203"/>
       <use xlink:href="#DejaVuSans-61" x="245.3125"/>
       <use xlink:href="#DejaVuSans-72" x="306.591797"/>
      </g>
     </g>
    </g>
    <g id="xtick_2">
     <g id="line2d_4">
      <g>
       <use xlink:href="#m8a80677983" x="92.920341" y="184.921875" style="stroke: #000000; stroke-width: 0.8"/>
      </g>
     </g>
     <g id="text_2">
      <!-- 28 Mar -->
      <g transform="translate(75.535185 199.520312) scale(0.1 -0.1)">
       <defs>
        <path id="DejaVuSans-38" d="M 2034 2216 
Q 1584 2216 1326 1975 
Q 1069 1734 1069 1313 
Q 1069 891 1326 650 
Q 1584 409 2034 409 
Q 2484 409 2743 651 
Q 3003 894 3003 1313 
Q 3003 1734 2745 1975 
Q 2488 2216 2034 2216 
z
M 1403 2484 
Q 997 2584 770 2862 
Q 544 3141 544 3541 
Q 544 4100 942 4425 
Q 1341 4750 2034 4750 
Q 2731 4750 3128 4425 
Q 3525 4100 3525 3541 
Q 3525 3141 3298 2862 
Q 3072 2584 2669 2484 
Q 3125 2378 3379 2068 
Q 3634 1759 3634 1313 
Q 3634 634 3220 271 
Q 2806 -91 2034 -91 
Q 1263 -91 848 271 
Q 434 634 434 1313 
Q 434 1759 690 2068 
Q 947 2378 1403 2484 
z
M 1172 3481 
Q 1172 3119 1398 2916 
Q 1625 2713 2034 2713 
Q 2441 2713 2670 2916 
Q 2900 3119 2900 3481 
Q 2900 3844 2670 4047 
Q 2441 4250 2034 4250 
Q 1625 4250 1398 4047 
Q 1172 3844 1172 3481 
z
" transform="scale(0.015625)"/>
       </defs>
       <use xlink:href="#DejaVuSans-32"/>
       <use xlink:href="#DejaVuSans-38" x="63.623047"/>
       <use xlink:href="#DejaVuSans-20" x="127.246094"/>
       <use xlink:href="#DejaVuSans-4d" x="159.033203"/>
       <use xlink:href="#DejaVuSans-61" x="245.3125"/>
       <use xlink:href="#DejaVuSans-72" x="306.591797"/>
      </g>
     </g>
    </g>
    <g id="xtick_3">
     <g id="line2d_5">
      <g>
       <use xlink:href="#m8a80677983" x="132.095131" y="184.921875" style="stroke: #000000; stroke-width: 0.8"/>
      </g>
     </g>
     <g id="text_3">
      <!-- 30 Mar -->
      <g transform="translate(114.709975 199.520312) scale(0.1 -0.1)">
       <defs>
        <path id="DejaVuSans-33" d="M 2597 2516 
Q 3050 2419 3304 2112 
Q 3559 1806 3559 1356 
Q 3559 666 3084 287 
Q 2609 -91 1734 -91 
Q 1441 -91 1130 -33 
Q 819 25 488 141 
L 488 750 
Q 750 597 1062 519 
Q 1375 441 1716 441 
Q 2309 441 2620 675 
Q 2931 909 2931 1356 
Q 2931 1769 2642 2001 
Q 2353 2234 1838 2234 
L 1294 2234 
L 1294 2753 
L 1863 2753 
Q 2328 2753 2575 2939 
Q 2822 3125 2822 3475 
Q 2822 3834 2567 4026 
Q 2313 4219 1838 4219 
Q 1578 4219 1281 4162 
Q 984 4106 628 3988 
L 628 4550 
Q 988 4650 1302 4700 
Q 1616 4750 1894 4750 
Q 2613 4750 3031 4423 
Q 3450 4097 3450 3541 
Q 3450 3153 3228 2886 
Q 3006 2619 2597 2516 
z
" transform="scale(0.015625)"/>
        <path id="DejaVuSans-30" d="M 2034 4250 
Q 1547 4250 1301 3770 
Q 1056 3291 1056 2328 
Q 1056 1369 1301 889 
Q 1547 409 2034 409 
Q 2525 409 2770 889 
Q 3016 1369 3016 2328 
Q 3016 3291 2770 3770 
Q 2525 4250 2034 4250 
z
M 2034 4750 
Q 2819 4750 3233 4129 
Q 3647 3509 3647 2328 
Q 3647 1150 3233 529 
Q 2819 -91 2034 -91 
Q 1250 -91 836 529 
Q 422 1150 422 2328 
Q 422 3509 836 4129 
Q 1250 4750 2034 4750 
z
" transform="scale(0.015625)"/>
       </defs>
       <use xlink:href="#DejaVuSans-33"/>
       <use xlink:href="#DejaVuSans-30" x="63.623047"/>
       <use xlink:href="#DejaVuSans-20" x="127.246094"/>
       <use xlink:href="#DejaVuSans-4d" x="159.033203"/>
       <use xlink:href="#DejaVuSans-61" x="245.3125"/>
       <use xlink:href="#DejaVuSans-72" x="306.591797"/>
      </g>
     </g>
    </g>
    <g id="xtick_4">
     <g id="line2d_6">
      <g>
       <use xlink:href="#m8a80677983" x="171.26992" y="184.921875" style="stroke: #000000; stroke-width: 0.8"/>
      </g>
     </g>
     <g id="text_4">
      <!-- 01 Apr -->
      <g transform="translate(154.668358 199.520312) scale(0.1 -0.1)">
       <defs>
        <path id="DejaVuSans-31" d="M 794 531 
L 1825 531 
L 1825 4091 
L 703 3866 
L 703 4441 
L 1819 4666 
L 2450 4666 
L 2450 531 
L 3481 531 
L 3481 0 
L 794 0 
L 794 531 
z
" transform="scale(0.015625)"/>
        <path id="DejaVuSans-41" d="M 2188 4044 
L 1331 1722 
L 3047 1722 
L 2188 4044 
z
M 1831 4666 
L 2547 4666 
L 4325 0 
L 3669 0 
L 3244 1197 
L 1141 1197 
L 716 0 
L 50 0 
L 1831 4666 
z
" transform="scale(0.015625)"/>
        <path id="DejaVuSans-70" d="M 1159 525 
L 1159 -1331 
L 581 -1331 
L 581 3500 
L 1159 3500 
L 1159 2969 
Q 1341 3281 1617 3432 
Q 1894 3584 2278 3584 
Q 2916 3584 3314 3078 
Q 3713 2572 3713 1747 
Q 3713 922 3314 415 
Q 2916 -91 2278 -91 
Q 1894 -91 1617 61 
Q 1341 213 1159 525 
z
M 3116 1747 
Q 3116 2381 2855 2742 
Q 2594 3103 2138 3103 
Q 1681 3103 1420 2742 
Q 1159 2381 1159 1747 
Q 1159 1113 1420 752 
Q 1681 391 2138 391 
Q 2594 391 2855 752 
Q 3116 1113 3116 1747 
z
" transform="scale(0.015625)"/>
       </defs>
       <use xlink:href="#DejaVuSans-30"/>
       <use xlink:href="#DejaVuSans-31" x="63.623047"/>
       <use xlink:href="#DejaVuSans-20" x="127.246094"/>
       <use xlink:href="#DejaVuSans-41" x="159.033203"/>
       <use xlink:href="#DejaVuSans-70" x="227.441406"/>
       <use xlink:href="#DejaVuSans-72" x="290.917969"/>
      </g>
     </g>
    </g>
    <g id="xtick_5">
     <g id="line2d_7">
      <g>
       <use xlink:href="#m8a80677983" x="210.44471" y="184.921875" style="stroke: #000000; stroke-width: 0.8"/>
      </g>
     </g>
     <g id="text_5">
      <!-- 03 Apr -->
      <g transform="translate(193.843148 199.520312) scale(0.1 -0.1)">
       <use xlink:href="#DejaVuSans-30"/>
       <use xlink:href="#DejaVuSans-33" x="63.623047"/>
       <use xlink:href="#DejaVuSans-20" x="127.246094"/>
       <use xlink:href="#DejaVuSans-41" x="159.033203"/>
       <use xlink:href="#DejaVuSans-70" x="227.441406"/>
       <use xlink:href="#DejaVuSans-72" x="290.917969"/>
      </g>
     </g>
    </g>
    <g id="xtick_6">
     <g id="line2d_8">
      <g>
       <use xlink:href="#m8a80677983" x="249.6195" y="184.921875" style="stroke: #000000; stroke-width: 0.8"/>
      </g>
     </g>
     <g id="text_6">
      <!-- 05 Apr -->
      <g transform="translate(233.017937 199.520312) scale(0.1 -0.1)">
       <defs>
        <path id="DejaVuSans-35" d="M 691 4666 
L 3169 4666 
L 3169 4134 
L 1269 4134 
L 1269 2991 
Q 1406 3038 1543 3061 
Q 1681 3084 1819 3084 
Q 2600 3084 3056 2656 
Q 3513 2228 3513 1497 
Q 3513 744 3044 326 
Q 2575 -91 1722 -91 
Q 1428 -91 1123 -41 
Q 819 9 494 109 
L 494 744 
Q 775 591 1075 516 
Q 1375 441 1709 441 
Q 2250 441 2565 725 
Q 2881 1009 2881 1497 
Q 2881 1984 2565 2268 
Q 2250 2553 1709 2553 
Q 1456 2553 1204 2497 
Q 953 2441 691 2322 
L 691 4666 
z
" transform="scale(0.015625)"/>
       </defs>
       <use xlink:href="#DejaVuSans-30"/>
       <use xlink:href="#DejaVuSans-35" x="63.623047"/>
       <use xlink:href="#DejaVuSans-20" x="127.246094"/>
       <use xlink:href="#DejaVuSans-41" x="159.033203"/>
       <use xlink:href="#DejaVuSans-70" x="227.441406"/>
       <use xlink:href="#DejaVuSans-72" x="290.917969"/>
      </g>
     </g>
    </g>
    <g id="xtick_7">
     <g id="line2d_9">
      <g>
       <use xlink:href="#m8a80677983" x="288.79429" y="184.921875" style="stroke: #000000; stroke-width: 0.8"/>
      </g>
     </g>
     <g id="text_7">
      <!-- 07 Apr -->
      <g transform="translate(272.192727 199.520312) scale(0.1 -0.1)">
       <defs>
        <path id="DejaVuSans-37" d="M 525 4666 
L 3525 4666 
L 3525 4397 
L 1831 0 
L 1172 0 
L 2766 4134 
L 525 4134 
L 525 4666 
z
" transform="scale(0.015625)"/>
       </defs>
       <use xlink:href="#DejaVuSans-30"/>
       <use xlink:href="#DejaVuSans-37" x="63.623047"/>
       <use xlink:href="#DejaVuSans-20" x="127.246094"/>
       <use xlink:href="#DejaVuSans-41" x="159.033203"/>
       <use xlink:href="#DejaVuSans-70" x="227.441406"/>
       <use xlink:href="#DejaVuSans-72" x="290.917969"/>
      </g>
     </g>
    </g>
    <g id="xtick_8">
     <g id="line2d_10">
      <g>
       <use xlink:href="#m8a80677983" x="327.969079" y="184.921875" style="stroke: #000000; stroke-width: 0.8"/>
      </g>
     </g>
     <g id="text_8">
      <!-- 09 Apr -->
      <g transform="translate(311.367517 199.520312) scale(0.1 -0.1)">
       <defs>
        <path id="DejaVuSans-39" d="M 703 97 
L 703 672 
Q 941 559 1184 500 
Q 1428 441 1663 441 
Q 2288 441 2617 861 
Q 2947 1281 2994 2138 
Q 2813 1869 2534 1725 
Q 2256 1581 1919 1581 
Q 1219 1581 811 2004 
Q 403 2428 403 3163 
Q 403 3881 828 4315 
Q 1253 4750 1959 4750 
Q 2769 4750 3195 4129 
Q 3622 3509 3622 2328 
Q 3622 1225 3098 567 
Q 2575 -91 1691 -91 
Q 1453 -91 1209 -44 
Q 966 3 703 97 
z
M 1959 2075 
Q 2384 2075 2632 2365 
Q 2881 2656 2881 3163 
Q 2881 3666 2632 3958 
Q 2384 4250 1959 4250 
Q 1534 4250 1286 3958 
Q 1038 3666 1038 3163 
Q 1038 2656 1286 2365 
Q 1534 2075 1959 2075 
z
" transform="scale(0.015625)"/>
       </defs>
       <use xlink:href="#DejaVuSans-30"/>
       <use xlink:href="#DejaVuSans-39" x="63.623047"/>
       <use xlink:href="#DejaVuSans-20" x="127.246094"/>
       <use xlink:href="#DejaVuSans-41" x="159.033203"/>
       <use xlink:href="#DejaVuSans-70" x="227.441406"/>
       <use xlink:href="#DejaVuSans-72" x="290.917969"/>
      </g>
     </g>
    </g>
   </g>
   <g id="matplotlib.axis_2">
    <g id="ytick_1">
     <g id="text_9">
      <!-- -50% -->
      <g transform="translate(7.2 175.170781) scale(0.1 -0.1)">
       <defs>
        <path id="DejaVuSans-2d" d="M 313 2009 
L 1997 2009 
L 1997 1497 
L 313 1497 
L 313 2009 
z
" transform="scale(0.015625)"/>
        <path id="DejaVuSans-25" d="M 4653 2053 
Q 4381 2053 4226 1822 
Q 4072 1591 4072 1178 
Q 4072 772 4226 539 
Q 4381 306 4653 306 
Q 4919 306 5073 539 
Q 5228 772 5228 1178 
Q 5228 1588 5073 1820 
Q 4919 2053 4653 2053 
z
M 4653 2450 
Q 5147 2450 5437 2106 
Q 5728 1763 5728 1178 
Q 5728 594 5436 251 
Q 5144 -91 4653 -91 
Q 4153 -91 3862 251 
Q 3572 594 3572 1178 
Q 3572 1766 3864 2108 
Q 4156 2450 4653 2450 
z
M 1428 4353 
Q 1159 4353 1004 4120 
Q 850 3888 850 3481 
Q 850 3069 1003 2837 
Q 1156 2606 1428 2606 
Q 1700 2606 1854 2837 
Q 2009 3069 2009 3481 
Q 2009 3884 1853 4118 
Q 1697 4353 1428 4353 
z
M 4250 4750 
L 4750 4750 
L 1831 -91 
L 1331 -91 
L 4250 4750 
z
M 1428 4750 
Q 1922 4750 2215 4408 
Q 2509 4066 2509 3481 
Q 2509 2891 2217 2550 
Q 1925 2209 1428 2209 
Q 931 2209 642 2551 
Q 353 2894 353 3481 
Q 353 4063 643 4406 
Q 934 4750 1428 4750 
z
" transform="scale(0.015625)"/>
       </defs>
       <use xlink:href="#DejaVuSans-2d"/>
       <use xlink:href="#DejaVuSans-35" x="36.083984"/>
       <use xlink:href="#DejaVuSans-30" x="99.707031"/>
       <use xlink:href="#DejaVuSans-25" x="163.330078"/>
      </g>
     </g>
    </g>
    <g id="ytick_2">
     <g id="text_10">
      <!-- -25% -->
      <g transform="translate(7.2 141.295) scale(0.1 -0.1)">
       <use xlink:href="#DejaVuSans-2d"/>
       <use xlink:href="#DejaVuSans-32" x="36.083984"/>
       <use xlink:href="#DejaVuSans-35" x="99.707031"/>
       <use xlink:href="#DejaVuSans-25" x="163.330078"/>
      </g>
     </g>
    </g>
    <g id="ytick_3">
     <g id="text_11">
      <!-- 0% -->
      <g transform="translate(17.170313 107.419219) scale(0.1 -0.1)">
       <use xlink:href="#DejaVuSans-30"/>
       <use xlink:href="#DejaVuSans-25" x="63.623047"/>
      </g>
     </g>
    </g>
    <g id="ytick_4">
     <g id="text_12">
      <!-- 25% -->
      <g transform="translate(10.807813 73.543437) scale(0.1 -0.1)">
       <use xlink:href="#DejaVuSans-32"/>
       <use xlink:href="#DejaVuSans-35" x="63.623047"/>
       <use xlink:href="#DejaVuSans-25" x="127.246094"/>
      </g>
     </g>
    </g>
    <g id="ytick_5">
     <g id="text_13">
      <!-- 50% -->
      <g transform="translate(10.807813 39.667656) scale(0.1 -0.1)">
       <use xlink:href="#DejaVuSans-35"/>
       <use xlink:href="#DejaVuSans-30" x="63.623047"/>
       <use xlink:href="#DejaVuSans-25" x="127.246094"/>
      </g>
     </g>
    </g>
   </g>
   <g id="line2d_11">
    <path d="M 53.745551 119.880375 
L 54.662687 119.525799 
L 55.579822 119.319981 
L 56.496958 119.257247 
L 57.414094 119.331923 
L 58.331229 119.538336 
L 59.248365 119.870811 
L 61.082636 120.891254 
L 62.916907 122.34786 
L 64.751178 124.195238 
L 66.585449 126.387998 
L 68.41972 128.880747 
L 71.171127 133.083058 
L 73.922533 137.705021 
L 78.508211 145.924768 
L 84.011024 155.766866 
L 86.762431 160.321624 
L 89.513838 164.427928 
L 91.348109 166.84067 
L 93.18238 168.940622 
L 95.016651 170.682392 
L 96.850922 172.020589 
L 98.685193 172.909821 
L 99.602329 173.171891 
L 100.519464 173.304698 
L 101.4366 173.302569 
L 102.353735 173.159828 
L 103.270871 172.870804 
L 104.188006 172.429821 
L 105.105142 171.831206 
L 106.022277 171.069284 
L 106.939413 170.138383 
L 107.856549 169.032827 
L 109.69082 166.275059 
L 111.525091 162.750588 
L 113.359362 158.418633 
L 115.193633 153.364572 
L 117.94504 144.921436 
L 122.530717 130.475271 
L 124.364988 125.239389 
L 126.199259 120.659967 
L 128.033531 116.967945 
L 128.950666 115.526878 
L 129.867802 114.394265 
L 130.784937 113.598972 
L 131.702073 113.169868 
L 132.619208 113.133896 
L 133.536344 113.485674 
L 134.453479 114.192999 
L 135.370615 115.222858 
L 136.28775 116.542234 
L 137.204886 118.118113 
L 139.039157 121.907323 
L 140.873428 126.326367 
L 148.210513 145.018531 
L 150.044784 148.624976 
L 150.961919 150.086628 
L 151.879055 151.276622 
L 152.79619 152.175465 
L 153.713326 152.792488 
L 154.630461 153.140747 
L 155.547597 153.233299 
L 156.464732 153.0832 
L 157.381868 152.703507 
L 158.299004 152.107275 
L 159.216139 151.30756 
L 160.133275 150.31742 
L 161.967546 147.818085 
L 163.801817 144.713721 
L 165.636088 141.108777 
L 168.387494 134.991259 
L 172.056037 126.05717 
L 177.55885 112.569214 
L 180.310257 106.427768 
L 182.144528 102.755272 
L 183.978799 99.521343 
L 185.81307 96.812662 
L 187.647341 94.715906 
L 188.564476 93.924089 
L 189.481612 93.317758 
L 190.398748 92.907748 
L 191.315883 92.704347 
L 192.233019 92.705219 
L 193.150154 92.895414 
L 194.06729 93.25943 
L 194.984425 93.781764 
L 196.818696 95.239385 
L 198.652967 97.144267 
L 200.487239 99.372397 
L 204.155781 104.302361 
L 206.907187 107.926032 
L 208.741458 110.074147 
L 210.57573 111.863464 
L 212.410001 113.212207 
L 214.244272 114.175063 
L 216.078543 114.834241 
L 217.912814 115.271945 
L 221.581356 115.811762 
L 224.332763 116.246669 
L 226.167034 116.705052 
L 228.001305 117.394098 
L 229.835576 118.396014 
L 231.669847 119.770838 
L 233.504118 121.456057 
L 236.255525 124.336993 
L 240.841203 129.207968 
L 242.675474 130.87538 
L 244.509745 132.225236 
L 246.344016 133.152872 
L 247.261151 133.425648 
L 248.178287 133.553621 
L 249.095422 133.523705 
L 250.012558 133.323192 
L 250.929694 132.951695 
L 251.846829 132.423679 
L 253.6811 130.959491 
L 255.515371 129.053428 
L 257.349642 126.828289 
L 261.018185 121.911979 
L 263.769591 118.300489 
L 265.603862 116.159145 
L 267.438133 114.374121 
L 269.272404 113.068212 
L 270.18954 112.628123 
L 271.106676 112.326782 
L 272.023811 112.154264 
L 273.858082 112.155995 
L 275.692353 112.553912 
L 277.526624 113.268611 
L 279.360895 114.220689 
L 282.112302 115.920194 
L 286.69798 118.814708 
L 288.532251 119.762621 
L 290.366522 120.48135 
L 292.200793 120.962205 
L 294.035064 121.219685 
L 295.869335 121.268337 
L 297.703606 121.122704 
L 299.537877 120.797333 
L 301.372148 120.306768 
L 304.123555 119.293003 
L 306.874962 117.989372 
L 309.626368 116.444965 
L 313.294911 114.096065 
L 317.880588 110.857999 
L 327.969079 103.62 
L 327.969079 103.62 
" clip-path="url(#pf43e0a42dd)" style="fill: none; stroke: #0035a0; stroke-width: 3; stroke-linecap: round"/>
   </g>
   <g id="text_14">
    <!-- Vohemar - population change trends -->
    <g transform="translate(81.14919 16.318125) scale(0.12 -0.12)">
     <defs>
      <path id="DejaVuSans-56" d="M 1831 0 
L 50 4666 
L 709 4666 
L 2188 738 
L 3669 4666 
L 4325 4666 
L 2547 0 
L 1831 0 
z
" transform="scale(0.015625)"/>
      <path id="DejaVuSans-6f" d="M 1959 3097 
Q 1497 3097 1228 2736 
Q 959 2375 959 1747 
Q 959 1119 1226 758 
Q 1494 397 1959 397 
Q 2419 397 2687 759 
Q 2956 1122 2956 1747 
Q 2956 2369 2687 2733 
Q 2419 3097 1959 3097 
z
M 1959 3584 
Q 2709 3584 3137 3096 
Q 3566 2609 3566 1747 
Q 3566 888 3137 398 
Q 2709 -91 1959 -91 
Q 1206 -91 779 398 
Q 353 888 353 1747 
Q 353 2609 779 3096 
Q 1206 3584 1959 3584 
z
" transform="scale(0.015625)"/>
      <path id="DejaVuSans-68" d="M 3513 2113 
L 3513 0 
L 2938 0 
L 2938 2094 
Q 2938 2591 2744 2837 
Q 2550 3084 2163 3084 
Q 1697 3084 1428 2787 
Q 1159 2491 1159 1978 
L 1159 0 
L 581 0 
L 581 4863 
L 1159 4863 
L 1159 2956 
Q 1366 3272 1645 3428 
Q 1925 3584 2291 3584 
Q 2894 3584 3203 3211 
Q 3513 2838 3513 2113 
z
" transform="scale(0.015625)"/>
      <path id="DejaVuSans-65" d="M 3597 1894 
L 3597 1613 
L 953 1613 
Q 991 1019 1311 708 
Q 1631 397 2203 397 
Q 2534 397 2845 478 
Q 3156 559 3463 722 
L 3463 178 
Q 3153 47 2828 -22 
Q 2503 -91 2169 -91 
Q 1331 -91 842 396 
Q 353 884 353 1716 
Q 353 2575 817 3079 
Q 1281 3584 2069 3584 
Q 2775 3584 3186 3129 
Q 3597 2675 3597 1894 
z
M 3022 2063 
Q 3016 2534 2758 2815 
Q 2500 3097 2075 3097 
Q 1594 3097 1305 2825 
Q 1016 2553 972 2059 
L 3022 2063 
z
" transform="scale(0.015625)"/>
      <path id="DejaVuSans-6d" d="M 3328 2828 
Q 3544 3216 3844 3400 
Q 4144 3584 4550 3584 
Q 5097 3584 5394 3201 
Q 5691 2819 5691 2113 
L 5691 0 
L 5113 0 
L 5113 2094 
Q 5113 2597 4934 2840 
Q 4756 3084 4391 3084 
Q 3944 3084 3684 2787 
Q 3425 2491 3425 1978 
L 3425 0 
L 2847 0 
L 2847 2094 
Q 2847 2600 2669 2842 
Q 2491 3084 2119 3084 
Q 1678 3084 1418 2786 
Q 1159 2488 1159 1978 
L 1159 0 
L 581 0 
L 581 3500 
L 1159 3500 
L 1159 2956 
Q 1356 3278 1631 3431 
Q 1906 3584 2284 3584 
Q 2666 3584 2933 3390 
Q 3200 3197 3328 2828 
z
" transform="scale(0.015625)"/>
      <path id="DejaVuSans-75" d="M 544 1381 
L 544 3500 
L 1119 3500 
L 1119 1403 
Q 1119 906 1312 657 
Q 1506 409 1894 409 
Q 2359 409 2629 706 
Q 2900 1003 2900 1516 
L 2900 3500 
L 3475 3500 
L 3475 0 
L 2900 0 
L 2900 538 
Q 2691 219 2414 64 
Q 2138 -91 1772 -91 
Q 1169 -91 856 284 
Q 544 659 544 1381 
z
M 1991 3584 
L 1991 3584 
z
" transform="scale(0.015625)"/>
      <path id="DejaVuSans-6c" d="M 603 4863 
L 1178 4863 
L 1178 0 
L 603 0 
L 603 4863 
z
" transform="scale(0.015625)"/>
      <path id="DejaVuSans-74" d="M 1172 4494 
L 1172 3500 
L 2356 3500 
L 2356 3053 
L 1172 3053 
L 1172 1153 
Q 1172 725 1289 603 
Q 1406 481 1766 481 
L 2356 481 
L 2356 0 
L 1766 0 
Q 1100 0 847 248 
Q 594 497 594 1153 
L 594 3053 
L 172 3053 
L 172 3500 
L 594 3500 
L 594 4494 
L 1172 4494 
z
" transform="scale(0.015625)"/>
      <path id="DejaVuSans-69" d="M 603 3500 
L 1178 3500 
L 1178 0 
L 603 0 
L 603 3500 
z
M 603 4863 
L 1178 4863 
L 1178 4134 
L 603 4134 
L 603 4863 
z
" transform="scale(0.015625)"/>
      <path id="DejaVuSans-6e" d="M 3513 2113 
L 3513 0 
L 2938 0 
L 2938 2094 
Q 2938 2591 2744 2837 
Q 2550 3084 2163 3084 
Q 1697 3084 1428 2787 
Q 1159 2491 1159 1978 
L 1159 0 
L 581 0 
L 581 3500 
L 1159 3500 
L 1159 2956 
Q 1366 3272 1645 3428 
Q 1925 3584 2291 3584 
Q 2894 3584 3203 3211 
Q 3513 2838 3513 2113 
z
" transform="scale(0.015625)"/>
      <path id="DejaVuSans-63" d="M 3122 3366 
L 3122 2828 
Q 2878 2963 2633 3030 
Q 2388 3097 2138 3097 
Q 1578 3097 1268 2742 
Q 959 2388 959 1747 
Q 959 1106 1268 751 
Q 1578 397 2138 397 
Q 2388 397 2633 464 
Q 2878 531 3122 666 
L 3122 134 
Q 2881 22 2623 -34 
Q 2366 -91 2075 -91 
Q 1284 -91 818 406 
Q 353 903 353 1747 
Q 353 2603 823 3093 
Q 1294 3584 2113 3584 
Q 2378 3584 2631 3529 
Q 2884 3475 3122 3366 
z
" transform="scale(0.015625)"/>
      <path id="DejaVuSans-67" d="M 2906 1791 
Q 2906 2416 2648 2759 
Q 2391 3103 1925 3103 
Q 1463 3103 1205 2759 
Q 947 2416 947 1791 
Q 947 1169 1205 825 
Q 1463 481 1925 481 
Q 2391 481 2648 825 
Q 2906 1169 2906 1791 
z
M 3481 434 
Q 3481 -459 3084 -895 
Q 2688 -1331 1869 -1331 
Q 1566 -1331 1297 -1286 
Q 1028 -1241 775 -1147 
L 775 -588 
Q 1028 -725 1275 -790 
Q 1522 -856 1778 -856 
Q 2344 -856 2625 -561 
Q 2906 -266 2906 331 
L 2906 616 
Q 2728 306 2450 153 
Q 2172 0 1784 0 
Q 1141 0 747 490 
Q 353 981 353 1791 
Q 353 2603 747 3093 
Q 1141 3584 1784 3584 
Q 2172 3584 2450 3431 
Q 2728 3278 2906 2969 
L 2906 3500 
L 3481 3500 
L 3481 434 
z
" transform="scale(0.015625)"/>
      <path id="DejaVuSans-64" d="M 2906 2969 
L 2906 4863 
L 3481 4863 
L 3481 0 
L 2906 0 
L 2906 525 
Q 2725 213 2448 61 
Q 2172 -91 1784 -91 
Q 1150 -91 751 415 
Q 353 922 353 1747 
Q 353 2572 751 3078 
Q 1150 3584 1784 3584 
Q 2172 3584 2448 3432 
Q 2725 3281 2906 2969 
z
M 947 1747 
Q 947 1113 1208 752 
Q 1469 391 1925 391 
Q 2381 391 2643 752 
Q 2906 1113 2906 1747 
Q 2906 2381 2643 2742 
Q 2381 3103 1925 3103 
Q 1469 3103 1208 2742 
Q 947 2381 947 1747 
z
" transform="scale(0.015625)"/>
      <path id="DejaVuSans-73" d="M 2834 3397 
L 2834 2853 
Q 2591 2978 2328 3040 
Q 2066 3103 1784 3103 
Q 1356 3103 1142 2972 
Q 928 2841 928 2578 
Q 928 2378 1081 2264 
Q 1234 2150 1697 2047 
L 1894 2003 
Q 2506 1872 2764 1633 
Q 3022 1394 3022 966 
Q 3022 478 2636 193 
Q 2250 -91 1575 -91 
Q 1294 -91 989 -36 
Q 684 19 347 128 
L 347 722 
Q 666 556 975 473 
Q 1284 391 1588 391 
Q 1994 391 2212 530 
Q 2431 669 2431 922 
Q 2431 1156 2273 1281 
Q 2116 1406 1581 1522 
L 1381 1569 
Q 847 1681 609 1914 
Q 372 2147 372 2553 
Q 372 3047 722 3315 
Q 1072 3584 1716 3584 
Q 2034 3584 2315 3537 
Q 2597 3491 2834 3397 
z
" transform="scale(0.015625)"/>
     </defs>
     <use xlink:href="#DejaVuSans-56"/>
     <use xlink:href="#DejaVuSans-6f" x="60.658203"/>
     <use xlink:href="#DejaVuSans-68" x="121.839844"/>
     <use xlink:href="#DejaVuSans-65" x="185.21875"/>
     <use xlink:href="#DejaVuSans-6d" x="246.742188"/>
     <use xlink:href="#DejaVuSans-61" x="344.154297"/>
     <use xlink:href="#DejaVuSans-72" x="405.433594"/>
     <use xlink:href="#DejaVuSans-20" x="446.546875"/>
     <use xlink:href="#DejaVuSans-2d" x="478.333984"/>
     <use xlink:href="#DejaVuSans-20" x="514.417969"/>
     <use xlink:href="#DejaVuSans-70" x="546.205078"/>
     <use xlink:href="#DejaVuSans-6f" x="609.681641"/>
     <use xlink:href="#DejaVuSans-70" x="670.863281"/>
     <use xlink:href="#DejaVuSans-75" x="734.339844"/>
     <use xlink:href="#DejaVuSans-6c" x="797.71875"/>
     <use xlink:href="#DejaVuSans-61" x="825.501953"/>
     <use xlink:href="#DejaVuSans-74" x="886.78125"/>
     <use xlink:href="#DejaVuSans-69" x="925.990234"/>
     <use xlink:href="#DejaVuSans-6f" x="953.773438"/>
     <use xlink:href="#DejaVuSans-6e" x="1014.955078"/>
     <use xlink:href="#DejaVuSans-20" x="1078.333984"/>
     <use xlink:href="#DejaVuSans-63" x="1110.121094"/>
     <use xlink:href="#DejaVuSans-68" x="1165.101562"/>
     <use xlink:href="#DejaVuSans-61" x="1228.480469"/>
     <use xlink:href="#DejaVuSans-6e" x="1289.759766"/>
     <use xlink:href="#DejaVuSans-67" x="1353.138672"/>
     <use xlink:href="#DejaVuSans-65" x="1416.615234"/>
     <use xlink:href="#DejaVuSans-20" x="1478.138672"/>
     <use xlink:href="#DejaVuSans-74" x="1509.925781"/>
     <use xlink:href="#DejaVuSans-72" x="1549.134766"/>
     <use xlink:href="#DejaVuSans-65" x="1587.998047"/>
     <use xlink:href="#DejaVuSans-6e" x="1649.521484"/>
     <use xlink:href="#DejaVuSans-64" x="1712.900391"/>
     <use xlink:href="#DejaVuSans-73" x="1776.376953"/>
    </g>
   </g>
  </g>
 </g>
 <defs>
  <clipPath id="pf43e0a42dd">
   <rect x="40.034375" y="22.318125" width="301.645881" height="162.60375"/>
  </clipPath>
 </defs>
</svg>
