<?xml version="1.0" encoding="utf-8" standalone="no"?>
<!DOCTYPE svg PUBLIC "-//W3C//DTD SVG 1.1//EN"
  "http://www.w3.org/Graphics/SVG/1.1/DTD/svg11.dtd">
<svg xmlns:xlink="http://www.w3.org/1999/xlink" width="352.157787pt" height="208.8pt" viewBox="0 0 352.157787 208.8" xmlns="http://www.w3.org/2000/svg" version="1.1">
 <metadata>
  <rdf:RDF xmlns:dc="http://purl.org/dc/elements/1.1/" xmlns:cc="http://creativecommons.org/ns#" xmlns:rdf="http://www.w3.org/1999/02/22-rdf-syntax-ns#">
   <cc:Work>
    <dc:type rdf:resource="http://purl.org/dc/dcmitype/StillImage"/>
    <dc:date>2024-07-07T23:09:08.236498</dc:date>
    <dc:format>image/svg+xml</dc:format>
    <dc:creator>
     <cc:Agent>
      <dc:title>Matplotlib v3.9.0, https://matplotlib.org/</dc:title>
     </cc:Agent>
    </dc:creator>
   </cc:Work>
  </rdf:RDF>
 </metadata>
 <defs>
  <style type="text/css">*{stroke-linejoin: round; stroke-linecap: butt}</style>
 </defs>
 <g id="figure_1">
  <g id="patch_1">
   <path d="M 0 208.8 
L 352.157787 208.8 
L 352.157787 0 
L 0 0 
L 0 208.8 
z
" style="fill: none"/>
  </g>
  <g id="axes_1">
   <g id="patch_2">
    <path d="M 51.16875 184.921875 
L 344.297443 184.921875 
L 344.297443 22.318125 
L 51.16875 22.318125 
L 51.16875 184.921875 
z
" style="fill: none; opacity: 0"/>
   </g>
   <g id="PolyCollection_1">
    <defs>
     <path id="mccb325b365" d="M 64.492782 -106.806038 
L 64.492782 -106.806038 
L 65.384021 -107.107102 
L 66.275261 -107.38673 
L 67.1665 -107.645159 
L 68.05774 -107.882623 
L 68.948979 -108.099358 
L 69.840219 -108.295601 
L 70.731458 -108.471587 
L 71.622698 -108.627553 
L 72.513938 -108.763733 
L 73.405177 -108.880364 
L 74.296417 -108.977681 
L 75.187656 -109.055921 
L 76.078896 -109.115319 
L 76.970135 -109.156111 
L 77.861375 -109.178533 
L 78.752615 -109.182821 
L 79.643854 -109.16921 
L 80.535094 -109.137937 
L 81.426333 -109.089237 
L 82.317573 -109.023346 
L 83.208812 -108.940499 
L 84.100052 -108.840934 
L 84.991292 -108.724885 
L 85.882531 -108.592588 
L 86.773771 -108.44428 
L 87.66501 -108.280195 
L 88.55625 -108.10057 
L 89.447489 -107.905641 
L 90.338729 -107.695644 
L 91.229968 -107.470814 
L 92.121208 -107.231387 
L 93.012448 -106.977599 
L 93.903687 -106.709686 
L 94.794927 -106.427884 
L 95.686166 -106.132428 
L 96.577406 -105.823554 
L 97.468645 -105.501499 
L 98.323963 -105.18 
L 97.468645 -105.18 
L 96.577406 -105.18 
L 95.686166 -105.18 
L 94.794927 -105.18 
L 93.903687 -105.18 
L 93.012448 -105.18 
L 92.121208 -105.18 
L 91.229968 -105.18 
L 90.338729 -105.18 
L 89.447489 -105.18 
L 88.55625 -105.18 
L 87.66501 -105.18 
L 86.773771 -105.18 
L 85.882531 -105.18 
L 84.991292 -105.18 
L 84.100052 -105.18 
L 83.208812 -105.18 
L 82.317573 -105.18 
L 81.426333 -105.18 
L 80.535094 -105.18 
L 79.643854 -105.18 
L 78.752615 -105.18 
L 77.861375 -105.18 
L 76.970135 -105.18 
L 76.078896 -105.18 
L 75.187656 -105.18 
L 74.296417 -105.18 
L 73.405177 -105.18 
L 72.513938 -105.18 
L 71.622698 -105.18 
L 70.731458 -105.18 
L 69.840219 -105.18 
L 68.948979 -105.18 
L 68.05774 -105.18 
L 67.1665 -105.18 
L 66.275261 -105.18 
L 65.384021 -105.18 
L 64.492782 -105.18 
z
" style="stroke: #6ec5bc; stroke-opacity: 0.1"/>
    </defs>
    <g clip-path="url(#p10f68bcb28)">
     <use xlink:href="#mccb325b365" x="0" y="208.8" style="fill: #6ec5bc; fill-opacity: 0.1; stroke: #6ec5bc; stroke-opacity: 0.1"/>
    </g>
   </g>
   <g id="PolyCollection_2">
    <defs>
     <path id="mc12ef4865c" d="M 98.323963 -105.18 
L 98.359885 -105.166498 
L 99.251125 -104.818786 
L 100.142364 -104.4586 
L 101.033604 -104.086176 
L 101.924843 -103.701749 
L 102.816083 -103.305555 
L 103.707322 -102.89783 
L 104.598562 -102.47881 
L 105.489802 -102.04873 
L 106.381041 -101.607827 
L 107.272281 -101.156336 
L 108.16352 -100.694494 
L 109.05476 -100.222535 
L 109.945999 -99.740696 
L 110.837239 -99.249213 
L 111.728478 -98.748322 
L 112.619718 -98.238257 
L 113.510958 -97.719256 
L 114.402197 -97.191554 
L 115.293437 -96.655386 
L 116.184676 -96.110989 
L 117.075916 -95.558599 
L 117.967155 -94.998451 
L 118.858395 -94.430781 
L 119.749635 -93.855824 
L 120.640874 -93.273818 
L 121.532114 -92.684997 
L 122.423353 -92.089598 
L 123.314593 -91.487856 
L 124.205832 -90.880007 
L 125.097072 -90.266287 
L 125.988312 -89.646932 
L 126.879551 -89.022177 
L 127.770791 -88.392259 
L 128.66203 -87.757413 
L 129.55327 -87.117875 
L 130.444509 -86.473881 
L 131.335749 -85.825667 
L 132.226989 -85.173469 
L 133.118228 -84.517521 
L 134.009468 -83.858062 
L 134.900707 -83.195325 
L 135.791947 -82.529547 
L 136.683186 -81.860963 
L 137.574426 -81.189811 
L 138.465665 -80.516325 
L 139.356905 -79.840741 
L 140.248145 -79.163295 
L 141.139384 -78.484223 
L 142.030624 -77.80376 
L 142.921863 -77.122143 
L 143.813103 -76.439608 
L 144.704342 -75.75639 
L 145.595582 -75.072725 
L 146.486822 -74.388849 
L 147.378061 -73.704997 
L 148.269301 -73.021406 
L 149.16054 -72.338311 
L 150.05178 -71.655949 
L 150.943019 -70.974555 
L 151.834259 -70.294364 
L 152.725499 -69.615613 
L 153.616738 -68.938538 
L 154.507978 -68.263374 
L 155.399217 -67.590358 
L 156.290457 -66.919724 
L 157.181696 -66.251709 
L 158.072936 -65.586549 
L 158.964175 -64.924479 
L 159.855415 -64.265736 
L 160.746655 -63.610555 
L 161.637894 -62.959172 
L 162.529134 -62.311823 
L 163.420373 -61.668743 
L 164.311613 -61.030169 
L 165.202852 -60.396336 
L 166.094092 -59.767481 
L 166.985332 -59.143838 
L 167.876571 -58.525645 
L 168.767811 -57.913136 
L 169.65905 -57.306547 
L 170.55029 -56.706115 
L 171.441529 -56.112075 
L 172.332769 -55.524663 
L 173.224009 -54.944114 
L 174.115248 -54.370666 
L 175.006488 -53.804553 
L 175.897727 -53.246011 
L 176.788967 -52.695276 
L 177.680206 -52.152584 
L 178.571446 -51.618171 
L 179.462685 -51.092273 
L 180.353925 -50.575125 
L 181.245165 -50.066964 
L 182.136404 -49.568024 
L 183.027644 -49.078543 
L 183.918883 -48.598755 
L 184.810123 -48.128897 
L 185.701362 -47.669205 
L 186.592602 -47.219914 
L 187.483842 -46.781259 
L 188.375081 -46.353478 
L 189.266321 -45.936806 
L 190.15756 -45.531478 
L 191.0488 -45.137731 
L 191.940039 -44.7558 
L 192.831279 -44.385921 
L 193.722519 -44.02833 
L 194.613758 -43.683262 
L 195.504998 -43.350955 
L 196.396237 -43.031642 
L 197.287477 -42.725561 
L 198.178716 -42.432936 
L 199.069956 -42.153731 
L 199.961196 -41.887648 
L 200.852435 -41.634381 
L 201.743675 -41.393621 
L 202.634914 -41.165061 
L 203.526154 -40.948392 
L 204.417393 -40.743307 
L 205.308633 -40.549497 
L 206.199872 -40.366655 
L 207.091112 -40.194473 
L 207.982352 -40.032642 
L 208.873591 -39.880856 
L 209.764831 -39.738806 
L 210.65607 -39.606184 
L 211.54731 -39.482683 
L 212.438549 -39.367993 
L 213.329789 -39.261808 
L 214.221029 -39.16382 
L 215.112268 -39.07372 
L 216.003508 -38.991201 
L 216.894747 -38.915955 
L 217.785987 -38.847674 
L 218.677226 -38.78605 
L 219.568466 -38.730774 
L 220.459706 -38.68154 
L 221.350945 -38.638039 
L 222.242185 -38.599964 
L 223.133424 -38.567005 
L 224.024664 -38.538857 
L 224.915903 -38.515209 
L 225.807143 -38.495756 
L 226.698382 -38.480188 
L 227.589622 -38.468198 
L 228.480862 -38.459478 
L 229.372101 -38.45372 
L 230.263341 -38.450617 
L 231.15458 -38.449859 
L 232.04582 -38.45114 
L 232.937059 -38.45415 
L 233.828299 -38.458584 
L 234.719539 -38.464132 
L 235.610778 -38.470486 
L 236.502018 -38.47734 
L 237.393257 -38.484384 
L 238.284497 -38.491311 
L 239.175736 -38.497813 
L 240.066976 -38.503582 
L 240.958216 -38.50831 
L 241.849455 -38.511689 
L 242.740695 -38.513432 
L 243.631934 -38.513485 
L 244.523174 -38.511948 
L 245.414413 -38.50892 
L 246.305653 -38.504504 
L 247.196892 -38.498799 
L 248.088132 -38.491907 
L 248.979372 -38.48393 
L 249.870611 -38.474967 
L 250.761851 -38.465121 
L 251.65309 -38.454492 
L 252.54433 -38.44318 
L 253.435569 -38.431288 
L 254.326809 -38.418915 
L 255.218049 -38.406164 
L 256.109288 -38.393134 
L 257.000528 -38.379928 
L 257.891767 -38.366646 
L 258.783007 -38.353388 
L 259.674246 -38.340257 
L 260.565486 -38.327353 
L 261.456726 -38.314777 
L 262.347965 -38.302629 
L 263.239205 -38.291012 
L 264.130444 -38.280026 
L 265.021684 -38.269772 
L 265.912923 -38.260351 
L 266.804163 -38.251864 
L 267.695403 -38.244411 
L 268.586642 -38.238095 
L 269.477882 -38.233016 
L 270.369121 -38.229275 
L 271.260361 -38.226973 
L 272.1516 -38.226211 
L 273.04284 -38.22709 
L 273.934079 -38.229712 
L 274.825319 -38.234176 
L 275.716559 -38.240584 
L 276.607798 -38.249037 
L 277.499038 -38.259636 
L 278.390277 -38.272482 
L 279.281517 -38.287677 
L 280.172756 -38.30532 
L 281.063996 -38.325513 
L 281.955236 -38.348357 
L 282.846475 -38.373954 
L 283.737715 -38.402403 
L 284.628954 -38.433807 
L 285.520194 -38.468265 
L 286.411433 -38.505879 
L 287.302673 -38.546751 
L 288.193913 -38.590981 
L 289.085152 -38.638669 
L 289.976392 -38.689918 
L 290.867631 -38.744827 
L 291.758871 -38.803499 
L 292.65011 -38.866034 
L 293.54135 -38.932532 
L 294.432589 -39.003096 
L 295.323829 -39.077826 
L 296.215069 -39.156823 
L 297.106308 -39.240188 
L 297.997548 -39.328022 
L 298.888787 -39.420426 
L 299.780027 -39.517501 
L 300.671266 -39.619348 
L 301.562506 -39.726068 
L 302.453746 -39.837762 
L 303.344985 -39.954531 
L 304.236225 -40.076476 
L 305.127464 -40.203698 
L 306.018704 -40.336298 
L 306.909943 -40.474378 
L 307.801183 -40.618037 
L 308.692423 -40.767377 
L 309.583662 -40.9225 
L 310.474902 -41.083505 
L 311.366141 -41.250495 
L 312.257381 -41.423569 
L 313.14862 -41.60283 
L 314.03986 -41.788377 
L 314.931099 -41.980313 
L 315.822339 -42.178738 
L 316.713579 -42.383752 
L 317.604818 -42.595458 
L 318.496058 -42.813956 
L 319.387297 -43.039347 
L 320.278537 -43.271732 
L 321.169776 -43.511212 
L 322.061016 -43.757888 
L 322.952256 -44.011861 
L 323.843495 -44.273232 
L 324.734735 -44.542102 
L 325.625974 -44.818572 
L 326.517214 -45.102743 
L 327.408453 -45.394716 
L 328.299693 -45.694593 
L 329.190933 -46.002473 
L 330.082172 -46.318459 
L 330.973412 -46.64265 
L 330.973412 -46.64265 
L 330.973412 -105.18 
L 330.082172 -105.18 
L 329.190933 -105.18 
L 328.299693 -105.18 
L 327.408453 -105.18 
L 326.517214 -105.18 
L 325.625974 -105.18 
L 324.734735 -105.18 
L 323.843495 -105.18 
L 322.952256 -105.18 
L 322.061016 -105.18 
L 321.169776 -105.18 
L 320.278537 -105.18 
L 319.387297 -105.18 
L 318.496058 -105.18 
L 317.604818 -105.18 
L 316.713579 -105.18 
L 315.822339 -105.18 
L 314.931099 -105.18 
L 314.03986 -105.18 
L 313.14862 -105.18 
L 312.257381 -105.18 
L 311.366141 -105.18 
L 310.474902 -105.18 
L 309.583662 -105.18 
L 308.692423 -105.18 
L 307.801183 -105.18 
L 306.909943 -105.18 
L 306.018704 -105.18 
L 305.127464 -105.18 
L 304.236225 -105.18 
L 303.344985 -105.18 
L 302.453746 -105.18 
L 301.562506 -105.18 
L 300.671266 -105.18 
L 299.780027 -105.18 
L 298.888787 -105.18 
L 297.997548 -105.18 
L 297.106308 -105.18 
L 296.215069 -105.18 
L 295.323829 -105.18 
L 294.432589 -105.18 
L 293.54135 -105.18 
L 292.65011 -105.18 
L 291.758871 -105.18 
L 290.867631 -105.18 
L 289.976392 -105.18 
L 289.085152 -105.18 
L 288.193913 -105.18 
L 287.302673 -105.18 
L 286.411433 -105.18 
L 285.520194 -105.18 
L 284.628954 -105.18 
L 283.737715 -105.18 
L 282.846475 -105.18 
L 281.955236 -105.18 
L 281.063996 -105.18 
L 280.172756 -105.18 
L 279.281517 -105.18 
L 278.390277 -105.18 
L 277.499038 -105.18 
L 276.607798 -105.18 
L 275.716559 -105.18 
L 274.825319 -105.18 
L 273.934079 -105.18 
L 273.04284 -105.18 
L 272.1516 -105.18 
L 271.260361 -105.18 
L 270.369121 -105.18 
L 269.477882 -105.18 
L 268.586642 -105.18 
L 267.695403 -105.18 
L 266.804163 -105.18 
L 265.912923 -105.18 
L 265.021684 -105.18 
L 264.130444 -105.18 
L 263.239205 -105.18 
L 262.347965 -105.18 
L 261.456726 -105.18 
L 260.565486 -105.18 
L 259.674246 -105.18 
L 258.783007 -105.18 
L 257.891767 -105.18 
L 257.000528 -105.18 
L 256.109288 -105.18 
L 255.218049 -105.18 
L 254.326809 -105.18 
L 253.435569 -105.18 
L 252.54433 -105.18 
L 251.65309 -105.18 
L 250.761851 -105.18 
L 249.870611 -105.18 
L 248.979372 -105.18 
L 248.088132 -105.18 
L 247.196892 -105.18 
L 246.305653 -105.18 
L 245.414413 -105.18 
L 244.523174 -105.18 
L 243.631934 -105.18 
L 242.740695 -105.18 
L 241.849455 -105.18 
L 240.958216 -105.18 
L 240.066976 -105.18 
L 239.175736 -105.18 
L 238.284497 -105.18 
L 237.393257 -105.18 
L 236.502018 -105.18 
L 235.610778 -105.18 
L 234.719539 -105.18 
L 233.828299 -105.18 
L 232.937059 -105.18 
L 232.04582 -105.18 
L 231.15458 -105.18 
L 230.263341 -105.18 
L 229.372101 -105.18 
L 228.480862 -105.18 
L 227.589622 -105.18 
L 226.698382 -105.18 
L 225.807143 -105.18 
L 224.915903 -105.18 
L 224.024664 -105.18 
L 223.133424 -105.18 
L 222.242185 -105.18 
L 221.350945 -105.18 
L 220.459706 -105.18 
L 219.568466 -105.18 
L 218.677226 -105.18 
L 217.785987 -105.18 
L 216.894747 -105.18 
L 216.003508 -105.18 
L 215.112268 -105.18 
L 214.221029 -105.18 
L 213.329789 -105.18 
L 212.438549 -105.18 
L 211.54731 -105.18 
L 210.65607 -105.18 
L 209.764831 -105.18 
L 208.873591 -105.18 
L 207.982352 -105.18 
L 207.091112 -105.18 
L 206.199872 -105.18 
L 205.308633 -105.18 
L 204.417393 -105.18 
L 203.526154 -105.18 
L 202.634914 -105.18 
L 201.743675 -105.18 
L 200.852435 -105.18 
L 199.961196 -105.18 
L 199.069956 -105.18 
L 198.178716 -105.18 
L 197.287477 -105.18 
L 196.396237 -105.18 
L 195.504998 -105.18 
L 194.613758 -105.18 
L 193.722519 -105.18 
L 192.831279 -105.18 
L 191.940039 -105.18 
L 191.0488 -105.18 
L 190.15756 -105.18 
L 189.266321 -105.18 
L 188.375081 -105.18 
L 187.483842 -105.18 
L 186.592602 -105.18 
L 185.701362 -105.18 
L 184.810123 -105.18 
L 183.918883 -105.18 
L 183.027644 -105.18 
L 182.136404 -105.18 
L 181.245165 -105.18 
L 180.353925 -105.18 
L 179.462685 -105.18 
L 178.571446 -105.18 
L 177.680206 -105.18 
L 176.788967 -105.18 
L 175.897727 -105.18 
L 175.006488 -105.18 
L 174.115248 -105.18 
L 173.224009 -105.18 
L 172.332769 -105.18 
L 171.441529 -105.18 
L 170.55029 -105.18 
L 169.65905 -105.18 
L 168.767811 -105.18 
L 167.876571 -105.18 
L 166.985332 -105.18 
L 166.094092 -105.18 
L 165.202852 -105.18 
L 164.311613 -105.18 
L 163.420373 -105.18 
L 162.529134 -105.18 
L 161.637894 -105.18 
L 160.746655 -105.18 
L 159.855415 -105.18 
L 158.964175 -105.18 
L 158.072936 -105.18 
L 157.181696 -105.18 
L 156.290457 -105.18 
L 155.399217 -105.18 
L 154.507978 -105.18 
L 153.616738 -105.18 
L 152.725499 -105.18 
L 151.834259 -105.18 
L 150.943019 -105.18 
L 150.05178 -105.18 
L 149.16054 -105.18 
L 148.269301 -105.18 
L 147.378061 -105.18 
L 146.486822 -105.18 
L 145.595582 -105.18 
L 144.704342 -105.18 
L 143.813103 -105.18 
L 142.921863 -105.18 
L 142.030624 -105.18 
L 141.139384 -105.18 
L 140.248145 -105.18 
L 139.356905 -105.18 
L 138.465665 -105.18 
L 137.574426 -105.18 
L 136.683186 -105.18 
L 135.791947 -105.18 
L 134.900707 -105.18 
L 134.009468 -105.18 
L 133.118228 -105.18 
L 132.226989 -105.18 
L 131.335749 -105.18 
L 130.444509 -105.18 
L 129.55327 -105.18 
L 128.66203 -105.18 
L 127.770791 -105.18 
L 126.879551 -105.18 
L 125.988312 -105.18 
L 125.097072 -105.18 
L 124.205832 -105.18 
L 123.314593 -105.18 
L 122.423353 -105.18 
L 121.532114 -105.18 
L 120.640874 -105.18 
L 119.749635 -105.18 
L 118.858395 -105.18 
L 117.967155 -105.18 
L 117.075916 -105.18 
L 116.184676 -105.18 
L 115.293437 -105.18 
L 114.402197 -105.18 
L 113.510958 -105.18 
L 112.619718 -105.18 
L 111.728478 -105.18 
L 110.837239 -105.18 
L 109.945999 -105.18 
L 109.05476 -105.18 
L 108.16352 -105.18 
L 107.272281 -105.18 
L 106.381041 -105.18 
L 105.489802 -105.18 
L 104.598562 -105.18 
L 103.707322 -105.18 
L 102.816083 -105.18 
L 101.924843 -105.18 
L 101.033604 -105.18 
L 100.142364 -105.18 
L 99.251125 -105.18 
L 98.359885 -105.18 
z
" style="stroke: #ed6b4d; stroke-opacity: 0.1"/>
    </defs>
    <g clip-path="url(#p10f68bcb28)">
     <use xlink:href="#mc12ef4865c" x="0" y="208.8" style="fill: #ed6b4d; fill-opacity: 0.1; stroke: #ed6b4d; stroke-opacity: 0.1"/>
    </g>
   </g>
   <g id="line2d_1">
    <defs>
     <path id="mc38686dbc9" d="M 0 3 
C 0.795609 3 1.55874 2.683901 2.12132 2.12132 
C 2.683901 1.55874 3 0.795609 3 0 
C 3 -0.795609 2.683901 -1.55874 2.12132 -2.12132 
C 1.55874 -2.683901 0.795609 -3 0 -3 
C -0.795609 -3 -1.55874 -2.683901 -2.12132 -2.12132 
C -2.683901 -1.55874 -3 -0.795609 -3 0 
C -3 0.795609 -2.683901 1.55874 -2.12132 2.12132 
C -1.55874 2.683901 -0.795609 3 0 3 
z
" style="stroke: #0035a0"/>
    </defs>
    <g clip-path="url(#p10f68bcb28)">
     <use xlink:href="#mc38686dbc9" x="64.492782" y="101.993962" style="fill: #0035a0; stroke: #0035a0"/>
     <use xlink:href="#mc38686dbc9" x="108.90622" y="108.498112" style="fill: #0035a0; stroke: #0035a0"/>
     <use xlink:href="#mc38686dbc9" x="197.733097" y="166.222444" style="fill: #0035a0; stroke: #0035a0"/>
     <use xlink:href="#mc38686dbc9" x="242.146535" y="170.287537" style="fill: #0035a0; stroke: #0035a0"/>
     <use xlink:href="#mc38686dbc9" x="286.559973" y="170.287537" style="fill: #0035a0; stroke: #0035a0"/>
     <use xlink:href="#mc38686dbc9" x="330.973412" y="162.15735" style="fill: #0035a0; stroke: #0035a0"/>
    </g>
   </g>
   <g id="line2d_2">
    <path d="M 51.16875 103.62 
L 344.297443 103.62 
" clip-path="url(#p10f68bcb28)" style="fill: none; stroke: #808080; stroke-width: 0.8; stroke-linecap: square"/>
   </g>
   <g id="matplotlib.axis_1">
    <g id="xtick_1">
     <g id="line2d_3">
      <defs>
       <path id="m2eab8bd9ef" d="M 0 0 
L 0 3.5 
" style="stroke: #000000; stroke-width: 0.8"/>
      </defs>
      <g>
       <use xlink:href="#m2eab8bd9ef" x="64.492782" y="184.921875" style="stroke: #000000; stroke-width: 0.8"/>
      </g>
     </g>
     <g id="text_1">
      <!-- 30 Jun -->
      <g transform="translate(48.728719 199.520312) scale(0.1 -0.1)">
       <defs>
        <path id="DejaVuSans-33" d="M 2597 2516 
Q 3050 2419 3304 2112 
Q 3559 1806 3559 1356 
Q 3559 666 3084 287 
Q 2609 -91 1734 -91 
Q 1441 -91 1130 -33 
Q 819 25 488 141 
L 488 750 
Q 750 597 1062 519 
Q 1375 441 1716 441 
Q 2309 441 2620 675 
Q 2931 909 2931 1356 
Q 2931 1769 2642 2001 
Q 2353 2234 1838 2234 
L 1294 2234 
L 1294 2753 
L 1863 2753 
Q 2328 2753 2575 2939 
Q 2822 3125 2822 3475 
Q 2822 3834 2567 4026 
Q 2313 4219 1838 4219 
Q 1578 4219 1281 4162 
Q 984 4106 628 3988 
L 628 4550 
Q 988 4650 1302 4700 
Q 1616 4750 1894 4750 
Q 2613 4750 3031 4423 
Q 3450 4097 3450 3541 
Q 3450 3153 3228 2886 
Q 3006 2619 2597 2516 
z
" transform="scale(0.015625)"/>
        <path id="DejaVuSans-30" d="M 2034 4250 
Q 1547 4250 1301 3770 
Q 1056 3291 1056 2328 
Q 1056 1369 1301 889 
Q 1547 409 2034 409 
Q 2525 409 2770 889 
Q 3016 1369 3016 2328 
Q 3016 3291 2770 3770 
Q 2525 4250 2034 4250 
z
M 2034 4750 
Q 2819 4750 3233 4129 
Q 3647 3509 3647 2328 
Q 3647 1150 3233 529 
Q 2819 -91 2034 -91 
Q 1250 -91 836 529 
Q 422 1150 422 2328 
Q 422 3509 836 4129 
Q 1250 4750 2034 4750 
z
" transform="scale(0.015625)"/>
        <path id="DejaVuSans-20" transform="scale(0.015625)"/>
        <path id="DejaVuSans-4a" d="M 628 4666 
L 1259 4666 
L 1259 325 
Q 1259 -519 939 -900 
Q 619 -1281 -91 -1281 
L -331 -1281 
L -331 -750 
L -134 -750 
Q 284 -750 456 -515 
Q 628 -281 628 325 
L 628 4666 
z
" transform="scale(0.015625)"/>
        <path id="DejaVuSans-75" d="M 544 1381 
L 544 3500 
L 1119 3500 
L 1119 1403 
Q 1119 906 1312 657 
Q 1506 409 1894 409 
Q 2359 409 2629 706 
Q 2900 1003 2900 1516 
L 2900 3500 
L 3475 3500 
L 3475 0 
L 2900 0 
L 2900 538 
Q 2691 219 2414 64 
Q 2138 -91 1772 -91 
Q 1169 -91 856 284 
Q 544 659 544 1381 
z
M 1991 3584 
L 1991 3584 
z
" transform="scale(0.015625)"/>
        <path id="DejaVuSans-6e" d="M 3513 2113 
L 3513 0 
L 2938 0 
L 2938 2094 
Q 2938 2591 2744 2837 
Q 2550 3084 2163 3084 
Q 1697 3084 1428 2787 
Q 1159 2491 1159 1978 
L 1159 0 
L 581 0 
L 581 3500 
L 1159 3500 
L 1159 2956 
Q 1366 3272 1645 3428 
Q 1925 3584 2291 3584 
Q 2894 3584 3203 3211 
Q 3513 2838 3513 2113 
z
" transform="scale(0.015625)"/>
       </defs>
       <use xlink:href="#DejaVuSans-33"/>
       <use xlink:href="#DejaVuSans-30" x="63.623047"/>
       <use xlink:href="#DejaVuSans-20" x="127.246094"/>
       <use xlink:href="#DejaVuSans-4a" x="159.033203"/>
       <use xlink:href="#DejaVuSans-75" x="188.525391"/>
       <use xlink:href="#DejaVuSans-6e" x="251.904297"/>
      </g>
     </g>
    </g>
    <g id="xtick_2">
     <g id="line2d_4">
      <g>
       <use xlink:href="#m2eab8bd9ef" x="108.90622" y="184.921875" style="stroke: #000000; stroke-width: 0.8"/>
      </g>
     </g>
     <g id="text_2">
      <!-- 01 Jul -->
      <g transform="translate(94.921845 199.520312) scale(0.1 -0.1)">
       <defs>
        <path id="DejaVuSans-31" d="M 794 531 
L 1825 531 
L 1825 4091 
L 703 3866 
L 703 4441 
L 1819 4666 
L 2450 4666 
L 2450 531 
L 3481 531 
L 3481 0 
L 794 0 
L 794 531 
z
" transform="scale(0.015625)"/>
        <path id="DejaVuSans-6c" d="M 603 4863 
L 1178 4863 
L 1178 0 
L 603 0 
L 603 4863 
z
" transform="scale(0.015625)"/>
       </defs>
       <use xlink:href="#DejaVuSans-30"/>
       <use xlink:href="#DejaVuSans-31" x="63.623047"/>
       <use xlink:href="#DejaVuSans-20" x="127.246094"/>
       <use xlink:href="#DejaVuSans-4a" x="159.033203"/>
       <use xlink:href="#DejaVuSans-75" x="188.525391"/>
       <use xlink:href="#DejaVuSans-6c" x="251.904297"/>
      </g>
     </g>
    </g>
    <g id="xtick_3">
     <g id="line2d_5">
      <g>
       <use xlink:href="#m2eab8bd9ef" x="153.319658" y="184.921875" style="stroke: #000000; stroke-width: 0.8"/>
      </g>
     </g>
     <g id="text_3">
      <!-- 02 Jul -->
      <g transform="translate(139.335283 199.520312) scale(0.1 -0.1)">
       <defs>
        <path id="DejaVuSans-32" d="M 1228 531 
L 3431 531 
L 3431 0 
L 469 0 
L 469 531 
Q 828 903 1448 1529 
Q 2069 2156 2228 2338 
Q 2531 2678 2651 2914 
Q 2772 3150 2772 3378 
Q 2772 3750 2511 3984 
Q 2250 4219 1831 4219 
Q 1534 4219 1204 4116 
Q 875 4013 500 3803 
L 500 4441 
Q 881 4594 1212 4672 
Q 1544 4750 1819 4750 
Q 2544 4750 2975 4387 
Q 3406 4025 3406 3419 
Q 3406 3131 3298 2873 
Q 3191 2616 2906 2266 
Q 2828 2175 2409 1742 
Q 1991 1309 1228 531 
z
" transform="scale(0.015625)"/>
       </defs>
       <use xlink:href="#DejaVuSans-30"/>
       <use xlink:href="#DejaVuSans-32" x="63.623047"/>
       <use xlink:href="#DejaVuSans-20" x="127.246094"/>
       <use xlink:href="#DejaVuSans-4a" x="159.033203"/>
       <use xlink:href="#DejaVuSans-75" x="188.525391"/>
       <use xlink:href="#DejaVuSans-6c" x="251.904297"/>
      </g>
     </g>
    </g>
    <g id="xtick_4">
     <g id="line2d_6">
      <g>
       <use xlink:href="#m2eab8bd9ef" x="197.733097" y="184.921875" style="stroke: #000000; stroke-width: 0.8"/>
      </g>
     </g>
     <g id="text_4">
      <!-- 03 Jul -->
      <g transform="translate(183.748722 199.520312) scale(0.1 -0.1)">
       <use xlink:href="#DejaVuSans-30"/>
       <use xlink:href="#DejaVuSans-33" x="63.623047"/>
       <use xlink:href="#DejaVuSans-20" x="127.246094"/>
       <use xlink:href="#DejaVuSans-4a" x="159.033203"/>
       <use xlink:href="#DejaVuSans-75" x="188.525391"/>
       <use xlink:href="#DejaVuSans-6c" x="251.904297"/>
      </g>
     </g>
    </g>
    <g id="xtick_5">
     <g id="line2d_7">
      <g>
       <use xlink:href="#m2eab8bd9ef" x="242.146535" y="184.921875" style="stroke: #000000; stroke-width: 0.8"/>
      </g>
     </g>
     <g id="text_5">
      <!-- 04 Jul -->
      <g transform="translate(228.16216 199.520312) scale(0.1 -0.1)">
       <defs>
        <path id="DejaVuSans-34" d="M 2419 4116 
L 825 1625 
L 2419 1625 
L 2419 4116 
z
M 2253 4666 
L 3047 4666 
L 3047 1625 
L 3713 1625 
L 3713 1100 
L 3047 1100 
L 3047 0 
L 2419 0 
L 2419 1100 
L 313 1100 
L 313 1709 
L 2253 4666 
z
" transform="scale(0.015625)"/>
       </defs>
       <use xlink:href="#DejaVuSans-30"/>
       <use xlink:href="#DejaVuSans-34" x="63.623047"/>
       <use xlink:href="#DejaVuSans-20" x="127.246094"/>
       <use xlink:href="#DejaVuSans-4a" x="159.033203"/>
       <use xlink:href="#DejaVuSans-75" x="188.525391"/>
       <use xlink:href="#DejaVuSans-6c" x="251.904297"/>
      </g>
     </g>
    </g>
    <g id="xtick_6">
     <g id="line2d_8">
      <g>
       <use xlink:href="#m2eab8bd9ef" x="286.559973" y="184.921875" style="stroke: #000000; stroke-width: 0.8"/>
      </g>
     </g>
     <g id="text_6">
      <!-- 05 Jul -->
      <g transform="translate(272.575598 199.520312) scale(0.1 -0.1)">
       <defs>
        <path id="DejaVuSans-35" d="M 691 4666 
L 3169 4666 
L 3169 4134 
L 1269 4134 
L 1269 2991 
Q 1406 3038 1543 3061 
Q 1681 3084 1819 3084 
Q 2600 3084 3056 2656 
Q 3513 2228 3513 1497 
Q 3513 744 3044 326 
Q 2575 -91 1722 -91 
Q 1428 -91 1123 -41 
Q 819 9 494 109 
L 494 744 
Q 775 591 1075 516 
Q 1375 441 1709 441 
Q 2250 441 2565 725 
Q 2881 1009 2881 1497 
Q 2881 1984 2565 2268 
Q 2250 2553 1709 2553 
Q 1456 2553 1204 2497 
Q 953 2441 691 2322 
L 691 4666 
z
" transform="scale(0.015625)"/>
       </defs>
       <use xlink:href="#DejaVuSans-30"/>
       <use xlink:href="#DejaVuSans-35" x="63.623047"/>
       <use xlink:href="#DejaVuSans-20" x="127.246094"/>
       <use xlink:href="#DejaVuSans-4a" x="159.033203"/>
       <use xlink:href="#DejaVuSans-75" x="188.525391"/>
       <use xlink:href="#DejaVuSans-6c" x="251.904297"/>
      </g>
     </g>
    </g>
    <g id="xtick_7">
     <g id="line2d_9">
      <g>
       <use xlink:href="#m2eab8bd9ef" x="330.973412" y="184.921875" style="stroke: #000000; stroke-width: 0.8"/>
      </g>
     </g>
     <g id="text_7">
      <!-- 06 Jul -->
      <g transform="translate(316.989037 199.520312) scale(0.1 -0.1)">
       <defs>
        <path id="DejaVuSans-36" d="M 2113 2584 
Q 1688 2584 1439 2293 
Q 1191 2003 1191 1497 
Q 1191 994 1439 701 
Q 1688 409 2113 409 
Q 2538 409 2786 701 
Q 3034 994 3034 1497 
Q 3034 2003 2786 2293 
Q 2538 2584 2113 2584 
z
M 3366 4563 
L 3366 3988 
Q 3128 4100 2886 4159 
Q 2644 4219 2406 4219 
Q 1781 4219 1451 3797 
Q 1122 3375 1075 2522 
Q 1259 2794 1537 2939 
Q 1816 3084 2150 3084 
Q 2853 3084 3261 2657 
Q 3669 2231 3669 1497 
Q 3669 778 3244 343 
Q 2819 -91 2113 -91 
Q 1303 -91 875 529 
Q 447 1150 447 2328 
Q 447 3434 972 4092 
Q 1497 4750 2381 4750 
Q 2619 4750 2861 4703 
Q 3103 4656 3366 4563 
z
" transform="scale(0.015625)"/>
       </defs>
       <use xlink:href="#DejaVuSans-30"/>
       <use xlink:href="#DejaVuSans-36" x="63.623047"/>
       <use xlink:href="#DejaVuSans-20" x="127.246094"/>
       <use xlink:href="#DejaVuSans-4a" x="159.033203"/>
       <use xlink:href="#DejaVuSans-75" x="188.525391"/>
       <use xlink:href="#DejaVuSans-6c" x="251.904297"/>
      </g>
     </g>
    </g>
   </g>
   <g id="matplotlib.axis_2">
    <g id="ytick_1">
     <g id="text_8">
      <!-- −100% -->
      <g transform="translate(7.2 188.721094) scale(0.1 -0.1)">
       <defs>
        <path id="DejaVuSans-2212" d="M 678 2272 
L 4684 2272 
L 4684 1741 
L 678 1741 
L 678 2272 
z
" transform="scale(0.015625)"/>
        <path id="DejaVuSans-25" d="M 4653 2053 
Q 4381 2053 4226 1822 
Q 4072 1591 4072 1178 
Q 4072 772 4226 539 
Q 4381 306 4653 306 
Q 4919 306 5073 539 
Q 5228 772 5228 1178 
Q 5228 1588 5073 1820 
Q 4919 2053 4653 2053 
z
M 4653 2450 
Q 5147 2450 5437 2106 
Q 5728 1763 5728 1178 
Q 5728 594 5436 251 
Q 5144 -91 4653 -91 
Q 4153 -91 3862 251 
Q 3572 594 3572 1178 
Q 3572 1766 3864 2108 
Q 4156 2450 4653 2450 
z
M 1428 4353 
Q 1159 4353 1004 4120 
Q 850 3888 850 3481 
Q 850 3069 1003 2837 
Q 1156 2606 1428 2606 
Q 1700 2606 1854 2837 
Q 2009 3069 2009 3481 
Q 2009 3884 1853 4118 
Q 1697 4353 1428 4353 
z
M 4250 4750 
L 4750 4750 
L 1831 -91 
L 1331 -91 
L 4250 4750 
z
M 1428 4750 
Q 1922 4750 2215 4408 
Q 2509 4066 2509 3481 
Q 2509 2891 2217 2550 
Q 1925 2209 1428 2209 
Q 931 2209 642 2551 
Q 353 2894 353 3481 
Q 353 4063 643 4406 
Q 934 4750 1428 4750 
z
" transform="scale(0.015625)"/>
       </defs>
       <use xlink:href="#DejaVuSans-2212"/>
       <use xlink:href="#DejaVuSans-31" x="83.789062"/>
       <use xlink:href="#DejaVuSans-30" x="147.412109"/>
       <use xlink:href="#DejaVuSans-30" x="211.035156"/>
       <use xlink:href="#DejaVuSans-25" x="274.658203"/>
      </g>
     </g>
    </g>
    <g id="ytick_2">
     <g id="text_9">
      <!-- −75% -->
      <g transform="translate(13.5625 168.395625) scale(0.1 -0.1)">
       <defs>
        <path id="DejaVuSans-37" d="M 525 4666 
L 3525 4666 
L 3525 4397 
L 1831 0 
L 1172 0 
L 2766 4134 
L 525 4134 
L 525 4666 
z
" transform="scale(0.015625)"/>
       </defs>
       <use xlink:href="#DejaVuSans-2212"/>
       <use xlink:href="#DejaVuSans-37" x="83.789062"/>
       <use xlink:href="#DejaVuSans-35" x="147.412109"/>
       <use xlink:href="#DejaVuSans-25" x="211.035156"/>
      </g>
     </g>
    </g>
    <g id="ytick_3">
     <g id="text_10">
      <!-- −50% -->
      <g transform="translate(13.5625 148.070156) scale(0.1 -0.1)">
       <use xlink:href="#DejaVuSans-2212"/>
       <use xlink:href="#DejaVuSans-35" x="83.789062"/>
       <use xlink:href="#DejaVuSans-30" x="147.412109"/>
       <use xlink:href="#DejaVuSans-25" x="211.035156"/>
      </g>
     </g>
    </g>
    <g id="ytick_4">
     <g id="text_11">
      <!-- −25% -->
      <g transform="translate(13.5625 127.744687) scale(0.1 -0.1)">
       <use xlink:href="#DejaVuSans-2212"/>
       <use xlink:href="#DejaVuSans-32" x="83.789062"/>
       <use xlink:href="#DejaVuSans-35" x="147.412109"/>
       <use xlink:href="#DejaVuSans-25" x="211.035156"/>
      </g>
     </g>
    </g>
    <g id="ytick_5">
     <g id="text_12">
      <!-- 0% -->
      <g transform="translate(28.304688 107.419219) scale(0.1 -0.1)">
       <use xlink:href="#DejaVuSans-30"/>
       <use xlink:href="#DejaVuSans-25" x="63.623047"/>
      </g>
     </g>
    </g>
    <g id="ytick_6">
     <g id="text_13">
      <!-- 25% -->
      <g transform="translate(21.942188 87.09375) scale(0.1 -0.1)">
       <use xlink:href="#DejaVuSans-32"/>
       <use xlink:href="#DejaVuSans-35" x="63.623047"/>
       <use xlink:href="#DejaVuSans-25" x="127.246094"/>
      </g>
     </g>
    </g>
    <g id="ytick_7">
     <g id="text_14">
      <!-- 50% -->
      <g transform="translate(21.942188 66.768281) scale(0.1 -0.1)">
       <use xlink:href="#DejaVuSans-35"/>
       <use xlink:href="#DejaVuSans-30" x="63.623047"/>
       <use xlink:href="#DejaVuSans-25" x="127.246094"/>
      </g>
     </g>
    </g>
    <g id="ytick_8">
     <g id="text_15">
      <!-- 75% -->
      <g transform="translate(21.942188 46.442812) scale(0.1 -0.1)">
       <use xlink:href="#DejaVuSans-37"/>
       <use xlink:href="#DejaVuSans-35" x="63.623047"/>
       <use xlink:href="#DejaVuSans-25" x="127.246094"/>
      </g>
     </g>
    </g>
    <g id="ytick_9">
     <g id="text_16">
      <!-- 100% -->
      <g transform="translate(15.579688 26.117344) scale(0.1 -0.1)">
       <use xlink:href="#DejaVuSans-31"/>
       <use xlink:href="#DejaVuSans-30" x="63.623047"/>
       <use xlink:href="#DejaVuSans-30" x="127.246094"/>
       <use xlink:href="#DejaVuSans-25" x="190.869141"/>
      </g>
     </g>
    </g>
   </g>
   <g id="line2d_10">
    <path d="M 64.492782 101.993962 
L 67.1665 101.154841 
L 69.840219 100.504399 
L 72.513938 100.036267 
L 75.187656 99.744079 
L 78.752615 99.617179 
L 82.317573 99.776654 
L 85.882531 100.207412 
L 89.447489 100.894359 
L 93.012448 101.822401 
L 96.577406 102.976446 
L 100.142364 104.3414 
L 104.598562 106.32119 
L 109.05476 108.577465 
L 113.510958 111.080744 
L 118.858395 114.369219 
L 124.205832 117.919993 
L 130.444509 122.326119 
L 138.465665 128.283675 
L 164.311613 147.769831 
L 170.55029 152.093885 
L 175.897727 155.553989 
L 181.245165 158.733036 
L 185.701362 161.130795 
L 190.15756 163.268522 
L 194.613758 165.116738 
L 198.178716 166.367064 
L 201.743675 167.406379 
L 205.308633 168.250503 
L 209.764831 169.061194 
L 214.221029 169.63618 
L 219.568466 170.069226 
L 225.807143 170.304244 
L 233.828299 170.341416 
L 250.761851 170.334879 
L 276.607798 170.550963 
L 284.628954 170.366193 
L 291.758871 169.996501 
L 297.997548 169.471978 
L 304.236225 168.723524 
L 309.583662 167.8775 
L 314.931099 166.819687 
L 320.278537 165.528268 
L 325.625974 163.981428 
L 330.082172 162.481541 
L 330.973412 162.15735 
L 330.973412 162.15735 
" clip-path="url(#p10f68bcb28)" style="fill: none; stroke: #0035a0; stroke-width: 3; stroke-linecap: round"/>
   </g>
   <g id="text_17">
    <!-- Hillsborough - population change trends -->
    <g transform="translate(77.282159 16.318125) scale(0.12 -0.12)">
     <defs>
      <path id="DejaVuSans-48" d="M 628 4666 
L 1259 4666 
L 1259 2753 
L 3553 2753 
L 3553 4666 
L 4184 4666 
L 4184 0 
L 3553 0 
L 3553 2222 
L 1259 2222 
L 1259 0 
L 628 0 
L 628 4666 
z
" transform="scale(0.015625)"/>
      <path id="DejaVuSans-69" d="M 603 3500 
L 1178 3500 
L 1178 0 
L 603 0 
L 603 3500 
z
M 603 4863 
L 1178 4863 
L 1178 4134 
L 603 4134 
L 603 4863 
z
" transform="scale(0.015625)"/>
      <path id="DejaVuSans-73" d="M 2834 3397 
L 2834 2853 
Q 2591 2978 2328 3040 
Q 2066 3103 1784 3103 
Q 1356 3103 1142 2972 
Q 928 2841 928 2578 
Q 928 2378 1081 2264 
Q 1234 2150 1697 2047 
L 1894 2003 
Q 2506 1872 2764 1633 
Q 3022 1394 3022 966 
Q 3022 478 2636 193 
Q 2250 -91 1575 -91 
Q 1294 -91 989 -36 
Q 684 19 347 128 
L 347 722 
Q 666 556 975 473 
Q 1284 391 1588 391 
Q 1994 391 2212 530 
Q 2431 669 2431 922 
Q 2431 1156 2273 1281 
Q 2116 1406 1581 1522 
L 1381 1569 
Q 847 1681 609 1914 
Q 372 2147 372 2553 
Q 372 3047 722 3315 
Q 1072 3584 1716 3584 
Q 2034 3584 2315 3537 
Q 2597 3491 2834 3397 
z
" transform="scale(0.015625)"/>
      <path id="DejaVuSans-62" d="M 3116 1747 
Q 3116 2381 2855 2742 
Q 2594 3103 2138 3103 
Q 1681 3103 1420 2742 
Q 1159 2381 1159 1747 
Q 1159 1113 1420 752 
Q 1681 391 2138 391 
Q 2594 391 2855 752 
Q 3116 1113 3116 1747 
z
M 1159 2969 
Q 1341 3281 1617 3432 
Q 1894 3584 2278 3584 
Q 2916 3584 3314 3078 
Q 3713 2572 3713 1747 
Q 3713 922 3314 415 
Q 2916 -91 2278 -91 
Q 1894 -91 1617 61 
Q 1341 213 1159 525 
L 1159 0 
L 581 0 
L 581 4863 
L 1159 4863 
L 1159 2969 
z
" transform="scale(0.015625)"/>
      <path id="DejaVuSans-6f" d="M 1959 3097 
Q 1497 3097 1228 2736 
Q 959 2375 959 1747 
Q 959 1119 1226 758 
Q 1494 397 1959 397 
Q 2419 397 2687 759 
Q 2956 1122 2956 1747 
Q 2956 2369 2687 2733 
Q 2419 3097 1959 3097 
z
M 1959 3584 
Q 2709 3584 3137 3096 
Q 3566 2609 3566 1747 
Q 3566 888 3137 398 
Q 2709 -91 1959 -91 
Q 1206 -91 779 398 
Q 353 888 353 1747 
Q 353 2609 779 3096 
Q 1206 3584 1959 3584 
z
" transform="scale(0.015625)"/>
      <path id="DejaVuSans-72" d="M 2631 2963 
Q 2534 3019 2420 3045 
Q 2306 3072 2169 3072 
Q 1681 3072 1420 2755 
Q 1159 2438 1159 1844 
L 1159 0 
L 581 0 
L 581 3500 
L 1159 3500 
L 1159 2956 
Q 1341 3275 1631 3429 
Q 1922 3584 2338 3584 
Q 2397 3584 2469 3576 
Q 2541 3569 2628 3553 
L 2631 2963 
z
" transform="scale(0.015625)"/>
      <path id="DejaVuSans-67" d="M 2906 1791 
Q 2906 2416 2648 2759 
Q 2391 3103 1925 3103 
Q 1463 3103 1205 2759 
Q 947 2416 947 1791 
Q 947 1169 1205 825 
Q 1463 481 1925 481 
Q 2391 481 2648 825 
Q 2906 1169 2906 1791 
z
M 3481 434 
Q 3481 -459 3084 -895 
Q 2688 -1331 1869 -1331 
Q 1566 -1331 1297 -1286 
Q 1028 -1241 775 -1147 
L 775 -588 
Q 1028 -725 1275 -790 
Q 1522 -856 1778 -856 
Q 2344 -856 2625 -561 
Q 2906 -266 2906 331 
L 2906 616 
Q 2728 306 2450 153 
Q 2172 0 1784 0 
Q 1141 0 747 490 
Q 353 981 353 1791 
Q 353 2603 747 3093 
Q 1141 3584 1784 3584 
Q 2172 3584 2450 3431 
Q 2728 3278 2906 2969 
L 2906 3500 
L 3481 3500 
L 3481 434 
z
" transform="scale(0.015625)"/>
      <path id="DejaVuSans-68" d="M 3513 2113 
L 3513 0 
L 2938 0 
L 2938 2094 
Q 2938 2591 2744 2837 
Q 2550 3084 2163 3084 
Q 1697 3084 1428 2787 
Q 1159 2491 1159 1978 
L 1159 0 
L 581 0 
L 581 4863 
L 1159 4863 
L 1159 2956 
Q 1366 3272 1645 3428 
Q 1925 3584 2291 3584 
Q 2894 3584 3203 3211 
Q 3513 2838 3513 2113 
z
" transform="scale(0.015625)"/>
      <path id="DejaVuSans-2d" d="M 313 2009 
L 1997 2009 
L 1997 1497 
L 313 1497 
L 313 2009 
z
" transform="scale(0.015625)"/>
      <path id="DejaVuSans-70" d="M 1159 525 
L 1159 -1331 
L 581 -1331 
L 581 3500 
L 1159 3500 
L 1159 2969 
Q 1341 3281 1617 3432 
Q 1894 3584 2278 3584 
Q 2916 3584 3314 3078 
Q 3713 2572 3713 1747 
Q 3713 922 3314 415 
Q 2916 -91 2278 -91 
Q 1894 -91 1617 61 
Q 1341 213 1159 525 
z
M 3116 1747 
Q 3116 2381 2855 2742 
Q 2594 3103 2138 3103 
Q 1681 3103 1420 2742 
Q 1159 2381 1159 1747 
Q 1159 1113 1420 752 
Q 1681 391 2138 391 
Q 2594 391 2855 752 
Q 3116 1113 3116 1747 
z
" transform="scale(0.015625)"/>
      <path id="DejaVuSans-61" d="M 2194 1759 
Q 1497 1759 1228 1600 
Q 959 1441 959 1056 
Q 959 750 1161 570 
Q 1363 391 1709 391 
Q 2188 391 2477 730 
Q 2766 1069 2766 1631 
L 2766 1759 
L 2194 1759 
z
M 3341 1997 
L 3341 0 
L 2766 0 
L 2766 531 
Q 2569 213 2275 61 
Q 1981 -91 1556 -91 
Q 1019 -91 701 211 
Q 384 513 384 1019 
Q 384 1609 779 1909 
Q 1175 2209 1959 2209 
L 2766 2209 
L 2766 2266 
Q 2766 2663 2505 2880 
Q 2244 3097 1772 3097 
Q 1472 3097 1187 3025 
Q 903 2953 641 2809 
L 641 3341 
Q 956 3463 1253 3523 
Q 1550 3584 1831 3584 
Q 2591 3584 2966 3190 
Q 3341 2797 3341 1997 
z
" transform="scale(0.015625)"/>
      <path id="DejaVuSans-74" d="M 1172 4494 
L 1172 3500 
L 2356 3500 
L 2356 3053 
L 1172 3053 
L 1172 1153 
Q 1172 725 1289 603 
Q 1406 481 1766 481 
L 2356 481 
L 2356 0 
L 1766 0 
Q 1100 0 847 248 
Q 594 497 594 1153 
L 594 3053 
L 172 3053 
L 172 3500 
L 594 3500 
L 594 4494 
L 1172 4494 
z
" transform="scale(0.015625)"/>
      <path id="DejaVuSans-63" d="M 3122 3366 
L 3122 2828 
Q 2878 2963 2633 3030 
Q 2388 3097 2138 3097 
Q 1578 3097 1268 2742 
Q 959 2388 959 1747 
Q 959 1106 1268 751 
Q 1578 397 2138 397 
Q 2388 397 2633 464 
Q 2878 531 3122 666 
L 3122 134 
Q 2881 22 2623 -34 
Q 2366 -91 2075 -91 
Q 1284 -91 818 406 
Q 353 903 353 1747 
Q 353 2603 823 3093 
Q 1294 3584 2113 3584 
Q 2378 3584 2631 3529 
Q 2884 3475 3122 3366 
z
" transform="scale(0.015625)"/>
      <path id="DejaVuSans-65" d="M 3597 1894 
L 3597 1613 
L 953 1613 
Q 991 1019 1311 708 
Q 1631 397 2203 397 
Q 2534 397 2845 478 
Q 3156 559 3463 722 
L 3463 178 
Q 3153 47 2828 -22 
Q 2503 -91 2169 -91 
Q 1331 -91 842 396 
Q 353 884 353 1716 
Q 353 2575 817 3079 
Q 1281 3584 2069 3584 
Q 2775 3584 3186 3129 
Q 3597 2675 3597 1894 
z
M 3022 2063 
Q 3016 2534 2758 2815 
Q 2500 3097 2075 3097 
Q 1594 3097 1305 2825 
Q 1016 2553 972 2059 
L 3022 2063 
z
" transform="scale(0.015625)"/>
      <path id="DejaVuSans-64" d="M 2906 2969 
L 2906 4863 
L 3481 4863 
L 3481 0 
L 2906 0 
L 2906 525 
Q 2725 213 2448 61 
Q 2172 -91 1784 -91 
Q 1150 -91 751 415 
Q 353 922 353 1747 
Q 353 2572 751 3078 
Q 1150 3584 1784 3584 
Q 2172 3584 2448 3432 
Q 2725 3281 2906 2969 
z
M 947 1747 
Q 947 1113 1208 752 
Q 1469 391 1925 391 
Q 2381 391 2643 752 
Q 2906 1113 2906 1747 
Q 2906 2381 2643 2742 
Q 2381 3103 1925 3103 
Q 1469 3103 1208 2742 
Q 947 2381 947 1747 
z
" transform="scale(0.015625)"/>
     </defs>
     <use xlink:href="#DejaVuSans-48"/>
     <use xlink:href="#DejaVuSans-69" x="75.195312"/>
     <use xlink:href="#DejaVuSans-6c" x="102.978516"/>
     <use xlink:href="#DejaVuSans-6c" x="130.761719"/>
     <use xlink:href="#DejaVuSans-73" x="158.544922"/>
     <use xlink:href="#DejaVuSans-62" x="210.644531"/>
     <use xlink:href="#DejaVuSans-6f" x="274.121094"/>
     <use xlink:href="#DejaVuSans-72" x="335.302734"/>
     <use xlink:href="#DejaVuSans-6f" x="374.166016"/>
     <use xlink:href="#DejaVuSans-75" x="435.347656"/>
     <use xlink:href="#DejaVuSans-67" x="498.726562"/>
     <use xlink:href="#DejaVuSans-68" x="562.203125"/>
     <use xlink:href="#DejaVuSans-20" x="625.582031"/>
     <use xlink:href="#DejaVuSans-2d" x="657.369141"/>
     <use xlink:href="#DejaVuSans-20" x="693.453125"/>
     <use xlink:href="#DejaVuSans-70" x="725.240234"/>
     <use xlink:href="#DejaVuSans-6f" x="788.716797"/>
     <use xlink:href="#DejaVuSans-70" x="849.898438"/>
     <use xlink:href="#DejaVuSans-75" x="913.375"/>
     <use xlink:href="#DejaVuSans-6c" x="976.753906"/>
     <use xlink:href="#DejaVuSans-61" x="1004.537109"/>
     <use xlink:href="#DejaVuSans-74" x="1065.816406"/>
     <use xlink:href="#DejaVuSans-69" x="1105.025391"/>
     <use xlink:href="#DejaVuSans-6f" x="1132.808594"/>
     <use xlink:href="#DejaVuSans-6e" x="1193.990234"/>
     <use xlink:href="#DejaVuSans-20" x="1257.369141"/>
     <use xlink:href="#DejaVuSans-63" x="1289.15625"/>
     <use xlink:href="#DejaVuSans-68" x="1344.136719"/>
     <use xlink:href="#DejaVuSans-61" x="1407.515625"/>
     <use xlink:href="#DejaVuSans-6e" x="1468.794922"/>
     <use xlink:href="#DejaVuSans-67" x="1532.173828"/>
     <use xlink:href="#DejaVuSans-65" x="1595.650391"/>
     <use xlink:href="#DejaVuSans-20" x="1657.173828"/>
     <use xlink:href="#DejaVuSans-74" x="1688.960938"/>
     <use xlink:href="#DejaVuSans-72" x="1728.169922"/>
     <use xlink:href="#DejaVuSans-65" x="1767.033203"/>
     <use xlink:href="#DejaVuSans-6e" x="1828.556641"/>
     <use xlink:href="#DejaVuSans-64" x="1891.935547"/>
     <use xlink:href="#DejaVuSans-73" x="1955.412109"/>
    </g>
   </g>
  </g>
 </g>
 <defs>
  <clipPath id="p10f68bcb28">
   <rect x="51.16875" y="22.318125" width="293.128693" height="162.60375"/>
  </clipPath>
 </defs>
</svg>
