<?xml version="1.0" encoding="utf-8" standalone="no"?>
<!DOCTYPE svg PUBLIC "-//W3C//DTD SVG 1.1//EN"
  "http://www.w3.org/Graphics/SVG/1.1/DTD/svg11.dtd">
<svg xmlns:xlink="http://www.w3.org/1999/xlink" width="352.157787pt" height="208.8pt" viewBox="0 0 352.157787 208.8" xmlns="http://www.w3.org/2000/svg" version="1.1">
 <metadata>
  <rdf:RDF xmlns:dc="http://purl.org/dc/elements/1.1/" xmlns:cc="http://creativecommons.org/ns#" xmlns:rdf="http://www.w3.org/1999/02/22-rdf-syntax-ns#">
   <cc:Work>
    <dc:type rdf:resource="http://purl.org/dc/dcmitype/StillImage"/>
    <dc:date>2024-07-06T17:23:28.201956</dc:date>
    <dc:format>image/svg+xml</dc:format>
    <dc:creator>
     <cc:Agent>
      <dc:title>Matplotlib v3.9.0, https://matplotlib.org/</dc:title>
     </cc:Agent>
    </dc:creator>
   </cc:Work>
  </rdf:RDF>
 </metadata>
 <defs>
  <style type="text/css">*{stroke-linejoin: round; stroke-linecap: butt}</style>
 </defs>
 <g id="figure_1">
  <g id="patch_1">
   <path d="M 0 208.8 
L 352.157787 208.8 
L 352.157787 0 
L 0 0 
L 0 208.8 
z
" style="fill: none"/>
  </g>
  <g id="axes_1">
   <g id="patch_2">
    <path d="M 51.16875 184.921875 
L 344.297443 184.921875 
L 344.297443 22.318125 
L 51.16875 22.318125 
L 51.16875 184.921875 
z
" style="fill: none; opacity: 0"/>
   </g>
   <g id="PolyCollection_1">
    <defs>
     <path id="m55e53fd014" d="M 64.492782 -106.806038 
L 64.492782 -106.806038 
L 65.384021 -107.051032 
L 66.275261 -107.281445 
L 67.1665 -107.49741 
L 68.05774 -107.699059 
L 68.948979 -107.886524 
L 69.840219 -108.059937 
L 70.731458 -108.219431 
L 71.622698 -108.365138 
L 72.513938 -108.497189 
L 73.405177 -108.615719 
L 74.296417 -108.720857 
L 75.187656 -108.812738 
L 76.078896 -108.891493 
L 76.970135 -108.957254 
L 77.861375 -109.010154 
L 78.752615 -109.050324 
L 79.643854 -109.077898 
L 80.535094 -109.093007 
L 81.426333 -109.095784 
L 82.317573 -109.08636 
L 83.208812 -109.064869 
L 84.100052 -109.031442 
L 84.991292 -108.986211 
L 85.882531 -108.92931 
L 86.773771 -108.860869 
L 87.66501 -108.781022 
L 88.55625 -108.689901 
L 89.447489 -108.587637 
L 90.338729 -108.474364 
L 91.229968 -108.350213 
L 92.121208 -108.215316 
L 93.012448 -108.069807 
L 93.903687 -107.913816 
L 94.794927 -107.747477 
L 95.686166 -107.570922 
L 96.577406 -107.384282 
L 97.468645 -107.18769 
L 98.359885 -106.981279 
L 99.251125 -106.765181 
L 100.142364 -106.539527 
L 101.033604 -106.304451 
L 101.924843 -106.060084 
L 102.816083 -105.806558 
L 103.707322 -105.544006 
L 104.598562 -105.272561 
L 104.892966 -105.18 
L 104.598562 -105.18 
L 103.707322 -105.18 
L 102.816083 -105.18 
L 101.924843 -105.18 
L 101.033604 -105.18 
L 100.142364 -105.18 
L 99.251125 -105.18 
L 98.359885 -105.18 
L 97.468645 -105.18 
L 96.577406 -105.18 
L 95.686166 -105.18 
L 94.794927 -105.18 
L 93.903687 -105.18 
L 93.012448 -105.18 
L 92.121208 -105.18 
L 91.229968 -105.18 
L 90.338729 -105.18 
L 89.447489 -105.18 
L 88.55625 -105.18 
L 87.66501 -105.18 
L 86.773771 -105.18 
L 85.882531 -105.18 
L 84.991292 -105.18 
L 84.100052 -105.18 
L 83.208812 -105.18 
L 82.317573 -105.18 
L 81.426333 -105.18 
L 80.535094 -105.18 
L 79.643854 -105.18 
L 78.752615 -105.18 
L 77.861375 -105.18 
L 76.970135 -105.18 
L 76.078896 -105.18 
L 75.187656 -105.18 
L 74.296417 -105.18 
L 73.405177 -105.18 
L 72.513938 -105.18 
L 71.622698 -105.18 
L 70.731458 -105.18 
L 69.840219 -105.18 
L 68.948979 -105.18 
L 68.05774 -105.18 
L 67.1665 -105.18 
L 66.275261 -105.18 
L 65.384021 -105.18 
L 64.492782 -105.18 
z
" style="stroke: #6ec5bc; stroke-opacity: 0.1"/>
    </defs>
    <g clip-path="url(#p53e33bd165)">
     <use xlink:href="#m55e53fd014" x="0" y="208.8" style="fill: #6ec5bc; fill-opacity: 0.1; stroke: #6ec5bc; stroke-opacity: 0.1"/>
    </g>
   </g>
   <g id="PolyCollection_2">
    <defs>
     <path id="meaee819f56" d="M 104.892966 -105.18 
L 105.489802 -104.992354 
L 106.381041 -104.703517 
L 107.272281 -104.406184 
L 108.16352 -104.100485 
L 109.05476 -103.786554 
L 109.945999 -103.464523 
L 110.837239 -103.134523 
L 111.728478 -102.796688 
L 112.619718 -102.451149 
L 113.510958 -102.098038 
L 114.402197 -101.737489 
L 115.293437 -101.369632 
L 116.184676 -100.994601 
L 117.075916 -100.612528 
L 117.967155 -100.223544 
L 118.858395 -99.827783 
L 119.749635 -99.425376 
L 120.640874 -99.016456 
L 121.532114 -98.601154 
L 122.423353 -98.179604 
L 123.314593 -97.751937 
L 124.205832 -97.318286 
L 125.097072 -96.878782 
L 125.988312 -96.433559 
L 126.879551 -95.982748 
L 127.770791 -95.526482 
L 128.66203 -95.064893 
L 129.55327 -94.598113 
L 130.444509 -94.126274 
L 131.335749 -93.649509 
L 132.226989 -93.16795 
L 133.118228 -92.681729 
L 134.009468 -92.190978 
L 134.900707 -91.69583 
L 135.791947 -91.196417 
L 136.683186 -90.692871 
L 137.574426 -90.185324 
L 138.465665 -89.67391 
L 139.356905 -89.158759 
L 140.248145 -88.640004 
L 141.139384 -88.117777 
L 142.030624 -87.592212 
L 142.921863 -87.063439 
L 143.813103 -86.531591 
L 144.704342 -85.996801 
L 145.595582 -85.4592 
L 146.486822 -84.918921 
L 147.378061 -84.376097 
L 148.269301 -83.830859 
L 149.16054 -83.283339 
L 150.05178 -82.733671 
L 150.943019 -82.181985 
L 151.834259 -81.628415 
L 152.725499 -81.073093 
L 153.616738 -80.516151 
L 154.507978 -79.95772 
L 155.399217 -79.397934 
L 156.290457 -78.836925 
L 157.181696 -78.274825 
L 158.072936 -77.711766 
L 158.964175 -77.14788 
L 159.855415 -76.5833 
L 160.746655 -76.018158 
L 161.637894 -75.452586 
L 162.529134 -74.886717 
L 163.420373 -74.320682 
L 164.311613 -73.754614 
L 165.202852 -73.188646 
L 166.094092 -72.622908 
L 166.985332 -72.057535 
L 167.876571 -71.492657 
L 168.767811 -70.928408 
L 169.65905 -70.364918 
L 170.55029 -69.802322 
L 171.441529 -69.240751 
L 172.332769 -68.680336 
L 173.224009 -68.121212 
L 174.115248 -67.563508 
L 175.006488 -67.007359 
L 175.897727 -66.452896 
L 176.788967 -65.900251 
L 177.680206 -65.349558 
L 178.571446 -64.800947 
L 179.462685 -64.254551 
L 180.353925 -63.710502 
L 181.245165 -63.168934 
L 182.136404 -62.629977 
L 183.027644 -62.093764 
L 183.918883 -61.560428 
L 184.810123 -61.030101 
L 185.701362 -60.502914 
L 186.592602 -59.979001 
L 187.483842 -59.458493 
L 188.375081 -58.941523 
L 189.266321 -58.428223 
L 190.15756 -57.918725 
L 191.0488 -57.413161 
L 191.940039 -56.911664 
L 192.831279 -56.414366 
L 193.722519 -55.921399 
L 194.613758 -55.432896 
L 195.504998 -54.948989 
L 196.396237 -54.469809 
L 197.287477 -53.995489 
L 198.178716 -53.526162 
L 199.069956 -53.06196 
L 199.961196 -52.603015 
L 200.852435 -52.149459 
L 201.743675 -51.701424 
L 202.634914 -51.259043 
L 203.526154 -50.822448 
L 204.417393 -50.391771 
L 205.308633 -49.967145 
L 206.199872 -49.548701 
L 207.091112 -49.136572 
L 207.982352 -48.730891 
L 208.873591 -48.331789 
L 209.764831 -47.939398 
L 210.65607 -47.553852 
L 211.54731 -47.175282 
L 212.438549 -46.80382 
L 213.329789 -46.439599 
L 214.221029 -46.082751 
L 215.112268 -45.733408 
L 216.003508 -45.391703 
L 216.894747 -45.057767 
L 217.785987 -44.731733 
L 218.677226 -44.413734 
L 219.568466 -44.103901 
L 220.459706 -43.802367 
L 221.350945 -43.509263 
L 222.242185 -43.224723 
L 223.133424 -42.948879 
L 224.024664 -42.681862 
L 224.915903 -42.423795 
L 225.807143 -42.17466 
L 226.698382 -41.934326 
L 227.589622 -41.702664 
L 228.480862 -41.47954 
L 229.372101 -41.264822 
L 230.263341 -41.058381 
L 231.15458 -40.860082 
L 232.04582 -40.669796 
L 232.937059 -40.48739 
L 233.828299 -40.312732 
L 234.719539 -40.145691 
L 235.610778 -39.986136 
L 236.502018 -39.833933 
L 237.393257 -39.688952 
L 238.284497 -39.551062 
L 239.175736 -39.420129 
L 240.066976 -39.296023 
L 240.958216 -39.178611 
L 241.849455 -39.067763 
L 242.740695 -38.963347 
L 243.631934 -38.865229 
L 244.523174 -38.77328 
L 245.414413 -38.687368 
L 246.305653 -38.607359 
L 247.196892 -38.533124 
L 248.088132 -38.46453 
L 248.979372 -38.401445 
L 249.870611 -38.343738 
L 250.761851 -38.291277 
L 251.65309 -38.24393 
L 252.54433 -38.201566 
L 253.435569 -38.164053 
L 254.326809 -38.131259 
L 255.218049 -38.103053 
L 256.109288 -38.079302 
L 257.000528 -38.059875 
L 257.891767 -38.044641 
L 258.783007 -38.033468 
L 259.674246 -38.026223 
L 260.565486 -38.022776 
L 261.456726 -38.022994 
L 262.347965 -38.026746 
L 263.239205 -38.0339 
L 264.130444 -38.044325 
L 265.021684 -38.057888 
L 265.912923 -38.074459 
L 266.804163 -38.093904 
L 267.695403 -38.116093 
L 268.586642 -38.140895 
L 269.477882 -38.168176 
L 270.369121 -38.197806 
L 271.260361 -38.229652 
L 272.1516 -38.263584 
L 273.04284 -38.299469 
L 273.934079 -38.337175 
L 274.825319 -38.376572 
L 275.716559 -38.417526 
L 276.607798 -38.459907 
L 277.499038 -38.503584 
L 278.390277 -38.548423 
L 279.281517 -38.594293 
L 280.172756 -38.641063 
L 281.063996 -38.688602 
L 281.955236 -38.736776 
L 282.846475 -38.785455 
L 283.737715 -38.834507 
L 284.628954 -38.8838 
L 285.520194 -38.933202 
L 286.411433 -38.982582 
L 287.302673 -39.031809 
L 288.193913 -39.080749 
L 289.085152 -39.129272 
L 289.976392 -39.177246 
L 290.867631 -39.22454 
L 291.758871 -39.27102 
L 292.65011 -39.316557 
L 293.54135 -39.361017 
L 294.432589 -39.40427 
L 295.323829 -39.446184 
L 296.215069 -39.486626 
L 297.106308 -39.525466 
L 297.997548 -39.562571 
L 298.888787 -39.597811 
L 299.780027 -39.631052 
L 300.671266 -39.662164 
L 301.562506 -39.691014 
L 302.453746 -39.717471 
L 303.344985 -39.741404 
L 304.236225 -39.76268 
L 305.127464 -39.781168 
L 306.018704 -39.796736 
L 306.909943 -39.809253 
L 307.801183 -39.818587 
L 308.692423 -39.824605 
L 309.583662 -39.827177 
L 310.474902 -39.826171 
L 311.366141 -39.821454 
L 312.257381 -39.812896 
L 313.14862 -39.800364 
L 314.03986 -39.783727 
L 314.931099 -39.762853 
L 315.822339 -39.73761 
L 316.713579 -39.707867 
L 317.604818 -39.673492 
L 318.496058 -39.634353 
L 319.387297 -39.590319 
L 320.278537 -39.541258 
L 321.169776 -39.487038 
L 322.061016 -39.427527 
L 322.952256 -39.362594 
L 323.843495 -39.292107 
L 324.734735 -39.215934 
L 325.625974 -39.133944 
L 326.517214 -39.046005 
L 327.408453 -38.951985 
L 328.299693 -38.851752 
L 329.190933 -38.745176 
L 330.082172 -38.632123 
L 330.973412 -38.512463 
L 330.973412 -38.512463 
L 330.973412 -105.18 
L 330.082172 -105.18 
L 329.190933 -105.18 
L 328.299693 -105.18 
L 327.408453 -105.18 
L 326.517214 -105.18 
L 325.625974 -105.18 
L 324.734735 -105.18 
L 323.843495 -105.18 
L 322.952256 -105.18 
L 322.061016 -105.18 
L 321.169776 -105.18 
L 320.278537 -105.18 
L 319.387297 -105.18 
L 318.496058 -105.18 
L 317.604818 -105.18 
L 316.713579 -105.18 
L 315.822339 -105.18 
L 314.931099 -105.18 
L 314.03986 -105.18 
L 313.14862 -105.18 
L 312.257381 -105.18 
L 311.366141 -105.18 
L 310.474902 -105.18 
L 309.583662 -105.18 
L 308.692423 -105.18 
L 307.801183 -105.18 
L 306.909943 -105.18 
L 306.018704 -105.18 
L 305.127464 -105.18 
L 304.236225 -105.18 
L 303.344985 -105.18 
L 302.453746 -105.18 
L 301.562506 -105.18 
L 300.671266 -105.18 
L 299.780027 -105.18 
L 298.888787 -105.18 
L 297.997548 -105.18 
L 297.106308 -105.18 
L 296.215069 -105.18 
L 295.323829 -105.18 
L 294.432589 -105.18 
L 293.54135 -105.18 
L 292.65011 -105.18 
L 291.758871 -105.18 
L 290.867631 -105.18 
L 289.976392 -105.18 
L 289.085152 -105.18 
L 288.193913 -105.18 
L 287.302673 -105.18 
L 286.411433 -105.18 
L 285.520194 -105.18 
L 284.628954 -105.18 
L 283.737715 -105.18 
L 282.846475 -105.18 
L 281.955236 -105.18 
L 281.063996 -105.18 
L 280.172756 -105.18 
L 279.281517 -105.18 
L 278.390277 -105.18 
L 277.499038 -105.18 
L 276.607798 -105.18 
L 275.716559 -105.18 
L 274.825319 -105.18 
L 273.934079 -105.18 
L 273.04284 -105.18 
L 272.1516 -105.18 
L 271.260361 -105.18 
L 270.369121 -105.18 
L 269.477882 -105.18 
L 268.586642 -105.18 
L 267.695403 -105.18 
L 266.804163 -105.18 
L 265.912923 -105.18 
L 265.021684 -105.18 
L 264.130444 -105.18 
L 263.239205 -105.18 
L 262.347965 -105.18 
L 261.456726 -105.18 
L 260.565486 -105.18 
L 259.674246 -105.18 
L 258.783007 -105.18 
L 257.891767 -105.18 
L 257.000528 -105.18 
L 256.109288 -105.18 
L 255.218049 -105.18 
L 254.326809 -105.18 
L 253.435569 -105.18 
L 252.54433 -105.18 
L 251.65309 -105.18 
L 250.761851 -105.18 
L 249.870611 -105.18 
L 248.979372 -105.18 
L 248.088132 -105.18 
L 247.196892 -105.18 
L 246.305653 -105.18 
L 245.414413 -105.18 
L 244.523174 -105.18 
L 243.631934 -105.18 
L 242.740695 -105.18 
L 241.849455 -105.18 
L 240.958216 -105.18 
L 240.066976 -105.18 
L 239.175736 -105.18 
L 238.284497 -105.18 
L 237.393257 -105.18 
L 236.502018 -105.18 
L 235.610778 -105.18 
L 234.719539 -105.18 
L 233.828299 -105.18 
L 232.937059 -105.18 
L 232.04582 -105.18 
L 231.15458 -105.18 
L 230.263341 -105.18 
L 229.372101 -105.18 
L 228.480862 -105.18 
L 227.589622 -105.18 
L 226.698382 -105.18 
L 225.807143 -105.18 
L 224.915903 -105.18 
L 224.024664 -105.18 
L 223.133424 -105.18 
L 222.242185 -105.18 
L 221.350945 -105.18 
L 220.459706 -105.18 
L 219.568466 -105.18 
L 218.677226 -105.18 
L 217.785987 -105.18 
L 216.894747 -105.18 
L 216.003508 -105.18 
L 215.112268 -105.18 
L 214.221029 -105.18 
L 213.329789 -105.18 
L 212.438549 -105.18 
L 211.54731 -105.18 
L 210.65607 -105.18 
L 209.764831 -105.18 
L 208.873591 -105.18 
L 207.982352 -105.18 
L 207.091112 -105.18 
L 206.199872 -105.18 
L 205.308633 -105.18 
L 204.417393 -105.18 
L 203.526154 -105.18 
L 202.634914 -105.18 
L 201.743675 -105.18 
L 200.852435 -105.18 
L 199.961196 -105.18 
L 199.069956 -105.18 
L 198.178716 -105.18 
L 197.287477 -105.18 
L 196.396237 -105.18 
L 195.504998 -105.18 
L 194.613758 -105.18 
L 193.722519 -105.18 
L 192.831279 -105.18 
L 191.940039 -105.18 
L 191.0488 -105.18 
L 190.15756 -105.18 
L 189.266321 -105.18 
L 188.375081 -105.18 
L 187.483842 -105.18 
L 186.592602 -105.18 
L 185.701362 -105.18 
L 184.810123 -105.18 
L 183.918883 -105.18 
L 183.027644 -105.18 
L 182.136404 -105.18 
L 181.245165 -105.18 
L 180.353925 -105.18 
L 179.462685 -105.18 
L 178.571446 -105.18 
L 177.680206 -105.18 
L 176.788967 -105.18 
L 175.897727 -105.18 
L 175.006488 -105.18 
L 174.115248 -105.18 
L 173.224009 -105.18 
L 172.332769 -105.18 
L 171.441529 -105.18 
L 170.55029 -105.18 
L 169.65905 -105.18 
L 168.767811 -105.18 
L 167.876571 -105.18 
L 166.985332 -105.18 
L 166.094092 -105.18 
L 165.202852 -105.18 
L 164.311613 -105.18 
L 163.420373 -105.18 
L 162.529134 -105.18 
L 161.637894 -105.18 
L 160.746655 -105.18 
L 159.855415 -105.18 
L 158.964175 -105.18 
L 158.072936 -105.18 
L 157.181696 -105.18 
L 156.290457 -105.18 
L 155.399217 -105.18 
L 154.507978 -105.18 
L 153.616738 -105.18 
L 152.725499 -105.18 
L 151.834259 -105.18 
L 150.943019 -105.18 
L 150.05178 -105.18 
L 149.16054 -105.18 
L 148.269301 -105.18 
L 147.378061 -105.18 
L 146.486822 -105.18 
L 145.595582 -105.18 
L 144.704342 -105.18 
L 143.813103 -105.18 
L 142.921863 -105.18 
L 142.030624 -105.18 
L 141.139384 -105.18 
L 140.248145 -105.18 
L 139.356905 -105.18 
L 138.465665 -105.18 
L 137.574426 -105.18 
L 136.683186 -105.18 
L 135.791947 -105.18 
L 134.900707 -105.18 
L 134.009468 -105.18 
L 133.118228 -105.18 
L 132.226989 -105.18 
L 131.335749 -105.18 
L 130.444509 -105.18 
L 129.55327 -105.18 
L 128.66203 -105.18 
L 127.770791 -105.18 
L 126.879551 -105.18 
L 125.988312 -105.18 
L 125.097072 -105.18 
L 124.205832 -105.18 
L 123.314593 -105.18 
L 122.423353 -105.18 
L 121.532114 -105.18 
L 120.640874 -105.18 
L 119.749635 -105.18 
L 118.858395 -105.18 
L 117.967155 -105.18 
L 117.075916 -105.18 
L 116.184676 -105.18 
L 115.293437 -105.18 
L 114.402197 -105.18 
L 113.510958 -105.18 
L 112.619718 -105.18 
L 111.728478 -105.18 
L 110.837239 -105.18 
L 109.945999 -105.18 
L 109.05476 -105.18 
L 108.16352 -105.18 
L 107.272281 -105.18 
L 106.381041 -105.18 
L 105.489802 -105.18 
z
" style="stroke: #ed6b4d; stroke-opacity: 0.1"/>
    </defs>
    <g clip-path="url(#p53e33bd165)">
     <use xlink:href="#meaee819f56" x="0" y="208.8" style="fill: #ed6b4d; fill-opacity: 0.1; stroke: #ed6b4d; stroke-opacity: 0.1"/>
    </g>
   </g>
   <g id="line2d_1">
    <defs>
     <path id="m81388fad60" d="M 0 3 
C 0.795609 3 1.55874 2.683901 2.12132 2.12132 
C 2.683901 1.55874 3 0.795609 3 0 
C 3 -0.795609 2.683901 -1.55874 2.12132 -2.12132 
C 1.55874 -2.683901 0.795609 -3 0 -3 
C -0.795609 -3 -1.55874 -2.683901 -2.12132 -2.12132 
C -2.683901 -1.55874 -3 -0.795609 -3 0 
C -3 0.795609 -2.683901 1.55874 -2.12132 2.12132 
C -1.55874 2.683901 -0.795609 3 0 3 
z
" style="stroke: #0035a0"/>
    </defs>
    <g clip-path="url(#p53e33bd165)">
     <use xlink:href="#m81388fad60" x="64.492782" y="101.993962" style="fill: #0035a0; stroke: #0035a0"/>
     <use xlink:href="#m81388fad60" x="117.788908" y="108.498112" style="fill: #0035a0; stroke: #0035a0"/>
     <use xlink:href="#m81388fad60" x="224.38116" y="166.222444" style="fill: #0035a0; stroke: #0035a0"/>
     <use xlink:href="#m81388fad60" x="277.677286" y="170.287537" style="fill: #0035a0; stroke: #0035a0"/>
     <use xlink:href="#m81388fad60" x="330.973412" y="170.287537" style="fill: #0035a0; stroke: #0035a0"/>
    </g>
   </g>
   <g id="line2d_2">
    <path d="M 51.16875 103.62 
L 344.297443 103.62 
" clip-path="url(#p53e33bd165)" style="fill: none; stroke: #808080; stroke-width: 0.8; stroke-linecap: square"/>
   </g>
   <g id="matplotlib.axis_1">
    <g id="xtick_1">
     <g id="line2d_3">
      <defs>
       <path id="mf992ca4dfb" d="M 0 0 
L 0 3.5 
" style="stroke: #000000; stroke-width: 0.8"/>
      </defs>
      <g>
       <use xlink:href="#mf992ca4dfb" x="64.492782" y="184.921875" style="stroke: #000000; stroke-width: 0.8"/>
      </g>
     </g>
     <g id="text_1">
      <!-- 30 Jun -->
      <g transform="translate(48.728719 199.520312) scale(0.1 -0.1)">
       <defs>
        <path id="DejaVuSans-33" d="M 2597 2516 
Q 3050 2419 3304 2112 
Q 3559 1806 3559 1356 
Q 3559 666 3084 287 
Q 2609 -91 1734 -91 
Q 1441 -91 1130 -33 
Q 819 25 488 141 
L 488 750 
Q 750 597 1062 519 
Q 1375 441 1716 441 
Q 2309 441 2620 675 
Q 2931 909 2931 1356 
Q 2931 1769 2642 2001 
Q 2353 2234 1838 2234 
L 1294 2234 
L 1294 2753 
L 1863 2753 
Q 2328 2753 2575 2939 
Q 2822 3125 2822 3475 
Q 2822 3834 2567 4026 
Q 2313 4219 1838 4219 
Q 1578 4219 1281 4162 
Q 984 4106 628 3988 
L 628 4550 
Q 988 4650 1302 4700 
Q 1616 4750 1894 4750 
Q 2613 4750 3031 4423 
Q 3450 4097 3450 3541 
Q 3450 3153 3228 2886 
Q 3006 2619 2597 2516 
z
" transform="scale(0.015625)"/>
        <path id="DejaVuSans-30" d="M 2034 4250 
Q 1547 4250 1301 3770 
Q 1056 3291 1056 2328 
Q 1056 1369 1301 889 
Q 1547 409 2034 409 
Q 2525 409 2770 889 
Q 3016 1369 3016 2328 
Q 3016 3291 2770 3770 
Q 2525 4250 2034 4250 
z
M 2034 4750 
Q 2819 4750 3233 4129 
Q 3647 3509 3647 2328 
Q 3647 1150 3233 529 
Q 2819 -91 2034 -91 
Q 1250 -91 836 529 
Q 422 1150 422 2328 
Q 422 3509 836 4129 
Q 1250 4750 2034 4750 
z
" transform="scale(0.015625)"/>
        <path id="DejaVuSans-20" transform="scale(0.015625)"/>
        <path id="DejaVuSans-4a" d="M 628 4666 
L 1259 4666 
L 1259 325 
Q 1259 -519 939 -900 
Q 619 -1281 -91 -1281 
L -331 -1281 
L -331 -750 
L -134 -750 
Q 284 -750 456 -515 
Q 628 -281 628 325 
L 628 4666 
z
" transform="scale(0.015625)"/>
        <path id="DejaVuSans-75" d="M 544 1381 
L 544 3500 
L 1119 3500 
L 1119 1403 
Q 1119 906 1312 657 
Q 1506 409 1894 409 
Q 2359 409 2629 706 
Q 2900 1003 2900 1516 
L 2900 3500 
L 3475 3500 
L 3475 0 
L 2900 0 
L 2900 538 
Q 2691 219 2414 64 
Q 2138 -91 1772 -91 
Q 1169 -91 856 284 
Q 544 659 544 1381 
z
M 1991 3584 
L 1991 3584 
z
" transform="scale(0.015625)"/>
        <path id="DejaVuSans-6e" d="M 3513 2113 
L 3513 0 
L 2938 0 
L 2938 2094 
Q 2938 2591 2744 2837 
Q 2550 3084 2163 3084 
Q 1697 3084 1428 2787 
Q 1159 2491 1159 1978 
L 1159 0 
L 581 0 
L 581 3500 
L 1159 3500 
L 1159 2956 
Q 1366 3272 1645 3428 
Q 1925 3584 2291 3584 
Q 2894 3584 3203 3211 
Q 3513 2838 3513 2113 
z
" transform="scale(0.015625)"/>
       </defs>
       <use xlink:href="#DejaVuSans-33"/>
       <use xlink:href="#DejaVuSans-30" x="63.623047"/>
       <use xlink:href="#DejaVuSans-20" x="127.246094"/>
       <use xlink:href="#DejaVuSans-4a" x="159.033203"/>
       <use xlink:href="#DejaVuSans-75" x="188.525391"/>
       <use xlink:href="#DejaVuSans-6e" x="251.904297"/>
      </g>
     </g>
    </g>
    <g id="xtick_2">
     <g id="line2d_4">
      <g>
       <use xlink:href="#mf992ca4dfb" x="117.788908" y="184.921875" style="stroke: #000000; stroke-width: 0.8"/>
      </g>
     </g>
     <g id="text_2">
      <!-- 01 Jul -->
      <g transform="translate(103.804533 199.520312) scale(0.1 -0.1)">
       <defs>
        <path id="DejaVuSans-31" d="M 794 531 
L 1825 531 
L 1825 4091 
L 703 3866 
L 703 4441 
L 1819 4666 
L 2450 4666 
L 2450 531 
L 3481 531 
L 3481 0 
L 794 0 
L 794 531 
z
" transform="scale(0.015625)"/>
        <path id="DejaVuSans-6c" d="M 603 4863 
L 1178 4863 
L 1178 0 
L 603 0 
L 603 4863 
z
" transform="scale(0.015625)"/>
       </defs>
       <use xlink:href="#DejaVuSans-30"/>
       <use xlink:href="#DejaVuSans-31" x="63.623047"/>
       <use xlink:href="#DejaVuSans-20" x="127.246094"/>
       <use xlink:href="#DejaVuSans-4a" x="159.033203"/>
       <use xlink:href="#DejaVuSans-75" x="188.525391"/>
       <use xlink:href="#DejaVuSans-6c" x="251.904297"/>
      </g>
     </g>
    </g>
    <g id="xtick_3">
     <g id="line2d_5">
      <g>
       <use xlink:href="#mf992ca4dfb" x="171.085034" y="184.921875" style="stroke: #000000; stroke-width: 0.8"/>
      </g>
     </g>
     <g id="text_3">
      <!-- 02 Jul -->
      <g transform="translate(157.100659 199.520312) scale(0.1 -0.1)">
       <defs>
        <path id="DejaVuSans-32" d="M 1228 531 
L 3431 531 
L 3431 0 
L 469 0 
L 469 531 
Q 828 903 1448 1529 
Q 2069 2156 2228 2338 
Q 2531 2678 2651 2914 
Q 2772 3150 2772 3378 
Q 2772 3750 2511 3984 
Q 2250 4219 1831 4219 
Q 1534 4219 1204 4116 
Q 875 4013 500 3803 
L 500 4441 
Q 881 4594 1212 4672 
Q 1544 4750 1819 4750 
Q 2544 4750 2975 4387 
Q 3406 4025 3406 3419 
Q 3406 3131 3298 2873 
Q 3191 2616 2906 2266 
Q 2828 2175 2409 1742 
Q 1991 1309 1228 531 
z
" transform="scale(0.015625)"/>
       </defs>
       <use xlink:href="#DejaVuSans-30"/>
       <use xlink:href="#DejaVuSans-32" x="63.623047"/>
       <use xlink:href="#DejaVuSans-20" x="127.246094"/>
       <use xlink:href="#DejaVuSans-4a" x="159.033203"/>
       <use xlink:href="#DejaVuSans-75" x="188.525391"/>
       <use xlink:href="#DejaVuSans-6c" x="251.904297"/>
      </g>
     </g>
    </g>
    <g id="xtick_4">
     <g id="line2d_6">
      <g>
       <use xlink:href="#mf992ca4dfb" x="224.38116" y="184.921875" style="stroke: #000000; stroke-width: 0.8"/>
      </g>
     </g>
     <g id="text_4">
      <!-- 03 Jul -->
      <g transform="translate(210.396785 199.520312) scale(0.1 -0.1)">
       <use xlink:href="#DejaVuSans-30"/>
       <use xlink:href="#DejaVuSans-33" x="63.623047"/>
       <use xlink:href="#DejaVuSans-20" x="127.246094"/>
       <use xlink:href="#DejaVuSans-4a" x="159.033203"/>
       <use xlink:href="#DejaVuSans-75" x="188.525391"/>
       <use xlink:href="#DejaVuSans-6c" x="251.904297"/>
      </g>
     </g>
    </g>
    <g id="xtick_5">
     <g id="line2d_7">
      <g>
       <use xlink:href="#mf992ca4dfb" x="277.677286" y="184.921875" style="stroke: #000000; stroke-width: 0.8"/>
      </g>
     </g>
     <g id="text_5">
      <!-- 04 Jul -->
      <g transform="translate(263.692911 199.520312) scale(0.1 -0.1)">
       <defs>
        <path id="DejaVuSans-34" d="M 2419 4116 
L 825 1625 
L 2419 1625 
L 2419 4116 
z
M 2253 4666 
L 3047 4666 
L 3047 1625 
L 3713 1625 
L 3713 1100 
L 3047 1100 
L 3047 0 
L 2419 0 
L 2419 1100 
L 313 1100 
L 313 1709 
L 2253 4666 
z
" transform="scale(0.015625)"/>
       </defs>
       <use xlink:href="#DejaVuSans-30"/>
       <use xlink:href="#DejaVuSans-34" x="63.623047"/>
       <use xlink:href="#DejaVuSans-20" x="127.246094"/>
       <use xlink:href="#DejaVuSans-4a" x="159.033203"/>
       <use xlink:href="#DejaVuSans-75" x="188.525391"/>
       <use xlink:href="#DejaVuSans-6c" x="251.904297"/>
      </g>
     </g>
    </g>
    <g id="xtick_6">
     <g id="line2d_8">
      <g>
       <use xlink:href="#mf992ca4dfb" x="330.973412" y="184.921875" style="stroke: #000000; stroke-width: 0.8"/>
      </g>
     </g>
     <g id="text_6">
      <!-- 05 Jul -->
      <g transform="translate(316.989037 199.520312) scale(0.1 -0.1)">
       <defs>
        <path id="DejaVuSans-35" d="M 691 4666 
L 3169 4666 
L 3169 4134 
L 1269 4134 
L 1269 2991 
Q 1406 3038 1543 3061 
Q 1681 3084 1819 3084 
Q 2600 3084 3056 2656 
Q 3513 2228 3513 1497 
Q 3513 744 3044 326 
Q 2575 -91 1722 -91 
Q 1428 -91 1123 -41 
Q 819 9 494 109 
L 494 744 
Q 775 591 1075 516 
Q 1375 441 1709 441 
Q 2250 441 2565 725 
Q 2881 1009 2881 1497 
Q 2881 1984 2565 2268 
Q 2250 2553 1709 2553 
Q 1456 2553 1204 2497 
Q 953 2441 691 2322 
L 691 4666 
z
" transform="scale(0.015625)"/>
       </defs>
       <use xlink:href="#DejaVuSans-30"/>
       <use xlink:href="#DejaVuSans-35" x="63.623047"/>
       <use xlink:href="#DejaVuSans-20" x="127.246094"/>
       <use xlink:href="#DejaVuSans-4a" x="159.033203"/>
       <use xlink:href="#DejaVuSans-75" x="188.525391"/>
       <use xlink:href="#DejaVuSans-6c" x="251.904297"/>
      </g>
     </g>
    </g>
   </g>
   <g id="matplotlib.axis_2">
    <g id="ytick_1">
     <g id="text_7">
      <!-- −100% -->
      <g transform="translate(7.2 188.721094) scale(0.1 -0.1)">
       <defs>
        <path id="DejaVuSans-2212" d="M 678 2272 
L 4684 2272 
L 4684 1741 
L 678 1741 
L 678 2272 
z
" transform="scale(0.015625)"/>
        <path id="DejaVuSans-25" d="M 4653 2053 
Q 4381 2053 4226 1822 
Q 4072 1591 4072 1178 
Q 4072 772 4226 539 
Q 4381 306 4653 306 
Q 4919 306 5073 539 
Q 5228 772 5228 1178 
Q 5228 1588 5073 1820 
Q 4919 2053 4653 2053 
z
M 4653 2450 
Q 5147 2450 5437 2106 
Q 5728 1763 5728 1178 
Q 5728 594 5436 251 
Q 5144 -91 4653 -91 
Q 4153 -91 3862 251 
Q 3572 594 3572 1178 
Q 3572 1766 3864 2108 
Q 4156 2450 4653 2450 
z
M 1428 4353 
Q 1159 4353 1004 4120 
Q 850 3888 850 3481 
Q 850 3069 1003 2837 
Q 1156 2606 1428 2606 
Q 1700 2606 1854 2837 
Q 2009 3069 2009 3481 
Q 2009 3884 1853 4118 
Q 1697 4353 1428 4353 
z
M 4250 4750 
L 4750 4750 
L 1831 -91 
L 1331 -91 
L 4250 4750 
z
M 1428 4750 
Q 1922 4750 2215 4408 
Q 2509 4066 2509 3481 
Q 2509 2891 2217 2550 
Q 1925 2209 1428 2209 
Q 931 2209 642 2551 
Q 353 2894 353 3481 
Q 353 4063 643 4406 
Q 934 4750 1428 4750 
z
" transform="scale(0.015625)"/>
       </defs>
       <use xlink:href="#DejaVuSans-2212"/>
       <use xlink:href="#DejaVuSans-31" x="83.789062"/>
       <use xlink:href="#DejaVuSans-30" x="147.412109"/>
       <use xlink:href="#DejaVuSans-30" x="211.035156"/>
       <use xlink:href="#DejaVuSans-25" x="274.658203"/>
      </g>
     </g>
    </g>
    <g id="ytick_2">
     <g id="text_8">
      <!-- −75% -->
      <g transform="translate(13.5625 168.395625) scale(0.1 -0.1)">
       <defs>
        <path id="DejaVuSans-37" d="M 525 4666 
L 3525 4666 
L 3525 4397 
L 1831 0 
L 1172 0 
L 2766 4134 
L 525 4134 
L 525 4666 
z
" transform="scale(0.015625)"/>
       </defs>
       <use xlink:href="#DejaVuSans-2212"/>
       <use xlink:href="#DejaVuSans-37" x="83.789062"/>
       <use xlink:href="#DejaVuSans-35" x="147.412109"/>
       <use xlink:href="#DejaVuSans-25" x="211.035156"/>
      </g>
     </g>
    </g>
    <g id="ytick_3">
     <g id="text_9">
      <!-- −50% -->
      <g transform="translate(13.5625 148.070156) scale(0.1 -0.1)">
       <use xlink:href="#DejaVuSans-2212"/>
       <use xlink:href="#DejaVuSans-35" x="83.789062"/>
       <use xlink:href="#DejaVuSans-30" x="147.412109"/>
       <use xlink:href="#DejaVuSans-25" x="211.035156"/>
      </g>
     </g>
    </g>
    <g id="ytick_4">
     <g id="text_10">
      <!-- −25% -->
      <g transform="translate(13.5625 127.744687) scale(0.1 -0.1)">
       <use xlink:href="#DejaVuSans-2212"/>
       <use xlink:href="#DejaVuSans-32" x="83.789062"/>
       <use xlink:href="#DejaVuSans-35" x="147.412109"/>
       <use xlink:href="#DejaVuSans-25" x="211.035156"/>
      </g>
     </g>
    </g>
    <g id="ytick_5">
     <g id="text_11">
      <!-- 0% -->
      <g transform="translate(28.304688 107.419219) scale(0.1 -0.1)">
       <use xlink:href="#DejaVuSans-30"/>
       <use xlink:href="#DejaVuSans-25" x="63.623047"/>
      </g>
     </g>
    </g>
    <g id="ytick_6">
     <g id="text_12">
      <!-- 25% -->
      <g transform="translate(21.942188 87.09375) scale(0.1 -0.1)">
       <use xlink:href="#DejaVuSans-32"/>
       <use xlink:href="#DejaVuSans-35" x="63.623047"/>
       <use xlink:href="#DejaVuSans-25" x="127.246094"/>
      </g>
     </g>
    </g>
    <g id="ytick_7">
     <g id="text_13">
      <!-- 50% -->
      <g transform="translate(21.942188 66.768281) scale(0.1 -0.1)">
       <use xlink:href="#DejaVuSans-35"/>
       <use xlink:href="#DejaVuSans-30" x="63.623047"/>
       <use xlink:href="#DejaVuSans-25" x="127.246094"/>
      </g>
     </g>
    </g>
    <g id="ytick_8">
     <g id="text_14">
      <!-- 75% -->
      <g transform="translate(21.942188 46.442812) scale(0.1 -0.1)">
       <use xlink:href="#DejaVuSans-37"/>
       <use xlink:href="#DejaVuSans-35" x="63.623047"/>
       <use xlink:href="#DejaVuSans-25" x="127.246094"/>
      </g>
     </g>
    </g>
    <g id="ytick_9">
     <g id="text_15">
      <!-- 100% -->
      <g transform="translate(15.579688 26.117344) scale(0.1 -0.1)">
       <use xlink:href="#DejaVuSans-31"/>
       <use xlink:href="#DejaVuSans-30" x="63.623047"/>
       <use xlink:href="#DejaVuSans-30" x="127.246094"/>
       <use xlink:href="#DejaVuSans-25" x="190.869141"/>
      </g>
     </g>
    </g>
   </g>
   <g id="line2d_9">
    <path d="M 64.492782 101.993962 
L 68.05774 101.100941 
L 71.622698 100.434862 
L 75.187656 99.987262 
L 78.752615 99.749676 
L 82.317573 99.71364 
L 85.882531 99.87069 
L 89.447489 100.212363 
L 93.903687 100.886184 
L 98.359885 101.818721 
L 102.816083 102.993442 
L 107.272281 104.393816 
L 111.728478 106.003312 
L 117.075916 108.187472 
L 122.423353 110.620396 
L 128.66203 113.735107 
L 134.900707 117.10417 
L 142.030624 121.207788 
L 150.943019 126.618015 
L 164.311613 135.045386 
L 179.462685 144.545449 
L 188.375081 149.858477 
L 195.504998 153.851011 
L 201.743675 157.098576 
L 207.091112 159.663428 
L 212.438549 161.99618 
L 217.785987 164.068267 
L 222.242185 165.575277 
L 226.698382 166.865674 
L 231.15458 167.939918 
L 235.610778 168.813864 
L 240.958216 169.621389 
L 246.305653 170.192641 
L 251.65309 170.55607 
L 257.891767 170.755359 
L 265.021684 170.742112 
L 273.04284 170.500531 
L 285.520194 169.866798 
L 300.671266 169.137836 
L 308.692423 168.975395 
L 315.822339 169.06239 
L 322.061016 169.372473 
L 327.408453 169.848015 
L 330.973412 170.287537 
L 330.973412 170.287537 
" clip-path="url(#p53e33bd165)" style="fill: none; stroke: #0035a0; stroke-width: 3; stroke-linecap: round"/>
   </g>
   <g id="text_16">
    <!-- Hillsborough - population change trends -->
    <g transform="translate(77.282159 16.318125) scale(0.12 -0.12)">
     <defs>
      <path id="DejaVuSans-48" d="M 628 4666 
L 1259 4666 
L 1259 2753 
L 3553 2753 
L 3553 4666 
L 4184 4666 
L 4184 0 
L 3553 0 
L 3553 2222 
L 1259 2222 
L 1259 0 
L 628 0 
L 628 4666 
z
" transform="scale(0.015625)"/>
      <path id="DejaVuSans-69" d="M 603 3500 
L 1178 3500 
L 1178 0 
L 603 0 
L 603 3500 
z
M 603 4863 
L 1178 4863 
L 1178 4134 
L 603 4134 
L 603 4863 
z
" transform="scale(0.015625)"/>
      <path id="DejaVuSans-73" d="M 2834 3397 
L 2834 2853 
Q 2591 2978 2328 3040 
Q 2066 3103 1784 3103 
Q 1356 3103 1142 2972 
Q 928 2841 928 2578 
Q 928 2378 1081 2264 
Q 1234 2150 1697 2047 
L 1894 2003 
Q 2506 1872 2764 1633 
Q 3022 1394 3022 966 
Q 3022 478 2636 193 
Q 2250 -91 1575 -91 
Q 1294 -91 989 -36 
Q 684 19 347 128 
L 347 722 
Q 666 556 975 473 
Q 1284 391 1588 391 
Q 1994 391 2212 530 
Q 2431 669 2431 922 
Q 2431 1156 2273 1281 
Q 2116 1406 1581 1522 
L 1381 1569 
Q 847 1681 609 1914 
Q 372 2147 372 2553 
Q 372 3047 722 3315 
Q 1072 3584 1716 3584 
Q 2034 3584 2315 3537 
Q 2597 3491 2834 3397 
z
" transform="scale(0.015625)"/>
      <path id="DejaVuSans-62" d="M 3116 1747 
Q 3116 2381 2855 2742 
Q 2594 3103 2138 3103 
Q 1681 3103 1420 2742 
Q 1159 2381 1159 1747 
Q 1159 1113 1420 752 
Q 1681 391 2138 391 
Q 2594 391 2855 752 
Q 3116 1113 3116 1747 
z
M 1159 2969 
Q 1341 3281 1617 3432 
Q 1894 3584 2278 3584 
Q 2916 3584 3314 3078 
Q 3713 2572 3713 1747 
Q 3713 922 3314 415 
Q 2916 -91 2278 -91 
Q 1894 -91 1617 61 
Q 1341 213 1159 525 
L 1159 0 
L 581 0 
L 581 4863 
L 1159 4863 
L 1159 2969 
z
" transform="scale(0.015625)"/>
      <path id="DejaVuSans-6f" d="M 1959 3097 
Q 1497 3097 1228 2736 
Q 959 2375 959 1747 
Q 959 1119 1226 758 
Q 1494 397 1959 397 
Q 2419 397 2687 759 
Q 2956 1122 2956 1747 
Q 2956 2369 2687 2733 
Q 2419 3097 1959 3097 
z
M 1959 3584 
Q 2709 3584 3137 3096 
Q 3566 2609 3566 1747 
Q 3566 888 3137 398 
Q 2709 -91 1959 -91 
Q 1206 -91 779 398 
Q 353 888 353 1747 
Q 353 2609 779 3096 
Q 1206 3584 1959 3584 
z
" transform="scale(0.015625)"/>
      <path id="DejaVuSans-72" d="M 2631 2963 
Q 2534 3019 2420 3045 
Q 2306 3072 2169 3072 
Q 1681 3072 1420 2755 
Q 1159 2438 1159 1844 
L 1159 0 
L 581 0 
L 581 3500 
L 1159 3500 
L 1159 2956 
Q 1341 3275 1631 3429 
Q 1922 3584 2338 3584 
Q 2397 3584 2469 3576 
Q 2541 3569 2628 3553 
L 2631 2963 
z
" transform="scale(0.015625)"/>
      <path id="DejaVuSans-67" d="M 2906 1791 
Q 2906 2416 2648 2759 
Q 2391 3103 1925 3103 
Q 1463 3103 1205 2759 
Q 947 2416 947 1791 
Q 947 1169 1205 825 
Q 1463 481 1925 481 
Q 2391 481 2648 825 
Q 2906 1169 2906 1791 
z
M 3481 434 
Q 3481 -459 3084 -895 
Q 2688 -1331 1869 -1331 
Q 1566 -1331 1297 -1286 
Q 1028 -1241 775 -1147 
L 775 -588 
Q 1028 -725 1275 -790 
Q 1522 -856 1778 -856 
Q 2344 -856 2625 -561 
Q 2906 -266 2906 331 
L 2906 616 
Q 2728 306 2450 153 
Q 2172 0 1784 0 
Q 1141 0 747 490 
Q 353 981 353 1791 
Q 353 2603 747 3093 
Q 1141 3584 1784 3584 
Q 2172 3584 2450 3431 
Q 2728 3278 2906 2969 
L 2906 3500 
L 3481 3500 
L 3481 434 
z
" transform="scale(0.015625)"/>
      <path id="DejaVuSans-68" d="M 3513 2113 
L 3513 0 
L 2938 0 
L 2938 2094 
Q 2938 2591 2744 2837 
Q 2550 3084 2163 3084 
Q 1697 3084 1428 2787 
Q 1159 2491 1159 1978 
L 1159 0 
L 581 0 
L 581 4863 
L 1159 4863 
L 1159 2956 
Q 1366 3272 1645 3428 
Q 1925 3584 2291 3584 
Q 2894 3584 3203 3211 
Q 3513 2838 3513 2113 
z
" transform="scale(0.015625)"/>
      <path id="DejaVuSans-2d" d="M 313 2009 
L 1997 2009 
L 1997 1497 
L 313 1497 
L 313 2009 
z
" transform="scale(0.015625)"/>
      <path id="DejaVuSans-70" d="M 1159 525 
L 1159 -1331 
L 581 -1331 
L 581 3500 
L 1159 3500 
L 1159 2969 
Q 1341 3281 1617 3432 
Q 1894 3584 2278 3584 
Q 2916 3584 3314 3078 
Q 3713 2572 3713 1747 
Q 3713 922 3314 415 
Q 2916 -91 2278 -91 
Q 1894 -91 1617 61 
Q 1341 213 1159 525 
z
M 3116 1747 
Q 3116 2381 2855 2742 
Q 2594 3103 2138 3103 
Q 1681 3103 1420 2742 
Q 1159 2381 1159 1747 
Q 1159 1113 1420 752 
Q 1681 391 2138 391 
Q 2594 391 2855 752 
Q 3116 1113 3116 1747 
z
" transform="scale(0.015625)"/>
      <path id="DejaVuSans-61" d="M 2194 1759 
Q 1497 1759 1228 1600 
Q 959 1441 959 1056 
Q 959 750 1161 570 
Q 1363 391 1709 391 
Q 2188 391 2477 730 
Q 2766 1069 2766 1631 
L 2766 1759 
L 2194 1759 
z
M 3341 1997 
L 3341 0 
L 2766 0 
L 2766 531 
Q 2569 213 2275 61 
Q 1981 -91 1556 -91 
Q 1019 -91 701 211 
Q 384 513 384 1019 
Q 384 1609 779 1909 
Q 1175 2209 1959 2209 
L 2766 2209 
L 2766 2266 
Q 2766 2663 2505 2880 
Q 2244 3097 1772 3097 
Q 1472 3097 1187 3025 
Q 903 2953 641 2809 
L 641 3341 
Q 956 3463 1253 3523 
Q 1550 3584 1831 3584 
Q 2591 3584 2966 3190 
Q 3341 2797 3341 1997 
z
" transform="scale(0.015625)"/>
      <path id="DejaVuSans-74" d="M 1172 4494 
L 1172 3500 
L 2356 3500 
L 2356 3053 
L 1172 3053 
L 1172 1153 
Q 1172 725 1289 603 
Q 1406 481 1766 481 
L 2356 481 
L 2356 0 
L 1766 0 
Q 1100 0 847 248 
Q 594 497 594 1153 
L 594 3053 
L 172 3053 
L 172 3500 
L 594 3500 
L 594 4494 
L 1172 4494 
z
" transform="scale(0.015625)"/>
      <path id="DejaVuSans-63" d="M 3122 3366 
L 3122 2828 
Q 2878 2963 2633 3030 
Q 2388 3097 2138 3097 
Q 1578 3097 1268 2742 
Q 959 2388 959 1747 
Q 959 1106 1268 751 
Q 1578 397 2138 397 
Q 2388 397 2633 464 
Q 2878 531 3122 666 
L 3122 134 
Q 2881 22 2623 -34 
Q 2366 -91 2075 -91 
Q 1284 -91 818 406 
Q 353 903 353 1747 
Q 353 2603 823 3093 
Q 1294 3584 2113 3584 
Q 2378 3584 2631 3529 
Q 2884 3475 3122 3366 
z
" transform="scale(0.015625)"/>
      <path id="DejaVuSans-65" d="M 3597 1894 
L 3597 1613 
L 953 1613 
Q 991 1019 1311 708 
Q 1631 397 2203 397 
Q 2534 397 2845 478 
Q 3156 559 3463 722 
L 3463 178 
Q 3153 47 2828 -22 
Q 2503 -91 2169 -91 
Q 1331 -91 842 396 
Q 353 884 353 1716 
Q 353 2575 817 3079 
Q 1281 3584 2069 3584 
Q 2775 3584 3186 3129 
Q 3597 2675 3597 1894 
z
M 3022 2063 
Q 3016 2534 2758 2815 
Q 2500 3097 2075 3097 
Q 1594 3097 1305 2825 
Q 1016 2553 972 2059 
L 3022 2063 
z
" transform="scale(0.015625)"/>
      <path id="DejaVuSans-64" d="M 2906 2969 
L 2906 4863 
L 3481 4863 
L 3481 0 
L 2906 0 
L 2906 525 
Q 2725 213 2448 61 
Q 2172 -91 1784 -91 
Q 1150 -91 751 415 
Q 353 922 353 1747 
Q 353 2572 751 3078 
Q 1150 3584 1784 3584 
Q 2172 3584 2448 3432 
Q 2725 3281 2906 2969 
z
M 947 1747 
Q 947 1113 1208 752 
Q 1469 391 1925 391 
Q 2381 391 2643 752 
Q 2906 1113 2906 1747 
Q 2906 2381 2643 2742 
Q 2381 3103 1925 3103 
Q 1469 3103 1208 2742 
Q 947 2381 947 1747 
z
" transform="scale(0.015625)"/>
     </defs>
     <use xlink:href="#DejaVuSans-48"/>
     <use xlink:href="#DejaVuSans-69" x="75.195312"/>
     <use xlink:href="#DejaVuSans-6c" x="102.978516"/>
     <use xlink:href="#DejaVuSans-6c" x="130.761719"/>
     <use xlink:href="#DejaVuSans-73" x="158.544922"/>
     <use xlink:href="#DejaVuSans-62" x="210.644531"/>
     <use xlink:href="#DejaVuSans-6f" x="274.121094"/>
     <use xlink:href="#DejaVuSans-72" x="335.302734"/>
     <use xlink:href="#DejaVuSans-6f" x="374.166016"/>
     <use xlink:href="#DejaVuSans-75" x="435.347656"/>
     <use xlink:href="#DejaVuSans-67" x="498.726562"/>
     <use xlink:href="#DejaVuSans-68" x="562.203125"/>
     <use xlink:href="#DejaVuSans-20" x="625.582031"/>
     <use xlink:href="#DejaVuSans-2d" x="657.369141"/>
     <use xlink:href="#DejaVuSans-20" x="693.453125"/>
     <use xlink:href="#DejaVuSans-70" x="725.240234"/>
     <use xlink:href="#DejaVuSans-6f" x="788.716797"/>
     <use xlink:href="#DejaVuSans-70" x="849.898438"/>
     <use xlink:href="#DejaVuSans-75" x="913.375"/>
     <use xlink:href="#DejaVuSans-6c" x="976.753906"/>
     <use xlink:href="#DejaVuSans-61" x="1004.537109"/>
     <use xlink:href="#DejaVuSans-74" x="1065.816406"/>
     <use xlink:href="#DejaVuSans-69" x="1105.025391"/>
     <use xlink:href="#DejaVuSans-6f" x="1132.808594"/>
     <use xlink:href="#DejaVuSans-6e" x="1193.990234"/>
     <use xlink:href="#DejaVuSans-20" x="1257.369141"/>
     <use xlink:href="#DejaVuSans-63" x="1289.15625"/>
     <use xlink:href="#DejaVuSans-68" x="1344.136719"/>
     <use xlink:href="#DejaVuSans-61" x="1407.515625"/>
     <use xlink:href="#DejaVuSans-6e" x="1468.794922"/>
     <use xlink:href="#DejaVuSans-67" x="1532.173828"/>
     <use xlink:href="#DejaVuSans-65" x="1595.650391"/>
     <use xlink:href="#DejaVuSans-20" x="1657.173828"/>
     <use xlink:href="#DejaVuSans-74" x="1688.960938"/>
     <use xlink:href="#DejaVuSans-72" x="1728.169922"/>
     <use xlink:href="#DejaVuSans-65" x="1767.033203"/>
     <use xlink:href="#DejaVuSans-6e" x="1828.556641"/>
     <use xlink:href="#DejaVuSans-64" x="1891.935547"/>
     <use xlink:href="#DejaVuSans-73" x="1955.412109"/>
    </g>
   </g>
  </g>
 </g>
 <defs>
  <clipPath id="p53e33bd165">
   <rect x="51.16875" y="22.318125" width="293.128693" height="162.60375"/>
  </clipPath>
 </defs>
</svg>
