<?xml version="1.0" encoding="utf-8" standalone="no"?>
<!DOCTYPE svg PUBLIC "-//W3C//DTD SVG 1.1//EN"
  "http://www.w3.org/Graphics/SVG/1.1/DTD/svg11.dtd">
<svg xmlns:xlink="http://www.w3.org/1999/xlink" width="352.564631pt" height="208.8pt" viewBox="0 0 352.564631 208.8" xmlns="http://www.w3.org/2000/svg" version="1.1">
 <metadata>
  <rdf:RDF xmlns:dc="http://purl.org/dc/elements/1.1/" xmlns:cc="http://creativecommons.org/ns#" xmlns:rdf="http://www.w3.org/1999/02/22-rdf-syntax-ns#">
   <cc:Work>
    <dc:type rdf:resource="http://purl.org/dc/dcmitype/StillImage"/>
    <dc:date>2024-07-11T13:42:56.352719</dc:date>
    <dc:format>image/svg+xml</dc:format>
    <dc:creator>
     <cc:Agent>
      <dc:title>Matplotlib v3.9.0, https://matplotlib.org/</dc:title>
     </cc:Agent>
    </dc:creator>
   </cc:Work>
  </rdf:RDF>
 </metadata>
 <defs>
  <style type="text/css">*{stroke-linejoin: round; stroke-linecap: butt}</style>
 </defs>
 <g id="figure_1">
  <g id="patch_1">
   <path d="M 0 208.8 
L 352.564631 208.8 
L 352.564631 0 
L 0 0 
L 0 208.8 
z
" style="fill: none"/>
  </g>
  <g id="axes_1">
   <g id="patch_2">
    <path d="M 44.80625 184.921875 
L 345.364631 184.921875 
L 345.364631 22.318125 
L 44.80625 22.318125 
L 44.80625 184.921875 
z
" style="fill: none; opacity: 0"/>
   </g>
   <g id="PolyCollection_1"/>
   <g id="PolyCollection_2">
    <defs>
     <path id="m693130dc9f" d="M 58.467995 -76.724344 
L 58.467995 -76.724344 
L 59.381824 -76.922655 
L 60.295653 -77.118784 
L 61.209482 -77.31273 
L 62.123311 -77.504494 
L 63.03714 -77.694075 
L 63.950969 -77.881473 
L 64.864798 -78.066689 
L 65.778627 -78.249722 
L 66.692456 -78.430573 
L 67.606285 -78.609241 
L 68.520114 -78.785726 
L 69.433943 -78.960029 
L 70.347772 -79.13215 
L 71.261602 -79.302088 
L 72.175431 -79.469843 
L 73.08926 -79.635415 
L 74.003089 -79.798806 
L 74.916918 -79.960013 
L 75.830747 -80.119038 
L 76.744576 -80.27588 
L 77.658405 -80.43054 
L 78.572234 -80.583017 
L 79.486063 -80.733312 
L 80.399892 -80.881424 
L 81.313721 -81.027353 
L 82.22755 -81.1711 
L 83.141379 -81.312665 
L 84.055208 -81.452046 
L 84.969038 -81.589246 
L 85.882867 -81.724262 
L 86.796696 -81.857096 
L 87.710525 -81.987748 
L 88.624354 -82.116217 
L 89.538183 -82.242503 
L 90.452012 -82.366607 
L 91.365841 -82.488528 
L 92.27967 -82.608266 
L 93.193499 -82.725822 
L 94.107328 -82.841196 
L 95.021157 -82.954386 
L 95.934986 -83.065395 
L 96.848815 -83.17422 
L 97.762645 -83.280863 
L 98.676474 -83.385324 
L 99.590303 -83.487602 
L 100.504132 -83.587697 
L 101.417961 -83.68561 
L 102.33179 -83.78134 
L 103.245619 -83.874888 
L 104.159448 -83.966253 
L 105.073277 -84.055436 
L 105.987106 -84.142435 
L 106.900935 -84.227253 
L 107.814764 -84.309888 
L 108.728593 -84.39034 
L 109.642422 -84.468609 
L 110.556251 -84.544696 
L 111.470081 -84.618601 
L 112.38391 -84.690323 
L 113.297739 -84.759862 
L 114.211568 -84.827219 
L 115.125397 -84.892393 
L 116.039226 -84.955384 
L 116.953055 -85.016193 
L 117.866884 -85.07482 
L 118.780713 -85.131264 
L 119.694542 -85.185525 
L 120.608371 -85.237604 
L 121.5222 -85.2875 
L 122.436029 -85.335213 
L 123.349858 -85.380744 
L 124.263688 -85.424093 
L 125.177517 -85.465259 
L 126.091346 -85.504242 
L 127.005175 -85.541042 
L 127.919004 -85.575661 
L 128.832833 -85.608096 
L 129.746662 -85.638349 
L 130.660491 -85.666419 
L 131.57432 -85.692307 
L 132.488149 -85.716012 
L 133.401978 -85.737535 
L 134.315807 -85.756875 
L 135.229636 -85.774032 
L 136.143465 -85.789007 
L 137.057294 -85.8018 
L 137.971124 -85.812409 
L 138.884953 -85.820837 
L 139.798782 -85.827081 
L 140.712611 -85.831143 
L 141.62644 -85.833023 
L 142.540269 -85.832719 
L 143.454098 -85.830234 
L 144.367927 -85.825565 
L 145.281756 -85.818715 
L 146.195585 -85.809681 
L 147.109414 -85.798465 
L 148.023243 -85.785067 
L 148.937072 -85.769485 
L 149.850901 -85.751722 
L 150.764731 -85.731775 
L 151.67856 -85.709646 
L 152.592389 -85.685335 
L 153.506218 -85.658841 
L 154.420047 -85.630164 
L 155.333876 -85.599305 
L 156.247705 -85.566263 
L 157.161534 -85.531039 
L 158.075363 -85.493632 
L 158.989192 -85.454043 
L 159.903021 -85.41227 
L 160.81685 -85.368316 
L 161.730679 -85.322179 
L 162.644508 -85.273859 
L 163.558337 -85.223356 
L 164.472167 -85.170671 
L 165.385996 -85.115804 
L 166.299825 -85.058754 
L 167.213654 -84.999521 
L 168.127483 -84.938106 
L 169.041312 -84.874508 
L 169.955141 -84.808727 
L 170.86897 -84.740764 
L 171.782799 -84.670619 
L 172.696628 -84.598291 
L 173.610457 -84.52378 
L 174.524286 -84.447087 
L 175.438115 -84.368211 
L 176.351944 -84.287152 
L 177.265774 -84.203911 
L 178.179603 -84.118488 
L 179.093432 -84.030882 
L 180.007261 -83.941093 
L 180.92109 -83.849121 
L 181.834919 -83.754968 
L 182.748748 -83.658631 
L 183.662577 -83.560112 
L 184.576406 -83.45941 
L 185.490235 -83.356526 
L 186.404064 -83.251459 
L 187.317893 -83.14421 
L 188.231722 -83.034778 
L 189.145551 -82.923163 
L 190.05938 -82.809366 
L 190.97321 -82.693387 
L 191.887039 -82.575224 
L 192.800868 -82.45488 
L 193.714697 -82.332352 
L 194.628526 -82.207642 
L 195.542355 -82.08075 
L 196.456184 -81.951675 
L 197.370013 -81.820417 
L 198.283842 -81.686977 
L 199.197671 -81.551354 
L 200.1115 -81.413548 
L 201.025329 -81.27356 
L 201.939158 -81.13139 
L 202.852987 -80.987036 
L 203.766816 -80.840501 
L 204.680646 -80.691782 
L 205.594475 -80.540881 
L 206.508304 -80.387798 
L 207.422133 -80.232532 
L 208.335962 -80.075083 
L 209.249791 -79.915452 
L 210.16362 -79.753638 
L 211.077449 -79.589642 
L 211.991278 -79.423463 
L 212.905107 -79.255102 
L 213.818936 -79.084557 
L 214.732765 -78.911831 
L 215.646594 -78.736922 
L 216.560423 -78.55983 
L 217.474253 -78.380555 
L 218.388082 -78.199098 
L 219.301911 -78.015459 
L 220.21574 -77.829637 
L 221.129569 -77.641632 
L 222.043398 -77.451445 
L 222.957227 -77.259075 
L 223.871056 -77.064523 
L 224.784885 -76.867788 
L 225.698714 -76.66887 
L 226.612543 -76.46777 
L 227.526372 -76.264487 
L 228.440201 -76.059022 
L 229.35403 -75.851374 
L 230.267859 -75.641543 
L 231.181689 -75.42953 
L 232.095518 -75.215335 
L 233.009347 -74.998957 
L 233.923176 -74.780396 
L 234.837005 -74.559652 
L 235.750834 -74.336727 
L 236.664663 -74.111618 
L 237.578492 -73.884327 
L 238.492321 -73.654853 
L 239.40615 -73.423197 
L 240.319979 -73.189358 
L 241.233808 -72.953337 
L 242.147637 -72.715133 
L 243.061466 -72.474747 
L 243.975296 -72.232177 
L 244.889125 -71.987426 
L 245.802954 -71.740491 
L 246.716783 -71.491375 
L 247.630612 -71.240075 
L 248.544441 -70.986593 
L 249.45827 -70.730929 
L 250.372099 -70.473082 
L 251.285928 -70.213052 
L 252.199757 -69.95084 
L 253.113586 -69.686445 
L 254.027415 -69.419867 
L 254.941244 -69.151107 
L 255.855073 -68.880165 
L 256.768902 -68.60704 
L 257.682732 -68.331732 
L 258.596561 -68.054241 
L 259.51039 -67.774569 
L 260.424219 -67.492713 
L 261.338048 -67.208675 
L 262.251877 -66.922454 
L 263.165706 -66.634051 
L 264.079535 -66.343465 
L 264.993364 -66.050697 
L 265.907193 -65.755746 
L 266.821022 -65.458613 
L 267.734851 -65.159297 
L 268.64868 -64.857798 
L 269.562509 -64.554117 
L 270.476339 -64.248253 
L 271.390168 -63.940206 
L 272.303997 -63.629977 
L 273.217826 -63.317566 
L 274.131655 -63.002972 
L 275.045484 -62.686195 
L 275.959313 -62.367236 
L 276.873142 -62.046094 
L 277.786971 -61.72277 
L 278.7008 -61.397263 
L 279.614629 -61.069573 
L 280.528458 -60.739701 
L 281.442287 -60.407646 
L 282.356116 -60.073409 
L 283.269945 -59.736989 
L 284.183775 -59.398387 
L 285.097604 -59.057601 
L 286.011433 -58.714634 
L 286.925262 -58.369484 
L 287.839091 -58.022151 
L 288.75292 -57.672636 
L 289.666749 -57.320938 
L 290.580578 -56.967057 
L 291.494407 -56.610994 
L 292.408236 -56.252748 
L 293.322065 -55.89232 
L 294.235894 -55.529709 
L 295.149723 -55.164916 
L 296.063552 -54.79794 
L 296.977381 -54.428782 
L 297.891211 -54.057441 
L 298.80504 -53.683917 
L 299.718869 -53.308211 
L 300.632698 -52.930322 
L 301.546527 -52.55025 
L 302.460356 -52.167996 
L 303.374185 -51.78356 
L 304.288014 -51.396941 
L 305.201843 -51.008139 
L 306.115672 -50.617155 
L 307.029501 -50.223988 
L 307.94333 -49.828638 
L 308.857159 -49.431106 
L 309.770988 -49.031392 
L 310.684818 -48.629495 
L 311.598647 -48.225415 
L 312.512476 -47.819153 
L 313.426305 -47.410708 
L 314.340134 -47.00008 
L 315.253963 -46.58727 
L 316.167792 -46.172278 
L 317.081621 -45.755102 
L 317.99545 -45.335745 
L 318.909279 -44.914204 
L 319.823108 -44.490481 
L 320.736937 -44.064576 
L 321.650766 -43.636488 
L 322.564595 -43.206217 
L 323.478424 -42.773764 
L 324.392254 -42.339128 
L 325.306083 -41.90231 
L 326.219912 -41.463309 
L 327.133741 -41.022125 
L 328.04757 -40.578759 
L 328.961399 -40.13321 
L 329.875228 -39.685479 
L 330.789057 -39.235565 
L 331.702886 -38.783469 
L 331.702886 -38.783469 
L 331.702886 -105.18 
L 330.789057 -105.18 
L 329.875228 -105.18 
L 328.961399 -105.18 
L 328.04757 -105.18 
L 327.133741 -105.18 
L 326.219912 -105.18 
L 325.306083 -105.18 
L 324.392254 -105.18 
L 323.478424 -105.18 
L 322.564595 -105.18 
L 321.650766 -105.18 
L 320.736937 -105.18 
L 319.823108 -105.18 
L 318.909279 -105.18 
L 317.99545 -105.18 
L 317.081621 -105.18 
L 316.167792 -105.18 
L 315.253963 -105.18 
L 314.340134 -105.18 
L 313.426305 -105.18 
L 312.512476 -105.18 
L 311.598647 -105.18 
L 310.684818 -105.18 
L 309.770988 -105.18 
L 308.857159 -105.18 
L 307.94333 -105.18 
L 307.029501 -105.18 
L 306.115672 -105.18 
L 305.201843 -105.18 
L 304.288014 -105.18 
L 303.374185 -105.18 
L 302.460356 -105.18 
L 301.546527 -105.18 
L 300.632698 -105.18 
L 299.718869 -105.18 
L 298.80504 -105.18 
L 297.891211 -105.18 
L 296.977381 -105.18 
L 296.063552 -105.18 
L 295.149723 -105.18 
L 294.235894 -105.18 
L 293.322065 -105.18 
L 292.408236 -105.18 
L 291.494407 -105.18 
L 290.580578 -105.18 
L 289.666749 -105.18 
L 288.75292 -105.18 
L 287.839091 -105.18 
L 286.925262 -105.18 
L 286.011433 -105.18 
L 285.097604 -105.18 
L 284.183775 -105.18 
L 283.269945 -105.18 
L 282.356116 -105.18 
L 281.442287 -105.18 
L 280.528458 -105.18 
L 279.614629 -105.18 
L 278.7008 -105.18 
L 277.786971 -105.18 
L 276.873142 -105.18 
L 275.959313 -105.18 
L 275.045484 -105.18 
L 274.131655 -105.18 
L 273.217826 -105.18 
L 272.303997 -105.18 
L 271.390168 -105.18 
L 270.476339 -105.18 
L 269.562509 -105.18 
L 268.64868 -105.18 
L 267.734851 -105.18 
L 266.821022 -105.18 
L 265.907193 -105.18 
L 264.993364 -105.18 
L 264.079535 -105.18 
L 263.165706 -105.18 
L 262.251877 -105.18 
L 261.338048 -105.18 
L 260.424219 -105.18 
L 259.51039 -105.18 
L 258.596561 -105.18 
L 257.682732 -105.18 
L 256.768902 -105.18 
L 255.855073 -105.18 
L 254.941244 -105.18 
L 254.027415 -105.18 
L 253.113586 -105.18 
L 252.199757 -105.18 
L 251.285928 -105.18 
L 250.372099 -105.18 
L 249.45827 -105.18 
L 248.544441 -105.18 
L 247.630612 -105.18 
L 246.716783 -105.18 
L 245.802954 -105.18 
L 244.889125 -105.18 
L 243.975296 -105.18 
L 243.061466 -105.18 
L 242.147637 -105.18 
L 241.233808 -105.18 
L 240.319979 -105.18 
L 239.40615 -105.18 
L 238.492321 -105.18 
L 237.578492 -105.18 
L 236.664663 -105.18 
L 235.750834 -105.18 
L 234.837005 -105.18 
L 233.923176 -105.18 
L 233.009347 -105.18 
L 232.095518 -105.18 
L 231.181689 -105.18 
L 230.267859 -105.18 
L 229.35403 -105.18 
L 228.440201 -105.18 
L 227.526372 -105.18 
L 226.612543 -105.18 
L 225.698714 -105.18 
L 224.784885 -105.18 
L 223.871056 -105.18 
L 222.957227 -105.18 
L 222.043398 -105.18 
L 221.129569 -105.18 
L 220.21574 -105.18 
L 219.301911 -105.18 
L 218.388082 -105.18 
L 217.474253 -105.18 
L 216.560423 -105.18 
L 215.646594 -105.18 
L 214.732765 -105.18 
L 213.818936 -105.18 
L 212.905107 -105.18 
L 211.991278 -105.18 
L 211.077449 -105.18 
L 210.16362 -105.18 
L 209.249791 -105.18 
L 208.335962 -105.18 
L 207.422133 -105.18 
L 206.508304 -105.18 
L 205.594475 -105.18 
L 204.680646 -105.18 
L 203.766816 -105.18 
L 202.852987 -105.18 
L 201.939158 -105.18 
L 201.025329 -105.18 
L 200.1115 -105.18 
L 199.197671 -105.18 
L 198.283842 -105.18 
L 197.370013 -105.18 
L 196.456184 -105.18 
L 195.542355 -105.18 
L 194.628526 -105.18 
L 193.714697 -105.18 
L 192.800868 -105.18 
L 191.887039 -105.18 
L 190.97321 -105.18 
L 190.05938 -105.18 
L 189.145551 -105.18 
L 188.231722 -105.18 
L 187.317893 -105.18 
L 186.404064 -105.18 
L 185.490235 -105.18 
L 184.576406 -105.18 
L 183.662577 -105.18 
L 182.748748 -105.18 
L 181.834919 -105.18 
L 180.92109 -105.18 
L 180.007261 -105.18 
L 179.093432 -105.18 
L 178.179603 -105.18 
L 177.265774 -105.18 
L 176.351944 -105.18 
L 175.438115 -105.18 
L 174.524286 -105.18 
L 173.610457 -105.18 
L 172.696628 -105.18 
L 171.782799 -105.18 
L 170.86897 -105.18 
L 169.955141 -105.18 
L 169.041312 -105.18 
L 168.127483 -105.18 
L 167.213654 -105.18 
L 166.299825 -105.18 
L 165.385996 -105.18 
L 164.472167 -105.18 
L 163.558337 -105.18 
L 162.644508 -105.18 
L 161.730679 -105.18 
L 160.81685 -105.18 
L 159.903021 -105.18 
L 158.989192 -105.18 
L 158.075363 -105.18 
L 157.161534 -105.18 
L 156.247705 -105.18 
L 155.333876 -105.18 
L 154.420047 -105.18 
L 153.506218 -105.18 
L 152.592389 -105.18 
L 151.67856 -105.18 
L 150.764731 -105.18 
L 149.850901 -105.18 
L 148.937072 -105.18 
L 148.023243 -105.18 
L 147.109414 -105.18 
L 146.195585 -105.18 
L 145.281756 -105.18 
L 144.367927 -105.18 
L 143.454098 -105.18 
L 142.540269 -105.18 
L 141.62644 -105.18 
L 140.712611 -105.18 
L 139.798782 -105.18 
L 138.884953 -105.18 
L 137.971124 -105.18 
L 137.057294 -105.18 
L 136.143465 -105.18 
L 135.229636 -105.18 
L 134.315807 -105.18 
L 133.401978 -105.18 
L 132.488149 -105.18 
L 131.57432 -105.18 
L 130.660491 -105.18 
L 129.746662 -105.18 
L 128.832833 -105.18 
L 127.919004 -105.18 
L 127.005175 -105.18 
L 126.091346 -105.18 
L 125.177517 -105.18 
L 124.263688 -105.18 
L 123.349858 -105.18 
L 122.436029 -105.18 
L 121.5222 -105.18 
L 120.608371 -105.18 
L 119.694542 -105.18 
L 118.780713 -105.18 
L 117.866884 -105.18 
L 116.953055 -105.18 
L 116.039226 -105.18 
L 115.125397 -105.18 
L 114.211568 -105.18 
L 113.297739 -105.18 
L 112.38391 -105.18 
L 111.470081 -105.18 
L 110.556251 -105.18 
L 109.642422 -105.18 
L 108.728593 -105.18 
L 107.814764 -105.18 
L 106.900935 -105.18 
L 105.987106 -105.18 
L 105.073277 -105.18 
L 104.159448 -105.18 
L 103.245619 -105.18 
L 102.33179 -105.18 
L 101.417961 -105.18 
L 100.504132 -105.18 
L 99.590303 -105.18 
L 98.676474 -105.18 
L 97.762645 -105.18 
L 96.848815 -105.18 
L 95.934986 -105.18 
L 95.021157 -105.18 
L 94.107328 -105.18 
L 93.193499 -105.18 
L 92.27967 -105.18 
L 91.365841 -105.18 
L 90.452012 -105.18 
L 89.538183 -105.18 
L 88.624354 -105.18 
L 87.710525 -105.18 
L 86.796696 -105.18 
L 85.882867 -105.18 
L 84.969038 -105.18 
L 84.055208 -105.18 
L 83.141379 -105.18 
L 82.22755 -105.18 
L 81.313721 -105.18 
L 80.399892 -105.18 
L 79.486063 -105.18 
L 78.572234 -105.18 
L 77.658405 -105.18 
L 76.744576 -105.18 
L 75.830747 -105.18 
L 74.916918 -105.18 
L 74.003089 -105.18 
L 73.08926 -105.18 
L 72.175431 -105.18 
L 71.261602 -105.18 
L 70.347772 -105.18 
L 69.433943 -105.18 
L 68.520114 -105.18 
L 67.606285 -105.18 
L 66.692456 -105.18 
L 65.778627 -105.18 
L 64.864798 -105.18 
L 63.950969 -105.18 
L 63.03714 -105.18 
L 62.123311 -105.18 
L 61.209482 -105.18 
L 60.295653 -105.18 
L 59.381824 -105.18 
L 58.467995 -105.18 
z
" style="stroke: #ed6b4d; stroke-opacity: 0.1"/>
    </defs>
    <g clip-path="url(#pc3a1df601e)">
     <use xlink:href="#m693130dc9f" x="0" y="208.8" style="fill: #ed6b4d; fill-opacity: 0.1; stroke: #ed6b4d; stroke-opacity: 0.1"/>
    </g>
   </g>
   <g id="line2d_1">
    <defs>
     <path id="m3fecf32c59" d="M 0 3 
C 0.795609 3 1.55874 2.683901 2.12132 2.12132 
C 2.683901 1.55874 3 0.795609 3 0 
C 3 -0.795609 2.683901 -1.55874 2.12132 -2.12132 
C 1.55874 -2.683901 0.795609 -3 0 -3 
C -0.795609 -3 -1.55874 -2.683901 -2.12132 -2.12132 
C -2.683901 -1.55874 -3 -0.795609 -3 0 
C -3 0.795609 -2.683901 1.55874 -2.12132 2.12132 
C -1.55874 2.683901 -0.795609 3 0 3 
z
" style="stroke: #0035a0"/>
    </defs>
    <g clip-path="url(#pc3a1df601e)">
     <use xlink:href="#m3fecf32c59" x="58.467995" y="132.075656" style="fill: #0035a0; stroke: #0035a0"/>
     <use xlink:href="#m3fecf32c59" x="88.827427" y="126.655531" style="fill: #0035a0; stroke: #0035a0"/>
     <use xlink:href="#m3fecf32c59" x="331.702886" y="170.016531" style="fill: #0035a0; stroke: #0035a0"/>
    </g>
   </g>
   <g id="line2d_2">
    <path d="M 44.80625 103.62 
L 345.364631 103.62 
" clip-path="url(#pc3a1df601e)" style="fill: none; stroke: #808080; stroke-width: 0.8; stroke-linecap: square"/>
   </g>
   <g id="matplotlib.axis_1">
    <g id="xtick_1">
     <g id="line2d_3">
      <defs>
       <path id="mc5d0fde4ab" d="M 0 0 
L 0 3.5 
" style="stroke: #000000; stroke-width: 0.8"/>
      </defs>
      <g>
       <use xlink:href="#mc5d0fde4ab" x="58.467995" y="184.921875" style="stroke: #000000; stroke-width: 0.8"/>
      </g>
     </g>
     <g id="text_1">
      <!-- 30 Jun -->
      <g transform="translate(42.703932 199.520312) scale(0.1 -0.1)">
       <defs>
        <path id="DejaVuSans-33" d="M 2597 2516 
Q 3050 2419 3304 2112 
Q 3559 1806 3559 1356 
Q 3559 666 3084 287 
Q 2609 -91 1734 -91 
Q 1441 -91 1130 -33 
Q 819 25 488 141 
L 488 750 
Q 750 597 1062 519 
Q 1375 441 1716 441 
Q 2309 441 2620 675 
Q 2931 909 2931 1356 
Q 2931 1769 2642 2001 
Q 2353 2234 1838 2234 
L 1294 2234 
L 1294 2753 
L 1863 2753 
Q 2328 2753 2575 2939 
Q 2822 3125 2822 3475 
Q 2822 3834 2567 4026 
Q 2313 4219 1838 4219 
Q 1578 4219 1281 4162 
Q 984 4106 628 3988 
L 628 4550 
Q 988 4650 1302 4700 
Q 1616 4750 1894 4750 
Q 2613 4750 3031 4423 
Q 3450 4097 3450 3541 
Q 3450 3153 3228 2886 
Q 3006 2619 2597 2516 
z
" transform="scale(0.015625)"/>
        <path id="DejaVuSans-30" d="M 2034 4250 
Q 1547 4250 1301 3770 
Q 1056 3291 1056 2328 
Q 1056 1369 1301 889 
Q 1547 409 2034 409 
Q 2525 409 2770 889 
Q 3016 1369 3016 2328 
Q 3016 3291 2770 3770 
Q 2525 4250 2034 4250 
z
M 2034 4750 
Q 2819 4750 3233 4129 
Q 3647 3509 3647 2328 
Q 3647 1150 3233 529 
Q 2819 -91 2034 -91 
Q 1250 -91 836 529 
Q 422 1150 422 2328 
Q 422 3509 836 4129 
Q 1250 4750 2034 4750 
z
" transform="scale(0.015625)"/>
        <path id="DejaVuSans-20" transform="scale(0.015625)"/>
        <path id="DejaVuSans-4a" d="M 628 4666 
L 1259 4666 
L 1259 325 
Q 1259 -519 939 -900 
Q 619 -1281 -91 -1281 
L -331 -1281 
L -331 -750 
L -134 -750 
Q 284 -750 456 -515 
Q 628 -281 628 325 
L 628 4666 
z
" transform="scale(0.015625)"/>
        <path id="DejaVuSans-75" d="M 544 1381 
L 544 3500 
L 1119 3500 
L 1119 1403 
Q 1119 906 1312 657 
Q 1506 409 1894 409 
Q 2359 409 2629 706 
Q 2900 1003 2900 1516 
L 2900 3500 
L 3475 3500 
L 3475 0 
L 2900 0 
L 2900 538 
Q 2691 219 2414 64 
Q 2138 -91 1772 -91 
Q 1169 -91 856 284 
Q 544 659 544 1381 
z
M 1991 3584 
L 1991 3584 
z
" transform="scale(0.015625)"/>
        <path id="DejaVuSans-6e" d="M 3513 2113 
L 3513 0 
L 2938 0 
L 2938 2094 
Q 2938 2591 2744 2837 
Q 2550 3084 2163 3084 
Q 1697 3084 1428 2787 
Q 1159 2491 1159 1978 
L 1159 0 
L 581 0 
L 581 3500 
L 1159 3500 
L 1159 2956 
Q 1366 3272 1645 3428 
Q 1925 3584 2291 3584 
Q 2894 3584 3203 3211 
Q 3513 2838 3513 2113 
z
" transform="scale(0.015625)"/>
       </defs>
       <use xlink:href="#DejaVuSans-33"/>
       <use xlink:href="#DejaVuSans-30" x="63.623047"/>
       <use xlink:href="#DejaVuSans-20" x="127.246094"/>
       <use xlink:href="#DejaVuSans-4a" x="159.033203"/>
       <use xlink:href="#DejaVuSans-75" x="188.525391"/>
       <use xlink:href="#DejaVuSans-6e" x="251.904297"/>
      </g>
     </g>
    </g>
    <g id="xtick_2">
     <g id="line2d_4">
      <g>
       <use xlink:href="#mc5d0fde4ab" x="119.186859" y="184.921875" style="stroke: #000000; stroke-width: 0.8"/>
      </g>
     </g>
     <g id="text_2">
      <!-- 02 Jul -->
      <g transform="translate(105.202484 199.520312) scale(0.1 -0.1)">
       <defs>
        <path id="DejaVuSans-32" d="M 1228 531 
L 3431 531 
L 3431 0 
L 469 0 
L 469 531 
Q 828 903 1448 1529 
Q 2069 2156 2228 2338 
Q 2531 2678 2651 2914 
Q 2772 3150 2772 3378 
Q 2772 3750 2511 3984 
Q 2250 4219 1831 4219 
Q 1534 4219 1204 4116 
Q 875 4013 500 3803 
L 500 4441 
Q 881 4594 1212 4672 
Q 1544 4750 1819 4750 
Q 2544 4750 2975 4387 
Q 3406 4025 3406 3419 
Q 3406 3131 3298 2873 
Q 3191 2616 2906 2266 
Q 2828 2175 2409 1742 
Q 1991 1309 1228 531 
z
" transform="scale(0.015625)"/>
        <path id="DejaVuSans-6c" d="M 603 4863 
L 1178 4863 
L 1178 0 
L 603 0 
L 603 4863 
z
" transform="scale(0.015625)"/>
       </defs>
       <use xlink:href="#DejaVuSans-30"/>
       <use xlink:href="#DejaVuSans-32" x="63.623047"/>
       <use xlink:href="#DejaVuSans-20" x="127.246094"/>
       <use xlink:href="#DejaVuSans-4a" x="159.033203"/>
       <use xlink:href="#DejaVuSans-75" x="188.525391"/>
       <use xlink:href="#DejaVuSans-6c" x="251.904297"/>
      </g>
     </g>
    </g>
    <g id="xtick_3">
     <g id="line2d_5">
      <g>
       <use xlink:href="#mc5d0fde4ab" x="179.905724" y="184.921875" style="stroke: #000000; stroke-width: 0.8"/>
      </g>
     </g>
     <g id="text_3">
      <!-- 04 Jul -->
      <g transform="translate(165.921349 199.520312) scale(0.1 -0.1)">
       <defs>
        <path id="DejaVuSans-34" d="M 2419 4116 
L 825 1625 
L 2419 1625 
L 2419 4116 
z
M 2253 4666 
L 3047 4666 
L 3047 1625 
L 3713 1625 
L 3713 1100 
L 3047 1100 
L 3047 0 
L 2419 0 
L 2419 1100 
L 313 1100 
L 313 1709 
L 2253 4666 
z
" transform="scale(0.015625)"/>
       </defs>
       <use xlink:href="#DejaVuSans-30"/>
       <use xlink:href="#DejaVuSans-34" x="63.623047"/>
       <use xlink:href="#DejaVuSans-20" x="127.246094"/>
       <use xlink:href="#DejaVuSans-4a" x="159.033203"/>
       <use xlink:href="#DejaVuSans-75" x="188.525391"/>
       <use xlink:href="#DejaVuSans-6c" x="251.904297"/>
      </g>
     </g>
    </g>
    <g id="xtick_4">
     <g id="line2d_6">
      <g>
       <use xlink:href="#mc5d0fde4ab" x="240.624589" y="184.921875" style="stroke: #000000; stroke-width: 0.8"/>
      </g>
     </g>
     <g id="text_4">
      <!-- 06 Jul -->
      <g transform="translate(226.640214 199.520312) scale(0.1 -0.1)">
       <defs>
        <path id="DejaVuSans-36" d="M 2113 2584 
Q 1688 2584 1439 2293 
Q 1191 2003 1191 1497 
Q 1191 994 1439 701 
Q 1688 409 2113 409 
Q 2538 409 2786 701 
Q 3034 994 3034 1497 
Q 3034 2003 2786 2293 
Q 2538 2584 2113 2584 
z
M 3366 4563 
L 3366 3988 
Q 3128 4100 2886 4159 
Q 2644 4219 2406 4219 
Q 1781 4219 1451 3797 
Q 1122 3375 1075 2522 
Q 1259 2794 1537 2939 
Q 1816 3084 2150 3084 
Q 2853 3084 3261 2657 
Q 3669 2231 3669 1497 
Q 3669 778 3244 343 
Q 2819 -91 2113 -91 
Q 1303 -91 875 529 
Q 447 1150 447 2328 
Q 447 3434 972 4092 
Q 1497 4750 2381 4750 
Q 2619 4750 2861 4703 
Q 3103 4656 3366 4563 
z
" transform="scale(0.015625)"/>
       </defs>
       <use xlink:href="#DejaVuSans-30"/>
       <use xlink:href="#DejaVuSans-36" x="63.623047"/>
       <use xlink:href="#DejaVuSans-20" x="127.246094"/>
       <use xlink:href="#DejaVuSans-4a" x="159.033203"/>
       <use xlink:href="#DejaVuSans-75" x="188.525391"/>
       <use xlink:href="#DejaVuSans-6c" x="251.904297"/>
      </g>
     </g>
    </g>
    <g id="xtick_5">
     <g id="line2d_7">
      <g>
       <use xlink:href="#mc5d0fde4ab" x="301.343454" y="184.921875" style="stroke: #000000; stroke-width: 0.8"/>
      </g>
     </g>
     <g id="text_5">
      <!-- 08 Jul -->
      <g transform="translate(287.359079 199.520312) scale(0.1 -0.1)">
       <defs>
        <path id="DejaVuSans-38" d="M 2034 2216 
Q 1584 2216 1326 1975 
Q 1069 1734 1069 1313 
Q 1069 891 1326 650 
Q 1584 409 2034 409 
Q 2484 409 2743 651 
Q 3003 894 3003 1313 
Q 3003 1734 2745 1975 
Q 2488 2216 2034 2216 
z
M 1403 2484 
Q 997 2584 770 2862 
Q 544 3141 544 3541 
Q 544 4100 942 4425 
Q 1341 4750 2034 4750 
Q 2731 4750 3128 4425 
Q 3525 4100 3525 3541 
Q 3525 3141 3298 2862 
Q 3072 2584 2669 2484 
Q 3125 2378 3379 2068 
Q 3634 1759 3634 1313 
Q 3634 634 3220 271 
Q 2806 -91 2034 -91 
Q 1263 -91 848 271 
Q 434 634 434 1313 
Q 434 1759 690 2068 
Q 947 2378 1403 2484 
z
M 1172 3481 
Q 1172 3119 1398 2916 
Q 1625 2713 2034 2713 
Q 2441 2713 2670 2916 
Q 2900 3119 2900 3481 
Q 2900 3844 2670 4047 
Q 2441 4250 2034 4250 
Q 1625 4250 1398 4047 
Q 1172 3844 1172 3481 
z
" transform="scale(0.015625)"/>
       </defs>
       <use xlink:href="#DejaVuSans-30"/>
       <use xlink:href="#DejaVuSans-38" x="63.623047"/>
       <use xlink:href="#DejaVuSans-20" x="127.246094"/>
       <use xlink:href="#DejaVuSans-4a" x="159.033203"/>
       <use xlink:href="#DejaVuSans-75" x="188.525391"/>
       <use xlink:href="#DejaVuSans-6c" x="251.904297"/>
      </g>
     </g>
    </g>
   </g>
   <g id="matplotlib.axis_2">
    <g id="ytick_1">
     <g id="text_6">
      <!-- −50% -->
      <g transform="translate(7.2 175.170781) scale(0.1 -0.1)">
       <defs>
        <path id="DejaVuSans-2212" d="M 678 2272 
L 4684 2272 
L 4684 1741 
L 678 1741 
L 678 2272 
z
" transform="scale(0.015625)"/>
        <path id="DejaVuSans-35" d="M 691 4666 
L 3169 4666 
L 3169 4134 
L 1269 4134 
L 1269 2991 
Q 1406 3038 1543 3061 
Q 1681 3084 1819 3084 
Q 2600 3084 3056 2656 
Q 3513 2228 3513 1497 
Q 3513 744 3044 326 
Q 2575 -91 1722 -91 
Q 1428 -91 1123 -41 
Q 819 9 494 109 
L 494 744 
Q 775 591 1075 516 
Q 1375 441 1709 441 
Q 2250 441 2565 725 
Q 2881 1009 2881 1497 
Q 2881 1984 2565 2268 
Q 2250 2553 1709 2553 
Q 1456 2553 1204 2497 
Q 953 2441 691 2322 
L 691 4666 
z
" transform="scale(0.015625)"/>
        <path id="DejaVuSans-25" d="M 4653 2053 
Q 4381 2053 4226 1822 
Q 4072 1591 4072 1178 
Q 4072 772 4226 539 
Q 4381 306 4653 306 
Q 4919 306 5073 539 
Q 5228 772 5228 1178 
Q 5228 1588 5073 1820 
Q 4919 2053 4653 2053 
z
M 4653 2450 
Q 5147 2450 5437 2106 
Q 5728 1763 5728 1178 
Q 5728 594 5436 251 
Q 5144 -91 4653 -91 
Q 4153 -91 3862 251 
Q 3572 594 3572 1178 
Q 3572 1766 3864 2108 
Q 4156 2450 4653 2450 
z
M 1428 4353 
Q 1159 4353 1004 4120 
Q 850 3888 850 3481 
Q 850 3069 1003 2837 
Q 1156 2606 1428 2606 
Q 1700 2606 1854 2837 
Q 2009 3069 2009 3481 
Q 2009 3884 1853 4118 
Q 1697 4353 1428 4353 
z
M 4250 4750 
L 4750 4750 
L 1831 -91 
L 1331 -91 
L 4250 4750 
z
M 1428 4750 
Q 1922 4750 2215 4408 
Q 2509 4066 2509 3481 
Q 2509 2891 2217 2550 
Q 1925 2209 1428 2209 
Q 931 2209 642 2551 
Q 353 2894 353 3481 
Q 353 4063 643 4406 
Q 934 4750 1428 4750 
z
" transform="scale(0.015625)"/>
       </defs>
       <use xlink:href="#DejaVuSans-2212"/>
       <use xlink:href="#DejaVuSans-35" x="83.789062"/>
       <use xlink:href="#DejaVuSans-30" x="147.412109"/>
       <use xlink:href="#DejaVuSans-25" x="211.035156"/>
      </g>
     </g>
    </g>
    <g id="ytick_2">
     <g id="text_7">
      <!-- −25% -->
      <g transform="translate(7.2 141.295) scale(0.1 -0.1)">
       <use xlink:href="#DejaVuSans-2212"/>
       <use xlink:href="#DejaVuSans-32" x="83.789062"/>
       <use xlink:href="#DejaVuSans-35" x="147.412109"/>
       <use xlink:href="#DejaVuSans-25" x="211.035156"/>
      </g>
     </g>
    </g>
    <g id="ytick_3">
     <g id="text_8">
      <!-- 0% -->
      <g transform="translate(21.942188 107.419219) scale(0.1 -0.1)">
       <use xlink:href="#DejaVuSans-30"/>
       <use xlink:href="#DejaVuSans-25" x="63.623047"/>
      </g>
     </g>
    </g>
    <g id="ytick_4">
     <g id="text_9">
      <!-- 25% -->
      <g transform="translate(15.579688 73.543437) scale(0.1 -0.1)">
       <use xlink:href="#DejaVuSans-32"/>
       <use xlink:href="#DejaVuSans-35" x="63.623047"/>
       <use xlink:href="#DejaVuSans-25" x="127.246094"/>
      </g>
     </g>
    </g>
    <g id="ytick_5">
     <g id="text_10">
      <!-- 50% -->
      <g transform="translate(15.579688 39.667656) scale(0.1 -0.1)">
       <use xlink:href="#DejaVuSans-35"/>
       <use xlink:href="#DejaVuSans-30" x="63.623047"/>
       <use xlink:href="#DejaVuSans-25" x="127.246094"/>
      </g>
     </g>
    </g>
   </g>
   <g id="line2d_8">
    <path d="M 58.467995 132.075656 
L 67.606285 130.190759 
L 76.744576 128.52412 
L 85.882867 127.075738 
L 95.021157 125.845614 
L 104.159448 124.833747 
L 113.297739 124.040138 
L 122.436029 123.464787 
L 131.57432 123.107693 
L 140.712611 122.968857 
L 149.850901 123.048278 
L 158.989192 123.345957 
L 168.127483 123.861894 
L 177.265774 124.596089 
L 186.404064 125.548541 
L 195.542355 126.71925 
L 204.680646 128.108218 
L 213.818936 129.715443 
L 222.957227 131.540925 
L 232.095518 133.584665 
L 241.233808 135.846663 
L 250.372099 138.326918 
L 259.51039 141.025431 
L 268.64868 143.942202 
L 277.786971 147.07723 
L 286.925262 150.430516 
L 296.063552 154.00206 
L 305.201843 157.791861 
L 315.253963 162.21273 
L 325.306083 166.89769 
L 331.702886 170.016531 
L 331.702886 170.016531 
" clip-path="url(#pc3a1df601e)" style="fill: none; stroke: #0035a0; stroke-width: 3; stroke-linecap: round"/>
   </g>
   <g id="text_11">
    <!-- -49% -->
    <g transform="translate(318.785699 160.016531) scale(0.1 -0.1)">
     <defs>
      <path id="DejaVuSans-2d" d="M 313 2009 
L 1997 2009 
L 1997 1497 
L 313 1497 
L 313 2009 
z
" transform="scale(0.015625)"/>
      <path id="DejaVuSans-39" d="M 703 97 
L 703 672 
Q 941 559 1184 500 
Q 1428 441 1663 441 
Q 2288 441 2617 861 
Q 2947 1281 2994 2138 
Q 2813 1869 2534 1725 
Q 2256 1581 1919 1581 
Q 1219 1581 811 2004 
Q 403 2428 403 3163 
Q 403 3881 828 4315 
Q 1253 4750 1959 4750 
Q 2769 4750 3195 4129 
Q 3622 3509 3622 2328 
Q 3622 1225 3098 567 
Q 2575 -91 1691 -91 
Q 1453 -91 1209 -44 
Q 966 3 703 97 
z
M 1959 2075 
Q 2384 2075 2632 2365 
Q 2881 2656 2881 3163 
Q 2881 3666 2632 3958 
Q 2384 4250 1959 4250 
Q 1534 4250 1286 3958 
Q 1038 3666 1038 3163 
Q 1038 2656 1286 2365 
Q 1534 2075 1959 2075 
z
" transform="scale(0.015625)"/>
     </defs>
     <use xlink:href="#DejaVuSans-2d"/>
     <use xlink:href="#DejaVuSans-34" x="36.083984"/>
     <use xlink:href="#DejaVuSans-39" x="99.707031"/>
     <use xlink:href="#DejaVuSans-25" x="163.330078"/>
    </g>
   </g>
   <g id="text_12">
    <!-- Mayreau - population change trends -->
    <g transform="translate(86.262315 16.318125) scale(0.12 -0.12)">
     <defs>
      <path id="DejaVuSans-4d" d="M 628 4666 
L 1569 4666 
L 2759 1491 
L 3956 4666 
L 4897 4666 
L 4897 0 
L 4281 0 
L 4281 4097 
L 3078 897 
L 2444 897 
L 1241 4097 
L 1241 0 
L 628 0 
L 628 4666 
z
" transform="scale(0.015625)"/>
      <path id="DejaVuSans-61" d="M 2194 1759 
Q 1497 1759 1228 1600 
Q 959 1441 959 1056 
Q 959 750 1161 570 
Q 1363 391 1709 391 
Q 2188 391 2477 730 
Q 2766 1069 2766 1631 
L 2766 1759 
L 2194 1759 
z
M 3341 1997 
L 3341 0 
L 2766 0 
L 2766 531 
Q 2569 213 2275 61 
Q 1981 -91 1556 -91 
Q 1019 -91 701 211 
Q 384 513 384 1019 
Q 384 1609 779 1909 
Q 1175 2209 1959 2209 
L 2766 2209 
L 2766 2266 
Q 2766 2663 2505 2880 
Q 2244 3097 1772 3097 
Q 1472 3097 1187 3025 
Q 903 2953 641 2809 
L 641 3341 
Q 956 3463 1253 3523 
Q 1550 3584 1831 3584 
Q 2591 3584 2966 3190 
Q 3341 2797 3341 1997 
z
" transform="scale(0.015625)"/>
      <path id="DejaVuSans-79" d="M 2059 -325 
Q 1816 -950 1584 -1140 
Q 1353 -1331 966 -1331 
L 506 -1331 
L 506 -850 
L 844 -850 
Q 1081 -850 1212 -737 
Q 1344 -625 1503 -206 
L 1606 56 
L 191 3500 
L 800 3500 
L 1894 763 
L 2988 3500 
L 3597 3500 
L 2059 -325 
z
" transform="scale(0.015625)"/>
      <path id="DejaVuSans-72" d="M 2631 2963 
Q 2534 3019 2420 3045 
Q 2306 3072 2169 3072 
Q 1681 3072 1420 2755 
Q 1159 2438 1159 1844 
L 1159 0 
L 581 0 
L 581 3500 
L 1159 3500 
L 1159 2956 
Q 1341 3275 1631 3429 
Q 1922 3584 2338 3584 
Q 2397 3584 2469 3576 
Q 2541 3569 2628 3553 
L 2631 2963 
z
" transform="scale(0.015625)"/>
      <path id="DejaVuSans-65" d="M 3597 1894 
L 3597 1613 
L 953 1613 
Q 991 1019 1311 708 
Q 1631 397 2203 397 
Q 2534 397 2845 478 
Q 3156 559 3463 722 
L 3463 178 
Q 3153 47 2828 -22 
Q 2503 -91 2169 -91 
Q 1331 -91 842 396 
Q 353 884 353 1716 
Q 353 2575 817 3079 
Q 1281 3584 2069 3584 
Q 2775 3584 3186 3129 
Q 3597 2675 3597 1894 
z
M 3022 2063 
Q 3016 2534 2758 2815 
Q 2500 3097 2075 3097 
Q 1594 3097 1305 2825 
Q 1016 2553 972 2059 
L 3022 2063 
z
" transform="scale(0.015625)"/>
      <path id="DejaVuSans-70" d="M 1159 525 
L 1159 -1331 
L 581 -1331 
L 581 3500 
L 1159 3500 
L 1159 2969 
Q 1341 3281 1617 3432 
Q 1894 3584 2278 3584 
Q 2916 3584 3314 3078 
Q 3713 2572 3713 1747 
Q 3713 922 3314 415 
Q 2916 -91 2278 -91 
Q 1894 -91 1617 61 
Q 1341 213 1159 525 
z
M 3116 1747 
Q 3116 2381 2855 2742 
Q 2594 3103 2138 3103 
Q 1681 3103 1420 2742 
Q 1159 2381 1159 1747 
Q 1159 1113 1420 752 
Q 1681 391 2138 391 
Q 2594 391 2855 752 
Q 3116 1113 3116 1747 
z
" transform="scale(0.015625)"/>
      <path id="DejaVuSans-6f" d="M 1959 3097 
Q 1497 3097 1228 2736 
Q 959 2375 959 1747 
Q 959 1119 1226 758 
Q 1494 397 1959 397 
Q 2419 397 2687 759 
Q 2956 1122 2956 1747 
Q 2956 2369 2687 2733 
Q 2419 3097 1959 3097 
z
M 1959 3584 
Q 2709 3584 3137 3096 
Q 3566 2609 3566 1747 
Q 3566 888 3137 398 
Q 2709 -91 1959 -91 
Q 1206 -91 779 398 
Q 353 888 353 1747 
Q 353 2609 779 3096 
Q 1206 3584 1959 3584 
z
" transform="scale(0.015625)"/>
      <path id="DejaVuSans-74" d="M 1172 4494 
L 1172 3500 
L 2356 3500 
L 2356 3053 
L 1172 3053 
L 1172 1153 
Q 1172 725 1289 603 
Q 1406 481 1766 481 
L 2356 481 
L 2356 0 
L 1766 0 
Q 1100 0 847 248 
Q 594 497 594 1153 
L 594 3053 
L 172 3053 
L 172 3500 
L 594 3500 
L 594 4494 
L 1172 4494 
z
" transform="scale(0.015625)"/>
      <path id="DejaVuSans-69" d="M 603 3500 
L 1178 3500 
L 1178 0 
L 603 0 
L 603 3500 
z
M 603 4863 
L 1178 4863 
L 1178 4134 
L 603 4134 
L 603 4863 
z
" transform="scale(0.015625)"/>
      <path id="DejaVuSans-63" d="M 3122 3366 
L 3122 2828 
Q 2878 2963 2633 3030 
Q 2388 3097 2138 3097 
Q 1578 3097 1268 2742 
Q 959 2388 959 1747 
Q 959 1106 1268 751 
Q 1578 397 2138 397 
Q 2388 397 2633 464 
Q 2878 531 3122 666 
L 3122 134 
Q 2881 22 2623 -34 
Q 2366 -91 2075 -91 
Q 1284 -91 818 406 
Q 353 903 353 1747 
Q 353 2603 823 3093 
Q 1294 3584 2113 3584 
Q 2378 3584 2631 3529 
Q 2884 3475 3122 3366 
z
" transform="scale(0.015625)"/>
      <path id="DejaVuSans-68" d="M 3513 2113 
L 3513 0 
L 2938 0 
L 2938 2094 
Q 2938 2591 2744 2837 
Q 2550 3084 2163 3084 
Q 1697 3084 1428 2787 
Q 1159 2491 1159 1978 
L 1159 0 
L 581 0 
L 581 4863 
L 1159 4863 
L 1159 2956 
Q 1366 3272 1645 3428 
Q 1925 3584 2291 3584 
Q 2894 3584 3203 3211 
Q 3513 2838 3513 2113 
z
" transform="scale(0.015625)"/>
      <path id="DejaVuSans-67" d="M 2906 1791 
Q 2906 2416 2648 2759 
Q 2391 3103 1925 3103 
Q 1463 3103 1205 2759 
Q 947 2416 947 1791 
Q 947 1169 1205 825 
Q 1463 481 1925 481 
Q 2391 481 2648 825 
Q 2906 1169 2906 1791 
z
M 3481 434 
Q 3481 -459 3084 -895 
Q 2688 -1331 1869 -1331 
Q 1566 -1331 1297 -1286 
Q 1028 -1241 775 -1147 
L 775 -588 
Q 1028 -725 1275 -790 
Q 1522 -856 1778 -856 
Q 2344 -856 2625 -561 
Q 2906 -266 2906 331 
L 2906 616 
Q 2728 306 2450 153 
Q 2172 0 1784 0 
Q 1141 0 747 490 
Q 353 981 353 1791 
Q 353 2603 747 3093 
Q 1141 3584 1784 3584 
Q 2172 3584 2450 3431 
Q 2728 3278 2906 2969 
L 2906 3500 
L 3481 3500 
L 3481 434 
z
" transform="scale(0.015625)"/>
      <path id="DejaVuSans-64" d="M 2906 2969 
L 2906 4863 
L 3481 4863 
L 3481 0 
L 2906 0 
L 2906 525 
Q 2725 213 2448 61 
Q 2172 -91 1784 -91 
Q 1150 -91 751 415 
Q 353 922 353 1747 
Q 353 2572 751 3078 
Q 1150 3584 1784 3584 
Q 2172 3584 2448 3432 
Q 2725 3281 2906 2969 
z
M 947 1747 
Q 947 1113 1208 752 
Q 1469 391 1925 391 
Q 2381 391 2643 752 
Q 2906 1113 2906 1747 
Q 2906 2381 2643 2742 
Q 2381 3103 1925 3103 
Q 1469 3103 1208 2742 
Q 947 2381 947 1747 
z
" transform="scale(0.015625)"/>
      <path id="DejaVuSans-73" d="M 2834 3397 
L 2834 2853 
Q 2591 2978 2328 3040 
Q 2066 3103 1784 3103 
Q 1356 3103 1142 2972 
Q 928 2841 928 2578 
Q 928 2378 1081 2264 
Q 1234 2150 1697 2047 
L 1894 2003 
Q 2506 1872 2764 1633 
Q 3022 1394 3022 966 
Q 3022 478 2636 193 
Q 2250 -91 1575 -91 
Q 1294 -91 989 -36 
Q 684 19 347 128 
L 347 722 
Q 666 556 975 473 
Q 1284 391 1588 391 
Q 1994 391 2212 530 
Q 2431 669 2431 922 
Q 2431 1156 2273 1281 
Q 2116 1406 1581 1522 
L 1381 1569 
Q 847 1681 609 1914 
Q 372 2147 372 2553 
Q 372 3047 722 3315 
Q 1072 3584 1716 3584 
Q 2034 3584 2315 3537 
Q 2597 3491 2834 3397 
z
" transform="scale(0.015625)"/>
     </defs>
     <use xlink:href="#DejaVuSans-4d"/>
     <use xlink:href="#DejaVuSans-61" x="86.279297"/>
     <use xlink:href="#DejaVuSans-79" x="147.558594"/>
     <use xlink:href="#DejaVuSans-72" x="206.738281"/>
     <use xlink:href="#DejaVuSans-65" x="245.601562"/>
     <use xlink:href="#DejaVuSans-61" x="307.125"/>
     <use xlink:href="#DejaVuSans-75" x="368.404297"/>
     <use xlink:href="#DejaVuSans-20" x="431.783203"/>
     <use xlink:href="#DejaVuSans-2d" x="463.570312"/>
     <use xlink:href="#DejaVuSans-20" x="499.654297"/>
     <use xlink:href="#DejaVuSans-70" x="531.441406"/>
     <use xlink:href="#DejaVuSans-6f" x="594.917969"/>
     <use xlink:href="#DejaVuSans-70" x="656.099609"/>
     <use xlink:href="#DejaVuSans-75" x="719.576172"/>
     <use xlink:href="#DejaVuSans-6c" x="782.955078"/>
     <use xlink:href="#DejaVuSans-61" x="810.738281"/>
     <use xlink:href="#DejaVuSans-74" x="872.017578"/>
     <use xlink:href="#DejaVuSans-69" x="911.226562"/>
     <use xlink:href="#DejaVuSans-6f" x="939.009766"/>
     <use xlink:href="#DejaVuSans-6e" x="1000.191406"/>
     <use xlink:href="#DejaVuSans-20" x="1063.570312"/>
     <use xlink:href="#DejaVuSans-63" x="1095.357422"/>
     <use xlink:href="#DejaVuSans-68" x="1150.337891"/>
     <use xlink:href="#DejaVuSans-61" x="1213.716797"/>
     <use xlink:href="#DejaVuSans-6e" x="1274.996094"/>
     <use xlink:href="#DejaVuSans-67" x="1338.375"/>
     <use xlink:href="#DejaVuSans-65" x="1401.851562"/>
     <use xlink:href="#DejaVuSans-20" x="1463.375"/>
     <use xlink:href="#DejaVuSans-74" x="1495.162109"/>
     <use xlink:href="#DejaVuSans-72" x="1534.371094"/>
     <use xlink:href="#DejaVuSans-65" x="1573.234375"/>
     <use xlink:href="#DejaVuSans-6e" x="1634.757812"/>
     <use xlink:href="#DejaVuSans-64" x="1698.136719"/>
     <use xlink:href="#DejaVuSans-73" x="1761.613281"/>
    </g>
   </g>
  </g>
 </g>
 <defs>
  <clipPath id="pc3a1df601e">
   <rect x="44.80625" y="22.318125" width="300.558381" height="162.60375"/>
  </clipPath>
 </defs>
</svg>
