<?xml version="1.0" encoding="utf-8" standalone="no"?>
<!DOCTYPE svg PUBLIC "-//W3C//DTD SVG 1.1//EN"
  "http://www.w3.org/Graphics/SVG/1.1/DTD/svg11.dtd">
<svg xmlns:xlink="http://www.w3.org/1999/xlink" width="351.868582pt" height="208.8pt" viewBox="0 0 351.868582 208.8" xmlns="http://www.w3.org/2000/svg" version="1.1">
 <metadata>
  <rdf:RDF xmlns:dc="http://purl.org/dc/elements/1.1/" xmlns:cc="http://creativecommons.org/ns#" xmlns:rdf="http://www.w3.org/1999/02/22-rdf-syntax-ns#">
   <cc:Work>
    <dc:type rdf:resource="http://purl.org/dc/dcmitype/StillImage"/>
    <dc:date>2024-07-10T13:52:02.398076</dc:date>
    <dc:format>image/svg+xml</dc:format>
    <dc:creator>
     <cc:Agent>
      <dc:title>Matplotlib v3.9.0, https://matplotlib.org/</dc:title>
     </cc:Agent>
    </dc:creator>
   </cc:Work>
  </rdf:RDF>
 </metadata>
 <defs>
  <style type="text/css">*{stroke-linejoin: round; stroke-linecap: butt}</style>
 </defs>
 <g id="figure_1">
  <g id="patch_1">
   <path d="M 0 208.8 
L 351.868582 208.8 
L 351.868582 0 
L 0 0 
L 0 208.8 
z
" style="fill: none"/>
  </g>
  <g id="axes_1">
   <g id="patch_2">
    <path d="M 44.80625 184.921875 
L 344.297443 184.921875 
L 344.297443 22.318125 
L 44.80625 22.318125 
L 44.80625 184.921875 
z
" style="fill: none; opacity: 0"/>
   </g>
   <g id="PolyCollection_1"/>
   <g id="PolyCollection_2">
    <defs>
     <path id="m94b93ae1e7" d="M 58.419486 -80.789438 
L 58.419486 -80.789438 
L 59.33007 -78.473697 
L 60.240655 -76.22209 
L 61.151239 -74.033924 
L 62.061823 -71.908505 
L 62.972408 -69.845141 
L 63.882992 -67.843137 
L 64.793577 -65.901801 
L 65.704161 -64.02044 
L 66.614745 -62.19836 
L 67.52533 -60.434868 
L 68.435914 -58.729272 
L 69.346498 -57.080877 
L 70.257083 -55.488991 
L 71.167667 -53.952921 
L 72.078251 -52.471973 
L 72.988836 -51.045454 
L 73.89942 -49.672671 
L 74.810004 -48.35293 
L 75.720589 -47.08554 
L 76.631173 -45.869805 
L 77.541757 -44.705034 
L 78.452342 -43.590533 
L 79.362926 -42.525609 
L 80.27351 -41.509569 
L 81.184095 -40.541719 
L 82.094679 -39.621366 
L 83.005264 -38.747818 
L 83.915848 -37.92038 
L 84.826432 -37.13836 
L 85.737017 -36.401065 
L 86.647601 -35.707801 
L 87.558185 -35.057876 
L 88.46877 -34.450595 
L 89.379354 -33.885266 
L 90.289938 -33.361196 
L 91.200523 -32.877691 
L 92.111107 -32.434059 
L 93.021691 -32.029606 
L 93.932276 -31.663638 
L 94.84286 -31.335464 
L 95.753444 -31.044388 
L 96.664029 -30.78972 
L 97.574613 -30.570764 
L 98.485198 -30.386829 
L 99.395782 -30.23722 
L 100.306366 -30.121245 
L 101.216951 -30.03821 
L 102.127535 -29.987423 
L 103.038119 -29.96819 
L 103.948704 -29.979817 
L 104.859288 -30.021613 
L 105.769872 -30.092882 
L 106.680457 -30.192934 
L 107.591041 -30.321073 
L 108.501625 -30.476607 
L 109.41221 -30.658844 
L 110.322794 -30.867088 
L 111.233378 -31.100649 
L 112.143963 -31.358831 
L 113.054547 -31.640942 
L 113.965131 -31.94629 
L 114.875716 -32.27418 
L 115.7863 -32.62392 
L 116.696885 -32.994815 
L 117.607469 -33.386174 
L 118.518053 -33.797303 
L 119.428638 -34.227509 
L 120.339222 -34.676099 
L 121.249806 -35.142378 
L 122.160391 -35.625655 
L 123.070975 -36.125237 
L 123.981559 -36.640428 
L 124.892144 -37.170538 
L 125.802728 -37.714872 
L 126.713312 -38.272737 
L 127.623897 -38.843441 
L 128.534481 -39.426289 
L 129.445065 -40.02059 
L 130.35565 -40.625648 
L 131.266234 -41.240773 
L 132.176819 -41.865269 
L 133.087403 -42.498444 
L 133.997987 -43.139606 
L 134.908572 -43.788059 
L 135.819156 -44.443113 
L 136.72974 -45.104072 
L 137.640325 -45.770245 
L 138.550909 -46.440938 
L 139.461493 -47.115457 
L 140.372078 -47.79311 
L 141.282662 -48.473203 
L 142.193246 -49.155044 
L 143.103831 -49.837938 
L 144.014415 -50.521194 
L 144.924999 -51.204117 
L 145.835584 -51.886014 
L 146.746168 -52.566193 
L 147.656752 -53.243959 
L 148.567337 -53.918621 
L 149.477921 -54.589488 
L 150.388506 -55.256098 
L 151.29909 -55.918338 
L 152.209674 -56.576128 
L 153.120259 -57.229384 
L 154.030843 -57.878027 
L 154.941427 -58.521973 
L 155.852012 -59.161142 
L 156.762596 -59.795451 
L 157.67318 -60.424819 
L 158.583765 -61.049164 
L 159.494349 -61.668405 
L 160.404933 -62.28246 
L 161.315518 -62.891247 
L 162.226102 -63.494684 
L 163.136686 -64.092691 
L 164.047271 -64.685184 
L 164.957855 -65.272083 
L 165.86844 -65.853306 
L 166.779024 -66.428771 
L 167.689608 -66.998396 
L 168.600193 -67.5621 
L 169.510777 -68.119801 
L 170.421361 -68.671418 
L 171.331946 -69.216868 
L 172.24253 -69.756071 
L 173.153114 -70.288943 
L 174.063699 -70.815405 
L 174.974283 -71.335373 
L 175.884867 -71.848767 
L 176.795452 -72.355504 
L 177.706036 -72.855503 
L 178.61662 -73.348683 
L 179.527205 -73.834961 
L 180.437789 -74.314256 
L 181.348373 -74.786486 
L 182.258958 -75.25157 
L 183.169542 -75.709425 
L 184.080127 -76.159971 
L 184.990711 -76.603126 
L 185.901295 -77.038807 
L 186.81188 -77.466933 
L 187.722464 -77.887423 
L 188.633048 -78.300195 
L 189.543633 -78.705166 
L 190.454217 -79.102256 
L 191.364801 -79.491383 
L 192.275386 -79.872465 
L 193.18597 -80.245421 
L 194.096554 -80.610168 
L 195.007139 -80.966629 
L 195.917723 -81.314831 
L 196.828307 -81.654901 
L 197.738892 -81.986973 
L 198.649476 -82.31118 
L 199.560061 -82.627655 
L 200.470645 -82.93653 
L 201.381229 -83.237939 
L 202.291814 -83.532014 
L 203.202398 -83.81889 
L 204.112982 -84.098698 
L 205.023567 -84.371572 
L 205.934151 -84.637644 
L 206.844735 -84.897049 
L 207.75532 -85.149918 
L 208.665904 -85.396385 
L 209.576488 -85.636582 
L 210.487073 -85.870644 
L 211.397657 -86.098702 
L 212.308241 -86.32089 
L 213.218826 -86.537341 
L 214.12941 -86.748188 
L 215.039994 -86.953563 
L 215.950579 -87.1536 
L 216.861163 -87.348432 
L 217.771748 -87.538192 
L 218.682332 -87.723013 
L 219.592916 -87.903027 
L 220.503501 -88.078369 
L 221.414085 -88.24917 
L 222.324669 -88.415564 
L 223.235254 -88.577684 
L 224.145838 -88.735663 
L 225.056422 -88.889633 
L 225.967007 -89.039729 
L 226.877591 -89.186082 
L 227.788175 -89.328827 
L 228.69876 -89.468095 
L 229.609344 -89.60402 
L 230.519928 -89.736735 
L 231.430513 -89.866373 
L 232.341097 -89.993066 
L 233.251682 -90.116949 
L 234.162266 -90.238154 
L 235.07285 -90.356813 
L 235.983435 -90.473061 
L 236.894019 -90.587029 
L 237.804603 -90.698852 
L 238.715188 -90.808661 
L 239.625772 -90.91659 
L 240.536356 -91.022766 
L 241.446941 -91.127233 
L 242.357525 -91.229986 
L 243.268109 -91.331018 
L 244.178694 -91.430322 
L 245.089278 -91.527891 
L 245.999862 -91.623718 
L 246.910447 -91.717797 
L 247.821031 -91.81012 
L 248.731616 -91.900681 
L 249.6422 -91.989472 
L 250.552784 -92.076487 
L 251.463369 -92.161719 
L 252.373953 -92.245161 
L 253.284537 -92.326806 
L 254.195122 -92.406648 
L 255.105706 -92.484678 
L 256.01629 -92.560891 
L 256.926875 -92.63528 
L 257.837459 -92.707837 
L 258.748043 -92.778556 
L 259.658628 -92.84743 
L 260.569212 -92.914452 
L 261.479796 -92.979615 
L 262.390381 -93.042912 
L 263.300965 -93.104336 
L 264.211549 -93.163881 
L 265.122134 -93.221539 
L 266.032718 -93.277304 
L 266.943303 -93.331169 
L 267.853887 -93.383126 
L 268.764471 -93.43317 
L 269.675056 -93.481292 
L 270.58564 -93.527487 
L 271.496224 -93.571747 
L 272.406809 -93.614065 
L 273.317393 -93.654435 
L 274.227977 -93.692849 
L 275.138562 -93.729301 
L 276.049146 -93.763784 
L 276.95973 -93.79629 
L 277.870315 -93.826814 
L 278.780899 -93.855348 
L 279.691483 -93.881885 
L 280.602068 -93.906418 
L 281.512652 -93.928941 
L 282.423237 -93.949446 
L 283.333821 -93.967927 
L 284.244405 -93.984377 
L 285.15499 -93.998789 
L 286.065574 -94.011156 
L 286.976158 -94.02147 
L 287.886743 -94.029726 
L 288.797327 -94.035916 
L 289.707911 -94.040034 
L 290.618496 -94.042072 
L 291.52908 -94.042024 
L 292.439664 -94.039883 
L 293.350249 -94.035641 
L 294.260833 -94.029292 
L 295.171417 -94.02083 
L 296.082002 -94.010246 
L 296.992586 -93.997535 
L 297.90317 -93.98269 
L 298.813755 -93.965702 
L 299.724339 -93.946567 
L 300.634924 -93.925276 
L 301.545508 -93.901823 
L 302.456092 -93.8762 
L 303.366677 -93.848402 
L 304.277261 -93.818421 
L 305.187845 -93.78625 
L 306.09843 -93.751883 
L 307.009014 -93.715312 
L 307.919598 -93.67653 
L 308.830183 -93.635532 
L 309.740767 -93.592309 
L 310.651351 -93.546855 
L 311.561936 -93.499163 
L 312.47252 -93.449226 
L 313.383104 -93.397037 
L 314.293689 -93.342589 
L 315.204273 -93.285877 
L 316.114858 -93.226891 
L 317.025442 -93.165626 
L 317.936026 -93.102075 
L 318.846611 -93.036231 
L 319.757195 -92.968087 
L 320.667779 -92.897636 
L 321.578364 -92.824871 
L 322.488948 -92.749785 
L 323.399532 -92.672372 
L 324.310117 -92.592624 
L 325.220701 -92.510535 
L 326.131285 -92.426098 
L 327.04187 -92.339305 
L 327.952454 -92.25015 
L 328.863038 -92.158627 
L 329.773623 -92.064727 
L 330.684207 -91.968445 
L 330.684207 -91.968445 
L 330.684207 -105.18 
L 329.773623 -105.18 
L 328.863038 -105.18 
L 327.952454 -105.18 
L 327.04187 -105.18 
L 326.131285 -105.18 
L 325.220701 -105.18 
L 324.310117 -105.18 
L 323.399532 -105.18 
L 322.488948 -105.18 
L 321.578364 -105.18 
L 320.667779 -105.18 
L 319.757195 -105.18 
L 318.846611 -105.18 
L 317.936026 -105.18 
L 317.025442 -105.18 
L 316.114858 -105.18 
L 315.204273 -105.18 
L 314.293689 -105.18 
L 313.383104 -105.18 
L 312.47252 -105.18 
L 311.561936 -105.18 
L 310.651351 -105.18 
L 309.740767 -105.18 
L 308.830183 -105.18 
L 307.919598 -105.18 
L 307.009014 -105.18 
L 306.09843 -105.18 
L 305.187845 -105.18 
L 304.277261 -105.18 
L 303.366677 -105.18 
L 302.456092 -105.18 
L 301.545508 -105.18 
L 300.634924 -105.18 
L 299.724339 -105.18 
L 298.813755 -105.18 
L 297.90317 -105.18 
L 296.992586 -105.18 
L 296.082002 -105.18 
L 295.171417 -105.18 
L 294.260833 -105.18 
L 293.350249 -105.18 
L 292.439664 -105.18 
L 291.52908 -105.18 
L 290.618496 -105.18 
L 289.707911 -105.18 
L 288.797327 -105.18 
L 287.886743 -105.18 
L 286.976158 -105.18 
L 286.065574 -105.18 
L 285.15499 -105.18 
L 284.244405 -105.18 
L 283.333821 -105.18 
L 282.423237 -105.18 
L 281.512652 -105.18 
L 280.602068 -105.18 
L 279.691483 -105.18 
L 278.780899 -105.18 
L 277.870315 -105.18 
L 276.95973 -105.18 
L 276.049146 -105.18 
L 275.138562 -105.18 
L 274.227977 -105.18 
L 273.317393 -105.18 
L 272.406809 -105.18 
L 271.496224 -105.18 
L 270.58564 -105.18 
L 269.675056 -105.18 
L 268.764471 -105.18 
L 267.853887 -105.18 
L 266.943303 -105.18 
L 266.032718 -105.18 
L 265.122134 -105.18 
L 264.211549 -105.18 
L 263.300965 -105.18 
L 262.390381 -105.18 
L 261.479796 -105.18 
L 260.569212 -105.18 
L 259.658628 -105.18 
L 258.748043 -105.18 
L 257.837459 -105.18 
L 256.926875 -105.18 
L 256.01629 -105.18 
L 255.105706 -105.18 
L 254.195122 -105.18 
L 253.284537 -105.18 
L 252.373953 -105.18 
L 251.463369 -105.18 
L 250.552784 -105.18 
L 249.6422 -105.18 
L 248.731616 -105.18 
L 247.821031 -105.18 
L 246.910447 -105.18 
L 245.999862 -105.18 
L 245.089278 -105.18 
L 244.178694 -105.18 
L 243.268109 -105.18 
L 242.357525 -105.18 
L 241.446941 -105.18 
L 240.536356 -105.18 
L 239.625772 -105.18 
L 238.715188 -105.18 
L 237.804603 -105.18 
L 236.894019 -105.18 
L 235.983435 -105.18 
L 235.07285 -105.18 
L 234.162266 -105.18 
L 233.251682 -105.18 
L 232.341097 -105.18 
L 231.430513 -105.18 
L 230.519928 -105.18 
L 229.609344 -105.18 
L 228.69876 -105.18 
L 227.788175 -105.18 
L 226.877591 -105.18 
L 225.967007 -105.18 
L 225.056422 -105.18 
L 224.145838 -105.18 
L 223.235254 -105.18 
L 222.324669 -105.18 
L 221.414085 -105.18 
L 220.503501 -105.18 
L 219.592916 -105.18 
L 218.682332 -105.18 
L 217.771748 -105.18 
L 216.861163 -105.18 
L 215.950579 -105.18 
L 215.039994 -105.18 
L 214.12941 -105.18 
L 213.218826 -105.18 
L 212.308241 -105.18 
L 211.397657 -105.18 
L 210.487073 -105.18 
L 209.576488 -105.18 
L 208.665904 -105.18 
L 207.75532 -105.18 
L 206.844735 -105.18 
L 205.934151 -105.18 
L 205.023567 -105.18 
L 204.112982 -105.18 
L 203.202398 -105.18 
L 202.291814 -105.18 
L 201.381229 -105.18 
L 200.470645 -105.18 
L 199.560061 -105.18 
L 198.649476 -105.18 
L 197.738892 -105.18 
L 196.828307 -105.18 
L 195.917723 -105.18 
L 195.007139 -105.18 
L 194.096554 -105.18 
L 193.18597 -105.18 
L 192.275386 -105.18 
L 191.364801 -105.18 
L 190.454217 -105.18 
L 189.543633 -105.18 
L 188.633048 -105.18 
L 187.722464 -105.18 
L 186.81188 -105.18 
L 185.901295 -105.18 
L 184.990711 -105.18 
L 184.080127 -105.18 
L 183.169542 -105.18 
L 182.258958 -105.18 
L 181.348373 -105.18 
L 180.437789 -105.18 
L 179.527205 -105.18 
L 178.61662 -105.18 
L 177.706036 -105.18 
L 176.795452 -105.18 
L 175.884867 -105.18 
L 174.974283 -105.18 
L 174.063699 -105.18 
L 173.153114 -105.18 
L 172.24253 -105.18 
L 171.331946 -105.18 
L 170.421361 -105.18 
L 169.510777 -105.18 
L 168.600193 -105.18 
L 167.689608 -105.18 
L 166.779024 -105.18 
L 165.86844 -105.18 
L 164.957855 -105.18 
L 164.047271 -105.18 
L 163.136686 -105.18 
L 162.226102 -105.18 
L 161.315518 -105.18 
L 160.404933 -105.18 
L 159.494349 -105.18 
L 158.583765 -105.18 
L 157.67318 -105.18 
L 156.762596 -105.18 
L 155.852012 -105.18 
L 154.941427 -105.18 
L 154.030843 -105.18 
L 153.120259 -105.18 
L 152.209674 -105.18 
L 151.29909 -105.18 
L 150.388506 -105.18 
L 149.477921 -105.18 
L 148.567337 -105.18 
L 147.656752 -105.18 
L 146.746168 -105.18 
L 145.835584 -105.18 
L 144.924999 -105.18 
L 144.014415 -105.18 
L 143.103831 -105.18 
L 142.193246 -105.18 
L 141.282662 -105.18 
L 140.372078 -105.18 
L 139.461493 -105.18 
L 138.550909 -105.18 
L 137.640325 -105.18 
L 136.72974 -105.18 
L 135.819156 -105.18 
L 134.908572 -105.18 
L 133.997987 -105.18 
L 133.087403 -105.18 
L 132.176819 -105.18 
L 131.266234 -105.18 
L 130.35565 -105.18 
L 129.445065 -105.18 
L 128.534481 -105.18 
L 127.623897 -105.18 
L 126.713312 -105.18 
L 125.802728 -105.18 
L 124.892144 -105.18 
L 123.981559 -105.18 
L 123.070975 -105.18 
L 122.160391 -105.18 
L 121.249806 -105.18 
L 120.339222 -105.18 
L 119.428638 -105.18 
L 118.518053 -105.18 
L 117.607469 -105.18 
L 116.696885 -105.18 
L 115.7863 -105.18 
L 114.875716 -105.18 
L 113.965131 -105.18 
L 113.054547 -105.18 
L 112.143963 -105.18 
L 111.233378 -105.18 
L 110.322794 -105.18 
L 109.41221 -105.18 
L 108.501625 -105.18 
L 107.591041 -105.18 
L 106.680457 -105.18 
L 105.769872 -105.18 
L 104.859288 -105.18 
L 103.948704 -105.18 
L 103.038119 -105.18 
L 102.127535 -105.18 
L 101.216951 -105.18 
L 100.306366 -105.18 
L 99.395782 -105.18 
L 98.485198 -105.18 
L 97.574613 -105.18 
L 96.664029 -105.18 
L 95.753444 -105.18 
L 94.84286 -105.18 
L 93.932276 -105.18 
L 93.021691 -105.18 
L 92.111107 -105.18 
L 91.200523 -105.18 
L 90.289938 -105.18 
L 89.379354 -105.18 
L 88.46877 -105.18 
L 87.558185 -105.18 
L 86.647601 -105.18 
L 85.737017 -105.18 
L 84.826432 -105.18 
L 83.915848 -105.18 
L 83.005264 -105.18 
L 82.094679 -105.18 
L 81.184095 -105.18 
L 80.27351 -105.18 
L 79.362926 -105.18 
L 78.452342 -105.18 
L 77.541757 -105.18 
L 76.631173 -105.18 
L 75.720589 -105.18 
L 74.810004 -105.18 
L 73.89942 -105.18 
L 72.988836 -105.18 
L 72.078251 -105.18 
L 71.167667 -105.18 
L 70.257083 -105.18 
L 69.346498 -105.18 
L 68.435914 -105.18 
L 67.52533 -105.18 
L 66.614745 -105.18 
L 65.704161 -105.18 
L 64.793577 -105.18 
L 63.882992 -105.18 
L 62.972408 -105.18 
L 62.061823 -105.18 
L 61.151239 -105.18 
L 60.240655 -105.18 
L 59.33007 -105.18 
L 58.419486 -105.18 
z
" style="stroke: #ed6b4d; stroke-opacity: 0.1"/>
    </defs>
    <g clip-path="url(#pa52a6fd346)">
     <use xlink:href="#m94b93ae1e7" x="0" y="208.8" style="fill: #ed6b4d; fill-opacity: 0.1; stroke: #ed6b4d; stroke-opacity: 0.1"/>
    </g>
   </g>
   <g id="line2d_1">
    <defs>
     <path id="m4b5a0a1d79" d="M 0 3 
C 0.795609 3 1.55874 2.683901 2.12132 2.12132 
C 2.683901 1.55874 3 0.795609 3 0 
C 3 -0.795609 2.683901 -1.55874 2.12132 -2.12132 
C 1.55874 -2.683901 0.795609 -3 0 -3 
C -0.795609 -3 -1.55874 -2.683901 -2.12132 -2.12132 
C -2.683901 -1.55874 -3 -0.795609 -3 0 
C -3 0.795609 -2.683901 1.55874 -2.12132 2.12132 
C -1.55874 2.683901 -0.795609 3 0 3 
z
" style="stroke: #0035a0"/>
    </defs>
    <g clip-path="url(#pa52a6fd346)">
     <use xlink:href="#m4b5a0a1d79" x="58.419486" y="128.010562" style="fill: #0035a0; stroke: #0035a0"/>
     <use xlink:href="#m4b5a0a1d79" x="103.79694" y="178.824234" style="fill: #0035a0; stroke: #0035a0"/>
     <use xlink:href="#m4b5a0a1d79" x="149.174393" y="154.433672" style="fill: #0035a0; stroke: #0035a0"/>
     <use xlink:href="#m4b5a0a1d79" x="194.551847" y="128.010562" style="fill: #0035a0; stroke: #0035a0"/>
     <use xlink:href="#m4b5a0a1d79" x="239.9293" y="117.847828" style="fill: #0035a0; stroke: #0035a0"/>
     <use xlink:href="#m4b5a0a1d79" x="285.306754" y="114.799008" style="fill: #0035a0; stroke: #0035a0"/>
     <use xlink:href="#m4b5a0a1d79" x="330.684207" y="116.831555" style="fill: #0035a0; stroke: #0035a0"/>
    </g>
   </g>
   <g id="line2d_2">
    <path d="M 44.80625 103.62 
L 344.297443 103.62 
" clip-path="url(#pa52a6fd346)" style="fill: none; stroke: #808080; stroke-width: 0.8; stroke-linecap: square"/>
   </g>
   <g id="matplotlib.axis_1">
    <g id="xtick_1">
     <g id="line2d_3">
      <defs>
       <path id="m362b97bee9" d="M 0 0 
L 0 3.5 
" style="stroke: #000000; stroke-width: 0.8"/>
      </defs>
      <g>
       <use xlink:href="#m362b97bee9" x="58.419486" y="184.921875" style="stroke: #000000; stroke-width: 0.8"/>
      </g>
     </g>
     <g id="text_1">
      <!-- 03 Jul -->
      <g transform="translate(44.435111 199.520312) scale(0.1 -0.1)">
       <defs>
        <path id="DejaVuSans-30" d="M 2034 4250 
Q 1547 4250 1301 3770 
Q 1056 3291 1056 2328 
Q 1056 1369 1301 889 
Q 1547 409 2034 409 
Q 2525 409 2770 889 
Q 3016 1369 3016 2328 
Q 3016 3291 2770 3770 
Q 2525 4250 2034 4250 
z
M 2034 4750 
Q 2819 4750 3233 4129 
Q 3647 3509 3647 2328 
Q 3647 1150 3233 529 
Q 2819 -91 2034 -91 
Q 1250 -91 836 529 
Q 422 1150 422 2328 
Q 422 3509 836 4129 
Q 1250 4750 2034 4750 
z
" transform="scale(0.015625)"/>
        <path id="DejaVuSans-33" d="M 2597 2516 
Q 3050 2419 3304 2112 
Q 3559 1806 3559 1356 
Q 3559 666 3084 287 
Q 2609 -91 1734 -91 
Q 1441 -91 1130 -33 
Q 819 25 488 141 
L 488 750 
Q 750 597 1062 519 
Q 1375 441 1716 441 
Q 2309 441 2620 675 
Q 2931 909 2931 1356 
Q 2931 1769 2642 2001 
Q 2353 2234 1838 2234 
L 1294 2234 
L 1294 2753 
L 1863 2753 
Q 2328 2753 2575 2939 
Q 2822 3125 2822 3475 
Q 2822 3834 2567 4026 
Q 2313 4219 1838 4219 
Q 1578 4219 1281 4162 
Q 984 4106 628 3988 
L 628 4550 
Q 988 4650 1302 4700 
Q 1616 4750 1894 4750 
Q 2613 4750 3031 4423 
Q 3450 4097 3450 3541 
Q 3450 3153 3228 2886 
Q 3006 2619 2597 2516 
z
" transform="scale(0.015625)"/>
        <path id="DejaVuSans-20" transform="scale(0.015625)"/>
        <path id="DejaVuSans-4a" d="M 628 4666 
L 1259 4666 
L 1259 325 
Q 1259 -519 939 -900 
Q 619 -1281 -91 -1281 
L -331 -1281 
L -331 -750 
L -134 -750 
Q 284 -750 456 -515 
Q 628 -281 628 325 
L 628 4666 
z
" transform="scale(0.015625)"/>
        <path id="DejaVuSans-75" d="M 544 1381 
L 544 3500 
L 1119 3500 
L 1119 1403 
Q 1119 906 1312 657 
Q 1506 409 1894 409 
Q 2359 409 2629 706 
Q 2900 1003 2900 1516 
L 2900 3500 
L 3475 3500 
L 3475 0 
L 2900 0 
L 2900 538 
Q 2691 219 2414 64 
Q 2138 -91 1772 -91 
Q 1169 -91 856 284 
Q 544 659 544 1381 
z
M 1991 3584 
L 1991 3584 
z
" transform="scale(0.015625)"/>
        <path id="DejaVuSans-6c" d="M 603 4863 
L 1178 4863 
L 1178 0 
L 603 0 
L 603 4863 
z
" transform="scale(0.015625)"/>
       </defs>
       <use xlink:href="#DejaVuSans-30"/>
       <use xlink:href="#DejaVuSans-33" x="63.623047"/>
       <use xlink:href="#DejaVuSans-20" x="127.246094"/>
       <use xlink:href="#DejaVuSans-4a" x="159.033203"/>
       <use xlink:href="#DejaVuSans-75" x="188.525391"/>
       <use xlink:href="#DejaVuSans-6c" x="251.904297"/>
      </g>
     </g>
    </g>
    <g id="xtick_2">
     <g id="line2d_4">
      <g>
       <use xlink:href="#m362b97bee9" x="103.79694" y="184.921875" style="stroke: #000000; stroke-width: 0.8"/>
      </g>
     </g>
     <g id="text_2">
      <!-- 04 Jul -->
      <g transform="translate(89.812565 199.520312) scale(0.1 -0.1)">
       <defs>
        <path id="DejaVuSans-34" d="M 2419 4116 
L 825 1625 
L 2419 1625 
L 2419 4116 
z
M 2253 4666 
L 3047 4666 
L 3047 1625 
L 3713 1625 
L 3713 1100 
L 3047 1100 
L 3047 0 
L 2419 0 
L 2419 1100 
L 313 1100 
L 313 1709 
L 2253 4666 
z
" transform="scale(0.015625)"/>
       </defs>
       <use xlink:href="#DejaVuSans-30"/>
       <use xlink:href="#DejaVuSans-34" x="63.623047"/>
       <use xlink:href="#DejaVuSans-20" x="127.246094"/>
       <use xlink:href="#DejaVuSans-4a" x="159.033203"/>
       <use xlink:href="#DejaVuSans-75" x="188.525391"/>
       <use xlink:href="#DejaVuSans-6c" x="251.904297"/>
      </g>
     </g>
    </g>
    <g id="xtick_3">
     <g id="line2d_5">
      <g>
       <use xlink:href="#m362b97bee9" x="149.174393" y="184.921875" style="stroke: #000000; stroke-width: 0.8"/>
      </g>
     </g>
     <g id="text_3">
      <!-- 05 Jul -->
      <g transform="translate(135.190018 199.520312) scale(0.1 -0.1)">
       <defs>
        <path id="DejaVuSans-35" d="M 691 4666 
L 3169 4666 
L 3169 4134 
L 1269 4134 
L 1269 2991 
Q 1406 3038 1543 3061 
Q 1681 3084 1819 3084 
Q 2600 3084 3056 2656 
Q 3513 2228 3513 1497 
Q 3513 744 3044 326 
Q 2575 -91 1722 -91 
Q 1428 -91 1123 -41 
Q 819 9 494 109 
L 494 744 
Q 775 591 1075 516 
Q 1375 441 1709 441 
Q 2250 441 2565 725 
Q 2881 1009 2881 1497 
Q 2881 1984 2565 2268 
Q 2250 2553 1709 2553 
Q 1456 2553 1204 2497 
Q 953 2441 691 2322 
L 691 4666 
z
" transform="scale(0.015625)"/>
       </defs>
       <use xlink:href="#DejaVuSans-30"/>
       <use xlink:href="#DejaVuSans-35" x="63.623047"/>
       <use xlink:href="#DejaVuSans-20" x="127.246094"/>
       <use xlink:href="#DejaVuSans-4a" x="159.033203"/>
       <use xlink:href="#DejaVuSans-75" x="188.525391"/>
       <use xlink:href="#DejaVuSans-6c" x="251.904297"/>
      </g>
     </g>
    </g>
    <g id="xtick_4">
     <g id="line2d_6">
      <g>
       <use xlink:href="#m362b97bee9" x="194.551847" y="184.921875" style="stroke: #000000; stroke-width: 0.8"/>
      </g>
     </g>
     <g id="text_4">
      <!-- 06 Jul -->
      <g transform="translate(180.567472 199.520312) scale(0.1 -0.1)">
       <defs>
        <path id="DejaVuSans-36" d="M 2113 2584 
Q 1688 2584 1439 2293 
Q 1191 2003 1191 1497 
Q 1191 994 1439 701 
Q 1688 409 2113 409 
Q 2538 409 2786 701 
Q 3034 994 3034 1497 
Q 3034 2003 2786 2293 
Q 2538 2584 2113 2584 
z
M 3366 4563 
L 3366 3988 
Q 3128 4100 2886 4159 
Q 2644 4219 2406 4219 
Q 1781 4219 1451 3797 
Q 1122 3375 1075 2522 
Q 1259 2794 1537 2939 
Q 1816 3084 2150 3084 
Q 2853 3084 3261 2657 
Q 3669 2231 3669 1497 
Q 3669 778 3244 343 
Q 2819 -91 2113 -91 
Q 1303 -91 875 529 
Q 447 1150 447 2328 
Q 447 3434 972 4092 
Q 1497 4750 2381 4750 
Q 2619 4750 2861 4703 
Q 3103 4656 3366 4563 
z
" transform="scale(0.015625)"/>
       </defs>
       <use xlink:href="#DejaVuSans-30"/>
       <use xlink:href="#DejaVuSans-36" x="63.623047"/>
       <use xlink:href="#DejaVuSans-20" x="127.246094"/>
       <use xlink:href="#DejaVuSans-4a" x="159.033203"/>
       <use xlink:href="#DejaVuSans-75" x="188.525391"/>
       <use xlink:href="#DejaVuSans-6c" x="251.904297"/>
      </g>
     </g>
    </g>
    <g id="xtick_5">
     <g id="line2d_7">
      <g>
       <use xlink:href="#m362b97bee9" x="239.9293" y="184.921875" style="stroke: #000000; stroke-width: 0.8"/>
      </g>
     </g>
     <g id="text_5">
      <!-- 07 Jul -->
      <g transform="translate(225.944925 199.520312) scale(0.1 -0.1)">
       <defs>
        <path id="DejaVuSans-37" d="M 525 4666 
L 3525 4666 
L 3525 4397 
L 1831 0 
L 1172 0 
L 2766 4134 
L 525 4134 
L 525 4666 
z
" transform="scale(0.015625)"/>
       </defs>
       <use xlink:href="#DejaVuSans-30"/>
       <use xlink:href="#DejaVuSans-37" x="63.623047"/>
       <use xlink:href="#DejaVuSans-20" x="127.246094"/>
       <use xlink:href="#DejaVuSans-4a" x="159.033203"/>
       <use xlink:href="#DejaVuSans-75" x="188.525391"/>
       <use xlink:href="#DejaVuSans-6c" x="251.904297"/>
      </g>
     </g>
    </g>
    <g id="xtick_6">
     <g id="line2d_8">
      <g>
       <use xlink:href="#m362b97bee9" x="285.306754" y="184.921875" style="stroke: #000000; stroke-width: 0.8"/>
      </g>
     </g>
     <g id="text_6">
      <!-- 08 Jul -->
      <g transform="translate(271.322379 199.520312) scale(0.1 -0.1)">
       <defs>
        <path id="DejaVuSans-38" d="M 2034 2216 
Q 1584 2216 1326 1975 
Q 1069 1734 1069 1313 
Q 1069 891 1326 650 
Q 1584 409 2034 409 
Q 2484 409 2743 651 
Q 3003 894 3003 1313 
Q 3003 1734 2745 1975 
Q 2488 2216 2034 2216 
z
M 1403 2484 
Q 997 2584 770 2862 
Q 544 3141 544 3541 
Q 544 4100 942 4425 
Q 1341 4750 2034 4750 
Q 2731 4750 3128 4425 
Q 3525 4100 3525 3541 
Q 3525 3141 3298 2862 
Q 3072 2584 2669 2484 
Q 3125 2378 3379 2068 
Q 3634 1759 3634 1313 
Q 3634 634 3220 271 
Q 2806 -91 2034 -91 
Q 1263 -91 848 271 
Q 434 634 434 1313 
Q 434 1759 690 2068 
Q 947 2378 1403 2484 
z
M 1172 3481 
Q 1172 3119 1398 2916 
Q 1625 2713 2034 2713 
Q 2441 2713 2670 2916 
Q 2900 3119 2900 3481 
Q 2900 3844 2670 4047 
Q 2441 4250 2034 4250 
Q 1625 4250 1398 4047 
Q 1172 3844 1172 3481 
z
" transform="scale(0.015625)"/>
       </defs>
       <use xlink:href="#DejaVuSans-30"/>
       <use xlink:href="#DejaVuSans-38" x="63.623047"/>
       <use xlink:href="#DejaVuSans-20" x="127.246094"/>
       <use xlink:href="#DejaVuSans-4a" x="159.033203"/>
       <use xlink:href="#DejaVuSans-75" x="188.525391"/>
       <use xlink:href="#DejaVuSans-6c" x="251.904297"/>
      </g>
     </g>
    </g>
    <g id="xtick_7">
     <g id="line2d_9">
      <g>
       <use xlink:href="#m362b97bee9" x="330.684207" y="184.921875" style="stroke: #000000; stroke-width: 0.8"/>
      </g>
     </g>
     <g id="text_7">
      <!-- 09 Jul -->
      <g transform="translate(316.699832 199.520312) scale(0.1 -0.1)">
       <defs>
        <path id="DejaVuSans-39" d="M 703 97 
L 703 672 
Q 941 559 1184 500 
Q 1428 441 1663 441 
Q 2288 441 2617 861 
Q 2947 1281 2994 2138 
Q 2813 1869 2534 1725 
Q 2256 1581 1919 1581 
Q 1219 1581 811 2004 
Q 403 2428 403 3163 
Q 403 3881 828 4315 
Q 1253 4750 1959 4750 
Q 2769 4750 3195 4129 
Q 3622 3509 3622 2328 
Q 3622 1225 3098 567 
Q 2575 -91 1691 -91 
Q 1453 -91 1209 -44 
Q 966 3 703 97 
z
M 1959 2075 
Q 2384 2075 2632 2365 
Q 2881 2656 2881 3163 
Q 2881 3666 2632 3958 
Q 2384 4250 1959 4250 
Q 1534 4250 1286 3958 
Q 1038 3666 1038 3163 
Q 1038 2656 1286 2365 
Q 1534 2075 1959 2075 
z
" transform="scale(0.015625)"/>
       </defs>
       <use xlink:href="#DejaVuSans-30"/>
       <use xlink:href="#DejaVuSans-39" x="63.623047"/>
       <use xlink:href="#DejaVuSans-20" x="127.246094"/>
       <use xlink:href="#DejaVuSans-4a" x="159.033203"/>
       <use xlink:href="#DejaVuSans-75" x="188.525391"/>
       <use xlink:href="#DejaVuSans-6c" x="251.904297"/>
      </g>
     </g>
    </g>
   </g>
   <g id="matplotlib.axis_2">
    <g id="ytick_1">
     <g id="text_8">
      <!-- −75% -->
      <g transform="translate(7.2 183.639727) scale(0.1 -0.1)">
       <defs>
        <path id="DejaVuSans-2212" d="M 678 2272 
L 4684 2272 
L 4684 1741 
L 678 1741 
L 678 2272 
z
" transform="scale(0.015625)"/>
        <path id="DejaVuSans-25" d="M 4653 2053 
Q 4381 2053 4226 1822 
Q 4072 1591 4072 1178 
Q 4072 772 4226 539 
Q 4381 306 4653 306 
Q 4919 306 5073 539 
Q 5228 772 5228 1178 
Q 5228 1588 5073 1820 
Q 4919 2053 4653 2053 
z
M 4653 2450 
Q 5147 2450 5437 2106 
Q 5728 1763 5728 1178 
Q 5728 594 5436 251 
Q 5144 -91 4653 -91 
Q 4153 -91 3862 251 
Q 3572 594 3572 1178 
Q 3572 1766 3864 2108 
Q 4156 2450 4653 2450 
z
M 1428 4353 
Q 1159 4353 1004 4120 
Q 850 3888 850 3481 
Q 850 3069 1003 2837 
Q 1156 2606 1428 2606 
Q 1700 2606 1854 2837 
Q 2009 3069 2009 3481 
Q 2009 3884 1853 4118 
Q 1697 4353 1428 4353 
z
M 4250 4750 
L 4750 4750 
L 1831 -91 
L 1331 -91 
L 4250 4750 
z
M 1428 4750 
Q 1922 4750 2215 4408 
Q 2509 4066 2509 3481 
Q 2509 2891 2217 2550 
Q 1925 2209 1428 2209 
Q 931 2209 642 2551 
Q 353 2894 353 3481 
Q 353 4063 643 4406 
Q 934 4750 1428 4750 
z
" transform="scale(0.015625)"/>
       </defs>
       <use xlink:href="#DejaVuSans-2212"/>
       <use xlink:href="#DejaVuSans-37" x="83.789062"/>
       <use xlink:href="#DejaVuSans-35" x="147.412109"/>
       <use xlink:href="#DejaVuSans-25" x="211.035156"/>
      </g>
     </g>
    </g>
    <g id="ytick_2">
     <g id="text_9">
      <!-- −50% -->
      <g transform="translate(7.2 158.232891) scale(0.1 -0.1)">
       <use xlink:href="#DejaVuSans-2212"/>
       <use xlink:href="#DejaVuSans-35" x="83.789062"/>
       <use xlink:href="#DejaVuSans-30" x="147.412109"/>
       <use xlink:href="#DejaVuSans-25" x="211.035156"/>
      </g>
     </g>
    </g>
    <g id="ytick_3">
     <g id="text_10">
      <!-- −25% -->
      <g transform="translate(7.2 132.826055) scale(0.1 -0.1)">
       <defs>
        <path id="DejaVuSans-32" d="M 1228 531 
L 3431 531 
L 3431 0 
L 469 0 
L 469 531 
Q 828 903 1448 1529 
Q 2069 2156 2228 2338 
Q 2531 2678 2651 2914 
Q 2772 3150 2772 3378 
Q 2772 3750 2511 3984 
Q 2250 4219 1831 4219 
Q 1534 4219 1204 4116 
Q 875 4013 500 3803 
L 500 4441 
Q 881 4594 1212 4672 
Q 1544 4750 1819 4750 
Q 2544 4750 2975 4387 
Q 3406 4025 3406 3419 
Q 3406 3131 3298 2873 
Q 3191 2616 2906 2266 
Q 2828 2175 2409 1742 
Q 1991 1309 1228 531 
z
" transform="scale(0.015625)"/>
       </defs>
       <use xlink:href="#DejaVuSans-2212"/>
       <use xlink:href="#DejaVuSans-32" x="83.789062"/>
       <use xlink:href="#DejaVuSans-35" x="147.412109"/>
       <use xlink:href="#DejaVuSans-25" x="211.035156"/>
      </g>
     </g>
    </g>
    <g id="ytick_4">
     <g id="text_11">
      <!-- 0% -->
      <g transform="translate(21.942188 107.419219) scale(0.1 -0.1)">
       <use xlink:href="#DejaVuSans-30"/>
       <use xlink:href="#DejaVuSans-25" x="63.623047"/>
      </g>
     </g>
    </g>
    <g id="ytick_5">
     <g id="text_12">
      <!-- 25% -->
      <g transform="translate(15.579688 82.012383) scale(0.1 -0.1)">
       <use xlink:href="#DejaVuSans-32"/>
       <use xlink:href="#DejaVuSans-35" x="63.623047"/>
       <use xlink:href="#DejaVuSans-25" x="127.246094"/>
      </g>
     </g>
    </g>
    <g id="ytick_6">
     <g id="text_13">
      <!-- 50% -->
      <g transform="translate(15.579688 56.605547) scale(0.1 -0.1)">
       <use xlink:href="#DejaVuSans-35"/>
       <use xlink:href="#DejaVuSans-30" x="63.623047"/>
       <use xlink:href="#DejaVuSans-25" x="127.246094"/>
      </g>
     </g>
    </g>
    <g id="ytick_7">
     <g id="text_14">
      <!-- 75% -->
      <g transform="translate(15.579688 31.198711) scale(0.1 -0.1)">
       <use xlink:href="#DejaVuSans-37"/>
       <use xlink:href="#DejaVuSans-35" x="63.623047"/>
       <use xlink:href="#DejaVuSans-25" x="127.246094"/>
      </g>
     </g>
    </g>
   </g>
   <g id="line2d_10">
    <path d="M 58.419486 128.010562 
L 61.151239 134.766076 
L 63.882992 140.956863 
L 66.614745 146.60164 
L 69.346498 151.719123 
L 72.078251 156.328027 
L 74.810004 160.44707 
L 77.541757 164.094966 
L 80.27351 167.290431 
L 83.005264 170.052182 
L 85.737017 172.398935 
L 88.46877 174.349405 
L 91.200523 175.922309 
L 93.932276 177.136362 
L 96.664029 178.01028 
L 99.395782 178.56278 
L 102.127535 178.812577 
L 104.859288 178.778387 
L 107.591041 178.478927 
L 110.322794 177.932912 
L 113.054547 177.159058 
L 115.7863 176.17608 
L 118.518053 175.002697 
L 122.160391 173.174345 
L 125.802728 171.085128 
L 130.35565 168.174352 
L 135.819156 164.356887 
L 144.014415 158.278806 
L 153.120259 151.570616 
L 160.404933 146.51754 
L 166.779024 142.371229 
L 173.153114 138.511057 
L 178.61662 135.451317 
L 184.080127 132.640029 
L 189.543633 130.094834 
L 195.007139 127.833371 
L 199.560061 126.172345 
L 205.023567 124.428428 
L 210.487073 122.929356 
L 215.950579 121.6464 
L 222.324669 120.384436 
L 229.609344 119.19598 
L 237.804603 118.101148 
L 247.821031 116.98988 
L 257.837459 116.092163 
L 267.853887 115.416874 
L 277.870315 114.973186 
L 287.886743 114.770274 
L 296.992586 114.802465 
L 306.09843 115.048117 
L 315.204273 115.514123 
L 324.310117 116.207376 
L 330.684207 116.831555 
L 330.684207 116.831555 
" clip-path="url(#pa52a6fd346)" style="fill: none; stroke: #0035a0; stroke-width: 3; stroke-linecap: round"/>
   </g>
   <g id="text_15">
    <!-- -13% -->
    <g transform="translate(317.76702 106.831555) scale(0.1 -0.1)">
     <defs>
      <path id="DejaVuSans-2d" d="M 313 2009 
L 1997 2009 
L 1997 1497 
L 313 1497 
L 313 2009 
z
" transform="scale(0.015625)"/>
      <path id="DejaVuSans-31" d="M 794 531 
L 1825 531 
L 1825 4091 
L 703 3866 
L 703 4441 
L 1819 4666 
L 2450 4666 
L 2450 531 
L 3481 531 
L 3481 0 
L 794 0 
L 794 531 
z
" transform="scale(0.015625)"/>
     </defs>
     <use xlink:href="#DejaVuSans-2d"/>
     <use xlink:href="#DejaVuSans-31" x="36.083984"/>
     <use xlink:href="#DejaVuSans-33" x="99.707031"/>
     <use xlink:href="#DejaVuSans-25" x="163.330078"/>
    </g>
   </g>
   <g id="text_16">
    <!-- Old Harbour - population change trends -->
    <g transform="translate(75.125597 16.318125) scale(0.12 -0.12)">
     <defs>
      <path id="DejaVuSans-4f" d="M 2522 4238 
Q 1834 4238 1429 3725 
Q 1025 3213 1025 2328 
Q 1025 1447 1429 934 
Q 1834 422 2522 422 
Q 3209 422 3611 934 
Q 4013 1447 4013 2328 
Q 4013 3213 3611 3725 
Q 3209 4238 2522 4238 
z
M 2522 4750 
Q 3503 4750 4090 4092 
Q 4678 3434 4678 2328 
Q 4678 1225 4090 567 
Q 3503 -91 2522 -91 
Q 1538 -91 948 565 
Q 359 1222 359 2328 
Q 359 3434 948 4092 
Q 1538 4750 2522 4750 
z
" transform="scale(0.015625)"/>
      <path id="DejaVuSans-64" d="M 2906 2969 
L 2906 4863 
L 3481 4863 
L 3481 0 
L 2906 0 
L 2906 525 
Q 2725 213 2448 61 
Q 2172 -91 1784 -91 
Q 1150 -91 751 415 
Q 353 922 353 1747 
Q 353 2572 751 3078 
Q 1150 3584 1784 3584 
Q 2172 3584 2448 3432 
Q 2725 3281 2906 2969 
z
M 947 1747 
Q 947 1113 1208 752 
Q 1469 391 1925 391 
Q 2381 391 2643 752 
Q 2906 1113 2906 1747 
Q 2906 2381 2643 2742 
Q 2381 3103 1925 3103 
Q 1469 3103 1208 2742 
Q 947 2381 947 1747 
z
" transform="scale(0.015625)"/>
      <path id="DejaVuSans-48" d="M 628 4666 
L 1259 4666 
L 1259 2753 
L 3553 2753 
L 3553 4666 
L 4184 4666 
L 4184 0 
L 3553 0 
L 3553 2222 
L 1259 2222 
L 1259 0 
L 628 0 
L 628 4666 
z
" transform="scale(0.015625)"/>
      <path id="DejaVuSans-61" d="M 2194 1759 
Q 1497 1759 1228 1600 
Q 959 1441 959 1056 
Q 959 750 1161 570 
Q 1363 391 1709 391 
Q 2188 391 2477 730 
Q 2766 1069 2766 1631 
L 2766 1759 
L 2194 1759 
z
M 3341 1997 
L 3341 0 
L 2766 0 
L 2766 531 
Q 2569 213 2275 61 
Q 1981 -91 1556 -91 
Q 1019 -91 701 211 
Q 384 513 384 1019 
Q 384 1609 779 1909 
Q 1175 2209 1959 2209 
L 2766 2209 
L 2766 2266 
Q 2766 2663 2505 2880 
Q 2244 3097 1772 3097 
Q 1472 3097 1187 3025 
Q 903 2953 641 2809 
L 641 3341 
Q 956 3463 1253 3523 
Q 1550 3584 1831 3584 
Q 2591 3584 2966 3190 
Q 3341 2797 3341 1997 
z
" transform="scale(0.015625)"/>
      <path id="DejaVuSans-72" d="M 2631 2963 
Q 2534 3019 2420 3045 
Q 2306 3072 2169 3072 
Q 1681 3072 1420 2755 
Q 1159 2438 1159 1844 
L 1159 0 
L 581 0 
L 581 3500 
L 1159 3500 
L 1159 2956 
Q 1341 3275 1631 3429 
Q 1922 3584 2338 3584 
Q 2397 3584 2469 3576 
Q 2541 3569 2628 3553 
L 2631 2963 
z
" transform="scale(0.015625)"/>
      <path id="DejaVuSans-62" d="M 3116 1747 
Q 3116 2381 2855 2742 
Q 2594 3103 2138 3103 
Q 1681 3103 1420 2742 
Q 1159 2381 1159 1747 
Q 1159 1113 1420 752 
Q 1681 391 2138 391 
Q 2594 391 2855 752 
Q 3116 1113 3116 1747 
z
M 1159 2969 
Q 1341 3281 1617 3432 
Q 1894 3584 2278 3584 
Q 2916 3584 3314 3078 
Q 3713 2572 3713 1747 
Q 3713 922 3314 415 
Q 2916 -91 2278 -91 
Q 1894 -91 1617 61 
Q 1341 213 1159 525 
L 1159 0 
L 581 0 
L 581 4863 
L 1159 4863 
L 1159 2969 
z
" transform="scale(0.015625)"/>
      <path id="DejaVuSans-6f" d="M 1959 3097 
Q 1497 3097 1228 2736 
Q 959 2375 959 1747 
Q 959 1119 1226 758 
Q 1494 397 1959 397 
Q 2419 397 2687 759 
Q 2956 1122 2956 1747 
Q 2956 2369 2687 2733 
Q 2419 3097 1959 3097 
z
M 1959 3584 
Q 2709 3584 3137 3096 
Q 3566 2609 3566 1747 
Q 3566 888 3137 398 
Q 2709 -91 1959 -91 
Q 1206 -91 779 398 
Q 353 888 353 1747 
Q 353 2609 779 3096 
Q 1206 3584 1959 3584 
z
" transform="scale(0.015625)"/>
      <path id="DejaVuSans-70" d="M 1159 525 
L 1159 -1331 
L 581 -1331 
L 581 3500 
L 1159 3500 
L 1159 2969 
Q 1341 3281 1617 3432 
Q 1894 3584 2278 3584 
Q 2916 3584 3314 3078 
Q 3713 2572 3713 1747 
Q 3713 922 3314 415 
Q 2916 -91 2278 -91 
Q 1894 -91 1617 61 
Q 1341 213 1159 525 
z
M 3116 1747 
Q 3116 2381 2855 2742 
Q 2594 3103 2138 3103 
Q 1681 3103 1420 2742 
Q 1159 2381 1159 1747 
Q 1159 1113 1420 752 
Q 1681 391 2138 391 
Q 2594 391 2855 752 
Q 3116 1113 3116 1747 
z
" transform="scale(0.015625)"/>
      <path id="DejaVuSans-74" d="M 1172 4494 
L 1172 3500 
L 2356 3500 
L 2356 3053 
L 1172 3053 
L 1172 1153 
Q 1172 725 1289 603 
Q 1406 481 1766 481 
L 2356 481 
L 2356 0 
L 1766 0 
Q 1100 0 847 248 
Q 594 497 594 1153 
L 594 3053 
L 172 3053 
L 172 3500 
L 594 3500 
L 594 4494 
L 1172 4494 
z
" transform="scale(0.015625)"/>
      <path id="DejaVuSans-69" d="M 603 3500 
L 1178 3500 
L 1178 0 
L 603 0 
L 603 3500 
z
M 603 4863 
L 1178 4863 
L 1178 4134 
L 603 4134 
L 603 4863 
z
" transform="scale(0.015625)"/>
      <path id="DejaVuSans-6e" d="M 3513 2113 
L 3513 0 
L 2938 0 
L 2938 2094 
Q 2938 2591 2744 2837 
Q 2550 3084 2163 3084 
Q 1697 3084 1428 2787 
Q 1159 2491 1159 1978 
L 1159 0 
L 581 0 
L 581 3500 
L 1159 3500 
L 1159 2956 
Q 1366 3272 1645 3428 
Q 1925 3584 2291 3584 
Q 2894 3584 3203 3211 
Q 3513 2838 3513 2113 
z
" transform="scale(0.015625)"/>
      <path id="DejaVuSans-63" d="M 3122 3366 
L 3122 2828 
Q 2878 2963 2633 3030 
Q 2388 3097 2138 3097 
Q 1578 3097 1268 2742 
Q 959 2388 959 1747 
Q 959 1106 1268 751 
Q 1578 397 2138 397 
Q 2388 397 2633 464 
Q 2878 531 3122 666 
L 3122 134 
Q 2881 22 2623 -34 
Q 2366 -91 2075 -91 
Q 1284 -91 818 406 
Q 353 903 353 1747 
Q 353 2603 823 3093 
Q 1294 3584 2113 3584 
Q 2378 3584 2631 3529 
Q 2884 3475 3122 3366 
z
" transform="scale(0.015625)"/>
      <path id="DejaVuSans-68" d="M 3513 2113 
L 3513 0 
L 2938 0 
L 2938 2094 
Q 2938 2591 2744 2837 
Q 2550 3084 2163 3084 
Q 1697 3084 1428 2787 
Q 1159 2491 1159 1978 
L 1159 0 
L 581 0 
L 581 4863 
L 1159 4863 
L 1159 2956 
Q 1366 3272 1645 3428 
Q 1925 3584 2291 3584 
Q 2894 3584 3203 3211 
Q 3513 2838 3513 2113 
z
" transform="scale(0.015625)"/>
      <path id="DejaVuSans-67" d="M 2906 1791 
Q 2906 2416 2648 2759 
Q 2391 3103 1925 3103 
Q 1463 3103 1205 2759 
Q 947 2416 947 1791 
Q 947 1169 1205 825 
Q 1463 481 1925 481 
Q 2391 481 2648 825 
Q 2906 1169 2906 1791 
z
M 3481 434 
Q 3481 -459 3084 -895 
Q 2688 -1331 1869 -1331 
Q 1566 -1331 1297 -1286 
Q 1028 -1241 775 -1147 
L 775 -588 
Q 1028 -725 1275 -790 
Q 1522 -856 1778 -856 
Q 2344 -856 2625 -561 
Q 2906 -266 2906 331 
L 2906 616 
Q 2728 306 2450 153 
Q 2172 0 1784 0 
Q 1141 0 747 490 
Q 353 981 353 1791 
Q 353 2603 747 3093 
Q 1141 3584 1784 3584 
Q 2172 3584 2450 3431 
Q 2728 3278 2906 2969 
L 2906 3500 
L 3481 3500 
L 3481 434 
z
" transform="scale(0.015625)"/>
      <path id="DejaVuSans-65" d="M 3597 1894 
L 3597 1613 
L 953 1613 
Q 991 1019 1311 708 
Q 1631 397 2203 397 
Q 2534 397 2845 478 
Q 3156 559 3463 722 
L 3463 178 
Q 3153 47 2828 -22 
Q 2503 -91 2169 -91 
Q 1331 -91 842 396 
Q 353 884 353 1716 
Q 353 2575 817 3079 
Q 1281 3584 2069 3584 
Q 2775 3584 3186 3129 
Q 3597 2675 3597 1894 
z
M 3022 2063 
Q 3016 2534 2758 2815 
Q 2500 3097 2075 3097 
Q 1594 3097 1305 2825 
Q 1016 2553 972 2059 
L 3022 2063 
z
" transform="scale(0.015625)"/>
      <path id="DejaVuSans-73" d="M 2834 3397 
L 2834 2853 
Q 2591 2978 2328 3040 
Q 2066 3103 1784 3103 
Q 1356 3103 1142 2972 
Q 928 2841 928 2578 
Q 928 2378 1081 2264 
Q 1234 2150 1697 2047 
L 1894 2003 
Q 2506 1872 2764 1633 
Q 3022 1394 3022 966 
Q 3022 478 2636 193 
Q 2250 -91 1575 -91 
Q 1294 -91 989 -36 
Q 684 19 347 128 
L 347 722 
Q 666 556 975 473 
Q 1284 391 1588 391 
Q 1994 391 2212 530 
Q 2431 669 2431 922 
Q 2431 1156 2273 1281 
Q 2116 1406 1581 1522 
L 1381 1569 
Q 847 1681 609 1914 
Q 372 2147 372 2553 
Q 372 3047 722 3315 
Q 1072 3584 1716 3584 
Q 2034 3584 2315 3537 
Q 2597 3491 2834 3397 
z
" transform="scale(0.015625)"/>
     </defs>
     <use xlink:href="#DejaVuSans-4f"/>
     <use xlink:href="#DejaVuSans-6c" x="78.710938"/>
     <use xlink:href="#DejaVuSans-64" x="106.494141"/>
     <use xlink:href="#DejaVuSans-20" x="169.970703"/>
     <use xlink:href="#DejaVuSans-48" x="201.757812"/>
     <use xlink:href="#DejaVuSans-61" x="276.953125"/>
     <use xlink:href="#DejaVuSans-72" x="338.232422"/>
     <use xlink:href="#DejaVuSans-62" x="379.345703"/>
     <use xlink:href="#DejaVuSans-6f" x="442.822266"/>
     <use xlink:href="#DejaVuSans-75" x="504.003906"/>
     <use xlink:href="#DejaVuSans-72" x="567.382812"/>
     <use xlink:href="#DejaVuSans-20" x="608.496094"/>
     <use xlink:href="#DejaVuSans-2d" x="640.283203"/>
     <use xlink:href="#DejaVuSans-20" x="676.367188"/>
     <use xlink:href="#DejaVuSans-70" x="708.154297"/>
     <use xlink:href="#DejaVuSans-6f" x="771.630859"/>
     <use xlink:href="#DejaVuSans-70" x="832.8125"/>
     <use xlink:href="#DejaVuSans-75" x="896.289062"/>
     <use xlink:href="#DejaVuSans-6c" x="959.667969"/>
     <use xlink:href="#DejaVuSans-61" x="987.451172"/>
     <use xlink:href="#DejaVuSans-74" x="1048.730469"/>
     <use xlink:href="#DejaVuSans-69" x="1087.939453"/>
     <use xlink:href="#DejaVuSans-6f" x="1115.722656"/>
     <use xlink:href="#DejaVuSans-6e" x="1176.904297"/>
     <use xlink:href="#DejaVuSans-20" x="1240.283203"/>
     <use xlink:href="#DejaVuSans-63" x="1272.070312"/>
     <use xlink:href="#DejaVuSans-68" x="1327.050781"/>
     <use xlink:href="#DejaVuSans-61" x="1390.429688"/>
     <use xlink:href="#DejaVuSans-6e" x="1451.708984"/>
     <use xlink:href="#DejaVuSans-67" x="1515.087891"/>
     <use xlink:href="#DejaVuSans-65" x="1578.564453"/>
     <use xlink:href="#DejaVuSans-20" x="1640.087891"/>
     <use xlink:href="#DejaVuSans-74" x="1671.875"/>
     <use xlink:href="#DejaVuSans-72" x="1711.083984"/>
     <use xlink:href="#DejaVuSans-65" x="1749.947266"/>
     <use xlink:href="#DejaVuSans-6e" x="1811.470703"/>
     <use xlink:href="#DejaVuSans-64" x="1874.849609"/>
     <use xlink:href="#DejaVuSans-73" x="1938.326172"/>
    </g>
   </g>
  </g>
 </g>
 <defs>
  <clipPath id="pa52a6fd346">
   <rect x="44.80625" y="22.318125" width="299.491193" height="162.60375"/>
  </clipPath>
 </defs>
</svg>
