<?xml version="1.0" encoding="utf-8" standalone="no"?>
<!DOCTYPE svg PUBLIC "-//W3C//DTD SVG 1.1//EN"
  "http://www.w3.org/Graphics/SVG/1.1/DTD/svg11.dtd">
<svg xmlns:xlink="http://www.w3.org/1999/xlink" width="351.868582pt" height="208.8pt" viewBox="0 0 351.868582 208.8" xmlns="http://www.w3.org/2000/svg" version="1.1">
 <metadata>
  <rdf:RDF xmlns:dc="http://purl.org/dc/elements/1.1/" xmlns:cc="http://creativecommons.org/ns#" xmlns:rdf="http://www.w3.org/1999/02/22-rdf-syntax-ns#">
   <cc:Work>
    <dc:type rdf:resource="http://purl.org/dc/dcmitype/StillImage"/>
    <dc:date>2024-07-10T13:52:02.205906</dc:date>
    <dc:format>image/svg+xml</dc:format>
    <dc:creator>
     <cc:Agent>
      <dc:title>Matplotlib v3.9.0, https://matplotlib.org/</dc:title>
     </cc:Agent>
    </dc:creator>
   </cc:Work>
  </rdf:RDF>
 </metadata>
 <defs>
  <style type="text/css">*{stroke-linejoin: round; stroke-linecap: butt}</style>
 </defs>
 <g id="figure_1">
  <g id="patch_1">
   <path d="M 0 208.8 
L 351.868582 208.8 
L 351.868582 0 
L 0 0 
L 0 208.8 
z
" style="fill: none"/>
  </g>
  <g id="axes_1">
   <g id="patch_2">
    <path d="M 44.80625 184.921875 
L 344.297443 184.921875 
L 344.297443 22.318125 
L 44.80625 22.318125 
L 44.80625 184.921875 
z
" style="fill: none; opacity: 0"/>
   </g>
   <g id="PolyCollection_1"/>
   <g id="PolyCollection_2">
    <defs>
     <path id="m38e161f02d" d="M 58.419486 -86.751575 
L 58.419486 -86.751575 
L 59.33007 -87.088005 
L 60.240655 -87.415094 
L 61.151239 -87.732899 
L 62.061823 -88.04148 
L 62.972408 -88.340895 
L 63.882992 -88.631204 
L 64.793577 -88.912465 
L 65.704161 -89.184736 
L 66.614745 -89.448077 
L 67.52533 -89.702546 
L 68.435914 -89.948202 
L 69.346498 -90.185104 
L 70.257083 -90.413311 
L 71.167667 -90.632881 
L 72.078251 -90.843874 
L 72.988836 -91.046347 
L 73.89942 -91.24036 
L 74.810004 -91.425971 
L 75.720589 -91.60324 
L 76.631173 -91.772225 
L 77.541757 -91.932985 
L 78.452342 -92.085578 
L 79.362926 -92.230064 
L 80.27351 -92.3665 
L 81.184095 -92.494947 
L 82.094679 -92.615462 
L 83.005264 -92.728105 
L 83.915848 -92.832934 
L 84.826432 -92.930009 
L 85.737017 -93.019387 
L 86.647601 -93.101127 
L 87.558185 -93.175289 
L 88.46877 -93.241931 
L 89.379354 -93.301112 
L 90.289938 -93.35289 
L 91.200523 -93.397325 
L 92.111107 -93.434476 
L 93.021691 -93.4644 
L 93.932276 -93.487157 
L 94.84286 -93.502805 
L 95.753444 -93.511404 
L 96.664029 -93.513012 
L 97.574613 -93.507688 
L 98.485198 -93.495491 
L 99.395782 -93.476479 
L 100.306366 -93.450711 
L 101.216951 -93.418246 
L 102.127535 -93.379143 
L 103.038119 -93.33346 
L 103.948704 -93.281256 
L 104.859288 -93.222591 
L 105.769872 -93.157523 
L 106.680457 -93.08611 
L 107.591041 -93.008411 
L 108.501625 -92.924486 
L 109.41221 -92.834393 
L 110.322794 -92.73819 
L 111.233378 -92.635937 
L 112.143963 -92.527692 
L 113.054547 -92.413514 
L 113.965131 -92.293462 
L 114.875716 -92.167595 
L 115.7863 -92.035971 
L 116.696885 -91.898649 
L 117.607469 -91.755688 
L 118.518053 -91.607146 
L 119.428638 -91.453083 
L 120.339222 -91.293558 
L 121.249806 -91.128628 
L 122.160391 -90.958353 
L 123.070975 -90.782792 
L 123.981559 -90.602003 
L 124.892144 -90.416045 
L 125.802728 -90.224977 
L 126.713312 -90.028858 
L 127.623897 -89.827746 
L 128.534481 -89.621701 
L 129.445065 -89.41078 
L 130.35565 -89.195043 
L 131.266234 -88.974549 
L 132.176819 -88.749356 
L 133.087403 -88.519523 
L 133.997987 -88.285108 
L 134.908572 -88.046172 
L 135.819156 -87.802772 
L 136.72974 -87.554967 
L 137.640325 -87.302816 
L 138.550909 -87.046378 
L 139.461493 -86.785711 
L 140.372078 -86.520875 
L 141.282662 -86.251927 
L 142.193246 -85.978928 
L 143.103831 -85.701935 
L 144.014415 -85.421007 
L 144.924999 -85.136204 
L 145.835584 -84.847584 
L 146.746168 -84.555205 
L 147.656752 -84.259127 
L 148.567337 -83.959407 
L 149.477921 -83.656106 
L 150.388506 -83.349282 
L 151.29909 -83.038994 
L 152.209674 -82.725299 
L 153.120259 -82.408258 
L 154.030843 -82.087929 
L 154.941427 -81.76437 
L 155.852012 -81.437641 
L 156.762596 -81.1078 
L 157.67318 -80.774907 
L 158.583765 -80.439018 
L 159.494349 -80.100195 
L 160.404933 -79.758495 
L 161.315518 -79.413977 
L 162.226102 -79.066699 
L 163.136686 -78.716722 
L 164.047271 -78.364102 
L 164.957855 -78.0089 
L 165.86844 -77.651174 
L 166.779024 -77.290983 
L 167.689608 -76.928385 
L 168.600193 -76.56344 
L 169.510777 -76.196206 
L 170.421361 -75.826741 
L 171.331946 -75.455105 
L 172.24253 -75.081357 
L 173.153114 -74.705554 
L 174.063699 -74.327757 
L 174.974283 -73.948023 
L 175.884867 -73.566412 
L 176.795452 -73.182982 
L 177.706036 -72.797792 
L 178.61662 -72.410901 
L 179.527205 -72.022368 
L 180.437789 -71.63225 
L 181.348373 -71.240609 
L 182.258958 -70.8475 
L 183.169542 -70.452985 
L 184.080127 -70.057121 
L 184.990711 -69.659968 
L 185.901295 -69.261583 
L 186.81188 -68.862026 
L 187.722464 -68.461356 
L 188.633048 -68.059631 
L 189.543633 -67.65691 
L 190.454217 -67.253252 
L 191.364801 -66.848716 
L 192.275386 -66.44336 
L 193.18597 -66.037244 
L 194.096554 -65.630425 
L 195.007139 -65.222963 
L 195.917723 -64.814917 
L 196.828307 -64.406345 
L 197.738892 -63.997306 
L 198.649476 -63.587859 
L 199.560061 -63.178062 
L 200.470645 -62.767975 
L 201.381229 -62.357656 
L 202.291814 -61.947165 
L 203.202398 -61.536558 
L 204.112982 -61.125897 
L 205.023567 -60.715239 
L 205.934151 -60.304642 
L 206.844735 -59.894167 
L 207.75532 -59.483871 
L 208.665904 -59.073814 
L 209.576488 -58.664053 
L 210.487073 -58.254649 
L 211.397657 -57.845659 
L 212.308241 -57.437143 
L 213.218826 -57.029159 
L 214.12941 -56.621766 
L 215.039994 -56.215023 
L 215.950579 -55.808989 
L 216.861163 -55.403722 
L 217.771748 -54.999281 
L 218.682332 -54.595725 
L 219.592916 -54.193112 
L 220.503501 -53.791502 
L 221.414085 -53.390953 
L 222.324669 -52.991525 
L 223.235254 -52.593275 
L 224.145838 -52.196262 
L 225.056422 -51.800546 
L 225.967007 -51.406185 
L 226.877591 -51.013238 
L 227.788175 -50.621764 
L 228.69876 -50.231821 
L 229.609344 -49.843468 
L 230.519928 -49.456764 
L 231.430513 -49.071768 
L 232.341097 -48.688539 
L 233.251682 -48.307134 
L 234.162266 -47.927614 
L 235.07285 -47.550037 
L 235.983435 -47.174461 
L 236.894019 -46.800946 
L 237.804603 -46.42955 
L 238.715188 -46.060331 
L 239.625772 -45.69335 
L 240.536356 -45.328664 
L 241.446941 -44.966332 
L 242.357525 -44.606414 
L 243.268109 -44.248967 
L 244.178694 -43.894051 
L 245.089278 -43.541724 
L 245.999862 -43.192045 
L 246.910447 -42.845073 
L 247.821031 -42.500867 
L 248.731616 -42.159486 
L 249.6422 -41.820987 
L 250.552784 -41.485431 
L 251.463369 -41.152875 
L 252.373953 -40.823379 
L 253.284537 -40.497002 
L 254.195122 -40.173801 
L 255.105706 -39.853837 
L 256.01629 -39.537167 
L 256.926875 -39.22385 
L 257.837459 -38.913946 
L 258.748043 -38.607513 
L 259.658628 -38.304609 
L 260.569212 -38.005294 
L 261.479796 -37.709626 
L 262.390381 -37.417665 
L 263.300965 -37.129468 
L 264.211549 -36.845095 
L 265.122134 -36.564604 
L 266.032718 -36.288055 
L 266.943303 -36.015505 
L 267.853887 -35.747015 
L 268.764471 -35.482641 
L 269.675056 -35.222444 
L 270.58564 -34.966482 
L 271.496224 -34.714814 
L 272.406809 -34.467499 
L 273.317393 -34.224595 
L 274.227977 -33.986161 
L 275.138562 -33.752256 
L 276.049146 -33.522939 
L 276.95973 -33.298268 
L 277.870315 -33.078302 
L 278.780899 -32.863101 
L 279.691483 -32.652722 
L 280.602068 -32.447225 
L 281.512652 -32.246669 
L 282.423237 -32.051111 
L 283.333821 -31.860611 
L 284.244405 -31.675228 
L 285.15499 -31.495021 
L 286.065574 -31.320047 
L 286.976158 -31.150367 
L 287.886743 -30.986039 
L 288.797327 -30.827121 
L 289.707911 -30.673672 
L 290.618496 -30.525752 
L 291.52908 -30.383418 
L 292.439664 -30.24673 
L 293.350249 -30.115746 
L 294.260833 -29.990526 
L 295.171417 -29.871128 
L 296.082002 -29.75761 
L 296.992586 -29.650032 
L 297.90317 -29.548452 
L 298.813755 -29.45293 
L 299.724339 -29.363523 
L 300.634924 -29.280291 
L 301.545508 -29.203292 
L 302.456092 -29.132585 
L 303.366677 -29.068229 
L 304.277261 -29.010284 
L 305.187845 -28.958806 
L 306.09843 -28.913856 
L 307.009014 -28.875492 
L 307.919598 -28.843773 
L 308.830183 -28.818757 
L 309.740767 -28.800504 
L 310.651351 -28.789071 
L 311.561936 -28.784519 
L 312.47252 -28.786906 
L 313.383104 -28.79629 
L 314.293689 -28.81273 
L 315.204273 -28.836285 
L 316.114858 -28.867014 
L 317.025442 -28.904976 
L 317.936026 -28.950229 
L 318.846611 -29.002832 
L 319.757195 -29.062844 
L 320.667779 -29.130323 
L 321.578364 -29.205329 
L 322.488948 -29.287921 
L 323.399532 -29.378156 
L 324.310117 -29.476094 
L 325.220701 -29.581794 
L 326.131285 -29.695313 
L 327.04187 -29.816712 
L 327.952454 -29.946049 
L 328.863038 -30.083383 
L 329.773623 -30.228772 
L 330.684207 -30.382275 
L 330.684207 -30.382275 
L 330.684207 -105.18 
L 329.773623 -105.18 
L 328.863038 -105.18 
L 327.952454 -105.18 
L 327.04187 -105.18 
L 326.131285 -105.18 
L 325.220701 -105.18 
L 324.310117 -105.18 
L 323.399532 -105.18 
L 322.488948 -105.18 
L 321.578364 -105.18 
L 320.667779 -105.18 
L 319.757195 -105.18 
L 318.846611 -105.18 
L 317.936026 -105.18 
L 317.025442 -105.18 
L 316.114858 -105.18 
L 315.204273 -105.18 
L 314.293689 -105.18 
L 313.383104 -105.18 
L 312.47252 -105.18 
L 311.561936 -105.18 
L 310.651351 -105.18 
L 309.740767 -105.18 
L 308.830183 -105.18 
L 307.919598 -105.18 
L 307.009014 -105.18 
L 306.09843 -105.18 
L 305.187845 -105.18 
L 304.277261 -105.18 
L 303.366677 -105.18 
L 302.456092 -105.18 
L 301.545508 -105.18 
L 300.634924 -105.18 
L 299.724339 -105.18 
L 298.813755 -105.18 
L 297.90317 -105.18 
L 296.992586 -105.18 
L 296.082002 -105.18 
L 295.171417 -105.18 
L 294.260833 -105.18 
L 293.350249 -105.18 
L 292.439664 -105.18 
L 291.52908 -105.18 
L 290.618496 -105.18 
L 289.707911 -105.18 
L 288.797327 -105.18 
L 287.886743 -105.18 
L 286.976158 -105.18 
L 286.065574 -105.18 
L 285.15499 -105.18 
L 284.244405 -105.18 
L 283.333821 -105.18 
L 282.423237 -105.18 
L 281.512652 -105.18 
L 280.602068 -105.18 
L 279.691483 -105.18 
L 278.780899 -105.18 
L 277.870315 -105.18 
L 276.95973 -105.18 
L 276.049146 -105.18 
L 275.138562 -105.18 
L 274.227977 -105.18 
L 273.317393 -105.18 
L 272.406809 -105.18 
L 271.496224 -105.18 
L 270.58564 -105.18 
L 269.675056 -105.18 
L 268.764471 -105.18 
L 267.853887 -105.18 
L 266.943303 -105.18 
L 266.032718 -105.18 
L 265.122134 -105.18 
L 264.211549 -105.18 
L 263.300965 -105.18 
L 262.390381 -105.18 
L 261.479796 -105.18 
L 260.569212 -105.18 
L 259.658628 -105.18 
L 258.748043 -105.18 
L 257.837459 -105.18 
L 256.926875 -105.18 
L 256.01629 -105.18 
L 255.105706 -105.18 
L 254.195122 -105.18 
L 253.284537 -105.18 
L 252.373953 -105.18 
L 251.463369 -105.18 
L 250.552784 -105.18 
L 249.6422 -105.18 
L 248.731616 -105.18 
L 247.821031 -105.18 
L 246.910447 -105.18 
L 245.999862 -105.18 
L 245.089278 -105.18 
L 244.178694 -105.18 
L 243.268109 -105.18 
L 242.357525 -105.18 
L 241.446941 -105.18 
L 240.536356 -105.18 
L 239.625772 -105.18 
L 238.715188 -105.18 
L 237.804603 -105.18 
L 236.894019 -105.18 
L 235.983435 -105.18 
L 235.07285 -105.18 
L 234.162266 -105.18 
L 233.251682 -105.18 
L 232.341097 -105.18 
L 231.430513 -105.18 
L 230.519928 -105.18 
L 229.609344 -105.18 
L 228.69876 -105.18 
L 227.788175 -105.18 
L 226.877591 -105.18 
L 225.967007 -105.18 
L 225.056422 -105.18 
L 224.145838 -105.18 
L 223.235254 -105.18 
L 222.324669 -105.18 
L 221.414085 -105.18 
L 220.503501 -105.18 
L 219.592916 -105.18 
L 218.682332 -105.18 
L 217.771748 -105.18 
L 216.861163 -105.18 
L 215.950579 -105.18 
L 215.039994 -105.18 
L 214.12941 -105.18 
L 213.218826 -105.18 
L 212.308241 -105.18 
L 211.397657 -105.18 
L 210.487073 -105.18 
L 209.576488 -105.18 
L 208.665904 -105.18 
L 207.75532 -105.18 
L 206.844735 -105.18 
L 205.934151 -105.18 
L 205.023567 -105.18 
L 204.112982 -105.18 
L 203.202398 -105.18 
L 202.291814 -105.18 
L 201.381229 -105.18 
L 200.470645 -105.18 
L 199.560061 -105.18 
L 198.649476 -105.18 
L 197.738892 -105.18 
L 196.828307 -105.18 
L 195.917723 -105.18 
L 195.007139 -105.18 
L 194.096554 -105.18 
L 193.18597 -105.18 
L 192.275386 -105.18 
L 191.364801 -105.18 
L 190.454217 -105.18 
L 189.543633 -105.18 
L 188.633048 -105.18 
L 187.722464 -105.18 
L 186.81188 -105.18 
L 185.901295 -105.18 
L 184.990711 -105.18 
L 184.080127 -105.18 
L 183.169542 -105.18 
L 182.258958 -105.18 
L 181.348373 -105.18 
L 180.437789 -105.18 
L 179.527205 -105.18 
L 178.61662 -105.18 
L 177.706036 -105.18 
L 176.795452 -105.18 
L 175.884867 -105.18 
L 174.974283 -105.18 
L 174.063699 -105.18 
L 173.153114 -105.18 
L 172.24253 -105.18 
L 171.331946 -105.18 
L 170.421361 -105.18 
L 169.510777 -105.18 
L 168.600193 -105.18 
L 167.689608 -105.18 
L 166.779024 -105.18 
L 165.86844 -105.18 
L 164.957855 -105.18 
L 164.047271 -105.18 
L 163.136686 -105.18 
L 162.226102 -105.18 
L 161.315518 -105.18 
L 160.404933 -105.18 
L 159.494349 -105.18 
L 158.583765 -105.18 
L 157.67318 -105.18 
L 156.762596 -105.18 
L 155.852012 -105.18 
L 154.941427 -105.18 
L 154.030843 -105.18 
L 153.120259 -105.18 
L 152.209674 -105.18 
L 151.29909 -105.18 
L 150.388506 -105.18 
L 149.477921 -105.18 
L 148.567337 -105.18 
L 147.656752 -105.18 
L 146.746168 -105.18 
L 145.835584 -105.18 
L 144.924999 -105.18 
L 144.014415 -105.18 
L 143.103831 -105.18 
L 142.193246 -105.18 
L 141.282662 -105.18 
L 140.372078 -105.18 
L 139.461493 -105.18 
L 138.550909 -105.18 
L 137.640325 -105.18 
L 136.72974 -105.18 
L 135.819156 -105.18 
L 134.908572 -105.18 
L 133.997987 -105.18 
L 133.087403 -105.18 
L 132.176819 -105.18 
L 131.266234 -105.18 
L 130.35565 -105.18 
L 129.445065 -105.18 
L 128.534481 -105.18 
L 127.623897 -105.18 
L 126.713312 -105.18 
L 125.802728 -105.18 
L 124.892144 -105.18 
L 123.981559 -105.18 
L 123.070975 -105.18 
L 122.160391 -105.18 
L 121.249806 -105.18 
L 120.339222 -105.18 
L 119.428638 -105.18 
L 118.518053 -105.18 
L 117.607469 -105.18 
L 116.696885 -105.18 
L 115.7863 -105.18 
L 114.875716 -105.18 
L 113.965131 -105.18 
L 113.054547 -105.18 
L 112.143963 -105.18 
L 111.233378 -105.18 
L 110.322794 -105.18 
L 109.41221 -105.18 
L 108.501625 -105.18 
L 107.591041 -105.18 
L 106.680457 -105.18 
L 105.769872 -105.18 
L 104.859288 -105.18 
L 103.948704 -105.18 
L 103.038119 -105.18 
L 102.127535 -105.18 
L 101.216951 -105.18 
L 100.306366 -105.18 
L 99.395782 -105.18 
L 98.485198 -105.18 
L 97.574613 -105.18 
L 96.664029 -105.18 
L 95.753444 -105.18 
L 94.84286 -105.18 
L 93.932276 -105.18 
L 93.021691 -105.18 
L 92.111107 -105.18 
L 91.200523 -105.18 
L 90.289938 -105.18 
L 89.379354 -105.18 
L 88.46877 -105.18 
L 87.558185 -105.18 
L 86.647601 -105.18 
L 85.737017 -105.18 
L 84.826432 -105.18 
L 83.915848 -105.18 
L 83.005264 -105.18 
L 82.094679 -105.18 
L 81.184095 -105.18 
L 80.27351 -105.18 
L 79.362926 -105.18 
L 78.452342 -105.18 
L 77.541757 -105.18 
L 76.631173 -105.18 
L 75.720589 -105.18 
L 74.810004 -105.18 
L 73.89942 -105.18 
L 72.988836 -105.18 
L 72.078251 -105.18 
L 71.167667 -105.18 
L 70.257083 -105.18 
L 69.346498 -105.18 
L 68.435914 -105.18 
L 67.52533 -105.18 
L 66.614745 -105.18 
L 65.704161 -105.18 
L 64.793577 -105.18 
L 63.882992 -105.18 
L 62.972408 -105.18 
L 62.061823 -105.18 
L 61.151239 -105.18 
L 60.240655 -105.18 
L 59.33007 -105.18 
L 58.419486 -105.18 
z
" style="stroke: #ed6b4d; stroke-opacity: 0.1"/>
    </defs>
    <g clip-path="url(#p278141df1e)">
     <use xlink:href="#m38e161f02d" x="0" y="208.8" style="fill: #ed6b4d; fill-opacity: 0.1; stroke: #ed6b4d; stroke-opacity: 0.1"/>
    </g>
   </g>
   <g id="line2d_1">
    <defs>
     <path id="mbf29db3e5f" d="M 0 3 
C 0.795609 3 1.55874 2.683901 2.12132 2.12132 
C 2.683901 1.55874 3 0.795609 3 0 
C 3 -0.795609 2.683901 -1.55874 2.12132 -2.12132 
C 1.55874 -2.683901 0.795609 -3 0 -3 
C -0.795609 -3 -1.55874 -2.683901 -2.12132 -2.12132 
C -2.683901 -1.55874 -3 -0.795609 -3 0 
C -3 0.795609 -2.683901 1.55874 -2.12132 2.12132 
C -1.55874 2.683901 -0.795609 3 0 3 
z
" style="stroke: #0035a0"/>
    </defs>
    <g clip-path="url(#p278141df1e)">
     <use xlink:href="#mbf29db3e5f" x="58.419486" y="122.048425" style="fill: #0035a0; stroke: #0035a0"/>
     <use xlink:href="#mbf29db3e5f" x="88.671122" y="115.544275" style="fill: #0035a0; stroke: #0035a0"/>
     <use xlink:href="#mbf29db3e5f" x="300.432571" y="179.50175" style="fill: #0035a0; stroke: #0035a0"/>
     <use xlink:href="#mbf29db3e5f" x="330.684207" y="178.417725" style="fill: #0035a0; stroke: #0035a0"/>
    </g>
   </g>
   <g id="line2d_2">
    <path d="M 44.80625 103.62 
L 344.297443 103.62 
" clip-path="url(#p278141df1e)" style="fill: none; stroke: #808080; stroke-width: 0.8; stroke-linecap: square"/>
   </g>
   <g id="matplotlib.axis_1">
    <g id="xtick_1">
     <g id="line2d_3">
      <defs>
       <path id="me2f0499e25" d="M 0 0 
L 0 3.5 
" style="stroke: #000000; stroke-width: 0.8"/>
      </defs>
      <g>
       <use xlink:href="#me2f0499e25" x="58.419486" y="184.921875" style="stroke: #000000; stroke-width: 0.8"/>
      </g>
     </g>
     <g id="text_1">
      <!-- 30 Jun -->
      <g transform="translate(42.655424 199.520312) scale(0.1 -0.1)">
       <defs>
        <path id="DejaVuSans-33" d="M 2597 2516 
Q 3050 2419 3304 2112 
Q 3559 1806 3559 1356 
Q 3559 666 3084 287 
Q 2609 -91 1734 -91 
Q 1441 -91 1130 -33 
Q 819 25 488 141 
L 488 750 
Q 750 597 1062 519 
Q 1375 441 1716 441 
Q 2309 441 2620 675 
Q 2931 909 2931 1356 
Q 2931 1769 2642 2001 
Q 2353 2234 1838 2234 
L 1294 2234 
L 1294 2753 
L 1863 2753 
Q 2328 2753 2575 2939 
Q 2822 3125 2822 3475 
Q 2822 3834 2567 4026 
Q 2313 4219 1838 4219 
Q 1578 4219 1281 4162 
Q 984 4106 628 3988 
L 628 4550 
Q 988 4650 1302 4700 
Q 1616 4750 1894 4750 
Q 2613 4750 3031 4423 
Q 3450 4097 3450 3541 
Q 3450 3153 3228 2886 
Q 3006 2619 2597 2516 
z
" transform="scale(0.015625)"/>
        <path id="DejaVuSans-30" d="M 2034 4250 
Q 1547 4250 1301 3770 
Q 1056 3291 1056 2328 
Q 1056 1369 1301 889 
Q 1547 409 2034 409 
Q 2525 409 2770 889 
Q 3016 1369 3016 2328 
Q 3016 3291 2770 3770 
Q 2525 4250 2034 4250 
z
M 2034 4750 
Q 2819 4750 3233 4129 
Q 3647 3509 3647 2328 
Q 3647 1150 3233 529 
Q 2819 -91 2034 -91 
Q 1250 -91 836 529 
Q 422 1150 422 2328 
Q 422 3509 836 4129 
Q 1250 4750 2034 4750 
z
" transform="scale(0.015625)"/>
        <path id="DejaVuSans-20" transform="scale(0.015625)"/>
        <path id="DejaVuSans-4a" d="M 628 4666 
L 1259 4666 
L 1259 325 
Q 1259 -519 939 -900 
Q 619 -1281 -91 -1281 
L -331 -1281 
L -331 -750 
L -134 -750 
Q 284 -750 456 -515 
Q 628 -281 628 325 
L 628 4666 
z
" transform="scale(0.015625)"/>
        <path id="DejaVuSans-75" d="M 544 1381 
L 544 3500 
L 1119 3500 
L 1119 1403 
Q 1119 906 1312 657 
Q 1506 409 1894 409 
Q 2359 409 2629 706 
Q 2900 1003 2900 1516 
L 2900 3500 
L 3475 3500 
L 3475 0 
L 2900 0 
L 2900 538 
Q 2691 219 2414 64 
Q 2138 -91 1772 -91 
Q 1169 -91 856 284 
Q 544 659 544 1381 
z
M 1991 3584 
L 1991 3584 
z
" transform="scale(0.015625)"/>
        <path id="DejaVuSans-6e" d="M 3513 2113 
L 3513 0 
L 2938 0 
L 2938 2094 
Q 2938 2591 2744 2837 
Q 2550 3084 2163 3084 
Q 1697 3084 1428 2787 
Q 1159 2491 1159 1978 
L 1159 0 
L 581 0 
L 581 3500 
L 1159 3500 
L 1159 2956 
Q 1366 3272 1645 3428 
Q 1925 3584 2291 3584 
Q 2894 3584 3203 3211 
Q 3513 2838 3513 2113 
z
" transform="scale(0.015625)"/>
       </defs>
       <use xlink:href="#DejaVuSans-33"/>
       <use xlink:href="#DejaVuSans-30" x="63.623047"/>
       <use xlink:href="#DejaVuSans-20" x="127.246094"/>
       <use xlink:href="#DejaVuSans-4a" x="159.033203"/>
       <use xlink:href="#DejaVuSans-75" x="188.525391"/>
       <use xlink:href="#DejaVuSans-6e" x="251.904297"/>
      </g>
     </g>
    </g>
    <g id="xtick_2">
     <g id="line2d_4">
      <g>
       <use xlink:href="#me2f0499e25" x="88.671122" y="184.921875" style="stroke: #000000; stroke-width: 0.8"/>
      </g>
     </g>
     <g id="text_2">
      <!-- 01 Jul -->
      <g transform="translate(74.686747 199.520312) scale(0.1 -0.1)">
       <defs>
        <path id="DejaVuSans-31" d="M 794 531 
L 1825 531 
L 1825 4091 
L 703 3866 
L 703 4441 
L 1819 4666 
L 2450 4666 
L 2450 531 
L 3481 531 
L 3481 0 
L 794 0 
L 794 531 
z
" transform="scale(0.015625)"/>
        <path id="DejaVuSans-6c" d="M 603 4863 
L 1178 4863 
L 1178 0 
L 603 0 
L 603 4863 
z
" transform="scale(0.015625)"/>
       </defs>
       <use xlink:href="#DejaVuSans-30"/>
       <use xlink:href="#DejaVuSans-31" x="63.623047"/>
       <use xlink:href="#DejaVuSans-20" x="127.246094"/>
       <use xlink:href="#DejaVuSans-4a" x="159.033203"/>
       <use xlink:href="#DejaVuSans-75" x="188.525391"/>
       <use xlink:href="#DejaVuSans-6c" x="251.904297"/>
      </g>
     </g>
    </g>
    <g id="xtick_3">
     <g id="line2d_5">
      <g>
       <use xlink:href="#me2f0499e25" x="118.922757" y="184.921875" style="stroke: #000000; stroke-width: 0.8"/>
      </g>
     </g>
     <g id="text_3">
      <!-- 02 Jul -->
      <g transform="translate(104.938382 199.520312) scale(0.1 -0.1)">
       <defs>
        <path id="DejaVuSans-32" d="M 1228 531 
L 3431 531 
L 3431 0 
L 469 0 
L 469 531 
Q 828 903 1448 1529 
Q 2069 2156 2228 2338 
Q 2531 2678 2651 2914 
Q 2772 3150 2772 3378 
Q 2772 3750 2511 3984 
Q 2250 4219 1831 4219 
Q 1534 4219 1204 4116 
Q 875 4013 500 3803 
L 500 4441 
Q 881 4594 1212 4672 
Q 1544 4750 1819 4750 
Q 2544 4750 2975 4387 
Q 3406 4025 3406 3419 
Q 3406 3131 3298 2873 
Q 3191 2616 2906 2266 
Q 2828 2175 2409 1742 
Q 1991 1309 1228 531 
z
" transform="scale(0.015625)"/>
       </defs>
       <use xlink:href="#DejaVuSans-30"/>
       <use xlink:href="#DejaVuSans-32" x="63.623047"/>
       <use xlink:href="#DejaVuSans-20" x="127.246094"/>
       <use xlink:href="#DejaVuSans-4a" x="159.033203"/>
       <use xlink:href="#DejaVuSans-75" x="188.525391"/>
       <use xlink:href="#DejaVuSans-6c" x="251.904297"/>
      </g>
     </g>
    </g>
    <g id="xtick_4">
     <g id="line2d_6">
      <g>
       <use xlink:href="#me2f0499e25" x="149.174393" y="184.921875" style="stroke: #000000; stroke-width: 0.8"/>
      </g>
     </g>
     <g id="text_4">
      <!-- 03 Jul -->
      <g transform="translate(135.190018 199.520312) scale(0.1 -0.1)">
       <use xlink:href="#DejaVuSans-30"/>
       <use xlink:href="#DejaVuSans-33" x="63.623047"/>
       <use xlink:href="#DejaVuSans-20" x="127.246094"/>
       <use xlink:href="#DejaVuSans-4a" x="159.033203"/>
       <use xlink:href="#DejaVuSans-75" x="188.525391"/>
       <use xlink:href="#DejaVuSans-6c" x="251.904297"/>
      </g>
     </g>
    </g>
    <g id="xtick_5">
     <g id="line2d_7">
      <g>
       <use xlink:href="#me2f0499e25" x="179.426029" y="184.921875" style="stroke: #000000; stroke-width: 0.8"/>
      </g>
     </g>
     <g id="text_5">
      <!-- 04 Jul -->
      <g transform="translate(165.441654 199.520312) scale(0.1 -0.1)">
       <defs>
        <path id="DejaVuSans-34" d="M 2419 4116 
L 825 1625 
L 2419 1625 
L 2419 4116 
z
M 2253 4666 
L 3047 4666 
L 3047 1625 
L 3713 1625 
L 3713 1100 
L 3047 1100 
L 3047 0 
L 2419 0 
L 2419 1100 
L 313 1100 
L 313 1709 
L 2253 4666 
z
" transform="scale(0.015625)"/>
       </defs>
       <use xlink:href="#DejaVuSans-30"/>
       <use xlink:href="#DejaVuSans-34" x="63.623047"/>
       <use xlink:href="#DejaVuSans-20" x="127.246094"/>
       <use xlink:href="#DejaVuSans-4a" x="159.033203"/>
       <use xlink:href="#DejaVuSans-75" x="188.525391"/>
       <use xlink:href="#DejaVuSans-6c" x="251.904297"/>
      </g>
     </g>
    </g>
    <g id="xtick_6">
     <g id="line2d_8">
      <g>
       <use xlink:href="#me2f0499e25" x="209.677664" y="184.921875" style="stroke: #000000; stroke-width: 0.8"/>
      </g>
     </g>
     <g id="text_6">
      <!-- 05 Jul -->
      <g transform="translate(195.693289 199.520312) scale(0.1 -0.1)">
       <defs>
        <path id="DejaVuSans-35" d="M 691 4666 
L 3169 4666 
L 3169 4134 
L 1269 4134 
L 1269 2991 
Q 1406 3038 1543 3061 
Q 1681 3084 1819 3084 
Q 2600 3084 3056 2656 
Q 3513 2228 3513 1497 
Q 3513 744 3044 326 
Q 2575 -91 1722 -91 
Q 1428 -91 1123 -41 
Q 819 9 494 109 
L 494 744 
Q 775 591 1075 516 
Q 1375 441 1709 441 
Q 2250 441 2565 725 
Q 2881 1009 2881 1497 
Q 2881 1984 2565 2268 
Q 2250 2553 1709 2553 
Q 1456 2553 1204 2497 
Q 953 2441 691 2322 
L 691 4666 
z
" transform="scale(0.015625)"/>
       </defs>
       <use xlink:href="#DejaVuSans-30"/>
       <use xlink:href="#DejaVuSans-35" x="63.623047"/>
       <use xlink:href="#DejaVuSans-20" x="127.246094"/>
       <use xlink:href="#DejaVuSans-4a" x="159.033203"/>
       <use xlink:href="#DejaVuSans-75" x="188.525391"/>
       <use xlink:href="#DejaVuSans-6c" x="251.904297"/>
      </g>
     </g>
    </g>
    <g id="xtick_7">
     <g id="line2d_9">
      <g>
       <use xlink:href="#me2f0499e25" x="239.9293" y="184.921875" style="stroke: #000000; stroke-width: 0.8"/>
      </g>
     </g>
     <g id="text_7">
      <!-- 06 Jul -->
      <g transform="translate(225.944925 199.520312) scale(0.1 -0.1)">
       <defs>
        <path id="DejaVuSans-36" d="M 2113 2584 
Q 1688 2584 1439 2293 
Q 1191 2003 1191 1497 
Q 1191 994 1439 701 
Q 1688 409 2113 409 
Q 2538 409 2786 701 
Q 3034 994 3034 1497 
Q 3034 2003 2786 2293 
Q 2538 2584 2113 2584 
z
M 3366 4563 
L 3366 3988 
Q 3128 4100 2886 4159 
Q 2644 4219 2406 4219 
Q 1781 4219 1451 3797 
Q 1122 3375 1075 2522 
Q 1259 2794 1537 2939 
Q 1816 3084 2150 3084 
Q 2853 3084 3261 2657 
Q 3669 2231 3669 1497 
Q 3669 778 3244 343 
Q 2819 -91 2113 -91 
Q 1303 -91 875 529 
Q 447 1150 447 2328 
Q 447 3434 972 4092 
Q 1497 4750 2381 4750 
Q 2619 4750 2861 4703 
Q 3103 4656 3366 4563 
z
" transform="scale(0.015625)"/>
       </defs>
       <use xlink:href="#DejaVuSans-30"/>
       <use xlink:href="#DejaVuSans-36" x="63.623047"/>
       <use xlink:href="#DejaVuSans-20" x="127.246094"/>
       <use xlink:href="#DejaVuSans-4a" x="159.033203"/>
       <use xlink:href="#DejaVuSans-75" x="188.525391"/>
       <use xlink:href="#DejaVuSans-6c" x="251.904297"/>
      </g>
     </g>
    </g>
    <g id="xtick_8">
     <g id="line2d_10">
      <g>
       <use xlink:href="#me2f0499e25" x="270.180936" y="184.921875" style="stroke: #000000; stroke-width: 0.8"/>
      </g>
     </g>
     <g id="text_8">
      <!-- 07 Jul -->
      <g transform="translate(256.196561 199.520312) scale(0.1 -0.1)">
       <defs>
        <path id="DejaVuSans-37" d="M 525 4666 
L 3525 4666 
L 3525 4397 
L 1831 0 
L 1172 0 
L 2766 4134 
L 525 4134 
L 525 4666 
z
" transform="scale(0.015625)"/>
       </defs>
       <use xlink:href="#DejaVuSans-30"/>
       <use xlink:href="#DejaVuSans-37" x="63.623047"/>
       <use xlink:href="#DejaVuSans-20" x="127.246094"/>
       <use xlink:href="#DejaVuSans-4a" x="159.033203"/>
       <use xlink:href="#DejaVuSans-75" x="188.525391"/>
       <use xlink:href="#DejaVuSans-6c" x="251.904297"/>
      </g>
     </g>
    </g>
    <g id="xtick_9">
     <g id="line2d_11">
      <g>
       <use xlink:href="#me2f0499e25" x="300.432571" y="184.921875" style="stroke: #000000; stroke-width: 0.8"/>
      </g>
     </g>
     <g id="text_9">
      <!-- 08 Jul -->
      <g transform="translate(286.448196 199.520312) scale(0.1 -0.1)">
       <defs>
        <path id="DejaVuSans-38" d="M 2034 2216 
Q 1584 2216 1326 1975 
Q 1069 1734 1069 1313 
Q 1069 891 1326 650 
Q 1584 409 2034 409 
Q 2484 409 2743 651 
Q 3003 894 3003 1313 
Q 3003 1734 2745 1975 
Q 2488 2216 2034 2216 
z
M 1403 2484 
Q 997 2584 770 2862 
Q 544 3141 544 3541 
Q 544 4100 942 4425 
Q 1341 4750 2034 4750 
Q 2731 4750 3128 4425 
Q 3525 4100 3525 3541 
Q 3525 3141 3298 2862 
Q 3072 2584 2669 2484 
Q 3125 2378 3379 2068 
Q 3634 1759 3634 1313 
Q 3634 634 3220 271 
Q 2806 -91 2034 -91 
Q 1263 -91 848 271 
Q 434 634 434 1313 
Q 434 1759 690 2068 
Q 947 2378 1403 2484 
z
M 1172 3481 
Q 1172 3119 1398 2916 
Q 1625 2713 2034 2713 
Q 2441 2713 2670 2916 
Q 2900 3119 2900 3481 
Q 2900 3844 2670 4047 
Q 2441 4250 2034 4250 
Q 1625 4250 1398 4047 
Q 1172 3844 1172 3481 
z
" transform="scale(0.015625)"/>
       </defs>
       <use xlink:href="#DejaVuSans-30"/>
       <use xlink:href="#DejaVuSans-38" x="63.623047"/>
       <use xlink:href="#DejaVuSans-20" x="127.246094"/>
       <use xlink:href="#DejaVuSans-4a" x="159.033203"/>
       <use xlink:href="#DejaVuSans-75" x="188.525391"/>
       <use xlink:href="#DejaVuSans-6c" x="251.904297"/>
      </g>
     </g>
    </g>
    <g id="xtick_10">
     <g id="line2d_12">
      <g>
       <use xlink:href="#me2f0499e25" x="330.684207" y="184.921875" style="stroke: #000000; stroke-width: 0.8"/>
      </g>
     </g>
     <g id="text_10">
      <!-- 09 Jul -->
      <g transform="translate(316.699832 199.520312) scale(0.1 -0.1)">
       <defs>
        <path id="DejaVuSans-39" d="M 703 97 
L 703 672 
Q 941 559 1184 500 
Q 1428 441 1663 441 
Q 2288 441 2617 861 
Q 2947 1281 2994 2138 
Q 2813 1869 2534 1725 
Q 2256 1581 1919 1581 
Q 1219 1581 811 2004 
Q 403 2428 403 3163 
Q 403 3881 828 4315 
Q 1253 4750 1959 4750 
Q 2769 4750 3195 4129 
Q 3622 3509 3622 2328 
Q 3622 1225 3098 567 
Q 2575 -91 1691 -91 
Q 1453 -91 1209 -44 
Q 966 3 703 97 
z
M 1959 2075 
Q 2384 2075 2632 2365 
Q 2881 2656 2881 3163 
Q 2881 3666 2632 3958 
Q 2384 4250 1959 4250 
Q 1534 4250 1286 3958 
Q 1038 3666 1038 3163 
Q 1038 2656 1286 2365 
Q 1534 2075 1959 2075 
z
" transform="scale(0.015625)"/>
       </defs>
       <use xlink:href="#DejaVuSans-30"/>
       <use xlink:href="#DejaVuSans-39" x="63.623047"/>
       <use xlink:href="#DejaVuSans-20" x="127.246094"/>
       <use xlink:href="#DejaVuSans-4a" x="159.033203"/>
       <use xlink:href="#DejaVuSans-75" x="188.525391"/>
       <use xlink:href="#DejaVuSans-6c" x="251.904297"/>
      </g>
     </g>
    </g>
   </g>
   <g id="matplotlib.axis_2">
    <g id="ytick_1">
     <g id="text_11">
      <!-- −75% -->
      <g transform="translate(7.2 188.721094) scale(0.1 -0.1)">
       <defs>
        <path id="DejaVuSans-2212" d="M 678 2272 
L 4684 2272 
L 4684 1741 
L 678 1741 
L 678 2272 
z
" transform="scale(0.015625)"/>
        <path id="DejaVuSans-25" d="M 4653 2053 
Q 4381 2053 4226 1822 
Q 4072 1591 4072 1178 
Q 4072 772 4226 539 
Q 4381 306 4653 306 
Q 4919 306 5073 539 
Q 5228 772 5228 1178 
Q 5228 1588 5073 1820 
Q 4919 2053 4653 2053 
z
M 4653 2450 
Q 5147 2450 5437 2106 
Q 5728 1763 5728 1178 
Q 5728 594 5436 251 
Q 5144 -91 4653 -91 
Q 4153 -91 3862 251 
Q 3572 594 3572 1178 
Q 3572 1766 3864 2108 
Q 4156 2450 4653 2450 
z
M 1428 4353 
Q 1159 4353 1004 4120 
Q 850 3888 850 3481 
Q 850 3069 1003 2837 
Q 1156 2606 1428 2606 
Q 1700 2606 1854 2837 
Q 2009 3069 2009 3481 
Q 2009 3884 1853 4118 
Q 1697 4353 1428 4353 
z
M 4250 4750 
L 4750 4750 
L 1831 -91 
L 1331 -91 
L 4250 4750 
z
M 1428 4750 
Q 1922 4750 2215 4408 
Q 2509 4066 2509 3481 
Q 2509 2891 2217 2550 
Q 1925 2209 1428 2209 
Q 931 2209 642 2551 
Q 353 2894 353 3481 
Q 353 4063 643 4406 
Q 934 4750 1428 4750 
z
" transform="scale(0.015625)"/>
       </defs>
       <use xlink:href="#DejaVuSans-2212"/>
       <use xlink:href="#DejaVuSans-37" x="83.789062"/>
       <use xlink:href="#DejaVuSans-35" x="147.412109"/>
       <use xlink:href="#DejaVuSans-25" x="211.035156"/>
      </g>
     </g>
    </g>
    <g id="ytick_2">
     <g id="text_12">
      <!-- −50% -->
      <g transform="translate(7.2 161.620469) scale(0.1 -0.1)">
       <use xlink:href="#DejaVuSans-2212"/>
       <use xlink:href="#DejaVuSans-35" x="83.789062"/>
       <use xlink:href="#DejaVuSans-30" x="147.412109"/>
       <use xlink:href="#DejaVuSans-25" x="211.035156"/>
      </g>
     </g>
    </g>
    <g id="ytick_3">
     <g id="text_13">
      <!-- −25% -->
      <g transform="translate(7.2 134.519844) scale(0.1 -0.1)">
       <use xlink:href="#DejaVuSans-2212"/>
       <use xlink:href="#DejaVuSans-32" x="83.789062"/>
       <use xlink:href="#DejaVuSans-35" x="147.412109"/>
       <use xlink:href="#DejaVuSans-25" x="211.035156"/>
      </g>
     </g>
    </g>
    <g id="ytick_4">
     <g id="text_14">
      <!-- 0% -->
      <g transform="translate(21.942188 107.419219) scale(0.1 -0.1)">
       <use xlink:href="#DejaVuSans-30"/>
       <use xlink:href="#DejaVuSans-25" x="63.623047"/>
      </g>
     </g>
    </g>
    <g id="ytick_5">
     <g id="text_15">
      <!-- 25% -->
      <g transform="translate(15.579688 80.318594) scale(0.1 -0.1)">
       <use xlink:href="#DejaVuSans-32"/>
       <use xlink:href="#DejaVuSans-35" x="63.623047"/>
       <use xlink:href="#DejaVuSans-25" x="127.246094"/>
      </g>
     </g>
    </g>
    <g id="ytick_6">
     <g id="text_16">
      <!-- 50% -->
      <g transform="translate(15.579688 53.217969) scale(0.1 -0.1)">
       <use xlink:href="#DejaVuSans-35"/>
       <use xlink:href="#DejaVuSans-30" x="63.623047"/>
       <use xlink:href="#DejaVuSans-25" x="127.246094"/>
      </g>
     </g>
    </g>
    <g id="ytick_7">
     <g id="text_17">
      <!-- 75% -->
      <g transform="translate(15.579688 26.117344) scale(0.1 -0.1)">
       <use xlink:href="#DejaVuSans-37"/>
       <use xlink:href="#DejaVuSans-35" x="63.623047"/>
       <use xlink:href="#DejaVuSans-25" x="127.246094"/>
      </g>
     </g>
    </g>
   </g>
   <g id="line2d_13">
    <path d="M 58.419486 122.048425 
L 62.972408 120.459105 
L 67.52533 119.097454 
L 72.078251 117.956126 
L 76.631173 117.027775 
L 81.184095 116.305053 
L 85.737017 115.780613 
L 90.289938 115.44711 
L 95.753444 115.288596 
L 101.216951 115.381754 
L 106.680457 115.71389 
L 112.143963 116.272308 
L 117.607469 117.044312 
L 123.070975 118.017208 
L 129.445065 119.38922 
L 135.819156 120.997228 
L 142.193246 122.821072 
L 149.477921 125.143894 
L 156.762596 127.6922 
L 164.957855 130.7911 
L 174.063699 134.472243 
L 184.990711 139.140032 
L 200.470645 146.032025 
L 225.056422 156.999454 
L 235.983435 161.625539 
L 245.089278 165.258276 
L 253.284537 168.302998 
L 260.569212 170.794706 
L 267.853887 173.052985 
L 274.227977 174.813839 
L 280.602068 176.352775 
L 286.976158 177.649633 
L 292.439664 178.55327 
L 297.90317 179.251548 
L 303.366677 179.731771 
L 308.830183 179.981243 
L 314.293689 179.98727 
L 319.757195 179.737156 
L 324.310117 179.323906 
L 328.863038 178.716617 
L 330.684207 178.417725 
L 330.684207 178.417725 
" clip-path="url(#p278141df1e)" style="fill: none; stroke: #0035a0; stroke-width: 3; stroke-linecap: round"/>
   </g>
   <g id="text_18">
    <!-- -69% -->
    <g transform="translate(317.76702 168.417725) scale(0.1 -0.1)">
     <defs>
      <path id="DejaVuSans-2d" d="M 313 2009 
L 1997 2009 
L 1997 1497 
L 313 1497 
L 313 2009 
z
" transform="scale(0.015625)"/>
     </defs>
     <use xlink:href="#DejaVuSans-2d"/>
     <use xlink:href="#DejaVuSans-36" x="36.083984"/>
     <use xlink:href="#DejaVuSans-39" x="99.707031"/>
     <use xlink:href="#DejaVuSans-25" x="163.330078"/>
    </g>
   </g>
   <g id="text_19">
    <!-- Petit Martinique - population change trends -->
    <g transform="translate(64.154034 16.318125) scale(0.12 -0.12)">
     <defs>
      <path id="DejaVuSans-50" d="M 1259 4147 
L 1259 2394 
L 2053 2394 
Q 2494 2394 2734 2622 
Q 2975 2850 2975 3272 
Q 2975 3691 2734 3919 
Q 2494 4147 2053 4147 
L 1259 4147 
z
M 628 4666 
L 2053 4666 
Q 2838 4666 3239 4311 
Q 3641 3956 3641 3272 
Q 3641 2581 3239 2228 
Q 2838 1875 2053 1875 
L 1259 1875 
L 1259 0 
L 628 0 
L 628 4666 
z
" transform="scale(0.015625)"/>
      <path id="DejaVuSans-65" d="M 3597 1894 
L 3597 1613 
L 953 1613 
Q 991 1019 1311 708 
Q 1631 397 2203 397 
Q 2534 397 2845 478 
Q 3156 559 3463 722 
L 3463 178 
Q 3153 47 2828 -22 
Q 2503 -91 2169 -91 
Q 1331 -91 842 396 
Q 353 884 353 1716 
Q 353 2575 817 3079 
Q 1281 3584 2069 3584 
Q 2775 3584 3186 3129 
Q 3597 2675 3597 1894 
z
M 3022 2063 
Q 3016 2534 2758 2815 
Q 2500 3097 2075 3097 
Q 1594 3097 1305 2825 
Q 1016 2553 972 2059 
L 3022 2063 
z
" transform="scale(0.015625)"/>
      <path id="DejaVuSans-74" d="M 1172 4494 
L 1172 3500 
L 2356 3500 
L 2356 3053 
L 1172 3053 
L 1172 1153 
Q 1172 725 1289 603 
Q 1406 481 1766 481 
L 2356 481 
L 2356 0 
L 1766 0 
Q 1100 0 847 248 
Q 594 497 594 1153 
L 594 3053 
L 172 3053 
L 172 3500 
L 594 3500 
L 594 4494 
L 1172 4494 
z
" transform="scale(0.015625)"/>
      <path id="DejaVuSans-69" d="M 603 3500 
L 1178 3500 
L 1178 0 
L 603 0 
L 603 3500 
z
M 603 4863 
L 1178 4863 
L 1178 4134 
L 603 4134 
L 603 4863 
z
" transform="scale(0.015625)"/>
      <path id="DejaVuSans-4d" d="M 628 4666 
L 1569 4666 
L 2759 1491 
L 3956 4666 
L 4897 4666 
L 4897 0 
L 4281 0 
L 4281 4097 
L 3078 897 
L 2444 897 
L 1241 4097 
L 1241 0 
L 628 0 
L 628 4666 
z
" transform="scale(0.015625)"/>
      <path id="DejaVuSans-61" d="M 2194 1759 
Q 1497 1759 1228 1600 
Q 959 1441 959 1056 
Q 959 750 1161 570 
Q 1363 391 1709 391 
Q 2188 391 2477 730 
Q 2766 1069 2766 1631 
L 2766 1759 
L 2194 1759 
z
M 3341 1997 
L 3341 0 
L 2766 0 
L 2766 531 
Q 2569 213 2275 61 
Q 1981 -91 1556 -91 
Q 1019 -91 701 211 
Q 384 513 384 1019 
Q 384 1609 779 1909 
Q 1175 2209 1959 2209 
L 2766 2209 
L 2766 2266 
Q 2766 2663 2505 2880 
Q 2244 3097 1772 3097 
Q 1472 3097 1187 3025 
Q 903 2953 641 2809 
L 641 3341 
Q 956 3463 1253 3523 
Q 1550 3584 1831 3584 
Q 2591 3584 2966 3190 
Q 3341 2797 3341 1997 
z
" transform="scale(0.015625)"/>
      <path id="DejaVuSans-72" d="M 2631 2963 
Q 2534 3019 2420 3045 
Q 2306 3072 2169 3072 
Q 1681 3072 1420 2755 
Q 1159 2438 1159 1844 
L 1159 0 
L 581 0 
L 581 3500 
L 1159 3500 
L 1159 2956 
Q 1341 3275 1631 3429 
Q 1922 3584 2338 3584 
Q 2397 3584 2469 3576 
Q 2541 3569 2628 3553 
L 2631 2963 
z
" transform="scale(0.015625)"/>
      <path id="DejaVuSans-71" d="M 947 1747 
Q 947 1113 1208 752 
Q 1469 391 1925 391 
Q 2381 391 2643 752 
Q 2906 1113 2906 1747 
Q 2906 2381 2643 2742 
Q 2381 3103 1925 3103 
Q 1469 3103 1208 2742 
Q 947 2381 947 1747 
z
M 2906 525 
Q 2725 213 2448 61 
Q 2172 -91 1784 -91 
Q 1150 -91 751 415 
Q 353 922 353 1747 
Q 353 2572 751 3078 
Q 1150 3584 1784 3584 
Q 2172 3584 2448 3432 
Q 2725 3281 2906 2969 
L 2906 3500 
L 3481 3500 
L 3481 -1331 
L 2906 -1331 
L 2906 525 
z
" transform="scale(0.015625)"/>
      <path id="DejaVuSans-70" d="M 1159 525 
L 1159 -1331 
L 581 -1331 
L 581 3500 
L 1159 3500 
L 1159 2969 
Q 1341 3281 1617 3432 
Q 1894 3584 2278 3584 
Q 2916 3584 3314 3078 
Q 3713 2572 3713 1747 
Q 3713 922 3314 415 
Q 2916 -91 2278 -91 
Q 1894 -91 1617 61 
Q 1341 213 1159 525 
z
M 3116 1747 
Q 3116 2381 2855 2742 
Q 2594 3103 2138 3103 
Q 1681 3103 1420 2742 
Q 1159 2381 1159 1747 
Q 1159 1113 1420 752 
Q 1681 391 2138 391 
Q 2594 391 2855 752 
Q 3116 1113 3116 1747 
z
" transform="scale(0.015625)"/>
      <path id="DejaVuSans-6f" d="M 1959 3097 
Q 1497 3097 1228 2736 
Q 959 2375 959 1747 
Q 959 1119 1226 758 
Q 1494 397 1959 397 
Q 2419 397 2687 759 
Q 2956 1122 2956 1747 
Q 2956 2369 2687 2733 
Q 2419 3097 1959 3097 
z
M 1959 3584 
Q 2709 3584 3137 3096 
Q 3566 2609 3566 1747 
Q 3566 888 3137 398 
Q 2709 -91 1959 -91 
Q 1206 -91 779 398 
Q 353 888 353 1747 
Q 353 2609 779 3096 
Q 1206 3584 1959 3584 
z
" transform="scale(0.015625)"/>
      <path id="DejaVuSans-63" d="M 3122 3366 
L 3122 2828 
Q 2878 2963 2633 3030 
Q 2388 3097 2138 3097 
Q 1578 3097 1268 2742 
Q 959 2388 959 1747 
Q 959 1106 1268 751 
Q 1578 397 2138 397 
Q 2388 397 2633 464 
Q 2878 531 3122 666 
L 3122 134 
Q 2881 22 2623 -34 
Q 2366 -91 2075 -91 
Q 1284 -91 818 406 
Q 353 903 353 1747 
Q 353 2603 823 3093 
Q 1294 3584 2113 3584 
Q 2378 3584 2631 3529 
Q 2884 3475 3122 3366 
z
" transform="scale(0.015625)"/>
      <path id="DejaVuSans-68" d="M 3513 2113 
L 3513 0 
L 2938 0 
L 2938 2094 
Q 2938 2591 2744 2837 
Q 2550 3084 2163 3084 
Q 1697 3084 1428 2787 
Q 1159 2491 1159 1978 
L 1159 0 
L 581 0 
L 581 4863 
L 1159 4863 
L 1159 2956 
Q 1366 3272 1645 3428 
Q 1925 3584 2291 3584 
Q 2894 3584 3203 3211 
Q 3513 2838 3513 2113 
z
" transform="scale(0.015625)"/>
      <path id="DejaVuSans-67" d="M 2906 1791 
Q 2906 2416 2648 2759 
Q 2391 3103 1925 3103 
Q 1463 3103 1205 2759 
Q 947 2416 947 1791 
Q 947 1169 1205 825 
Q 1463 481 1925 481 
Q 2391 481 2648 825 
Q 2906 1169 2906 1791 
z
M 3481 434 
Q 3481 -459 3084 -895 
Q 2688 -1331 1869 -1331 
Q 1566 -1331 1297 -1286 
Q 1028 -1241 775 -1147 
L 775 -588 
Q 1028 -725 1275 -790 
Q 1522 -856 1778 -856 
Q 2344 -856 2625 -561 
Q 2906 -266 2906 331 
L 2906 616 
Q 2728 306 2450 153 
Q 2172 0 1784 0 
Q 1141 0 747 490 
Q 353 981 353 1791 
Q 353 2603 747 3093 
Q 1141 3584 1784 3584 
Q 2172 3584 2450 3431 
Q 2728 3278 2906 2969 
L 2906 3500 
L 3481 3500 
L 3481 434 
z
" transform="scale(0.015625)"/>
      <path id="DejaVuSans-64" d="M 2906 2969 
L 2906 4863 
L 3481 4863 
L 3481 0 
L 2906 0 
L 2906 525 
Q 2725 213 2448 61 
Q 2172 -91 1784 -91 
Q 1150 -91 751 415 
Q 353 922 353 1747 
Q 353 2572 751 3078 
Q 1150 3584 1784 3584 
Q 2172 3584 2448 3432 
Q 2725 3281 2906 2969 
z
M 947 1747 
Q 947 1113 1208 752 
Q 1469 391 1925 391 
Q 2381 391 2643 752 
Q 2906 1113 2906 1747 
Q 2906 2381 2643 2742 
Q 2381 3103 1925 3103 
Q 1469 3103 1208 2742 
Q 947 2381 947 1747 
z
" transform="scale(0.015625)"/>
      <path id="DejaVuSans-73" d="M 2834 3397 
L 2834 2853 
Q 2591 2978 2328 3040 
Q 2066 3103 1784 3103 
Q 1356 3103 1142 2972 
Q 928 2841 928 2578 
Q 928 2378 1081 2264 
Q 1234 2150 1697 2047 
L 1894 2003 
Q 2506 1872 2764 1633 
Q 3022 1394 3022 966 
Q 3022 478 2636 193 
Q 2250 -91 1575 -91 
Q 1294 -91 989 -36 
Q 684 19 347 128 
L 347 722 
Q 666 556 975 473 
Q 1284 391 1588 391 
Q 1994 391 2212 530 
Q 2431 669 2431 922 
Q 2431 1156 2273 1281 
Q 2116 1406 1581 1522 
L 1381 1569 
Q 847 1681 609 1914 
Q 372 2147 372 2553 
Q 372 3047 722 3315 
Q 1072 3584 1716 3584 
Q 2034 3584 2315 3537 
Q 2597 3491 2834 3397 
z
" transform="scale(0.015625)"/>
     </defs>
     <use xlink:href="#DejaVuSans-50"/>
     <use xlink:href="#DejaVuSans-65" x="56.677734"/>
     <use xlink:href="#DejaVuSans-74" x="118.201172"/>
     <use xlink:href="#DejaVuSans-69" x="157.410156"/>
     <use xlink:href="#DejaVuSans-74" x="185.193359"/>
     <use xlink:href="#DejaVuSans-20" x="224.402344"/>
     <use xlink:href="#DejaVuSans-4d" x="256.189453"/>
     <use xlink:href="#DejaVuSans-61" x="342.46875"/>
     <use xlink:href="#DejaVuSans-72" x="403.748047"/>
     <use xlink:href="#DejaVuSans-74" x="444.861328"/>
     <use xlink:href="#DejaVuSans-69" x="484.070312"/>
     <use xlink:href="#DejaVuSans-6e" x="511.853516"/>
     <use xlink:href="#DejaVuSans-69" x="575.232422"/>
     <use xlink:href="#DejaVuSans-71" x="603.015625"/>
     <use xlink:href="#DejaVuSans-75" x="666.492188"/>
     <use xlink:href="#DejaVuSans-65" x="729.871094"/>
     <use xlink:href="#DejaVuSans-20" x="791.394531"/>
     <use xlink:href="#DejaVuSans-2d" x="823.181641"/>
     <use xlink:href="#DejaVuSans-20" x="859.265625"/>
     <use xlink:href="#DejaVuSans-70" x="891.052734"/>
     <use xlink:href="#DejaVuSans-6f" x="954.529297"/>
     <use xlink:href="#DejaVuSans-70" x="1015.710938"/>
     <use xlink:href="#DejaVuSans-75" x="1079.1875"/>
     <use xlink:href="#DejaVuSans-6c" x="1142.566406"/>
     <use xlink:href="#DejaVuSans-61" x="1170.349609"/>
     <use xlink:href="#DejaVuSans-74" x="1231.628906"/>
     <use xlink:href="#DejaVuSans-69" x="1270.837891"/>
     <use xlink:href="#DejaVuSans-6f" x="1298.621094"/>
     <use xlink:href="#DejaVuSans-6e" x="1359.802734"/>
     <use xlink:href="#DejaVuSans-20" x="1423.181641"/>
     <use xlink:href="#DejaVuSans-63" x="1454.96875"/>
     <use xlink:href="#DejaVuSans-68" x="1509.949219"/>
     <use xlink:href="#DejaVuSans-61" x="1573.328125"/>
     <use xlink:href="#DejaVuSans-6e" x="1634.607422"/>
     <use xlink:href="#DejaVuSans-67" x="1697.986328"/>
     <use xlink:href="#DejaVuSans-65" x="1761.462891"/>
     <use xlink:href="#DejaVuSans-20" x="1822.986328"/>
     <use xlink:href="#DejaVuSans-74" x="1854.773438"/>
     <use xlink:href="#DejaVuSans-72" x="1893.982422"/>
     <use xlink:href="#DejaVuSans-65" x="1932.845703"/>
     <use xlink:href="#DejaVuSans-6e" x="1994.369141"/>
     <use xlink:href="#DejaVuSans-64" x="2057.748047"/>
     <use xlink:href="#DejaVuSans-73" x="2121.224609"/>
    </g>
   </g>
  </g>
 </g>
 <defs>
  <clipPath id="p278141df1e">
   <rect x="44.80625" y="22.318125" width="299.491193" height="162.60375"/>
  </clipPath>
 </defs>
</svg>
