<?xml version="1.0" encoding="utf-8" standalone="no"?>
<!DOCTYPE svg PUBLIC "-//W3C//DTD SVG 1.1//EN"
  "http://www.w3.org/Graphics/SVG/1.1/DTD/svg11.dtd">
<svg xmlns:xlink="http://www.w3.org/1999/xlink" width="351.868582pt" height="208.8pt" viewBox="0 0 351.868582 208.8" xmlns="http://www.w3.org/2000/svg" version="1.1">
 <metadata>
  <rdf:RDF xmlns:dc="http://purl.org/dc/elements/1.1/" xmlns:cc="http://creativecommons.org/ns#" xmlns:rdf="http://www.w3.org/1999/02/22-rdf-syntax-ns#">
   <cc:Work>
    <dc:type rdf:resource="http://purl.org/dc/dcmitype/StillImage"/>
    <dc:date>2024-07-05T09:40:20.597937</dc:date>
    <dc:format>image/svg+xml</dc:format>
    <dc:creator>
     <cc:Agent>
      <dc:title>Matplotlib v3.9.0, https://matplotlib.org/</dc:title>
     </cc:Agent>
    </dc:creator>
   </cc:Work>
  </rdf:RDF>
 </metadata>
 <defs>
  <style type="text/css">*{stroke-linejoin: round; stroke-linecap: butt}</style>
 </defs>
 <g id="figure_1">
  <g id="patch_1">
   <path d="M 0 208.8 
L 351.868582 208.8 
L 351.868582 0 
L 0 0 
L 0 208.8 
z
" style="fill: none"/>
  </g>
  <g id="axes_1">
   <g id="patch_2">
    <path d="M 44.80625 184.921875 
L 344.297443 184.921875 
L 344.297443 22.318125 
L 44.80625 22.318125 
L 44.80625 184.921875 
z
" style="fill: none; opacity: 0"/>
   </g>
   <g id="PolyCollection_1">
    <defs>
     <path id="m6e196ca431" d="M 58.419486 -110.600125 
L 58.419486 -110.600125 
L 59.33007 -109.363616 
L 60.240655 -108.142042 
L 61.151239 -106.935334 
L 62.061823 -105.743421 
L 62.497644 -105.18 
L 62.061823 -105.18 
L 61.151239 -105.18 
L 60.240655 -105.18 
L 59.33007 -105.18 
L 58.419486 -105.18 
z
" style="stroke: #6ec5bc; stroke-opacity: 0.1"/>
    </defs>
    <g clip-path="url(#pbdc66d3aca)">
     <use xlink:href="#m6e196ca431" x="0" y="208.8" style="fill: #6ec5bc; fill-opacity: 0.1; stroke: #6ec5bc; stroke-opacity: 0.1"/>
    </g>
   </g>
   <g id="PolyCollection_2">
    <defs>
     <path id="m8e99125653" d="M 62.497644 -105.18 
L 62.972408 -104.566235 
L 63.882992 -103.403704 
L 64.793577 -102.25576 
L 65.704161 -101.122333 
L 66.614745 -100.003353 
L 67.52533 -98.898749 
L 68.435914 -97.808453 
L 69.346498 -96.732394 
L 70.257083 -95.670503 
L 71.167667 -94.622709 
L 72.078251 -93.588944 
L 72.988836 -92.569136 
L 73.89942 -91.563217 
L 74.810004 -90.571117 
L 75.720589 -89.592765 
L 76.631173 -88.628092 
L 77.541757 -87.677029 
L 78.452342 -86.739505 
L 79.362926 -85.81545 
L 80.27351 -84.904795 
L 81.184095 -84.00747 
L 82.094679 -83.123406 
L 83.005264 -82.252531 
L 83.915848 -81.394777 
L 84.826432 -80.550074 
L 85.737017 -79.718352 
L 86.647601 -78.899541 
L 87.558185 -78.093571 
L 88.46877 -77.300373 
L 89.379354 -76.519877 
L 90.289938 -75.752013 
L 91.200523 -74.99671 
L 92.111107 -74.2539 
L 93.021691 -73.523513 
L 93.932276 -72.805478 
L 94.84286 -72.099726 
L 95.753444 -71.406187 
L 96.664029 -70.724792 
L 97.574613 -70.05547 
L 98.485198 -69.398152 
L 99.395782 -68.752768 
L 100.306366 -68.119248 
L 101.216951 -67.497522 
L 102.127535 -66.887521 
L 103.038119 -66.289174 
L 103.948704 -65.702412 
L 104.859288 -65.127166 
L 105.769872 -64.563364 
L 106.680457 -64.010938 
L 107.591041 -63.469818 
L 108.501625 -62.939934 
L 109.41221 -62.421216 
L 110.322794 -61.913594 
L 111.233378 -61.416999 
L 112.143963 -60.93136 
L 113.054547 -60.456608 
L 113.965131 -59.992673 
L 114.875716 -59.539486 
L 115.7863 -59.096976 
L 116.696885 -58.665073 
L 117.607469 -58.243709 
L 118.518053 -57.832812 
L 119.428638 -57.432314 
L 120.339222 -57.042144 
L 121.249806 -56.662233 
L 122.160391 -56.292511 
L 123.070975 -55.932908 
L 123.981559 -55.583354 
L 124.892144 -55.24378 
L 125.802728 -54.914115 
L 126.713312 -54.59429 
L 127.623897 -54.284235 
L 128.534481 -53.98388 
L 129.445065 -53.693156 
L 130.35565 -53.411992 
L 131.266234 -53.140319 
L 132.176819 -52.878068 
L 133.087403 -52.625167 
L 133.997987 -52.381548 
L 134.908572 -52.147141 
L 135.819156 -51.921875 
L 136.72974 -51.705681 
L 137.640325 -51.49849 
L 138.550909 -51.300231 
L 139.461493 -51.110834 
L 140.372078 -50.930231 
L 141.282662 -50.75835 
L 142.193246 -50.595123 
L 143.103831 -50.440479 
L 144.014415 -50.294348 
L 144.924999 -50.156662 
L 145.835584 -50.027349 
L 146.746168 -49.90634 
L 147.656752 -49.793566 
L 148.567337 -49.688957 
L 149.477921 -49.592442 
L 150.388506 -49.503953 
L 151.29909 -49.423418 
L 152.209674 -49.350769 
L 153.120259 -49.285935 
L 154.030843 -49.228848 
L 154.941427 -49.179436 
L 155.852012 -49.13763 
L 156.762596 -49.103361 
L 157.67318 -49.076558 
L 158.583765 -49.057152 
L 159.494349 -49.045073 
L 160.404933 -49.040251 
L 161.315518 -49.042617 
L 162.226102 -49.0521 
L 163.136686 -49.068631 
L 164.047271 -49.09214 
L 164.957855 -49.122557 
L 165.86844 -49.159812 
L 166.779024 -49.203836 
L 167.689608 -49.254558 
L 168.600193 -49.31191 
L 169.510777 -49.37582 
L 170.421361 -49.44622 
L 171.331946 -49.52304 
L 172.24253 -49.606209 
L 173.153114 -49.695658 
L 174.063699 -49.791317 
L 174.974283 -49.893117 
L 175.884867 -50.000987 
L 176.795452 -50.114858 
L 177.706036 -50.234659 
L 178.61662 -50.360322 
L 179.527205 -50.491776 
L 180.437789 -50.628952 
L 181.348373 -50.771779 
L 182.258958 -50.920189 
L 183.169542 -51.07411 
L 184.080127 -51.233474 
L 184.990711 -51.39821 
L 185.901295 -51.568249 
L 186.81188 -51.74352 
L 187.722464 -51.923955 
L 188.633048 -52.109483 
L 189.543633 -52.300035 
L 190.454217 -52.49554 
L 191.364801 -52.695929 
L 192.275386 -52.901133 
L 193.18597 -53.11108 
L 194.096554 -53.325702 
L 195.007139 -53.544929 
L 195.917723 -53.76869 
L 196.828307 -53.996917 
L 197.738892 -54.229539 
L 198.649476 -54.466486 
L 199.560061 -54.707689 
L 200.470645 -54.953078 
L 201.381229 -55.202583 
L 202.291814 -55.456134 
L 203.202398 -55.713661 
L 204.112982 -55.975095 
L 205.023567 -56.240367 
L 205.934151 -56.509405 
L 206.844735 -56.78214 
L 207.75532 -57.058503 
L 208.665904 -57.338423 
L 209.576488 -57.621831 
L 210.487073 -57.908658 
L 211.397657 -58.198832 
L 212.308241 -58.492285 
L 213.218826 -58.788947 
L 214.12941 -59.088747 
L 215.039994 -59.391617 
L 215.950579 -59.697485 
L 216.861163 -60.006283 
L 217.771748 -60.317941 
L 218.682332 -60.632388 
L 219.592916 -60.949556 
L 220.503501 -61.269374 
L 221.414085 -61.591772 
L 222.324669 -61.91668 
L 223.235254 -62.24403 
L 224.145838 -62.57375 
L 225.056422 -62.905772 
L 225.967007 -63.240025 
L 226.877591 -63.57644 
L 227.788175 -63.914946 
L 228.69876 -64.255475 
L 229.609344 -64.597955 
L 230.519928 -64.942318 
L 231.430513 -65.288494 
L 232.341097 -65.636412 
L 233.251682 -65.986003 
L 234.162266 -66.337198 
L 235.07285 -66.689926 
L 235.983435 -67.044117 
L 236.894019 -67.399702 
L 237.804603 -67.756612 
L 238.715188 -68.114775 
L 239.625772 -68.474123 
L 240.536356 -68.834585 
L 241.446941 -69.196092 
L 242.357525 -69.558574 
L 243.268109 -69.921961 
L 244.178694 -70.286183 
L 245.089278 -70.651171 
L 245.999862 -71.016855 
L 246.910447 -71.383165 
L 247.821031 -71.75003 
L 248.731616 -72.117383 
L 249.6422 -72.485151 
L 250.552784 -72.853267 
L 251.463369 -73.221659 
L 252.373953 -73.590258 
L 253.284537 -73.958995 
L 254.195122 -74.327799 
L 255.105706 -74.696601 
L 256.01629 -75.065331 
L 256.926875 -75.433919 
L 257.837459 -75.802296 
L 258.748043 -76.170391 
L 259.658628 -76.538134 
L 260.569212 -76.905457 
L 261.479796 -77.272288 
L 262.390381 -77.638559 
L 263.300965 -78.004199 
L 264.211549 -78.36914 
L 265.122134 -78.733309 
L 266.032718 -79.09664 
L 266.943303 -79.45906 
L 267.853887 -79.820501 
L 268.764471 -80.180892 
L 269.675056 -80.540165 
L 270.58564 -80.898248 
L 271.496224 -81.255073 
L 272.406809 -81.610569 
L 273.317393 -81.964667 
L 274.227977 -82.317297 
L 275.138562 -82.668389 
L 276.049146 -83.017873 
L 276.95973 -83.365679 
L 277.870315 -83.711739 
L 278.780899 -84.055981 
L 279.691483 -84.398336 
L 280.602068 -84.738734 
L 281.512652 -85.077106 
L 282.423237 -85.413382 
L 283.333821 -85.747491 
L 284.244405 -86.079364 
L 285.15499 -86.408932 
L 286.065574 -86.736124 
L 286.976158 -87.060871 
L 287.886743 -87.383102 
L 288.797327 -87.702749 
L 289.707911 -88.019741 
L 290.618496 -88.334008 
L 291.52908 -88.645481 
L 292.439664 -88.95409 
L 293.350249 -89.259764 
L 294.260833 -89.562435 
L 295.171417 -89.862033 
L 296.082002 -90.158487 
L 296.992586 -90.451727 
L 297.90317 -90.741685 
L 298.813755 -91.02829 
L 299.724339 -91.311473 
L 300.634924 -91.591163 
L 301.545508 -91.867291 
L 302.456092 -92.139786 
L 303.366677 -92.40858 
L 304.277261 -92.673603 
L 305.187845 -92.934784 
L 306.09843 -93.192054 
L 307.009014 -93.445343 
L 307.919598 -93.69458 
L 308.830183 -93.939698 
L 309.740767 -94.180625 
L 310.651351 -94.417292 
L 311.561936 -94.649628 
L 312.47252 -94.877565 
L 313.383104 -95.101032 
L 314.293689 -95.31996 
L 315.204273 -95.534279 
L 316.114858 -95.743918 
L 317.025442 -95.948809 
L 317.936026 -96.148881 
L 318.846611 -96.344065 
L 319.757195 -96.53429 
L 320.667779 -96.719487 
L 321.578364 -96.899587 
L 322.488948 -97.074519 
L 323.399532 -97.244213 
L 324.310117 -97.4086 
L 325.220701 -97.56761 
L 326.131285 -97.721174 
L 327.04187 -97.86922 
L 327.952454 -98.01168 
L 328.863038 -98.148484 
L 329.773623 -98.279562 
L 330.684207 -98.404844 
L 330.684207 -98.404844 
L 330.684207 -105.18 
L 329.773623 -105.18 
L 328.863038 -105.18 
L 327.952454 -105.18 
L 327.04187 -105.18 
L 326.131285 -105.18 
L 325.220701 -105.18 
L 324.310117 -105.18 
L 323.399532 -105.18 
L 322.488948 -105.18 
L 321.578364 -105.18 
L 320.667779 -105.18 
L 319.757195 -105.18 
L 318.846611 -105.18 
L 317.936026 -105.18 
L 317.025442 -105.18 
L 316.114858 -105.18 
L 315.204273 -105.18 
L 314.293689 -105.18 
L 313.383104 -105.18 
L 312.47252 -105.18 
L 311.561936 -105.18 
L 310.651351 -105.18 
L 309.740767 -105.18 
L 308.830183 -105.18 
L 307.919598 -105.18 
L 307.009014 -105.18 
L 306.09843 -105.18 
L 305.187845 -105.18 
L 304.277261 -105.18 
L 303.366677 -105.18 
L 302.456092 -105.18 
L 301.545508 -105.18 
L 300.634924 -105.18 
L 299.724339 -105.18 
L 298.813755 -105.18 
L 297.90317 -105.18 
L 296.992586 -105.18 
L 296.082002 -105.18 
L 295.171417 -105.18 
L 294.260833 -105.18 
L 293.350249 -105.18 
L 292.439664 -105.18 
L 291.52908 -105.18 
L 290.618496 -105.18 
L 289.707911 -105.18 
L 288.797327 -105.18 
L 287.886743 -105.18 
L 286.976158 -105.18 
L 286.065574 -105.18 
L 285.15499 -105.18 
L 284.244405 -105.18 
L 283.333821 -105.18 
L 282.423237 -105.18 
L 281.512652 -105.18 
L 280.602068 -105.18 
L 279.691483 -105.18 
L 278.780899 -105.18 
L 277.870315 -105.18 
L 276.95973 -105.18 
L 276.049146 -105.18 
L 275.138562 -105.18 
L 274.227977 -105.18 
L 273.317393 -105.18 
L 272.406809 -105.18 
L 271.496224 -105.18 
L 270.58564 -105.18 
L 269.675056 -105.18 
L 268.764471 -105.18 
L 267.853887 -105.18 
L 266.943303 -105.18 
L 266.032718 -105.18 
L 265.122134 -105.18 
L 264.211549 -105.18 
L 263.300965 -105.18 
L 262.390381 -105.18 
L 261.479796 -105.18 
L 260.569212 -105.18 
L 259.658628 -105.18 
L 258.748043 -105.18 
L 257.837459 -105.18 
L 256.926875 -105.18 
L 256.01629 -105.18 
L 255.105706 -105.18 
L 254.195122 -105.18 
L 253.284537 -105.18 
L 252.373953 -105.18 
L 251.463369 -105.18 
L 250.552784 -105.18 
L 249.6422 -105.18 
L 248.731616 -105.18 
L 247.821031 -105.18 
L 246.910447 -105.18 
L 245.999862 -105.18 
L 245.089278 -105.18 
L 244.178694 -105.18 
L 243.268109 -105.18 
L 242.357525 -105.18 
L 241.446941 -105.18 
L 240.536356 -105.18 
L 239.625772 -105.18 
L 238.715188 -105.18 
L 237.804603 -105.18 
L 236.894019 -105.18 
L 235.983435 -105.18 
L 235.07285 -105.18 
L 234.162266 -105.18 
L 233.251682 -105.18 
L 232.341097 -105.18 
L 231.430513 -105.18 
L 230.519928 -105.18 
L 229.609344 -105.18 
L 228.69876 -105.18 
L 227.788175 -105.18 
L 226.877591 -105.18 
L 225.967007 -105.18 
L 225.056422 -105.18 
L 224.145838 -105.18 
L 223.235254 -105.18 
L 222.324669 -105.18 
L 221.414085 -105.18 
L 220.503501 -105.18 
L 219.592916 -105.18 
L 218.682332 -105.18 
L 217.771748 -105.18 
L 216.861163 -105.18 
L 215.950579 -105.18 
L 215.039994 -105.18 
L 214.12941 -105.18 
L 213.218826 -105.18 
L 212.308241 -105.18 
L 211.397657 -105.18 
L 210.487073 -105.18 
L 209.576488 -105.18 
L 208.665904 -105.18 
L 207.75532 -105.18 
L 206.844735 -105.18 
L 205.934151 -105.18 
L 205.023567 -105.18 
L 204.112982 -105.18 
L 203.202398 -105.18 
L 202.291814 -105.18 
L 201.381229 -105.18 
L 200.470645 -105.18 
L 199.560061 -105.18 
L 198.649476 -105.18 
L 197.738892 -105.18 
L 196.828307 -105.18 
L 195.917723 -105.18 
L 195.007139 -105.18 
L 194.096554 -105.18 
L 193.18597 -105.18 
L 192.275386 -105.18 
L 191.364801 -105.18 
L 190.454217 -105.18 
L 189.543633 -105.18 
L 188.633048 -105.18 
L 187.722464 -105.18 
L 186.81188 -105.18 
L 185.901295 -105.18 
L 184.990711 -105.18 
L 184.080127 -105.18 
L 183.169542 -105.18 
L 182.258958 -105.18 
L 181.348373 -105.18 
L 180.437789 -105.18 
L 179.527205 -105.18 
L 178.61662 -105.18 
L 177.706036 -105.18 
L 176.795452 -105.18 
L 175.884867 -105.18 
L 174.974283 -105.18 
L 174.063699 -105.18 
L 173.153114 -105.18 
L 172.24253 -105.18 
L 171.331946 -105.18 
L 170.421361 -105.18 
L 169.510777 -105.18 
L 168.600193 -105.18 
L 167.689608 -105.18 
L 166.779024 -105.18 
L 165.86844 -105.18 
L 164.957855 -105.18 
L 164.047271 -105.18 
L 163.136686 -105.18 
L 162.226102 -105.18 
L 161.315518 -105.18 
L 160.404933 -105.18 
L 159.494349 -105.18 
L 158.583765 -105.18 
L 157.67318 -105.18 
L 156.762596 -105.18 
L 155.852012 -105.18 
L 154.941427 -105.18 
L 154.030843 -105.18 
L 153.120259 -105.18 
L 152.209674 -105.18 
L 151.29909 -105.18 
L 150.388506 -105.18 
L 149.477921 -105.18 
L 148.567337 -105.18 
L 147.656752 -105.18 
L 146.746168 -105.18 
L 145.835584 -105.18 
L 144.924999 -105.18 
L 144.014415 -105.18 
L 143.103831 -105.18 
L 142.193246 -105.18 
L 141.282662 -105.18 
L 140.372078 -105.18 
L 139.461493 -105.18 
L 138.550909 -105.18 
L 137.640325 -105.18 
L 136.72974 -105.18 
L 135.819156 -105.18 
L 134.908572 -105.18 
L 133.997987 -105.18 
L 133.087403 -105.18 
L 132.176819 -105.18 
L 131.266234 -105.18 
L 130.35565 -105.18 
L 129.445065 -105.18 
L 128.534481 -105.18 
L 127.623897 -105.18 
L 126.713312 -105.18 
L 125.802728 -105.18 
L 124.892144 -105.18 
L 123.981559 -105.18 
L 123.070975 -105.18 
L 122.160391 -105.18 
L 121.249806 -105.18 
L 120.339222 -105.18 
L 119.428638 -105.18 
L 118.518053 -105.18 
L 117.607469 -105.18 
L 116.696885 -105.18 
L 115.7863 -105.18 
L 114.875716 -105.18 
L 113.965131 -105.18 
L 113.054547 -105.18 
L 112.143963 -105.18 
L 111.233378 -105.18 
L 110.322794 -105.18 
L 109.41221 -105.18 
L 108.501625 -105.18 
L 107.591041 -105.18 
L 106.680457 -105.18 
L 105.769872 -105.18 
L 104.859288 -105.18 
L 103.948704 -105.18 
L 103.038119 -105.18 
L 102.127535 -105.18 
L 101.216951 -105.18 
L 100.306366 -105.18 
L 99.395782 -105.18 
L 98.485198 -105.18 
L 97.574613 -105.18 
L 96.664029 -105.18 
L 95.753444 -105.18 
L 94.84286 -105.18 
L 93.932276 -105.18 
L 93.021691 -105.18 
L 92.111107 -105.18 
L 91.200523 -105.18 
L 90.289938 -105.18 
L 89.379354 -105.18 
L 88.46877 -105.18 
L 87.558185 -105.18 
L 86.647601 -105.18 
L 85.737017 -105.18 
L 84.826432 -105.18 
L 83.915848 -105.18 
L 83.005264 -105.18 
L 82.094679 -105.18 
L 81.184095 -105.18 
L 80.27351 -105.18 
L 79.362926 -105.18 
L 78.452342 -105.18 
L 77.541757 -105.18 
L 76.631173 -105.18 
L 75.720589 -105.18 
L 74.810004 -105.18 
L 73.89942 -105.18 
L 72.988836 -105.18 
L 72.078251 -105.18 
L 71.167667 -105.18 
L 70.257083 -105.18 
L 69.346498 -105.18 
L 68.435914 -105.18 
L 67.52533 -105.18 
L 66.614745 -105.18 
L 65.704161 -105.18 
L 64.793577 -105.18 
L 63.882992 -105.18 
L 62.972408 -105.18 
z
" style="stroke: #ed6b4d; stroke-opacity: 0.1"/>
    </defs>
    <g clip-path="url(#pbdc66d3aca)">
     <use xlink:href="#m8e99125653" x="0" y="208.8" style="fill: #ed6b4d; fill-opacity: 0.1; stroke: #ed6b4d; stroke-opacity: 0.1"/>
    </g>
   </g>
   <g id="line2d_1">
    <defs>
     <path id="mf58bec1343" d="M 0 3 
C 0.795609 3 1.55874 2.683901 2.12132 2.12132 
C 2.683901 1.55874 3 0.795609 3 0 
C 3 -0.795609 2.683901 -1.55874 2.12132 -2.12132 
C 1.55874 -2.683901 0.795609 -3 0 -3 
C -0.795609 -3 -1.55874 -2.683901 -2.12132 -2.12132 
C -2.683901 -1.55874 -3 -0.795609 -3 0 
C -3 0.795609 -2.683901 1.55874 -2.12132 2.12132 
C -1.55874 2.683901 -0.795609 3 0 3 
z
" style="stroke: #0035a0"/>
    </defs>
    <g clip-path="url(#pbdc66d3aca)">
     <use xlink:href="#mf58bec1343" x="58.419486" y="98.199875" style="fill: #0035a0; stroke: #0035a0"/>
     <use xlink:href="#mf58bec1343" x="149.174393" y="159.176281" style="fill: #0035a0; stroke: #0035a0"/>
     <use xlink:href="#mf58bec1343" x="239.9293" y="140.205844" style="fill: #0035a0; stroke: #0035a0"/>
     <use xlink:href="#mf58bec1343" x="330.684207" y="110.395156" style="fill: #0035a0; stroke: #0035a0"/>
    </g>
   </g>
   <g id="line2d_2">
    <path d="M 44.80625 103.62 
L 344.297443 103.62 
" clip-path="url(#pbdc66d3aca)" style="fill: none; stroke: #808080; stroke-width: 0.8; stroke-linecap: square"/>
   </g>
   <g id="matplotlib.axis_1">
    <g id="xtick_1">
     <g id="line2d_3">
      <defs>
       <path id="m2d10254557" d="M 0 0 
L 0 3.5 
" style="stroke: #000000; stroke-width: 0.8"/>
      </defs>
      <g>
       <use xlink:href="#m2d10254557" x="58.419486" y="184.921875" style="stroke: #000000; stroke-width: 0.8"/>
      </g>
     </g>
     <g id="text_1">
      <!-- 30 Jun -->
      <g transform="translate(42.655424 199.520312) scale(0.1 -0.1)">
       <defs>
        <path id="DejaVuSans-33" d="M 2597 2516 
Q 3050 2419 3304 2112 
Q 3559 1806 3559 1356 
Q 3559 666 3084 287 
Q 2609 -91 1734 -91 
Q 1441 -91 1130 -33 
Q 819 25 488 141 
L 488 750 
Q 750 597 1062 519 
Q 1375 441 1716 441 
Q 2309 441 2620 675 
Q 2931 909 2931 1356 
Q 2931 1769 2642 2001 
Q 2353 2234 1838 2234 
L 1294 2234 
L 1294 2753 
L 1863 2753 
Q 2328 2753 2575 2939 
Q 2822 3125 2822 3475 
Q 2822 3834 2567 4026 
Q 2313 4219 1838 4219 
Q 1578 4219 1281 4162 
Q 984 4106 628 3988 
L 628 4550 
Q 988 4650 1302 4700 
Q 1616 4750 1894 4750 
Q 2613 4750 3031 4423 
Q 3450 4097 3450 3541 
Q 3450 3153 3228 2886 
Q 3006 2619 2597 2516 
z
" transform="scale(0.015625)"/>
        <path id="DejaVuSans-30" d="M 2034 4250 
Q 1547 4250 1301 3770 
Q 1056 3291 1056 2328 
Q 1056 1369 1301 889 
Q 1547 409 2034 409 
Q 2525 409 2770 889 
Q 3016 1369 3016 2328 
Q 3016 3291 2770 3770 
Q 2525 4250 2034 4250 
z
M 2034 4750 
Q 2819 4750 3233 4129 
Q 3647 3509 3647 2328 
Q 3647 1150 3233 529 
Q 2819 -91 2034 -91 
Q 1250 -91 836 529 
Q 422 1150 422 2328 
Q 422 3509 836 4129 
Q 1250 4750 2034 4750 
z
" transform="scale(0.015625)"/>
        <path id="DejaVuSans-20" transform="scale(0.015625)"/>
        <path id="DejaVuSans-4a" d="M 628 4666 
L 1259 4666 
L 1259 325 
Q 1259 -519 939 -900 
Q 619 -1281 -91 -1281 
L -331 -1281 
L -331 -750 
L -134 -750 
Q 284 -750 456 -515 
Q 628 -281 628 325 
L 628 4666 
z
" transform="scale(0.015625)"/>
        <path id="DejaVuSans-75" d="M 544 1381 
L 544 3500 
L 1119 3500 
L 1119 1403 
Q 1119 906 1312 657 
Q 1506 409 1894 409 
Q 2359 409 2629 706 
Q 2900 1003 2900 1516 
L 2900 3500 
L 3475 3500 
L 3475 0 
L 2900 0 
L 2900 538 
Q 2691 219 2414 64 
Q 2138 -91 1772 -91 
Q 1169 -91 856 284 
Q 544 659 544 1381 
z
M 1991 3584 
L 1991 3584 
z
" transform="scale(0.015625)"/>
        <path id="DejaVuSans-6e" d="M 3513 2113 
L 3513 0 
L 2938 0 
L 2938 2094 
Q 2938 2591 2744 2837 
Q 2550 3084 2163 3084 
Q 1697 3084 1428 2787 
Q 1159 2491 1159 1978 
L 1159 0 
L 581 0 
L 581 3500 
L 1159 3500 
L 1159 2956 
Q 1366 3272 1645 3428 
Q 1925 3584 2291 3584 
Q 2894 3584 3203 3211 
Q 3513 2838 3513 2113 
z
" transform="scale(0.015625)"/>
       </defs>
       <use xlink:href="#DejaVuSans-33"/>
       <use xlink:href="#DejaVuSans-30" x="63.623047"/>
       <use xlink:href="#DejaVuSans-20" x="127.246094"/>
       <use xlink:href="#DejaVuSans-4a" x="159.033203"/>
       <use xlink:href="#DejaVuSans-75" x="188.525391"/>
       <use xlink:href="#DejaVuSans-6e" x="251.904297"/>
      </g>
     </g>
    </g>
    <g id="xtick_2">
     <g id="line2d_4">
      <g>
       <use xlink:href="#m2d10254557" x="149.174393" y="184.921875" style="stroke: #000000; stroke-width: 0.8"/>
      </g>
     </g>
     <g id="text_2">
      <!-- 01 Jul -->
      <g transform="translate(135.190018 199.520312) scale(0.1 -0.1)">
       <defs>
        <path id="DejaVuSans-31" d="M 794 531 
L 1825 531 
L 1825 4091 
L 703 3866 
L 703 4441 
L 1819 4666 
L 2450 4666 
L 2450 531 
L 3481 531 
L 3481 0 
L 794 0 
L 794 531 
z
" transform="scale(0.015625)"/>
        <path id="DejaVuSans-6c" d="M 603 4863 
L 1178 4863 
L 1178 0 
L 603 0 
L 603 4863 
z
" transform="scale(0.015625)"/>
       </defs>
       <use xlink:href="#DejaVuSans-30"/>
       <use xlink:href="#DejaVuSans-31" x="63.623047"/>
       <use xlink:href="#DejaVuSans-20" x="127.246094"/>
       <use xlink:href="#DejaVuSans-4a" x="159.033203"/>
       <use xlink:href="#DejaVuSans-75" x="188.525391"/>
       <use xlink:href="#DejaVuSans-6c" x="251.904297"/>
      </g>
     </g>
    </g>
    <g id="xtick_3">
     <g id="line2d_5">
      <g>
       <use xlink:href="#m2d10254557" x="239.9293" y="184.921875" style="stroke: #000000; stroke-width: 0.8"/>
      </g>
     </g>
     <g id="text_3">
      <!-- 02 Jul -->
      <g transform="translate(225.944925 199.520312) scale(0.1 -0.1)">
       <defs>
        <path id="DejaVuSans-32" d="M 1228 531 
L 3431 531 
L 3431 0 
L 469 0 
L 469 531 
Q 828 903 1448 1529 
Q 2069 2156 2228 2338 
Q 2531 2678 2651 2914 
Q 2772 3150 2772 3378 
Q 2772 3750 2511 3984 
Q 2250 4219 1831 4219 
Q 1534 4219 1204 4116 
Q 875 4013 500 3803 
L 500 4441 
Q 881 4594 1212 4672 
Q 1544 4750 1819 4750 
Q 2544 4750 2975 4387 
Q 3406 4025 3406 3419 
Q 3406 3131 3298 2873 
Q 3191 2616 2906 2266 
Q 2828 2175 2409 1742 
Q 1991 1309 1228 531 
z
" transform="scale(0.015625)"/>
       </defs>
       <use xlink:href="#DejaVuSans-30"/>
       <use xlink:href="#DejaVuSans-32" x="63.623047"/>
       <use xlink:href="#DejaVuSans-20" x="127.246094"/>
       <use xlink:href="#DejaVuSans-4a" x="159.033203"/>
       <use xlink:href="#DejaVuSans-75" x="188.525391"/>
       <use xlink:href="#DejaVuSans-6c" x="251.904297"/>
      </g>
     </g>
    </g>
    <g id="xtick_4">
     <g id="line2d_6">
      <g>
       <use xlink:href="#m2d10254557" x="330.684207" y="184.921875" style="stroke: #000000; stroke-width: 0.8"/>
      </g>
     </g>
     <g id="text_4">
      <!-- 03 Jul -->
      <g transform="translate(316.699832 199.520312) scale(0.1 -0.1)">
       <use xlink:href="#DejaVuSans-30"/>
       <use xlink:href="#DejaVuSans-33" x="63.623047"/>
       <use xlink:href="#DejaVuSans-20" x="127.246094"/>
       <use xlink:href="#DejaVuSans-4a" x="159.033203"/>
       <use xlink:href="#DejaVuSans-75" x="188.525391"/>
       <use xlink:href="#DejaVuSans-6c" x="251.904297"/>
      </g>
     </g>
    </g>
   </g>
   <g id="matplotlib.axis_2">
    <g id="ytick_1">
     <g id="text_5">
      <!-- −50% -->
      <g transform="translate(7.2 175.170781) scale(0.1 -0.1)">
       <defs>
        <path id="DejaVuSans-2212" d="M 678 2272 
L 4684 2272 
L 4684 1741 
L 678 1741 
L 678 2272 
z
" transform="scale(0.015625)"/>
        <path id="DejaVuSans-35" d="M 691 4666 
L 3169 4666 
L 3169 4134 
L 1269 4134 
L 1269 2991 
Q 1406 3038 1543 3061 
Q 1681 3084 1819 3084 
Q 2600 3084 3056 2656 
Q 3513 2228 3513 1497 
Q 3513 744 3044 326 
Q 2575 -91 1722 -91 
Q 1428 -91 1123 -41 
Q 819 9 494 109 
L 494 744 
Q 775 591 1075 516 
Q 1375 441 1709 441 
Q 2250 441 2565 725 
Q 2881 1009 2881 1497 
Q 2881 1984 2565 2268 
Q 2250 2553 1709 2553 
Q 1456 2553 1204 2497 
Q 953 2441 691 2322 
L 691 4666 
z
" transform="scale(0.015625)"/>
        <path id="DejaVuSans-25" d="M 4653 2053 
Q 4381 2053 4226 1822 
Q 4072 1591 4072 1178 
Q 4072 772 4226 539 
Q 4381 306 4653 306 
Q 4919 306 5073 539 
Q 5228 772 5228 1178 
Q 5228 1588 5073 1820 
Q 4919 2053 4653 2053 
z
M 4653 2450 
Q 5147 2450 5437 2106 
Q 5728 1763 5728 1178 
Q 5728 594 5436 251 
Q 5144 -91 4653 -91 
Q 4153 -91 3862 251 
Q 3572 594 3572 1178 
Q 3572 1766 3864 2108 
Q 4156 2450 4653 2450 
z
M 1428 4353 
Q 1159 4353 1004 4120 
Q 850 3888 850 3481 
Q 850 3069 1003 2837 
Q 1156 2606 1428 2606 
Q 1700 2606 1854 2837 
Q 2009 3069 2009 3481 
Q 2009 3884 1853 4118 
Q 1697 4353 1428 4353 
z
M 4250 4750 
L 4750 4750 
L 1831 -91 
L 1331 -91 
L 4250 4750 
z
M 1428 4750 
Q 1922 4750 2215 4408 
Q 2509 4066 2509 3481 
Q 2509 2891 2217 2550 
Q 1925 2209 1428 2209 
Q 931 2209 642 2551 
Q 353 2894 353 3481 
Q 353 4063 643 4406 
Q 934 4750 1428 4750 
z
" transform="scale(0.015625)"/>
       </defs>
       <use xlink:href="#DejaVuSans-2212"/>
       <use xlink:href="#DejaVuSans-35" x="83.789062"/>
       <use xlink:href="#DejaVuSans-30" x="147.412109"/>
       <use xlink:href="#DejaVuSans-25" x="211.035156"/>
      </g>
     </g>
    </g>
    <g id="ytick_2">
     <g id="text_6">
      <!-- −25% -->
      <g transform="translate(7.2 141.295) scale(0.1 -0.1)">
       <use xlink:href="#DejaVuSans-2212"/>
       <use xlink:href="#DejaVuSans-32" x="83.789062"/>
       <use xlink:href="#DejaVuSans-35" x="147.412109"/>
       <use xlink:href="#DejaVuSans-25" x="211.035156"/>
      </g>
     </g>
    </g>
    <g id="ytick_3">
     <g id="text_7">
      <!-- 0% -->
      <g transform="translate(21.942188 107.419219) scale(0.1 -0.1)">
       <use xlink:href="#DejaVuSans-30"/>
       <use xlink:href="#DejaVuSans-25" x="63.623047"/>
      </g>
     </g>
    </g>
    <g id="ytick_4">
     <g id="text_8">
      <!-- 25% -->
      <g transform="translate(15.579688 73.543437) scale(0.1 -0.1)">
       <use xlink:href="#DejaVuSans-32"/>
       <use xlink:href="#DejaVuSans-35" x="63.623047"/>
       <use xlink:href="#DejaVuSans-25" x="127.246094"/>
      </g>
     </g>
    </g>
    <g id="ytick_5">
     <g id="text_9">
      <!-- 50% -->
      <g transform="translate(15.579688 39.667656) scale(0.1 -0.1)">
       <use xlink:href="#DejaVuSans-35"/>
       <use xlink:href="#DejaVuSans-30" x="63.623047"/>
       <use xlink:href="#DejaVuSans-25" x="127.246094"/>
      </g>
     </g>
    </g>
   </g>
   <g id="line2d_7">
    <path d="M 58.419486 98.199875 
L 62.972408 104.233765 
L 67.52533 109.901251 
L 72.078251 115.211056 
L 76.631173 120.171908 
L 81.184095 124.79253 
L 85.737017 129.081648 
L 90.289938 133.047987 
L 94.84286 136.700274 
L 99.395782 140.047232 
L 103.948704 143.097588 
L 108.501625 145.860066 
L 113.054547 148.343392 
L 117.607469 150.556291 
L 122.160391 152.507489 
L 126.713312 154.20571 
L 131.266234 155.659681 
L 135.819156 156.878125 
L 140.372078 157.869769 
L 144.924999 158.643338 
L 149.477921 159.207558 
L 154.030843 159.571152 
L 158.583765 159.742848 
L 164.047271 159.70786 
L 169.510777 159.42418 
L 174.974283 158.906883 
L 180.437789 158.171048 
L 185.901295 157.231751 
L 192.275386 155.898867 
L 198.649476 154.333514 
L 205.934151 152.290595 
L 213.218826 150.011053 
L 221.414085 147.208228 
L 230.519928 143.857682 
L 242.357525 139.241426 
L 281.512652 123.722894 
L 290.618496 120.465992 
L 298.813755 117.77171 
L 306.09843 115.607946 
L 312.47252 113.922435 
L 318.846611 112.455935 
L 325.220701 111.23239 
L 330.684207 110.395156 
L 330.684207 110.395156 
" clip-path="url(#pbdc66d3aca)" style="fill: none; stroke: #0035a0; stroke-width: 3; stroke-linecap: round"/>
   </g>
   <g id="text_10">
    <!-- St. George's - population change trends -->
    <g transform="translate(75.012159 16.318125) scale(0.12 -0.12)">
     <defs>
      <path id="DejaVuSans-53" d="M 3425 4513 
L 3425 3897 
Q 3066 4069 2747 4153 
Q 2428 4238 2131 4238 
Q 1616 4238 1336 4038 
Q 1056 3838 1056 3469 
Q 1056 3159 1242 3001 
Q 1428 2844 1947 2747 
L 2328 2669 
Q 3034 2534 3370 2195 
Q 3706 1856 3706 1288 
Q 3706 609 3251 259 
Q 2797 -91 1919 -91 
Q 1588 -91 1214 -16 
Q 841 59 441 206 
L 441 856 
Q 825 641 1194 531 
Q 1563 422 1919 422 
Q 2459 422 2753 634 
Q 3047 847 3047 1241 
Q 3047 1584 2836 1778 
Q 2625 1972 2144 2069 
L 1759 2144 
Q 1053 2284 737 2584 
Q 422 2884 422 3419 
Q 422 4038 858 4394 
Q 1294 4750 2059 4750 
Q 2388 4750 2728 4690 
Q 3069 4631 3425 4513 
z
" transform="scale(0.015625)"/>
      <path id="DejaVuSans-74" d="M 1172 4494 
L 1172 3500 
L 2356 3500 
L 2356 3053 
L 1172 3053 
L 1172 1153 
Q 1172 725 1289 603 
Q 1406 481 1766 481 
L 2356 481 
L 2356 0 
L 1766 0 
Q 1100 0 847 248 
Q 594 497 594 1153 
L 594 3053 
L 172 3053 
L 172 3500 
L 594 3500 
L 594 4494 
L 1172 4494 
z
" transform="scale(0.015625)"/>
      <path id="DejaVuSans-2e" d="M 684 794 
L 1344 794 
L 1344 0 
L 684 0 
L 684 794 
z
" transform="scale(0.015625)"/>
      <path id="DejaVuSans-47" d="M 3809 666 
L 3809 1919 
L 2778 1919 
L 2778 2438 
L 4434 2438 
L 4434 434 
Q 4069 175 3628 42 
Q 3188 -91 2688 -91 
Q 1594 -91 976 548 
Q 359 1188 359 2328 
Q 359 3472 976 4111 
Q 1594 4750 2688 4750 
Q 3144 4750 3555 4637 
Q 3966 4525 4313 4306 
L 4313 3634 
Q 3963 3931 3569 4081 
Q 3175 4231 2741 4231 
Q 1884 4231 1454 3753 
Q 1025 3275 1025 2328 
Q 1025 1384 1454 906 
Q 1884 428 2741 428 
Q 3075 428 3337 486 
Q 3600 544 3809 666 
z
" transform="scale(0.015625)"/>
      <path id="DejaVuSans-65" d="M 3597 1894 
L 3597 1613 
L 953 1613 
Q 991 1019 1311 708 
Q 1631 397 2203 397 
Q 2534 397 2845 478 
Q 3156 559 3463 722 
L 3463 178 
Q 3153 47 2828 -22 
Q 2503 -91 2169 -91 
Q 1331 -91 842 396 
Q 353 884 353 1716 
Q 353 2575 817 3079 
Q 1281 3584 2069 3584 
Q 2775 3584 3186 3129 
Q 3597 2675 3597 1894 
z
M 3022 2063 
Q 3016 2534 2758 2815 
Q 2500 3097 2075 3097 
Q 1594 3097 1305 2825 
Q 1016 2553 972 2059 
L 3022 2063 
z
" transform="scale(0.015625)"/>
      <path id="DejaVuSans-6f" d="M 1959 3097 
Q 1497 3097 1228 2736 
Q 959 2375 959 1747 
Q 959 1119 1226 758 
Q 1494 397 1959 397 
Q 2419 397 2687 759 
Q 2956 1122 2956 1747 
Q 2956 2369 2687 2733 
Q 2419 3097 1959 3097 
z
M 1959 3584 
Q 2709 3584 3137 3096 
Q 3566 2609 3566 1747 
Q 3566 888 3137 398 
Q 2709 -91 1959 -91 
Q 1206 -91 779 398 
Q 353 888 353 1747 
Q 353 2609 779 3096 
Q 1206 3584 1959 3584 
z
" transform="scale(0.015625)"/>
      <path id="DejaVuSans-72" d="M 2631 2963 
Q 2534 3019 2420 3045 
Q 2306 3072 2169 3072 
Q 1681 3072 1420 2755 
Q 1159 2438 1159 1844 
L 1159 0 
L 581 0 
L 581 3500 
L 1159 3500 
L 1159 2956 
Q 1341 3275 1631 3429 
Q 1922 3584 2338 3584 
Q 2397 3584 2469 3576 
Q 2541 3569 2628 3553 
L 2631 2963 
z
" transform="scale(0.015625)"/>
      <path id="DejaVuSans-67" d="M 2906 1791 
Q 2906 2416 2648 2759 
Q 2391 3103 1925 3103 
Q 1463 3103 1205 2759 
Q 947 2416 947 1791 
Q 947 1169 1205 825 
Q 1463 481 1925 481 
Q 2391 481 2648 825 
Q 2906 1169 2906 1791 
z
M 3481 434 
Q 3481 -459 3084 -895 
Q 2688 -1331 1869 -1331 
Q 1566 -1331 1297 -1286 
Q 1028 -1241 775 -1147 
L 775 -588 
Q 1028 -725 1275 -790 
Q 1522 -856 1778 -856 
Q 2344 -856 2625 -561 
Q 2906 -266 2906 331 
L 2906 616 
Q 2728 306 2450 153 
Q 2172 0 1784 0 
Q 1141 0 747 490 
Q 353 981 353 1791 
Q 353 2603 747 3093 
Q 1141 3584 1784 3584 
Q 2172 3584 2450 3431 
Q 2728 3278 2906 2969 
L 2906 3500 
L 3481 3500 
L 3481 434 
z
" transform="scale(0.015625)"/>
      <path id="DejaVuSans-27" d="M 1147 4666 
L 1147 2931 
L 616 2931 
L 616 4666 
L 1147 4666 
z
" transform="scale(0.015625)"/>
      <path id="DejaVuSans-73" d="M 2834 3397 
L 2834 2853 
Q 2591 2978 2328 3040 
Q 2066 3103 1784 3103 
Q 1356 3103 1142 2972 
Q 928 2841 928 2578 
Q 928 2378 1081 2264 
Q 1234 2150 1697 2047 
L 1894 2003 
Q 2506 1872 2764 1633 
Q 3022 1394 3022 966 
Q 3022 478 2636 193 
Q 2250 -91 1575 -91 
Q 1294 -91 989 -36 
Q 684 19 347 128 
L 347 722 
Q 666 556 975 473 
Q 1284 391 1588 391 
Q 1994 391 2212 530 
Q 2431 669 2431 922 
Q 2431 1156 2273 1281 
Q 2116 1406 1581 1522 
L 1381 1569 
Q 847 1681 609 1914 
Q 372 2147 372 2553 
Q 372 3047 722 3315 
Q 1072 3584 1716 3584 
Q 2034 3584 2315 3537 
Q 2597 3491 2834 3397 
z
" transform="scale(0.015625)"/>
      <path id="DejaVuSans-2d" d="M 313 2009 
L 1997 2009 
L 1997 1497 
L 313 1497 
L 313 2009 
z
" transform="scale(0.015625)"/>
      <path id="DejaVuSans-70" d="M 1159 525 
L 1159 -1331 
L 581 -1331 
L 581 3500 
L 1159 3500 
L 1159 2969 
Q 1341 3281 1617 3432 
Q 1894 3584 2278 3584 
Q 2916 3584 3314 3078 
Q 3713 2572 3713 1747 
Q 3713 922 3314 415 
Q 2916 -91 2278 -91 
Q 1894 -91 1617 61 
Q 1341 213 1159 525 
z
M 3116 1747 
Q 3116 2381 2855 2742 
Q 2594 3103 2138 3103 
Q 1681 3103 1420 2742 
Q 1159 2381 1159 1747 
Q 1159 1113 1420 752 
Q 1681 391 2138 391 
Q 2594 391 2855 752 
Q 3116 1113 3116 1747 
z
" transform="scale(0.015625)"/>
      <path id="DejaVuSans-61" d="M 2194 1759 
Q 1497 1759 1228 1600 
Q 959 1441 959 1056 
Q 959 750 1161 570 
Q 1363 391 1709 391 
Q 2188 391 2477 730 
Q 2766 1069 2766 1631 
L 2766 1759 
L 2194 1759 
z
M 3341 1997 
L 3341 0 
L 2766 0 
L 2766 531 
Q 2569 213 2275 61 
Q 1981 -91 1556 -91 
Q 1019 -91 701 211 
Q 384 513 384 1019 
Q 384 1609 779 1909 
Q 1175 2209 1959 2209 
L 2766 2209 
L 2766 2266 
Q 2766 2663 2505 2880 
Q 2244 3097 1772 3097 
Q 1472 3097 1187 3025 
Q 903 2953 641 2809 
L 641 3341 
Q 956 3463 1253 3523 
Q 1550 3584 1831 3584 
Q 2591 3584 2966 3190 
Q 3341 2797 3341 1997 
z
" transform="scale(0.015625)"/>
      <path id="DejaVuSans-69" d="M 603 3500 
L 1178 3500 
L 1178 0 
L 603 0 
L 603 3500 
z
M 603 4863 
L 1178 4863 
L 1178 4134 
L 603 4134 
L 603 4863 
z
" transform="scale(0.015625)"/>
      <path id="DejaVuSans-63" d="M 3122 3366 
L 3122 2828 
Q 2878 2963 2633 3030 
Q 2388 3097 2138 3097 
Q 1578 3097 1268 2742 
Q 959 2388 959 1747 
Q 959 1106 1268 751 
Q 1578 397 2138 397 
Q 2388 397 2633 464 
Q 2878 531 3122 666 
L 3122 134 
Q 2881 22 2623 -34 
Q 2366 -91 2075 -91 
Q 1284 -91 818 406 
Q 353 903 353 1747 
Q 353 2603 823 3093 
Q 1294 3584 2113 3584 
Q 2378 3584 2631 3529 
Q 2884 3475 3122 3366 
z
" transform="scale(0.015625)"/>
      <path id="DejaVuSans-68" d="M 3513 2113 
L 3513 0 
L 2938 0 
L 2938 2094 
Q 2938 2591 2744 2837 
Q 2550 3084 2163 3084 
Q 1697 3084 1428 2787 
Q 1159 2491 1159 1978 
L 1159 0 
L 581 0 
L 581 4863 
L 1159 4863 
L 1159 2956 
Q 1366 3272 1645 3428 
Q 1925 3584 2291 3584 
Q 2894 3584 3203 3211 
Q 3513 2838 3513 2113 
z
" transform="scale(0.015625)"/>
      <path id="DejaVuSans-64" d="M 2906 2969 
L 2906 4863 
L 3481 4863 
L 3481 0 
L 2906 0 
L 2906 525 
Q 2725 213 2448 61 
Q 2172 -91 1784 -91 
Q 1150 -91 751 415 
Q 353 922 353 1747 
Q 353 2572 751 3078 
Q 1150 3584 1784 3584 
Q 2172 3584 2448 3432 
Q 2725 3281 2906 2969 
z
M 947 1747 
Q 947 1113 1208 752 
Q 1469 391 1925 391 
Q 2381 391 2643 752 
Q 2906 1113 2906 1747 
Q 2906 2381 2643 2742 
Q 2381 3103 1925 3103 
Q 1469 3103 1208 2742 
Q 947 2381 947 1747 
z
" transform="scale(0.015625)"/>
     </defs>
     <use xlink:href="#DejaVuSans-53"/>
     <use xlink:href="#DejaVuSans-74" x="63.476562"/>
     <use xlink:href="#DejaVuSans-2e" x="102.685547"/>
     <use xlink:href="#DejaVuSans-20" x="134.472656"/>
     <use xlink:href="#DejaVuSans-47" x="166.259766"/>
     <use xlink:href="#DejaVuSans-65" x="243.75"/>
     <use xlink:href="#DejaVuSans-6f" x="305.273438"/>
     <use xlink:href="#DejaVuSans-72" x="366.455078"/>
     <use xlink:href="#DejaVuSans-67" x="405.818359"/>
     <use xlink:href="#DejaVuSans-65" x="469.294922"/>
     <use xlink:href="#DejaVuSans-27" x="530.818359"/>
     <use xlink:href="#DejaVuSans-73" x="558.308594"/>
     <use xlink:href="#DejaVuSans-20" x="610.408203"/>
     <use xlink:href="#DejaVuSans-2d" x="642.195312"/>
     <use xlink:href="#DejaVuSans-20" x="678.279297"/>
     <use xlink:href="#DejaVuSans-70" x="710.066406"/>
     <use xlink:href="#DejaVuSans-6f" x="773.542969"/>
     <use xlink:href="#DejaVuSans-70" x="834.724609"/>
     <use xlink:href="#DejaVuSans-75" x="898.201172"/>
     <use xlink:href="#DejaVuSans-6c" x="961.580078"/>
     <use xlink:href="#DejaVuSans-61" x="989.363281"/>
     <use xlink:href="#DejaVuSans-74" x="1050.642578"/>
     <use xlink:href="#DejaVuSans-69" x="1089.851562"/>
     <use xlink:href="#DejaVuSans-6f" x="1117.634766"/>
     <use xlink:href="#DejaVuSans-6e" x="1178.816406"/>
     <use xlink:href="#DejaVuSans-20" x="1242.195312"/>
     <use xlink:href="#DejaVuSans-63" x="1273.982422"/>
     <use xlink:href="#DejaVuSans-68" x="1328.962891"/>
     <use xlink:href="#DejaVuSans-61" x="1392.341797"/>
     <use xlink:href="#DejaVuSans-6e" x="1453.621094"/>
     <use xlink:href="#DejaVuSans-67" x="1517"/>
     <use xlink:href="#DejaVuSans-65" x="1580.476562"/>
     <use xlink:href="#DejaVuSans-20" x="1642"/>
     <use xlink:href="#DejaVuSans-74" x="1673.787109"/>
     <use xlink:href="#DejaVuSans-72" x="1712.996094"/>
     <use xlink:href="#DejaVuSans-65" x="1751.859375"/>
     <use xlink:href="#DejaVuSans-6e" x="1813.382812"/>
     <use xlink:href="#DejaVuSans-64" x="1876.761719"/>
     <use xlink:href="#DejaVuSans-73" x="1940.238281"/>
    </g>
   </g>
  </g>
 </g>
 <defs>
  <clipPath id="pbdc66d3aca">
   <rect x="44.80625" y="22.318125" width="299.491193" height="162.60375"/>
  </clipPath>
 </defs>
</svg>
