<?xml version="1.0" encoding="utf-8" standalone="no"?>
<!DOCTYPE svg PUBLIC "-//W3C//DTD SVG 1.1//EN"
  "http://www.w3.org/Graphics/SVG/1.1/DTD/svg11.dtd">
<svg xmlns:xlink="http://www.w3.org/1999/xlink" width="351.868582pt" height="208.8pt" viewBox="0 0 351.868582 208.8" xmlns="http://www.w3.org/2000/svg" version="1.1">
 <metadata>
  <rdf:RDF xmlns:dc="http://purl.org/dc/elements/1.1/" xmlns:cc="http://creativecommons.org/ns#" xmlns:rdf="http://www.w3.org/1999/02/22-rdf-syntax-ns#">
   <cc:Work>
    <dc:type rdf:resource="http://purl.org/dc/dcmitype/StillImage"/>
    <dc:date>2024-07-10T13:52:02.460036</dc:date>
    <dc:format>image/svg+xml</dc:format>
    <dc:creator>
     <cc:Agent>
      <dc:title>Matplotlib v3.9.0, https://matplotlib.org/</dc:title>
     </cc:Agent>
    </dc:creator>
   </cc:Work>
  </rdf:RDF>
 </metadata>
 <defs>
  <style type="text/css">*{stroke-linejoin: round; stroke-linecap: butt}</style>
 </defs>
 <g id="figure_1">
  <g id="patch_1">
   <path d="M 0 208.8 
L 351.868582 208.8 
L 351.868582 0 
L 0 0 
L 0 208.8 
z
" style="fill: none"/>
  </g>
  <g id="axes_1">
   <g id="patch_2">
    <path d="M 44.80625 184.921875 
L 344.297443 184.921875 
L 344.297443 22.318125 
L 44.80625 22.318125 
L 44.80625 184.921875 
z
" style="fill: none; opacity: 0"/>
   </g>
   <g id="PolyCollection_1">
    <path d="M 58.419486 98.199875 
L 58.419486 98.199875 
L 59.33007 101.955118 
L 59.749579 103.62 
L 59.33007 103.62 
L 58.419486 103.62 
z
" clip-path="url(#pfb4a7e5665)" style="fill: #6ec5bc; fill-opacity: 0.1; stroke: #6ec5bc; stroke-opacity: 0.1"/>
    <path d="M 159.654873 103.62 
L 160.404933 103.23295 
L 161.315518 102.783171 
L 162.226102 102.353618 
L 163.136686 101.944416 
L 164.047271 101.555687 
L 164.957855 101.187553 
L 165.86844 100.840138 
L 166.779024 100.513563 
L 167.689608 100.207953 
L 168.600193 99.923428 
L 169.510777 99.660113 
L 170.421361 99.41813 
L 171.331946 99.197602 
L 172.24253 98.998651 
L 173.153114 98.8214 
L 174.063699 98.665972 
L 174.974283 98.53249 
L 175.884867 98.421076 
L 176.795452 98.331853 
L 177.706036 98.264944 
L 178.61662 98.220471 
L 179.527205 98.198558 
L 180.437789 98.198999 
L 181.348373 98.220653 
L 182.258958 98.262208 
L 183.169542 98.322354 
L 184.080127 98.399781 
L 184.990711 98.493179 
L 185.901295 98.601236 
L 186.81188 98.722642 
L 187.722464 98.856086 
L 188.633048 99.000259 
L 189.543633 99.153849 
L 190.454217 99.315546 
L 191.364801 99.48404 
L 192.275386 99.65802 
L 193.18597 99.836175 
L 194.096554 100.017195 
L 195.007139 100.199769 
L 195.917723 100.382588 
L 196.828307 100.56434 
L 197.738892 100.743714 
L 198.649476 100.919401 
L 199.560061 101.09009 
L 200.470645 101.25447 
L 201.381229 101.411231 
L 202.291814 101.559062 
L 203.202398 101.696653 
L 204.112982 101.822693 
L 205.023567 101.935872 
L 205.934151 102.034879 
L 206.844735 102.118403 
L 207.75532 102.185135 
L 208.665904 102.233764 
L 209.576488 102.262978 
L 210.487073 102.271754 
L 211.397657 102.260662 
L 212.308241 102.230833 
L 213.218826 102.183392 
L 214.12941 102.11947 
L 215.039994 102.040193 
L 215.950579 101.946691 
L 216.861163 101.840092 
L 217.771748 101.721523 
L 218.682332 101.592114 
L 219.592916 101.452993 
L 220.503501 101.305287 
L 221.414085 101.150126 
L 222.324669 100.988637 
L 223.235254 100.821949 
L 224.145838 100.65119 
L 225.056422 100.477489 
L 225.967007 100.301973 
L 226.877591 100.125771 
L 227.788175 99.950012 
L 228.69876 99.775823 
L 229.609344 99.604333 
L 230.519928 99.43667 
L 231.430513 99.273963 
L 232.341097 99.11734 
L 233.251682 98.967929 
L 234.162266 98.826858 
L 235.07285 98.695256 
L 235.983435 98.574251 
L 236.894019 98.464971 
L 237.804603 98.368545 
L 238.715188 98.286101 
L 239.625772 98.218767 
L 240.536356 98.167567 
L 241.446941 98.132312 
L 242.357525 98.112029 
L 243.268109 98.105733 
L 244.178694 98.112438 
L 245.089278 98.13116 
L 245.999862 98.160911 
L 246.910447 98.200708 
L 247.821031 98.249565 
L 248.731616 98.306495 
L 249.6422 98.370515 
L 250.552784 98.440637 
L 251.463369 98.515878 
L 252.373953 98.595251 
L 253.284537 98.677771 
L 254.195122 98.762453 
L 255.105706 98.84831 
L 256.01629 98.934359 
L 256.926875 99.019613 
L 257.837459 99.103086 
L 258.748043 99.183794 
L 259.658628 99.260751 
L 260.569212 99.332972 
L 261.479796 99.39947 
L 262.390381 99.459262 
L 263.300965 99.51136 
L 264.211549 99.554781 
L 265.122134 99.588537 
L 266.032718 99.611645 
L 266.943303 99.623118 
L 267.853887 99.621971 
L 268.764471 99.607219 
L 269.675056 99.577875 
L 270.58564 99.532979 
L 271.496224 99.472269 
L 272.406809 99.396297 
L 273.317393 99.305658 
L 274.227977 99.200949 
L 275.138562 99.082766 
L 276.049146 98.951706 
L 276.95973 98.808363 
L 277.870315 98.653336 
L 278.780899 98.487219 
L 279.691483 98.310609 
L 280.602068 98.124102 
L 281.512652 97.928295 
L 282.423237 97.723783 
L 283.333821 97.511163 
L 284.244405 97.291031 
L 285.15499 97.063983 
L 286.065574 96.830615 
L 286.976158 96.591524 
L 287.886743 96.347305 
L 288.797327 96.098556 
L 289.707911 95.845871 
L 290.618496 95.589848 
L 291.52908 95.331082 
L 292.439664 95.07017 
L 293.350249 94.807708 
L 294.260833 94.544291 
L 295.171417 94.280517 
L 296.082002 94.016982 
L 296.992586 93.754281 
L 297.90317 93.493011 
L 298.813755 93.233768 
L 299.724339 92.977148 
L 300.634924 92.723748 
L 301.545508 92.474163 
L 302.456092 92.22899 
L 303.366677 91.988824 
L 304.277261 91.754263 
L 305.187845 91.525903 
L 306.09843 91.304339 
L 307.009014 91.090167 
L 307.919598 90.883985 
L 308.830183 90.686388 
L 309.740767 90.497972 
L 310.651351 90.319333 
L 311.561936 90.151068 
L 312.47252 89.993773 
L 313.383104 89.848045 
L 314.293689 89.714478 
L 315.204273 89.59367 
L 316.114858 89.486216 
L 317.025442 89.392714 
L 317.936026 89.313758 
L 318.846611 89.249946 
L 319.757195 89.201873 
L 320.667779 89.170136 
L 321.578364 89.15533 
L 322.488948 89.158053 
L 323.399532 89.1789 
L 324.310117 89.218467 
L 325.220701 89.27735 
L 326.131285 89.356147 
L 327.04187 89.455452 
L 327.952454 89.575863 
L 328.863038 89.717975 
L 329.773623 89.882384 
L 330.684207 90.069687 
L 330.684207 90.069687 
L 330.684207 103.62 
L 329.773623 103.62 
L 328.863038 103.62 
L 327.952454 103.62 
L 327.04187 103.62 
L 326.131285 103.62 
L 325.220701 103.62 
L 324.310117 103.62 
L 323.399532 103.62 
L 322.488948 103.62 
L 321.578364 103.62 
L 320.667779 103.62 
L 319.757195 103.62 
L 318.846611 103.62 
L 317.936026 103.62 
L 317.025442 103.62 
L 316.114858 103.62 
L 315.204273 103.62 
L 314.293689 103.62 
L 313.383104 103.62 
L 312.47252 103.62 
L 311.561936 103.62 
L 310.651351 103.62 
L 309.740767 103.62 
L 308.830183 103.62 
L 307.919598 103.62 
L 307.009014 103.62 
L 306.09843 103.62 
L 305.187845 103.62 
L 304.277261 103.62 
L 303.366677 103.62 
L 302.456092 103.62 
L 301.545508 103.62 
L 300.634924 103.62 
L 299.724339 103.62 
L 298.813755 103.62 
L 297.90317 103.62 
L 296.992586 103.62 
L 296.082002 103.62 
L 295.171417 103.62 
L 294.260833 103.62 
L 293.350249 103.62 
L 292.439664 103.62 
L 291.52908 103.62 
L 290.618496 103.62 
L 289.707911 103.62 
L 288.797327 103.62 
L 287.886743 103.62 
L 286.976158 103.62 
L 286.065574 103.62 
L 285.15499 103.62 
L 284.244405 103.62 
L 283.333821 103.62 
L 282.423237 103.62 
L 281.512652 103.62 
L 280.602068 103.62 
L 279.691483 103.62 
L 278.780899 103.62 
L 277.870315 103.62 
L 276.95973 103.62 
L 276.049146 103.62 
L 275.138562 103.62 
L 274.227977 103.62 
L 273.317393 103.62 
L 272.406809 103.62 
L 271.496224 103.62 
L 270.58564 103.62 
L 269.675056 103.62 
L 268.764471 103.62 
L 267.853887 103.62 
L 266.943303 103.62 
L 266.032718 103.62 
L 265.122134 103.62 
L 264.211549 103.62 
L 263.300965 103.62 
L 262.390381 103.62 
L 261.479796 103.62 
L 260.569212 103.62 
L 259.658628 103.62 
L 258.748043 103.62 
L 257.837459 103.62 
L 256.926875 103.62 
L 256.01629 103.62 
L 255.105706 103.62 
L 254.195122 103.62 
L 253.284537 103.62 
L 252.373953 103.62 
L 251.463369 103.62 
L 250.552784 103.62 
L 249.6422 103.62 
L 248.731616 103.62 
L 247.821031 103.62 
L 246.910447 103.62 
L 245.999862 103.62 
L 245.089278 103.62 
L 244.178694 103.62 
L 243.268109 103.62 
L 242.357525 103.62 
L 241.446941 103.62 
L 240.536356 103.62 
L 239.625772 103.62 
L 238.715188 103.62 
L 237.804603 103.62 
L 236.894019 103.62 
L 235.983435 103.62 
L 235.07285 103.62 
L 234.162266 103.62 
L 233.251682 103.62 
L 232.341097 103.62 
L 231.430513 103.62 
L 230.519928 103.62 
L 229.609344 103.62 
L 228.69876 103.62 
L 227.788175 103.62 
L 226.877591 103.62 
L 225.967007 103.62 
L 225.056422 103.62 
L 224.145838 103.62 
L 223.235254 103.62 
L 222.324669 103.62 
L 221.414085 103.62 
L 220.503501 103.62 
L 219.592916 103.62 
L 218.682332 103.62 
L 217.771748 103.62 
L 216.861163 103.62 
L 215.950579 103.62 
L 215.039994 103.62 
L 214.12941 103.62 
L 213.218826 103.62 
L 212.308241 103.62 
L 211.397657 103.62 
L 210.487073 103.62 
L 209.576488 103.62 
L 208.665904 103.62 
L 207.75532 103.62 
L 206.844735 103.62 
L 205.934151 103.62 
L 205.023567 103.62 
L 204.112982 103.62 
L 203.202398 103.62 
L 202.291814 103.62 
L 201.381229 103.62 
L 200.470645 103.62 
L 199.560061 103.62 
L 198.649476 103.62 
L 197.738892 103.62 
L 196.828307 103.62 
L 195.917723 103.62 
L 195.007139 103.62 
L 194.096554 103.62 
L 193.18597 103.62 
L 192.275386 103.62 
L 191.364801 103.62 
L 190.454217 103.62 
L 189.543633 103.62 
L 188.633048 103.62 
L 187.722464 103.62 
L 186.81188 103.62 
L 185.901295 103.62 
L 184.990711 103.62 
L 184.080127 103.62 
L 183.169542 103.62 
L 182.258958 103.62 
L 181.348373 103.62 
L 180.437789 103.62 
L 179.527205 103.62 
L 178.61662 103.62 
L 177.706036 103.62 
L 176.795452 103.62 
L 175.884867 103.62 
L 174.974283 103.62 
L 174.063699 103.62 
L 173.153114 103.62 
L 172.24253 103.62 
L 171.331946 103.62 
L 170.421361 103.62 
L 169.510777 103.62 
L 168.600193 103.62 
L 167.689608 103.62 
L 166.779024 103.62 
L 165.86844 103.62 
L 164.957855 103.62 
L 164.047271 103.62 
L 163.136686 103.62 
L 162.226102 103.62 
L 161.315518 103.62 
L 160.404933 103.62 
z
" clip-path="url(#pfb4a7e5665)" style="fill: #6ec5bc; fill-opacity: 0.1; stroke: #6ec5bc; stroke-opacity: 0.1"/>
   </g>
   <g id="PolyCollection_2">
    <defs>
     <path id="m693d6f276e" d="M 59.749579 -105.18 
L 60.240655 -103.231094 
L 61.151239 -99.756619 
L 62.061823 -96.419314 
L 62.972408 -93.217039 
L 63.882992 -90.14765 
L 64.793577 -87.209006 
L 65.704161 -84.398965 
L 66.614745 -81.715385 
L 67.52533 -79.156124 
L 68.435914 -76.719039 
L 69.346498 -74.401989 
L 70.257083 -72.202831 
L 71.167667 -70.119425 
L 72.078251 -68.149627 
L 72.988836 -66.291295 
L 73.89942 -64.542289 
L 74.810004 -62.900464 
L 75.720589 -61.363681 
L 76.631173 -59.929795 
L 77.541757 -58.596667 
L 78.452342 -57.362153 
L 79.362926 -56.224111 
L 80.27351 -55.1804 
L 81.184095 -54.228877 
L 82.094679 -53.367401 
L 83.005264 -52.593829 
L 83.915848 -51.90602 
L 84.826432 -51.30183 
L 85.737017 -50.77912 
L 86.647601 -50.335745 
L 87.558185 -49.969565 
L 88.46877 -49.678437 
L 89.379354 -49.460219 
L 90.289938 -49.31277 
L 91.200523 -49.233947 
L 92.111107 -49.221608 
L 93.021691 -49.273611 
L 93.932276 -49.387814 
L 94.84286 -49.562075 
L 95.753444 -49.794253 
L 96.664029 -50.082205 
L 97.574613 -50.423788 
L 98.485198 -50.816862 
L 99.395782 -51.259284 
L 100.306366 -51.748912 
L 101.216951 -52.283603 
L 102.127535 -52.861217 
L 103.038119 -53.479611 
L 103.948704 -54.136642 
L 104.859288 -54.83017 
L 105.769872 -55.558051 
L 106.680457 -56.318144 
L 107.591041 -57.108307 
L 108.501625 -57.926398 
L 109.41221 -58.770275 
L 110.322794 -59.637795 
L 111.233378 -60.526817 
L 112.143963 -61.435199 
L 113.054547 -62.360799 
L 113.965131 -63.301474 
L 114.875716 -64.255083 
L 115.7863 -65.219484 
L 116.696885 -66.192534 
L 117.607469 -67.172092 
L 118.518053 -68.156016 
L 119.428638 -69.142207 
L 120.339222 -70.12936 
L 121.249806 -71.116855 
L 122.160391 -72.104093 
L 123.070975 -73.090478 
L 123.981559 -74.07541 
L 124.892144 -75.058292 
L 125.802728 -76.038527 
L 126.713312 -77.015515 
L 127.623897 -77.988661 
L 128.534481 -78.957365 
L 129.445065 -79.921029 
L 130.35565 -80.879057 
L 131.266234 -81.830849 
L 132.176819 -82.775809 
L 133.087403 -83.713338 
L 133.997987 -84.642838 
L 134.908572 -85.563712 
L 135.819156 -86.475361 
L 136.72974 -87.377188 
L 137.640325 -88.268596 
L 138.550909 -89.148985 
L 139.461493 -90.017758 
L 140.372078 -90.874318 
L 141.282662 -91.718066 
L 142.193246 -92.548405 
L 143.103831 -93.364736 
L 144.014415 -94.166463 
L 144.924999 -94.952986 
L 145.835584 -95.723709 
L 146.746168 -96.478032 
L 147.656752 -97.215359 
L 148.567337 -97.935092 
L 149.477921 -98.636635 
L 150.388506 -99.31957 
L 151.29909 -99.98375 
L 152.209674 -100.629053 
L 153.120259 -101.255356 
L 154.030843 -101.862536 
L 154.941427 -102.450471 
L 155.852012 -103.019037 
L 156.762596 -103.568112 
L 157.67318 -104.097574 
L 158.583765 -104.607299 
L 159.494349 -105.097166 
L 159.654873 -105.18 
L 159.494349 -105.18 
L 158.583765 -105.18 
L 157.67318 -105.18 
L 156.762596 -105.18 
L 155.852012 -105.18 
L 154.941427 -105.18 
L 154.030843 -105.18 
L 153.120259 -105.18 
L 152.209674 -105.18 
L 151.29909 -105.18 
L 150.388506 -105.18 
L 149.477921 -105.18 
L 148.567337 -105.18 
L 147.656752 -105.18 
L 146.746168 -105.18 
L 145.835584 -105.18 
L 144.924999 -105.18 
L 144.014415 -105.18 
L 143.103831 -105.18 
L 142.193246 -105.18 
L 141.282662 -105.18 
L 140.372078 -105.18 
L 139.461493 -105.18 
L 138.550909 -105.18 
L 137.640325 -105.18 
L 136.72974 -105.18 
L 135.819156 -105.18 
L 134.908572 -105.18 
L 133.997987 -105.18 
L 133.087403 -105.18 
L 132.176819 -105.18 
L 131.266234 -105.18 
L 130.35565 -105.18 
L 129.445065 -105.18 
L 128.534481 -105.18 
L 127.623897 -105.18 
L 126.713312 -105.18 
L 125.802728 -105.18 
L 124.892144 -105.18 
L 123.981559 -105.18 
L 123.070975 -105.18 
L 122.160391 -105.18 
L 121.249806 -105.18 
L 120.339222 -105.18 
L 119.428638 -105.18 
L 118.518053 -105.18 
L 117.607469 -105.18 
L 116.696885 -105.18 
L 115.7863 -105.18 
L 114.875716 -105.18 
L 113.965131 -105.18 
L 113.054547 -105.18 
L 112.143963 -105.18 
L 111.233378 -105.18 
L 110.322794 -105.18 
L 109.41221 -105.18 
L 108.501625 -105.18 
L 107.591041 -105.18 
L 106.680457 -105.18 
L 105.769872 -105.18 
L 104.859288 -105.18 
L 103.948704 -105.18 
L 103.038119 -105.18 
L 102.127535 -105.18 
L 101.216951 -105.18 
L 100.306366 -105.18 
L 99.395782 -105.18 
L 98.485198 -105.18 
L 97.574613 -105.18 
L 96.664029 -105.18 
L 95.753444 -105.18 
L 94.84286 -105.18 
L 93.932276 -105.18 
L 93.021691 -105.18 
L 92.111107 -105.18 
L 91.200523 -105.18 
L 90.289938 -105.18 
L 89.379354 -105.18 
L 88.46877 -105.18 
L 87.558185 -105.18 
L 86.647601 -105.18 
L 85.737017 -105.18 
L 84.826432 -105.18 
L 83.915848 -105.18 
L 83.005264 -105.18 
L 82.094679 -105.18 
L 81.184095 -105.18 
L 80.27351 -105.18 
L 79.362926 -105.18 
L 78.452342 -105.18 
L 77.541757 -105.18 
L 76.631173 -105.18 
L 75.720589 -105.18 
L 74.810004 -105.18 
L 73.89942 -105.18 
L 72.988836 -105.18 
L 72.078251 -105.18 
L 71.167667 -105.18 
L 70.257083 -105.18 
L 69.346498 -105.18 
L 68.435914 -105.18 
L 67.52533 -105.18 
L 66.614745 -105.18 
L 65.704161 -105.18 
L 64.793577 -105.18 
L 63.882992 -105.18 
L 62.972408 -105.18 
L 62.061823 -105.18 
L 61.151239 -105.18 
L 60.240655 -105.18 
z
" style="stroke: #ed6b4d; stroke-opacity: 0.1"/>
    </defs>
    <g clip-path="url(#pfb4a7e5665)">
     <use xlink:href="#m693d6f276e" x="0" y="208.8" style="fill: #ed6b4d; fill-opacity: 0.1; stroke: #ed6b4d; stroke-opacity: 0.1"/>
    </g>
   </g>
   <g id="line2d_1">
    <defs>
     <path id="m3d653525ff" d="M 0 3 
C 0.795609 3 1.55874 2.683901 2.12132 2.12132 
C 2.683901 1.55874 3 0.795609 3 0 
C 3 -0.795609 2.683901 -1.55874 2.12132 -2.12132 
C 1.55874 -2.683901 0.795609 -3 0 -3 
C -0.795609 -3 -1.55874 -2.683901 -2.12132 -2.12132 
C -2.683901 -1.55874 -3 -0.795609 -3 0 
C -3 0.795609 -2.683901 1.55874 -2.12132 2.12132 
C -1.55874 2.683901 -0.795609 3 0 3 
z
" style="stroke: #0035a0"/>
    </defs>
    <g clip-path="url(#pfb4a7e5665)">
     <use xlink:href="#m3d653525ff" x="58.419486" y="98.199875" style="fill: #0035a0; stroke: #0035a0"/>
     <use xlink:href="#m3d653525ff" x="88.671122" y="159.176281" style="fill: #0035a0; stroke: #0035a0"/>
     <use xlink:href="#m3d653525ff" x="118.922757" y="140.205844" style="fill: #0035a0; stroke: #0035a0"/>
     <use xlink:href="#m3d653525ff" x="149.174393" y="110.395156" style="fill: #0035a0; stroke: #0035a0"/>
     <use xlink:href="#m3d653525ff" x="179.426029" y="98.199875" style="fill: #0035a0; stroke: #0035a0"/>
     <use xlink:href="#m3d653525ff" x="209.677664" y="102.264969" style="fill: #0035a0; stroke: #0035a0"/>
     <use xlink:href="#m3d653525ff" x="239.9293" y="98.199875" style="fill: #0035a0; stroke: #0035a0"/>
     <use xlink:href="#m3d653525ff" x="270.180936" y="99.554906" style="fill: #0035a0; stroke: #0035a0"/>
     <use xlink:href="#m3d653525ff" x="300.432571" y="92.77975" style="fill: #0035a0; stroke: #0035a0"/>
     <use xlink:href="#m3d653525ff" x="330.684207" y="90.069687" style="fill: #0035a0; stroke: #0035a0"/>
    </g>
   </g>
   <g id="line2d_2">
    <path d="M 44.80625 103.62 
L 344.297443 103.62 
" clip-path="url(#pfb4a7e5665)" style="fill: none; stroke: #808080; stroke-width: 0.8; stroke-linecap: square"/>
   </g>
   <g id="matplotlib.axis_1">
    <g id="xtick_1">
     <g id="line2d_3">
      <defs>
       <path id="mf90629ebe8" d="M 0 0 
L 0 3.5 
" style="stroke: #000000; stroke-width: 0.8"/>
      </defs>
      <g>
       <use xlink:href="#mf90629ebe8" x="58.419486" y="184.921875" style="stroke: #000000; stroke-width: 0.8"/>
      </g>
     </g>
     <g id="text_1">
      <!-- 30 Jun -->
      <g transform="translate(42.655424 199.520312) scale(0.1 -0.1)">
       <defs>
        <path id="DejaVuSans-33" d="M 2597 2516 
Q 3050 2419 3304 2112 
Q 3559 1806 3559 1356 
Q 3559 666 3084 287 
Q 2609 -91 1734 -91 
Q 1441 -91 1130 -33 
Q 819 25 488 141 
L 488 750 
Q 750 597 1062 519 
Q 1375 441 1716 441 
Q 2309 441 2620 675 
Q 2931 909 2931 1356 
Q 2931 1769 2642 2001 
Q 2353 2234 1838 2234 
L 1294 2234 
L 1294 2753 
L 1863 2753 
Q 2328 2753 2575 2939 
Q 2822 3125 2822 3475 
Q 2822 3834 2567 4026 
Q 2313 4219 1838 4219 
Q 1578 4219 1281 4162 
Q 984 4106 628 3988 
L 628 4550 
Q 988 4650 1302 4700 
Q 1616 4750 1894 4750 
Q 2613 4750 3031 4423 
Q 3450 4097 3450 3541 
Q 3450 3153 3228 2886 
Q 3006 2619 2597 2516 
z
" transform="scale(0.015625)"/>
        <path id="DejaVuSans-30" d="M 2034 4250 
Q 1547 4250 1301 3770 
Q 1056 3291 1056 2328 
Q 1056 1369 1301 889 
Q 1547 409 2034 409 
Q 2525 409 2770 889 
Q 3016 1369 3016 2328 
Q 3016 3291 2770 3770 
Q 2525 4250 2034 4250 
z
M 2034 4750 
Q 2819 4750 3233 4129 
Q 3647 3509 3647 2328 
Q 3647 1150 3233 529 
Q 2819 -91 2034 -91 
Q 1250 -91 836 529 
Q 422 1150 422 2328 
Q 422 3509 836 4129 
Q 1250 4750 2034 4750 
z
" transform="scale(0.015625)"/>
        <path id="DejaVuSans-20" transform="scale(0.015625)"/>
        <path id="DejaVuSans-4a" d="M 628 4666 
L 1259 4666 
L 1259 325 
Q 1259 -519 939 -900 
Q 619 -1281 -91 -1281 
L -331 -1281 
L -331 -750 
L -134 -750 
Q 284 -750 456 -515 
Q 628 -281 628 325 
L 628 4666 
z
" transform="scale(0.015625)"/>
        <path id="DejaVuSans-75" d="M 544 1381 
L 544 3500 
L 1119 3500 
L 1119 1403 
Q 1119 906 1312 657 
Q 1506 409 1894 409 
Q 2359 409 2629 706 
Q 2900 1003 2900 1516 
L 2900 3500 
L 3475 3500 
L 3475 0 
L 2900 0 
L 2900 538 
Q 2691 219 2414 64 
Q 2138 -91 1772 -91 
Q 1169 -91 856 284 
Q 544 659 544 1381 
z
M 1991 3584 
L 1991 3584 
z
" transform="scale(0.015625)"/>
        <path id="DejaVuSans-6e" d="M 3513 2113 
L 3513 0 
L 2938 0 
L 2938 2094 
Q 2938 2591 2744 2837 
Q 2550 3084 2163 3084 
Q 1697 3084 1428 2787 
Q 1159 2491 1159 1978 
L 1159 0 
L 581 0 
L 581 3500 
L 1159 3500 
L 1159 2956 
Q 1366 3272 1645 3428 
Q 1925 3584 2291 3584 
Q 2894 3584 3203 3211 
Q 3513 2838 3513 2113 
z
" transform="scale(0.015625)"/>
       </defs>
       <use xlink:href="#DejaVuSans-33"/>
       <use xlink:href="#DejaVuSans-30" x="63.623047"/>
       <use xlink:href="#DejaVuSans-20" x="127.246094"/>
       <use xlink:href="#DejaVuSans-4a" x="159.033203"/>
       <use xlink:href="#DejaVuSans-75" x="188.525391"/>
       <use xlink:href="#DejaVuSans-6e" x="251.904297"/>
      </g>
     </g>
    </g>
    <g id="xtick_2">
     <g id="line2d_4">
      <g>
       <use xlink:href="#mf90629ebe8" x="88.671122" y="184.921875" style="stroke: #000000; stroke-width: 0.8"/>
      </g>
     </g>
     <g id="text_2">
      <!-- 01 Jul -->
      <g transform="translate(74.686747 199.520312) scale(0.1 -0.1)">
       <defs>
        <path id="DejaVuSans-31" d="M 794 531 
L 1825 531 
L 1825 4091 
L 703 3866 
L 703 4441 
L 1819 4666 
L 2450 4666 
L 2450 531 
L 3481 531 
L 3481 0 
L 794 0 
L 794 531 
z
" transform="scale(0.015625)"/>
        <path id="DejaVuSans-6c" d="M 603 4863 
L 1178 4863 
L 1178 0 
L 603 0 
L 603 4863 
z
" transform="scale(0.015625)"/>
       </defs>
       <use xlink:href="#DejaVuSans-30"/>
       <use xlink:href="#DejaVuSans-31" x="63.623047"/>
       <use xlink:href="#DejaVuSans-20" x="127.246094"/>
       <use xlink:href="#DejaVuSans-4a" x="159.033203"/>
       <use xlink:href="#DejaVuSans-75" x="188.525391"/>
       <use xlink:href="#DejaVuSans-6c" x="251.904297"/>
      </g>
     </g>
    </g>
    <g id="xtick_3">
     <g id="line2d_5">
      <g>
       <use xlink:href="#mf90629ebe8" x="118.922757" y="184.921875" style="stroke: #000000; stroke-width: 0.8"/>
      </g>
     </g>
     <g id="text_3">
      <!-- 02 Jul -->
      <g transform="translate(104.938382 199.520312) scale(0.1 -0.1)">
       <defs>
        <path id="DejaVuSans-32" d="M 1228 531 
L 3431 531 
L 3431 0 
L 469 0 
L 469 531 
Q 828 903 1448 1529 
Q 2069 2156 2228 2338 
Q 2531 2678 2651 2914 
Q 2772 3150 2772 3378 
Q 2772 3750 2511 3984 
Q 2250 4219 1831 4219 
Q 1534 4219 1204 4116 
Q 875 4013 500 3803 
L 500 4441 
Q 881 4594 1212 4672 
Q 1544 4750 1819 4750 
Q 2544 4750 2975 4387 
Q 3406 4025 3406 3419 
Q 3406 3131 3298 2873 
Q 3191 2616 2906 2266 
Q 2828 2175 2409 1742 
Q 1991 1309 1228 531 
z
" transform="scale(0.015625)"/>
       </defs>
       <use xlink:href="#DejaVuSans-30"/>
       <use xlink:href="#DejaVuSans-32" x="63.623047"/>
       <use xlink:href="#DejaVuSans-20" x="127.246094"/>
       <use xlink:href="#DejaVuSans-4a" x="159.033203"/>
       <use xlink:href="#DejaVuSans-75" x="188.525391"/>
       <use xlink:href="#DejaVuSans-6c" x="251.904297"/>
      </g>
     </g>
    </g>
    <g id="xtick_4">
     <g id="line2d_6">
      <g>
       <use xlink:href="#mf90629ebe8" x="149.174393" y="184.921875" style="stroke: #000000; stroke-width: 0.8"/>
      </g>
     </g>
     <g id="text_4">
      <!-- 03 Jul -->
      <g transform="translate(135.190018 199.520312) scale(0.1 -0.1)">
       <use xlink:href="#DejaVuSans-30"/>
       <use xlink:href="#DejaVuSans-33" x="63.623047"/>
       <use xlink:href="#DejaVuSans-20" x="127.246094"/>
       <use xlink:href="#DejaVuSans-4a" x="159.033203"/>
       <use xlink:href="#DejaVuSans-75" x="188.525391"/>
       <use xlink:href="#DejaVuSans-6c" x="251.904297"/>
      </g>
     </g>
    </g>
    <g id="xtick_5">
     <g id="line2d_7">
      <g>
       <use xlink:href="#mf90629ebe8" x="179.426029" y="184.921875" style="stroke: #000000; stroke-width: 0.8"/>
      </g>
     </g>
     <g id="text_5">
      <!-- 04 Jul -->
      <g transform="translate(165.441654 199.520312) scale(0.1 -0.1)">
       <defs>
        <path id="DejaVuSans-34" d="M 2419 4116 
L 825 1625 
L 2419 1625 
L 2419 4116 
z
M 2253 4666 
L 3047 4666 
L 3047 1625 
L 3713 1625 
L 3713 1100 
L 3047 1100 
L 3047 0 
L 2419 0 
L 2419 1100 
L 313 1100 
L 313 1709 
L 2253 4666 
z
" transform="scale(0.015625)"/>
       </defs>
       <use xlink:href="#DejaVuSans-30"/>
       <use xlink:href="#DejaVuSans-34" x="63.623047"/>
       <use xlink:href="#DejaVuSans-20" x="127.246094"/>
       <use xlink:href="#DejaVuSans-4a" x="159.033203"/>
       <use xlink:href="#DejaVuSans-75" x="188.525391"/>
       <use xlink:href="#DejaVuSans-6c" x="251.904297"/>
      </g>
     </g>
    </g>
    <g id="xtick_6">
     <g id="line2d_8">
      <g>
       <use xlink:href="#mf90629ebe8" x="209.677664" y="184.921875" style="stroke: #000000; stroke-width: 0.8"/>
      </g>
     </g>
     <g id="text_6">
      <!-- 05 Jul -->
      <g transform="translate(195.693289 199.520312) scale(0.1 -0.1)">
       <defs>
        <path id="DejaVuSans-35" d="M 691 4666 
L 3169 4666 
L 3169 4134 
L 1269 4134 
L 1269 2991 
Q 1406 3038 1543 3061 
Q 1681 3084 1819 3084 
Q 2600 3084 3056 2656 
Q 3513 2228 3513 1497 
Q 3513 744 3044 326 
Q 2575 -91 1722 -91 
Q 1428 -91 1123 -41 
Q 819 9 494 109 
L 494 744 
Q 775 591 1075 516 
Q 1375 441 1709 441 
Q 2250 441 2565 725 
Q 2881 1009 2881 1497 
Q 2881 1984 2565 2268 
Q 2250 2553 1709 2553 
Q 1456 2553 1204 2497 
Q 953 2441 691 2322 
L 691 4666 
z
" transform="scale(0.015625)"/>
       </defs>
       <use xlink:href="#DejaVuSans-30"/>
       <use xlink:href="#DejaVuSans-35" x="63.623047"/>
       <use xlink:href="#DejaVuSans-20" x="127.246094"/>
       <use xlink:href="#DejaVuSans-4a" x="159.033203"/>
       <use xlink:href="#DejaVuSans-75" x="188.525391"/>
       <use xlink:href="#DejaVuSans-6c" x="251.904297"/>
      </g>
     </g>
    </g>
    <g id="xtick_7">
     <g id="line2d_9">
      <g>
       <use xlink:href="#mf90629ebe8" x="239.9293" y="184.921875" style="stroke: #000000; stroke-width: 0.8"/>
      </g>
     </g>
     <g id="text_7">
      <!-- 06 Jul -->
      <g transform="translate(225.944925 199.520312) scale(0.1 -0.1)">
       <defs>
        <path id="DejaVuSans-36" d="M 2113 2584 
Q 1688 2584 1439 2293 
Q 1191 2003 1191 1497 
Q 1191 994 1439 701 
Q 1688 409 2113 409 
Q 2538 409 2786 701 
Q 3034 994 3034 1497 
Q 3034 2003 2786 2293 
Q 2538 2584 2113 2584 
z
M 3366 4563 
L 3366 3988 
Q 3128 4100 2886 4159 
Q 2644 4219 2406 4219 
Q 1781 4219 1451 3797 
Q 1122 3375 1075 2522 
Q 1259 2794 1537 2939 
Q 1816 3084 2150 3084 
Q 2853 3084 3261 2657 
Q 3669 2231 3669 1497 
Q 3669 778 3244 343 
Q 2819 -91 2113 -91 
Q 1303 -91 875 529 
Q 447 1150 447 2328 
Q 447 3434 972 4092 
Q 1497 4750 2381 4750 
Q 2619 4750 2861 4703 
Q 3103 4656 3366 4563 
z
" transform="scale(0.015625)"/>
       </defs>
       <use xlink:href="#DejaVuSans-30"/>
       <use xlink:href="#DejaVuSans-36" x="63.623047"/>
       <use xlink:href="#DejaVuSans-20" x="127.246094"/>
       <use xlink:href="#DejaVuSans-4a" x="159.033203"/>
       <use xlink:href="#DejaVuSans-75" x="188.525391"/>
       <use xlink:href="#DejaVuSans-6c" x="251.904297"/>
      </g>
     </g>
    </g>
    <g id="xtick_8">
     <g id="line2d_10">
      <g>
       <use xlink:href="#mf90629ebe8" x="270.180936" y="184.921875" style="stroke: #000000; stroke-width: 0.8"/>
      </g>
     </g>
     <g id="text_8">
      <!-- 07 Jul -->
      <g transform="translate(256.196561 199.520312) scale(0.1 -0.1)">
       <defs>
        <path id="DejaVuSans-37" d="M 525 4666 
L 3525 4666 
L 3525 4397 
L 1831 0 
L 1172 0 
L 2766 4134 
L 525 4134 
L 525 4666 
z
" transform="scale(0.015625)"/>
       </defs>
       <use xlink:href="#DejaVuSans-30"/>
       <use xlink:href="#DejaVuSans-37" x="63.623047"/>
       <use xlink:href="#DejaVuSans-20" x="127.246094"/>
       <use xlink:href="#DejaVuSans-4a" x="159.033203"/>
       <use xlink:href="#DejaVuSans-75" x="188.525391"/>
       <use xlink:href="#DejaVuSans-6c" x="251.904297"/>
      </g>
     </g>
    </g>
    <g id="xtick_9">
     <g id="line2d_11">
      <g>
       <use xlink:href="#mf90629ebe8" x="300.432571" y="184.921875" style="stroke: #000000; stroke-width: 0.8"/>
      </g>
     </g>
     <g id="text_9">
      <!-- 08 Jul -->
      <g transform="translate(286.448196 199.520312) scale(0.1 -0.1)">
       <defs>
        <path id="DejaVuSans-38" d="M 2034 2216 
Q 1584 2216 1326 1975 
Q 1069 1734 1069 1313 
Q 1069 891 1326 650 
Q 1584 409 2034 409 
Q 2484 409 2743 651 
Q 3003 894 3003 1313 
Q 3003 1734 2745 1975 
Q 2488 2216 2034 2216 
z
M 1403 2484 
Q 997 2584 770 2862 
Q 544 3141 544 3541 
Q 544 4100 942 4425 
Q 1341 4750 2034 4750 
Q 2731 4750 3128 4425 
Q 3525 4100 3525 3541 
Q 3525 3141 3298 2862 
Q 3072 2584 2669 2484 
Q 3125 2378 3379 2068 
Q 3634 1759 3634 1313 
Q 3634 634 3220 271 
Q 2806 -91 2034 -91 
Q 1263 -91 848 271 
Q 434 634 434 1313 
Q 434 1759 690 2068 
Q 947 2378 1403 2484 
z
M 1172 3481 
Q 1172 3119 1398 2916 
Q 1625 2713 2034 2713 
Q 2441 2713 2670 2916 
Q 2900 3119 2900 3481 
Q 2900 3844 2670 4047 
Q 2441 4250 2034 4250 
Q 1625 4250 1398 4047 
Q 1172 3844 1172 3481 
z
" transform="scale(0.015625)"/>
       </defs>
       <use xlink:href="#DejaVuSans-30"/>
       <use xlink:href="#DejaVuSans-38" x="63.623047"/>
       <use xlink:href="#DejaVuSans-20" x="127.246094"/>
       <use xlink:href="#DejaVuSans-4a" x="159.033203"/>
       <use xlink:href="#DejaVuSans-75" x="188.525391"/>
       <use xlink:href="#DejaVuSans-6c" x="251.904297"/>
      </g>
     </g>
    </g>
    <g id="xtick_10">
     <g id="line2d_12">
      <g>
       <use xlink:href="#mf90629ebe8" x="330.684207" y="184.921875" style="stroke: #000000; stroke-width: 0.8"/>
      </g>
     </g>
     <g id="text_10">
      <!-- 09 Jul -->
      <g transform="translate(316.699832 199.520312) scale(0.1 -0.1)">
       <defs>
        <path id="DejaVuSans-39" d="M 703 97 
L 703 672 
Q 941 559 1184 500 
Q 1428 441 1663 441 
Q 2288 441 2617 861 
Q 2947 1281 2994 2138 
Q 2813 1869 2534 1725 
Q 2256 1581 1919 1581 
Q 1219 1581 811 2004 
Q 403 2428 403 3163 
Q 403 3881 828 4315 
Q 1253 4750 1959 4750 
Q 2769 4750 3195 4129 
Q 3622 3509 3622 2328 
Q 3622 1225 3098 567 
Q 2575 -91 1691 -91 
Q 1453 -91 1209 -44 
Q 966 3 703 97 
z
M 1959 2075 
Q 2384 2075 2632 2365 
Q 2881 2656 2881 3163 
Q 2881 3666 2632 3958 
Q 2384 4250 1959 4250 
Q 1534 4250 1286 3958 
Q 1038 3666 1038 3163 
Q 1038 2656 1286 2365 
Q 1534 2075 1959 2075 
z
" transform="scale(0.015625)"/>
       </defs>
       <use xlink:href="#DejaVuSans-30"/>
       <use xlink:href="#DejaVuSans-39" x="63.623047"/>
       <use xlink:href="#DejaVuSans-20" x="127.246094"/>
       <use xlink:href="#DejaVuSans-4a" x="159.033203"/>
       <use xlink:href="#DejaVuSans-75" x="188.525391"/>
       <use xlink:href="#DejaVuSans-6c" x="251.904297"/>
      </g>
     </g>
    </g>
   </g>
   <g id="matplotlib.axis_2">
    <g id="ytick_1">
     <g id="text_11">
      <!-- −50% -->
      <g transform="translate(7.2 175.170781) scale(0.1 -0.1)">
       <defs>
        <path id="DejaVuSans-2212" d="M 678 2272 
L 4684 2272 
L 4684 1741 
L 678 1741 
L 678 2272 
z
" transform="scale(0.015625)"/>
        <path id="DejaVuSans-25" d="M 4653 2053 
Q 4381 2053 4226 1822 
Q 4072 1591 4072 1178 
Q 4072 772 4226 539 
Q 4381 306 4653 306 
Q 4919 306 5073 539 
Q 5228 772 5228 1178 
Q 5228 1588 5073 1820 
Q 4919 2053 4653 2053 
z
M 4653 2450 
Q 5147 2450 5437 2106 
Q 5728 1763 5728 1178 
Q 5728 594 5436 251 
Q 5144 -91 4653 -91 
Q 4153 -91 3862 251 
Q 3572 594 3572 1178 
Q 3572 1766 3864 2108 
Q 4156 2450 4653 2450 
z
M 1428 4353 
Q 1159 4353 1004 4120 
Q 850 3888 850 3481 
Q 850 3069 1003 2837 
Q 1156 2606 1428 2606 
Q 1700 2606 1854 2837 
Q 2009 3069 2009 3481 
Q 2009 3884 1853 4118 
Q 1697 4353 1428 4353 
z
M 4250 4750 
L 4750 4750 
L 1831 -91 
L 1331 -91 
L 4250 4750 
z
M 1428 4750 
Q 1922 4750 2215 4408 
Q 2509 4066 2509 3481 
Q 2509 2891 2217 2550 
Q 1925 2209 1428 2209 
Q 931 2209 642 2551 
Q 353 2894 353 3481 
Q 353 4063 643 4406 
Q 934 4750 1428 4750 
z
" transform="scale(0.015625)"/>
       </defs>
       <use xlink:href="#DejaVuSans-2212"/>
       <use xlink:href="#DejaVuSans-35" x="83.789062"/>
       <use xlink:href="#DejaVuSans-30" x="147.412109"/>
       <use xlink:href="#DejaVuSans-25" x="211.035156"/>
      </g>
     </g>
    </g>
    <g id="ytick_2">
     <g id="text_12">
      <!-- −25% -->
      <g transform="translate(7.2 141.295) scale(0.1 -0.1)">
       <use xlink:href="#DejaVuSans-2212"/>
       <use xlink:href="#DejaVuSans-32" x="83.789062"/>
       <use xlink:href="#DejaVuSans-35" x="147.412109"/>
       <use xlink:href="#DejaVuSans-25" x="211.035156"/>
      </g>
     </g>
    </g>
    <g id="ytick_3">
     <g id="text_13">
      <!-- 0% -->
      <g transform="translate(21.942188 107.419219) scale(0.1 -0.1)">
       <use xlink:href="#DejaVuSans-30"/>
       <use xlink:href="#DejaVuSans-25" x="63.623047"/>
      </g>
     </g>
    </g>
    <g id="ytick_4">
     <g id="text_14">
      <!-- 25% -->
      <g transform="translate(15.579688 73.543437) scale(0.1 -0.1)">
       <use xlink:href="#DejaVuSans-32"/>
       <use xlink:href="#DejaVuSans-35" x="63.623047"/>
       <use xlink:href="#DejaVuSans-25" x="127.246094"/>
      </g>
     </g>
    </g>
    <g id="ytick_5">
     <g id="text_15">
      <!-- 50% -->
      <g transform="translate(15.579688 39.667656) scale(0.1 -0.1)">
       <use xlink:href="#DejaVuSans-35"/>
       <use xlink:href="#DejaVuSans-30" x="63.623047"/>
       <use xlink:href="#DejaVuSans-25" x="127.246094"/>
      </g>
     </g>
    </g>
   </g>
   <g id="line2d_13">
    <path d="M 58.419486 98.199875 
L 61.151239 109.043381 
L 63.882992 118.65235 
L 65.704161 124.401035 
L 67.52533 129.643876 
L 69.346498 134.398011 
L 71.167667 138.680575 
L 72.988836 142.508705 
L 74.810004 145.899536 
L 76.631173 148.870205 
L 78.452342 151.437847 
L 80.27351 153.6196 
L 82.094679 155.432599 
L 83.915848 156.89398 
L 85.737017 158.02088 
L 87.558185 158.830435 
L 89.379354 159.339781 
L 91.200523 159.566053 
L 93.021691 159.526389 
L 94.84286 159.237925 
L 96.664029 158.717795 
L 98.485198 157.983138 
L 100.306366 157.051088 
L 103.038119 155.320389 
L 105.769872 153.241949 
L 108.501625 150.873602 
L 112.143963 147.364801 
L 116.696885 142.607466 
L 133.997987 124.157162 
L 139.461493 118.782242 
L 144.014415 114.633537 
L 147.656752 111.584641 
L 151.29909 108.81625 
L 154.941427 106.349529 
L 158.583765 104.192701 
L 162.226102 102.353618 
L 164.957855 101.187553 
L 167.689608 100.207953 
L 170.421361 99.41813 
L 173.153114 98.8214 
L 175.884867 98.421076 
L 178.61662 98.220471 
L 181.348373 98.220653 
L 184.990711 98.493179 
L 188.633048 99.000259 
L 194.096554 100.017195 
L 202.291814 101.559062 
L 205.934151 102.034879 
L 209.576488 102.262978 
L 212.308241 102.230833 
L 215.950579 101.946691 
L 220.503501 101.305287 
L 226.877591 100.125771 
L 234.162266 98.826858 
L 237.804603 98.368545 
L 241.446941 98.132312 
L 245.089278 98.13116 
L 249.6422 98.370515 
L 257.837459 99.103086 
L 263.300965 99.51136 
L 267.853887 99.621971 
L 271.496224 99.472269 
L 275.138562 99.082766 
L 278.780899 98.487219 
L 283.333821 97.511163 
L 288.797327 96.098556 
L 307.919598 90.883985 
L 312.47252 89.993773 
L 316.114858 89.486216 
L 319.757195 89.201873 
L 323.399532 89.1789 
L 326.131285 89.356147 
L 328.863038 89.717975 
L 330.684207 90.069687 
L 330.684207 90.069687 
" clip-path="url(#pfb4a7e5665)" style="fill: none; stroke: #0035a0; stroke-width: 3; stroke-linecap: round"/>
   </g>
   <g id="text_16">
    <!-- 10% -->
    <g transform="translate(319.570926 80.069687) scale(0.1 -0.1)">
     <use xlink:href="#DejaVuSans-31"/>
     <use xlink:href="#DejaVuSans-30" x="63.623047"/>
     <use xlink:href="#DejaVuSans-25" x="127.246094"/>
    </g>
   </g>
   <g id="text_17">
    <!-- St. George's - population change trends -->
    <g transform="translate(75.012159 16.318125) scale(0.12 -0.12)">
     <defs>
      <path id="DejaVuSans-53" d="M 3425 4513 
L 3425 3897 
Q 3066 4069 2747 4153 
Q 2428 4238 2131 4238 
Q 1616 4238 1336 4038 
Q 1056 3838 1056 3469 
Q 1056 3159 1242 3001 
Q 1428 2844 1947 2747 
L 2328 2669 
Q 3034 2534 3370 2195 
Q 3706 1856 3706 1288 
Q 3706 609 3251 259 
Q 2797 -91 1919 -91 
Q 1588 -91 1214 -16 
Q 841 59 441 206 
L 441 856 
Q 825 641 1194 531 
Q 1563 422 1919 422 
Q 2459 422 2753 634 
Q 3047 847 3047 1241 
Q 3047 1584 2836 1778 
Q 2625 1972 2144 2069 
L 1759 2144 
Q 1053 2284 737 2584 
Q 422 2884 422 3419 
Q 422 4038 858 4394 
Q 1294 4750 2059 4750 
Q 2388 4750 2728 4690 
Q 3069 4631 3425 4513 
z
" transform="scale(0.015625)"/>
      <path id="DejaVuSans-74" d="M 1172 4494 
L 1172 3500 
L 2356 3500 
L 2356 3053 
L 1172 3053 
L 1172 1153 
Q 1172 725 1289 603 
Q 1406 481 1766 481 
L 2356 481 
L 2356 0 
L 1766 0 
Q 1100 0 847 248 
Q 594 497 594 1153 
L 594 3053 
L 172 3053 
L 172 3500 
L 594 3500 
L 594 4494 
L 1172 4494 
z
" transform="scale(0.015625)"/>
      <path id="DejaVuSans-2e" d="M 684 794 
L 1344 794 
L 1344 0 
L 684 0 
L 684 794 
z
" transform="scale(0.015625)"/>
      <path id="DejaVuSans-47" d="M 3809 666 
L 3809 1919 
L 2778 1919 
L 2778 2438 
L 4434 2438 
L 4434 434 
Q 4069 175 3628 42 
Q 3188 -91 2688 -91 
Q 1594 -91 976 548 
Q 359 1188 359 2328 
Q 359 3472 976 4111 
Q 1594 4750 2688 4750 
Q 3144 4750 3555 4637 
Q 3966 4525 4313 4306 
L 4313 3634 
Q 3963 3931 3569 4081 
Q 3175 4231 2741 4231 
Q 1884 4231 1454 3753 
Q 1025 3275 1025 2328 
Q 1025 1384 1454 906 
Q 1884 428 2741 428 
Q 3075 428 3337 486 
Q 3600 544 3809 666 
z
" transform="scale(0.015625)"/>
      <path id="DejaVuSans-65" d="M 3597 1894 
L 3597 1613 
L 953 1613 
Q 991 1019 1311 708 
Q 1631 397 2203 397 
Q 2534 397 2845 478 
Q 3156 559 3463 722 
L 3463 178 
Q 3153 47 2828 -22 
Q 2503 -91 2169 -91 
Q 1331 -91 842 396 
Q 353 884 353 1716 
Q 353 2575 817 3079 
Q 1281 3584 2069 3584 
Q 2775 3584 3186 3129 
Q 3597 2675 3597 1894 
z
M 3022 2063 
Q 3016 2534 2758 2815 
Q 2500 3097 2075 3097 
Q 1594 3097 1305 2825 
Q 1016 2553 972 2059 
L 3022 2063 
z
" transform="scale(0.015625)"/>
      <path id="DejaVuSans-6f" d="M 1959 3097 
Q 1497 3097 1228 2736 
Q 959 2375 959 1747 
Q 959 1119 1226 758 
Q 1494 397 1959 397 
Q 2419 397 2687 759 
Q 2956 1122 2956 1747 
Q 2956 2369 2687 2733 
Q 2419 3097 1959 3097 
z
M 1959 3584 
Q 2709 3584 3137 3096 
Q 3566 2609 3566 1747 
Q 3566 888 3137 398 
Q 2709 -91 1959 -91 
Q 1206 -91 779 398 
Q 353 888 353 1747 
Q 353 2609 779 3096 
Q 1206 3584 1959 3584 
z
" transform="scale(0.015625)"/>
      <path id="DejaVuSans-72" d="M 2631 2963 
Q 2534 3019 2420 3045 
Q 2306 3072 2169 3072 
Q 1681 3072 1420 2755 
Q 1159 2438 1159 1844 
L 1159 0 
L 581 0 
L 581 3500 
L 1159 3500 
L 1159 2956 
Q 1341 3275 1631 3429 
Q 1922 3584 2338 3584 
Q 2397 3584 2469 3576 
Q 2541 3569 2628 3553 
L 2631 2963 
z
" transform="scale(0.015625)"/>
      <path id="DejaVuSans-67" d="M 2906 1791 
Q 2906 2416 2648 2759 
Q 2391 3103 1925 3103 
Q 1463 3103 1205 2759 
Q 947 2416 947 1791 
Q 947 1169 1205 825 
Q 1463 481 1925 481 
Q 2391 481 2648 825 
Q 2906 1169 2906 1791 
z
M 3481 434 
Q 3481 -459 3084 -895 
Q 2688 -1331 1869 -1331 
Q 1566 -1331 1297 -1286 
Q 1028 -1241 775 -1147 
L 775 -588 
Q 1028 -725 1275 -790 
Q 1522 -856 1778 -856 
Q 2344 -856 2625 -561 
Q 2906 -266 2906 331 
L 2906 616 
Q 2728 306 2450 153 
Q 2172 0 1784 0 
Q 1141 0 747 490 
Q 353 981 353 1791 
Q 353 2603 747 3093 
Q 1141 3584 1784 3584 
Q 2172 3584 2450 3431 
Q 2728 3278 2906 2969 
L 2906 3500 
L 3481 3500 
L 3481 434 
z
" transform="scale(0.015625)"/>
      <path id="DejaVuSans-27" d="M 1147 4666 
L 1147 2931 
L 616 2931 
L 616 4666 
L 1147 4666 
z
" transform="scale(0.015625)"/>
      <path id="DejaVuSans-73" d="M 2834 3397 
L 2834 2853 
Q 2591 2978 2328 3040 
Q 2066 3103 1784 3103 
Q 1356 3103 1142 2972 
Q 928 2841 928 2578 
Q 928 2378 1081 2264 
Q 1234 2150 1697 2047 
L 1894 2003 
Q 2506 1872 2764 1633 
Q 3022 1394 3022 966 
Q 3022 478 2636 193 
Q 2250 -91 1575 -91 
Q 1294 -91 989 -36 
Q 684 19 347 128 
L 347 722 
Q 666 556 975 473 
Q 1284 391 1588 391 
Q 1994 391 2212 530 
Q 2431 669 2431 922 
Q 2431 1156 2273 1281 
Q 2116 1406 1581 1522 
L 1381 1569 
Q 847 1681 609 1914 
Q 372 2147 372 2553 
Q 372 3047 722 3315 
Q 1072 3584 1716 3584 
Q 2034 3584 2315 3537 
Q 2597 3491 2834 3397 
z
" transform="scale(0.015625)"/>
      <path id="DejaVuSans-2d" d="M 313 2009 
L 1997 2009 
L 1997 1497 
L 313 1497 
L 313 2009 
z
" transform="scale(0.015625)"/>
      <path id="DejaVuSans-70" d="M 1159 525 
L 1159 -1331 
L 581 -1331 
L 581 3500 
L 1159 3500 
L 1159 2969 
Q 1341 3281 1617 3432 
Q 1894 3584 2278 3584 
Q 2916 3584 3314 3078 
Q 3713 2572 3713 1747 
Q 3713 922 3314 415 
Q 2916 -91 2278 -91 
Q 1894 -91 1617 61 
Q 1341 213 1159 525 
z
M 3116 1747 
Q 3116 2381 2855 2742 
Q 2594 3103 2138 3103 
Q 1681 3103 1420 2742 
Q 1159 2381 1159 1747 
Q 1159 1113 1420 752 
Q 1681 391 2138 391 
Q 2594 391 2855 752 
Q 3116 1113 3116 1747 
z
" transform="scale(0.015625)"/>
      <path id="DejaVuSans-61" d="M 2194 1759 
Q 1497 1759 1228 1600 
Q 959 1441 959 1056 
Q 959 750 1161 570 
Q 1363 391 1709 391 
Q 2188 391 2477 730 
Q 2766 1069 2766 1631 
L 2766 1759 
L 2194 1759 
z
M 3341 1997 
L 3341 0 
L 2766 0 
L 2766 531 
Q 2569 213 2275 61 
Q 1981 -91 1556 -91 
Q 1019 -91 701 211 
Q 384 513 384 1019 
Q 384 1609 779 1909 
Q 1175 2209 1959 2209 
L 2766 2209 
L 2766 2266 
Q 2766 2663 2505 2880 
Q 2244 3097 1772 3097 
Q 1472 3097 1187 3025 
Q 903 2953 641 2809 
L 641 3341 
Q 956 3463 1253 3523 
Q 1550 3584 1831 3584 
Q 2591 3584 2966 3190 
Q 3341 2797 3341 1997 
z
" transform="scale(0.015625)"/>
      <path id="DejaVuSans-69" d="M 603 3500 
L 1178 3500 
L 1178 0 
L 603 0 
L 603 3500 
z
M 603 4863 
L 1178 4863 
L 1178 4134 
L 603 4134 
L 603 4863 
z
" transform="scale(0.015625)"/>
      <path id="DejaVuSans-63" d="M 3122 3366 
L 3122 2828 
Q 2878 2963 2633 3030 
Q 2388 3097 2138 3097 
Q 1578 3097 1268 2742 
Q 959 2388 959 1747 
Q 959 1106 1268 751 
Q 1578 397 2138 397 
Q 2388 397 2633 464 
Q 2878 531 3122 666 
L 3122 134 
Q 2881 22 2623 -34 
Q 2366 -91 2075 -91 
Q 1284 -91 818 406 
Q 353 903 353 1747 
Q 353 2603 823 3093 
Q 1294 3584 2113 3584 
Q 2378 3584 2631 3529 
Q 2884 3475 3122 3366 
z
" transform="scale(0.015625)"/>
      <path id="DejaVuSans-68" d="M 3513 2113 
L 3513 0 
L 2938 0 
L 2938 2094 
Q 2938 2591 2744 2837 
Q 2550 3084 2163 3084 
Q 1697 3084 1428 2787 
Q 1159 2491 1159 1978 
L 1159 0 
L 581 0 
L 581 4863 
L 1159 4863 
L 1159 2956 
Q 1366 3272 1645 3428 
Q 1925 3584 2291 3584 
Q 2894 3584 3203 3211 
Q 3513 2838 3513 2113 
z
" transform="scale(0.015625)"/>
      <path id="DejaVuSans-64" d="M 2906 2969 
L 2906 4863 
L 3481 4863 
L 3481 0 
L 2906 0 
L 2906 525 
Q 2725 213 2448 61 
Q 2172 -91 1784 -91 
Q 1150 -91 751 415 
Q 353 922 353 1747 
Q 353 2572 751 3078 
Q 1150 3584 1784 3584 
Q 2172 3584 2448 3432 
Q 2725 3281 2906 2969 
z
M 947 1747 
Q 947 1113 1208 752 
Q 1469 391 1925 391 
Q 2381 391 2643 752 
Q 2906 1113 2906 1747 
Q 2906 2381 2643 2742 
Q 2381 3103 1925 3103 
Q 1469 3103 1208 2742 
Q 947 2381 947 1747 
z
" transform="scale(0.015625)"/>
     </defs>
     <use xlink:href="#DejaVuSans-53"/>
     <use xlink:href="#DejaVuSans-74" x="63.476562"/>
     <use xlink:href="#DejaVuSans-2e" x="102.685547"/>
     <use xlink:href="#DejaVuSans-20" x="134.472656"/>
     <use xlink:href="#DejaVuSans-47" x="166.259766"/>
     <use xlink:href="#DejaVuSans-65" x="243.75"/>
     <use xlink:href="#DejaVuSans-6f" x="305.273438"/>
     <use xlink:href="#DejaVuSans-72" x="366.455078"/>
     <use xlink:href="#DejaVuSans-67" x="405.818359"/>
     <use xlink:href="#DejaVuSans-65" x="469.294922"/>
     <use xlink:href="#DejaVuSans-27" x="530.818359"/>
     <use xlink:href="#DejaVuSans-73" x="558.308594"/>
     <use xlink:href="#DejaVuSans-20" x="610.408203"/>
     <use xlink:href="#DejaVuSans-2d" x="642.195312"/>
     <use xlink:href="#DejaVuSans-20" x="678.279297"/>
     <use xlink:href="#DejaVuSans-70" x="710.066406"/>
     <use xlink:href="#DejaVuSans-6f" x="773.542969"/>
     <use xlink:href="#DejaVuSans-70" x="834.724609"/>
     <use xlink:href="#DejaVuSans-75" x="898.201172"/>
     <use xlink:href="#DejaVuSans-6c" x="961.580078"/>
     <use xlink:href="#DejaVuSans-61" x="989.363281"/>
     <use xlink:href="#DejaVuSans-74" x="1050.642578"/>
     <use xlink:href="#DejaVuSans-69" x="1089.851562"/>
     <use xlink:href="#DejaVuSans-6f" x="1117.634766"/>
     <use xlink:href="#DejaVuSans-6e" x="1178.816406"/>
     <use xlink:href="#DejaVuSans-20" x="1242.195312"/>
     <use xlink:href="#DejaVuSans-63" x="1273.982422"/>
     <use xlink:href="#DejaVuSans-68" x="1328.962891"/>
     <use xlink:href="#DejaVuSans-61" x="1392.341797"/>
     <use xlink:href="#DejaVuSans-6e" x="1453.621094"/>
     <use xlink:href="#DejaVuSans-67" x="1517"/>
     <use xlink:href="#DejaVuSans-65" x="1580.476562"/>
     <use xlink:href="#DejaVuSans-20" x="1642"/>
     <use xlink:href="#DejaVuSans-74" x="1673.787109"/>
     <use xlink:href="#DejaVuSans-72" x="1712.996094"/>
     <use xlink:href="#DejaVuSans-65" x="1751.859375"/>
     <use xlink:href="#DejaVuSans-6e" x="1813.382812"/>
     <use xlink:href="#DejaVuSans-64" x="1876.761719"/>
     <use xlink:href="#DejaVuSans-73" x="1940.238281"/>
    </g>
   </g>
  </g>
 </g>
 <defs>
  <clipPath id="pfb4a7e5665">
   <rect x="44.80625" y="22.318125" width="299.491193" height="162.60375"/>
  </clipPath>
 </defs>
</svg>
