<?xml version="1.0" encoding="utf-8" standalone="no"?>
<!DOCTYPE svg PUBLIC "-//W3C//DTD SVG 1.1//EN"
  "http://www.w3.org/Graphics/SVG/1.1/DTD/svg11.dtd">
<svg xmlns:xlink="http://www.w3.org/1999/xlink" width="351.868582pt" height="208.8pt" viewBox="0 0 351.868582 208.8" xmlns="http://www.w3.org/2000/svg" version="1.1">
 <metadata>
  <rdf:RDF xmlns:dc="http://purl.org/dc/elements/1.1/" xmlns:cc="http://creativecommons.org/ns#" xmlns:rdf="http://www.w3.org/1999/02/22-rdf-syntax-ns#">
   <cc:Work>
    <dc:type rdf:resource="http://purl.org/dc/dcmitype/StillImage"/>
    <dc:date>2024-07-09T08:54:14.653292</dc:date>
    <dc:format>image/svg+xml</dc:format>
    <dc:creator>
     <cc:Agent>
      <dc:title>Matplotlib v3.9.0, https://matplotlib.org/</dc:title>
     </cc:Agent>
    </dc:creator>
   </cc:Work>
  </rdf:RDF>
 </metadata>
 <defs>
  <style type="text/css">*{stroke-linejoin: round; stroke-linecap: butt}</style>
 </defs>
 <g id="figure_1">
  <g id="patch_1">
   <path d="M 0 208.8 
L 351.868582 208.8 
L 351.868582 0 
L 0 0 
L 0 208.8 
z
" style="fill: none"/>
  </g>
  <g id="axes_1">
   <g id="patch_2">
    <path d="M 44.80625 184.921875 
L 344.297443 184.921875 
L 344.297443 22.318125 
L 44.80625 22.318125 
L 44.80625 184.921875 
z
" style="fill: none; opacity: 0"/>
   </g>
   <g id="PolyCollection_1">
    <path d="M 58.419486 98.199875 
L 58.419486 98.199875 
L 59.33007 101.132454 
L 60.125756 103.62 
L 59.33007 103.62 
L 58.419486 103.62 
z
" clip-path="url(#p555d30108a)" style="fill: #6ec5bc; fill-opacity: 0.1; stroke: #6ec5bc; stroke-opacity: 0.1"/>
    <path d="M 188.654407 103.62 
L 189.543633 103.266742 
L 190.454217 102.917058 
L 191.364801 102.579475 
L 192.275386 102.254036 
L 193.18597 101.940784 
L 194.096554 101.639761 
L 195.007139 101.35101 
L 195.917723 101.074574 
L 196.828307 100.810495 
L 197.738892 100.558816 
L 198.649476 100.31958 
L 199.560061 100.09283 
L 200.470645 99.878607 
L 201.381229 99.676955 
L 202.291814 99.487917 
L 203.202398 99.311534 
L 204.112982 99.147851 
L 205.023567 98.996909 
L 205.934151 98.858751 
L 206.844735 98.73342 
L 207.75532 98.620958 
L 208.665904 98.521408 
L 209.576488 98.434814 
L 210.487073 98.361217 
L 211.397657 98.30066 
L 212.308241 98.253186 
L 213.218826 98.218837 
L 214.12941 98.197657 
L 215.039994 98.189538 
L 215.950579 98.193983 
L 216.861163 98.210433 
L 217.771748 98.238326 
L 218.682332 98.277103 
L 219.592916 98.326204 
L 220.503501 98.385067 
L 221.414085 98.453133 
L 222.324669 98.529841 
L 223.235254 98.614632 
L 224.145838 98.706944 
L 225.056422 98.806218 
L 225.967007 98.911893 
L 226.877591 99.023408 
L 227.788175 99.140204 
L 228.69876 99.261721 
L 229.609344 99.387398 
L 230.519928 99.516674 
L 231.430513 99.648989 
L 232.341097 99.783784 
L 233.251682 99.920497 
L 234.162266 100.058569 
L 235.07285 100.197439 
L 235.983435 100.336547 
L 236.894019 100.475332 
L 237.804603 100.613235 
L 238.715188 100.749694 
L 239.625772 100.88415 
L 240.536356 101.016043 
L 241.446941 101.144812 
L 242.357525 101.269896 
L 243.268109 101.390736 
L 244.178694 101.506771 
L 245.089278 101.617441 
L 245.999862 101.722185 
L 246.910447 101.820444 
L 247.821031 101.911657 
L 248.731616 101.995263 
L 249.6422 102.070702 
L 250.552784 102.137415 
L 251.463369 102.194841 
L 252.373953 102.242418 
L 253.284537 102.2796 
L 254.195122 102.306218 
L 255.105706 102.322567 
L 256.01629 102.328966 
L 256.926875 102.325737 
L 257.837459 102.3132 
L 258.748043 102.291676 
L 259.658628 102.261486 
L 260.569212 102.22295 
L 261.479796 102.176389 
L 262.390381 102.122124 
L 263.300965 102.060476 
L 264.211549 101.991764 
L 265.122134 101.916311 
L 266.032718 101.834436 
L 266.943303 101.74646 
L 267.853887 101.652705 
L 268.764471 101.55349 
L 269.675056 101.449137 
L 270.58564 101.339965 
L 271.496224 101.226297 
L 272.406809 101.108452 
L 273.317393 100.986751 
L 274.227977 100.861516 
L 275.138562 100.733066 
L 276.049146 100.601722 
L 276.95973 100.467806 
L 277.870315 100.331637 
L 278.780899 100.193537 
L 279.691483 100.053826 
L 280.602068 99.912825 
L 281.512652 99.770854 
L 282.423237 99.628235 
L 283.333821 99.485288 
L 284.244405 99.342334 
L 285.15499 99.199693 
L 286.065574 99.057686 
L 286.976158 98.916634 
L 287.886743 98.776858 
L 288.797327 98.638678 
L 289.707911 98.502415 
L 290.618496 98.368389 
L 291.52908 98.236922 
L 292.439664 98.108334 
L 293.350249 97.982946 
L 294.260833 97.861079 
L 295.171417 97.743052 
L 296.082002 97.629188 
L 296.992586 97.519806 
L 297.90317 97.415227 
L 298.813755 97.315773 
L 299.724339 97.221763 
L 300.634924 97.133519 
L 301.545508 97.051361 
L 302.456092 96.97561 
L 303.366677 96.906586 
L 304.277261 96.844611 
L 305.187845 96.790004 
L 306.09843 96.743088 
L 307.009014 96.704182 
L 307.919598 96.673606 
L 308.830183 96.651683 
L 309.740767 96.638732 
L 310.651351 96.635075 
L 311.561936 96.641031 
L 312.47252 96.656922 
L 313.383104 96.683069 
L 314.293689 96.719791 
L 315.204273 96.76741 
L 316.114858 96.826247 
L 317.025442 96.896622 
L 317.936026 96.978855 
L 318.846611 97.073269 
L 319.757195 97.180182 
L 320.667779 97.299917 
L 321.578364 97.432793 
L 322.488948 97.579132 
L 323.399532 97.739254 
L 324.310117 97.91348 
L 325.220701 98.10213 
L 326.131285 98.305525 
L 327.04187 98.523987 
L 327.952454 98.757835 
L 328.863038 99.00739 
L 329.773623 99.272974 
L 330.684207 99.554906 
L 330.684207 99.554906 
L 330.684207 103.62 
L 329.773623 103.62 
L 328.863038 103.62 
L 327.952454 103.62 
L 327.04187 103.62 
L 326.131285 103.62 
L 325.220701 103.62 
L 324.310117 103.62 
L 323.399532 103.62 
L 322.488948 103.62 
L 321.578364 103.62 
L 320.667779 103.62 
L 319.757195 103.62 
L 318.846611 103.62 
L 317.936026 103.62 
L 317.025442 103.62 
L 316.114858 103.62 
L 315.204273 103.62 
L 314.293689 103.62 
L 313.383104 103.62 
L 312.47252 103.62 
L 311.561936 103.62 
L 310.651351 103.62 
L 309.740767 103.62 
L 308.830183 103.62 
L 307.919598 103.62 
L 307.009014 103.62 
L 306.09843 103.62 
L 305.187845 103.62 
L 304.277261 103.62 
L 303.366677 103.62 
L 302.456092 103.62 
L 301.545508 103.62 
L 300.634924 103.62 
L 299.724339 103.62 
L 298.813755 103.62 
L 297.90317 103.62 
L 296.992586 103.62 
L 296.082002 103.62 
L 295.171417 103.62 
L 294.260833 103.62 
L 293.350249 103.62 
L 292.439664 103.62 
L 291.52908 103.62 
L 290.618496 103.62 
L 289.707911 103.62 
L 288.797327 103.62 
L 287.886743 103.62 
L 286.976158 103.62 
L 286.065574 103.62 
L 285.15499 103.62 
L 284.244405 103.62 
L 283.333821 103.62 
L 282.423237 103.62 
L 281.512652 103.62 
L 280.602068 103.62 
L 279.691483 103.62 
L 278.780899 103.62 
L 277.870315 103.62 
L 276.95973 103.62 
L 276.049146 103.62 
L 275.138562 103.62 
L 274.227977 103.62 
L 273.317393 103.62 
L 272.406809 103.62 
L 271.496224 103.62 
L 270.58564 103.62 
L 269.675056 103.62 
L 268.764471 103.62 
L 267.853887 103.62 
L 266.943303 103.62 
L 266.032718 103.62 
L 265.122134 103.62 
L 264.211549 103.62 
L 263.300965 103.62 
L 262.390381 103.62 
L 261.479796 103.62 
L 260.569212 103.62 
L 259.658628 103.62 
L 258.748043 103.62 
L 257.837459 103.62 
L 256.926875 103.62 
L 256.01629 103.62 
L 255.105706 103.62 
L 254.195122 103.62 
L 253.284537 103.62 
L 252.373953 103.62 
L 251.463369 103.62 
L 250.552784 103.62 
L 249.6422 103.62 
L 248.731616 103.62 
L 247.821031 103.62 
L 246.910447 103.62 
L 245.999862 103.62 
L 245.089278 103.62 
L 244.178694 103.62 
L 243.268109 103.62 
L 242.357525 103.62 
L 241.446941 103.62 
L 240.536356 103.62 
L 239.625772 103.62 
L 238.715188 103.62 
L 237.804603 103.62 
L 236.894019 103.62 
L 235.983435 103.62 
L 235.07285 103.62 
L 234.162266 103.62 
L 233.251682 103.62 
L 232.341097 103.62 
L 231.430513 103.62 
L 230.519928 103.62 
L 229.609344 103.62 
L 228.69876 103.62 
L 227.788175 103.62 
L 226.877591 103.62 
L 225.967007 103.62 
L 225.056422 103.62 
L 224.145838 103.62 
L 223.235254 103.62 
L 222.324669 103.62 
L 221.414085 103.62 
L 220.503501 103.62 
L 219.592916 103.62 
L 218.682332 103.62 
L 217.771748 103.62 
L 216.861163 103.62 
L 215.950579 103.62 
L 215.039994 103.62 
L 214.12941 103.62 
L 213.218826 103.62 
L 212.308241 103.62 
L 211.397657 103.62 
L 210.487073 103.62 
L 209.576488 103.62 
L 208.665904 103.62 
L 207.75532 103.62 
L 206.844735 103.62 
L 205.934151 103.62 
L 205.023567 103.62 
L 204.112982 103.62 
L 203.202398 103.62 
L 202.291814 103.62 
L 201.381229 103.62 
L 200.470645 103.62 
L 199.560061 103.62 
L 198.649476 103.62 
L 197.738892 103.62 
L 196.828307 103.62 
L 195.917723 103.62 
L 195.007139 103.62 
L 194.096554 103.62 
L 193.18597 103.62 
L 192.275386 103.62 
L 191.364801 103.62 
L 190.454217 103.62 
L 189.543633 103.62 
z
" clip-path="url(#p555d30108a)" style="fill: #6ec5bc; fill-opacity: 0.1; stroke: #6ec5bc; stroke-opacity: 0.1"/>
   </g>
   <g id="PolyCollection_2">
    <defs>
     <path id="m94c9087f2f" d="M 60.125756 -105.18 
L 60.240655 -104.820793 
L 61.151239 -102.05886 
L 62.061823 -99.380739 
L 62.972408 -96.785423 
L 63.882992 -94.271906 
L 64.793577 -91.839179 
L 65.704161 -89.486237 
L 66.614745 -87.212072 
L 67.52533 -85.015677 
L 68.435914 -82.896044 
L 69.346498 -80.852168 
L 70.257083 -78.88304 
L 71.167667 -76.987655 
L 72.078251 -75.165004 
L 72.988836 -73.414081 
L 73.89942 -71.733878 
L 74.810004 -70.12339 
L 75.720589 -68.581608 
L 76.631173 -67.107525 
L 77.541757 -65.700135 
L 78.452342 -64.358431 
L 79.362926 -63.081404 
L 80.27351 -61.86805 
L 81.184095 -60.717359 
L 82.094679 -59.628326 
L 83.005264 -58.599944 
L 83.915848 -57.631204 
L 84.826432 -56.721101 
L 85.737017 -55.868627 
L 86.647601 -55.072775 
L 87.558185 -54.332538 
L 88.46877 -53.646908 
L 89.379354 -53.01488 
L 90.289938 -52.435446 
L 91.200523 -51.907599 
L 92.111107 -51.430331 
L 93.021691 -51.002637 
L 93.932276 -50.623508 
L 94.84286 -50.291938 
L 95.753444 -50.006919 
L 96.664029 -49.767445 
L 97.574613 -49.572509 
L 98.485198 -49.421103 
L 99.395782 -49.31222 
L 100.306366 -49.244854 
L 101.216951 -49.217998 
L 102.127535 -49.230643 
L 103.038119 -49.281785 
L 103.948704 -49.370414 
L 104.859288 -49.495524 
L 105.769872 -49.656109 
L 106.680457 -49.851161 
L 107.591041 -50.079673 
L 108.501625 -50.340638 
L 109.41221 -50.633049 
L 110.322794 -50.955899 
L 111.233378 -51.308181 
L 112.143963 -51.688887 
L 113.054547 -52.097012 
L 113.965131 -52.531547 
L 114.875716 -52.991486 
L 115.7863 -53.475822 
L 116.696885 -53.983547 
L 117.607469 -54.513655 
L 118.518053 -55.065139 
L 119.428638 -55.636991 
L 120.339222 -56.228204 
L 121.249806 -56.837772 
L 122.160391 -57.464687 
L 123.070975 -58.107943 
L 123.981559 -58.766532 
L 124.892144 -59.439447 
L 125.802728 -60.125682 
L 126.713312 -60.824228 
L 127.623897 -61.53408 
L 128.534481 -62.25423 
L 129.445065 -62.983671 
L 130.35565 -63.721395 
L 131.266234 -64.466397 
L 132.176819 -65.217669 
L 133.087403 -65.974203 
L 133.997987 -66.734994 
L 134.908572 -67.499033 
L 135.819156 -68.265314 
L 136.72974 -69.032851 
L 137.640325 -69.801039 
L 138.550909 -70.569581 
L 139.461493 -71.338193 
L 140.372078 -72.106589 
L 141.282662 -72.874484 
L 142.193246 -73.641593 
L 143.103831 -74.407631 
L 144.014415 -75.172311 
L 144.924999 -75.93535 
L 145.835584 -76.696461 
L 146.746168 -77.45536 
L 147.656752 -78.21176 
L 148.567337 -78.965378 
L 149.477921 -79.715927 
L 150.388506 -80.463123 
L 151.29909 -81.20668 
L 152.209674 -81.946312 
L 153.120259 -82.681735 
L 154.030843 -83.412664 
L 154.941427 -84.138812 
L 155.852012 -84.859895 
L 156.762596 -85.575628 
L 157.67318 -86.285725 
L 158.583765 -86.989901 
L 159.494349 -87.68787 
L 160.404933 -88.379348 
L 161.315518 -89.064049 
L 162.226102 -89.741688 
L 163.136686 -90.411979 
L 164.047271 -91.074638 
L 164.957855 -91.729379 
L 165.86844 -92.375917 
L 166.779024 -93.013966 
L 167.689608 -93.643242 
L 168.600193 -94.263458 
L 169.510777 -94.874331 
L 170.421361 -95.475574 
L 171.331946 -96.066902 
L 172.24253 -96.64803 
L 173.153114 -97.218672 
L 174.063699 -97.778544 
L 174.974283 -98.327361 
L 175.884867 -98.864861 
L 176.795452 -99.390943 
L 177.706036 -99.905565 
L 178.61662 -100.408682 
L 179.527205 -100.900253 
L 180.437789 -101.380234 
L 181.348373 -101.848584 
L 182.258958 -102.305259 
L 183.169542 -102.750218 
L 184.080127 -103.183416 
L 184.990711 -103.604811 
L 185.901295 -104.014362 
L 186.81188 -104.412024 
L 187.722464 -104.797756 
L 188.633048 -105.171515 
L 188.654407 -105.18 
L 188.633048 -105.18 
L 187.722464 -105.18 
L 186.81188 -105.18 
L 185.901295 -105.18 
L 184.990711 -105.18 
L 184.080127 -105.18 
L 183.169542 -105.18 
L 182.258958 -105.18 
L 181.348373 -105.18 
L 180.437789 -105.18 
L 179.527205 -105.18 
L 178.61662 -105.18 
L 177.706036 -105.18 
L 176.795452 -105.18 
L 175.884867 -105.18 
L 174.974283 -105.18 
L 174.063699 -105.18 
L 173.153114 -105.18 
L 172.24253 -105.18 
L 171.331946 -105.18 
L 170.421361 -105.18 
L 169.510777 -105.18 
L 168.600193 -105.18 
L 167.689608 -105.18 
L 166.779024 -105.18 
L 165.86844 -105.18 
L 164.957855 -105.18 
L 164.047271 -105.18 
L 163.136686 -105.18 
L 162.226102 -105.18 
L 161.315518 -105.18 
L 160.404933 -105.18 
L 159.494349 -105.18 
L 158.583765 -105.18 
L 157.67318 -105.18 
L 156.762596 -105.18 
L 155.852012 -105.18 
L 154.941427 -105.18 
L 154.030843 -105.18 
L 153.120259 -105.18 
L 152.209674 -105.18 
L 151.29909 -105.18 
L 150.388506 -105.18 
L 149.477921 -105.18 
L 148.567337 -105.18 
L 147.656752 -105.18 
L 146.746168 -105.18 
L 145.835584 -105.18 
L 144.924999 -105.18 
L 144.014415 -105.18 
L 143.103831 -105.18 
L 142.193246 -105.18 
L 141.282662 -105.18 
L 140.372078 -105.18 
L 139.461493 -105.18 
L 138.550909 -105.18 
L 137.640325 -105.18 
L 136.72974 -105.18 
L 135.819156 -105.18 
L 134.908572 -105.18 
L 133.997987 -105.18 
L 133.087403 -105.18 
L 132.176819 -105.18 
L 131.266234 -105.18 
L 130.35565 -105.18 
L 129.445065 -105.18 
L 128.534481 -105.18 
L 127.623897 -105.18 
L 126.713312 -105.18 
L 125.802728 -105.18 
L 124.892144 -105.18 
L 123.981559 -105.18 
L 123.070975 -105.18 
L 122.160391 -105.18 
L 121.249806 -105.18 
L 120.339222 -105.18 
L 119.428638 -105.18 
L 118.518053 -105.18 
L 117.607469 -105.18 
L 116.696885 -105.18 
L 115.7863 -105.18 
L 114.875716 -105.18 
L 113.965131 -105.18 
L 113.054547 -105.18 
L 112.143963 -105.18 
L 111.233378 -105.18 
L 110.322794 -105.18 
L 109.41221 -105.18 
L 108.501625 -105.18 
L 107.591041 -105.18 
L 106.680457 -105.18 
L 105.769872 -105.18 
L 104.859288 -105.18 
L 103.948704 -105.18 
L 103.038119 -105.18 
L 102.127535 -105.18 
L 101.216951 -105.18 
L 100.306366 -105.18 
L 99.395782 -105.18 
L 98.485198 -105.18 
L 97.574613 -105.18 
L 96.664029 -105.18 
L 95.753444 -105.18 
L 94.84286 -105.18 
L 93.932276 -105.18 
L 93.021691 -105.18 
L 92.111107 -105.18 
L 91.200523 -105.18 
L 90.289938 -105.18 
L 89.379354 -105.18 
L 88.46877 -105.18 
L 87.558185 -105.18 
L 86.647601 -105.18 
L 85.737017 -105.18 
L 84.826432 -105.18 
L 83.915848 -105.18 
L 83.005264 -105.18 
L 82.094679 -105.18 
L 81.184095 -105.18 
L 80.27351 -105.18 
L 79.362926 -105.18 
L 78.452342 -105.18 
L 77.541757 -105.18 
L 76.631173 -105.18 
L 75.720589 -105.18 
L 74.810004 -105.18 
L 73.89942 -105.18 
L 72.988836 -105.18 
L 72.078251 -105.18 
L 71.167667 -105.18 
L 70.257083 -105.18 
L 69.346498 -105.18 
L 68.435914 -105.18 
L 67.52533 -105.18 
L 66.614745 -105.18 
L 65.704161 -105.18 
L 64.793577 -105.18 
L 63.882992 -105.18 
L 62.972408 -105.18 
L 62.061823 -105.18 
L 61.151239 -105.18 
L 60.240655 -105.18 
z
" style="stroke: #ed6b4d; stroke-opacity: 0.1"/>
    </defs>
    <g clip-path="url(#p555d30108a)">
     <use xlink:href="#m94c9087f2f" x="0" y="208.8" style="fill: #ed6b4d; fill-opacity: 0.1; stroke: #ed6b4d; stroke-opacity: 0.1"/>
    </g>
   </g>
   <g id="line2d_1">
    <defs>
     <path id="m4e311b39ea" d="M 0 3 
C 0.795609 3 1.55874 2.683901 2.12132 2.12132 
C 2.683901 1.55874 3 0.795609 3 0 
C 3 -0.795609 2.683901 -1.55874 2.12132 -2.12132 
C 1.55874 -2.683901 0.795609 -3 0 -3 
C -0.795609 -3 -1.55874 -2.683901 -2.12132 -2.12132 
C -2.683901 -1.55874 -3 -0.795609 -3 0 
C -3 0.795609 -2.683901 1.55874 -2.12132 2.12132 
C -1.55874 2.683901 -0.795609 3 0 3 
z
" style="stroke: #0035a0"/>
    </defs>
    <g clip-path="url(#p555d30108a)">
     <use xlink:href="#m4e311b39ea" x="58.419486" y="98.199875" style="fill: #0035a0; stroke: #0035a0"/>
     <use xlink:href="#m4e311b39ea" x="97.314446" y="159.176281" style="fill: #0035a0; stroke: #0035a0"/>
     <use xlink:href="#m4e311b39ea" x="136.209406" y="140.205844" style="fill: #0035a0; stroke: #0035a0"/>
     <use xlink:href="#m4e311b39ea" x="175.104367" y="110.395156" style="fill: #0035a0; stroke: #0035a0"/>
     <use xlink:href="#m4e311b39ea" x="213.999327" y="98.199875" style="fill: #0035a0; stroke: #0035a0"/>
     <use xlink:href="#m4e311b39ea" x="252.894287" y="102.264969" style="fill: #0035a0; stroke: #0035a0"/>
     <use xlink:href="#m4e311b39ea" x="291.789247" y="98.199875" style="fill: #0035a0; stroke: #0035a0"/>
     <use xlink:href="#m4e311b39ea" x="330.684207" y="99.554906" style="fill: #0035a0; stroke: #0035a0"/>
    </g>
   </g>
   <g id="line2d_2">
    <path d="M 44.80625 103.62 
L 344.297443 103.62 
" clip-path="url(#p555d30108a)" style="fill: none; stroke: #808080; stroke-width: 0.8; stroke-linecap: square"/>
   </g>
   <g id="matplotlib.axis_1">
    <g id="xtick_1">
     <g id="line2d_3">
      <defs>
       <path id="m2d0bcd77b8" d="M 0 0 
L 0 3.5 
" style="stroke: #000000; stroke-width: 0.8"/>
      </defs>
      <g>
       <use xlink:href="#m2d0bcd77b8" x="58.419486" y="184.921875" style="stroke: #000000; stroke-width: 0.8"/>
      </g>
     </g>
     <g id="text_1">
      <!-- 30 Jun -->
      <g transform="translate(42.655424 199.520312) scale(0.1 -0.1)">
       <defs>
        <path id="DejaVuSans-33" d="M 2597 2516 
Q 3050 2419 3304 2112 
Q 3559 1806 3559 1356 
Q 3559 666 3084 287 
Q 2609 -91 1734 -91 
Q 1441 -91 1130 -33 
Q 819 25 488 141 
L 488 750 
Q 750 597 1062 519 
Q 1375 441 1716 441 
Q 2309 441 2620 675 
Q 2931 909 2931 1356 
Q 2931 1769 2642 2001 
Q 2353 2234 1838 2234 
L 1294 2234 
L 1294 2753 
L 1863 2753 
Q 2328 2753 2575 2939 
Q 2822 3125 2822 3475 
Q 2822 3834 2567 4026 
Q 2313 4219 1838 4219 
Q 1578 4219 1281 4162 
Q 984 4106 628 3988 
L 628 4550 
Q 988 4650 1302 4700 
Q 1616 4750 1894 4750 
Q 2613 4750 3031 4423 
Q 3450 4097 3450 3541 
Q 3450 3153 3228 2886 
Q 3006 2619 2597 2516 
z
" transform="scale(0.015625)"/>
        <path id="DejaVuSans-30" d="M 2034 4250 
Q 1547 4250 1301 3770 
Q 1056 3291 1056 2328 
Q 1056 1369 1301 889 
Q 1547 409 2034 409 
Q 2525 409 2770 889 
Q 3016 1369 3016 2328 
Q 3016 3291 2770 3770 
Q 2525 4250 2034 4250 
z
M 2034 4750 
Q 2819 4750 3233 4129 
Q 3647 3509 3647 2328 
Q 3647 1150 3233 529 
Q 2819 -91 2034 -91 
Q 1250 -91 836 529 
Q 422 1150 422 2328 
Q 422 3509 836 4129 
Q 1250 4750 2034 4750 
z
" transform="scale(0.015625)"/>
        <path id="DejaVuSans-20" transform="scale(0.015625)"/>
        <path id="DejaVuSans-4a" d="M 628 4666 
L 1259 4666 
L 1259 325 
Q 1259 -519 939 -900 
Q 619 -1281 -91 -1281 
L -331 -1281 
L -331 -750 
L -134 -750 
Q 284 -750 456 -515 
Q 628 -281 628 325 
L 628 4666 
z
" transform="scale(0.015625)"/>
        <path id="DejaVuSans-75" d="M 544 1381 
L 544 3500 
L 1119 3500 
L 1119 1403 
Q 1119 906 1312 657 
Q 1506 409 1894 409 
Q 2359 409 2629 706 
Q 2900 1003 2900 1516 
L 2900 3500 
L 3475 3500 
L 3475 0 
L 2900 0 
L 2900 538 
Q 2691 219 2414 64 
Q 2138 -91 1772 -91 
Q 1169 -91 856 284 
Q 544 659 544 1381 
z
M 1991 3584 
L 1991 3584 
z
" transform="scale(0.015625)"/>
        <path id="DejaVuSans-6e" d="M 3513 2113 
L 3513 0 
L 2938 0 
L 2938 2094 
Q 2938 2591 2744 2837 
Q 2550 3084 2163 3084 
Q 1697 3084 1428 2787 
Q 1159 2491 1159 1978 
L 1159 0 
L 581 0 
L 581 3500 
L 1159 3500 
L 1159 2956 
Q 1366 3272 1645 3428 
Q 1925 3584 2291 3584 
Q 2894 3584 3203 3211 
Q 3513 2838 3513 2113 
z
" transform="scale(0.015625)"/>
       </defs>
       <use xlink:href="#DejaVuSans-33"/>
       <use xlink:href="#DejaVuSans-30" x="63.623047"/>
       <use xlink:href="#DejaVuSans-20" x="127.246094"/>
       <use xlink:href="#DejaVuSans-4a" x="159.033203"/>
       <use xlink:href="#DejaVuSans-75" x="188.525391"/>
       <use xlink:href="#DejaVuSans-6e" x="251.904297"/>
      </g>
     </g>
    </g>
    <g id="xtick_2">
     <g id="line2d_4">
      <g>
       <use xlink:href="#m2d0bcd77b8" x="97.314446" y="184.921875" style="stroke: #000000; stroke-width: 0.8"/>
      </g>
     </g>
     <g id="text_2">
      <!-- 01 Jul -->
      <g transform="translate(83.330071 199.520312) scale(0.1 -0.1)">
       <defs>
        <path id="DejaVuSans-31" d="M 794 531 
L 1825 531 
L 1825 4091 
L 703 3866 
L 703 4441 
L 1819 4666 
L 2450 4666 
L 2450 531 
L 3481 531 
L 3481 0 
L 794 0 
L 794 531 
z
" transform="scale(0.015625)"/>
        <path id="DejaVuSans-6c" d="M 603 4863 
L 1178 4863 
L 1178 0 
L 603 0 
L 603 4863 
z
" transform="scale(0.015625)"/>
       </defs>
       <use xlink:href="#DejaVuSans-30"/>
       <use xlink:href="#DejaVuSans-31" x="63.623047"/>
       <use xlink:href="#DejaVuSans-20" x="127.246094"/>
       <use xlink:href="#DejaVuSans-4a" x="159.033203"/>
       <use xlink:href="#DejaVuSans-75" x="188.525391"/>
       <use xlink:href="#DejaVuSans-6c" x="251.904297"/>
      </g>
     </g>
    </g>
    <g id="xtick_3">
     <g id="line2d_5">
      <g>
       <use xlink:href="#m2d0bcd77b8" x="136.209406" y="184.921875" style="stroke: #000000; stroke-width: 0.8"/>
      </g>
     </g>
     <g id="text_3">
      <!-- 02 Jul -->
      <g transform="translate(122.225031 199.520312) scale(0.1 -0.1)">
       <defs>
        <path id="DejaVuSans-32" d="M 1228 531 
L 3431 531 
L 3431 0 
L 469 0 
L 469 531 
Q 828 903 1448 1529 
Q 2069 2156 2228 2338 
Q 2531 2678 2651 2914 
Q 2772 3150 2772 3378 
Q 2772 3750 2511 3984 
Q 2250 4219 1831 4219 
Q 1534 4219 1204 4116 
Q 875 4013 500 3803 
L 500 4441 
Q 881 4594 1212 4672 
Q 1544 4750 1819 4750 
Q 2544 4750 2975 4387 
Q 3406 4025 3406 3419 
Q 3406 3131 3298 2873 
Q 3191 2616 2906 2266 
Q 2828 2175 2409 1742 
Q 1991 1309 1228 531 
z
" transform="scale(0.015625)"/>
       </defs>
       <use xlink:href="#DejaVuSans-30"/>
       <use xlink:href="#DejaVuSans-32" x="63.623047"/>
       <use xlink:href="#DejaVuSans-20" x="127.246094"/>
       <use xlink:href="#DejaVuSans-4a" x="159.033203"/>
       <use xlink:href="#DejaVuSans-75" x="188.525391"/>
       <use xlink:href="#DejaVuSans-6c" x="251.904297"/>
      </g>
     </g>
    </g>
    <g id="xtick_4">
     <g id="line2d_6">
      <g>
       <use xlink:href="#m2d0bcd77b8" x="175.104367" y="184.921875" style="stroke: #000000; stroke-width: 0.8"/>
      </g>
     </g>
     <g id="text_4">
      <!-- 03 Jul -->
      <g transform="translate(161.119992 199.520312) scale(0.1 -0.1)">
       <use xlink:href="#DejaVuSans-30"/>
       <use xlink:href="#DejaVuSans-33" x="63.623047"/>
       <use xlink:href="#DejaVuSans-20" x="127.246094"/>
       <use xlink:href="#DejaVuSans-4a" x="159.033203"/>
       <use xlink:href="#DejaVuSans-75" x="188.525391"/>
       <use xlink:href="#DejaVuSans-6c" x="251.904297"/>
      </g>
     </g>
    </g>
    <g id="xtick_5">
     <g id="line2d_7">
      <g>
       <use xlink:href="#m2d0bcd77b8" x="213.999327" y="184.921875" style="stroke: #000000; stroke-width: 0.8"/>
      </g>
     </g>
     <g id="text_5">
      <!-- 04 Jul -->
      <g transform="translate(200.014952 199.520312) scale(0.1 -0.1)">
       <defs>
        <path id="DejaVuSans-34" d="M 2419 4116 
L 825 1625 
L 2419 1625 
L 2419 4116 
z
M 2253 4666 
L 3047 4666 
L 3047 1625 
L 3713 1625 
L 3713 1100 
L 3047 1100 
L 3047 0 
L 2419 0 
L 2419 1100 
L 313 1100 
L 313 1709 
L 2253 4666 
z
" transform="scale(0.015625)"/>
       </defs>
       <use xlink:href="#DejaVuSans-30"/>
       <use xlink:href="#DejaVuSans-34" x="63.623047"/>
       <use xlink:href="#DejaVuSans-20" x="127.246094"/>
       <use xlink:href="#DejaVuSans-4a" x="159.033203"/>
       <use xlink:href="#DejaVuSans-75" x="188.525391"/>
       <use xlink:href="#DejaVuSans-6c" x="251.904297"/>
      </g>
     </g>
    </g>
    <g id="xtick_6">
     <g id="line2d_8">
      <g>
       <use xlink:href="#m2d0bcd77b8" x="252.894287" y="184.921875" style="stroke: #000000; stroke-width: 0.8"/>
      </g>
     </g>
     <g id="text_6">
      <!-- 05 Jul -->
      <g transform="translate(238.909912 199.520312) scale(0.1 -0.1)">
       <defs>
        <path id="DejaVuSans-35" d="M 691 4666 
L 3169 4666 
L 3169 4134 
L 1269 4134 
L 1269 2991 
Q 1406 3038 1543 3061 
Q 1681 3084 1819 3084 
Q 2600 3084 3056 2656 
Q 3513 2228 3513 1497 
Q 3513 744 3044 326 
Q 2575 -91 1722 -91 
Q 1428 -91 1123 -41 
Q 819 9 494 109 
L 494 744 
Q 775 591 1075 516 
Q 1375 441 1709 441 
Q 2250 441 2565 725 
Q 2881 1009 2881 1497 
Q 2881 1984 2565 2268 
Q 2250 2553 1709 2553 
Q 1456 2553 1204 2497 
Q 953 2441 691 2322 
L 691 4666 
z
" transform="scale(0.015625)"/>
       </defs>
       <use xlink:href="#DejaVuSans-30"/>
       <use xlink:href="#DejaVuSans-35" x="63.623047"/>
       <use xlink:href="#DejaVuSans-20" x="127.246094"/>
       <use xlink:href="#DejaVuSans-4a" x="159.033203"/>
       <use xlink:href="#DejaVuSans-75" x="188.525391"/>
       <use xlink:href="#DejaVuSans-6c" x="251.904297"/>
      </g>
     </g>
    </g>
    <g id="xtick_7">
     <g id="line2d_9">
      <g>
       <use xlink:href="#m2d0bcd77b8" x="291.789247" y="184.921875" style="stroke: #000000; stroke-width: 0.8"/>
      </g>
     </g>
     <g id="text_7">
      <!-- 06 Jul -->
      <g transform="translate(277.804872 199.520312) scale(0.1 -0.1)">
       <defs>
        <path id="DejaVuSans-36" d="M 2113 2584 
Q 1688 2584 1439 2293 
Q 1191 2003 1191 1497 
Q 1191 994 1439 701 
Q 1688 409 2113 409 
Q 2538 409 2786 701 
Q 3034 994 3034 1497 
Q 3034 2003 2786 2293 
Q 2538 2584 2113 2584 
z
M 3366 4563 
L 3366 3988 
Q 3128 4100 2886 4159 
Q 2644 4219 2406 4219 
Q 1781 4219 1451 3797 
Q 1122 3375 1075 2522 
Q 1259 2794 1537 2939 
Q 1816 3084 2150 3084 
Q 2853 3084 3261 2657 
Q 3669 2231 3669 1497 
Q 3669 778 3244 343 
Q 2819 -91 2113 -91 
Q 1303 -91 875 529 
Q 447 1150 447 2328 
Q 447 3434 972 4092 
Q 1497 4750 2381 4750 
Q 2619 4750 2861 4703 
Q 3103 4656 3366 4563 
z
" transform="scale(0.015625)"/>
       </defs>
       <use xlink:href="#DejaVuSans-30"/>
       <use xlink:href="#DejaVuSans-36" x="63.623047"/>
       <use xlink:href="#DejaVuSans-20" x="127.246094"/>
       <use xlink:href="#DejaVuSans-4a" x="159.033203"/>
       <use xlink:href="#DejaVuSans-75" x="188.525391"/>
       <use xlink:href="#DejaVuSans-6c" x="251.904297"/>
      </g>
     </g>
    </g>
    <g id="xtick_8">
     <g id="line2d_10">
      <g>
       <use xlink:href="#m2d0bcd77b8" x="330.684207" y="184.921875" style="stroke: #000000; stroke-width: 0.8"/>
      </g>
     </g>
     <g id="text_8">
      <!-- 07 Jul -->
      <g transform="translate(316.699832 199.520312) scale(0.1 -0.1)">
       <defs>
        <path id="DejaVuSans-37" d="M 525 4666 
L 3525 4666 
L 3525 4397 
L 1831 0 
L 1172 0 
L 2766 4134 
L 525 4134 
L 525 4666 
z
" transform="scale(0.015625)"/>
       </defs>
       <use xlink:href="#DejaVuSans-30"/>
       <use xlink:href="#DejaVuSans-37" x="63.623047"/>
       <use xlink:href="#DejaVuSans-20" x="127.246094"/>
       <use xlink:href="#DejaVuSans-4a" x="159.033203"/>
       <use xlink:href="#DejaVuSans-75" x="188.525391"/>
       <use xlink:href="#DejaVuSans-6c" x="251.904297"/>
      </g>
     </g>
    </g>
   </g>
   <g id="matplotlib.axis_2">
    <g id="ytick_1">
     <g id="text_9">
      <!-- −50% -->
      <g transform="translate(7.2 175.170781) scale(0.1 -0.1)">
       <defs>
        <path id="DejaVuSans-2212" d="M 678 2272 
L 4684 2272 
L 4684 1741 
L 678 1741 
L 678 2272 
z
" transform="scale(0.015625)"/>
        <path id="DejaVuSans-25" d="M 4653 2053 
Q 4381 2053 4226 1822 
Q 4072 1591 4072 1178 
Q 4072 772 4226 539 
Q 4381 306 4653 306 
Q 4919 306 5073 539 
Q 5228 772 5228 1178 
Q 5228 1588 5073 1820 
Q 4919 2053 4653 2053 
z
M 4653 2450 
Q 5147 2450 5437 2106 
Q 5728 1763 5728 1178 
Q 5728 594 5436 251 
Q 5144 -91 4653 -91 
Q 4153 -91 3862 251 
Q 3572 594 3572 1178 
Q 3572 1766 3864 2108 
Q 4156 2450 4653 2450 
z
M 1428 4353 
Q 1159 4353 1004 4120 
Q 850 3888 850 3481 
Q 850 3069 1003 2837 
Q 1156 2606 1428 2606 
Q 1700 2606 1854 2837 
Q 2009 3069 2009 3481 
Q 2009 3884 1853 4118 
Q 1697 4353 1428 4353 
z
M 4250 4750 
L 4750 4750 
L 1831 -91 
L 1331 -91 
L 4250 4750 
z
M 1428 4750 
Q 1922 4750 2215 4408 
Q 2509 4066 2509 3481 
Q 2509 2891 2217 2550 
Q 1925 2209 1428 2209 
Q 931 2209 642 2551 
Q 353 2894 353 3481 
Q 353 4063 643 4406 
Q 934 4750 1428 4750 
z
" transform="scale(0.015625)"/>
       </defs>
       <use xlink:href="#DejaVuSans-2212"/>
       <use xlink:href="#DejaVuSans-35" x="83.789062"/>
       <use xlink:href="#DejaVuSans-30" x="147.412109"/>
       <use xlink:href="#DejaVuSans-25" x="211.035156"/>
      </g>
     </g>
    </g>
    <g id="ytick_2">
     <g id="text_10">
      <!-- −25% -->
      <g transform="translate(7.2 141.295) scale(0.1 -0.1)">
       <use xlink:href="#DejaVuSans-2212"/>
       <use xlink:href="#DejaVuSans-32" x="83.789062"/>
       <use xlink:href="#DejaVuSans-35" x="147.412109"/>
       <use xlink:href="#DejaVuSans-25" x="211.035156"/>
      </g>
     </g>
    </g>
    <g id="ytick_3">
     <g id="text_11">
      <!-- 0% -->
      <g transform="translate(21.942188 107.419219) scale(0.1 -0.1)">
       <use xlink:href="#DejaVuSans-30"/>
       <use xlink:href="#DejaVuSans-25" x="63.623047"/>
      </g>
     </g>
    </g>
    <g id="ytick_4">
     <g id="text_12">
      <!-- 25% -->
      <g transform="translate(15.579688 73.543437) scale(0.1 -0.1)">
       <use xlink:href="#DejaVuSans-32"/>
       <use xlink:href="#DejaVuSans-35" x="63.623047"/>
       <use xlink:href="#DejaVuSans-25" x="127.246094"/>
      </g>
     </g>
    </g>
    <g id="ytick_5">
     <g id="text_13">
      <!-- 50% -->
      <g transform="translate(15.579688 39.667656) scale(0.1 -0.1)">
       <use xlink:href="#DejaVuSans-35"/>
       <use xlink:href="#DejaVuSans-30" x="63.623047"/>
       <use xlink:href="#DejaVuSans-25" x="127.246094"/>
      </g>
     </g>
    </g>
   </g>
   <g id="line2d_11">
    <path d="M 58.419486 98.199875 
L 61.151239 106.74114 
L 63.882992 114.528094 
L 66.614745 121.587928 
L 69.346498 127.947832 
L 72.078251 133.634996 
L 74.810004 138.67661 
L 77.541757 143.099865 
L 80.27351 146.93195 
L 82.094679 149.171674 
L 83.915848 151.168796 
L 85.737017 152.931373 
L 87.558185 154.467462 
L 89.379354 155.78512 
L 91.200523 156.892401 
L 93.021691 157.797363 
L 94.84286 158.508062 
L 96.664029 159.032555 
L 98.485198 159.378897 
L 100.306366 159.555146 
L 102.127535 159.569357 
L 103.948704 159.429586 
L 106.680457 158.948839 
L 109.41221 158.166951 
L 112.143963 157.111113 
L 114.875716 155.808514 
L 117.607469 154.286345 
L 121.249806 151.962228 
L 124.892144 149.360553 
L 129.445065 145.816329 
L 135.819156 140.534686 
L 152.209674 126.853688 
L 159.494349 121.11213 
L 164.957855 117.070621 
L 170.421361 113.324426 
L 174.974283 110.472639 
L 179.527205 107.899747 
L 184.080127 105.616584 
L 188.633048 103.628485 
L 192.275386 102.254036 
L 195.917723 101.074574 
L 199.560061 100.09283 
L 203.202398 99.311534 
L 206.844735 98.73342 
L 210.487073 98.361217 
L 214.12941 98.197657 
L 217.771748 98.238326 
L 222.324669 98.529841 
L 227.788175 99.140204 
L 235.983435 100.336547 
L 245.089278 101.617441 
L 250.552784 102.137415 
L 255.105706 102.322567 
L 259.658628 102.261486 
L 264.211549 101.991764 
L 269.675056 101.449137 
L 276.95973 100.467806 
L 297.90317 97.415227 
L 303.366677 96.906586 
L 307.919598 96.673606 
L 312.47252 96.656922 
L 317.025442 96.896622 
L 320.667779 97.299917 
L 324.310117 97.91348 
L 327.952454 98.757835 
L 330.684207 99.554906 
L 330.684207 99.554906 
" clip-path="url(#p555d30108a)" style="fill: none; stroke: #0035a0; stroke-width: 3; stroke-linecap: round"/>
   </g>
   <g id="text_14">
    <!-- St. George's - population change trends -->
    <g transform="translate(75.012159 16.318125) scale(0.12 -0.12)">
     <defs>
      <path id="DejaVuSans-53" d="M 3425 4513 
L 3425 3897 
Q 3066 4069 2747 4153 
Q 2428 4238 2131 4238 
Q 1616 4238 1336 4038 
Q 1056 3838 1056 3469 
Q 1056 3159 1242 3001 
Q 1428 2844 1947 2747 
L 2328 2669 
Q 3034 2534 3370 2195 
Q 3706 1856 3706 1288 
Q 3706 609 3251 259 
Q 2797 -91 1919 -91 
Q 1588 -91 1214 -16 
Q 841 59 441 206 
L 441 856 
Q 825 641 1194 531 
Q 1563 422 1919 422 
Q 2459 422 2753 634 
Q 3047 847 3047 1241 
Q 3047 1584 2836 1778 
Q 2625 1972 2144 2069 
L 1759 2144 
Q 1053 2284 737 2584 
Q 422 2884 422 3419 
Q 422 4038 858 4394 
Q 1294 4750 2059 4750 
Q 2388 4750 2728 4690 
Q 3069 4631 3425 4513 
z
" transform="scale(0.015625)"/>
      <path id="DejaVuSans-74" d="M 1172 4494 
L 1172 3500 
L 2356 3500 
L 2356 3053 
L 1172 3053 
L 1172 1153 
Q 1172 725 1289 603 
Q 1406 481 1766 481 
L 2356 481 
L 2356 0 
L 1766 0 
Q 1100 0 847 248 
Q 594 497 594 1153 
L 594 3053 
L 172 3053 
L 172 3500 
L 594 3500 
L 594 4494 
L 1172 4494 
z
" transform="scale(0.015625)"/>
      <path id="DejaVuSans-2e" d="M 684 794 
L 1344 794 
L 1344 0 
L 684 0 
L 684 794 
z
" transform="scale(0.015625)"/>
      <path id="DejaVuSans-47" d="M 3809 666 
L 3809 1919 
L 2778 1919 
L 2778 2438 
L 4434 2438 
L 4434 434 
Q 4069 175 3628 42 
Q 3188 -91 2688 -91 
Q 1594 -91 976 548 
Q 359 1188 359 2328 
Q 359 3472 976 4111 
Q 1594 4750 2688 4750 
Q 3144 4750 3555 4637 
Q 3966 4525 4313 4306 
L 4313 3634 
Q 3963 3931 3569 4081 
Q 3175 4231 2741 4231 
Q 1884 4231 1454 3753 
Q 1025 3275 1025 2328 
Q 1025 1384 1454 906 
Q 1884 428 2741 428 
Q 3075 428 3337 486 
Q 3600 544 3809 666 
z
" transform="scale(0.015625)"/>
      <path id="DejaVuSans-65" d="M 3597 1894 
L 3597 1613 
L 953 1613 
Q 991 1019 1311 708 
Q 1631 397 2203 397 
Q 2534 397 2845 478 
Q 3156 559 3463 722 
L 3463 178 
Q 3153 47 2828 -22 
Q 2503 -91 2169 -91 
Q 1331 -91 842 396 
Q 353 884 353 1716 
Q 353 2575 817 3079 
Q 1281 3584 2069 3584 
Q 2775 3584 3186 3129 
Q 3597 2675 3597 1894 
z
M 3022 2063 
Q 3016 2534 2758 2815 
Q 2500 3097 2075 3097 
Q 1594 3097 1305 2825 
Q 1016 2553 972 2059 
L 3022 2063 
z
" transform="scale(0.015625)"/>
      <path id="DejaVuSans-6f" d="M 1959 3097 
Q 1497 3097 1228 2736 
Q 959 2375 959 1747 
Q 959 1119 1226 758 
Q 1494 397 1959 397 
Q 2419 397 2687 759 
Q 2956 1122 2956 1747 
Q 2956 2369 2687 2733 
Q 2419 3097 1959 3097 
z
M 1959 3584 
Q 2709 3584 3137 3096 
Q 3566 2609 3566 1747 
Q 3566 888 3137 398 
Q 2709 -91 1959 -91 
Q 1206 -91 779 398 
Q 353 888 353 1747 
Q 353 2609 779 3096 
Q 1206 3584 1959 3584 
z
" transform="scale(0.015625)"/>
      <path id="DejaVuSans-72" d="M 2631 2963 
Q 2534 3019 2420 3045 
Q 2306 3072 2169 3072 
Q 1681 3072 1420 2755 
Q 1159 2438 1159 1844 
L 1159 0 
L 581 0 
L 581 3500 
L 1159 3500 
L 1159 2956 
Q 1341 3275 1631 3429 
Q 1922 3584 2338 3584 
Q 2397 3584 2469 3576 
Q 2541 3569 2628 3553 
L 2631 2963 
z
" transform="scale(0.015625)"/>
      <path id="DejaVuSans-67" d="M 2906 1791 
Q 2906 2416 2648 2759 
Q 2391 3103 1925 3103 
Q 1463 3103 1205 2759 
Q 947 2416 947 1791 
Q 947 1169 1205 825 
Q 1463 481 1925 481 
Q 2391 481 2648 825 
Q 2906 1169 2906 1791 
z
M 3481 434 
Q 3481 -459 3084 -895 
Q 2688 -1331 1869 -1331 
Q 1566 -1331 1297 -1286 
Q 1028 -1241 775 -1147 
L 775 -588 
Q 1028 -725 1275 -790 
Q 1522 -856 1778 -856 
Q 2344 -856 2625 -561 
Q 2906 -266 2906 331 
L 2906 616 
Q 2728 306 2450 153 
Q 2172 0 1784 0 
Q 1141 0 747 490 
Q 353 981 353 1791 
Q 353 2603 747 3093 
Q 1141 3584 1784 3584 
Q 2172 3584 2450 3431 
Q 2728 3278 2906 2969 
L 2906 3500 
L 3481 3500 
L 3481 434 
z
" transform="scale(0.015625)"/>
      <path id="DejaVuSans-27" d="M 1147 4666 
L 1147 2931 
L 616 2931 
L 616 4666 
L 1147 4666 
z
" transform="scale(0.015625)"/>
      <path id="DejaVuSans-73" d="M 2834 3397 
L 2834 2853 
Q 2591 2978 2328 3040 
Q 2066 3103 1784 3103 
Q 1356 3103 1142 2972 
Q 928 2841 928 2578 
Q 928 2378 1081 2264 
Q 1234 2150 1697 2047 
L 1894 2003 
Q 2506 1872 2764 1633 
Q 3022 1394 3022 966 
Q 3022 478 2636 193 
Q 2250 -91 1575 -91 
Q 1294 -91 989 -36 
Q 684 19 347 128 
L 347 722 
Q 666 556 975 473 
Q 1284 391 1588 391 
Q 1994 391 2212 530 
Q 2431 669 2431 922 
Q 2431 1156 2273 1281 
Q 2116 1406 1581 1522 
L 1381 1569 
Q 847 1681 609 1914 
Q 372 2147 372 2553 
Q 372 3047 722 3315 
Q 1072 3584 1716 3584 
Q 2034 3584 2315 3537 
Q 2597 3491 2834 3397 
z
" transform="scale(0.015625)"/>
      <path id="DejaVuSans-2d" d="M 313 2009 
L 1997 2009 
L 1997 1497 
L 313 1497 
L 313 2009 
z
" transform="scale(0.015625)"/>
      <path id="DejaVuSans-70" d="M 1159 525 
L 1159 -1331 
L 581 -1331 
L 581 3500 
L 1159 3500 
L 1159 2969 
Q 1341 3281 1617 3432 
Q 1894 3584 2278 3584 
Q 2916 3584 3314 3078 
Q 3713 2572 3713 1747 
Q 3713 922 3314 415 
Q 2916 -91 2278 -91 
Q 1894 -91 1617 61 
Q 1341 213 1159 525 
z
M 3116 1747 
Q 3116 2381 2855 2742 
Q 2594 3103 2138 3103 
Q 1681 3103 1420 2742 
Q 1159 2381 1159 1747 
Q 1159 1113 1420 752 
Q 1681 391 2138 391 
Q 2594 391 2855 752 
Q 3116 1113 3116 1747 
z
" transform="scale(0.015625)"/>
      <path id="DejaVuSans-61" d="M 2194 1759 
Q 1497 1759 1228 1600 
Q 959 1441 959 1056 
Q 959 750 1161 570 
Q 1363 391 1709 391 
Q 2188 391 2477 730 
Q 2766 1069 2766 1631 
L 2766 1759 
L 2194 1759 
z
M 3341 1997 
L 3341 0 
L 2766 0 
L 2766 531 
Q 2569 213 2275 61 
Q 1981 -91 1556 -91 
Q 1019 -91 701 211 
Q 384 513 384 1019 
Q 384 1609 779 1909 
Q 1175 2209 1959 2209 
L 2766 2209 
L 2766 2266 
Q 2766 2663 2505 2880 
Q 2244 3097 1772 3097 
Q 1472 3097 1187 3025 
Q 903 2953 641 2809 
L 641 3341 
Q 956 3463 1253 3523 
Q 1550 3584 1831 3584 
Q 2591 3584 2966 3190 
Q 3341 2797 3341 1997 
z
" transform="scale(0.015625)"/>
      <path id="DejaVuSans-69" d="M 603 3500 
L 1178 3500 
L 1178 0 
L 603 0 
L 603 3500 
z
M 603 4863 
L 1178 4863 
L 1178 4134 
L 603 4134 
L 603 4863 
z
" transform="scale(0.015625)"/>
      <path id="DejaVuSans-63" d="M 3122 3366 
L 3122 2828 
Q 2878 2963 2633 3030 
Q 2388 3097 2138 3097 
Q 1578 3097 1268 2742 
Q 959 2388 959 1747 
Q 959 1106 1268 751 
Q 1578 397 2138 397 
Q 2388 397 2633 464 
Q 2878 531 3122 666 
L 3122 134 
Q 2881 22 2623 -34 
Q 2366 -91 2075 -91 
Q 1284 -91 818 406 
Q 353 903 353 1747 
Q 353 2603 823 3093 
Q 1294 3584 2113 3584 
Q 2378 3584 2631 3529 
Q 2884 3475 3122 3366 
z
" transform="scale(0.015625)"/>
      <path id="DejaVuSans-68" d="M 3513 2113 
L 3513 0 
L 2938 0 
L 2938 2094 
Q 2938 2591 2744 2837 
Q 2550 3084 2163 3084 
Q 1697 3084 1428 2787 
Q 1159 2491 1159 1978 
L 1159 0 
L 581 0 
L 581 4863 
L 1159 4863 
L 1159 2956 
Q 1366 3272 1645 3428 
Q 1925 3584 2291 3584 
Q 2894 3584 3203 3211 
Q 3513 2838 3513 2113 
z
" transform="scale(0.015625)"/>
      <path id="DejaVuSans-64" d="M 2906 2969 
L 2906 4863 
L 3481 4863 
L 3481 0 
L 2906 0 
L 2906 525 
Q 2725 213 2448 61 
Q 2172 -91 1784 -91 
Q 1150 -91 751 415 
Q 353 922 353 1747 
Q 353 2572 751 3078 
Q 1150 3584 1784 3584 
Q 2172 3584 2448 3432 
Q 2725 3281 2906 2969 
z
M 947 1747 
Q 947 1113 1208 752 
Q 1469 391 1925 391 
Q 2381 391 2643 752 
Q 2906 1113 2906 1747 
Q 2906 2381 2643 2742 
Q 2381 3103 1925 3103 
Q 1469 3103 1208 2742 
Q 947 2381 947 1747 
z
" transform="scale(0.015625)"/>
     </defs>
     <use xlink:href="#DejaVuSans-53"/>
     <use xlink:href="#DejaVuSans-74" x="63.476562"/>
     <use xlink:href="#DejaVuSans-2e" x="102.685547"/>
     <use xlink:href="#DejaVuSans-20" x="134.472656"/>
     <use xlink:href="#DejaVuSans-47" x="166.259766"/>
     <use xlink:href="#DejaVuSans-65" x="243.75"/>
     <use xlink:href="#DejaVuSans-6f" x="305.273438"/>
     <use xlink:href="#DejaVuSans-72" x="366.455078"/>
     <use xlink:href="#DejaVuSans-67" x="405.818359"/>
     <use xlink:href="#DejaVuSans-65" x="469.294922"/>
     <use xlink:href="#DejaVuSans-27" x="530.818359"/>
     <use xlink:href="#DejaVuSans-73" x="558.308594"/>
     <use xlink:href="#DejaVuSans-20" x="610.408203"/>
     <use xlink:href="#DejaVuSans-2d" x="642.195312"/>
     <use xlink:href="#DejaVuSans-20" x="678.279297"/>
     <use xlink:href="#DejaVuSans-70" x="710.066406"/>
     <use xlink:href="#DejaVuSans-6f" x="773.542969"/>
     <use xlink:href="#DejaVuSans-70" x="834.724609"/>
     <use xlink:href="#DejaVuSans-75" x="898.201172"/>
     <use xlink:href="#DejaVuSans-6c" x="961.580078"/>
     <use xlink:href="#DejaVuSans-61" x="989.363281"/>
     <use xlink:href="#DejaVuSans-74" x="1050.642578"/>
     <use xlink:href="#DejaVuSans-69" x="1089.851562"/>
     <use xlink:href="#DejaVuSans-6f" x="1117.634766"/>
     <use xlink:href="#DejaVuSans-6e" x="1178.816406"/>
     <use xlink:href="#DejaVuSans-20" x="1242.195312"/>
     <use xlink:href="#DejaVuSans-63" x="1273.982422"/>
     <use xlink:href="#DejaVuSans-68" x="1328.962891"/>
     <use xlink:href="#DejaVuSans-61" x="1392.341797"/>
     <use xlink:href="#DejaVuSans-6e" x="1453.621094"/>
     <use xlink:href="#DejaVuSans-67" x="1517"/>
     <use xlink:href="#DejaVuSans-65" x="1580.476562"/>
     <use xlink:href="#DejaVuSans-20" x="1642"/>
     <use xlink:href="#DejaVuSans-74" x="1673.787109"/>
     <use xlink:href="#DejaVuSans-72" x="1712.996094"/>
     <use xlink:href="#DejaVuSans-65" x="1751.859375"/>
     <use xlink:href="#DejaVuSans-6e" x="1813.382812"/>
     <use xlink:href="#DejaVuSans-64" x="1876.761719"/>
     <use xlink:href="#DejaVuSans-73" x="1940.238281"/>
    </g>
   </g>
  </g>
 </g>
 <defs>
  <clipPath id="p555d30108a">
   <rect x="44.80625" y="22.318125" width="299.491193" height="162.60375"/>
  </clipPath>
 </defs>
</svg>
